<svg version="1.0" xmlns="http://www.w3.org/2000/svg" viewBox="5.5 -3.5 64 64"><circle fill="#FFF" cx="37.64" cy="28.81" r="28.28"/><path d="M37.44-3.5c9 0 16.57 3.08 22.75 9.26 6.2 6.2 9.31 13.79 9.31 22.74 0 9-3.05 16.48-9.14 22.46-6.48 6.36-14.12 9.54-22.92 9.54-8.65 0-16.15-3.14-22.51-9.43C8.64 44.78 5.5 37.27 5.5 28.5c0-8.76 3.14-16.34 9.43-22.74C21.1-.41 28.6-3.5 37.44-3.5zm.12 5.77A24.92 24.92 0 0019.1 9.93c-5.22 5.33-7.83 11.52-7.83 18.57 0 7.09 2.6 13.22 7.77 18.4 5.18 5.18 11.35 7.77 18.52 7.77 7.12 0 13.33-2.6 18.62-7.83C61.21 42 63.73 35.9 63.73 28.5a25.3 25.3 0 00-7.66-18.57 25.22 25.22 0 00-18.51-7.66zm8.57 18.29v13.08h-3.66v15.54h-9.94V33.64h-3.66V20.56c0-.58.2-1.06.6-1.46a2 2 0 011.46-.6h13.14c.54 0 1.01.2 1.43.6.42.4.63.89.63 1.46zm-13.09-8.23c0-3 1.49-4.51 4.46-4.51s4.46 1.5 4.46 4.5c0 2.98-1.49 4.47-4.46 4.47s-4.46-1.49-4.46-4.46z"/></svg>