  <svg width="280" height="42" viewBox="0 0 280 42" fill="none" xmlns="http://www.w3.org/2000/svg">
            <g clip-path="url(#clip0)">
                <path
                    d="M20.2998 41.2297C9.09983 41.2297 -0.100169 32.1297 -0.000168973 20.8297C0.099831 9.72971 9.09983 0.529714 20.3998 0.629714C31.4998 0.729714 40.5998 9.82971 40.5998 21.1297C40.4998 32.1297 31.4998 41.2297 20.2998 41.2297Z"
                    fill="#02D2D6" />
                <path
                    d="M51.834 28.9127H54.9891V20.963H63.8579V18.3545H54.9891V13.535H64.4045V10.9017H51.834V28.9127ZM66.0957 10.9017V13.8828H69.052V10.9017H66.0957ZM66.0957 15.5473V28.9127H69.052V15.5473H66.0957ZM75.3355 10.9017H72.3792V28.9127H75.3355V10.9017ZM90.7363 23.0747C91.0096 18.603 88.4259 15.2492 84.3269 15.2492C80.5508 15.2492 77.7684 18.1061 77.7684 22.1306C77.7684 25.9813 80.2278 29.2357 84.5256 29.2357C87.9539 29.2357 89.991 27.0495 90.5872 24.913H87.6806C87.1589 26.18 85.9665 26.7762 84.4014 26.7762C82.7121 26.7762 80.9731 25.5589 80.7743 23.0747H90.7363ZM84.3269 17.5596C86.0659 17.5596 87.6558 18.8265 87.7303 20.9133H80.7743C81.0476 18.4042 82.9357 17.5596 84.3269 17.5596ZM98.9554 15.2492C94.9557 15.2492 92.3969 18.28 92.3969 22.2548C92.3969 26.2297 94.9557 29.2357 98.8312 29.2357C101.688 29.2357 104.446 27.4718 105.042 24.3416H102.16C101.763 26.1303 100.347 26.7762 98.8809 26.7762C97.1419 26.7762 95.4526 25.4099 95.4526 22.23C95.4526 19.075 97.0922 17.7086 98.9554 17.7086C100.57 17.7086 101.787 18.7023 102.061 20.1184H104.943C104.421 17.1621 101.887 15.2492 98.9554 15.2492ZM109.549 22.2548C109.549 19.1743 111.188 17.6589 113.076 17.6589C114.964 17.6589 116.604 19.1743 116.604 22.2548C116.604 25.3602 114.964 26.8259 113.076 26.8259C111.188 26.8259 109.549 25.3602 109.549 22.2548ZM113.076 15.2492C109.822 15.2492 106.493 17.4353 106.493 22.2548C106.493 27.0992 109.822 29.2357 113.076 29.2357C116.331 29.2357 119.66 27.0992 119.66 22.2548C119.66 17.4353 116.331 15.2492 113.076 15.2492ZM122.089 10.9017V13.8828H125.045V10.9017H122.089ZM122.089 15.5473V28.9127H125.045V15.5473H122.089ZM131.329 15.5473H128.373V28.9127H131.329V21.8077C131.329 19.3979 132.149 17.6589 134.434 17.6589C136.72 17.6589 136.968 19.4476 136.968 21.2363V28.9127H139.924V20.5159C139.924 17.336 138.608 15.2492 135.378 15.2492C133.49 15.2492 132.099 16.0193 131.329 17.4105V15.5473Z"
                    fill="white" />
                <path
                    d="M22.7996 19.0297C24.5996 19.3297 26.2996 19.5297 28.0996 19.7297C28.1996 19.2297 28.3996 18.7297 28.4996 18.2297C26.6996 17.9297 24.8996 17.7297 22.9996 17.4297C23.5996 15.2297 24.1996 13.0297 24.8996 10.9297C25.0996 10.2297 25.5996 9.6297 26.0996 9.0297C26.7996 8.3297 27.6996 8.5297 28.2996 9.2297C28.4996 9.5297 28.7996 9.9297 28.9996 10.1297C29.3996 10.5297 29.8996 10.6297 30.2996 10.3297C30.4996 10.1297 30.4996 9.5297 30.5996 9.1297C30.5996 8.9297 30.3996 8.8297 30.2996 8.6297C29.6996 7.9297 28.7996 7.6297 27.8996 7.6297C25.8996 7.5297 24.3996 8.5297 23.2996 10.1297C22.1996 11.6297 21.6996 13.5297 21.0996 15.3297C20.8996 15.8297 20.7996 16.4297 20.5996 16.9297C18.5996 16.6297 16.6996 16.3297 14.7996 16.1297C14.6996 16.6297 14.6996 17.1297 14.5996 17.6297C16.4996 17.9297 18.3996 18.2297 20.2996 18.5297C19.9996 19.6297 19.7996 20.6297 19.5996 21.6297C17.6996 21.3297 15.9996 21.1297 14.1996 20.8297C14.0996 21.4297 14.0996 21.8297 13.9996 22.3297C15.7996 22.6297 17.4996 22.8297 19.2996 23.1297C19.2996 23.3297 19.2996 23.4297 19.2996 23.5297C18.6996 25.9297 18.1996 28.2297 17.5996 30.6297C17.2996 31.7297 16.7996 32.8297 15.8996 33.6297C15.0996 34.2297 14.2996 34.1297 13.6996 33.3297C13.3996 32.9297 13.1996 32.5297 12.8996 32.3297C12.5996 32.1297 12.0996 32.0297 11.8996 32.2297C11.5996 32.4297 11.3996 32.9297 11.4996 33.3297C11.4996 33.6297 11.7996 34.0297 12.0996 34.2297C12.9996 34.9297 14.1996 35.0297 15.2996 34.8297C17.1996 34.4297 18.4996 33.2297 19.3996 31.6297C19.9996 30.3297 20.4996 28.9297 20.9996 27.5297C21.3996 26.2297 21.6996 24.9297 22.0996 23.6297C23.9996 23.9297 25.7996 24.1297 27.5996 24.4297C27.7996 23.9297 27.8996 23.4297 27.9996 22.9297C26.0996 22.6297 24.1996 22.3297 22.2996 22.1297C22.3996 21.0297 22.5996 20.1297 22.7996 19.0297Z"
                    fill="white" />
                <path
                    d="M150.714 29.2349H153.248V21.0616H161.893V18.8755H153.248V13.4101H162.415V11.2239H150.714V29.2349ZM165.807 22.6019C165.807 18.95 167.745 17.6333 169.807 17.6333C171.869 17.6333 173.807 19.0245 173.807 22.6019C173.807 26.0302 171.869 27.5705 169.807 27.5705C167.745 27.5705 165.807 26.1793 165.807 22.6019ZM169.807 15.6459C166.702 15.6459 163.398 17.7576 163.398 22.6019C163.398 27.4462 166.702 29.5579 169.807 29.5579C172.912 29.5579 176.217 27.4462 176.217 22.6019C176.217 17.7576 172.912 15.6459 169.807 15.6459ZM187.193 29.2349H189.454V15.8695H187.193V23.223C187.193 26.1296 185.951 27.5953 183.79 27.5953C181.305 27.5953 180.982 25.8066 180.982 23.7447V15.8695H178.722V24.4154C178.722 27.4711 179.914 29.5579 182.995 29.5579C185.206 29.5579 186.423 28.589 187.193 27.322V29.2349ZM195.301 15.8695H193.04V29.2349H195.301V21.9808C195.301 19.0742 196.642 17.6085 198.829 17.6085C201.412 17.6085 201.76 19.3972 201.76 21.4591V29.2349H204.021V20.7884C204.021 17.7327 202.853 15.6459 199.623 15.6459C197.363 15.6459 196.071 16.6148 195.301 17.8818V15.8695ZM216.569 17.9811C215.75 16.5651 214.358 15.6459 212.197 15.6459C209.117 15.6459 206.483 18.2296 206.483 22.6019C206.483 27.0488 209.117 29.5579 212.197 29.5579C214.358 29.5579 215.75 28.6387 216.569 27.2227V29.2349H218.83V11.2239H216.569V17.9811ZM216.669 22.6019C216.669 26.1296 214.781 27.6201 212.768 27.6201C210.458 27.6201 208.943 25.8563 208.943 22.6019C208.943 19.3475 210.458 17.5837 212.768 17.5837C214.781 17.5837 216.669 19.0742 216.669 22.6019ZM230.817 23.6453C230.817 26.8003 228.805 27.7692 226.693 27.7692C225.078 27.7692 224.11 26.9245 224.11 25.6576C224.11 23.8192 226.718 23.1981 230.817 22.8006V23.6453ZM226.196 29.5579C228.581 29.5579 229.948 28.7878 230.767 27.3966C230.792 28.1915 230.867 28.7381 230.941 29.2349H233.227C232.954 27.9679 232.854 26.4525 232.879 24.1918L232.904 21.1113C232.929 17.3104 231.339 15.5962 227.588 15.5962C225.004 15.5962 222.42 17.211 222.221 20.0928H224.557C224.656 18.4283 225.724 17.4346 227.612 17.4346C229.302 17.4346 230.643 18.2296 230.643 20.689V21.012C225.178 21.6082 221.6 22.5522 221.6 25.7072C221.6 28.1667 223.687 29.5579 226.196 29.5579ZM236.918 15.8695H234.807V17.683H236.918V25.8811C236.918 28.6635 237.515 29.2349 240.073 29.2349H241.713V27.3469H240.57C239.278 27.3469 239.179 26.9991 239.179 25.6079V17.683H241.713V15.8695H239.179V12.5157H236.918V15.8695ZM244.594 15.8695V29.2349H246.854V15.8695H244.594ZM244.594 11.2239V13.9566H246.854V11.2239H244.594ZM251.981 22.6019C251.981 18.95 253.919 17.6333 255.981 17.6333C258.042 17.6333 259.98 19.0245 259.98 22.6019C259.98 26.0302 258.042 27.5705 255.981 27.5705C253.919 27.5705 251.981 26.1793 251.981 22.6019ZM255.981 15.6459C252.875 15.6459 249.571 17.7576 249.571 22.6019C249.571 27.4462 252.875 29.5579 255.981 29.5579C259.086 29.5579 262.39 27.4462 262.39 22.6019C262.39 17.7576 259.086 15.6459 255.981 15.6459ZM267.355 15.8695H265.094V29.2349H267.355V21.9808C267.355 19.0742 268.696 17.6085 270.882 17.6085C273.466 17.6085 273.814 19.3972 273.814 21.4591V29.2349H276.074V20.7884C276.074 17.7327 274.907 15.6459 271.677 15.6459C269.417 15.6459 268.125 16.6148 267.355 17.8818V15.8695Z"
                    fill="#02D2D6" />
            </g>
            <defs>
                <clipPath id="clip0">
                    <rect width="279.4" height="40.6" fill="white" transform="translate(0 0.6297)" />
                </clipPath>
            </defs>
        </svg>