<svg xmlns="http://www.w3.org/2000/svg" viewBox="0 0 784 407">
  <g transform="translate(-355 -2939)">
    <rect width="784" height="407" rx="10" transform="translate(355 2939)" fill="#08072e"/>
  </g>
  <g id="Group_3264" data-name="Group 3264" transform="translate(-9607.363 -562.5)">
    <g id="Group_2411" data-name="Group 2411" transform="translate(9898.428 647)">
      <path id="Path_4188" data-name="Path 4188" d="M950.484,334.517a41.566,41.566,0,0,0-20.018,5.16c-7.736,4.2-14.466,10.712-20.025,19.384-3.867,6.108-7.45,14.258-10.9,24.814-28,1.959-50.162,24.521-50.162,51.974,0,18.821,10.5,35.976,27.208,45.2l-.438,1.839c-5.858,25.285-12.935,34.257-17.621,34.267a2.911,2.911,0,0,1-.822-.806L853.52,510.5c-3.839-5.24-8.343-6.844-11.459-7.268A13.105,13.105,0,0,0,831.83,506.2a13.662,13.662,0,0,0-4.963,8.727c-.582,3.981.053,9.845,6.381,15.172,4.182,3.521,9.672,5.761,16.317,6.66a43.729,43.729,0,0,0,29.771-6.524c8.837-5.536,15.967-13.849,21.2-24.716a152.161,152.161,0,0,0,6.931-17.7c28-1.961,50.156-24.523,50.156-51.973,0-18.619-10.341-35.681-26.8-44.967,2.935-11.494,5.522-19.956,7.686-25.155,2.069-4.832,5.405-10.593,9.545-10.593.074,0,.148,0,.225,0,.725.906,2.06,2.62,4.493,5.846a18.3,18.3,0,0,0,12.256,7.508,17.837,17.837,0,0,0,2.387.166c6.831,0,11.7-4.294,12.718-11.214.6-4.09-.085-10.121-6.71-15.63-4.387-3.637-10.121-5.957-17.047-6.9a43.919,43.919,0,0,0-5.885-.4h0M887.395,467.2a34.929,34.929,0,0,1-20.235-31.355c0-18.893,15.634-34.327,35.1-34.96-.438,1.666-.87,3.356-1.3,5.105l-2.646,10.982-4.969,21.34-2.289,10.92q-.573,3.145-1.388,7.148c-.9,4.336-1.656,7.932-2.27,10.819m17.478,3.6q2.387-8.664,4.787-18.938l2.4-10.9q.962-4.205,1.826-8.535,1.342-6.825,2.7-12.975l2.4-10.905q.453-1.991.894-3.908a34.908,34.908,0,0,1,19.945,31.212c0,18.849-15.56,34.253-34.959,34.954m45.611-143.411h0a51.831,51.831,0,0,1,6.912.47c8.355,1.132,15.369,4.01,20.848,8.552,7.144,5.941,10.412,13.758,9.21,22.019-1.521,10.381-9.577,17.352-20.047,17.352a25.417,25.417,0,0,1-20.543-10.5c-.462.837-.973,1.875-1.521,3.155a166.9,166.9,0,0,0-6.063,19.245,58.841,58.841,0,0,1,25.738,48.161c0,29.257-22.467,54.083-52.009,58.529a144.72,144.72,0,0,1-5.761,14.13c-5.825,12.1-13.858,21.421-23.878,27.7a51.387,51.387,0,0,1-27.621,8.1,54.012,54.012,0,0,1-7.215-.492c-8.093-1.095-14.876-3.9-20.158-8.352-6.882-5.794-10.02-13.44-8.838-21.53a21.1,21.1,0,0,1,23.546-17.763c4.566.622,11.12,2.9,16.483,10.218l.364.509c2.223-3.673,5.289-10.6,8.268-22.546a58.774,58.774,0,0,1-26.222-48.5c0-29.254,22.465-54.078,52-58.528a108.932,108.932,0,0,1,10.142-21.969c6.237-9.73,13.87-17.08,22.708-21.881A49.105,49.105,0,0,1,950.484,327.391ZM882.417,454.944c.522-2.568.974-4.893,1.347-6.939l2.324-11.1,5-21.489,1.28-5.314a27.75,27.75,0,0,0-17.809,25.745A27.137,27.137,0,0,0,882.417,454.944Zm32.53,6.514a27.757,27.757,0,0,0,17.485-25.609,27.16,27.16,0,0,0-7.716-18.94l-.886,4.02q-1.346,6.085-2.67,12.822c-.6,2.974-1.215,5.88-1.87,8.742l-2.39,10.85Q915.918,457.55,914.946,461.458Z" transform="translate(-805.03 -313.139)" fill="#154ed9"/>
      <path id="Path_4188_-_Outline" data-name="Path 4188 - Outline" d="M950.307,326.891h0a52.149,52.149,0,0,1,6.956.473c8.415,1.14,15.484,4.042,21.011,8.624,7.232,6.013,10.543,13.938,9.324,22.315-1.545,10.544-9.73,17.629-20.368,17.629A25.706,25.706,0,0,1,946.737,365.7c-.425.805-.852,1.708-1.272,2.69a165.211,165.211,0,0,0-5.99,18.982,61.094,61.094,0,0,1,10.643,9.42,60.064,60.064,0,0,1,8.141,11.62,58.518,58.518,0,0,1,5.125,13.142,56.986,56.986,0,0,1-2.213,35.1,59.341,59.341,0,0,1-11.014,17.8,61.806,61.806,0,0,1-16.58,13.123,62.611,62.611,0,0,1-20.5,6.913,144.676,144.676,0,0,1-5.709,13.979c-5.851,12.158-13.925,21.522-24,27.833a51.708,51.708,0,0,1-27.793,8.149,54.339,54.339,0,0,1-7.259-.495c-8.155-1.1-14.993-3.938-20.323-8.425-6.971-5.868-10.149-13.619-8.95-21.824a21.472,21.472,0,0,1,21.009-18.233,21.855,21.855,0,0,1,2.9.2c4.622.63,11.271,2.936,16.7,10.348l0,0,.075.105a53.958,53.958,0,0,0,3.573-7.7,123.676,123.676,0,0,0,4.351-14.117,61.074,61.074,0,0,1-10.844-9.424,59.912,59.912,0,0,1-8.295-11.682,58.454,58.454,0,0,1-5.223-13.258,57.085,57.085,0,0,1,2.179-35.259,59.34,59.34,0,0,1,11.013-17.8,61.812,61.812,0,0,1,16.578-13.123,62.617,62.617,0,0,1,20.5-6.915A108.626,108.626,0,0,1,903.671,355c6.261-9.767,13.941-17.165,22.827-21.992A49.429,49.429,0,0,1,950.307,326.891Zm16.924,48.393a21.143,21.143,0,0,0,7.225-1.232,18.757,18.757,0,0,0,10.235-8.858,21.25,21.25,0,0,0,2.267-6.985c1.185-8.145-2.046-15.86-9.1-21.723-5.432-4.5-12.391-7.357-20.684-8.481a51.5,51.5,0,0,0-6.869-.467v0a48.788,48.788,0,0,0-23.5,6.04c-8.789,4.774-16.39,12.1-22.59,21.771a108.374,108.374,0,0,0-10.109,21.9l-.065.184-.192.029a61.981,61.981,0,0,0-20.48,6.873,61.167,61.167,0,0,0-16.4,12.985,58.693,58.693,0,0,0-10.893,17.608,56.438,56.438,0,0,0-2.154,34.86,57.8,57.8,0,0,0,5.165,13.111,59.26,59.26,0,0,0,8.2,11.555,60.426,60.426,0,0,0,10.915,9.45l.188.127-.055.22a124.929,124.929,0,0,1-4.429,14.412,52.7,52.7,0,0,1-3.875,8.223l-.255.421-.649-.908c-5.3-7.227-11.767-9.474-16.264-10.087a21.2,21.2,0,0,0-2.814-.19A20.824,20.824,0,0,0,819.682,513.8c-1.165,7.975,1.934,15.516,8.726,21.235,5.235,4.407,11.962,7.193,19.993,8.279a53.7,53.7,0,0,0,7.172.489,51.069,51.069,0,0,0,27.449-8.05c9.968-6.245,17.961-15.519,23.758-27.565a144.616,144.616,0,0,0,5.747-14.1l.065-.183.192-.029a61.974,61.974,0,0,0,20.483-6.871,61.158,61.158,0,0,0,16.407-12.985,58.689,58.689,0,0,0,10.894-17.609,56.339,56.339,0,0,0,2.188-34.7,57.869,57.869,0,0,0-5.068-13,59.415,59.415,0,0,0-8.053-11.494,60.451,60.451,0,0,0-10.715-9.449l-.188-.13.059-.22a167.146,167.146,0,0,1,6.077-19.286v0c.507-1.183,1.023-2.254,1.535-3.184l.239-.434.3.394a25.093,25.093,0,0,0,20.286,10.369Zm-16.924-41.267a44.455,44.455,0,0,1,5.928.4c6.986.947,12.776,3.291,17.211,6.967,6.74,5.6,7.431,11.754,6.824,15.926a13.578,13.578,0,0,1-4.284,8.4,12.984,12.984,0,0,1-8.755,3.093,18.238,18.238,0,0,1-2.431-.169A18.619,18.619,0,0,1,952.329,361c-2.4-3.178-3.7-4.857-4.394-5.722h-.065c-1.756,0-3.538,1.131-5.294,3.361a31.636,31.636,0,0,0-3.952,7.033c-2.145,5.155-4.7,13.521-7.609,24.87a53.679,53.679,0,0,1,19.477,18.977,51.4,51.4,0,0,1,5.389,12.487,50.472,50.472,0,0,1,1.885,13.663,51.2,51.2,0,0,1-14.67,35.771,54.424,54.424,0,0,1-7.448,6.4,55.338,55.338,0,0,1-28.122,10.112,152.024,152.024,0,0,1-6.878,17.529c-5.255,10.92-12.427,19.281-21.316,24.85a44.22,44.22,0,0,1-23.757,7,46.633,46.633,0,0,1-6.229-.425c-6.707-.907-12.253-3.173-16.482-6.733-6.442-5.423-7.086-11.4-6.493-15.467a13.985,13.985,0,0,1,5.079-8.931,13.507,13.507,0,0,1,8.637-3.166,13.894,13.894,0,0,1,1.843.124c3.171.432,7.771,2.066,11.677,7.4l0,0,4.18,5.85a3.187,3.187,0,0,0,.654.672c2.44-.071,5.276-2.725,8-7.491a66.2,66.2,0,0,0,4.66-10.539,148.839,148.839,0,0,0,4.556-15.985l.382-1.6a53.61,53.61,0,0,1-19.775-19,51.329,51.329,0,0,1-5.471-12.573,50.64,50.64,0,0,1-1.914-13.794A51.2,51.2,0,0,1,863.55,399.9,54.414,54.414,0,0,1,871,393.5a55.339,55.339,0,0,1,28.125-10.111c3.442-10.494,7-18.569,10.867-24.68,5.582-8.708,12.359-15.266,20.144-19.495A41.89,41.89,0,0,1,950.307,334.017Zm16.924,34.141a12.348,12.348,0,0,0,8.326-2.931,12.941,12.941,0,0,0,4.071-8.006c.583-4.008-.088-9.922-6.6-15.334-4.339-3.6-10.02-5.894-16.884-6.824a43.8,43.8,0,0,0-5.841-.4,41.249,41.249,0,0,0-19.864,5.121c-7.688,4.176-14.385,10.66-19.907,19.274-3.864,6.1-7.419,14.2-10.865,24.74l-.068.207-.218.015a54.7,54.7,0,0,0-28.011,10.008,53.766,53.766,0,0,0-7.36,6.321,50.553,50.553,0,0,0-14.49,35.322,49.991,49.991,0,0,0,1.889,13.617,50.68,50.68,0,0,0,5.4,12.414,52.977,52.977,0,0,0,19.749,18.885l.216.119-.5,2.079a149.455,149.455,0,0,1-4.576,16.053A66.836,66.836,0,0,1,867,509.484a23.189,23.189,0,0,1-4.532,5.936,6.453,6.453,0,0,1-4.119,1.883h-.079l-.07-.036a3.156,3.156,0,0,1-.932-.9l-.006-.008-4.183-5.854c-3.771-5.146-8.193-6.721-11.239-7.136a13.238,13.238,0,0,0-1.756-.118,12.866,12.866,0,0,0-8.226,3.019,13.347,13.347,0,0,0-4.848,8.524c-.57,3.9.055,9.646,6.269,14.877,4.134,3.48,9.568,5.7,16.151,6.587a45.988,45.988,0,0,0,6.142.42,43.583,43.583,0,0,0,23.413-6.9c8.784-5.5,15.875-13.774,21.076-24.582a152.088,152.088,0,0,0,6.915-17.658l.068-.206.217-.015a54.694,54.694,0,0,0,28.008-10.009,53.759,53.759,0,0,0,7.359-6.321,50.553,50.553,0,0,0,14.487-35.319,49.831,49.831,0,0,0-1.861-13.487,50.75,50.75,0,0,0-5.321-12.329,53.042,53.042,0,0,0-19.455-18.868l-.216-.122.061-.24c2.937-11.5,5.528-19.98,7.7-25.2v0a32.266,32.266,0,0,1,4.039-7.181c1.886-2.394,3.838-3.608,5.8-3.608.08,0,.158,0,.239.005l.147.006.092.115c.665.831,1.985,2.52,4.5,5.853A17.984,17.984,0,0,0,964.887,368,17.588,17.588,0,0,0,967.231,368.158ZM902.5,400.375l-.11.42c-.457,1.738-.882,3.407-1.3,5.1l-2.645,10.98-4.967,21.334-2.287,10.913c-.379,2.079-.846,4.485-1.389,7.151-.786,3.771-1.6,7.69-2.271,10.822l-.086.4-.371-.177a36.428,36.428,0,0,1-14.74-12.791,34.128,34.128,0,0,1-2.906-32.328A35.161,35.161,0,0,1,877,411.115a36.688,36.688,0,0,1,11.251-7.627,37.479,37.479,0,0,1,13.814-3.1Zm-15.517,66.18c.65-3.059,1.432-6.8,2.184-10.413.542-2.662,1.008-5.065,1.386-7.14l0-.008,2.29-10.927,4.969-21.34,2.646-10.984c.386-1.561.777-3.1,1.193-4.689a36.806,36.806,0,0,0-13.142,3.029,36.043,36.043,0,0,0-11.054,7.493,34.517,34.517,0,0,0-7.434,10.882,33.481,33.481,0,0,0,2.852,31.715A35.76,35.76,0,0,0,886.988,466.555Zm32.5-62.565.366.179a36.426,36.426,0,0,1,14.535,12.781,34.125,34.125,0,0,1,2.832,32.164,35.155,35.155,0,0,1-7.54,11.069,36.684,36.684,0,0,1-11.206,7.632,37.472,37.472,0,0,1-13.765,3.134l-.441.016.117-.426c1.59-5.771,3.2-12.138,4.783-18.924l2.4-10.9c.616-2.691,1.212-5.48,1.824-8.529.891-4.532,1.8-8.9,2.7-12.981l2.4-10.9c.289-1.27.6-2.616.9-3.912Zm-14.36,66.294a36.8,36.8,0,0,0,13.086-3.061,36.039,36.039,0,0,0,11.009-7.5,34.509,34.509,0,0,0,7.4-10.866,33.477,33.477,0,0,0-2.779-31.555,35.758,35.758,0,0,0-13.911-12.372c-.27,1.17-.543,2.37-.8,3.508l-2.4,10.9c-.9,4.076-1.81,8.439-2.7,12.967-.614,3.056-1.211,5.851-1.828,8.545l-2.4,10.906C908.252,458.389,906.681,464.618,905.127,470.284ZM892.654,409.4l-1.426,5.921-5,21.484-2.322,11.089c-.368,2.019-.821,4.354-1.348,6.942l-.121.6-.427-.435a27.5,27.5,0,0,1-2.93-35.179,28.45,28.45,0,0,1,5.693-5.995,29.289,29.289,0,0,1,7.3-4.194Zm-10.608,44.7c.474-2.344.885-4.47,1.223-6.327l0-.008,2.325-11.105,5-21.489,1.132-4.7a28.61,28.61,0,0,0-6.556,3.863,27.8,27.8,0,0,0-5.564,5.858,26.85,26.85,0,0,0,2.437,33.91Zm42.307-38.024.419.434a27.465,27.465,0,0,1,2.884,34.871,28.478,28.478,0,0,1-5.589,5.976,29.293,29.293,0,0,1-7.173,4.226l-.592.244.154-.621c.646-2.6,1.3-5.325,1.952-8.108l2.39-10.849c.63-2.755,1.241-5.612,1.868-8.736.881-4.48,1.78-8.8,2.672-12.828ZM915.24,460.73a28.62,28.62,0,0,0,6.421-3.881,27.828,27.828,0,0,0,5.462-5.84,26.811,26.811,0,0,0-2.4-33.61l-.754,3.423c-.891,4.027-1.788,8.339-2.669,12.815-.629,3.132-1.241,5.994-1.872,8.752l-2.391,10.852C916.44,455.8,915.836,458.319,915.24,460.73Z" transform="translate(-804.853 -312.963)" fill="#154ed9"/>
      <path id="Path_4187" data-name="Path 4187" d="M976.852,354.962q-5-4.111-13.352-5.239a34.432,34.432,0,0,0-21.406,3.908q-10.076,5.43-17.479,16.886-6.174,9.675-11.788,28.132c-.526-.018-1.051-.039-1.579-.039-25.967,0-47.09,20.18-47.09,44.986,0,18.516,11.772,34.452,28.543,41.341l-1.741,7.249q-9.792,41.931-26.268,39.72a8.741,8.741,0,0,1-5.748-3.771l-4.166-5.785q-2.826-3.827-6.485-4.318a5.648,5.648,0,0,0-4.458,1.349,6.574,6.574,0,0,0-2.44,4.285q-.722,4.9,3.955,8.814t12.574,4.968a36.65,36.65,0,0,0,24.9-5.44q11.625-7.226,18.661-21.732a160.815,160.815,0,0,0,8.216-21.733c.516.018,1.026.039,1.545.039,25.963,0,47.089-20.182,47.089-44.986,0-18.383-11.608-34.214-28.18-41.187q5.437-22.019,9.475-31.651,7.078-16.4,18.412-14.873a5.165,5.165,0,0,1,2.975,1.176q.918.9,5.906,7.466a11.064,11.064,0,0,0,7.368,4.657q5.95.8,6.8-4.98Q981.847,359.081,976.852,354.962ZM874.622,443.6c0-18.893,15.758-34.327,35.376-34.96-.441,1.666-.876,3.356-1.312,5.105l-2.667,10.982-2.164,9.159-2.844,12.182-2.307,10.92q-.577,3.145-1.4,7.148c-.911,4.336-1.669,7.932-2.288,10.819C882.944,469.225,874.622,457.323,874.622,443.6Zm73.248,0c0,18.849-15.683,34.253-35.236,34.954q2.406-8.664,4.825-18.938l2.421-10.9q.97-4.205,1.84-8.535,1.353-6.825,2.724-12.975l2.421-10.905q.456-1.991.9-3.908C939.682,418.164,947.87,429.981,947.87,443.6Z" transform="translate(-812.78 -320.887)" fill="#06094e"/>
      <path id="Path_4187_-_Outline" data-name="Path 4187 - Outline" d="M954.734,345.517a34.354,34.354,0,0,0-16.512,4.24q-10.076,5.43-17.479,16.886-6.174,9.675-11.788,28.132c-.526-.018-1.051-.039-1.579-.039-25.967,0-47.09,20.18-47.09,44.986,0,18.516,11.772,34.452,28.543,41.341l-1.741,7.249q-9.792,41.931-26.268,39.72a8.741,8.741,0,0,1-5.748-3.771l-4.166-5.785q-2.826-3.827-6.485-4.318a5.646,5.646,0,0,0-4.458,1.349,6.574,6.574,0,0,0-2.44,4.285q-.722,4.9,3.955,8.814t12.574,4.968a36.651,36.651,0,0,0,24.9-5.44q11.625-7.226,18.661-21.732a160.817,160.817,0,0,0,8.216-21.733c.516.018,1.026.039,1.545.039,25.963,0,47.089-20.182,47.089-44.985,0-18.383-11.608-34.214-28.18-41.187q5.437-22.019,9.475-31.651,7.078-16.4,18.412-14.873a5.165,5.165,0,0,1,2.975,1.176q.918.9,5.906,7.466a11.064,11.064,0,0,0,7.368,4.657q5.95.8,6.8-4.98.751-5.123-4.243-9.242t-13.352-5.239a36.817,36.817,0,0,0-4.894-.332m-63.589,125.56c-12.074-5.726-20.4-17.629-20.4-31.355,0-18.893,15.758-34.327,35.376-34.96-.441,1.666-.876,3.356-1.312,5.105l-2.667,10.982-2.164,9.159-2.844,12.182-2.307,10.92q-.578,3.145-1.4,7.148c-.911,4.336-1.669,7.932-2.288,10.819m17.617,3.6q2.406-8.664,4.825-18.938l2.421-10.9q.97-4.205,1.84-8.535,1.353-6.825,2.724-12.975l2.422-10.905q.456-1.991.9-3.908c11.915,5.779,20.1,17.6,20.1,31.212,0,18.849-15.683,34.253-35.236,34.954m45.972-136.285h0a43.938,43.938,0,0,1,5.841.4c6.875.924,12.571,3.211,16.932,6.8,6.7,5.525,7.375,11.63,6.767,15.779-1.018,6.892-5.8,11.169-12.482,11.169a17.436,17.436,0,0,1-2.317-.16,18.09,18.09,0,0,1-12.08-7.389c-2.552-3.356-3.905-5.076-4.616-5.954-.188-.016-.345-.022-.5-.022-4.426,0-7.867,5.819-9.974,10.7-2.167,5.165-4.757,13.565-7.7,24.97,16.573,9.267,26.984,26.361,26.984,45.044,0,27.549-22.354,50.173-50.543,51.993a151.841,151.841,0,0,1-7.019,17.79c-5.269,10.863-12.439,19.165-21.314,24.681a43.764,43.764,0,0,1-29.61,6.451c-6.592-.885-12.041-3.092-16.194-6.562-4.992-4.169-7.277-9.611-6.436-15.322a13.705,13.705,0,0,1,5-8.784,12.73,12.73,0,0,1,9.885-2.875c3.046.412,7.462,1.984,11.276,7.149l4.216,5.854a2.753,2.753,0,0,0,.938.879,5.682,5.682,0,0,0,.662.041c4.678,0,11.783-9.017,17.693-34.326l.406-1.692c-16.822-9.2-27.4-26.392-27.4-45.278,0-27.551,22.358-50.176,50.55-51.994,3.49-10.6,7.114-18.789,11.025-24.918,5.592-8.655,12.35-15.146,20.106-19.326A41.567,41.567,0,0,1,954.733,338.391ZM886.357,459.273l.1-.48c.529-2.58.987-4.916,1.364-6.97l2.344-11.106,5.045-21.506,1.317-5.423c-10.988,4.06-18.653,14.119-18.653,25.934A26.929,26.929,0,0,0,886.357,459.273Zm32.184,6.256c10.812-4.142,18.331-14.127,18.331-25.807a26.945,26.945,0,0,0-8.335-19.4l-1.009,4.544q-1.356,6.082-2.69,12.816c-.6,2.978-1.226,5.886-1.886,8.751l-2.409,10.848Q919.536,461.562,918.541,465.53Z" transform="translate(-808.907 -317.013)" fill="#06094e"/>
      <path id="Path_4187_-_Outline-2" data-name="Path 4187 - Outline" d="M954.528,345.517a34.09,34.09,0,0,0-16.441,4.24q-10.033,5.43-17.4,16.886-6.147,9.675-11.737,28.132c-.523-.018-1.047-.039-1.572-.039-25.855,0-46.887,20.18-46.887,44.986,0,18.516,11.721,34.452,28.42,41.341l-1.733,7.249q-9.75,41.931-26.155,39.72a8.7,8.7,0,0,1-5.723-3.771l-4.148-5.785q-2.814-3.827-6.457-4.318a5.606,5.606,0,0,0-4.438,1.349,6.58,6.58,0,0,0-2.43,4.285q-.719,4.9,3.938,8.814t12.52,4.968a36.366,36.366,0,0,0,24.793-5.44q11.575-7.226,18.581-21.732a161.244,161.244,0,0,0,8.181-21.733c.514.018,1.021.039,1.538.039,25.851,0,46.886-20.182,46.886-44.985,0-18.383-11.558-34.214-28.058-41.187q5.413-22.019,9.434-31.651,7.048-16.4,18.333-14.873a5.13,5.13,0,0,1,2.963,1.176q.914.9,5.88,7.466a11.01,11.01,0,0,0,7.336,4.657q5.925.8,6.772-4.98.748-5.123-4.225-9.242T959.4,345.849a36.5,36.5,0,0,0-4.873-.332m-63.315,125.56c-12.022-5.726-20.308-17.629-20.308-31.355,0-18.893,15.69-34.327,35.224-34.96-.439,1.666-.873,3.356-1.307,5.105l-2.655,10.982-4.986,21.34-2.3,10.92q-.575,3.145-1.393,7.148c-.907,4.336-1.662,7.932-2.278,10.819m17.541,3.6q2.4-8.664,4.8-18.938l2.411-10.9q.966-4.205,1.832-8.535,1.347-6.825,2.712-12.975l2.411-10.905q.455-1.991.9-3.908c11.864,5.779,20.017,17.6,20.017,31.212,0,18.849-15.615,34.253-35.084,34.954m45.774-136.285h0a44.236,44.236,0,0,1,5.906.4c6.95.938,12.705,3.258,17.108,6.9,6.649,5.509,7.331,11.54,6.734,15.63-1.018,6.92-5.908,11.214-12.764,11.214a17.965,17.965,0,0,1-2.4-.166,18.378,18.378,0,0,1-12.3-7.508c-2.442-3.226-3.781-4.94-4.509-5.846-.077,0-.152,0-.225,0-4.154,0-7.5,5.76-9.579,10.593-2.172,5.2-4.767,13.661-7.713,25.155,16.52,9.286,26.9,26.348,26.9,44.967,0,27.451-22.237,50.012-50.335,51.973a151.819,151.819,0,0,1-6.956,17.7c-5.248,10.866-12.4,19.18-21.272,24.716a44.013,44.013,0,0,1-29.877,6.524c-6.669-.9-12.178-3.14-16.375-6.66-6.35-5.327-6.987-11.191-6.4-15.172a13.651,13.651,0,0,1,4.981-8.727,13.185,13.185,0,0,1,10.268-2.971c3.127.424,7.647,2.028,11.5,7.268l4.2,5.854a2.92,2.92,0,0,0,.825.806c4.7-.01,11.805-8.982,17.684-34.267l.44-1.839c-16.768-9.224-27.3-26.378-27.3-45.2,0-27.452,22.241-50.015,50.342-51.974,3.463-10.556,7.059-18.707,10.939-24.814,5.579-8.671,12.333-15.181,20.1-19.384A41.832,41.832,0,0,1,954.527,338.391ZM886.216,458.818c.524-2.568.978-4.893,1.352-6.939l2.332-11.1,5.022-21.5,1.282-5.3a27.753,27.753,0,0,0-17.872,25.745A27.088,27.088,0,0,0,886.216,458.818Zm32.646,6.514a27.759,27.759,0,0,0,17.548-25.609,27.11,27.11,0,0,0-7.744-18.94l-.889,4.02q-1.351,6.085-2.68,12.822c-.6,2.974-1.219,5.88-1.876,8.742l-2.4,10.85Q919.837,461.424,918.862,465.332Z" transform="translate(-808.905 -317.013)" fill="#0621a4"/>
      <path id="Path_4187_-_Outline_-_Outline" data-name="Path 4187 - Outline - Outline" d="M954.351,337.891h0a44.769,44.769,0,0,1,5.949.4c7.01.947,12.821,3.291,17.271,6.967,6.764,5.6,7.458,11.755,6.848,15.927a13.562,13.562,0,0,1-4.3,8.4,13.057,13.057,0,0,1-8.785,3.093,18.362,18.362,0,0,1-2.439-.169,18.7,18.7,0,0,1-12.515-7.633c-2.4-3.177-3.718-4.857-4.411-5.723H951.9c-1.763,0-3.551,1.131-5.314,3.361a31.6,31.6,0,0,0-3.966,7.033c-2.153,5.154-4.722,13.521-7.636,24.87A53.784,53.784,0,0,1,954.534,413.4a51.3,51.3,0,0,1,5.408,12.487,50.309,50.309,0,0,1,1.892,13.663,51.1,51.1,0,0,1-14.723,35.771,54.558,54.558,0,0,1-7.475,6.4,55.648,55.648,0,0,1-28.223,10.112,151.7,151.7,0,0,1-6.9,17.529c-5.274,10.92-12.472,19.281-21.392,24.85a44.492,44.492,0,0,1-23.841,7,46.964,46.964,0,0,1-6.251-.425c-6.731-.907-12.3-3.173-16.54-6.733-6.465-5.423-7.112-11.4-6.516-15.467a13.974,13.974,0,0,1,5.1-8.932,13.583,13.583,0,0,1,8.667-3.165,13.978,13.978,0,0,1,1.849.124c3.182.432,7.8,2.066,11.718,7.4l0,0,4.195,5.85a3.2,3.2,0,0,0,.657.673c2.449-.071,5.3-2.725,8.028-7.491A66.089,66.089,0,0,0,874.86,502.5a148.46,148.46,0,0,0,4.572-15.985l.383-1.6a53.717,53.717,0,0,1-19.845-19,51.238,51.238,0,0,1-5.491-12.573,50.47,50.47,0,0,1-1.921-13.794,51.1,51.1,0,0,1,14.725-35.773,54.55,54.55,0,0,1,7.476-6.4,55.648,55.648,0,0,1,28.225-10.111c3.455-10.494,7.023-18.569,10.906-24.681,5.6-8.708,12.4-15.266,20.216-19.495A42.156,42.156,0,0,1,954.351,337.891Zm16.984,34.141a12.42,12.42,0,0,0,8.357-2.932,12.925,12.925,0,0,0,4.086-8.006c.585-4.008-.088-9.921-6.62-15.334-4.355-3.6-10.056-5.894-16.945-6.824a44.116,44.116,0,0,0-5.862-.4v0a41.515,41.515,0,0,0-19.936,5.121c-7.715,4.176-14.437,10.661-19.978,19.274-3.878,6.1-7.445,14.2-10.9,24.74l-.068.207-.217.015A55.006,55.006,0,0,0,875.135,397.9a53.906,53.906,0,0,0-7.387,6.322,50.459,50.459,0,0,0-14.541,35.321,49.816,49.816,0,0,0,1.9,13.617,50.581,50.581,0,0,0,5.421,12.414,53.084,53.084,0,0,0,19.82,18.885l.216.119-.5,2.079a149.07,149.07,0,0,1-4.592,16.053,66.711,66.711,0,0,1-4.725,10.644,23.2,23.2,0,0,1-4.549,5.936,6.485,6.485,0,0,1-4.133,1.883h-.078l-.069-.035a3.132,3.132,0,0,1-.936-.9l-.006-.008-4.2-5.852c-3.786-5.148-8.225-6.724-11.282-7.139a13.321,13.321,0,0,0-1.762-.119,12.943,12.943,0,0,0-8.257,3.019,13.337,13.337,0,0,0-4.866,8.524c-.572,3.9.056,9.645,6.292,14.877,4.149,3.48,9.6,5.7,16.21,6.587a46.311,46.311,0,0,0,6.164.42,43.854,43.854,0,0,0,23.5-6.9c8.815-5.5,15.932-13.774,21.152-24.582a151.736,151.736,0,0,0,6.94-17.657l.068-.206.216-.015a55,55,0,0,0,28.109-10.009,53.905,53.905,0,0,0,7.386-6.321,50.46,50.46,0,0,0,14.539-35.319,49.664,49.664,0,0,0-1.868-13.487,50.656,50.656,0,0,0-5.34-12.329,53.146,53.146,0,0,0-19.525-18.868l-.217-.122.062-.241c2.948-11.5,5.548-19.98,7.728-25.2v0a32.234,32.234,0,0,1,4.054-7.181c1.892-2.394,3.851-3.607,5.823-3.607.081,0,.159,0,.239.005l.147.006.092.115c.668.831,1.993,2.522,4.515,5.853a18.062,18.062,0,0,0,12.085,7.383A17.71,17.71,0,0,0,971.335,372.032ZM954.35,345.017h0a37,37,0,0,1,4.916.335,32.555,32.555,0,0,1,7.557,1.892,21.745,21.745,0,0,1,5.9,3.418,12.962,12.962,0,0,1,3.631,4.485,8.875,8.875,0,0,1,.708,5.053,6.643,6.643,0,0,1-1.824,4,5.5,5.5,0,0,1-3.905,1.356,10.617,10.617,0,0,1-1.407-.1,10.075,10.075,0,0,1-4.075-1.5,13.6,13.6,0,0,1-3.476-3.285c-3.289-4.345-5.257-6.845-5.85-7.432a4.85,4.85,0,0,0-2.778-1.085,13.842,13.842,0,0,0-1.844-.127,12.161,12.161,0,0,0-4.653.913,14.558,14.558,0,0,0-4.238,2.752c-2.694,2.458-5.136,6.206-7.257,11.141-2.642,6.325-5.788,16.866-9.351,31.333a47.669,47.669,0,0,1,11.169,6.73,46.341,46.341,0,0,1,8.934,9.59,43.74,43.74,0,0,1,7.9,25.057c0,24.984-21.178,45.309-47.21,45.309-.439,0-.878-.015-1.3-.03a161.473,161.473,0,0,1-8.125,21.541,59.248,59.248,0,0,1-8.194,12.757,45.686,45.686,0,0,1-10.507,9.11,39.224,39.224,0,0,1-9.629,4.38,35.9,35.9,0,0,1-10.169,1.462,39.135,39.135,0,0,1-5.209-.355,30.433,30.433,0,0,1-7.138-1.792,20.167,20.167,0,0,1-5.546-3.249,12.185,12.185,0,0,1-3.4-4.274,8.611,8.611,0,0,1-.649-4.836,6.921,6.921,0,0,1,2.546-4.489,5.866,5.866,0,0,1,4.686-1.418,8.433,8.433,0,0,1,3.573,1.378,12.676,12.676,0,0,1,3.1,3.069l0,0,4.146,5.782a10.835,10.835,0,0,0,2.613,2.536,6.9,6.9,0,0,0,2.892,1.107,11.529,11.529,0,0,0,8.654-2.32,25.451,25.451,0,0,0,6.421-7.376,67.658,67.658,0,0,0,5.727-12.387,156.8,156.8,0,0,0,4.995-17.389l1.67-6.983a47.643,47.643,0,0,1-11.308-6.7,46.349,46.349,0,0,1-9.05-9.616,43.749,43.749,0,0,1-8.007-25.217c0-24.984,21.179-45.31,47.211-45.31.448,0,.9.015,1.335.03,1.837-6.037,3.743-11.436,5.668-16.05a79.741,79.741,0,0,1,6.033-11.923,56.562,56.562,0,0,1,8.084-10.008,43,43,0,0,1,9.44-6.99,35.967,35.967,0,0,1,8.1-3.209A34.015,34.015,0,0,1,954.35,345.017Zm16.984,19.889c2.949,0,4.613-1.57,5.088-4.8a8.237,8.237,0,0,0-.656-4.69,12.329,12.329,0,0,0-3.455-4.256,21.1,21.1,0,0,0-5.724-3.315,31.906,31.906,0,0,0-7.406-1.853,36.356,36.356,0,0,0-4.83-.329h0a33.367,33.367,0,0,0-8.33,1.05,35.323,35.323,0,0,0-7.957,3.151,42.35,42.35,0,0,0-9.3,6.885,55.915,55.915,0,0,0-7.989,9.891,79.111,79.111,0,0,0-5.981,11.824c-1.941,4.655-3.865,10.114-5.718,16.227l-.072.238-.447-.015c-.447-.016-.909-.032-1.363-.032-25.675,0-46.563,20.035-46.563,44.662a43.1,43.1,0,0,0,7.889,24.845,45.7,45.7,0,0,0,8.923,9.481,47.007,47.007,0,0,0,11.407,6.716l.256.106-1.8,7.519a157.429,157.429,0,0,1-5.016,17.46,68.309,68.309,0,0,1-5.785,12.507,26.079,26.079,0,0,1-6.593,7.561,12.175,12.175,0,0,1-9.12,2.437,9.046,9.046,0,0,1-5.938-3.9l-.005-.007-4.146-5.783a12.038,12.038,0,0,0-2.939-2.914,7.791,7.791,0,0,0-3.3-1.274,5.222,5.222,0,0,0-4.19,1.278,6.291,6.291,0,0,0-2.314,4.082,7.971,7.971,0,0,0,.6,4.477,11.55,11.55,0,0,0,3.225,4.042,19.525,19.525,0,0,0,5.369,3.143,29.793,29.793,0,0,0,6.986,1.753,38.494,38.494,0,0,0,5.123.35,35.254,35.254,0,0,0,9.986-1.435,38.584,38.584,0,0,0,9.469-4.309,45.042,45.042,0,0,0,10.358-8.981,58.6,58.6,0,0,0,8.1-12.617,161.672,161.672,0,0,0,8.163-21.688l.073-.236.448.016c.434.015.882.031,1.326.031,25.675,0,46.563-20.035,46.563-44.662a43.1,43.1,0,0,0-7.783-24.687,45.694,45.694,0,0,0-8.809-9.456,47.035,47.035,0,0,0-11.268-6.746l-.254-.107.066-.268c3.6-14.64,6.778-25.3,9.45-31.7v0a43.946,43.946,0,0,1,3.473-6.613,24.592,24.592,0,0,1,3.943-4.751,15.2,15.2,0,0,1,4.428-2.873,12.805,12.805,0,0,1,4.9-.962,14.489,14.489,0,0,1,1.931.132,5.45,5.45,0,0,1,3.147,1.267c.624.617,2.557,3.071,5.911,7.5a12.952,12.952,0,0,0,3.307,3.13,9.432,9.432,0,0,0,3.814,1.4A9.965,9.965,0,0,0,971.335,364.906Zm-64.959,39.342-.111.42c-.457,1.734-.884,3.4-1.305,5.1l-2.655,10.98-4.985,21.334L895.025,453c-.38,2.077-.849,4.483-1.393,7.15-.787,3.762-1.607,7.675-2.279,10.822l-.086.4-.37-.176A36.52,36.52,0,0,1,876.1,458.4a34.024,34.024,0,0,1-2.916-32.328,35.158,35.158,0,0,1,7.6-11.085,36.823,36.823,0,0,1,11.291-7.627,37.724,37.724,0,0,1,13.863-3.1ZM890.805,470.43c.655-3.072,1.439-6.813,2.192-10.414.544-2.663,1.012-5.066,1.391-7.14l0-.008,2.3-10.927,4.986-21.34,2.656-10.984c.388-1.564.781-3.1,1.2-4.689a37.053,37.053,0,0,0-13.191,3.029,36.181,36.181,0,0,0-11.094,7.493,34.512,34.512,0,0,0-7.46,10.882,33.376,33.376,0,0,0,2.862,31.714A35.848,35.848,0,0,0,890.805,470.43Zm32.616-62.565.365.178a36.513,36.513,0,0,1,14.586,12.781,34.019,34.019,0,0,1,2.842,32.165,35.148,35.148,0,0,1-7.566,11.069A36.819,36.819,0,0,1,922.4,471.69a37.717,37.717,0,0,1-13.813,3.134l-.442.016.118-.426c1.6-5.771,3.211-12.138,4.8-18.924l2.411-10.9c.618-2.692,1.217-5.481,1.831-8.529.894-4.532,1.807-8.9,2.713-12.981l2.411-10.9c.29-1.27.6-2.616.9-3.912Zm-14.414,66.293a37.045,37.045,0,0,0,13.135-3.061,36.174,36.174,0,0,0,11.049-7.5,34.5,34.5,0,0,0,7.428-10.866,33.371,33.371,0,0,0-2.789-31.554,35.844,35.844,0,0,0-13.963-12.373c-.271,1.17-.545,2.371-.8,3.509l-2.411,10.9c-.9,4.077-1.817,8.44-2.71,12.967-.616,3.055-1.215,5.85-1.834,8.545L913.7,455.636C912.144,462.263,910.567,468.492,909.007,474.158ZM896.489,413.27l-1.429,5.911-5.02,21.494-2.33,11.09c-.37,2.022-.825,4.357-1.352,6.941l-.121.6-.427-.433a27.428,27.428,0,0,1-2.941-35.18,28.491,28.491,0,0,1,5.714-5.995,29.417,29.417,0,0,1,7.326-4.194Zm-10.644,44.7c.475-2.342.888-4.469,1.228-6.329l0-.008,2.334-11.105,5.022-21.5,1.134-4.691a28.74,28.74,0,0,0-6.582,3.864,27.844,27.844,0,0,0-5.584,5.858,26.776,26.776,0,0,0,2.448,33.911ZM928.3,419.949l.419.432a27.391,27.391,0,0,1,2.894,34.872,28.518,28.518,0,0,1-5.609,5.976,29.419,29.419,0,0,1-7.2,4.226l-.592.243.155-.621c.648-2.6,1.307-5.325,1.959-8.108l2.4-10.848c.632-2.753,1.245-5.61,1.875-8.736.884-4.48,1.786-8.8,2.681-12.828ZM919.157,464.6a28.738,28.738,0,0,0,6.447-3.882,27.874,27.874,0,0,0,5.482-5.84,26.737,26.737,0,0,0-2.411-33.611l-.757,3.425c-.894,4.026-1.795,8.338-2.678,12.815-.631,3.134-1.246,6-1.879,8.752l-2.4,10.852C920.361,459.678,919.755,462.194,919.157,464.6Z" transform="translate(-808.728 -316.837)" fill="#0621a4"/>
      <path id="Path_4188-2" data-name="Path 4188" d="M946.465,323.517a48.842,48.842,0,0,0-23.583,6.079c-8.811,4.8-16.421,12.151-22.64,21.881a109.084,109.084,0,0,0-10.112,21.969c-29.449,4.45-51.846,29.274-51.846,58.528a58.82,58.82,0,0,0,26.143,48.5c-2.97,11.944-6.027,20.169-8.606,23.332-5.347-7.32-11.881-10.892-16.433-11.514a21.049,21.049,0,0,0-23.476,17.763c-1.179,8.09,1.951,15.736,8.812,21.53,5.267,4.447,12.029,7.257,20.1,8.352a53.7,53.7,0,0,0,7.194.492,51.12,51.12,0,0,0,27.538-8.1c9.99-6.278,18-15.595,23.806-27.7A144.966,144.966,0,0,0,909.1,490.5c29.453-4.446,51.853-29.272,51.853-58.529a58.889,58.889,0,0,0-25.661-48.161,167.238,167.238,0,0,1,6.045-19.245c.546-1.28,1.057-2.317,1.517-3.155a25.3,25.3,0,0,0,20.482,10.5c10.439,0,18.47-6.97,19.987-17.352,1.2-8.261-2.06-16.078-9.183-22.019-5.463-4.543-12.455-7.42-20.785-8.552a51.525,51.525,0,0,0-6.892-.47h0m0-7.126h0a59.177,59.177,0,0,1,7.917.539c9.755,1.326,18.022,4.761,24.574,10.209,9.09,7.581,13.233,17.667,11.676,28.408a27.016,27.016,0,0,1-27.294,23.489,32.975,32.975,0,0,1-4.431-.3,32.307,32.307,0,0,1-13.1-4.8c-.621,1.95-1.329,4.307-2.129,7.15a65.675,65.675,0,0,1,24.66,50.9c0,30.927-22.782,58.03-53.681,64.757-1.524,4.041-3.065,7.692-4.6,10.891-6.4,13.342-15.31,23.663-26.48,30.682a58.57,58.57,0,0,1-31.562,9.253A61.362,61.362,0,0,1,843.8,547c-9.513-1.291-17.563-4.67-23.928-10.044-8.8-7.431-12.8-17.335-11.261-27.887a27.615,27.615,0,0,1,10.017-17.611,27.906,27.906,0,0,1,21.785-6.216,28.5,28.5,0,0,1,13.27,5.991c.719-2.1,1.527-4.7,2.407-7.927a65.584,65.584,0,0,1-25.179-51.327c0-30.922,22.778-58.023,53.673-64.756a107.805,107.805,0,0,1,9.363-19.451c6.9-10.789,15.405-18.979,25.315-24.378A56.341,56.341,0,0,1,946.465,316.391Z" transform="translate(-801.151 -309.265)" fill="#0090ff"/>
      <path id="Path_4188_-_Outline-2" data-name="Path 4188 - Outline" d="M946.289,315.891h0a59.508,59.508,0,0,1,7.961.542c9.816,1.334,18.139,4.793,24.738,10.281,9.177,7.654,13.363,17.847,11.789,28.7a27.336,27.336,0,0,1-27.615,23.766,33.44,33.44,0,0,1-4.475-.307,33.1,33.1,0,0,1-6.241-1.475,32.415,32.415,0,0,1-6.638-3.151c-.616,1.953-1.268,4.148-1.941,6.534a68.032,68.032,0,0,1,10.288,10.4,66.835,66.835,0,0,1,7.787,12.36,65.407,65.407,0,0,1,4.862,13.7,64.143,64.143,0,0,1,1.678,14.551,63.5,63.5,0,0,1-4.063,22.333,66.744,66.744,0,0,1-11.265,19.328,69.533,69.533,0,0,1-38.436,23.375c-1.506,3.98-3.035,7.6-4.545,10.752-6.427,13.4-15.377,23.764-26.6,30.816a58.891,58.891,0,0,1-31.734,9.3,61.685,61.685,0,0,1-8.264-.564c-9.575-1.3-17.681-4.7-24.093-10.118-8.888-7.505-12.927-17.514-11.373-28.181a28.735,28.735,0,0,1,28.211-24.37,29.708,29.708,0,0,1,3.955.268,28.533,28.533,0,0,1,13.065,5.781c.724-2.145,1.463-4.59,2.2-7.275a67.96,67.96,0,0,1-10.506-10.429,66.635,66.635,0,0,1-7.951-12.443,65.328,65.328,0,0,1-4.964-13.836,64.413,64.413,0,0,1-1.713-14.74,63.492,63.492,0,0,1,4.063-22.33,66.741,66.741,0,0,1,11.263-19.326,69.539,69.539,0,0,1,38.43-23.378,107.556,107.556,0,0,1,9.33-19.345c6.919-10.825,15.475-19.065,25.434-24.49A56.665,56.665,0,0,1,946.289,315.891Zm16.873,62.645a26.7,26.7,0,0,0,26.974-23.212c1.541-10.624-2.565-20.608-11.562-28.112-6.5-5.409-14.718-8.82-24.411-10.137a58.861,58.861,0,0,0-7.873-.536v0a56.024,56.024,0,0,0-27.054,6.959c-9.861,5.373-18.339,13.538-25.2,24.268a107.224,107.224,0,0,0-9.333,19.391l-.062.164-.172.037a68.89,68.89,0,0,0-38.242,23.2A66.1,66.1,0,0,0,835.074,409.7a62.847,62.847,0,0,0-4.021,22.1,63.767,63.767,0,0,0,1.7,14.591,64.688,64.688,0,0,0,4.915,13.7,65.994,65.994,0,0,0,7.874,12.322,67.323,67.323,0,0,0,10.572,10.461l.168.133-.056.206c-.808,2.96-1.619,5.634-2.413,7.947l-.147.428-.358-.277a28.126,28.126,0,0,0-13.116-5.926,29.06,29.06,0,0,0-3.868-.262,28.087,28.087,0,0,0-27.57,23.815c-1.521,10.438,2.439,20.237,11.15,27.593,6.317,5.334,14.312,8.688,23.762,9.971a61.044,61.044,0,0,0,8.177.558,58.252,58.252,0,0,0,31.39-9.2c11.118-6.986,19.987-17.264,26.36-30.548,1.523-3.182,3.066-6.838,4.585-10.866l.062-.165.172-.037a68.884,68.884,0,0,0,38.248-23.195,66.1,66.1,0,0,0,11.156-19.14,62.853,62.853,0,0,0,4.022-22.106,63.5,63.5,0,0,0-1.661-14.4,64.767,64.767,0,0,0-4.814-13.561,66.193,66.193,0,0,0-7.711-12.24,67.385,67.385,0,0,0-10.354-10.439l-.166-.134.058-.205c.742-2.638,1.459-5.047,2.132-7.16l.128-.4.355.228a31.771,31.771,0,0,0,6.855,3.309,32.464,32.464,0,0,0,6.118,1.446A32.792,32.792,0,0,0,963.162,378.536Zm-16.873-55.519a51.857,51.857,0,0,1,6.936.473c8.39,1.14,15.438,4.042,20.949,8.624,7.21,6.013,10.511,13.938,9.3,22.315-1.541,10.545-9.7,17.629-20.308,17.629A25.59,25.59,0,0,1,942.73,361.83c-.423.8-.849,1.706-1.267,2.688A165.578,165.578,0,0,0,935.49,383.5a60.97,60.97,0,0,1,10.611,9.42,60.068,60.068,0,0,1,8.117,11.62,58.626,58.626,0,0,1,5.11,13.142,57.149,57.149,0,0,1-2.207,35.1,59.368,59.368,0,0,1-10.981,17.8,61.649,61.649,0,0,1-16.53,13.123,62.3,62.3,0,0,1-20.442,6.913,144.933,144.933,0,0,1-5.692,13.979c-5.833,12.158-13.883,21.523-23.926,27.833a51.441,51.441,0,0,1-27.71,8.149,54.043,54.043,0,0,1-7.237-.495c-8.131-1.1-14.949-3.938-20.263-8.426-6.95-5.868-10.119-13.619-8.923-21.824A21.428,21.428,0,0,1,836.363,491.6a21.717,21.717,0,0,1,2.892.2,20.379,20.379,0,0,1,8.053,3.3,30.905,30.905,0,0,1,4.377,3.506,36.387,36.387,0,0,1,3.966,4.5c2.5-3.354,5.408-11.353,8.23-22.656a60.946,60.946,0,0,1-10.812-9.424,59.915,59.915,0,0,1-8.27-11.682,58.559,58.559,0,0,1-5.207-13.258,57.248,57.248,0,0,1,2.172-35.259,59.367,59.367,0,0,1,10.98-17.8,61.658,61.658,0,0,1,16.528-13.123,62.307,62.307,0,0,1,20.439-6.915,108.761,108.761,0,0,1,10.079-21.851c6.242-9.767,13.9-17.165,22.759-21.992A49.166,49.166,0,0,1,946.289,323.017Zm16.873,48.393a21.022,21.022,0,0,0,7.2-1.232,18.716,18.716,0,0,0,10.2-8.858,21.3,21.3,0,0,0,2.26-6.985c1.181-8.145-2.04-15.86-9.07-21.723-5.415-4.5-12.353-7.357-20.621-8.48a51.208,51.208,0,0,0-6.848-.467,48.525,48.525,0,0,0-23.429,6.04c-8.763,4.774-16.34,12.1-22.522,21.771a108.523,108.523,0,0,0-10.079,21.9l-.065.184-.193.029a61.666,61.666,0,0,0-20.418,6.873,61.011,61.011,0,0,0-16.355,12.985,58.723,58.723,0,0,0-10.861,17.608,56.6,56.6,0,0,0-2.148,34.861,57.91,57.91,0,0,0,5.149,13.111,59.263,59.263,0,0,0,8.18,11.555,60.3,60.3,0,0,0,10.882,9.45l.187.127-.055.219c-2.959,11.9-6.038,20.231-8.669,23.459l-.265.325-.248-.339a35.913,35.913,0,0,0-4.146-4.757,30.259,30.259,0,0,0-4.285-3.432,19.728,19.728,0,0,0-7.785-3.195,21.077,21.077,0,0,0-2.805-.19,20.779,20.779,0,0,0-20.306,17.679c-1.162,7.975,1.928,15.516,8.7,21.235,5.219,4.407,11.925,7.192,19.932,8.279a53.373,53.373,0,0,0,7.15.489,50.8,50.8,0,0,0,27.366-8.05c9.938-6.245,17.907-15.519,23.687-27.565a144.909,144.909,0,0,0,5.73-14.1l.065-.183.192-.029a61.657,61.657,0,0,0,20.421-6.87,61,61,0,0,0,16.357-12.985,58.724,58.724,0,0,0,10.862-17.609,56.5,56.5,0,0,0,2.182-34.7,57.979,57.979,0,0,0-5.053-13,59.409,59.409,0,0,0-8.029-11.494,60.329,60.329,0,0,0-10.683-9.448l-.187-.13.059-.22a167.506,167.506,0,0,1,6.059-19.286v0c.505-1.183,1.02-2.254,1.531-3.183l.24-.436.3.4a24.979,24.979,0,0,0,20.224,10.369Z" transform="translate(-800.975 -309.089)" fill="#0090ff"/>
      <path id="Path_4188-3" data-name="Path 4188" d="M942.467,312.517a56.084,56.084,0,0,0-27.139,7c-9.884,5.4-18.373,13.59-25.25,24.379a107.933,107.933,0,0,0-9.339,19.451C849.924,370.077,827.2,397.179,827.2,428.1a65.644,65.644,0,0,0,25.115,51.327c-.877,3.224-1.683,5.829-2.4,7.927a28.394,28.394,0,0,0-13.236-5.991,28.318,28.318,0,0,0-31.721,23.828c-1.534,10.553,2.455,20.456,11.233,27.887,6.348,5.374,14.378,8.754,23.867,10.044a61.043,61.043,0,0,0,8.2.561,58.311,58.311,0,0,0,31.481-9.253c11.142-7.019,20.027-17.34,26.412-30.682,1.527-3.2,3.064-6.85,4.584-10.891,30.82-6.728,53.544-33.83,53.544-64.757a65.738,65.738,0,0,0-24.6-50.9c.8-2.843,1.5-5.2,2.123-7.15a32.17,32.17,0,0,0,13.07,4.8,32.809,32.809,0,0,0,4.42.3,26.969,26.969,0,0,0,27.224-23.489c1.554-10.74-2.579-20.826-11.646-28.407-6.535-5.449-14.781-8.883-24.512-10.209a58.879,58.879,0,0,0-7.9-.539h0m0-7.126h0a66.5,66.5,0,0,1,8.919.609c11.152,1.52,20.669,5.512,28.291,11.866,11.028,9.222,16.044,21.577,14.132,34.8-2.543,17.447-16.734,29.627-34.513,29.627a40.081,40.081,0,0,1-4.446-.25A71.827,71.827,0,0,1,971.64,428.1c0,32.743-23.054,61.886-55.366,70.745-1.143,2.849-2.295,5.493-3.441,7.894-6.977,14.58-16.76,25.9-29.079,33.665A65.728,65.728,0,0,1,848.26,550.81a68.67,68.67,0,0,1-9.223-.631c-10.928-1.487-20.244-5.435-27.687-11.736-10.711-9.068-15.568-21.229-13.676-34.245a34.608,34.608,0,0,1,12.52-22.054,35.142,35.142,0,0,1,26.42-7.969,71.752,71.752,0,0,1-16.77-46.075c0-32.741,23.052-61.885,55.366-70.744a108.04,108.04,0,0,1,8.585-17.171c7.552-11.847,16.938-20.878,27.918-26.876A63.549,63.549,0,0,1,942.467,305.391Z" transform="translate(-797.274 -305.391)" fill="#73b4ed"/>
    </g>
  </g>
</svg>
