<svg width="878" height="1254" viewBox="0 0 878 1254" fill="none" xmlns="http://www.w3.org/2000/svg">
<path d="M735.952 0C715.19 0 651.519 0 574.802 73.0717C503.242 141.237 463.551 262.091 453.066 297.642L452.444 299.853L444.554 326.18C376.454 326.732 322.334 347.496 303.163 358.483C240.634 389.577 125.888 489.77 139.107 646.417C152.222 801.888 260.67 882.837 317.489 904.569C308.042 947.686 296.312 990.009 283.854 1034.85L280.394 1047.19C270.219 1081.36 257.053 1114.58 241.049 1146.45C220.806 1186.84 184.092 1202.83 167.482 1205.67C148.623 1209.57 133.64 1207.67 123.258 1200.28C119.426 1197.4 116.223 1193.77 113.843 1189.61C111.463 1185.45 109.957 1180.85 109.417 1176.09C104.572 1136.43 79.9346 1115.35 65.5394 1111.35C46.3344 1106.41 30.5551 1108.58 18.5822 1117.81C12.853 1122.6 8.22679 1128.56 5.01976 1135.3C1.81273 1142.04 0.100473 1149.39 0 1156.85C0 1232.86 92.8764 1253.59 141.875 1254C162.637 1254 226.308 1254 303.025 1180.93C374.274 1113.07 418.324 987.452 432.027 929.375C598.125 927.959 686.815 819.612 710.553 762.571C728.616 730.06 755.538 640.923 727.335 536.205C699.48 432.384 605.461 370.748 558.331 352.022L572.172 299.888L572.484 298.575C579.405 271.903 586.775 245.023 594.007 219.111L597.468 206.777C607.636 172.601 620.801 139.385 636.812 107.517C657.055 67.1292 693.77 51.1329 710.38 48.2999C729.273 44.534 744.118 46.4342 754.534 53.9659C758.406 56.8255 761.65 60.4467 764.066 64.6061C766.482 68.7655 768.02 73.375 768.583 78.1504C773.462 117.813 798.066 138.888 812.461 142.896C831.666 147.836 847.445 145.66 859.418 136.435C865.147 131.646 869.773 125.679 872.98 118.941C876.187 112.203 877.9 104.854 878 97.3944C877.896 21.1442 785.02 0.345493 735.952 0ZM426.387 401.532L333.857 828.491C275.03 799.228 179.628 705.358 225.616 551.475C238.35 505.145 296.692 414.626 426.387 401.532ZM662.696 671.949C632.244 816.019 514.938 853.229 452.582 853.229H449.433L542.863 423.021C667.471 495.678 675.811 617.43 662.696 671.949V671.949Z" fill="#73B4ED"/>
</svg>
