<svg fill="none" xmlns="http://www.w3.org/2000/svg" viewBox="0 0 720 762"><path d="M222 447l2-2-2-1-1 1 1 2zM605 176l1-1c1-1 0-2-1-2l-2 2 2 1zM627 212l2-2-2-1-2 1 2 2zM62 373l2-1-2-2-2 1 2 2zM400 290l2-2-2-2-1 2 1 2zM386 251l2-2-2-1-1 1c-1 1 0 2 1 2zM276 235l2-2-2-2-2 2 2 2zM175 303a2 2 0 113-2 2 2 0 01-3 2zM150 407l2-2-2-2-2 2 2 2zM358 295l2-2-2-2-2 2 2 2zM465 228c1 1 2 0 2-1l-2-2-1 2 1 1zM552 173l2-1-1-2-2 2 1 1zM429 184l2-1-1-2-2 1 1 2zM512 155l2-2-2-2-2 2 2 2zM377 259l1-1-1-2-2 1 2 2zM339 267l2-2-1-1-2 1 1 2zM476 239l1-2-1-2-2 2 2 2zM55 463l2-2-1-2-2 2 1 2zM2 553l2-1-2-2-1 1 1 2zM420 264l2-1-2-2c-1 0-2 0-2 2l2 1zM482 329l2-2-2-2-2 2 2 2zM643 204l2-2-2-2-2 2 2 2zM660 180l1-2c1-1 0-2-1-2l-2 2 2 2zM141 333l2-2-2-2-2 2 2 2zM535 275l2-2-2-2-2 2 2 2zM556 332l2-2-2-2-2 2 2 2zM314 335c2 0 2-1 2-2l-1-2-2 2 1 2zM182 503l2-2 1 1-3 1zM682 252l2-2-2-2-2 2 2 2zM347 294a2 2 0 100-4 2 2 0 000 4zM374 174l2-2a2 2 0 00-4 0l2 2zM8 486a2 2 0 100-4 2 2 0 000 4zM405 215a2 2 0 100-4l-2 2 2 2zM109 451l2-2-2-2c-1 0-2 0-2 2l2 2zM162 400l2-2c0-1 0-2-2-2l-2 2 2 2zM480 164l2-2-2-2-2 1c0 2 0 3 2 3zM482 188c1 0 2 0 2-2a2 2 0 10-4 0l2 2zM534 232l2-2a2 2 0 00-4 0l2 2zM282 323l2-2a2 2 0 00-4 0l2 2zM194 350l2-2-2-3-2 2c0 2 1 3 2 3zM455 275l2-2a2 2 0 10-4-1c0 2 1 2 2 3zM322 258c2 1 3 0 3-1 0-2-1-3-2-3l-2 2c-1 1 0 2 1 2zM331 156l2-2c0-1 0-2-2-2l-2 2 2 2zM259 156c2 0 3-1 3-2l-2-2c-2 0-2 0-3 2l2 2zM493 173l2-2-2-2c-1 0-2 0-2 2l2 2zM185 391c1 0 2 0 2-2l-2-2-2 2 2 2zM251 236c1 0 2 0 2-2l-2-2-2 2 2 2zM350 144c1 0 2 0 2-2l-2-2-2 2c0 1 0 2 2 2zM674 170l2-2-2-2c-1-1-2 0-2 2l2 2z" fill="#02D2D6" fill-opacity=".5"/><path d="M323 260c2 0 3-1 3-2 0-2-1-3-2-3-2 0-3 1-3 2 0 2 1 3 2 3zM381 153l2-2-2-2-2 2 2 2zM277 200l2-2c0-2-1-3-2-3l-2 2c0 2 1 2 2 3zM381 272l3-2a2 2 0 10-5 0l2 2zM307 150l2-2a2 2 0 10-4 0l2 2zM224 365l2-2a2 2 0 10-4 0l2 2zM269 308l2-2-2-2-2 2 2 2zM29 378l2-2c0-1 0-2-2-2l-2 2 2 2zM387 262l2-2-2-2-2 2 2 2zM290 265c1 0 2-1 2-3l-2-2-2 2 2 3zM225 446l2-2-2-2-3 2c0 1 1 2 3 2zM56 465a2 2 0 10-2-2l2 2zM326 319l2-2-2-2c-1 0-2 0-2 2l2 2zM462 245l2-2-2-2-2 2c0 1 0 2 2 2zM109 470l2-2-2-2-2 2 2 2zM177 390c1 0 2-1 2-3 0-1 0-2-2-2l-2 2 2 3zM266 339l2-2c0-2-1-3-2-3l-2 2c0 2 1 3 2 3zM96 393c1 0 2-1 2-3 1-1 0-2-2-2l-2 2 2 3zM590 194c1 1 2 0 2-2l-2-2-2 2 2 2zM390 153l2-2-2-3a2 2 0 000 5zM185 477l2-2-2-2-3 2c0 1 1 2 3 2zM296 179c2 0 3-1 3-2 0-2-1-3-3-3l-2 2c0 2 1 3 2 3zM101 446l2-2-2-2-2 2 2 2zM484 177a2 2 0 101-5 2 2 0 00-1 5zM267 346l2-2c0-2-1-3-2-3-2 0-3 1-3 2 0 2 1 3 3 3zM296 162l2-2c0-2-1-3-2-3l-3 2c0 2 1 3 3 3zM355 228c2 0 3-1 3-3 0-1-1-2-3-2l-2 2c0 2 1 3 2 3zM235 359c2 0 3-1 3-2l-2-3c-2 0-3 1-3 3l2 2zM463 159a3 3 0 000-5l-2 2 2 3zM76 484l2-3a3 3 0 10-2 3zM164 504l2-2c1-2-1-3-2-3l-3 2c0 2 1 3 3 3zM361 208c1 0 2-1 2-3l-2-2c-2 0-3 1-3 2 0 2 1 3 3 3zM415 285c2 0 3-1 3-2 0-2-1-3-3-3-1 0-2 1-2 3l2 2zM36 485a3 3 0 114-4 3 3 0 01-4 4zM158 490c1 0 3-1 3-3 0-1-1-2-3-2l-3 2c0 2 1 3 3 3zM2 393c2 0 3-1 3-2 0-2-1-3-2-3-2 0-3 1-3 3l2 2zM60 408c2 0 3-1 3-3l-2-3c-2 0-3 2-3 3l2 3zM9 480c2 0 3-1 3-3l-2-2c-2-1-3 1-3 2 0 2 1 3 2 3zM201 294c2 0 3-1 3-2 0-2-1-3-3-3-1 0-2 1-2 3l2 2zM38 470c2 0 3-1 3-3 0-1-1-3-3-3-1 0-2 1-2 3-1 1 1 3 2 3zM147 499c2 0 3-2 3-3 0-2-1-3-3-3-1 0-2 1-2 3-1 1 1 3 2 3zM333 230c2 0 3-1 3-2a3 3 0 10-5-1c-1 2 1 3 2 3zM220 278c1 1 2-1 2-2 0-2-1-3-2-3-2 0-3 1-3 3 0 1 1 2 3 2zM148 396c2 0 3-2 3-3 0-2-1-3-3-3-1 0-3 1-3 3l3 3z" fill="#02D2D6" fill-opacity=".5"/><path d="M268 337c2 0 3-1 3-3l-2-3c-2 0-3 2-3 3 0 2 1 3 2 3zM234 288c2 0 3-1 3-3s-1-3-3-3c-1 0-3 1-3 3l3 3zM211 337c2 0 3-1 3-3l-3-3-3 3c0 2 2 3 3 3zM111 492l3-2c0-2-1-3-3-3-2-1-3 1-3 2 0 2 1 3 3 3zM208 274l3-2c0-2-1-3-3-3s-3 1-3 2c0 2 1 3 3 3zM173 384c1 0 3-1 3-3s-2-3-3-3c-2 0-3 1-3 3 0 1 1 3 3 3zM288 218a3 3 0 001-6c-2 0-3 1-3 3l2 3zM214 307l3-3c0-2-2-3-3-3-2 0-3 1-3 3 0 1 1 3 3 3zM30 472c1 0 3-1 3-3 0-1-1-3-3-3s-3 1-3 3 1 3 3 3zM172 268c1 0 3-1 3-3a3 3 0 10-6 0c-1 2 1 3 3 3zM183 267c2 0 4-2 4-3 0-2-1-4-3-4s-4 1-4 3 2 4 3 4zM125 477c2 0 4-2 4-4s-1-3-3-3c-2-1-4 1-4 3s1 4 3 4z" fill="#02D2D6" fill-opacity=".5"/><path d="M232 287c2 1 3-1 3-3s-1-4-3-4-4 2-4 4 2 3 4 3zM165 318c2 0 4-2 4-4a4 4 0 10-4 4zM123 290c2 1 3-1 3-3s-1-4-3-4-4 2-4 4 2 3 4 3zM326 233c2 0 4-1 4-3 0-3-2-4-4-4-2-1-3 1-4 3 0 2 2 4 4 4zM309 276c3 0 5-2 5-5 0-2-2-4-4-4-3 0-5 1-5 4 0 2 2 5 4 5z" fill="#02D2D6" fill-opacity=".5"/><path d="M383 308l17-20 1-1v2l-17 20h-1v-1z" fill="#02D2D6" fill-opacity=".3"/><path d="M387 249l-3 59-1 1v-1l2-59h2z" fill="#02D2D6" fill-opacity=".1"/><path d="M626 211l-22-36v-1h1l23 36-1 1h-1zM387 249l14 39v1l-1-1-15-38 1-1h1z" fill="#02D2D6" fill-opacity=".5"/><path d="M401 289l-43 5-1-1 1-1 42-5 1 1v1z" fill="#02D2D6" fill-opacity=".4"/><path d="M387 250l-28 44h-2v-1l29-44h1v1z" fill="#02D2D6" fill-opacity=".3"/><path d="M430 183l-43 67h-1v-1l43-67h1v1z" fill="none"/><path d="M377 257l24 31v1h-1l-24-31v-1h1z" fill="#02D2D6" fill-opacity=".3"/><path d="M387 250l-10 8h-1v-1l10-8h1v1z" fill="#02D2D6" fill-opacity=".5"/><path d="M387 250l-47 16h-1v-2l47-16 1 1v1z" fill="#02D2D6" fill-opacity=".3"/><path d="M387 249l33 13 1 1h-2l-33-13-1-1h2z" fill="#02D2D6" fill-opacity=".1"/><path d="M430 182l36 44v1h-1l-36-44v-1h1z" fill="#02D2D6" fill-opacity=".4"/><path d="M513 153l-47 74h-1v-1l46-74h2v1z" fill="none"/><path d="M552 173l-40-19-1-2h2l40 19v1l-1 1z" fill="#02D2D6" fill-opacity=".5"/><path d="M513 154l-83 29h-1v-1l83-30h1v2z" fill="none"/><path d="M377 258l-18 36h-2v-1l19-36h1v1z" fill="#02D2D6" fill-opacity=".5"/><path d="M340 265l19 28-1 1h-1l-18-28v-1h1zM475 238l-10-11v-1h1l10 11v1h-1z" fill="#02D2D6" fill-opacity=".5"/><path d="M430 182l46 55v1h-1l-46-55v-1h1z" fill="#02D2D6" fill-opacity=".2"/><path d="M177 303l-36 29h-1v-1l36-30 1 1v1z" fill="#02D2D6" fill-opacity=".1"/><path d="M377 258l-37 8h-1v-1l37-8h1v1z" fill="#02D2D6" fill-opacity=".5"/><path d="M420 263l-62 31h-1v-2l62-30h1v1z" fill="#02D2D6" fill-opacity=".1"/><path d="M466 227l-46 36h-1v-1l46-36h1v1z" fill="#02D2D6" fill-opacity=".3"/><path d="M430 183l-9 80h-1l-1-1 9-80h1l1 1zM142 331l9 74-1 1-1-1-9-74 1-1 1 1z" fill="none"/><path d="M377 257l43 5 1 1h-1l-43-5-1-1h1z" fill="#02D2D6" fill-opacity=".4"/><path d="M476 238l-56 25h-1v-1l56-26 2 1-1 1z" fill="#02D2D6" fill-opacity=".3"/><path d="M476 236l59 36 1 1-2 1-59-36v-1l1-1z" fill="#02D2D6" fill-opacity=".1"/><path d="M660 178l-16 25h-1l-1-1 17-25h1v1z" fill="#02D2D6" fill-opacity=".5"/><path d="M536 274l-53 53h-1v-1l52-54h2v2z" fill="#02D2D6" fill-opacity=".2"/><path d="M346 292l-7-26v-2l1 1 8 26-1 2-1-1zM482 326l74 3 1 1-1 1-74-3-1-1 1-1zM8 483l47-23 1 1v1L8 485l-1-1 1-1z" fill="#02D2D6" fill-opacity=".1"/><path d="M681 251l-38-48v-1h1l39 48v1h-2z" fill="#02D2D6" fill-opacity=".2"/><path d="M681 251l-22-73v-1l1 1 23 72-1 1h-1z" fill="none"/><path d="M536 273l21 57v1l-2-1-21-57 1-1 1 1zM179 504l4-2h1l-5 2z" fill="#02D2D6" fill-opacity=".3"/><path d="M406 213l15 49-1 1h-1l-15-49v-2l2 1z" fill="none"/><path d="M183 503v-1h1l-1 1z" fill="#02D2D6" fill-opacity=".3"/><path d="M314 333l32-42h1l1 1-33 42h-1v-1z" fill="#02D2D6" fill-opacity=".4"/><path d="M183 503v-1h1l-1 1z" fill="#02D2D6" fill-opacity=".1"/><path d="M8 485l-75 5-1-1 1-1 75-5 1 1-1 1z" fill="#02D2D6" fill-opacity=".2"/><path d="M404 214l-31-41 1-2h1l30 42v1h-1z" fill="#02D2D6" fill-opacity=".4"/><path d="M8 485l-79 21h-1l1-2 79-21 1 1-1 1z" fill="#02D2D6" fill-opacity=".2"/><path d="M314 334l-32-12-1-2h1l33 12v1l-1 1zM483 187l-78 27h-1v-2l78-27 1 1v1z" fill="none"/><path d="M481 186l-2-24 1-1h1l2 25-1 1-1-1z" fill="#02D2D6" fill-opacity=".5"/><path d="M162 397l31-50h1l1 1-32 50-1 1v-2z" fill="#02D2D6" fill-opacity=".3"/><path d="M533 231l-54-69v-1h2l54 68v2h-2z" fill="#02D2D6" fill-opacity=".1"/><path d="M533 231l-51-44v-1h1l52 43v2h-2z" fill="#02D2D6" fill-opacity=".3"/><path d="M162 397l23-9 1 1v1l-23 9-2-1 1-1z" fill="#02D2D6" fill-opacity=".2"/><path d="M454 272l27-86 2-1v2l-27 86h-1l-1-1z" fill="none"/><path d="M194 347l88-27h1l-1 2-88 26h-1l1-1z" fill="#02D2D6" fill-opacity=".1"/><path d="M492 172l-13-10v-1h1l13 9 1 1-2 1z" fill="#02D2D6" fill-opacity=".4"/><path d="M455 272l79-43 1 1v1l-79 42h-2l1-1z" fill="#02D2D6" fill-opacity=".1"/><path d="M481 186l11-16h1l1 1-11 16h-1l-1-1z" fill="#02D2D6" fill-opacity=".5"/><path d="M323 257l-40 64-2 1v-2l41-64h1v1z" fill="#02D2D6" fill-opacity=".2"/><path d="M533 231l-41-60v-1h2l41 60v1h-2z" fill="#02D2D6" fill-opacity=".3"/><path d="M184 389l9-42h1l1 1-9 42h-1l-1-1z" fill="#02D2D6" fill-opacity=".5"/><path d="M252 234l31 86-1 2-1-1-31-86 1-2 1 1z" fill="#02D2D6" fill-opacity=".1"/><path d="M324 258l-41 63-2 1v-2l42-63h1v1z" fill="#02D2D6" fill-opacity=".1"/><path d="M260 153h71l1 1-1 1h-71l-1-1 1-1z" fill="#02D2D6" fill-opacity=".3"/><path d="M454 285v-12l1-2 1 2v12l-1 1-1-1z" fill="#02D2D6" fill-opacity=".5"/><path d="M251 233l72 22 1 2h-2l-71-22-1-1 1-1z" fill="#02D2D6" fill-opacity=".3"/><path d="M331 153l18-12 2 1-1 1-18 12h-2l1-2zM323 256l1 1v1h-1l-1-1v-1h1z" fill="#02D2D6" fill-opacity=".5"/><path d="M261 154l-9 80-1 1-1-1 9-80 1-1 1 1z" fill="#02D2D6" fill-opacity=".2"/><path d="M331 153l50-3 1 1-1 1-50 3-1-1 1-1z" fill="#02D2D6" fill-opacity=".4"/><path d="M259 153l91-12 1 1-1 1-90 12-1-1v-1z" fill="#02D2D6" fill-opacity=".1"/><path d="M322 257l-46-59v-1h2l45 59v1h-1z" fill="#02D2D6" fill-opacity=".3"/><path d="M194 347l30 15 1 2h-2l-30-16v-1h1z" fill="#02D2D6" fill-opacity=".2"/><path d="M332 155l-54 43h-2v-1l55-44 1 1v1z" fill="#02D2D6" fill-opacity=".3"/><path d="M455 274l-74-3-1-1 2-1 73 2 1 2-1 1z" fill="#02D2D6" fill-opacity=".2"/><path d="M323 255l59 14v1l-1 1-59-14v-1l1-1z" fill="#02D2D6" fill-opacity=".3"/><path d="M261 153l17 44-1 1h-1l-17-44v-1h2z" fill="#02D2D6" fill-opacity=".4"/><path d="M270 305l13 15v2l-2-1-13-14v-2h2z" fill="#02D2D6" fill-opacity=".2"/><path d="M331 155l-24-6-1-1 1-1 25 6v1l-1 1z" fill="#02D2D6" fill-opacity=".5"/><path d="M251 233l73 23v2h-1l-72-23-1-1 1-1z" fill="#02D2D6" fill-opacity=".3"/><path d="M381 152l-32-9v-1l1-1 31 9 1 1-1 1z" fill="#02D2D6" fill-opacity=".5"/><path d="M259 153l48-6 1 1-1 1-47 6-1-1v-1z" fill="#02D2D6" fill-opacity=".4"/><path d="M250 234l26-37h1l1 1-26 37h-2v-1z" fill="#02D2D6" fill-opacity=".5"/><path d="M276 197l73-56 2 1-1 1-73 55h-1v-1z" fill="#02D2D6" fill-opacity=".1"/><path d="M278 197l46 60v1h-1l-47-60v-1h2z" fill="#02D2D6" fill-opacity=".3"/><path d="M387 259l68 13 1 1h-1l-68-12-1-1 1-1z" fill="#02D2D6" fill-opacity=".1"/><path d="M-60 478l55-59h1v2l-54 58h-2v-1z" fill="#02D2D6" fill-opacity=".2"/><path d="M381 271l-58-12-1-2 2-1 58 13v1l-1 1z" fill="#02D2D6" fill-opacity=".4"/><path d="M350 143l-43 6-1-1 1-1 43-6 1 1-1 1z" fill="#02D2D6" fill-opacity=".5"/><path d="M185 388l38-26 2 1v1l-39 26h-2l1-2z" fill="#02D2D6" fill-opacity=".4"/><path d="M381 152l-74-3-1-1 1-1 74 3 1 1-1 1z" fill="#02D2D6" fill-opacity=".3"/><path d="M-5 419l33-44h2v2l-34 43-1 1v-2z" fill="#02D2D6" fill-opacity=".1"/><path d="M276 197l30-50h2v2l-30 49h-2v-1z" fill="#02D2D6" fill-opacity=".4"/><path d="M290 261l32-6 2 1-1 1-33 6h-1l1-2zM252 234l18 72-1 1-1-1-18-71 1-2 1 1z" fill="#02D2D6" fill-opacity=".2"/><path d="M268 305l55-48h1v1l-54 49h-2v-2z" fill="#02D2D6" fill-opacity=".2"/><path d="M387 261l-64-2-1-2 1-1 64 3 1 1-1 1zM252 233l38 28 1 2h-2l-39-28v-1l2-1z" fill="#02D2D6" fill-opacity=".2"/><path d="M290 261l33-5 1 1v2l-34 4h-1l1-2z" fill="#02D2D6" fill-opacity=".4"/><path d="M388 261l-6 10h-1l-1-1 6-10 1-1 1 2z" fill="#02D2D6" fill-opacity=".5"/><path d="M270 307l-45 57h-2v-1l45-58h1l1 2z" fill="#02D2D6" fill-opacity=".3"/><path d="M454 285l7-42 1-1 1 1-7 42-1 1-1-1z" fill="#02D2D6" fill-opacity=".1"/><path d="M289 263l-13-65 1-2 1 1 13 65-1 1h-1z" fill="#02D2D6" fill-opacity=".2"/><path d="M290 261l91 8 1 1-1 1-91-8-1-1 1-1zM178 386l7 2 1 2h-1l-8-2-1-1 2-1z" fill="#02D2D6" fill-opacity=".1"/><path d="M462 244l-80 27-2-1 1-1 80-27 2 1-1 1z" fill="none"/><path d="M268 306l21-44 1-1 1 2-21 43-2 1v-1z" fill="#02D2D6" fill-opacity=".5"/><path d="M387 261l-97 2c-1 1-1 0-1-1l1-1 97-2 1 1-1 1z" fill="#02D2D6" fill-opacity=".1"/><path d="M177 386l46-24 2 1-1 1-46 24h-2l1-2z" fill="#02D2D6" fill-opacity=".3"/><path d="M30 376l27 86v2l-2-1-27-87 1-1 1 1z" fill="#02D2D6" fill-opacity=".1"/><path d="M326 318l-57-11-1-1 1-1 57 11 1 1-1 1z" fill="#02D2D6" fill-opacity=".3"/><path d="M388 261l-61 57-2-1v-1l61-57h2v2z" fill="#02D2D6" fill-opacity=".2"/><path d="M387 259l75-17 1 1-1 1-75 17-1-1 1-1z" fill="#02D2D6" fill-opacity=".2"/><path d="M242 477l-18-32v-2l2 1 18 32-2 1z" fill="#02D2D6" fill-opacity=".3"/><path d="M325 317l-36-54v-2l2 1 36 54v2l-2-1z" fill="#02D2D6" fill-opacity=".4"/><path d="M270 306l-3 31-1 1-1-2 3-30 1-1 1 1z" fill="#02D2D6" fill-opacity=".3"/><path d="M109 469l-53-5-1-1 1-1 53 5 1 1-1 1z" fill="#02D2D6" fill-opacity=".5"/><path d="M265 336l24-74 1-1 1 2-24 74-1 1-1-2z" fill="#02D2D6" fill-opacity=".2"/><path d="M326 318l-60 20-1-1 1-2 60-19h1l-1 2z" fill="#02D2D6" fill-opacity=".4"/><path d="M97 391l-40 72a1 1 0 01-2-1l40-72 2-1v2z" fill="#02D2D6" fill-opacity=".1"/><path d="M225 445l-40 31h-1v-2l40-31h1v2z" fill="#02D2D6" fill-opacity=".4"/><path d="M215 489l-31-13v-1l1-1 33 14-3 1zM108 468l-13-78 1-1 1 1 13 78-1 1-1-1z" fill="#02D2D6" fill-opacity=".2"/><path d="M128 527l-2 1-18-60 1-1 1 1 18 59z" fill="none"/><path d="M177 388l-81 3-1-1 1-1 81-3 1 1-1 1z" fill="#02D2D6" fill-opacity=".3"/><path d="M109 467l76 7 1 1-1 1-76-7-1-1 1-1z" fill="#02D2D6" fill-opacity=".1"/><path d="M146 519l-38-50v-2h2l38 51-2 1z" fill="#02D2D6" fill-opacity=".1"/><path d="M108 468l-8-24 1-1 1 1 8 24-1 1-1-1z" fill="#02D2D6" fill-opacity=".2"/><path d="M186 476l-19 34-3 1 20-37h1l1 2z" fill="#02D2D6" fill-opacity=".1"/><path d="M172 508l-3 1 15-34 1-1 1 1-14 33z" fill="#02D2D6" fill-opacity=".4"/><path d="M296 175l93-25h2l-1 2-93 26-2-1 1-2z" fill="#02D2D6" fill-opacity=".1"/><path d="M100 444l-5-54a1 1 0 112 0l5 54-1 1-1-1z" fill="#02D2D6" fill-opacity=".4"/><path d="M147 519l-47-74v-2h2l48 75-3 1z" fill="none"/><path d="M220 487l-36-11v-1l1-1 39 11-4 2zM295 177v-17l1-2 1 1 1 18-2 1-1-1z" fill="#02D2D6" fill-opacity=".1"/><path d="M484 175l-22-18v-2h2l21 18v2h-1zM267 345l-31 13-2-1 1-1 31-14 2 1-1 2z" fill="#02D2D6" fill-opacity=".5"/><path d="M354 226l-59-66v-1h2l59 65v2h-2z" fill="#02D2D6" fill-opacity=".3"/><path d="M360 206l-65-45v-2h2l64 45 1 2h-2z" fill="#02D2D6" fill-opacity=".2"/><path d="M362 206l-5 20-2 1-1-2 6-20 1-1 1 2z" fill="#02D2D6" fill-opacity=".5"/><path d="M414 284l-59-58-1-2h2l60 58v2h-2z" fill="#02D2D6" fill-opacity=".2"/><path d="M360 204l103-49 1 1v1l-103 49h-1v-2z" fill="#02D2D6" fill-opacity=".1"/><path d="M76 480l88 20 1 2-1 1-88-21-1-1 1-1z" fill="#02D2D6" fill-opacity=".3"/><path d="M-14 407l91 73v2h-2l-90-73-1-2h2z" fill="#02D2D6" fill-opacity=".1"/><path d="M38 482l38-2 1 1-1 1-38 2-2-1 2-1z" fill="#02D2D6" fill-opacity=".5"/><path d="M362 205l54 77v2l-2-1-54-77v-2l2 1z" fill="#02D2D6" fill-opacity=".3"/><path d="M76 480l82 6 1 1-1 2-82-7c-1 0-2 0-1-1l1-1z" fill="#02D2D6" fill-opacity=".2"/><path d="M38 482l126 18 1 2-1 1-126-19-2-1 2-1z" fill="#02D2D6" fill-opacity=".1"/><path d="M163 502l-6-14 1-2 1 1 6 14-1 2-1-1z" fill="#02D2D6" fill-opacity=".5"/><path d="M37 484l-53-75 1-2h2l52 75v2h-2z" fill="#02D2D6" fill-opacity=".3"/><path d="M75 482L1 392l1-2h2l73 90v2h-2z" fill="#02D2D6" fill-opacity=".1"/><path d="M75 481l-16-76 1-1 2 1 15 76-1 1-1-1z" fill="#02D2D6" fill-opacity=".2"/><path d="M38 482l120 4 1 1-1 2-120-5-2-1 2-1z" fill="#02D2D6" fill-opacity=".1"/><path d="M76 482l-67-3-1-2 2-1 66 4 1 1-1 1z" fill="#02D2D6" fill-opacity=".4"/><path d="M-15 407l17-17h1v2l-17 17h-1v-2z" fill="#02D2D6" fill-opacity=".5"/><path d="M-15 407l75-3 2 1-1 1-75 3-2-1 1-1z" fill="#02D2D6" fill-opacity=".2"/><path d="M-13 408l24 69-1 1H8l-24-69 1-2 2 1z" fill="#02D2D6" fill-opacity=".3"/><path d="M37 483L1 391l1-2 2 1 35 93-1 1-1-1z" fill="#02D2D6" fill-opacity=".2"/><path d="M37 483l22-78 2-1 1 1-23 78-1 1-1-1z" fill="#02D2D6" fill-opacity=".3"/><path d="M38 484l-29-5-1-2 2-1 28 6 1 1-1 1z" fill="#02D2D6" fill-opacity=".5"/><path d="M39 466l37 14 1 1-2 1-37-14-1-1c0-1 1-2 2-1z" fill="#02D2D6" fill-opacity=".2"/><path d="M-115 410L2 389l2 1-1 2-117 20c-1 1-2 0-2-1l1-1z" fill="#02D2D6" fill-opacity=".1"/><path d="M163 503l-16-6-1-2h2l16 5 1 2-2 1z" fill="#02D2D6" fill-opacity=".3"/><path d="M332 226l28-22h2v2l-28 23-2-1v-2z" fill="#02D2D6" fill-opacity=".2"/><path d="M60 406L2 392l-1-2 2-1 58 15 1 1c0 1-1 2-2 1z" fill="#02D2D6" fill-opacity=".5"/><path d="M334 226l82 56v1l-1 1-82-55-1-2 2-1z" fill="#02D2D6" fill-opacity=".1"/><path d="M8 477l-7-86 1-2 2 2 7 86-1 2-2-2z" fill="#02D2D6" fill-opacity=".3"/><path d="M36 483l1-16 1-1 2 1-1 16-1 1-2-1z" fill="#02D2D6" fill-opacity=".4"/><path d="M62 406l-51 72H9l-1-2 51-72h2l1 2z" fill="#02D2D6" fill-opacity=".3"/><path d="M159 488l-11 9h-2v-2l11-9h2v2z" fill="#02D2D6" fill-opacity=".5"/><path d="M37 468L1 391l1-2 2 1 35 76v2h-2z" fill="#02D2D6" fill-opacity=".3"/><path d="M37 467l22-62 2-1 1 2-22 62h-2l-1-1z" fill="#02D2D6" fill-opacity=".5"/><path d="M39 468l-29 11-2-1 1-2 29-10c1-1 1 0 2 1l-1 1z" fill="#02D2D6" fill-opacity=".5"/><path d="M38 484l-96 4-1-2 1-1 96-3 1 1-1 1z" fill="#02D2D6" fill-opacity=".1"/><path d="M221 277l-19 16h-2v-2l19-16h2v2z" fill="#02D2D6" fill-opacity=".5"/><path d="M268 335l-67-42-1-2h2l67 42 1 2h-2z" fill="#02D2D6" fill-opacity=".2"/><path d="M235 286l-33 7-2-1 1-2 33-7 2 2-1 1zM10 479l-67 9-2-1 1-2 67-9 2 1-1 2z" fill="#02D2D6" fill-opacity=".4"/><path d="M334 229l-114 48-2-1 1-2 114-48 2 1-1 2z" fill="#02D2D6" fill-opacity=".1"/><path d="M203 291l10 43-1 2-2-1-10-43 1-2 2 1z" fill="#02D2D6" fill-opacity=".3"/><path d="M200 291l6-20 2-1 1 2-6 20-2 1-1-2z" fill="#02D2D6" fill-opacity=".3"/><path d="M335 228l-65 107h-2l-1-2 65-106 2-1 1 2z" fill="#02D2D6" fill-opacity=".1"/><path d="M267 335l-48-58v-2h2l49 58-1 2h-2z" fill="#02D2D6" fill-opacity=".4"/><path d="M39 468l-96 20a1 1 0 01-1-3l96-19 2 1-1 1z" fill="#02D2D6" fill-opacity=".3"/><path d="M334 229l-99 57h-2l1-2 99-58 2 1-1 2zM39 466l72 22 1 2-2 1-72-23-1-1 2-1z" fill="#02D2D6" fill-opacity=".2"/><path d="M111 488l36 6 2 2-2 1-36-6-2-2 2-1zM233 286l-14-9-1-2h2l15 9v2h-2z" fill="#02D2D6" fill-opacity=".5"/><path d="M221 276l-8 59-2 1-1-2 8-58 2-2 1 2z" fill="#02D2D6" fill-opacity=".5"/><path d="M-9 494l18-18h1v2l-17 18h-2v-2zM334 229l-126 44-2-1 1-2 126-44 2 1-1 2z" fill="none"/><path d="M147 392l63-59h2v2l-63 59h-2v-2z" fill="#02D2D6" fill-opacity=".3"/><path d="M267 335l-34-49v-2h2l35 49-1 2h-2zM333 229l-45-13-1-2 2-1 45 13a1 1 0 01-1 3zM219 277l-12-4v-2l1-1 12 4 1 2-2 1z" fill="#02D2D6" fill-opacity=".5"/><path d="M269 336h-58l-1-2 1-1h57l2 1-1 2zM173 382l-24 12-2-1 1-2 24-11h2l-1 2z" fill="#02D2D6" fill-opacity=".5"/><path d="M267 335l-60-62v-2h2l60 62v2h-2z" fill="#02D2D6" fill-opacity=".4"/><path d="M269 335l-96 47-2-1 1-1 96-47 2 1-1 1z" fill="#02D2D6" fill-opacity=".3"/><path d="M212 303l6-28 2-1 1 2-6 28-2 1-1-2zM236 285l-23 50-2 1-1-2 23-50h2l1 1z" fill="#02D2D6" fill-opacity=".5"/><path d="M39 468l-9 3-2-2 2-1 8-2 2 1-1 1z" fill="#02D2D6" fill-opacity=".3"/><path d="M30 468l118 26 1 2-2 1-117-27-2-1c1-1 1-2 2-1z" fill="#02D2D6" fill-opacity=".1"/><path d="M39 468l-46 28-2-1v-2l47-27h1v2z" fill="#02D2D6" fill-opacity=".3"/><path d="M234 286l-27-13v-2l1-1 27 14v2h-1z" fill="#02D2D6" fill-opacity=".5"/><path d="M172 380l61-96h2v2l-61 96h-2v-2z" fill="#02D2D6" fill-opacity=".2"/><path d="M268 335l-55-30v-2l1-1 55 31 1 2h-2z" fill="#02D2D6" fill-opacity=".5"/><path d="M233 284l54-70h2l1 2-55 70h-2v-2z" fill="#02D2D6" fill-opacity=".4"/><path d="M209 271l4 63-2 2-1-2-4-62 2-2 1 1z" fill="#02D2D6" fill-opacity=".5"/><path d="M172 380l38-47h2v2l-38 47h-2v-2zM213 303l20-19h2v2l-20 19h-2v-2z" fill="#02D2D6" fill-opacity=".5"/><path d="M215 304l-2 30-2 2-1-2 2-30 2-2 1 2z" fill="#02D2D6" fill-opacity=".5"/><path d="M212 304l-6-32 2-2 1 1 6 32-1 2-2-1z" fill="#02D2D6" fill-opacity=".5"/><path d="M171 380l41-77 2-1 1 2-41 78h-2l-1-2z" fill="#02D2D6" fill-opacity=".4"/><path d="M213 303l74-89h2l1 2-75 89h-2v-2zM30 470l-87 18a1 1 0 01-1-3l87-17c1-1 2 0 2 1l-1 1z" fill="#02D2D6" fill-opacity=".2"/><path d="M111 491l-82-21-1-1c1-1 1-2 2-1l81 20 1 2-1 1z" fill="#02D2D6" fill-opacity=".4"/><path d="M-8 493l119-5 1 1-1 2-119 5-2-1 2-2z" fill="#02D2D6" fill-opacity=".2"/><path d="M-9 493l38-25h2v2l-38 26-2-1v-2z" fill="#02D2D6" fill-opacity=".5"/><path d="M184 265l-12 2-2-2 1-2 12-1 2 1-1 2z" fill="#02D2D6" fill-opacity=".4"/><path d="M184 262l48 20c1 1 2 2 1 3l-2 1-48-21-1-2c0-1 1-2 2-1z" fill="#02D2D6" fill-opacity=".4"/><path d="M185 264l-18 51-2 1-2-2 19-51c0-1 1-2 2-1 1 0 2 1 1 2z" fill="#02D2D6" fill-opacity=".4"/><path d="M184 265l-61 24a2 2 0 01-1-4l61-23 2 1c1 1 0 2-1 2z" fill="#02D2D6" fill-opacity=".3"/><path d="M232 286l-66 30-3-1 1-2 67-31 2 1c1 1 0 2-1 3z" fill="#02D2D6" fill-opacity=".5"/><path d="M232 286l-109 3a2 2 0 010-4l109-3 1 2-1 2z" fill="#02D2D6" fill-opacity=".4"/><path d="M124 285l42 28a2 2 0 11-2 3l-42-28-1-2 3-1z" fill="#02D2D6" fill-opacity=".5"/><path d="M231 282l94-54h3l-1 3-94 54h-3l1-3z" fill="#02D2D6" fill-opacity=".2"/></svg>