<svg fill="none" xmlns="http://www.w3.org/2000/svg" viewBox="0 0 409 1274"><path d="M43 757v-1h2l-1 2-1-1zM90 589v-2l2 1-1 2-1-1zM20 741v-1h2l-1 2-1-1zM62 581l1-2 2 1-1 2-2-1zM59 978l1-2 1 1v2l-2-1zM9 751l1-2 1 1-1 1H9zM53 742v-1l2 1-1 1-1-1zM80 745l1-2 2 1-1 1h-2zM7 758l1-2 1 1-1 2-1-1zM111 814l1-2 1 1-1 1h-1zM84 891l1-2a1 1 0 110 3l-1-1zM11 846l1-2 1 1-1 2-1-1zM7 1099v-2l2 1-1 1H7zM7 734l1-1 1 1-1 1-1-1zM21 926l1-1 2 1-1 1-2-1zM57 771l1-2 1 1-1 2-1-1zM81 689l1-1h1l-1 2-1-1zM101 622l1-1 1 1v1l-2-1zM116 704l1-1 1 1v1l-2-1zM121 645v-1h2l-1 2-1-1zM40 767l1-2 2 1-1 1h-2zM29 755l1-2 2 1-1 1h-2zM77 752l1-1 1 1-1 1-1-1zM23 759l1-1 2 1-1 1-2-1zM78 778l1-2 2 1-1 2-2-1zM72 684l1-1h1v2l-2-1zM2 998l1-1h1v2l-2-1zM66 725l1-1h1l-1 2-1-1zM13 696v-2l2 1-1 2-1-1zM65 569l1-2 1 1-1 2-1-1zM21 767l1-2 2 1-1 1h-2zM78 554c-1-1 0-2 1-2l1 1-1 2-1-1zM71 919l1-1h2l-1 2-2-1zM38 652l1-1h2l-1 2-2-1zM0 825v-1l2 1-1 1-1-1zM0 1114l1-1h1l-1 2-1-1zM-3 648l1-1 2 1-1 1-2-1zM39 806v-1l2 1-1 1-1-1zM26 552l1-2 2 1-1 2-2-1zM8 730l1-2 1 1v2l-2-1zM60 778a1 1 0 111 1l-1-1zM133 739a1 1 0 112-1 1 1 0 01-2 1zM6 1083l1-2 1 1v2l-2-1zM100 726a1 1 0 113-1 1 1 0 01-3 1zM19 727a1 1 0 112-1 1 1 0 01-2 1zM7 861l1-1c1-1 2 0 2 1l-1 1-2-1zM0 961l1-2 2 1-1 2-2-1zM24 917l1-1h1c1 1 0 2-1 2l-1-1zM122 666a1 1 0 10-1 3 1 1 0 001-3zM-1 847l1-1 2 1-1 1c-1 1-1 0-2-1zM27 710l1-2a1 1 0 011 3l-2-1zM104 671l1-2a1 1 0 111 3l-2-1zM66 645l1-2a1 1 0 011 3l-2-1zM52 825l1-1a1 1 0 111 2l-2-1zM51 888l1-2 1 1v1h-2zM45 742c-1-1 0-2 1-2a1 1 0 110 3l-1-1zM53 704c-1-1 0-2 1-2a1 1 0 110 3l-1-1zM87 787l1-1c1-1 1 0 2 1l-1 1c-1 1-2 0-2-1zM152 763l1-1h2l-1 2-2-1zM165 810l1-2 2 1-1 2-2-1zM39 1030l1-2 2 1-1 2-2-1zM0 1165c-1-1 0-2 1-2l1 1-1 1H0zM112 661l1-2 2 1-1 2-2-1zM45 706c-1-1 0-1 1-2l1 1c1 1 0 2-1 2l-1-1zM25 901l1-2 2 1-1 2-2-1zM114 830l1-2 2 1-1 2-2-1zM156 749l1-2 2 1-1 2-2-1zM82 542v-1c1-1 2 0 2 1l-1 1-1-1z" fill="#02D2D6" fill-opacity=".5"/><path d="M86 787l1-2 2 1-1 2-2-1zM145 730l1-1h2l-1 2-2-1zM16 712l1-2 2 1-1 2-2-1zM134 807v-2l2 1-1 1h-1zM13 894l1-2a1 1 0 111 3l-2-1zM10 887l1-2 2 1-1 2-2-1zM67 752l1-2a1 1 0 111 2h-2zM160 778l1-2 2 1-1 2-2-1zM35 871l1-2a1 1 0 111 3l-2-1zM11 1076a1 1 0 113-1l-1 2-2-1zM64 831l1-2a1 1 0 111 3l-2-1zM62 1000l1-2 2 1-1 2-2-1zM73 746l1-2 2 1-1 2-2-1zM15 812v-2l2 1c1 1 0 2-1 2l-1-1zM89 810l1-2 2 1-1 2-2-1zM1 998a1 1 0 111 1l-1-1zM14 781l1-2 2 1c1 1 0 1-1 2l-2-1zM47 796l1-2 2 1-1 2-2-1zM71 694l1-2 2 1-1 2c-1 1-2 0-2-1zM8 812l1-2 1 1c1 1 0 2-1 2l-1-1zM15 814l1-1h2l-1 2c-1 1-1 0-2-1zM28 906l1-2c1-1 1 0 2 1l-1 2-2-1zM75 1142a1 1 0 112 1l-2-1zM6 1079l1-2a1 1 0 011 3c-1 1-2 0-2-1zM44 732l1-2 2 1-1 2-2-1zM45 839l1-2 2 1-1 2-2-1zM41 959v-2l2 1c1 1 0 2-1 2l-1-1zM24 1096c-1-1 0-2 1-2l1 1v2l-2-1zM11 810l1-2c1-1 2 0 2 1l-1 1h-2zM81 602c-1-1 0-2 1-2l1 1v2l-2-1zM146 723a2 2 0 10-2 3 2 2 0 002-3zM15 1123l1-2c1-1 2 0 2 1a2 2 0 01-3 1zM24 852c-1-1 0-2 1-2l2 1-1 2-2-1zM17 861l1-2 2 1c1 1 0 1-1 2l-2-1zM143 790l2-2 1 1c1 1 0 2-1 2l-2-1zM5 965l1-1 2 1-1 2-2-2zM3 808a2 2 0 113-1 2 2 0 01-3 1zM61 1116c-1-1 0-2 1-3l2 1-1 3-2-1zM20 1218l1-2 2 1-1 2-2-1zM120 1256l-1 1h3l-2-1zM111 667a2 2 0 112 1c-1 1-1 0-2-1zM40 840l1-3 2 1c1 1 0 2-1 3l-2-1zM106 1128l1-2a2 2 0 111 3l-2-1zM155 787l1-2 2 1-1 3-2-2zM89 1105l1-2c1-1 2 0 2 1 1 1 0 2-1 2l-2-1zM101 761l1-3 2 1c1 1 0 2-1 3l-2-1zM37 862l1-2 2 1a2 2 0 01-3 1zM11 1092c-1-1 0-2 1-2 1-1 2 0 2 1l-1 2-2-1zM127 678c-1-1 0-2 1-2 1-1 2 0 2 1l-1 2-2-1zM83 1061l1-2a2 2 0 111 3l-2-1zM-1 853l1-3 3 2-2 2-2-1zM113 753l1-2 2 1c1 1 0 2-1 3l-2-2zM53 732l1-2c1-1 2 0 2 1l-1 2-2-1zM49 1034c-1-1 0-2 1-2l2 1-1 2c-1 1-2 0-2-1zM30 1197l1-2c1-1 2 0 2 1 1 1 0 2-1 2l-2-1zM-2 728l1-3 3 1-2 3-2-1zM68 1193l2-2 2 1-1 2-3-1zM65 1100c-1-1 0-2 1-2 1-1 2 0 2 1l-1 2-2-1zM57 1020c-1-1 0-2 1-2 1-1 2 0 2 1 1 1 0 2-1 2-1 1-2 0-2-1zM37 985l1-2c1-1 2 0 2 1 1 1 0 2-1 2l-2-1zM-1 1031l1-2 3 1-2 2-2-1zM85 873l2-2c1-1 2 0 2 1l-1 2-3-1zM11 936c-1-1 0-2 1-3l2 2-1 2-2-1zM117 1190l1-2c1-1 2 0 3 1l-2 2-2-1zM1 1011c-1-1 0-2 1-3l2 1-1 3-2-1zM158 1200c-1-1 0-2 1-2l2 1-1 3-2-2zM103 775l2-2 2 1-1 3-3-2zM92 858l2-2c1-1 2 0 2 1l-1 2c-1 1-2 0-3-1zM29 926l1-3 3 1-1 3-3-1z" fill="#02D2D6" fill-opacity=".5"/><path d="M46 837c-1-1 0-2 1-3l2 2c1 1 0 2-1 2l-2-1zM84 850l1-2c1-1 2 0 3 1l-2 2c-1 1-2 0-2-1zM56 874c-1-1 0-2 1-2 1-1 2 0 2 1 1 1 0 2-1 2-1 1-2 0-2-1zM5 1076l1-2 3 1-1 3c-1 0-2 0-3-2zM180 1169l2-3 2 2-1 2-3-1zM97 865l2-2c1-1 2 0 2 1l-1 2c-1 1-2 0-3-1zM32 907l2-2 2 1-1 3c-1 0-2 0-3-2zM120 802a2 2 0 013-1 2 2 0 01-3 1zM106 1123a2 2 0 014-1 2 2 0 01-4 1zM109 1237l2-2c1-1 2 0 2 1 1 1 0 2-1 2-1 1-2 0-3-1zM75 867c0-1 0-2 2-3l2 2-1 2c-1 1-2 0-3-1zM5 902l1-3 3 1-2 3-2-1zM1 1016c-1-1 0-2 1-2l2 1c1 1 0 2-1 3l-2-2zM13 937c-1-1 0-3 1-3l2 1c1 1 0 3-1 3l-2-1zM109 1174l2-2c1-1 2 0 2 1 1 1 0 2-1 3l-3-2zM204 1256l1-3c2 0 3 1 3 2l-1 2c-1 1-2 0-3-1zM17 893c-1-1 0-2 1-2 1-1 2 0 3 1l-2 3c-1 0-2 0-2-2zM34 1142a2 2 0 114-1c1 1 0 2-1 2-1 1-2 0-3-1zM108 887c-1-1 0-2 1-2 1-1 3 0 3 1l-1 3c-2 0-3 0-3-2zM72 1037c-1-2 0-3 1-3 1-1 3 0 3 1l-1 3-3-1zM6 1176c-1-1 0-2 1-3l3 2-1 3c-2 0-3-1-3-2zM107 879c-1-1 0-2 1-2 1-1 3 0 3 1s0 3-2 3c-1 0-2 0-2-2z" fill="#02D2D6" fill-opacity=".5"/><path d="M84 852l2-3c1-1 3 0 3 1l-1 3c-2 1-3 0-4-1zM77 901c-1-2 0-3 1-3a2 2 0 112 4c-1 1-3 0-3-1zM102 923c0-1 0-2 2-3 1 0 2 0 3 2 0 1 0 2-2 3-1 0-2 0-3-2zM103 781c-1-2 0-3 2-4l3 2-2 3c-1 1-3 0-3-1zM78 799l2-4 4 2c1 2 0 4-2 4-1 1-3 0-4-2zM66 1081c-1-2 0-4 2-5a3 3 0 112 7c-2 1-4 0-4-2z" fill="#02D2D6" fill-opacity=".5"/><path d="M44 756l-23-16h-1v1l23 16h1v-1z" fill="#02D2D6" fill-opacity=".4"/><path d="M10 751l34 6v-1l-34-6H9l1 1z" fill="#02D2D6" fill-opacity=".1"/><path d="M44 757l10-15v-1l-1 1-10 14v1h1z" fill="#02D2D6" fill-opacity=".3"/><path d="M81 744l-38 12v1h1l38-12v-1h-1z" fill="#02D2D6" fill-opacity=".1"/><path d="M44 756l-36 1v1l36-1v-1z" fill="#02D2D6" fill-opacity=".1"/><path d="M63 581l28 8v-1l-27-8h-1v1zM10 751l11-10v-1h-1l-10 10v1z" fill="#02D2D6" fill-opacity=".5"/><path d="M21 741l33 2v-1-1l-33-1-1 1h1z" fill="#02D2D6" fill-opacity=".4"/><path d="M20 740L8 757v1h1l12-17v-1h-1z" fill="#02D2D6" fill-opacity=".5"/><path d="M10 751l44-8v-1-1l-44 9H9l1 1z" fill="#02D2D6" fill-opacity=".2"/><path d="M82 744l-28-3-1 1 1 1 27 2 1-1zM9 750l-2 7 1 1h1l2-8h-1-1z" fill="#02D2D6" fill-opacity=".5"/><path d="M8 735l12 6h1v-1l-13-6c0-1 0 0 0 0v1z" fill="#02D2D6" fill-opacity=".4"/><path d="M20 741l38 30h1l-1-1-37-30h-1v1z" fill="none"/><path d="M20 741l21 26h1v-1l-21-26h-1v1z" fill="#02D2D6" fill-opacity=".1"/><path d="M20 741l10 14h1v-1l-10-14h-1v1z" fill="#02D2D6" fill-opacity=".2"/><path d="M11 750l-2-16-1-1-1 1 2 16 1 1 1-1z" fill="#02D2D6" fill-opacity=".5"/><path d="M20 741l4 18h1l-4-18-1-1v1z" fill="#02D2D6" fill-opacity=".2"/><path d="M8 735l46 8v-1-1l-46-8-1 1 1 1zM12 845l-52-7h-1l1 1 52 7 1-1h-1z" fill="#02D2D6" fill-opacity=".1"/><path d="M7 734v24h2v-24l-1-1-1 1z" fill="#02D2D6" fill-opacity=".5"/><path d="M-3 874l-37-36c0-1 0-1 0 0v1l36 36h1v-1z" fill="#02D2D6" fill-opacity=".1"/><path d="M53 742l4 29h1l1-1-5-28v-1l-1 1z" fill="#02D2D6" fill-opacity=".4"/><path d="M81 744l-23 26v1l24-26v-1h-1zM10 751l31 16 1-1-32-16H9l1 1z" fill="#02D2D6" fill-opacity=".3"/><path d="M12 845l-33-3v1l33 3 1-1h-1z" fill="#02D2D6" fill-opacity=".4"/><path d="M-3 874l-17-31-1-1v1l17 31 1 1v-1z" fill="#02D2D6" fill-opacity=".4"/><path d="M53 742l-12 24v1l1-1 12-24v-1l-1 1z" fill="#02D2D6" fill-opacity=".3"/><path d="M117 704l-36 40v1h1l36-41h-1z" fill="none"/><path d="M10 751l21 4v-1l-21-4H9l1 1z" fill="#02D2D6" fill-opacity=".4"/><path d="M12 845l-16 29v1l1-1 16-28-1-1z" fill="#02D2D6" fill-opacity=".5"/><path d="M53 741l-23 13v1h1l23-13-1-1z" fill="#02D2D6" fill-opacity=".3"/><path d="M10 751l14 8h1v-1l-15-8H9l1 1z" fill="#02D2D6" fill-opacity=".4"/><path d="M78 751l-24-10-1 1 1 1 24 10 1-1-1-1z" fill="#02D2D6" fill-opacity=".3"/><path d="M81 744l-40 22v1h1l40-22v-1h-1z" fill="#02D2D6" fill-opacity=".1"/><path d="M53 741l-29 17v1h1l29-17-1-1z" fill="#02D2D6" fill-opacity=".2"/><path d="M8 758l33 9 1-1-34-9H7l1 1z" fill="#02D2D6" fill-opacity=".3"/><path d="M81 744l-4 8 1 1 1-1 3-8h-1z" fill="#02D2D6" fill-opacity=".5"/><path d="M8 758l23-3v-1l-23 3-1 1h1z" fill="#02D2D6" fill-opacity=".4"/><path d="M-4 874l26 52 1 1v-1l-26-52h-1z" fill="none"/><path d="M8 758l16 1h1v-1l-17-1H7l1 1z" fill="#02D2D6" fill-opacity=".5"/><path d="M81 744l-2 34h1l2-34h-1z" fill="#02D2D6" fill-opacity=".3"/><path d="M-4 1095l11 4 1-1-12-4v1z" fill="#02D2D6" fill-opacity=".5"/><path d="M8 734l33 33h1v-1L8 734c0-1 0-1 0 0-1 0-1 0 0 0z" fill="#02D2D6" fill-opacity=".2"/><path d="M82 744l-15-20h-1v1l15 20h1v-1z" fill="#02D2D6" fill-opacity=".1"/><path d="M8 757l-27 11-1 1h1l27-11 1-1H8z" fill="#02D2D6" fill-opacity=".2"/><path d="M8 734l22 21h1v-1L8 734c0-1 0-1 0 0-1 0-1 0 0 0z" fill="#02D2D6" fill-opacity=".5"/><path d="M8 734l16 25h1L9 734H8c-1 0-1 0 0 0z" fill="#02D2D6" fill-opacity=".5"/><path d="M10 751l12 16h1v-1l-13-16v1z" fill="#02D2D6" fill-opacity=".1"/><path d="M117 704l-35-16h-1l1 1 35 16 1-1h-1z" fill="#02D2D6" fill-opacity=".4"/><path d="M121 644l-39 44v1l40-44v-1h-1z" fill="none"/><path d="M102 622l19 23h1v-1l-19-22h-1s-1 0 0 0zM41 767l17 4h1l-1-1-16-4h-1v1z" fill="#02D2D6" fill-opacity=".5"/><path d="M121 645l-4 59v1l1-1 4-59v-1l-1 1z" fill="none"/><path d="M8 758l14 9h1v-1l-15-9v1z" fill="#02D2D6" fill-opacity=".2"/><path d="M30 755l28 16h1l-1-1-27-16h-1v1z" fill="#02D2D6" fill-opacity=".5"/><path d="M78 752l-20 18v1l20-19c1 0 1 0 0 0 0-1 0-1 0 0z" fill="#02D2D6" fill-opacity=".5"/><path d="M24 759l34 12h1l-1-1-33-12-1 1z" fill="#02D2D6" fill-opacity=".4"/><path d="M80 777l-22-7v1l21 7h1v-1zM42 766l-11-12h-1v1l11 12h1v-1z" fill="#02D2D6" fill-opacity=".5"/><path d="M78 751l-37 15 1 1 36-14 1-1-1-1z" fill="#02D2D6" fill-opacity=".4"/><path d="M42 766l-17-8-1 1 17 8 1-1z" fill="#02D2D6" fill-opacity=".5"/><path d="M78 751l-47 3h-1l1 1 47-2 1-1-1-1z" fill="#02D2D6" fill-opacity=".2"/><path d="M73 684l9 5h1l-1-1-8-5-1 1zM25 759l6-4v-1h-1l-6 4v1h1z" fill="#02D2D6" fill-opacity=".5"/><path d="M8 734l-28 34 1 1 28-35H8c0-1 0-1 0 0z" fill="#02D2D6" fill-opacity=".2"/><path d="M41 767l38 11h1v-1l-38-11h-1v1z" fill="#02D2D6" fill-opacity=".4"/><path d="M78 751l-54 7v1l1 1 53-7 1-1-1-1z" fill="#02D2D6" fill-opacity=".1"/><path d="M118 704l-44-21-1 1 44 21 1-1z" fill="#02D2D6" fill-opacity=".2"/><path d="M84 890l-12 29h1l12-28v-1h-1z" fill="#02D2D6" fill-opacity=".1"/><path d="M77 752l2 26h1v-1l-1-25-1-1-1 1z" fill="#02D2D6" fill-opacity=".5"/><path d="M8 734l14 32 1 1v-1L9 734l-1-1v1z" fill="#02D2D6" fill-opacity=".2"/><path d="M66 725l-9 45 1 1h1l8-46v-1l-1 1z" fill="#02D2D6" fill-opacity=".1"/><path d="M81 688l-15 37h1c0 1 0 0 0 0l16-36-1-1h-1z" fill="#02D2D6" fill-opacity=".3"/><path d="M117 704l-50 20-1 1h1l50-20 1-1h-1zM72 918l-49 8h-1l1 1 49-8h1l-1-1z" fill="none"/><path d="M-15 855l27-9 1-1h-1l-27 9h-1l1 1z" fill="#02D2D6" fill-opacity=".1"/><path d="M0 825l12 21 1-1-12-20-1-1v1z" fill="#02D2D6" fill-opacity=".1"/><path d="M7 1098l-7 16h2l6-15v-1H7z" fill="#02D2D6" fill-opacity=".2"/><path d="M-19 769l50-14v-1h-1l-49 14-1 1h1z" fill="#02D2D6" fill-opacity=".1"/><path d="M24 758l-43 10-1 1h1l44-10-1-1zM22 767l36 4h1l-1-1-36-4v1z" fill="#02D2D6" fill-opacity=".2"/><path d="M79 752l-12-27v-1l-1 1 11 27 1 1 1-1z" fill="#02D2D6" fill-opacity=".4"/><path d="M41 766H22v1h19l1-1h-1z" fill="#02D2D6" fill-opacity=".5"/><path d="M23 767l8-12v-1h-1l-8 12v1h1z" fill="#02D2D6" fill-opacity=".5"/><path d="M73 684l-7 41h1l7-41-1-1v1z" fill="#02D2D6" fill-opacity=".3"/><path d="M-5 874l18-28-1-1-18 28v1h1z" fill="none"/><path d="M24 759l-2 7v1l1-1 2-7v-1l-1 1zM-4 1095l4 19h2l-5-19-1-1v1z" fill="#02D2D6" fill-opacity=".5"/><path d="M1 825l-30-35h-1v1l30 34h1z" fill="#02D2D6" fill-opacity=".2"/><path d="M1 824l-40 16v1l40-16v-1z" fill="#02D2D6" fill-opacity=".2"/><path d="M74 683l-34-32h-1v1l34 32h1v-1z" fill="#02D2D6" fill-opacity=".1"/><path d="M-19 769l41-2 1-1h-1l-41 2-1 1h1z" fill="#02D2D6" fill-opacity=".3"/><path d="M14 696l53 29c0 1 0 0 0 0v-1l-53-29h-1l1 1z" fill="none"/><path d="M78 553l-13 15 1 1 13-15v-1h-1z" fill="#02D2D6" fill-opacity=".5"/><path d="M40 806l2-40h-1l-2 40 1 1v-1z" fill="none"/><path d="M39 651l-26 44 1 1 26-44v-1h-1z" fill="#02D2D6" fill-opacity=".2"/><path d="M61 777l-19-11h-1v1l20 11h1l-1-1z" fill="none"/><path d="M0 825l-16 29 1 1v-1l16-29v-1l-1 1z" fill="#02D2D6" fill-opacity=".5"/><path d="M61 778h19l-1-1H61l-1 1h1zM1 824l-57-10v1l57 11v-1-1zM14 695l-15-47-1-1v1l15 48h1v-1z" fill="#02D2D6" fill-opacity=".1"/><path d="M0 825l-6 48v1l1-1 6-48v-1l-1 1zM40 806l-17-40h-1l17 40 1 1v-1z" fill="#02D2D6" fill-opacity=".2"/><path d="M-3 1033l7-35-1-1v1l-7 35h1z" fill="#02D2D6" fill-opacity=".1"/><path d="M27 552l39 17h1l-1-1-38-17-1 1z" fill="#02D2D6" fill-opacity=".2"/><path d="M28 552l51 2 1-1h-1l-51-2-1 1h1z" fill="none"/><path d="M39 651l-41-4v2l41 3h1l-1-1z" fill="#02D2D6" fill-opacity=".3"/><path d="M13 696l-4 33v1h1l4-34v-1l-1 1z" fill="#02D2D6" fill-opacity=".2"/><path d="M9 730l13 36 1 1v-1l-13-37H9v1z" fill="#02D2D6" fill-opacity=".1"/><path d="M61 777l-38-11h-1v1l39 11h1l-1-1zM40 805L1 824l-1 1 1 1 39-19v-1-1z" fill="#02D2D6" fill-opacity=".2"/><path d="M102 725l-35-1-1 1h1l35 1v-1z" fill="none"/><path d="M21 726l-7-31-1 1 7 31 1-1zM7 1082l-7 32h2l6-32H7z" fill="#02D2D6" fill-opacity=".1"/><path d="M-4 1088l4 26h2l-4-26-1-1-1 1z" fill="none"/><path d="M0 1114l-33 52h1l34-52-1-1-1 1z" fill="none"/><path d="M-31 852l32-27-1-1-31 27v1z" fill="#02D2D6" fill-opacity=".1"/><path d="M40 806l22-28-1-1-22 29h1z" fill="#02D2D6" fill-opacity=".4"/><path d="M-15 855l24 7v-1-1l-24-6h-1l1 1z" fill="#02D2D6" fill-opacity=".1"/><path d="M0 825l8 36 1 1v-1l-8-36v-1l-1 1z" fill="#02D2D6" fill-opacity=".1"/><path d="M-5 874l14-13-1-1-14 13v1h1zM-4 1033l11 49v1l1-1-11-49v-1l-1 1z" fill="#02D2D6" fill-opacity=".2"/><path d="M20 726l-11 3v1l11-3 1-1h-1z" fill="#02D2D6" fill-opacity=".5"/><path d="M101 726l33 13 1-1h-1l-32-13-1 1z" fill="#02D2D6" fill-opacity=".4"/><path d="M-3 1089l10-6 1-1H7l-10 6c-1 0-1 0 0 0v1z" fill="#02D2D6" fill-opacity=".5"/><path d="M-4 1033v55l1 1 1-1-1-55v-1l-1 1z" fill="#02D2D6" fill-opacity=".2"/><path d="M7 1082l-40 20v1h1l39-20 1-1H7z" fill="#02D2D6" fill-opacity=".3"/><path d="M-31 852l40 10v-1-1l-40-9h-1l1 1z" fill="#02D2D6" fill-opacity=".4"/><path d="M10 730l19-20v-1h-1L9 729v1h1z" fill="#02D2D6" fill-opacity=".1"/><path d="M39 806l14 19h1s1 0 0 0l-14-19-1-1v1z" fill="none"/><path d="M-31 852l32-4v-1-1l-32 5-1 1h1z" fill="#02D2D6" fill-opacity=".4"/><path d="M26 917L9 861v-1l-1 1 16 56h2z" fill="#02D2D6" fill-opacity=".1"/><path d="M21 727l8-17v-1h-1l-8 17v1h1z" fill="#02D2D6" fill-opacity=".4"/><path d="M105 670l-4 56h1l4-56h-1z" fill="none"/><path d="M24 916L1 960v1h1l24-44-1-1h-1z" fill="#02D2D6" fill-opacity=".2"/><path d="M0 847l8 14h1l-8-14-1-1v1z" fill="#02D2D6" fill-opacity=".5"/><path d="M20 727l26 15h1l-1-1-26-15v1z" fill="#02D2D6" fill-opacity=".2"/><path d="M54 703l-34 23v1h1l33-23 1-1h-1z" fill="none"/><path d="M8 862l44 26 1-1-44-27-1 1v1z" fill="#02D2D6" fill-opacity=".2"/><path d="M105 671l17-3v-1l-17 3s-1 0 0 0v1z" fill="#02D2D6" fill-opacity=".5"/><path d="M26 917l27-29v-1h-1l-27 29v1h1z" fill="#02D2D6" fill-opacity=".3"/><path d="M67 645l55 23v-1l-54-23h-1v1zM1 848l53-22v-1-1L0 846v1l1 1z" fill="#02D2D6" fill-opacity=".1"/><path d="M0 848l52 40h1v-1L1 847H0v1z" fill="none"/><path d="M67 645l38 26h1v-1l-38-26h-1v1z" fill="#02D2D6" fill-opacity=".3"/><path d="M8 861l18 40h1v-1L9 861l-1-1v1z" fill="#02D2D6" fill-opacity=".1"/><path d="M2 1164l-34-62h-1v1l33 61 1 1 1-1z" fill="none"/><path d="M47 741l-18-32h-1v1l17 32h1l1-1z" fill="#02D2D6" fill-opacity=".4"/><path d="M-9 928l34-11h1l-1-1-35 11v1h1z" fill="#02D2D6" fill-opacity=".2"/><path d="M54 703l-26 6v1h1l25-6 1-1h-1z" fill="#02D2D6" fill-opacity=".5"/><path d="M26 917l1-17h-1l-2 17h2z" fill="#02D2D6" fill-opacity=".2"/><path d="M54 704l52-33v-1h-1l-51 33-1 1h1z" fill="none"/><path d="M53 887l1-62v-1l-1 1-2 62 1 1 1-1z" fill="#02D2D6" fill-opacity=".1"/><path d="M113 661l8 7h1v-1l-8-7h-1v1z" fill="#02D2D6" fill-opacity=".4"/><path d="M55 704l13-59v-1h-1l-14 59 1 1h1zM0 847l26 54h1v-1L1 847l-1-1v1z" fill="#02D2D6" fill-opacity=".1"/><path d="M106 671l8-10v-1h-1l-8 10v1h1z" fill="#02D2D6" fill-opacity=".5"/><path d="M88 787l-35 38h1l35-38v-1l-1 1z" fill="#02D2D6" fill-opacity=".2"/><path d="M46 705l-18 4v1h1l17-4h1l-1-1z" fill="#02D2D6" fill-opacity=".5"/><path d="M53 703l-8 38 1 1h1l8-38-1-1h-1z" fill="#02D2D6" fill-opacity=".4"/><path d="M67 645l46 16h1v-1l-46-16h-1v1z" fill="#02D2D6" fill-opacity=".3"/><path d="M89 786l-43-45-1 1 43 45h1v-1zM0 847l14 47 1-1-14-46-1-1v1z" fill="#02D2D6" fill-opacity=".1"/><path d="M0 846l-5 3-1 1h1l6-2v-1l-1-1z" fill="#02D2D6" fill-opacity=".2"/><path d="M17 712l12-2v-1h-1l-11 2v1z" fill="#02D2D6" fill-opacity=".3"/><path d="M0 847l11 40h1v-1L1 847v-1l-1 1z" fill="#02D2D6" fill-opacity=".1"/><path d="M27 901l25-13 1-1h-1l-26 13v1h1z" fill="#02D2D6" fill-opacity=".5"/><path d="M116 829l-62-5-1 1 1 1 62 4v-1z" fill="#02D2D6" fill-opacity=".1"/><path d="M45 706v35l1 1 1-1v-35l-1-1-1 1z" fill="#02D2D6" fill-opacity=".4"/><path d="M87 786l-34 39h1l34-38v-1h-1z" fill="#02D2D6" fill-opacity=".1"/><path d="M167 809l-13-46-1-1v1l13 47h1v-1z" fill="#02D2D6" fill-opacity=".3"/><path d="M46 706l8-2 1-1h-1l-8 2-1 1h1z" fill="#02D2D6" fill-opacity=".5"/><path d="M45 742l42 45h1v-1l-42-45h-1v1z" fill="#02D2D6" fill-opacity=".1"/><path d="M116 829l-27-42-1-1v1l27 43h1v-1zM17 712l28 30h1v-1l-28-30h-1v1z" fill="#02D2D6" fill-opacity=".3"/><path d="M14 894l38-6 1-1-1-1-38 7v1z" fill="#02D2D6" fill-opacity=".2"/><path d="M154 763l4-14v-1l-1 1-4 14h1zM89 786h-2v1l1 1 1-1v-1z" fill="#02D2D6" fill-opacity=".5"/><path d="M11 887l41 1 1-1-1-1H11v1z" fill="#02D2D6" fill-opacity=".2"/><path d="M54 703l-37 8v1l37-8 1-1h-1z" fill="#02D2D6" fill-opacity=".3"/><path d="M166 809l-51 20v1h1l51-20v-1h-1z" fill="#02D2D6" fill-opacity=".2"/><path d="M154 763l-7-33-1-1v1l7 33v1l1-1z" fill="#02D2D6" fill-opacity=".4"/><path d="M167 809l-9-60v-1l-1 1 9 61h1v-1z" fill="#02D2D6" fill-opacity=".1"/><path d="M46 742l23 10v-1-1l-23-9h-1l1 1z" fill="#02D2D6" fill-opacity=".4"/><path d="M-9 928l36-27v-1h-1l-36 27v1h1zM88 788l47 19 1-1-1-1-46-19-1 1v1z" fill="#02D2D6" fill-opacity=".3"/><path d="M53 887l-16-17h-1v1l16 17h1v-1z" fill="#02D2D6" fill-opacity=".2"/><path d="M153 763l-19 43 1 1 1-1 18-43v-1l-1 1z" fill="#02D2D6" fill-opacity=".3"/><path d="M53 704l15 47 1 1 1-1-15-48h-1l-1 1z" fill="#02D2D6" fill-opacity=".2"/><path d="M89 787l-20-36v-1l-1 1 20 36 1 1v-1z" fill="#02D2D6" fill-opacity=".3"/><path d="M167 809l-32-4-1 1 1 1 32 3v-1z" fill="#02D2D6" fill-opacity=".4"/><path d="M66 830l-12-6-1 1v1l12 6 1-1v-1z" fill="#02D2D6" fill-opacity=".2"/><path d="M153 763l8 15h1v-1l-8-15h-1v1z" fill="#02D2D6" fill-opacity=".5"/><path d="M116 829l-28-43h-1v1l28 43h1v-1z" fill="#02D2D6" fill-opacity=".3"/><path d="M46 705l-29 6v1l29-6h1l-1-1zM146 730l11 19h1v-1l-11-18-1-1v1z" fill="#02D2D6" fill-opacity=".5"/><path d="M167 809l-5-32-1 1 5 32h1v-1z" fill="#02D2D6" fill-opacity=".4"/><path d="M-9 928l24-34v-1h-1l-24 34v1h1z" fill="#02D2D6" fill-opacity=".3"/><path d="M-9 928l21-41v-1h-1l-21 41v1h1z" fill="#02D2D6" fill-opacity=".2"/><path d="M14 894l12 7h1v-1l-12-7h-1v1z" fill="#02D2D6" fill-opacity=".5"/><path d="M27 900l-31-51h-1l-1 1 32 51h1v-1z" fill="#02D2D6" fill-opacity=".1"/><path d="M116 830l19-23v-1h-1l-19 23v1h1z" fill="#02D2D6" fill-opacity=".5"/><path d="M75 745l-29-4h-1l1 1 28 4h1v-1z" fill="#02D2D6" fill-opacity=".2"/><path d="M45 706l23 45 1 1v-1l-22-46h-1l-1 1z" fill="#02D2D6" fill-opacity=".3"/><path d="M136 806l22-57v-1l-1 1-23 57 1 1 1-1z" fill="#02D2D6" fill-opacity=".1"/><path d="M11 887l15 14h1v-1l-15-14h-1v1z" fill="#02D2D6" fill-opacity=".5"/><path d="M135 805l-47-19h-1v1l48 20 1-1-1-1z" fill="#02D2D6" fill-opacity=".3"/><path d="M75 745l-20-42h-1l-1 1 21 42h1v-1z" fill="#02D2D6" fill-opacity=".1"/><path d="M13 1076l28-46v-1h-1l-28 46v1h1z" fill="#02D2D6" fill-opacity=".2"/><path d="M68 751l19 36h1v-1l-18-35-1-1-1 1z" fill="#02D2D6" fill-opacity=".4"/><path d="M1 1164l-35 23-1 1h1l35-23 1-1H1z" fill="#02D2D6" fill-opacity=".3"/><path d="M157 749l4 29h1v-1l-3-28-1-1-1 1z" fill="#02D2D6" fill-opacity=".5"/><path d="M27 901l10-30v-1h-1l-10 30v1h1z" fill="#02D2D6" fill-opacity=".4"/><path d="M12 1075l-41-4-1 1 1 1 41 3h1l-1-1zM146 730l15 48h1v-1l-15-47-1-1v1z" fill="#02D2D6" fill-opacity=".3"/><path d="M41 1030l23-30v-1h-1l-23 30v1h1zM17 712l51 40h1v-1l-51-40h-1v1z" fill="#02D2D6" fill-opacity=".1"/><path d="M15 893l-19-44h-1l-1 1 20 44h1v-1z" fill="#02D2D6" fill-opacity=".3"/><path d="M11 887l3 7 1-1-3-7h-1v1z" fill="#02D2D6" fill-opacity=".5"/><path d="M12 886l-16-37h-1l-1 1 17 37h1v-1zM135 807l27-29v-1h-1l-27 29v1h1z" fill="#02D2D6" fill-opacity=".4"/><path d="M-40 1082l52-6 1-1h-1l-52 5-1 1 1 1zM91 809l-2-22-1-1v1l2 22v1l1-1zM45 706l29 40h1v-1l-28-40h-1l-1 1zM116 829l-50 1-1 1 1 1 50-2v-1z" fill="#02D2D6" fill-opacity=".2"/><path d="M66 831l22-44v-1h-1l-22 45v1l1-1z" fill="#02D2D6" fill-opacity=".2"/><path d="M15 894l22-23v-1h-1l-22 23v1h1z" fill="#02D2D6" fill-opacity=".5"/><path d="M37 870l-42-21h-1l1 1 41 21h1v-1z" fill="#02D2D6" fill-opacity=".4"/><path d="M12 887l25-16v-1h-1l-25 16v1h1z" fill="#02D2D6" fill-opacity=".5"/><path d="M74 746l13 41h1v-1l-13-40-1-1v1zM116 829l-25-20h-1v1l25 20h1v-1z" fill="#02D2D6" fill-opacity=".2"/><path d="M91 809l-3-23h-1v1l3 22v1l1-1z" fill="#02D2D6" fill-opacity=".4"/><path d="M74 745l-6 6v1h1l6-6v-1h-1z" fill="#02D2D6" fill-opacity=".5"/><path d="M65 830l-29 40v1h1l29-40v-1h-1zM15 811l-21 38 1 1h1l21-38-1-1h-1z" fill="#02D2D6" fill-opacity=".3"/><path d="M46 706l26-11 1-1-1-1-26 12-1 1h1z" fill="#02D2D6" fill-opacity=".1"/><path d="M90 810l45-3 1-1-1-1-45 4v1z" fill="#02D2D6" fill-opacity=".2"/><path d="M-29 1112l42-36v-1h-1l-42 36v1h1z" fill="#02D2D6" fill-opacity=".3"/><path d="M91 809l-22-58v-1l-1 1 22 59h1v-1zM30 905l-3-5h-1v1l3 4 1 1v-1z" fill="#02D2D6" fill-opacity=".1"/><path d="M14 893l-30-9h-1l1 1 30 9h1l-1-1z" fill="#02D2D6" fill-opacity=".3"/><path d="M-12 867l26 27h1v-1l-26-27h-1v1z" fill="#02D2D6" fill-opacity=".2"/><path d="M12 886l-28-2h-1l1 1 27 2 1-1z" fill="#02D2D6" fill-opacity=".4"/><path d="M-12 867l23 20h1v-1l-23-20h-1v1z" fill="#02D2D6" fill-opacity=".3"/><path d="M17 712l55-17 1-1-1-1-55 18v1z" fill="none"/><path d="M-16 885l53-14v-1h-1l-52 14-1 1h1z" fill="#02D2D6" fill-opacity=".2"/><path d="M-12 867l49 4v-1l-49-4v1zM66 830l-50-19a1 1 0 000 1l49 20 1-1v-1z" fill="#02D2D6" fill-opacity=".2"/><path d="M71 694l-3 57 1 1 1-1 3-57-1-1-1 1z" fill="none"/><path d="M30 905l-15-12h-1v1l15 12h1v-1z" fill="#02D2D6" fill-opacity=".3"/><path d="M66 831l25-21v-1h-1l-25 21v1h1z" fill="#02D2D6" fill-opacity=".5"/><path d="M30 905l-18-19h-1v1l18 19h1v-1z" fill="#02D2D6" fill-opacity=".3"/><path d="M74 746l16 64h1v-1l-16-63-1-1v1zM17 712l28 20h1v-1l-28-20a1 1 0 10-1 1z" fill="#02D2D6" fill-opacity=".1"/><path d="M30 905l7-34v-1h-1l-7 35v1l1-1z" fill="#02D2D6" fill-opacity=".3"/><path d="M63 999l-61-2H1l1 1 61 2 1-1h-1zM69 751l-23-20a1 1 0 00-1 1l23 20h1v-1z" fill="#02D2D6" fill-opacity=".1"/><path d="M48 796l17 35h1s1 0 0 0l-17-36h-1v1z" fill="#02D2D6" fill-opacity=".3"/><path d="M-11 867l28-55-1-1h-1l-27 55v1h1z" fill="#02D2D6" fill-opacity=".2"/><path d="M12 1075l-5 3v1l1 1 5-4v-1h-1z" fill="#02D2D6" fill-opacity=".4"/><path d="M74 745l-26 50v1h1l26-50v-1h-1z" fill="#02D2D6" fill-opacity=".2"/><path d="M75 746l-2-52-1-1-1 1 3 52h1z" fill="#02D2D6" fill-opacity=".2"/><path d="M66 830l-49-17-1 1 1 1 48 17 1-1v-1z" fill="#02D2D6" fill-opacity=".1"/><path d="M15 780v32h2v-32h-2z" fill="#02D2D6" fill-opacity=".5"/><path d="M-29 1112l37-33v-1H7l-37 33v1h1z" fill="#02D2D6" fill-opacity=".1"/><path d="M48 795l-32 16-1 1h1l33-16v-1h-1z" fill="#02D2D6" fill-opacity=".5"/><path d="M48 796l42 14h1v-1l-42-14h-1v1z" fill="#02D2D6" fill-opacity=".4"/><path d="M9 813l7-1h1l-1-1H9l-1 1 1 1z" fill="#02D2D6" fill-opacity=".5"/><path d="M15 812l1 2 1 1v-4h-1l-1 1z" fill="#02D2D6" fill-opacity=".5"/><path d="M75 745l-29-14h-1v1l29 14h1v-1z" fill="#02D2D6" fill-opacity=".3"/><path d="M-42 770l58 11 1-1h-1l-58-11h-1l1 1zM26 1095l-13-20a1 1 0 00-1 1l12 20h1l1-1z" fill="#02D2D6" fill-opacity=".2"/><path d="M65 830l-19 8v1h1l19-7v-1l-1-1zM30 904l-46-20h-1l1 1 45 21 1-1v-1z" fill="#02D2D6" fill-opacity=".3"/><path d="M49 795l-33-15h-1l1 1 32 15h1v-1zM-12 964l13 34h1l1-1-13-33-1-1-1 1z" fill="#02D2D6" fill-opacity=".5"/><path d="M-12 867l41 39h1v-1l-41-39h-1v1z" fill="#02D2D6" fill-opacity=".3"/><path d="M-43 770l52 42a1 1 0 001-1l-52-42h-1v1z" fill="#02D2D6" fill-opacity=".1"/><path d="M-43 770l59 45 1-1v-1l-59-44h-1v1z" fill="none"/><path d="M10 812l7-32h-1-1l-7 32 1 1 1-1z" fill="#02D2D6" fill-opacity=".5"/><path d="M15 780l1 34 1 1 1-1-1-34h-2z" fill="#02D2D6" fill-opacity=".5"/><path d="M12 1076l4 46 1 1v-1l-4-47h-1v1z" fill="#02D2D6" fill-opacity=".1"/><path d="M9 813l40-17a1 1 0 10-1-1L9 811l-1 1 1 1z" fill="#02D2D6" fill-opacity=".4"/><path d="M48 795l-32 18v1l1 1 32-19v-1h-1z" fill="#02D2D6" fill-opacity=".5"/><path d="M47 838l-31-27h-1v1l31 27h1v-1z" fill="#02D2D6" fill-opacity=".3"/><path d="M-10 964l40-58v-1h-1l-41 59 1 1 1-1zM-30 1112l46 11 1-1v-1l-46-10h-1v1z" fill="none"/><path d="M9 813l8 2v-1-1l-8-2-1 1 1 1z" fill="#02D2D6" fill-opacity=".5"/><path d="M47 839l44-29v-1h-1l-44 29v1h1z" fill="#02D2D6" fill-opacity=".2"/><path d="M16 811l-3-3-1 1v1l3 2h1v-1z" fill="#02D2D6" fill-opacity=".4"/><path d="M17 781l29-49v-1h-1l-30 49v1h2z" fill="#02D2D6" fill-opacity=".2"/><path d="M71 693l-26 38v1h1l27-38v-1h-2zM48 796l-2 42v1l1-1 2-42-1-1v1z" fill="#02D2D6" fill-opacity=".4"/><path d="M41 958L1 997a1 1 0 101 1l40-39v-1h-1z" fill="#02D2D6" fill-opacity=".1"/><path d="M-42 770l54 40 2-1-1-1-55-39h-1l1 1z" fill="none"/><path d="M15 780l-3 29 1 1 1-1 3-29h-1-1z" fill="#02D2D6" fill-opacity=".5"/><path d="M9 812l37 27h1v-1L9 811H8l1 1z" fill="#02D2D6" fill-opacity=".4"/><path d="M47 838l-30-25h-1v1l30 25h1v-1z" fill="#02D2D6" fill-opacity=".5"/><path d="M48 795l-35 13-1 1 1 1 36-14v-1h-1z" fill="#02D2D6" fill-opacity=".4"/><path d="M-11 965l53-6 1-1h-1l-53 5-1 1 1 1z" fill="#02D2D6" fill-opacity=".2"/><path d="M29 905l12 54h1l1-1-13-53-1-1v1z" fill="#02D2D6" fill-opacity=".3"/><path d="M9 812l4-2 1-1-2-1-3 3-1 1h1z" fill="#02D2D6" fill-opacity=".5"/><path d="M12 809l4 5h1v-1l-3-4-2-1v1zM26 1095l-18-17H7v1l18 17h1v-1z" fill="#02D2D6" fill-opacity=".5"/><path d="M29 904l-58 11-1 1 1 1 58-11 1-1-1-1z" fill="#02D2D6" fill-opacity=".1"/><path d="M77 1140l-60-19-1 1v1l60 19 1-1v-1z" fill="none"/><path d="M7 1079l9 43 1 1v-1l-9-43-1-1v1zM47 838l-34-30-1 1v1l34 29h1v-1z" fill="#02D2D6" fill-opacity=".4"/><path d="M8 812l16 40h1l1-1-16-39-1-1-1 1z" fill="#02D2D6" fill-opacity=".3"/><path d="M16 814l8 37 1 1 1-1-9-37v-1l-1 1z" fill="#02D2D6" fill-opacity=".3"/><path d="M8 812l10 48 1 1v-1l-9-48-1-1-1 1z" fill="#02D2D6" fill-opacity=".2"/><path d="M19 860l-1-46-1-1-1 1 2 46 1 1v-1zM-11 965l17 1 1-1-1-1-17-1-1 1 1 1z" fill="#02D2D6" fill-opacity=".2"/><path d="M24 1095l-8 27v1l1-1 9-26-1-1h-1z" fill="#02D2D6" fill-opacity=".5"/><path d="M8 811l-18 28v1l1-1 19-27-1-1H8z" fill="#02D2D6" fill-opacity=".2"/><path d="M16 813l-26 25v2h1l26-26v-1h-1z" fill="#02D2D6" fill-opacity=".2"/><path d="M7 1078l-43 10-1 1h1l44-9v-1l-1-1z" fill="#02D2D6" fill-opacity=".1"/><path d="M7 965l23-60v-1l-1 1-24 60 1 1 1-1z" fill="none"/><path d="M46 838l-21 13-1 1h1l22-13v-1h-1z" fill="#02D2D6" fill-opacity=".5"/><path d="M46 838l-28 22v1h1l28-22v-1h-1zM12 809l12 42 1 1 1-1-12-42-1-1-1 1z" fill="#02D2D6" fill-opacity=".4"/><path d="M20 860l-6-51-1-1-1 1 6 51 1 1 1-1z" fill="#02D2D6" fill-opacity=".3"/><path d="M146 790v-66l-1-1-1 1v66h2zM25 1095l-61-7h-1l1 1 61 7h1l-1-1z" fill="#02D2D6" fill-opacity=".1"/><path d="M6 966l36-7a1 1 0 100-1l-36 6-1 1 1 1zM12 809l-22 30v1l1-1 23-30-1-1-1 1z" fill="#02D2D6" fill-opacity=".4"/><path d="M-37 1089l53 34h1v-2l-53-33h-1v1z" fill="#02D2D6" fill-opacity=".1"/><path d="M7 965l-36-49-1-1v2l35 48 2 1v-1z" fill="#02D2D6" fill-opacity=".2"/><path d="M-64 944l70 22 1-1-1-1-70-21h-1l1 1z" fill="none"/><path d="M13 808l-9-1H3l1 1 9 2 1-1-1-1z" fill="#02D2D6" fill-opacity=".4"/><path d="M19 861l7-9-1-1h-1l-6 9v1h1z" fill="#02D2D6" fill-opacity=".5"/><path d="M25 1096l37 20 1-1v-1l-38-19h-1l1 1z" fill="#02D2D6" fill-opacity=".2"/><path d="M25 850l-34-12-1 1v1l35 12 1-1-1-1z" fill="#02D2D6" fill-opacity=".5"/><path d="M19 860l-28-22-1 1v1l28 21h1v-1z" fill="#02D2D6" fill-opacity=".5"/><path d="M62 1114l-46 7v1l1 1 45-7 1-1-1-1z" fill="#02D2D6" fill-opacity=".1"/><path d="M16 1122l-36 42a1 1 0 101 1l36-42v-1h-1z" fill="#02D2D6" fill-opacity=".2"/><path d="M26 851L5 807H4l-1 1 21 44h1l1-1z" fill="#02D2D6" fill-opacity=".3"/><path d="M19 860L5 807H4l-1 1 15 53h1v-1z" fill="#02D2D6" fill-opacity=".2"/><path d="M-41 1187l62 31h1v-1l-63-31h-1l1 1z" fill="#02D2D6" fill-opacity=".1"/><path d="M-9 839l14-31-1-1H3l-13 32v1l1-1z" fill="#02D2D6" fill-opacity=".5"/><path d="M-24 840l49 12 1-1-1-1-49-12-1 1 1 1z" fill="#02D2D6" fill-opacity=".2"/><path d="M-24 839l42 22h1v-1l-43-22h-1l1 1z" fill="#02D2D6" fill-opacity=".2"/><path d="M21 1217l-52 17v1h2l51-17v-1h-1z" fill="#02D2D6" fill-opacity=".3"/><path d="M-23 839l28-31v-1H4l-29 31 1 1h1z" fill="#02D2D6" fill-opacity=".5"/><path d="M22 1217l-41-53h-1v1l41 53h1v-1z" fill="#02D2D6" fill-opacity=".2"/><path d="M41 838l-16 13-1 1h2l16-12v-1l-1-1zM145 790l11-2 1-1-1-1-11 3-1 1h1z" fill="#02D2D6" fill-opacity=".1"/><path d="M42 838h-52v2h52l1-1-1-1z" fill="none"/><path d="M-51 833l55-25a1 1 0 000-1l-56 25v1h1z" fill="#02D2D6" fill-opacity=".1"/><path d="M42 838L5 807H4v1l37 32h1v-2z" fill="#02D2D6" fill-opacity=".2"/><path d="M62 1116l46 12h1l-1-1-46-13-1 1 1 1z" fill="#02D2D6" fill-opacity=".3"/><path d="M39 861L5 807H4l-1 1 35 54h1v-1z" fill="none"/><path d="M62 1116l29-11 1-1-1-1-29 11-1 1 1 1z" fill="#02D2D6" fill-opacity=".3"/><path d="M-24 840h66a1 1 0 100-2h-66l-1 1 1 1zM21 1217l-49 18 3 1 47-18v-1h-1z" fill="#02D2D6" fill-opacity=".1"/><path d="M-24 839l62 24 1-1v-1l-63-23h-1l1 1zM21 1217l-13 23 2 1 12-23v-1h-1zM12 1091l-54 32v1l1 1 54-33v-1h-1z" fill="#02D2D6" fill-opacity=".1"/><path d="M112 667l16 11h1v-1l-16-11h-1v1z" fill="#02D2D6" fill-opacity=".5"/><path d="M1 851l-25-13h-1l1 1 25 14 1-1-1-1z" fill="#02D2D6" fill-opacity=".1"/><path d="M90 1105l17 23h1l1-1-18-23h-1v1zM41 839l-3 23 1 1 1-1 2-23v-1l-1 1z" fill="#02D2D6" fill-opacity=".5"/><path d="M102 761l54 27 1-1v-1l-54-27-1 1v1z" fill="#02D2D6" fill-opacity=".3"/><path d="M12 1092l79 13 1-1-1-1-79-12h-1l1 1z" fill="none"/><path d="M92 1104l-6-44-1-1-1 1 6 44 1 1 1-1z" fill="#02D2D6" fill-opacity=".3"/><path d="M-52 833l53 20 1-1-1-1-52-19h-1v1z" fill="#02D2D6" fill-opacity=".2"/><path d="M1 853l41-13v-1l-1-1-40 13-1 1 1 1z" fill="#02D2D6" fill-opacity=".3"/><path d="M13 1092l72-31v-1h-1l-72 31-1 1h2z" fill="none"/><path d="M114 754l42 34 1-1v-1l-42-34h-1v2z" fill="#02D2D6" fill-opacity=".2"/><path d="M-5 700l59 32h1v-1l-59-33h-1v2z" fill="#02D2D6" fill-opacity=".1"/><path d="M1 853l37 10 2-1-1-1-38-10-1 1 1 1z" fill="#02D2D6" fill-opacity=".4"/><path d="M114 752l-12 7v1l1 1 12-7v-2h-1z" fill="#02D2D6" fill-opacity=".5"/><path d="M12 1091l-38 54 1 2 1-1 37-54v-1h-1z" fill="#02D2D6" fill-opacity=".3"/><path d="M54 732l48 29 1-1v-1l-48-28h-1v1z" fill="#02D2D6" fill-opacity=".2"/><path d="M116 753l13-76-1-1-1 1-13 76 1 1 1-1z" fill="#02D2D6" fill-opacity=".1"/><path d="M-5 699l4 28a1 1 0 002 0l-5-28-1-1v1z" fill="#02D2D6" fill-opacity=".3"/><path d="M71 1193l38-65-1-1h-1l-38 65 1 1h1z" fill="none"/><path d="M91 1103l-25-4h-1l1 1 25 5 1-1-1-1z" fill="#02D2D6" fill-opacity=".1"/><path d="M50 1034l34 27h1v-1l-34-27h-2l1 1z" fill="#02D2D6" fill-opacity=".4"/><path d="M12 1092l54 8h1l-1-1-54-8h-1l1 1zM51 1033l-64-46-1 1v1l64 45h1v-1zM31 1196l-24 44 2 1 23-44v-1h-1z" fill="#02D2D6" fill-opacity=".1"/><path d="M115 752l-60-22-1 1v1l60 22 2-1-1-1z" fill="#02D2D6" fill-opacity=".3"/><path d="M107 1128l11 61 1 1 1-1-11-62h-1l-1 1z" fill="none"/><path d="M67 1100l19-39-1-1h-1l-19 39 1 1h1z" fill="#02D2D6" fill-opacity=".4"/><path d="M32 1196l-56-51h-1v1l56 51h1v-1z" fill="#02D2D6" fill-opacity=".2"/><path d="M-7 1013l-35-79h-1v1l34 79h1l1-1zM85 1060l-26-41h-1v1l26 41h1v-1z" fill="#02D2D6" fill-opacity=".1"/><path d="M-8 1014l58 21 1-1v-1l-59-21-1 1 1 1z" fill="#02D2D6" fill-opacity=".3"/><path d="M55 730l-55-4-1 1 1 1 55 4v-1-1z" fill="#02D2D6" fill-opacity=".4"/><path d="M-14 989l72 31h1v-1l-72-32-1 1v1z" fill="#02D2D6" fill-opacity=".1"/><path d="M32 1195l-73-12h-1v1l73 13h1v-2zM-13 989l52-4 1-1-1-1-52 4-1 1 1 1z" fill="#02D2D6" fill-opacity=".2"/><path d="M-7 1013l-24-78h-2v1l24 77 1 1 1-1z" fill="#02D2D6" fill-opacity=".1"/><path d="M-14 988l14 43h1l1-1-15-42-1-1v1z" fill="#02D2D6" fill-opacity=".4"/><path d="M49 1034l16 66h1l1-1-16-65-1-1-1 1z" fill="#02D2D6" fill-opacity=".3"/><path d="M-13 988l26-52v-2l-1 1-26 53v1l1-1z" fill="none"/><path d="M70 1191l-39 5 1 1 38-4 1-1-1-1z" fill="#02D2D6" fill-opacity=".5"/><path d="M54 731l-67 38v1l1 1 67-39v-1h-1z" fill="#02D2D6" fill-opacity=".1"/><path d="M0 852l12 83 1 1v-1L2 852l-1-1-1 1z" fill="none"/><path d="M51 1034l8-14v-1h-1l-9 14 1 2 1-1z" fill="#02D2D6" fill-opacity=".5"/><path d="M0 852l-10 60 1 1 1-1 10-60-1-1-1 1zM12 934h-55v1l55 1 1-1-1-1zM51 1034l-11-50-1-1-1 2 11 49 1 1 1-1z" fill="#02D2D6" fill-opacity=".2"/><path d="M50 1033l-49-3-1 1 1 1 49 3 1-1-1-1z" fill="#02D2D6" fill-opacity=".3"/><path d="M-8 1014l66 6h1v-1l-67-7-1 1 1 1z" fill="#02D2D6" fill-opacity=".2"/><path d="M-1 727l-12 42v2l1-1 13-43-1-1-1 1z" fill="#02D2D6" fill-opacity=".5"/><path d="M-7 1014l46-29v-1h-1l-46 28-1 2h2z" fill="#02D2D6" fill-opacity=".3"/><path d="M-9 1014l9 17h1l1-1-9-17-1-1-1 2z" fill="#02D2D6" fill-opacity=".5"/><path d="M3 1009l-16-21-1-1v2l16 22h1v-2z" fill="#02D2D6" fill-opacity=".2"/><path d="M67 1099l-8-80h-1v1l7 80h1l1-1z" fill="#02D2D6" fill-opacity=".1"/><path d="M12 934l-44 1-1 1 1 1 44-1 1-1-1-1z" fill="#02D2D6" fill-opacity=".4"/><path d="M106 775l10-22-1-1-1 1-10 21 1 2 1-1z" fill="#02D2D6" fill-opacity=".2"/><path d="M38 985l20 35h1v-1l-19-35h-2v1z" fill="#02D2D6" fill-opacity=".5"/><path d="M106 774l-51-43h-1v1l51 43h1v-1z" fill="#02D2D6" fill-opacity=".1"/><path d="M1 1031l58-11v-1h-1l-57 11-1 1h1z" fill="#02D2D6" fill-opacity=".3"/><path d="M70 1193l49-3 1-1-1-1-49 3-1 1 1 1zM-8 1014l11-3v-1l-1-1-10 3-1 1 1 1z" fill="#02D2D6" fill-opacity=".4"/><path d="M38 984l-38 46v1h2l37-46v-1h-1z" fill="#02D2D6" fill-opacity=".3"/><path d="M12 936l26 49h1v-1l-26-49-1-1v2z" fill="#02D2D6" fill-opacity=".4"/><path d="M-9 913l21 23h1v-1l-21-24h-1v2z" fill="#02D2D6" fill-opacity=".5"/><path d="M2 1011l56 9h1v-1l-56-10-2 1 1 1z" fill="#02D2D6" fill-opacity=".3"/><path d="M3 1011l36-26v-1h-1l-36 25v2h1z" fill="#02D2D6" fill-opacity=".5"/><path d="M1 1010l-1 21h2l1-21-1-1-1 1z" fill="#02D2D6" fill-opacity=".5"/><path d="M12 934l-48 9-1 1 1 1 49-9v-1l-1-1z" fill="#02D2D6" fill-opacity=".4"/><path d="M-9 1013l15 63 1 1 1-1-15-63-1-1-1 1z" fill="#02D2D6" fill-opacity=".1"/><path d="M160 1199l-41-11-1 1 1 1 40 11 1-1v-1zM93 857l-7 15 1 1h1l7-15v-1h-2zM31 924l-19 10v2h1l18-10 1-1-1-1z" fill="#02D2D6" fill-opacity=".5"/><path d="M-9 913l40 13 1-1-1-1-39-13-2 1 1 1z" fill="#02D2D6" fill-opacity=".5"/><path d="M47 837l40 36h1v-1l-40-37-1 1v1z" fill="#02D2D6" fill-opacity=".2"/><path d="M109 1121l-42-22h-2l1 1 42 23h1v-2z" fill="#02D2D6" fill-opacity=".1"/><path d="M85 850l1 22 1 1 1-1-1-22-1-1-1 1zM0 1031l6 45 1 1 1-1-6-46H1l-1 1z" fill="#02D2D6" fill-opacity=".4"/><path d="M104 775l-11 82 1 1h1l11-83-1-1-1 1z" fill="#02D2D6" fill-opacity=".1"/><path d="M31 924l-67 19a1 1 0 100 2l67-19 1-1-1-1z" fill="#02D2D6" fill-opacity=".2"/><path d="M87 871l-29 1-1 1 1 1 29-1 1-1-1-1zM12 935l-38 31v1h1l38-31v-1h-1z" fill="#02D2D6" fill-opacity=".3"/><path d="M88 873l12-8a1 1 0 10-1-1l-12 8-1 1h2z" fill="#02D2D6" fill-opacity=".3"/><path d="M105 774l-58 61v2h1l58-62v-1h-1z" fill="#02D2D6" fill-opacity=".1"/><path d="M34 906l-43 5-1 1 1 1 43-5 1-1-1-1z" fill="#02D2D6" fill-opacity=".2"/><path d="M47 837l47 21h1v-1l-47-22-1 1v1z" fill="#02D2D6" fill-opacity=".4"/><path d="M182 1167l-64 21v2h1l63-21 1-1-1-1z" fill="none"/><path d="M1 1010l5 66 1 1 1-1-5-66-1-1-1 1z" fill="#02D2D6" fill-opacity=".3"/><path d="M104 775l-19 74v2l2-1 19-75-1-1-1 1zM3 1010l-27-44h-2v1l28 44h1v-1z" fill="#02D2D6" fill-opacity=".2"/><path d="M85 850l9 8h1v-1l-9-8h-1v1z" fill="#02D2D6" fill-opacity=".5"/><path d="M112 1237l8-48-1-1-1 1-8 47 1 2 1-1zM181 1168l-22 31v2l1-1 23-31v-2l-2 1z" fill="#02D2D6" fill-opacity=".3"/><path d="M94 857l-37 16v1h1l37-16v-1h-1z" fill="#02D2D6" fill-opacity=".5"/><path d="M-6 1046l8-15-1-1H0l-8 15v1h2z" fill="none"/><path d="M6 900l-15 11v2h1l15-11 1-2H6z" fill="#02D2D6" fill-opacity=".1"/><path d="M104 775l-6 89 1 1 1-1 6-89-1-1-1 1z" fill="none"/><path d="M32 925l27-51-1-1h-1l-27 52 1 1 1-1z" fill="#02D2D6" fill-opacity=".3"/><path d="M47 837l38 14 2-1-1-1-38-14-1 1v1zM104 775l17 27h1v-1l-16-27h-1l-1 1z" fill="#02D2D6" fill-opacity=".5"/><path d="M15 935l-23-24h-1v2l23 24h1v-2z" fill="#02D2D6" fill-opacity=".1"/><path d="M94 858l4 7h2v-1l-5-7h-1v1z" fill="#02D2D6" fill-opacity=".5"/><path d="M30 924l-56 42v1h1l57-41v-2h-2z" fill="#02D2D6" fill-opacity=".3"/><path d="M47 836l10 38h1l1-1-11-37-1-1v1z" fill="#02D2D6" fill-opacity=".5"/><path d="M112 1237l48-36v-2h-1l-48 37v1h1z" fill="#02D2D6" fill-opacity=".2"/><path d="M33 907l-3 18 1 1 1-1 3-18-1-1-1 1z" fill="#02D2D6" fill-opacity=".5"/><path d="M47 837l52 28h1v-1l-52-29-1 1v1z" fill="#02D2D6" fill-opacity=".4"/><path d="M47 836l-14 71 1 1 1-1 13-71v-1l-1 1z" fill="#02D2D6" fill-opacity=".3"/><path d="M78 867l17-9v-1h-1l-17 8-1 2h2zM85 849l-28 24a1 1 0 101 1l28-24v-1h-1z" fill="#02D2D6" fill-opacity=".5"/><path d="M1 1010l1 6 1 1 1-1-1-6-1-1-1 1z" fill="#02D2D6" fill-opacity=".3"/><path d="M3 1015l-38-71-1-1-1 2 39 71 1 1v-2z" fill="#02D2D6" fill-opacity=".1"/><path d="M2 1010l-10 35 1 1 1-1 9-35v-1l-1 1z" fill="#02D2D6" fill-opacity=".3"/><path d="M85 850l13 15h2v-1l-14-15h-1v1z" fill="#02D2D6" fill-opacity=".5"/><path d="M35 908l51-58v-1h-1l-51 57v2h1z" fill="#02D2D6" fill-opacity=".2"/><path d="M47 837l29 30h2v-1l-30-31h-1v2z" fill="#02D2D6" fill-opacity=".5"/><path d="M86 850l36-48v-1h-1l-36 48v1h1z" fill="#02D2D6" fill-opacity=".4"/><path d="M99 863l-42 9v2h1l41-9 1-1-1-1z" fill="#02D2D6" fill-opacity=".5"/><path d="M6 902l24 24h2v-2L8 900H6v2z" fill="#02D2D6" fill-opacity=".3"/><path d="M35 907l23-33v-1h-1l-24 33 1 2 1-1z" fill="#02D2D6" fill-opacity=".5"/><path d="M15 937l17-11v-2h-2l-16 11a1 1 0 001 2z" fill="#02D2D6" fill-opacity=".4"/><path d="M47 836L6 900v2h2l40-65v-2l-1 1z" fill="#02D2D6" fill-opacity=".1"/><path d="M78 867l9-17-1-1h-1l-9 17 1 1h1z" fill="#02D2D6" fill-opacity=".5"/><path d="M108 1123l74 46h1v-2l-74-46-2 1 1 1z" fill="#02D2D6" fill-opacity=".1"/><path d="M77 865l-20 8v1h1l20-7v-1l-1-1z" fill="#02D2D6" fill-opacity=".5"/><path d="M112 1237l71-68v-2h-2l-70 69v1h1z" fill="none"/><path d="M7 902l51-28v-1h-1L6 900v1l1 1z" fill="#02D2D6" fill-opacity=".3"/><path d="M77 867l22-2 1-1-1-1-22 2-1 1 1 1z" fill="#02D2D6" fill-opacity=".5"/><path d="M35 908l43-41v-1h-2l-42 40v2h1z" fill="#02D2D6" fill-opacity=".4"/><path d="M6 901l-32 65v2l2-1 32-66-1-1-1 1z" fill="#02D2D6" fill-opacity=".1"/><path d="M78 867l44-65v-1h-1l-45 65 1 1h1zM15 937l43-63v-1h-1l-43 62v2h1zM2 1016l4 60 1 1 1-1-4-60-2-1v1z" fill="#02D2D6" fill-opacity=".2"/><path d="M-26 967l28 49 1 1v-2l-27-49a1 1 0 00-2 1zM-8 1046l14 30 1 1 1-1-14-31-2-1v2z" fill="#02D2D6" fill-opacity=".4"/><path d="M14 935l-40 31a1 1 0 101 1l40-30v-2h-1z" fill="#02D2D6" fill-opacity=".4"/><path d="M-6 1045l-18-79h-1l-1 1 18 78 1 1 1-1z" fill="#02D2D6" fill-opacity=".2"/><path d="M7 902l27 6 1-1v-1l-28-6-1 1 1 1z" fill="#02D2D6" fill-opacity=".5"/><path d="M33 906l-19 29v2h1l20-30v-1h-2z" fill="#02D2D6" fill-opacity=".5"/><path d="M111 1236l-23 16 3 1 21-16v-1h-1z" fill="#02D2D6" fill-opacity=".2"/><path d="M-50 825l56 77h1l1-2-57-76h-1v1z" fill="#02D2D6" fill-opacity=".1"/><path d="M7 902l71-35v-1l-1-1-71 35v1l1 1z" fill="#02D2D6" fill-opacity=".2"/><path d="M182 1167l-71 6-1 1 1 1 71-6 1-1-1-1z" fill="#02D2D6" fill-opacity=".1"/><path d="M107 1122l3 52 1 1 1-2-3-51-1-1-1 1zM6 901l8 35 1 1 1-1-8-35-1-1-1 1z" fill="#02D2D6" fill-opacity=".5"/><path d="M14 936l-12 80v1l2-1 12-80-1-1-1 1z" fill="#02D2D6" fill-opacity=".2"/><path d="M-6 1046l10-30-1-1-1 1-10 29v1h2z" fill="#02D2D6" fill-opacity=".5"/><path d="M112 1237v-63l-1-1-1 1v63l1 1 1-1z" fill="#02D2D6" fill-opacity=".1"/><path d="M181 1168l24 88h1l1-1-24-87-1-1-1 1z" fill="#02D2D6" fill-opacity=".2"/><path d="M111 1238l95 18h1l-1-2-94-18h-2l1 2z" fill="none"/><path d="M18 894l16 14h1v-2l-16-14h-1v2z" fill="#02D2D6" fill-opacity=".1"/><path d="M19 894l59-27v-1l-1-1-59 27v1l1 1z" fill="none"/><path d="M18 892l-12 8v2h1l12-8v-2h-1z" fill="#02D2D6" fill-opacity=".3"/><path d="M17 893l-3 43v1l1-1 5-43-1-1-2 1z" fill="#02D2D6" fill-opacity=".2"/><path d="M110 886l-91 6c-1 0-2 0-1 1l1 1 91-6 1-1-1-1z" fill="#02D2D6" fill-opacity=".1"/><path d="M9 1176l28-34v-1h-1l-29 34v1h2zM108 879l1 8 1 1 1-1-1-8-1-1-1 1z" fill="#02D2D6" fill-opacity=".4"/><path d="M110 878l-22-28h-2v2l22 27 2 1v-2z" fill="#02D2D6" fill-opacity=".4"/><path d="M108 878l-30 21v2h2l29-21 1-2h-2z" fill="#02D2D6" fill-opacity=".4"/><path d="M108 879l-5 43a1 1 0 003 1l4-44-1-1-1 1z" fill="#02D2D6" fill-opacity=".3"/><path d="M-17 955l97-54v-2h-2l-96 54v2h1z" fill="#02D2D6" fill-opacity=".1"/><path d="M86 851l-8 49 1 1 1-1 8-49-1-1-1 1z" fill="#02D2D6" fill-opacity=".5"/><path d="M86 851l17 72a1 1 0 003-1l-18-71a1 1 0 00-2 0z" fill="#02D2D6" fill-opacity=".4"/><path d="M105 922l-25-23h-2v2l26 22h1v-1z" fill="#02D2D6" fill-opacity=".5"/><path d="M88 851l19-71-1-2-2 1-18 72v1l2-1z" fill="#02D2D6" fill-opacity=".2"/><path d="M69 1078l-101 25-1 2c0 1 1 2 2 1l101-25 1-2-2-1z" fill="#02D2D6" fill-opacity=".4"/><path d="M316 529l-1 2-1-1 1-1h1zM209 827l-1 2-1-1v-2l2 1zM236 835l-1 2-1-1 1-2 1 1zM239 438v2l-2-1 1-1h1zM246 674l-1 1-1-1v-1l2 1zM218 671l-1 2-1-1 1-1h1zM188 602l-1 2-2-1 1-1h2zM214 524a1 1 0 10-1 3 1 1 0 001-3zM292 317l-1 2-1-1 1-1h1zM277 489l-1 2-1-1 1-1h1zM242 645l-1 2-2-1 1-2 2 1zM218 727l-1 1h-2l1-2 2 1zM198 794l-1 1-2-1 1-1 2 1zM182 712v1l-2-1 1-1 1 1zM178 771l-1 1h-1l1-2 1 1zM304 321l-1 1h-2l1-2 2 1zM222 664l-1 1-2-1 1-1 2 1zM220 638l-1 2-1-1 1-2 1 1zM226 732v1h-2l1-2 1 1zM297 418l-1 1h-2l1-2 2 1zM346 367l-1 2-1-1v-2l2 1zM233 691l-1 1h-1v-2l2 1zM286 720l-1 2-1-1v-2l2 1zM234 847l-1 2-2-1 1-2 2 1zM221 862l-1 2-2-1 1-2 2 1zM227 497v1h-2l1-2 1 1zM260 764v1h-2l1-2 1 1zM301 768v1l-2-1 1-1 1 1zM260 610l-1 1-1-1v-1l2 1zM346 493h-1l-1 2h1l1-2zM272 864l-1 1h-1c-1-1 0-2 1-2l1 1zM239 638a1 1 0 11-3 1 1 1 0 013-1zM166 677a1 1 0 11-3 1 1 1 0 013-1zM293 333a1 1 0 11-3 1l1-2 2 1zM303 383a1 1 0 11-2 1 1 1 0 012-1zM198 690a1 1 0 11-1-1l1 1zM303 327a1 1 0 11-2 0h2zM298 455l-1 1h-1v-2l2 1zM332 313l-1 1h-1l1-2 1 1zM275 499l-1 1h-2l1-2 2 1zM362 283l-1 2-2-1 1-2 2 1zM178 748l-1 2-2-1 1-2 2 1zM195 745l-1 2a1 1 0 11-1-3l2 1zM369 264l-1 2a1 1 0 111-2zM232 771v2a1 1 0 01-1-3l1 1zM246 591l-1 1a1 1 0 01-1-2c1-1 2 0 2 1zM248 528l-1 2-2-1 1-1h2zM246 712l-1 2a1 1 0 11-1-3l2 1zM212 629l-1 1c-1 1-2 0-2-1l1-1c1-1 1 0 2 1zM147 653l-1 1h-2l1-2 2 1zM133 606c1 1 0 2-1 2l-1-1c-1-1 0-2 1-2l1 1zM259 386l-1 2-2-1 1-2 2 1zM186 755v2l-2-1 1-2 1 1zM329 344l-1 1c-1 1-2 0-2-1l1-1c1-1 2 0 2 1zM376 252l-1 2-1-1v-2l2 1zM273 515c1 1 0 2-1 2l-1-1c-1-1 0-1 1-2l1 1zM184 586c1 1 0 1-1 2l-1-1v-2l2 1zM142 667l-1 2-2-1 1-2 2 1zM217 873l-1 2c-1 1-1 0-2-1l1-1h2z" fill="#02D2D6" fill-opacity=".5"/><path d="M212 629v2l-2-1 1-2 1 1zM340 334l-1 2c-1 1-2 0-2-1l1-1h2zM153 686l-1 1h-1c-1-1 0-2 1-2l1 1zM165 609l-1 2-2-1 1-1h2zM231 664l-1 2-2-1 1-2 2 1zM138 638c1 1 0 2-1 2a1 1 0 11-1-3l2 1zM263 545c1 1 0 2-1 2l-1-1c-1-1 0-2 1-2l1 1zM288 340l-1 2-2-1 1-2 2 1zM334 228l-1 2a1 1 0 11-1-3l2 1zM234 585l-1 1h-1v-2l2 1zM329 304c1 1 0 2-1 2l-1-1c-1-1 0-2 1-2l1 1zM237 416l-1 2-2-1 1-2 2 1zM226 670l-1 2-2-1 1-2 2 1zM210 606l-1 2-2-1 1-2 2 1zM316 531l-1 2-2-1 1-2 2 1zM379 182l-1 2-2-1 1-2 2 1zM298 418a1 1 0 11-2-1l2 1zM252 620l-1 2-2-1c-1-1 0-2 1-2l2 1zM228 722l-1 1h-2l1-2c1-1 2 0 2 1zM311 451l-1 2c-1 1-2 0-2-1l1-2 2 1zM271 510l-1 2-2-1 1-2 2 1zM293 337l-1 2-2-1c-1-1 0-2 1-2l2 1zM320 147l-1 2-2-1c-1-1 0-2 1-2l2 1zM254 577l-1 2-2-1 1-2 2 1zM258 457l-1 2-2-1 1-2 2 1zM275 320l-1 2-2-1 1-2 2 1zM218 814l-1 2-2-1 1-2 2 1zM155 691l-1 2c-1 1-2 0-2-1a2 2 0 013-1zM329 499l-1 2c-1 1-1 0-2-1l1-2 2 1zM341 229l-1 2-2-1 1-2 2 1zM155 626l-1 2-2-1 1-2 2 1zM336 327l-1 2-2-1 1-2 2 1zM294 451l-1 1c-1 1-2 0-2-1l1-2 2 2zM330 181a2 2 0 01-3 1 2 2 0 013-1zM238 300l-1 3-2-2 1-2 2 1zM279 198l-1 2-3-1 1-2 3 1zM187 749a2 2 0 11-3 1 2 2 0 013-1zM342 292a2 2 0 11-3 1 2 2 0 013-1zM378 217a2 2 0 11-3 1 2 2 0 113-1zM259 576l-2 3-2-2 1-2 3 1zM391 63l-1 2-2-1 1-3 2 2zM144 628l-1 3-2-1c-1-1 0-2 1-3l2 1zM361 74l-1 2-3-1 1-2c1-1 2 0 3 1zM340 175c1 1 0 2-1 2l-2-1 1-2 2 1zM198 655l-2 3-2-2 1-2 3 1zM262 554l-2 2-2-1 1-2c1-1 2 0 3 1zM288 324l-1 2c-1 1-2 0-2-1a2 2 0 013-1zM172 738l-1 2c-1 1-2 0-2-1-1-1 0-2 1-2l2 1zM299 162a2 2 0 11-3 1 2 2 0 113-1zM314 427l-1 3a2 2 0 111-3zM343 481l-1 2c-1 1-2 0-2-1-1-1 0-2 1-2l2 1zM185 663l-1 2-2-1 1-3 2 2zM246 684l-1 2c-1 1-2 0-3-1l1-2 3 1zM250 382l-1 2-2-1c-1-1 0-2 1-2 1-1 2 0 2 1zM269 219l-1 2c-1 1-2 0-3-1l1-2 3 1zM307 401a2 2 0 10-1 3 2 2 0 001-3z" fill="#02D2D6" fill-opacity=".5"/><path d="M342 232l-2 2-2-1 1-2c1-1 2 0 3 1zM333 480l-2 2-2-1 1-2c1-1 2 0 3 1zM234 316l-1 2a2 2 0 11-1-3l2 1zM364 79c1 1 0 2-1 2l-2-1 1-2c1-1 2 0 2 1zM242 396l-1 2c-1 1-2 0-3-1l2-2 2 1zM262 431l-2 2c-1 1-2 0-2-1l1-2 3 1zM299 385c1 1 0 2-1 2l-2-1 1-2c1-1 2 0 2 1zM213 543l-1 2c-1 1-2 0-2-1-1-1 0-2 1-2l2 1zM298 405l-1 3-3-1 2-3 2 1zM336 471c1 1 0 2-1 3l-2-2c-1-1 0-2 1-2l2 1zM195 641l-1 2a2 2 0 11-1-4l2 2zM341 103c1 1 0 2-1 2l-2-1 1-2c1-1 2 0 2 1zM206 558l-1 2c-1 1-2 0-3-1l2-2c1-1 2 0 2 1zM319 65l-1 2c-1 1-2 0-2-1-1-1 0-2 1-2 1-1 2 0 2 1zM269 490c1 1 0 2-1 3l-2-1c-1-1 0-3 1-3l2 1zM253 579l-1 3-3-2 2-2 2 1zM215 566l-2 2c-1 1-2 0-2-1l1-2c1-1 2 0 3 1zM243 542l-1 2c-1 1-3 0-3-1l1-2c1-1 2 0 3 1zM293 339c1 1 0 3-1 3l-2-1c-1-1 0-2 1-3l2 1zM326 449l-2 2-2-1 1-3 3 2zM201 551c1 1 0 2-1 2-1 1-2 0-2-1-1-1 0-2 1-2 1-1 2 0 2 1zM266 508l-1 3-3-1 2-3 2 1zM179 614l-1 2-3-1 1-3 3 2zM223 549c1 1 0 2-1 3l-2-2c-1-1 0-2 1-2 1-1 2 0 2 1zM298 400l-1 2-3-1 1-3c1 0 3 0 3 2zM308 370c0 1 0 2-2 3l-2-2 1-2 3 1zM284 78c1 1 0 2-1 3l-3-1c0-2 1-3 2-3 1-1 2 0 2 1zM191 529l-2 2c-1 1-2 0-2-1-1-1 0-2 1-3 1 0 2 0 3 2zM227 379c0 2 0 3-2 3-1 1-2 0-2-1-1-1 0-3 1-3l3 1zM329 79c0 1 0 2-2 2-1 1-2 0-3-1l2-3c1 0 2 0 3 2zM192 537l-1 2c-2 1-3 0-3-1-1-1 0-3 1-3s3 0 3 2zM318 461c1 1 0 3-1 3-2 0-3 0-3-2-1-1 0-2 1-3l3 2z" fill="#02D2D6" fill-opacity=".5"/><path d="M214 564c1 1 0 3-1 3-2 1-3 0-3-1-1-2 0-3 1-3 1-1 3 0 3 1zM222 515c0 2 0 3-2 3a2 2 0 112-3zM196 493c1 1 0 2-1 3l-3-2c-1-1 0-2 1-3 2 0 3 0 3 2zM196 635l-2 4-3-2c-1-1 0-3 1-3 2-1 3 0 4 1zM220 617c1 1 0 3-2 4l-3-2c-1-2 0-4 1-4 2-1 4 0 4 2zM233 335l-2 5a3 3 0 11-3-7c2-1 4 0 5 2zM333 310c1 2 0 4-2 5-2 0-4-1-5-3l3-4c2-1 4 0 4 2z" fill="#02D2D6" fill-opacity=".5"/><path d="M254 659l-10 15 1 1v-1l10-14v-1h-1z" fill="#02D2D6" fill-opacity=".3"/><path d="M217 672l38-12v-1l-38 12v1z" fill="#02D2D6" fill-opacity=".1"/><path d="M235 835l-27-8h-1l1 1 27 8h1l-1-1zM217 672l28 3v-1-1l-28-2v1z" fill="#02D2D6" fill-opacity=".5"/><path d="M245 674l-4-29h-1v1l4 28 1 1v-1z" fill="#02D2D6" fill-opacity=".4"/><path d="M218 672l23-26v-1h-1l-23 26v1h1z" fill="#02D2D6" fill-opacity=".3"/><path d="M182 712l36-40v-1h-1l-36 41h1z" fill="none"/><path d="M220 665l25 10v-1-1l-24-10-1 1v1z" fill="#02D2D6" fill-opacity=".3"/><path d="M218 672l3-8v-1l-1 1-3 7v1h1z" fill="#02D2D6" fill-opacity=".5"/><path d="M218 672l2-34h-1-1l-2 34h2z" fill="#02D2D6" fill-opacity=".3"/><path d="M303 321l-12-4h-1l1 1 11 4 1-1z" fill="#02D2D6" fill-opacity=".5"/><path d="M217 672l14 20h1v-1l-14-20h-1v1z" fill="#02D2D6" fill-opacity=".1"/><path d="M181 712l35 16h1v-1l-35-16-1 1z" fill="#02D2D6" fill-opacity=".4"/><path d="M177 772l40-44v-1h-1l-40 44 1 1z" fill="none"/><path d="M197 794l-20-23h-1l20 23h1z" fill="#02D2D6" fill-opacity=".5"/><path d="M178 771l4-59-1-1v1l-5 59 1 1 1-1z" fill="none"/><path d="M221 664l20-18v-1h-1l-20 19h1z" fill="#02D2D6" fill-opacity=".5"/><path d="M219 639l21 7h1v-1l-22-7h-1l1 1zM226 732l-9-5h-1v1l9 5 1-1z" fill="#02D2D6" fill-opacity=".5"/><path d="M181 712l44 21 1-1-44-21-1 1z" fill="#02D2D6" fill-opacity=".2"/><path d="M214 526l13-29h-1l-13 28v1h1z" fill="#02D2D6" fill-opacity=".1"/><path d="M221 664l-1-26h-1s-1 0 0 0l1 26 1 1v-1z" fill="#02D2D6" fill-opacity=".5"/><path d="M232 691l9-45v-1h-1l-9 46 1 1v-1z" fill="#02D2D6" fill-opacity=".1"/><path d="M217 728l15-37h-1l-15 36v1h1z" fill="#02D2D6" fill-opacity=".3"/><path d="M182 712l50-20v-1h-1l-50 20v1h1zM226 498l50-8h1l-1-1-50 8v1z" fill="none"/><path d="M220 664l11 27 1 1v-1l-11-27-1-1v1z" fill="#02D2D6" fill-opacity=".4"/><path d="M226 732l6-41h-1l-6 41v1l1-1z" fill="#02D2D6" fill-opacity=".3"/><path d="M225 733l34 32h1v-1l-34-32h-1v1z" fill="#02D2D6" fill-opacity=".1"/><path d="M220 863l13-15v-1h-1l-13 15v1h1z" fill="#02D2D6" fill-opacity=".5"/><path d="M260 765l25-44v-1h-1l-25 44v1h1z" fill="#02D2D6" fill-opacity=".2"/><path d="M237 638h-18-1l1 1h18l1-1h-1zM284 721l16 47v1l1-1-16-48-1 1zM301 383l-6 35v1l1-1 6-35h-1z" fill="#02D2D6" fill-opacity=".1"/><path d="M271 864l-38-17h-1v1l39 17 1-1h-1z" fill="#02D2D6" fill-opacity=".2"/><path d="M271 864l-51-2-1 1h1l51 2 1-1h-1z" fill="none"/><path d="M259 765l41 4 1-1-1-1-41-3v1zM346 491l-1 3v1l1-4z" fill="#02D2D6" fill-opacity=".3"/><path d="M197 691l35 1v-1l-35-1h-1l1 1z" fill="none"/><path d="M346 494h-1v1l1-1z" fill="#02D2D6" fill-opacity=".3"/><path d="M258 610l-21 28v1h1l21-29h-1z" fill="#02D2D6" fill-opacity=".4"/><path d="M346 494h-1v1l1-1z" fill="#02D2D6" fill-opacity=".1"/><path d="M302 383l-10-49-1-1v1l10 49 1 1v-1z" fill="#02D2D6" fill-opacity=".2"/><path d="M197 690l-32-13-1 1 33 13 1-1h-1z" fill="#02D2D6" fill-opacity=".4"/><path d="M301 327l-10 6v1h1l10-6-1-1z" fill="#02D2D6" fill-opacity=".5"/><path d="M302 383v-55l-1-1v56l1 1v-1z" fill="#02D2D6" fill-opacity=".2"/><path d="M292 334l39-20 1-1h-1l-40 20v1h1z" fill="#02D2D6" fill-opacity=".3"/><path d="M302 328l29-14 1-1h-1l-30 14v1h1z" fill="#02D2D6" fill-opacity=".5"/><path d="M259 610l-14-19-1-1v1l14 19 1 1v-1zM194 746l4-56h-1-1l-3 56h1z" fill="none"/><path d="M331 314l30-30v-1h-1l-29 30v1z" fill="#02D2D6" fill-opacity=".4"/><path d="M373 303l1-2-43 12h-1l1 1 42-11z" fill="none"/><path d="M376 288l-15-5h-1v1l15 6 1-2z" fill="#02D2D6" fill-opacity=".4"/><path d="M367 264l-37 49 1 1h1l36-49v-1h-1z" fill="#02D2D6" fill-opacity=".2"/><path d="M367 264l-7 19v1h1l7-19v-1h-1z" fill="#02D2D6" fill-opacity=".5"/><path d="M378 275l-10-11h-1v1l10 12 1-2z" fill="#02D2D6" fill-opacity=".4"/><path d="M193 745l-16 3-1 1h1l16-3h1l-1-1z" fill="#02D2D6" fill-opacity=".5"/><path d="M273 499l-27 29v1h1l27-29v-1h-1z" fill="#02D2D6" fill-opacity=".3"/><path d="M231 771l-54-23h-1v1l55 23h1l-1-1z" fill="#02D2D6" fill-opacity=".1"/><path d="M232 771l-38-26h-1v1l38 26h1v-1zM361 284l15-31-1-1h-1l-14 31v1h1z" fill="#02D2D6" fill-opacity=".3"/><path d="M273 499l-2 17h2l1-17h-1z" fill="#02D2D6" fill-opacity=".2"/><path d="M244 712l-51 33v1h1l51-33v-1h-1z" fill="none"/><path d="M380 261l-4-9h-1l-1 1 5 10 1-2z" fill="#02D2D6" fill-opacity=".2"/><path d="M246 529l-2 62 1 1v-1l2-62-1-1v1z" fill="#02D2D6" fill-opacity=".1"/><path d="M186 755l-9-7h-1v1l9 7h1v-1z" fill="#02D2D6" fill-opacity=".4"/><path d="M244 712l-13 59v1h1l13-59v-1h-1z" fill="#02D2D6" fill-opacity=".1"/><path d="M193 745l-8 10v1h1l8-10v-1h-1z" fill="#02D2D6" fill-opacity=".5"/><path d="M211 629l34-37v-1h-1l-34 38v1l1-1z" fill="#02D2D6" fill-opacity=".2"/><path d="M368 265l7-12v-1h-1l-7 12v1h1z" fill="#02D2D6" fill-opacity=".5"/><path d="M231 771l-46-16h-1l1 1 46 16h1l-1-1z" fill="#02D2D6" fill-opacity=".3"/><path d="M272 515l-26 13v1h1l25-13 1-1h-1z" fill="#02D2D6" fill-opacity=".5"/><path d="M183 587l62 5v-1-1l-62-4h-1l1 1z" fill="#02D2D6" fill-opacity=".1"/><path d="M212 630l33-39c1 0 1 0 0 0h-1l-33 38v1h1z" fill="#02D2D6" fill-opacity=".1"/><path d="M131 607l14 46v1l1-1-13-47h-1l-1 1z" fill="#02D2D6" fill-opacity=".3"/><path d="M252 710l-8 2v1h1l8-2v-1h-1z" fill="#02D2D6" fill-opacity=".5"/><path d="M182 587l28 42a1 1 0 101 0l-27-43h-1l-1 1z" fill="#02D2D6" fill-opacity=".3"/><path d="M145 653l-5 14 1 1v-1l5-14h-1c0-1 0 0 0 0zM210 630h2l-1-1v-1l-1 1v1z" fill="#02D2D6" fill-opacity=".5"/><path d="M368 264l-35-36h-1v1l35 36h1v-1z" fill="none"/><path d="M132 607l51-20 1-1h-1l-51 20-1 1h1z" fill="#02D2D6" fill-opacity=".2"/><path d="M145 653l6 33 1 1 1-1-7-33-1-1v1z" fill="#02D2D6" fill-opacity=".4"/><path d="M131 607l9 60 1 1 1-1-9-61h-1l-1 1z" fill="#02D2D6" fill-opacity=".1"/><path d="M369 334v-1l-31 1v1l1 1 30-2z" fill="none"/><path d="M210 628l-46-19-1 1v1l47 19 1-1-1-1z" fill="#02D2D6" fill-opacity=".3"/><path d="M246 529l15 17h1l1-1-16-17h-1v1z" fill="#02D2D6" fill-opacity=".2"/><path d="M146 653l18-43v-1l-1 1-18 43v1l1-1z" fill="#02D2D6" fill-opacity=".3"/><path d="M381 253l-6-1h-1l1 1 6 1v-1zM245 712l-15-47v-1l-1 1 15 48h1v-1z" fill="#02D2D6" fill-opacity=".2"/><path d="M210 629l19 36h1s1 0 0 0l-19-36-1-1v1z" fill="#02D2D6" fill-opacity=".3"/><path d="M132 607l32 4v-1-1l-32-3h-1l1 1z" fill="#02D2D6" fill-opacity=".4"/><path d="M338 334l-11 10 1 1 11-9v-1l-1-1z" fill="#02D2D6" fill-opacity=".5"/><path d="M233 586l12 6v-1-1l-12-6-1 1 1 1z" fill="#02D2D6" fill-opacity=".2"/><path d="M146 653l-9-15-1 1 9 14 1 1v-1z" fill="#02D2D6" fill-opacity=".5"/><path d="M182 587l29 43 1-1-28-43h-1l-1 1z" fill="#02D2D6" fill-opacity=".3"/><path d="M153 686l-12-19h-1v1l11 18 1 1 1-1z" fill="#02D2D6" fill-opacity=".5"/><path d="M131 607l5 32h1l1-1-5-32h-1l-1 1z" fill="#02D2D6" fill-opacity=".4"/><path d="M182 586l-19 23v1h1l19-23v-1h-1z" fill="#02D2D6" fill-opacity=".5"/><path d="M163 610l-23 57 1 1v-1l23-57v-1l-1 1z" fill="#02D2D6" fill-opacity=".1"/><path d="M163 611l48 19h1l-1-1-47-20-1 1v1z" fill="#02D2D6" fill-opacity=".3"/><path d="M224 671l20 42h1v-1l-20-42h-1v1z" fill="#02D2D6" fill-opacity=".1"/><path d="M286 340l-29 46v1h1l29-46v-1h-1z" fill="#02D2D6" fill-opacity=".2"/><path d="M230 665l-18-36h-1l-1 1 19 35h1s1 0 0 0z" fill="#02D2D6" fill-opacity=".4"/><path d="M142 667l-4-29h-1l-1 1 4 28 1 1 1-1z" fill="#02D2D6" fill-opacity=".5"/><path d="M271 515l-10 30 1 1h1l10-30-1-1h-1z" fill="#02D2D6" fill-opacity=".4"/><path d="M286 341l41 4 1-1-1-1-41-3h-1l1 1zM153 686l-15-48h-1l-1 1 15 47 1 1 1-1z" fill="#02D2D6" fill-opacity=".3"/><path d="M257 386l-22 30v1h1l22-30v-1h-1z" fill="#02D2D6" fill-opacity=".1"/><path d="M332 229l43 24v-1l-42-24-1 1z" fill="#02D2D6" fill-opacity=".3"/><path d="M163 609l-27 29v1h1l27-29v-1h-1zM327 304v41l1-1 1-40h-1-1z" fill="#02D2D6" fill-opacity=".4"/><path d="M338 334l-52 6-1 1h1l53-5v-1l-1-1zM208 607l2 22v1l1-1-2-22-1-1v1zM183 587l50-1 1-1-1-1-50 2h-1l1 1z" fill="#02D2D6" fill-opacity=".2"/><path d="M232 585l-22 44 1 1h1l22-45-1-1-1 1z" fill="#02D2D6" fill-opacity=".2"/><path d="M339 335l-10-31h-1l-1 1 11 30 1 1v-1z" fill="#02D2D6" fill-opacity=".5"/><path d="M225 670l-13-41h-1l-1 1 13 40 1 1 1-1zM381 253l-6-1h-1l1 1 6 1v-1zM182 587l26 20h1v-1l-26-20h-1v1z" fill="#02D2D6" fill-opacity=".2"/><path d="M208 607l2 23h1l1-1-3-22-1-1v1z" fill="#02D2D6" fill-opacity=".4"/><path d="M377 182l-3 70 1 1 1-1 2-70h-1z" fill="#02D2D6" fill-opacity=".1"/><path d="M225 671l5-6v-1h-1l-5 6v1h1z" fill="#02D2D6" fill-opacity=".5"/><path d="M233 586l30-40-1-1h-1l-29 40v1h1z" fill="#02D2D6" fill-opacity=".3"/><path d="M252 710l-26 11v1l1 1 26-12v-1h-1z" fill="#02D2D6" fill-opacity=".1"/><path d="M208 606l-44 3-1 1 1 1 44-4h1l-1-1z" fill="#02D2D6" fill-opacity=".2"/><path d="M208 607l21 58 1 1v-1l-21-59h-1v1zM269 511l2 5h1l1-1-3-4-1-1v1z" fill="#02D2D6" fill-opacity=".1"/><path d="M227 722l3-57v-1l-1 1-3 57v1l1-1z" fill="none"/><path d="M232 585l-24 21v1h1l24-21v-1h-1z" fill="#02D2D6" fill-opacity=".5"/><path d="M225 670l-16-64h-1v1l16 63v1l1-1z" fill="#02D2D6" fill-opacity=".1"/><path d="M377 182l-45 46v1h1l45-46v-1h-1z" fill="#02D2D6" fill-opacity=".2"/><path d="M269 511l-8 34 1 1h1l7-35-1-1v1z" fill="#02D2D6" fill-opacity=".3"/><path d="M235 417l62 2v-1l-62-2v1z" fill="#02D2D6" fill-opacity=".1"/><path d="M251 620l-18-35v-1l-1 1 17 36h1l1-1z" fill="#02D2D6" fill-opacity=".3"/><path d="M287 341l5-3v-1l-1-1-5 4v1h1z" fill="#02D2D6" fill-opacity=".4"/><path d="M225 671l26-50-1-1h-1l-25 50v1h1z" fill="#02D2D6" fill-opacity=".2"/><path d="M223 670l3 52 1 1v-1l-2-52h-1-1z" fill="#02D2D6" fill-opacity=".2"/><path d="M317 148l15 81 1 1v-1l-14-82h-1l-1 1z" fill="none"/><path d="M339 537l-24-6h-1l1 1 24 6v-1z" fill="#02D2D6" fill-opacity=".3"/><path d="M250 620l-42-14v1l42 14h1l-1-1z" fill="#02D2D6" fill-opacity=".4"/><path d="M273 321l13 20h1v-1l-13-20h-1v1z" fill="#02D2D6" fill-opacity=".2"/><path d="M233 586l19-8 1-1h-1l-19 7-1 1 1 1z" fill="#02D2D6" fill-opacity=".3"/><path d="M310 452l-13-34h-1v1l13 33 1 1v-1z" fill="#02D2D6" fill-opacity=".5"/><path d="M378 182l-59-35h-1v1l59 35h1v-1z" fill="#02D2D6" fill-opacity=".1"/><path d="M252 577l-44 29v1h1l44-29v-1h-1z" fill="#02D2D6" fill-opacity=".2"/><path d="M251 620l2-42-1-1-1 1-2 42 1 1 1-1z" fill="#02D2D6" fill-opacity=".4"/><path d="M257 458l40-39a1 1 0 00-1-1l-40 39v1h1z" fill="#02D2D6" fill-opacity=".1"/><path d="M315 532l13-32v-1l-1 1-13 31v1h1z" fill="#02D2D6" fill-opacity=".4"/><path d="M342 517l-14-18h-1v1l15 19v-2zM310 451l-53 6-1 1h1l53-5v-1-1z" fill="#02D2D6" fill-opacity=".2"/><path d="M351 454l1-2-42-1-1 1 1 1 41 1z" fill="none"/><path d="M270 511l-13-54h-1v1l13 53v1l1-1z" fill="#02D2D6" fill-opacity=".3"/><path d="M309 452l18 48 1 1v-1l-18-48-1-1v1z" fill="#02D2D6" fill-opacity=".1"/><path d="M273 321l18 17h1v-1l-18-17h-1v1z" fill="#02D2D6" fill-opacity=".5"/><path d="M350 467l-40-16-1 1v1l40 15 1-1z" fill="#02D2D6" fill-opacity=".1"/><path d="M310 451l-18-1v2l18 1v-1-1z" fill="#02D2D6" fill-opacity=".2"/><path d="M328 500l19-18 1-2-21 19v1h1zM291 338l44-10v-1l-44 9-1 1 1 1z" fill="#02D2D6" fill-opacity=".1"/><path d="M347 486v-2l-20 15v1h1l19-14z" fill="#02D2D6" fill-opacity=".4"/><path d="M153 626v66l1 1v-67h-1zM273 321l62 7v-1l-61-7h-1v1z" fill="#02D2D6" fill-opacity=".1"/><path d="M292 450l-35 7-1 1h1l36-6v-1l-1-1z" fill="#02D2D6" fill-opacity=".4"/><path d="M349 468l-56-18-1 1v1l57 17v-1z" fill="none"/><path d="M274 320l-37-20-1 1v1l37 19h1v-1z" fill="#02D2D6" fill-opacity=".2"/><path d="M342 521l-14-22h-1v1l14 23 1-2z" fill="#02D2D6" fill-opacity=".1"/><path d="M340 229l-10-48-1-1-1 1 11 49h1v-1z" fill="#02D2D6" fill-opacity=".4"/><path d="M340 229l-63-31h-1l1 1 62 31h1v-1z" fill="#02D2D6" fill-opacity=".1"/><path d="M277 199l52-17 1-1-1-1-52 18-1 1h1z" fill="#02D2D6" fill-opacity=".3"/><path d="M340 230l36-12 1-1-1-1-37 13v1h1z" fill="none"/><path d="M339 292l-5 35 1 1 6-36-1-1-1 1z" fill="#02D2D6" fill-opacity=".4"/><path d="M153 626l-11 2v1l1 1 11-3v-1h-1z" fill="#02D2D6" fill-opacity=".1"/><path d="M340 229l-1-54h-1l1 55h1v-1z" fill="none"/><path d="M338 175l-9 6-1 1h1l10-6v-1h-1z" fill="#02D2D6" fill-opacity=".2"/><path d="M338 175l-61 23-1 1h1l62-23v-1h-1z" fill="#02D2D6" fill-opacity=".1"/><path d="M375 217l-36 75 1 1 1-1 36-74-1-2-1 1z" fill="none"/><path d="M278 199l20-36v-1h-1l-21 36 1 1h1z" fill="#02D2D6" fill-opacity=".1"/><path d="M186 749l-15-11h-1v1l15 11h1v-1z" fill="#02D2D6" fill-opacity=".5"/><path d="M338 176l38 42h1v-1l-38-42h-1v1z" fill="#02D2D6" fill-opacity=".4"/><path d="M359 75l31-11 1-1-1-1-31 11-1 1 1 1zM258 577l3-23-1-1-1 1-3 23 1 1 1-1z" fill="#02D2D6" fill-opacity=".5"/><path d="M196 655l-53-27-1 1v1l54 27 1-1-1-1z" fill="#02D2D6" fill-opacity=".3"/><path d="M339 175l-41-14-2 1 1 1 41 13h1v-1z" fill="#02D2D6" fill-opacity=".4"/><path d="M341 292v-60h-2v60l1 1 1-1zM184 662l-41-34h-1v2l41 34h2l-1-2z" fill="#02D2D6" fill-opacity=".2"/><path d="M184 664l12-7 1-1-1-1-13 7v2h1z" fill="#02D2D6" fill-opacity=".5"/><path d="M376 216l-36 16-1 1h1l36-15 1-1-1-1z" fill="none"/><path d="M244 684l-48-29-1 1v1l49 28h1l-1-1z" fill="#02D2D6" fill-opacity=".2"/><path d="M183 663l-14 76h2l14-76-1-1-1 1z" fill="#02D2D6" fill-opacity=".1"/><path d="M311 428l29 54h2v-1l-29-53-1-1-1 1z" fill="#02D2D6" fill-opacity=".3"/><path d="M358 75l4 5h1l1-1-4-5-1-1-1 2z" fill="none"/><path d="M286 324l-54-8h-1l1 1 54 8h1l-1-1zM248 383l64 46 1-1v-1l-64-45h-1v1zM268 220l30-57v-1h-1l-31 57 1 1h1z" fill="#02D2D6" fill-opacity=".1"/><path d="M306 403l5 25 1 1 1-1-6-25-1-1v1z" fill="#02D2D6" fill-opacity=".5"/><path d="M184 664l60 22 1-1-1-1-60-22-1 1 1 1z" fill="#02D2D6" fill-opacity=".3"/><path d="M311 428l19 53h1l1-1-19-52-1-1-1 1z" fill="#02D2D6" fill-opacity=".2"/><path d="M306 403l34 79h2v-1l-35-79h-1v1z" fill="#02D2D6" fill-opacity=".1"/><path d="M341 481l-10-2-1 1 1 1 10 1h1l-1-1z" fill="#02D2D6" fill-opacity=".5"/><path d="M307 402l-58-21-1 1v1l58 21 1-1v-1z" fill="#02D2D6" fill-opacity=".3"/><path d="M312 427l-72-31h-1l1 1 72 32 1-1-1-1z" fill="#02D2D6" fill-opacity=".1"/><path d="M267 221l73 12h1l-1-1-73-13h-1l1 2zM312 427l-52 4-1 1 1 1 52-4 1-1-1-1z" fill="#02D2D6" fill-opacity=".2"/><path d="M306 403l24 78h1l1-1-25-77-1-1v1z" fill="#02D2D6" fill-opacity=".1"/><path d="M313 428l-14-43h-2v1l14 42 1 1 1-1z" fill="#02D2D6" fill-opacity=".4"/><path d="M249 382l-16-66h-1l-1 1 17 65a1 1 0 001 0z" fill="#02D2D6" fill-opacity=".3"/><path d="M248 382l-9 14 1 1h1l8-14v-2l-1 1z" fill="#02D2D6" fill-opacity=".5"/><path d="M248 382l11 50 1 1 1-2-12-49-1-1v1z" fill="#02D2D6" fill-opacity=".2"/><path d="M248 383l50 3 1-1h-1l-50-4-1 1 1 1z" fill="#02D2D6" fill-opacity=".3"/><path d="M307 402l-67-6h-1l1 1 66 7 1-1v-1z" fill="#02D2D6" fill-opacity=".2"/><path d="M306 402l-47 29v1h1l47-28v-2h-1z" fill="#02D2D6" fill-opacity=".3"/><path d="M307 402l-9-17h-1v1l9 17 1 1v-2z" fill="#02D2D6" fill-opacity=".5"/><path d="M295 407l16 21 2 1v-2l-16-22h-1l-1 2z" fill="#02D2D6" fill-opacity=".2"/><path d="M231 317l8 80h1l1-1-8-80h-1l-1 1z" fill="#02D2D6" fill-opacity=".1"/><path d="M298 163l42-59v-1h-1l-42 59v1h1z" fill="none"/><path d="M342 481l-7-10h-1v1l6 10h2v-1z" fill="#02D2D6" fill-opacity=".3"/><path d="M193 641l-10 22v1l2-1 9-21v-2l-1 1z" fill="#02D2D6" fill-opacity=".2"/><path d="M261 431l-20-35h-1l-1 1 20 35h1l1-1z" fill="#02D2D6" fill-opacity=".5"/><path d="M193 642l50 43h2v-1l-51-44-1 1v1z" fill="#02D2D6" fill-opacity=".1"/><path d="M297 385l-57 11-1 1h1l58-11 1-1h-2z" fill="#02D2D6" fill-opacity=".3"/><path d="M306 402l-10 3-1 1 1 1 11-3v-1l-1-1z" fill="#02D2D6" fill-opacity=".4"/><path d="M261 432l37-46v-1h-1l-38 46v1h2z" fill="#02D2D6" fill-opacity=".3"/><path d="M332 481l3-9v-1h-1l-4 9 1 1h1z" fill="#02D2D6" fill-opacity=".5"/><path d="M296 405l-56-9h-1l1 1 56 10 1-1-1-1z" fill="#02D2D6" fill-opacity=".3"/><path d="M296 405l-37 26v1h1l37-25v-2h-1z" fill="#02D2D6" fill-opacity=".5"/><path d="M297 406l2-21h-2l-2 21 1 1 1-1z" fill="#02D2D6" fill-opacity=".5"/><path d="M362 79l-23 24v1h1l23-24v-1h-1z" fill="#02D2D6" fill-opacity=".3"/><path d="M317 66l45 14h2l-1-1-45-14h-2l1 1z" fill="#02D2D6" fill-opacity=".3"/><path d="M307 403l-15-63-1-1v1l15 63 1 1v-1z" fill="#02D2D6" fill-opacity=".1"/><path d="M205 559l7-15v-1h-1l-8 15 1 1h1z" fill="#02D2D6" fill-opacity=".5"/><path d="M252 579l-40-36h-1v1l40 37 1-1v-1z" fill="#02D2D6" fill-opacity=".2"/><path d="M214 566l-2-22-1-1-1 1 2 22 1 1 1-1zM299 385l-7-45-1-1v1l6 46h1l1-1z" fill="#02D2D6" fill-opacity=".4"/><path d="M194 641l11-82-1-1h-1l-11 83 1 1 1-1z" fill="#02D2D6" fill-opacity=".1"/><path d="M211 545l30-1 1-1-1-1-30 1v1 1z" fill="#02D2D6" fill-opacity=".3"/><path d="M317 66l22 38h1v-1l-22-38h-1v1z" fill="#02D2D6" fill-opacity=".5"/><path d="M211 543l-12 8v1h1l12-8v-1h-1z" fill="#02D2D6" fill-opacity=".3"/><path d="M194 642l58-62v-1h-2l-57 62v1h1z" fill="#02D2D6" fill-opacity=".1"/><path d="M251 579l-46-21h-2l1 1 47 22 1-1-1-1z" fill="#02D2D6" fill-opacity=".4"/><path d="M297 406l-5-66-1-1v1l4 66 1 1 1-1z" fill="#02D2D6" fill-opacity=".3"/><path d="M194 641l20-74-1-2-1 1-20 75 1 1 1-1zM295 406l28 44h1l1-1-28-44h-1l-1 1z" fill="#02D2D6" fill-opacity=".2"/><path d="M323 450l11 22 1 1v-2l-10-22-2-1v2zM213 566l-8-8h-1v1l8 8h2l-1-1z" fill="#02D2D6" fill-opacity=".5"/><path d="M205 559l36-16 1-1h-1l-37 16-1 1h2z" fill="#02D2D6" fill-opacity=".5"/><path d="M305 370l-8 15v1h1l9-15-1-1h-1zM194 641l6-89v-1l-1 1-7 89 1 1 1-1z" fill="none"/><path d="M267 491l-27 51 1 1h1l26-52v-1l-1 1z" fill="#02D2D6" fill-opacity=".3"/><path d="M251 579l-38-14-1 1 1 1 38 14 1-1-1-1zM194 641l-16-27-1-1-1 2 17 27a1 1 0 001-1zM205 558l-5-7h-1v1l5 7h1v-1z" fill="#02D2D6" fill-opacity=".5"/><path d="M252 580l-10-38h-1l-1 1 10 37 1 1 1-1zM265 509l4-18-1-1-1 1-4 18 1 1 1-1z" fill="#02D2D6" fill-opacity=".5"/><path d="M252 579l-52-28h-1v1l52 29 1-1v-1z" fill="#02D2D6" fill-opacity=".4"/><path d="M252 580l13-71-1-1-1 1-13 71 1 1 1-1z" fill="#02D2D6" fill-opacity=".3"/><path d="M221 549l-17 9-1 1h2l17-8v-2h-1zM213 567l29-24v-1h-2l-28 24v1h1z" fill="#02D2D6" fill-opacity=".5"/><path d="M297 406v-6l-1-1-1 1v6l1 1 1-1z" fill="#02D2D6" fill-opacity=".3"/><path d="M295 401l39 71 1 1v-2l-38-71-1-1-1 2z" fill="#02D2D6" fill-opacity=".1"/><path d="M297 406l10-35-1-1-1 1-10 35 1 1 1-1z" fill="#02D2D6" fill-opacity=".3"/><path d="M214 566l-14-15h-1v1l13 15h2v-1z" fill="#02D2D6" fill-opacity=".5"/><path d="M264 508l-52 58v1h2l51-57v-2h-1z" fill="#02D2D6" fill-opacity=".2"/><path d="M252 579l-30-30h-1v1l29 30a1 1 0 002-1z" fill="#02D2D6" fill-opacity=".5"/><path d="M212 566l-36 48v1h2l36-48-1-1h-1z" fill="#02D2D6" fill-opacity=".4"/><path d="M200 553l41-10 1-1h-1l-42 9v1l1 1z" fill="#02D2D6" fill-opacity=".5"/><path d="M263 509l-23 33v1h2l23-33v-2l-2 1zM221 549l-9 17v1h2l8-17v-1h-1z" fill="#02D2D6" fill-opacity=".5"/><path d="M222 551l19-8 1-1h-1l-20 7-1 1 2 1z" fill="#02D2D6" fill-opacity=".5"/><path d="M221 549l-22 2v1l1 1 22-2v-1l-1-1z" fill="#02D2D6" fill-opacity=".5"/><path d="M264 508l-43 41v1h1l43-40v-2h-1z" fill="#02D2D6" fill-opacity=".4"/><path d="M221 549l-45 65 1 1h1l44-65v-1h-1zM297 400l-5-60-1-1v1l4 60 1 1 1-1z" fill="#02D2D6" fill-opacity=".2"/><path d="M325 449l-28-49-1-1-1 2 28 49h1l1-1zM307 370l-15-30-1-1v1l14 31 1 1 1-2z" fill="#02D2D6" fill-opacity=".4"/><path d="M305 371l18 78 1 1 1-1-18-78-1-1-1 1z" fill="#02D2D6" fill-opacity=".2"/><path d="M305 370l-10 30 1 1 1-1 10-29-1-1h-1z" fill="#02D2D6" fill-opacity=".5"/><path d="M282 80h45l1-1-1-1h-45l-1 1 1 1z" fill="#02D2D6" fill-opacity=".1"/><path d="M191 537l-1-8-2-1v1l1 8 1 1 1-1z" fill="#02D2D6" fill-opacity=".4"/><path d="M189 538l22 28h2v-2l-22-27-2-1v2z" fill="#02D2D6" fill-opacity=".4"/><path d="M190 538l30-21 1-2h-2l-30 21v2h1z" fill="#02D2D6" fill-opacity=".4"/><path d="M191 537l4-43a1 1 0 00-2-1l-4 44 1 1 1-1z" fill="#02D2D6" fill-opacity=".3"/><path d="M213 565l8-49-1-1-2 1-7 49 1 1 1-1z" fill="#02D2D6" fill-opacity=".5"/><path d="M213 565l-18-72a1 1 0 00-2 1l18 71 1 1 1-1z" fill="#02D2D6" fill-opacity=".4"/><path d="M193 494l26 23a1 1 0 101-2l-25-22h-2v1z" fill="#02D2D6" fill-opacity=".5"/><path d="M211 565l-19 71 1 1h2l18-72-1-1-1 1z" fill="#02D2D6" fill-opacity=".2"/></svg>