<svg fill="none" xmlns="http://www.w3.org/2000/svg" viewBox="0 0 980 220"><path d="M301 74h-1v2l1-1v-1zM40 127h-2l1 2 1-1v-1zM36 103l-1 1 1 1h1l-1-2zM368 149h-2l1 2 1-1v-1zM172 115h-1v2l2-1-1-1zM171 138l-2 1 1 1h1v-2zM224 172l-1 1v1l2-1-1-1zM293 160a1 1 0 11-2 0 1 1 0 012 0zM475 120h-2l1 2 1-1v-1zM329 111l-1 1 1 1h1l-1-2zM195 122h-1l1 2 1-1-1-1zM124 132h-1v2l2-1-1-1zM66 141h-1v1h2l-1-1zM133 163l-2 1 1 1h1v-2zM83 160h-1v1h1v-1zM473 110h-1v2l2-1-1-1zM178 136l-2 1 1 1h1v-2zM199 141h-2l1 1h1v-1zM121 124h-1v2l2-1-1-1zM391 104h-1l1 2 1-1-1-1zM440 69h-2l1 2 1-1v-1zM156 124h-1v2l2-1-1-1zM138 76h-1l1 2 1-1-1-1zM26 104h-1v2l2-1-1-1zM12 113h-1v2l1-1v-1zM317 152h-1v2l2-1-1-1zM99 92h-2l1 2 1-1v-1zM101 57l-2 1 1 1h1v-2zM227 111h-1v2l2-1-1-1zM335 54l-2 1v-1h2zM17 70h-2l1 2 1-1v-1zM201 125l-2 1a1 1 0 002 1v-2zM159 181a1 1 0 10-1 2h2l-1-2zM461 117a1 1 0 10-1 2h2l-1-2zM421 103a1 1 0 10-1 2 1 1 0 001-2zM153 153h-2a1 1 0 002 1v-1zM468 110h-2a1 1 0 002 1v-1zM361 98h-2l1 2 1-1v-1zM483 87h-1v2l2-1-1-1zM321 112l-1 1v1h2l-1-2zM512 66h-2l1 2 1-1v-1zM102 162l-2 1 1 1h1v-2zM106 149h-1a1 1 0 002 1l-1-1zM528 62l-1 1a1 1 0 002 1l-1-2zM89 114l-1 1a1 1 0 002 1l-1-2zM241 125h-1a1 1 0 002 1l-1-1zM293 131l-1 1v1h2l-1-2zM140 110l-1 1a1 1 0 101-1zM206 149l-2 1v1h2v-2zM178 200l-2 1v1h2v-2zM215 217h-2l1 2h1v-2zM413 139h-1v2l2-1-1-1zM97 155h-1v2l2-1-1-1zM457 86l-1 1v1h2l-1-2zM539 58h-1v2l2-1-1-1zM308 111l-2 1v1h2v-2zM238 177h-2l1 2h1v-2zM165 202l-1 1v1h2l-1-2zM2 115H1v2l2-1-1-1z" fill="#02D2D6" fill-opacity=".5"/><path d="M205 148l-1 1v1h2l-1-2zM466 78h-1v2l2-1-1-1zM151 191h-2l1 2 1-1v-1zM216 190l-2 1 1 1h1v-2zM178 128l-2 1a1 1 0 103 1l-1-2zM189 209l-2 1a1 1 0 102 1v-2zM281 116l-1 1a1 1 0 102 1l-1-2zM455 121h-1a1 1 0 102 1l-1-1zM554 96h-2a1 1 0 102 1v-1zM245 135l-2 1a1 1 0 102-1zM490 90l-1 1v1h2l-1-2zM386 154h-2l1 2h1v-2zM173 132l-2 1 1 1h1v-2zM224 153l-2 1 1 2 2-1-1-2zM300 74h-2v2l2-1v-1zM598 64l-2 1 1 1h2l-1-2zM392 103a1 1 0 100 1v-1zM218 117h-2l1 2 1-1v-1zM130 124l-2 1 1 1h2l-1-2zM365 88h-1v2l2-1-1-1zM311 114l-1 1v1h2l-1-2zM459 117l-2 1 1 1h1v-2zM620 118h-2l1 2 2-1-1-1zM253 120l-1 1v1h2l-1-2zM354 131l-2 1 1 1h2l-1-2zM470 134h-1v2l2-1-1-1zM52 121l-2 1 1 1h1v-2zM146 189h-1v2a1 1 0 001-2zM327 67h-1v2l2-1-1-1zM554 90h-2l1 2 2-1-1-1zM201 196l-2 1 1 2 2-1-1-2zM472 82h-2l1 2h2l-1-2zM364 102l-2 1 1 1h2l-1-2zM593 104a1 1 0 10-1 3 1 1 0 001-3zM482 167l-2 1 1 1h2l-1-2zM573 146h-2v2l2-1v-1zM102 155a1 1 0 10-1 2 1 1 0 001-2zM502 82a1 1 0 10-1 2 1 1 0 001-2zM569 61a1 1 0 10-1 2 1 1 0 101-2zM255 116l-2 1v2l2-1v-2zM699 68l-2 1 1 1h2l-1-2zM197 205l-2 1 1 2 2-1-1-2zM686 92l-2 1 1 2 2-1-1-2zM599 97l-2 1 1 2 2-1-1-2zM181 157l-1 1v2l2-1-1-2zM274 116a1 1 0 00-1 3l2-1-1-2zM469 122l-2 1v2a1 1 0 002-3zM109 169h-1v2h2l-1-2zM605 133l-2 1a1 1 0 102-1zM386 88l-2 1a1 1 0 102-1zM344 58h-2l1 2h2l-1-2zM174 167h-2l1 2h2l-1-2zM163 114h-2l1 2h2l-1-2zM416 147l-2 1 1 2 2-1-1-2zM554 151l-2 1v2l2-1v-2zM407 97a2 2 0 11-3 1 2 2 0 013-1z" fill="#02D2D6" fill-opacity=".5"/><path d="M552 89l-2 1 1 2 2-1-1-2zM344 66l-2 1 1 2 2-1-1-2zM469 168l-2 1a2 2 0 102 1v-2zM682 88l-2 1 1 2h2l-1-3zM403 152l-2 1 1 2 2-1-1-2zM376 131l-2 1 1 2 2-1-1-2zM419 105l-2 1 1 2h2l-1-3zM277 158l-2 1c-1 1 0 1 1 2l2-1-1-2zM402 104l-2 1 1 2 2-1-1-2zM352 64l-2 1v2l3-1-1-2zM193 161l-2 1a2 2 0 103 1l-1-2zM659 105h-2l1 3 2-1c1-1 0-2-1-2zM264 162a2 2 0 00-2 3l2-1v-2zM688 128l-2 1 1 2 2-1-1-2zM328 118a2 2 0 00-2 2h2v-2zM252 121h-2v2h2v-2zM258 154l-2 1 1 2 2-1-1-2zM282 134h-3l1 2h2v-2zM456 116l-2 1 1 2 2-1c1-1 0-2-1-2zM369 76l-2 1 1 2 2-1-1-2zM269 167l-2 1v2l3-1-1-2zM312 118l-2 1 1 2 2-1-1-2zM214 178a2 2 0 00-1 3l2-1-1-2zM273 149l-2 1 1 2 2-1-1-2zM407 105l-2 1v2l3-1-1-2zM433 100l-3 1 1 2h2v-3zM673 155l-2 1v3l3-1-1-3zM286 179h-2a2 2 0 103 2c1-1 0-2-1-2zM415 167c-1-1-2 0-2 1v2l3-1-1-2zM678 118l-3 1 1 3 3-1-1-3zM280 177h-3l1 3 3-1-1-2zM358 81c-1-1-2 0-3 1l1 2c1 1 3 0 3-1 1-1 0-2-1-2z" fill="#02D2D6" fill-opacity=".5"/><path d="M259 155l-2 1c-1 1 0 2 1 2 1 1 2 0 2-1 1-1 1-2-1-2zM301 154l-3 1a2 2 0 103-1zM317 178l-3 1 1 3a2 2 0 002-4zM198 161l-3 1c-1 1 0 3 1 3 1 1 2 0 3-1l-1-3zM216 143l-3 1c-1 2 0 3 1 4l4-1c0-2 0-3-2-4zM453 167c-2-1-4 0-4 1a3 3 0 105 3c1-1 0-3-1-4zM486 86c-2 0-4 0-4 2-1 1 0 3 1 4 1 0 3 0 4-2 1-1 0-3-1-4z" fill="#02D2D6" fill-opacity=".5"/><path d="M185 110l-13 6h-1l1-1 13-6h1l-1 1z" fill="#02D2D6" fill-opacity=".3"/><path d="M170 139l15-30h1l-15 30-1 1v-1z" fill="#02D2D6" fill-opacity=".1"/><path d="M36 104l4 24h-1l-3-24c-1 0 0 0 0 0zM170 139l1-23 1-1v1l-1 23-1 1v-1z" fill="#02D2D6" fill-opacity=".5"/><path d="M172 115l23 7 1 1h-1l-23-7h-1l1-1z" fill="#02D2D6" fill-opacity=".4"/><path d="M170 139l25-17v1c1 0 1 0 0 0l-25 17v-1z" fill="#02D2D6" fill-opacity=".3"/><path d="M132 164l38-25h1l-1 1-37 24h-1z" fill="none"/><path d="M177 137l-6-21 1-1v1l6 21-1 1v-1z" fill="#02D2D6" fill-opacity=".3"/><path d="M170 139l7-2h1l-1 1-7 2v-1z" fill="#02D2D6" fill-opacity=".5"/><path d="M170 139l28 2 1 1h-1l-28-2v-1z" fill="#02D2D6" fill-opacity=".3"/><path d="M473 111l2 10h-1l-2-10 1-1v1z" fill="#02D2D6" fill-opacity=".5"/><path d="M170 139l-15-14v-1h1l15 15h-1z" fill="#02D2D6" fill-opacity=".1"/><path d="M132 164l-9-31 1-1v1l9 31v1l-1-1z" fill="#02D2D6" fill-opacity=".4"/><path d="M82 160l42-28v1l-41 28h-1v-1z" fill="none"/><path d="M66 141l17 19v1h-1l-16-19v-1z" fill="#02D2D6" fill-opacity=".5"/><path d="M83 160l49 4h1l-1 1-50-4 1-1z" fill="none"/><path d="M177 137l18-15v1c1 0 1 0 0 0l-18 15v-1z" fill="#02D2D6" fill-opacity=".5"/><path d="M198 142l-3-19v-1l1 1 3 18-1 1zM121 125l3 8h-1l-3-8 1-1v1z" fill="#02D2D6" fill-opacity=".5"/><path d="M132 164l-12-39 1-1v1l12 39v1l-1-1z" fill="#02D2D6" fill-opacity=".2"/><path d="M291 159l26-7v1l-25 7h-1v-1z" fill="#02D2D6" fill-opacity=".1"/><path d="M177 137l21 4 1 1h-1l-21-4v-1z" fill="#02D2D6" fill-opacity=".5"/><path d="M156 124l39-2 1 1h-1l-39 2h-1l1-1z" fill="#02D2D6" fill-opacity=".1"/><path d="M124 132l32-8v1l-32 8h-1l1-1z" fill="#02D2D6" fill-opacity=".3"/><path d="M132 164l23-40h1v1l-23 39-1 1v-1zM316 153l12-41h1s1 0 0 0l-12 41h-1z" fill="none"/><path d="M177 138l-21-13-1-1h1l21 13h1l-1 1z" fill="#02D2D6" fill-opacity=".4"/><path d="M121 124h35v1h-35-1l1-1z" fill="#02D2D6" fill-opacity=".3"/><path d="M120 125L98 93v-1h1l22 33h-1z" fill="#02D2D6" fill-opacity=".1"/><path d="M11 113l14-9h1v1l-14 9h-1v-1z" fill="#02D2D6" fill-opacity=".5"/><path d="M98 92l40-16v1c1 0 0 0 0 0L98 93v-1z" fill="#02D2D6" fill-opacity=".2"/><path d="M201 126l-2 16h-1v-1l2-15h1zM138 77l-38-18v-1l38 18v1zM421 104l-30 1h-1l1-1 30-1v1z" fill="#02D2D6" fill-opacity=".1"/><path d="M17 71l9 34h-1l-9-34v-1l1 1z" fill="#02D2D6" fill-opacity=".2"/><path d="M17 71l-5 43h-1l5-43v-1l1 1z" fill="none"/><path d="M98 93l2-35h1l-2 35h-1zM336 54h-2-1 3z" fill="#02D2D6" fill-opacity=".3"/><path d="M152 154l3-29 1-1v1l-3 29h-1z" fill="none"/><path d="M334 54h-1 1z" fill="#02D2D6" fill-opacity=".3"/><path d="M227 112l-26 15-1-1 26-15 1 1z" fill="#02D2D6" fill-opacity=".4"/><path d="M334 54h-1 1z" fill="#02D2D6" fill-opacity=".1"/><path d="M421 103l40 15 1 1h-1l-40-15-1-1h1z" fill="#02D2D6" fill-opacity=".2"/><path d="M153 154l6 28v1l-1-1-6-28v-1l1 1z" fill="#02D2D6" fill-opacity=".4"/><path d="M467 111l-6 8v-1l6-8v1z" fill="#02D2D6" fill-opacity=".5"/><path d="M421 103l46 7 1 1h-1l-46-7h-1l1-1z" fill="#02D2D6" fill-opacity=".2"/><path d="M461 118l21-30 1-1v1l-22 31v-1z" fill="#02D2D6" fill-opacity=".3"/><path d="M467 110l15-22 1-1v1l-15 23h-1v-1z" fill="#02D2D6" fill-opacity=".5"/><path d="M227 112l14 13v1h-1l-14-14h1zM106 149l46 4 1 1h-1l-46-3-1-1 1-1z" fill="none"/><path d="M483 87l28-21 1 1h-1l-28 21h-1l1-1z" fill="#02D2D6" fill-opacity=".4"/><path d="M497 54h1l-15 34h-1l15-34z" fill="none"/><path d="M509 54l3 13h-1l-3-13h1z" fill="#02D2D6" fill-opacity=".4"/><path d="M528 64l-45 24h-1l1-1 44-24h1v1z" fill="#02D2D6" fill-opacity=".2"/><path d="M528 64l-17 3c0 1 0 0 0 0v-1l17-3v1z" fill="#02D2D6" fill-opacity=".5"/><path d="M520 54l8 9v1h-1l-8-10h1z" fill="#02D2D6" fill-opacity=".4"/><path d="M106 150l-4 14h-1v-1l4-13 1-1v1z" fill="#02D2D6" fill-opacity=".5"/><path d="M321 114l-28 19-1-1h1l28-19c0-1 0 0 0 0v1z" fill="#02D2D6" fill-opacity=".3"/><path d="M89 115l13 48v1h-1l-13-49h1z" fill="#02D2D6" fill-opacity=".1"/><path d="M89 115l17 35h-1l-17-34 1-1zM511 66l28-8v1c1 0 0 0 0 0l-28 8c0 1 0 0 0 0v-1z" fill="#02D2D6" fill-opacity=".3"/><path d="M321 114l-14-1-1-1h1l14 1v1z" fill="#02D2D6" fill-opacity=".2"/><path d="M140 112l-34 38h-1l34-39h1v1z" fill="none"/><path d="M533 54l6 4v1l-8-5h2z" fill="#02D2D6" fill-opacity=".2"/><path d="M293 133l-52-7h-1l1-1 52 7v1z" fill="#02D2D6" fill-opacity=".1"/><path d="M97 155l5 8v1h-1l-5-8v-1h1z" fill="#02D2D6" fill-opacity=".4"/><path d="M140 112l-51 4-1-1h1l51-4v1z" fill="#02D2D6" fill-opacity=".1"/><path d="M106 150l-9 6h-1v-1l9-6 1 1z" fill="#02D2D6" fill-opacity=".5"/><path d="M205 150l36-25v1c1 0 0 0 0 0l-36 25v-1c-1 0-1 0 0 0z" fill="#02D2D6" fill-opacity=".2"/><path d="M528 63l11-5v1l-11 5h-1l1-1z" fill="#02D2D6" fill-opacity=".5"/><path d="M89 115l8 41h-1l-8-41h1z" fill="#02D2D6" fill-opacity=".3"/><path d="M308 113l-15 19v1l-1-1 15-20 1 1z" fill="#02D2D6" fill-opacity=".5"/><path d="M237 178l3-52 1-1v1l-3 52-1 1v-1z" fill="#02D2D6" fill-opacity=".1"/><path d="M204 149l37-24v1c1 0 0 0 0 0l-36 24h-1v-1z" fill="#02D2D6" fill-opacity=".1"/><path d="M214 219l-37-17-1-1h1l37 16 1 1-1 1z" fill="#02D2D6" fill-opacity=".3"/><path d="M143 105l-3 7h-1v-1l3-6 1-1v1z" fill="#02D2D6" fill-opacity=".5"/><path d="M237 178l-32-28c-1 0-1 0 0 0 0-1 0-1 0 0l33 28h-1z" fill="#02D2D6" fill-opacity=".3"/><path d="M177 202l-12 2-1-1h1l12-2h1l-1 1zM204 150v-1h1l1 1-1 1-1-1z" fill="#02D2D6" fill-opacity=".5"/><path d="M528 63l26 33v1h-1l-26-33v-1h1z" fill="none"/><path d="M214 218l23-40 1-1v1l-23 40-1 1v-1z" fill="#02D2D6" fill-opacity=".2"/><path d="M177 202l-27-10v-1h1l26 10 1 1h-1z" fill="#02D2D6" fill-opacity=".4"/><path d="M214 219l-49-15-1-1h1l49 14 1 1-1 1z" fill="#02D2D6" fill-opacity=".1"/><path d="M470 54h1l-5 25v1l-1-1 5-25z" fill="none"/><path d="M206 150l10 41-1 1v-1l-11-41 1-1 1 1z" fill="#02D2D6" fill-opacity=".3"/><path d="M292 132l-12-15h1l12 15v1l-1-1z" fill="#02D2D6" fill-opacity=".2"/><path d="M177 201l38-10h1l-1 1-38 10-1-1h1z" fill="#02D2D6" fill-opacity=".3"/><path d="M539 54l1 5h-1-1v-5h1zM140 111l38 18v1h-1l-38-18v-1h1z" fill="#02D2D6" fill-opacity=".2"/><path d="M205 151l-28-21v-1h1l27 21c1 0 1 0 0 0v1z" fill="#02D2D6" fill-opacity=".3"/><path d="M214 218l1-27h1l-1 27-1 1v-1z" fill="#02D2D6" fill-opacity=".4"/><path d="M466 79l-9 8h-1l9-8h1z" fill="#02D2D6" fill-opacity=".5"/><path d="M244 137l-4-11 1-1v1l4 10v1h-1z" fill="#02D2D6" fill-opacity=".2"/><path d="M177 201l12 9-1 1-11-9v-1z" fill="#02D2D6" fill-opacity=".5"/><path d="M237 178l-33-28v-1h1l33 29h-1z" fill="#02D2D6" fill-opacity=".3"/><path d="M151 191l14 12v1h-1l-14-12v-1h1z" fill="#02D2D6" fill-opacity=".5"/><path d="M214 219l-26-8v-1s0-1 0 0l26 7 1 1-1 1z" fill="#02D2D6" fill-opacity=".4"/><path d="M238 179l-22 13h-1v-1l22-14 1 1v1z" fill="#02D2D6" fill-opacity=".5"/><path d="M215 192l-50 12-1-1h1l50-12h1l-1 1z" fill="#02D2D6" fill-opacity=".1"/><path d="M215 191l-11-42h1l11 42-1 1v-1z" fill="#02D2D6" fill-opacity=".3"/><path d="M172 134l-33-22v-1h1l33 22v1h-1z" fill="#02D2D6" fill-opacity=".1"/><path d="M455 122l-42 18h-1v-1l42-18 1 1z" fill="#02D2D6" fill-opacity=".2"/><path d="M178 129l27 20v1h-1l-27-20v-1h1z" fill="#02D2D6" fill-opacity=".4"/><path d="M165 203l23 6 1 1-1 1-23-7-1-1h1z" fill="#02D2D6" fill-opacity=".5"/><path d="M307 113l-26 5-1-1 1-1 26-4h1l-1 1z" fill="#02D2D6" fill-opacity=".4"/><path d="M454 122l2-35 1-1v1l-2 35v1l-1-1zM151 191l37 19h1l-1 1-38-19v-1h1z" fill="#02D2D6" fill-opacity=".3"/><path d="M413 140l-28 16v-2l27-15 1 1z" fill="#02D2D6" fill-opacity=".1"/><path d="M553 97l-15-38 1-1 15 39h-1z" fill="#02D2D6" fill-opacity=".3"/><path d="M216 192l-27 19-1-1 27-19h1v1zM490 92l-33-4-1-1 1-1 33 5v1z" fill="#02D2D6" fill-opacity=".4"/><path d="M466 79l-11 43s0 1 0 0h-1l11-43 1-1v1zM223 155l-18-4-1-1 1-1 19 5v1h-1zM237 178l7-42 1 1-7 41-1 1v-1z" fill="#02D2D6" fill-opacity=".2"/><path d="M245 137l-40 13-1-1h1l39-13h1v1z" fill="#02D2D6" fill-opacity=".2"/><path d="M466 78l24 13v1l-25-13 1-1z" fill="#02D2D6" fill-opacity=".5"/><path d="M173 133l32 16v1l-33-16v-1h1zM539 54l1 5h-1-1v-5h1zM237 178l-14-23v-1h1l14 24v1l-1-1z" fill="#02D2D6" fill-opacity=".2"/><path d="M223 155l-18-5-1-1h1l19 5v1h-1z" fill="#02D2D6" fill-opacity=".4"/><path d="M597 66l-58-7h-1l1-1 59 6v1l-1 1z" fill="#02D2D6" fill-opacity=".1"/><path d="M172 133l5-4h1v1l-5 4h-1v-1z" fill="#02D2D6" fill-opacity=".5"/><path d="M244 136l37-19c0-1 0 0 0 0v1l-36 19h-1v-1z" fill="#02D2D6" fill-opacity=".3"/><path d="M143 105l-13 20-1 1v-1l13-21h1v1z" fill="#02D2D6" fill-opacity=".1"/><path d="M224 155l-8 36-1 1v-1l8-37h1v1z" fill="#02D2D6" fill-opacity=".2"/><path d="M223 155l-46-25v-1h1l46 25v1h-1zM310 116l-3-3v-1l4 3v1h-1z" fill="#02D2D6" fill-opacity=".1"/><path d="M129 125l49 4v1h-1l-48-4v-1z" fill="none"/><path d="M245 137l-21 18h-1v-1l21-18h1v1z" fill="#02D2D6" fill-opacity=".5"/><path d="M173 133l51 21v1h-1l-51-21v-1h1z" fill="#02D2D6" fill-opacity=".1"/><path d="M598 66l-44 31h-1v-1l44-31h1v1z" fill="#02D2D6" fill-opacity=".2"/><path d="M311 116l-30 2-1-1 1-1 30-1v1z" fill="#02D2D6" fill-opacity=".3"/><path d="M385 155l5-51 1-1 1 1-6 51-1 1v-1z" fill="#02D2D6" fill-opacity=".1"/><path d="M217 117l28 19v1h-1l-27-19v-1z" fill="#02D2D6" fill-opacity=".3"/><path d="M454 121l4-3h1v1l-4 3h-1v-1z" fill="#02D2D6" fill-opacity=".4"/><path d="M172 133l45-16 1 1h-1l-44 16h-1v-1z" fill="#02D2D6" fill-opacity=".2"/><path d="M172 134l-43-8v-1h1l42 8 1 1h-1z" fill="#02D2D6" fill-opacity=".2"/><path d="M619 119l-66-22 1-1 66 22v1h-1z" fill="none"/><path d="M298 54l2 21h-1-1l-2-21h2z" fill="#02D2D6" fill-opacity=".3"/><path d="M218 118l6 36v1h-1l-7-37 1-1 1 1z" fill="#02D2D6" fill-opacity=".4"/><path d="M469 135l-15-13v-1h1l15 13v1h-1z" fill="#02D2D6" fill-opacity=".2"/><path d="M244 136l8-15h1v1l-8 15h-1v-1z" fill="#02D2D6" fill-opacity=".3"/><path d="M365 88l26 15v1l-27-15v-1h1z" fill="#02D2D6" fill-opacity=".5"/><path d="M598 65l22 54h-1l-22-54h1z" fill="#02D2D6" fill-opacity=".1"/><path d="M253 122l-29 33h-1v-1l29-33h1v1z" fill="#02D2D6" fill-opacity=".2"/><path d="M217 117l36 4s1 0 0 0v1l-36-4h-1l1-1z" fill="#02D2D6" fill-opacity=".4"/><path d="M353 132l38-29a1 1 0 110 1l-37 29h-1v-1z" fill="#02D2D6" fill-opacity=".1"/><path d="M299 74l28-7 1 1h-1l-28 7h-1l1-1z" fill="#02D2D6" fill-opacity=".4"/><path d="M314 54l13 13v1h-1l-13-14h1zM365 89l-11 43-1 1v-1l11-43 1-1v1z" fill="#02D2D6" fill-opacity=".2"/><path d="M368 54h1l-4 35h-1l4-35z" fill="none"/><path d="M311 115l43 17-1 1-43-17v-1h1z" fill="#02D2D6" fill-opacity=".3"/><path d="M364 89l-37-21h-1l1-1 38 21v1h-1z" fill="#02D2D6" fill-opacity=".1"/><path d="M469 135l-11-16v-1h1l11 17c1 0 0 0 0 0h-1z" fill="#02D2D6" fill-opacity=".5"/><path d="M357 54l8 35h-1l-8-35h1z" fill="#02D2D6" fill-opacity=".1"/><path d="M365 89l-1 14-1 1v-1l1-14 1-1v1z" fill="#02D2D6" fill-opacity=".2"/><path d="M327 67l17-13h2l-19 14h-1l1-1zM458 118l13-35 1-1v1l-13 35-1 1v-1z" fill="#02D2D6" fill-opacity=".1"/><path d="M341 54h2l-16 14h-1v-1l15-13z" fill="#02D2D6" fill-opacity=".4"/><path d="M200 198l-54-8h-1l1-1 54 8 1 1h-1zM469 135l2-52v-1l1 1-2 52v1l-1-1z" fill="#02D2D6" fill-opacity=".1"/><path d="M364 103l-10 29a1 1 0 11-1 0l10-29h1z" fill="#02D2D6" fill-opacity=".4"/><path d="M356 54l8 49-1 1v-1l-8-49h1z" fill="none"/><path d="M470 135l12 33v1l-1-1-12-33 1-1v1z" fill="#02D2D6" fill-opacity=".2"/><path d="M311 54l16 13v1h-1l-17-14h2z" fill="#02D2D6" fill-opacity=".1"/><path d="M554 90l39 15v1h-1l-39-15 1-1z" fill="#02D2D6" fill-opacity=".4"/><path d="M554 91l19 56h-1-1l-18-56v-1l1 1z" fill="#02D2D6" fill-opacity=".1"/><path d="M571 147l21-42h1v1l-20 41h-2z" fill="#02D2D6" fill-opacity=".3"/><path d="M553 91l15-29 1-1v1l-15 29h-1z" fill="none"/><path d="M502 83l-31 1v-1-1h31v1z" fill="#02D2D6" fill-opacity=".4"/><path d="M201 198l-4 9h-1v-1l4-9h1v1z" fill="#02D2D6" fill-opacity=".1"/><path d="M554 90l45 8-1 1-44-8h-1l1-1z" fill="none"/><path d="M599 99l-6 7h-1v-1l6-7h1v1z" fill="#02D2D6" fill-opacity=".2"/><path d="M599 99l-26 48h-1l-1-1 27-48h1v1z" fill="#02D2D6" fill-opacity=".1"/><path d="M569 63l-67 20h-1v-1l67-21 1 1v1z" fill="none"/><path d="M572 146l32-12h1v1l-33 12h-1l1-1z" fill="#02D2D6" fill-opacity=".1"/><path d="M102 156l7 14v1l-1-1-7-14 1-1v1z" fill="#02D2D6" fill-opacity=".5"/><path d="M598 99l-30-37v-1h1l30 37v1h-1z" fill="#02D2D6" fill-opacity=".4"/><path d="M685 93l13-24h1v1l-13 24h-1v-1zM254 117h19l1 1-1 1-19-1-1-1h1z" fill="#02D2D6" fill-opacity=".5"/><path d="M181 159l16 47v1h-1l-16-48 1-1v1z" fill="#02D2D6" fill-opacity=".3"/><path d="M599 98l6 36v1l-1-1-6-36h1z" fill="#02D2D6" fill-opacity=".4"/><path d="M502 82l49 8h1l-1 1-50-8 1-1zM174 168l23 38v1h-1l-23-39v-1l1 1z" fill="#02D2D6" fill-opacity=".2"/><path d="M173 167l7-9h1v1l-7 9h-1v-1z" fill="#02D2D6" fill-opacity=".5"/><path d="M569 62l-17 29h-1v-1l17-28 1-1v1z" fill="none"/><path d="M163 115l18 43v1h-1l-18-44v-1l1 1z" fill="#02D2D6" fill-opacity=".2"/><path d="M173 169l-64 2-1-1 1-1 64-2 1 1-1 1z" fill="#02D2D6" fill-opacity=".1"/><path d="M385 90l-42-31v-1h1l41 31 1 1h-1z" fill="#02D2D6" fill-opacity=".3"/><path d="M685 94l-4-4v-1h1l4 4v1h-1z" fill="none"/><path d="M469 124v46h-1-1v-46l1-1 1 1zM415 149l-31-59 1-1h1l30 59v1h-1zM553 152l51-18h1v1l-52 18h-1l1-1z" fill="#02D2D6" fill-opacity=".1"/><path d="M405 98l-20-8-1-1h1l20 8 1 1h-1z" fill="#02D2D6" fill-opacity=".5"/><path d="M173 168l-11-53 1-1v1l11 53v1l-1-1z" fill="#02D2D6" fill-opacity=".3"/><path d="M385 90l-42-22v-1h1l41 22 1 1h-1z" fill="#02D2D6" fill-opacity=".2"/><path d="M405 98l-62-39v-1h1l62 39v1h-1z" fill="#02D2D6" fill-opacity=".1"/><path d="M345 59l-1 9h-1v-9l1-1 1 1z" fill="#02D2D6" fill-opacity=".5"/><path d="M406 97l10 51-1 1v-1l-11-51h2z" fill="#02D2D6" fill-opacity=".3"/><path d="M386 90l17 63v1h-1l-18-64 1-1 1 1z" fill="#02D2D6" fill-opacity=".1"/><path d="M552 153l-1-63h1l2 63h-1-1zM386 90l-10 43h-1l9-43 1-1 1 1z" fill="#02D2D6" fill-opacity=".2"/><path d="M405 98l-62-30v-1h1l62 30v1h-1z" fill="#02D2D6" fill-opacity=".1"/><path d="M385 89l34 17v1h-1l-33-17-1-1h1z" fill="#02D2D6" fill-opacity=".4"/><path d="M416 148l52 21 1 1h-1l-53-21v-1h1z" fill="#02D2D6" fill-opacity=".3"/><path d="M416 149l-13 5h-1v-1l13-5h1v1z" fill="#02D2D6" fill-opacity=".5"/><path d="M415 149l-40-16v-1h1l40 16v1h-1z" fill="#02D2D6" fill-opacity=".2"/><path d="M415 148l3-41 1-1v1l-3 41-1 1v-1z" fill="#02D2D6" fill-opacity=".3"/><path d="M406 97l-3 57h-1v-1l2-56h2z" fill="#02D2D6" fill-opacity=".2"/><path d="M406 98l-30 35h-1v-1l30-35h1v1z" fill="#02D2D6" fill-opacity=".3"/><path d="M406 97l13 9v1h-1l-13-9v-1h1z" fill="#02D2D6" fill-opacity=".5"/><path d="M401 106l-17-16v-1h1l17 16v1h-1z" fill="#02D2D6" fill-opacity=".2"/><path d="M468 170l-66-16v-1h1l65 16 1 1h-1z" fill="#02D2D6" fill-opacity=".1"/><path d="M604 134l54-29 1 1v1l-54 28h-1v-1z" fill="none"/><path d="M344 58l8 7v1h-1l-8-7v-1h1z" fill="#02D2D6" fill-opacity=".3"/><path d="M193 163l-19 6-1-1v-1l20-5h1l-1 1z" fill="#02D2D6" fill-opacity=".2"/><path d="M376 132l27 21v1h-1l-27-21v-1h1z" fill="#02D2D6" fill-opacity=".5"/><path d="M192 163l-30-47v-2l1 1 30 47v1h-1z" fill="#02D2D6" fill-opacity=".1"/><path d="M419 107l-16 47h-1v-1l16-46 1-1v1z" fill="#02D2D6" fill-opacity=".3"/><path d="M406 98l-4 8h-1v-1l4-8h1v1z" fill="#02D2D6" fill-opacity=".4"/><path d="M375 132l43-26h1v2l-43 25h-1v-1z" fill="#02D2D6" fill-opacity=".3"/><path d="M343 67l8-2h1l-1 1-7 2h-1v-1z" fill="#02D2D6" fill-opacity=".5"/><path d="M402 106l1 47-1 1-1-48v-1l1 1z" fill="#02D2D6" fill-opacity=".3"/><path d="M402 106l-26 27h-1v-1l26-27h1v1z" fill="#02D2D6" fill-opacity=".5"/><path d="M401 105l18 1v2l-18-2s-1 0 0 0v-1z" fill="#02D2D6" fill-opacity=".5"/><path d="M682 90l-23 17h-1v-1l23-17h1v1z" fill="#02D2D6" fill-opacity=".3"/><path d="M687 129l-6-39v-1l1 1 6 39v1l-1-1z" fill="#02D2D6" fill-opacity=".3"/><path d="M405 97l51 20v1h-1l-50-20-1-1h1z" fill="#02D2D6" fill-opacity=".1"/><path d="M263 163l13-4h1l-1 1-13 4h-1l1-1z" fill="#02D2D6" fill-opacity=".5"/><path d="M252 122l25 37v1h-1l-26-38 1-1 1 1z" fill="#02D2D6" fill-opacity=".2"/><path d="M258 155l18 4 1 1h-1l-19-4v-1h1zM419 106l37 11v1h-1l-37-10v-1l1-1z" fill="#02D2D6" fill-opacity=".4"/><path d="M193 162l70 1 1 1h-1l-70-1h-1l1-1z" fill="#02D2D6" fill-opacity=".1"/><path d="M275 159l5-24 1-1 1 1-5 25h-1l-1-1z" fill="#02D2D6" fill-opacity=".3"/><path d="M687 130l-29-23v-1h1l29 23v1h-1z" fill="#02D2D6" fill-opacity=".5"/><path d="M277 160l-8 9a1 1 0 11-1-1l8-9h1v1z" fill="#02D2D6" fill-opacity=".3"/><path d="M192 162l59-41 1 1-1 1-58 40h-1v-1z" fill="#02D2D6" fill-opacity=".1"/><path d="M252 122l12 41-1 1h-1l-12-42 1-1 1 1z" fill="#02D2D6" fill-opacity=".4"/><path d="M401 105l55 12a1 1 0 010 1l-55-12v-1z" fill="#02D2D6" fill-opacity=".3"/><path d="M193 162l64-7h1v1l-65 7h-1l1-1zM401 106l-33-28v-1h1l33 28v1h-1z" fill="#02D2D6" fill-opacity=".2"/><path d="M368 78l-17-12v-1h1l17 12v1h-1zM258 155l6 8-1 1h-1l-5-8v-1h1z" fill="#02D2D6" fill-opacity=".5"/><path d="M262 163l18-28 1-1 1 1-18 29h-1l-1-1z" fill="#02D2D6" fill-opacity=".5"/><path d="M432 103l-13 5-1-1v-1l13-5 2 1-1 1zM193 162l75 6 1 1h-1l-75-6h-1l1-1z" fill="none"/><path d="M327 120l-46 16a1 1 0 110-2l46-16 1 1-1 1z" fill="#02D2D6" fill-opacity=".3"/><path d="M252 122l6 33v1h-1l-7-34 1-1 1 1zM193 162l21 17v1h-1l-21-17a1 1 0 011-1zM264 163l5 5v1h-1l-6-5v-1h2z" fill="#02D2D6" fill-opacity=".5"/><path d="M251 121l30 13 1 1-2 1-29-13-1-1 1-1zM311 119l16-1 1 1-1 1h-16v-1z" fill="#02D2D6" fill-opacity=".5"/><path d="M252 122l17 46-1 1h-1l-17-47 1-1 1 1z" fill="#02D2D6" fill-opacity=".4"/><path d="M251 121l60-2 1 1-61 3-1-1 1-1z" fill="#02D2D6" fill-opacity=".3"/><path d="M273 151l-9 13h-1l-1-1 10-13h1v1zM257 155l23-21a1 1 0 111 2l-23 20h-1v-1z" fill="#02D2D6" fill-opacity=".5"/><path d="M401 105l5 1 1 1h-1l-5-1v-1z" fill="#02D2D6" fill-opacity=".3"/><path d="M406 107l-55-41v-1h1l55 41v1h-1z" fill="#02D2D6" fill-opacity=".1"/><path d="M401 105l31-4 1 1-1 1-31 3v-1z" fill="#02D2D6" fill-opacity=".3"/><path d="M258 155l11 13v1h-1l-11-13v-1h1z" fill="#02D2D6" fill-opacity=".5"/><path d="M312 120l-54 36h-1v-1l54-36h1v1z" fill="#02D2D6" fill-opacity=".2"/><path d="M252 122l21 28v1h-1l-22-29v-1l2 1z" fill="#02D2D6" fill-opacity=".5"/><path d="M258 156l-44 24h-1v-1l44-24h1v1z" fill="#02D2D6" fill-opacity=".4"/><path d="M267 168l13-33 1-1 1 1-13 34h-1l-1-1z" fill="#02D2D6" fill-opacity=".5"/><path d="M312 120l-31 16-1-1v-1l31-15h1v1zM273 151l-15 5h-1v-1l15-5h1v1z" fill="#02D2D6" fill-opacity=".5"/><path d="M272 150l8-15 1-1 1 1-9 16h-1v-1z" fill="#02D2D6" fill-opacity=".5"/><path d="M273 151l-4 18h-1l-1-1 5-18h1v1z" fill="#02D2D6" fill-opacity=".5"/><path d="M312 120l-39 31h-1v-1l39-31h1v1z" fill="#02D2D6" fill-opacity=".4"/><path d="M273 151l-59 29h-2l1-1 59-29h1v1zM406 106l50 11a1 1 0 010 1l-50-11-1-1h1z" fill="#02D2D6" fill-opacity=".2"/><path d="M369 77l38 29v1h-1l-38-29v-1h1zM432 101l24 16v1h-1l-24-15v-2h1z" fill="#02D2D6" fill-opacity=".4"/><path d="M431 103l-63-25v-1h1l63 24 1 1-2 1z" fill="#02D2D6" fill-opacity=".2"/><path d="M432 103l-26 4h-1l1-1 26-5 1 1-1 1z" fill="#02D2D6" fill-opacity=".5"/><path d="M671 157l5-37 1-1 1 1-5 37-1 1-1-1z" fill="#02D2D6" fill-opacity=".1"/><path d="M279 177l7 2v1l-1 1-6-2-1-1 1-1z" fill="#02D2D6" fill-opacity=".4"/><path d="M278 179l-20-22v-1h1l21 22v1h-2z" fill="#02D2D6" fill-opacity=".4"/><path d="M278 178l21-23h2v2l-21 22h-2v-1z" fill="#02D2D6" fill-opacity=".4"/><path d="M279 177l37 2a1 1 0 010 2l-37-2-1-1 1-1z" fill="#02D2D6" fill-opacity=".3"/><path d="M259 156l41-1 1 1-1 1-41 1-1-1 1-1z" fill="#02D2D6" fill-opacity=".5"/><path d="M259 156l57 23 1 1-1 1-58-23v-2h1z" fill="#02D2D6" fill-opacity=".4"/><path d="M315 181l-16-24a1 1 0 112-1l16 24v1h-2z" fill="#02D2D6" fill-opacity=".5"/><path d="M259 158l-62 6-1-1 1-1 61-6h2l-1 2z" fill="#02D2D6" fill-opacity=".2"/><path d="M320 9h-2l1 2 1-1V9zM647 31h-1v2l2-1-1-1zM451 20l-2 1 1 1 1-1v-1zM504 54h-1v2l2-1-1-1zM572 41a1 1 0 11-2 1 1 1 0 012-1zM755 2h-2l1 1h1V2zM475 4h-1v2l2-1-1-1zM404 14h-1v1h2l-1-1zM346 22l-1 1v1h2l-1-2zM413 45h-2l1 2 1-1v-1zM363 41l-2 1 1 1h1v-2zM457 18h-1v2l2-1-1-1zM479 22l-2 1 1 1h1v-2zM401 6h-1v2l2-1-1-1zM436 5l-1 1v1h2l-1-2zM597 34h-1v2l2-1-1-1zM481 7a1 1 0 10-1 2 1 1 0 001-2zM439 63a1 1 0 10-1 2 1 1 0 001-2zM741-1l-1 1a1 1 0 002 1l-1-2zM433 35h-2a1 1 0 002 1v-1zM382 44l-2 1 1 1h1v-2zM386 31h-1a1 1 0 002 1l-1-1zM521 7h-1a1 1 0 002 1l-1-1zM573 13h-1v2l2-1-1-1zM485 31h-1v2l2-1-1-1zM457 82l-1 1v1h2l-1-2zM495 99h-2l1 2 1-1v-1zM693 21h-2l1 2 2-1-1-1zM377 36l-2 1 1 2 2-1-1-2zM518 59h-2l1 2 1-1v-1zM445 84l-1 1v1h2l-1-2z" fill="#02D2D6" fill-opacity=".5"/><path d="M485 30l-1 1v1h2l-1-2zM431 72l-2 1 1 1h1v-2zM496 72l-2 1 1 1h1v-2zM458 10l-2 1a1 1 0 102 1v-2zM469 91h-2a1 1 0 102 1v-1zM561-2h-1a1 1 0 102 1l-1-1zM735 3h-1a1 1 0 102 1l-1-1zM525 17l-2 1a1 1 0 102 1v-2zM666 36h-2v2l2-1v-1zM453 14l-2 1 1 1h1v-2zM504 35l-2 1 1 1h1v-2zM497-1h-1v2l2-1-1-1zM410 6h-2l1 2h1V6zM739-1h-2v2h2v-2zM900-1l-2 1 1 2 1-1v-2zM533 2l-1 1v1h2l-1-2zM634 13h-2l1 2h2l-1-2zM750 16h-1v2l2-1-1-1zM332 3h-2v2h2V3zM426 70l-2 1 1 2a1 1 0 001-3zM481 78l-2 1 1 2 1-1v-2zM762 49h-2l1 2h2l-1-2zM852 27l-1 1v2l2-1-1-2zM382 36a1 1 0 10-1 3 1 1 0 001-3zM535-2l-2 1v2l2-1v-2zM477 87l-2 1 1 2 2-1-1-2zM461 39l-2 1 1 2 2-1-1-2zM554-2a1 1 0 00-1 3l1-1v-2zM748 4a1 1 0 00-1 3 1 1 0 001-3zM389 51h-2l1 2 2-1-1-1zM885 15h-2a1 1 0 102 0zM454 48l-2 1 1 2 2-1-1-2zM696 29h-2v2h2v-2zM834 33l-2 1v2l2-1v-2zM749 50l-2 1a2 2 0 102 1v-2zM683 34l-2 1 1 2 2-1-1-2zM656 13l-2 1 1 2 2-1-1-2zM557 40l-2 1v2l2-1v-2zM473 43l-2 1a2 2 0 103 1l-1-2zM544 44l-3 1 1 2 2-1v-2zM968 10h-2l1 3 2-1-1-2zM608-1l-3 1 1 2h2v-3zM532 2l-3 1 1 2c1 1 2 0 2-1V2zM538 36c-1-1-2 0-2 1l1 2 2-1-1-2zM561 15l-2 1 1 2h2l-1-3zM736-2c-1-1-2 0-2 1l1 2 2-1-1-2zM549 49c-1-1-2 0-2 1v2l2-1v-2zM592 0l-2 1 1 2 2-1-1-2zM494 60a2 2 0 00-2 3l3-1-1-2zM553 31h-2c-1 1 0 2 1 3l2-1-1-2zM953 37l-3 1 1 2h3l-1-3zM566 60l-2 1a2 2 0 103 2l-1-3zM695 48l-3 1 1 3 3-1-1-3zM958 0l-3 1 1 2h3l-1-3zM560 58l-3 1 1 3 3-1-1-3z" fill="#02D2D6" fill-opacity=".5"/><path d="M539 37h-2c-1 1 0 3 1 3l2-1c1-1 0-2-1-2zM581 36l-3 1a2 2 0 103-1zM597 60c-1-1-2 0-3 1s0 2 1 3a2 2 0 002-4zM478 43l-3 1c-1 1 0 3 1 3 1 1 2 0 3-1l-1-3zM496 25c-1-1-3 0-3 1-1 1 0 3 1 4 1 0 3 0 3-2 1-1 1-2-1-3zM732 49c-1-1-3 0-4 1a3 3 0 106 3c1-2 0-3-2-4z" fill="#02D2D6" fill-opacity=".5"/><path d="M450 21l15-30v-1 1l-15 30z" fill="#02D2D6" fill-opacity=".1"/><path d="M316-14l4 24h-1l-4-24h1zM450 21l1-24h1v1l-1 23h-1z" fill="#02D2D6" fill-opacity=".5"/><path d="M452-3l23 7v1l-24-7v-1h1z" fill="#02D2D6" fill-opacity=".4"/><path d="M450 21l25-17v1l-25 16z" fill="#02D2D6" fill-opacity=".3"/><path d="M412 45l38-24c0-1 0-1 0 0 1 0 1 0 0 0l-37 25h-1v-1z" fill="none"/><path d="M456 19l-5-21v-1h1l5 22h-1z" fill="#02D2D6" fill-opacity=".3"/><path d="M450 20l7-2v1l-7 2v-1z" fill="#02D2D6" fill-opacity=".5"/><path d="M450 20l28 3h1l-1 1-28-3v-1z" fill="#02D2D6" fill-opacity=".3"/><path d="M753-8l2 10-1 1-2-10v-1h1z" fill="#02D2D6" fill-opacity=".5"/><path d="M450 21L435 7V6h1l14 15c1 0 1 0 0 0z" fill="#02D2D6" fill-opacity=".1"/><path d="M412 46l-9-31 1-1 9 32h-1z" fill="#02D2D6" fill-opacity=".4"/><path d="M362 42l41-28h1v1l-41 28h-1v-1z" fill="none"/><path d="M346 23l17 19v1h-1l-17-19v-1h1z" fill="#02D2D6" fill-opacity=".5"/><path d="M362 42l50 3 1 1h-1l-50-3v-1z" fill="none"/><path d="M457 19l18-15v1l-18 14c0 1 0 1 0 0-1 0-1 0 0 0z" fill="#02D2D6" fill-opacity=".5"/><path d="M478 23l-4-18 1-1v1l4 18-1 1v-1zM401 7l3 7v1h-1l-3-8 1-1v1z" fill="#02D2D6" fill-opacity=".5"/><path d="M412 46L400 7l1-1v1l12 39h-1z" fill="#02D2D6" fill-opacity=".2"/><path d="M571 41l25-7h1v1l-25 7h-1v-1z" fill="#02D2D6" fill-opacity=".1"/><path d="M457 18l21 5h1l-1 1-21-5h-1l1-1z" fill="#02D2D6" fill-opacity=".5"/><path d="M436 6l39-2v1l-39 2-1-1h1z" fill="#02D2D6" fill-opacity=".1"/><path d="M404 14l32-8v1l-32 8h-1l1-1z" fill="#02D2D6" fill-opacity=".3"/><path d="M412 46l23-40h1v1l-23 39h-1zM596 34l12-40h1l-12 41h-1v-1z" fill="none"/><path d="M457 19L435 7V6h1l21 12v1s0 1 0 0z" fill="#02D2D6" fill-opacity=".4"/><path d="M401 6h35v1h-36l1-1z" fill="#02D2D6" fill-opacity=".3"/><path d="M400 7l-22-32v-1h1l22 32v1h-1zM481 8l-2 15-1 1v-1l2-15V7l1 1z" fill="#02D2D6" fill-opacity=".1"/><path d="M432 35l3-29h1l-3 30h-1v-1z" fill="none"/><path d="M507-6L481 8h-1l26-15h1v1z" fill="#02D2D6" fill-opacity=".4"/><path d="M701-15l40 15v1l-40-15-1-1h1z" fill="#02D2D6" fill-opacity=".2"/><path d="M433 35l6 29h-1l-6-28v-1h1z" fill="#02D2D6" fill-opacity=".4"/><path d="M747-7l-6 7v1l-1-1 6-8h1v1z" fill="#02D2D6" fill-opacity=".5"/><path d="M740 0l22-31h1v1L741 0v1l-1-1z" fill="#02D2D6" fill-opacity=".3"/><path d="M507-7l14 14v1h-1L506-6v-1h1zM386 31l46 4 1 1h-1l-46-4h-1l1-1z" fill="none"/><path d="M386 32l-4 13-1 1v-1l4-13 1-1v1z" fill="#02D2D6" fill-opacity=".5"/><path d="M601-5l-28 19h-1v-1l28-19 1 1z" fill="#02D2D6" fill-opacity=".3"/><path d="M369-3l13 48-1 1v-1L368-3h1c0-1 0 0 0 0z" fill="#02D2D6" fill-opacity=".1"/><path d="M369-3l17 35h-1L368-3h1z" fill="#02D2D6" fill-opacity=".3"/><path d="M420-7l-34 39h-1v-1l34-38h1z" fill="none"/><path d="M573 15l-52-7h-1l1-1 52 6v2z" fill="#02D2D6" fill-opacity=".1"/><path d="M377 37l5 8v1h-1l-5-8v-1h1z" fill="#02D2D6" fill-opacity=".4"/><path d="M386 32l-9 6h-1v-1l9-6h1v1z" fill="#02D2D6" fill-opacity=".5"/><path d="M485 31l35-24h1v1l-36 24h-1l1-1z" fill="#02D2D6" fill-opacity=".2"/><path d="M369-3l8 40v1h-1l-8-41h1c0-1 0 0 0 0z" fill="#02D2D6" fill-opacity=".3"/><path d="M587-6l-14 20h-1l14-20h1s1 0 0 0z" fill="#02D2D6" fill-opacity=".5"/><path d="M516 60l4-52 1-1v1l-3 52h-1-1z" fill="#02D2D6" fill-opacity=".1"/><path d="M484 31l36-24h1v1l-36 24-1-1z" fill="#02D2D6" fill-opacity=".1"/><path d="M494 100l-37-16-1-1h1l37 16 1 1h-1zM517 60l-33-28v-1h1l32 28v1z" fill="#02D2D6" fill-opacity=".3"/><path d="M457 84l-12 2-1-1 13-2c0-1 0 0 0 0v1zM484 32v-1-1l1 1v1c1 0 0 0 0 0h-1z" fill="#02D2D6" fill-opacity=".5"/><path d="M494 100l23-40v-1l1 1-23 40h-1s-1 0 0 0z" fill="#02D2D6" fill-opacity=".2"/><path d="M457 84l-27-10v-1l27 10v1z" fill="#02D2D6" fill-opacity=".4"/><path d="M494 100l-50-14v-1h1l49 14 1 1h-1z" fill="#02D2D6" fill-opacity=".1"/><path d="M485 32l11 41-1 1v-1l-11-41 1-1v1z" fill="#02D2D6" fill-opacity=".3"/><path d="M572 14L560-1v-1l1 1 12 15h-1z" fill="#02D2D6" fill-opacity=".2"/><path d="M457 83l38-11 1 1-1 1-38 10-1-1h1z" fill="#02D2D6" fill-opacity=".3"/><path d="M420-7l38 18v1h-1L419-6v-1h1z" fill="#02D2D6" fill-opacity=".2"/><path d="M485 32l-28-20v-1h1l27 20v1s0 1 0 0z" fill="#02D2D6" fill-opacity=".3"/><path d="M494 100l1-27v-1l1 1-1 27h-1z" fill="#02D2D6" fill-opacity=".4"/><path d="M524 19l-4-11 1-1 4 11-1 1z" fill="#02D2D6" fill-opacity=".2"/><path d="M457 83l11 8 1 1h-1l-12-8v-1h1z" fill="#02D2D6" fill-opacity=".5"/><path d="M517 60l-33-28v-1h1l32 28v1z" fill="#02D2D6" fill-opacity=".3"/><path d="M431 73l14 12-1 1-14-12v-1h1z" fill="#02D2D6" fill-opacity=".5"/><path d="M494 100l-26-8s-1 0 0 0v-1l26 8 1 1h-1z" fill="#02D2D6" fill-opacity=".4"/><path d="M517 60l-22 14v-1c-1 0 0 0 0 0l22-14 1 1h-1z" fill="#02D2D6" fill-opacity=".5"/><path d="M495 74l-50 12-1-1 51-13 1 1-1 1z" fill="#02D2D6" fill-opacity=".1"/><path d="M495 73l-11-42h1l11 42-1 1v-1z" fill="#02D2D6" fill-opacity=".3"/><path d="M452 16L419-6v-1h1l33 22v1h-1z" fill="#02D2D6" fill-opacity=".1"/><path d="M735 4l-42 18h-1v-1l42-18h1v1z" fill="#02D2D6" fill-opacity=".2"/><path d="M458 11l27 20-1 1-27-20v-1h1z" fill="#02D2D6" fill-opacity=".4"/><path d="M445 85l23 6 1 1h-1l-24-6v-1h1z" fill="#02D2D6" fill-opacity=".5"/><path d="M734 4l2-35 1-1v1l-2 35h-1zM430 73l38 18 1 1h-1l-38-18v-1z" fill="#02D2D6" fill-opacity=".3"/><path d="M693 22l-28 15h-1l1-1 27-15h1v1z" fill="#02D2D6" fill-opacity=".1"/><path d="M495 74l-27 18c0 1 0 0 0 0v-1l27-18h1l-1 1z" fill="#02D2D6" fill-opacity=".4"/><path d="M746-39L735 4h-1l11-43 1-1v1zM503 37l-18-5h-1l1-1 18 5h1l-1 1zM516 60l8-42h1l-7 42h-1-1z" fill="#02D2D6" fill-opacity=".2"/><path d="M524 19l-39 13-1-1 40-13h1l-1 1z" fill="#02D2D6" fill-opacity=".2"/><path d="M452 15l33 16-1 1-32-16v-1zM517 60l-14-23v-1h1l14 24h-1c0 1 0 0 0 0z" fill="#02D2D6" fill-opacity=".2"/><path d="M503 37l-19-5v-1l1-1 18 6h1l-1 1z" fill="#02D2D6" fill-opacity=".4"/><path d="M452 15l5-4h1v1l-5 4h-1v-1z" fill="#02D2D6" fill-opacity=".5"/><path d="M524 18l36-20 1 1-37 20v-1z" fill="#02D2D6" fill-opacity=".3"/><path d="M423-13L410 7h-1l13-21h1v1z" fill="#02D2D6" fill-opacity=".1"/><path d="M504 36l-8 37-1 1v-1l8-37h1z" fill="#02D2D6" fill-opacity=".2"/><path d="M503 37l-46-25v-1h1l46 25v1h-1z" fill="#02D2D6" fill-opacity=".1"/><path d="M409 6l48 5h1l-1 1-48-4V7 6z" fill="none"/><path d="M525 19l-21 18h-1v-1l21-18h1v1z" fill="#02D2D6" fill-opacity=".5"/><path d="M452 15l51 21h1l-1 1-51-21v-1zM664 37l6-52h1v1l-5 51h-1-1z" fill="#02D2D6" fill-opacity=".1"/><path d="M497-1l28 19v1h-1L497 0l-1-1h1z" fill="#02D2D6" fill-opacity=".3"/><path d="M734 3l3-3 1-1v1l-3 4h-1V3z" fill="#02D2D6" fill-opacity=".4"/><path d="M452 15l45-16v1l-45 16v-1z" fill="#02D2D6" fill-opacity=".2"/><path d="M452 16l-43-8V7 6l43 9h1l-1 1z" fill="#02D2D6" fill-opacity=".2"/><path d="M899 1l-66-22v-1l66 22 1 1h-1z" fill="none"/><path d="M498 0l6 36-1 1v-1l-7-36 1-1 1 1z" fill="#02D2D6" fill-opacity=".4"/><path d="M749 17L734 4V3h1l15 13v1h-1z" fill="#02D2D6" fill-opacity=".2"/><path d="M524 18l8-15h1l-8 16h-1v-1z" fill="#02D2D6" fill-opacity=".3"/><path d="M878-53l22 53-1 1-22-54v-1l1 1z" fill="#02D2D6" fill-opacity=".1"/><path d="M533 4l-29 33h-1v-1l29-33h1v1z" fill="#02D2D6" fill-opacity=".2"/><path d="M497-1l36 3v2l-36-4h-1l1-1z" fill="#02D2D6" fill-opacity=".4"/><path d="M633 14l37-29a1 1 0 011 1l-37 29-1-1z" fill="#02D2D6" fill-opacity=".1"/><path d="M645-29l-11 43-1 1v-1l11-44h1v1z" fill="#02D2D6" fill-opacity=".2"/><path d="M591-4l43 17v1l-1 1-43-17v-1l1-1z" fill="#02D2D6" fill-opacity=".3"/><path d="M749 17L737 0l1-1v1l12 16v1h-1z" fill="#02D2D6" fill-opacity=".5"/><path d="M737 0l14-35v-1l1 1-13 35-1 1-1-1zM480 80l-54-8-1-1h1l54 8 1 1h-1z" fill="#02D2D6" fill-opacity=".1"/><path d="M749 17l2-52v-1l1 1-2 52h-1z" fill="#02D2D6" fill-opacity=".1"/><path d="M644-15l-10 29a1 1 0 11-1 0l10-29v-1l1 1z" fill="#02D2D6" fill-opacity=".4"/><path d="M750 16l12 34v1l-1-1-12-33v-1h1z" fill="#02D2D6" fill-opacity=".2"/><path d="M834-28l19 56-1 1h-1l-18-56v-1h1z" fill="#02D2D6" fill-opacity=".1"/><path d="M851 28l21-41h1v1l-21 41-1-1z" fill="#02D2D6" fill-opacity=".3"/><path d="M481 80l-4 9h-1v-1l4-9 1 1zM879-20l-27 49-1-1 27-48 1-1v1z" fill="#02D2D6" fill-opacity=".1"/><path d="M852 28l32-13 1 1v1l-33 12h-1l1-1z" fill="#02D2D6" fill-opacity=".1"/><path d="M382 37l7 15h-1l-7-14v-1h1zM534-1h19l1 1h-20l-1-1h1z" fill="#02D2D6" fill-opacity=".5"/><path d="M461 40l16 48v1h-1l-16-48v-1h1z" fill="#02D2D6" fill-opacity=".3"/><path d="M879-20l6 36-1 1v-1l-6-36v-1l1 1z" fill="#02D2D6" fill-opacity=".4"/><path d="M454 49l23 39v1h-1l-23-39v-1h1z" fill="#02D2D6" fill-opacity=".2"/><path d="M453 49l7-9h1v1l-7 9h-1v-1z" fill="#02D2D6" fill-opacity=".5"/><path d="M443-3l18 43v1h-1L442-3v-1l1 1z" fill="#02D2D6" fill-opacity=".2"/><path d="M453 50l-64 3-1-1 1-1 64-2 1 1h-1zM748 5l1 46-1 1-1-1V5h1zM694 30l-30-58v-1h1l31 59-1 1-1-1zM833 34l51-19 1 1v1l-52 18h-1l1-1z" fill="#02D2D6" fill-opacity=".1"/><path d="M453 50L442-3v-1l1 1 11 53h-1c0 1 0 0 0 0zM686-21l10 51-1 1-1-1-10-51 1-1 1 1z" fill="#02D2D6" fill-opacity=".3"/><path d="M666-29l17 64-1 1-18-64 1-1h1z" fill="#02D2D6" fill-opacity=".1"/><path d="M832 34l-2-62 1-1 1 1 2 62-1 1-1-1zM666-28l-10 43h-1v-1l9-43h1l1 1z" fill="#02D2D6" fill-opacity=".2"/><path d="M695 29l53 22 1 1h-1l-53-21a1 1 0 010-2z" fill="#02D2D6" fill-opacity=".3"/><path d="M695 31l-12 5h-1v-1l13-6 1 1-1 1z" fill="#02D2D6" fill-opacity=".5"/><path d="M695 31l-40-16v-1h1l39 15 1 1-1 1z" fill="#02D2D6" fill-opacity=".2"/><path d="M694 30l4-41 1-1v1l-3 41-1 1-1-1z" fill="#02D2D6" fill-opacity=".3"/><path d="M686-21l-3 56-1 1-1-1 3-56 1-1 1 1z" fill="#02D2D6" fill-opacity=".2"/><path d="M686-20l-30 35h-1v-1l29-35h1l1 1z" fill="#02D2D6" fill-opacity=".3"/><path d="M748 52l-66-16v-1s0-1 0 0l66 16 1 1h-1z" fill="#02D2D6" fill-opacity=".1"/><path d="M884 15l54-28 1 1v1l-54 28-1-1v-1z" fill="none"/><path d="M473 45l-20 5c0 1 0 0 0 0v-1l19-5h1v1z" fill="#02D2D6" fill-opacity=".2"/><path d="M656 14l27 21v1h-1l-27-21v-1h1z" fill="#02D2D6" fill-opacity=".5"/><path d="M472 45L442-3v-1l1 1 30 47v1h-1z" fill="#02D2D6" fill-opacity=".1"/><path d="M699-11l-16 47h-1v-1l16-47h1v1z" fill="#02D2D6" fill-opacity=".3"/><path d="M655 14l43-26h1v1l-43 26h-1v-1z" fill="#02D2D6" fill-opacity=".3"/><path d="M682-13l1 48-1 1-1-1-1-48h2z" fill="#02D2D6" fill-opacity=".3"/><path d="M682-12l-26 27h-1v-1l26-27h1v1z" fill="#02D2D6" fill-opacity=".5"/><path d="M967 11l-6-39v-1l1 1 6 39v1l-1-1z" fill="#02D2D6" fill-opacity=".3"/><path d="M685-22l51 21v1h-1l-50-20-1-1 1-1z" fill="#02D2D6" fill-opacity=".1"/><path d="M543 45l13-4h1l-1 1-13 4h-1l1-1z" fill="#02D2D6" fill-opacity=".5"/><path d="M531 3l26 38-1 1h-1L530 4V3h1z" fill="#02D2D6" fill-opacity=".2"/><path d="M538 37l18 4h1l-1 1-19-4v-1h1zM699-12l37 11v1h-1l-37-11v-1h1z" fill="#02D2D6" fill-opacity=".4"/><path d="M473 44l70 1h1l-1 1-70-1-1-1h1z" fill="#02D2D6" fill-opacity=".1"/><path d="M555 41l5-24 1-1v1l-4 24-1 1-1-1z" fill="#02D2D6" fill-opacity=".3"/><path d="M967 12l-29-23v-2h1l29 24v1h-1z" fill="#02D2D6" fill-opacity=".5"/><path d="M557 42l-8 9a1 1 0 11-2-1l9-9h1v1z" fill="#02D2D6" fill-opacity=".3"/><path d="M472 44l58-41h1v1l-58 41h-1v-1z" fill="#02D2D6" fill-opacity=".1"/><path d="M532 4l12 41-1 1h-1L530 4l1-1 1 1z" fill="#02D2D6" fill-opacity=".4"/><path d="M681-13l55 12a1 1 0 01-1 1l-54-12-1-1h1z" fill="#02D2D6" fill-opacity=".3"/><path d="M473 44l64-8 1 1-1 1-64 7h-1l1-1z" fill="#02D2D6" fill-opacity=".2"/><path d="M538 37l6 8-1 1h-1l-5-8v-1h1z" fill="#02D2D6" fill-opacity=".5"/><path d="M542 45l18-29h1v1l-17 29h-2v-1z" fill="#02D2D6" fill-opacity=".5"/><path d="M473 44l75 5 1 1-1 1-75-6-1-1h1z" fill="none"/><path d="M607 2l-46 16a1 1 0 11-1-2l47-16 1 1-1 1z" fill="#02D2D6" fill-opacity=".3"/><path d="M532 4l6 33v1l-1-1-7-33 1-1 1 1zM473 44l21 17v1h-1l-21-17a1 1 0 011-1zM543 45l6 5v1h-2l-5-5v-1h1z" fill="#02D2D6" fill-opacity=".5"/><path d="M531 3l30 13v1l-1 1-30-13V3h1zM591 1l16-1 1 1-1 1h-16V1z" fill="#02D2D6" fill-opacity=".5"/><path d="M532 4l17 46-1 1h-1L530 4l1-1 1 1z" fill="#02D2D6" fill-opacity=".4"/><path d="M531 3l60-2h1l-1 1-60 3-1-1 1-1z" fill="#02D2D6" fill-opacity=".3"/><path d="M553 33l-9 13h-2v-1l10-13h1v1zM537 37l23-21a1 1 0 111 1l-23 21h-1v-1z" fill="#02D2D6" fill-opacity=".5"/><path d="M538 37l11 13v1h-2l-10-13v-1h1z" fill="#02D2D6" fill-opacity=".5"/><path d="M592 2l-54 36h-1v-1l54-36h1v1z" fill="#02D2D6" fill-opacity=".2"/><path d="M531 3l22 29v1h-1L530 4V3h1z" fill="#02D2D6" fill-opacity=".5"/><path d="M538 38l-45 24h-1l1-1 44-24h1v1z" fill="#02D2D6" fill-opacity=".4"/><path d="M547 50l13-33 1-1v1l-12 34h-1l-1-1z" fill="#02D2D6" fill-opacity=".5"/><path d="M592 2l-31 16-1-1v-1l31-15h1v1zM553 33l-15 5h-1v-1l15-6 1 1v1z" fill="#02D2D6" fill-opacity=".5"/><path d="M552 32l8-16h1v1l-8 16h-1v-1z" fill="#02D2D6" fill-opacity=".5"/><path d="M553 32l-4 18-1 1-1-1 5-18 1-1v1z" fill="#02D2D6" fill-opacity=".5"/><path d="M592 2l-39 31h-1v-1l39-31h1v1z" fill="#02D2D6" fill-opacity=".4"/><path d="M553 33l-60 29h-1l1-1 59-30 1 1v1zM686-13l50 12a1 1 0 01-1 1l-49-11-1-1 1-1z" fill="#02D2D6" fill-opacity=".2"/><path d="M712-17l24 16v1h-1l-24-16v-1h1z" fill="#02D2D6" fill-opacity=".4"/><path d="M951 39l5-37 1-1 1 1-5 37-1 1-1-1z" fill="#02D2D6" fill-opacity=".1"/><path d="M559 59l7 2v1l-1 1-6-2-1-1 1-1z" fill="#02D2D6" fill-opacity=".4"/><path d="M558 61l-20-22v-1h1l20 21v2h-1z" fill="#02D2D6" fill-opacity=".4"/><path d="M558 59l21-22h2v2l-22 22h-1v-2z" fill="#02D2D6" fill-opacity=".4"/><path d="M559 59l37 2a1 1 0 010 2l-37-2-1-1 1-1z" fill="#02D2D6" fill-opacity=".3"/><path d="M538 37h42l1 1-1 1h-42l-1-1 1-1z" fill="#02D2D6" fill-opacity=".5"/><path d="M539 37l57 24 1 1-2 1-57-24v-1l1-1z" fill="#02D2D6" fill-opacity=".4"/><path d="M595 62l-16-24a1 1 0 112-1l16 24-1 2-1-1z" fill="#02D2D6" fill-opacity=".5"/><path d="M539 39l-62 7-1-1 1-1 61-7 1 1v1z" fill="#02D2D6" fill-opacity=".2"/></svg>