<svg xmlns="http://www.w3.org/2000/svg" width="125" height="125" viewBox="0 0 125 125">
  <g id="Group_3293" data-name="Group 3293" transform="translate(22152 19476)">
    <path id="Path_6253" data-name="Path 6253" d="M62.5,0A62.5,62.5,0,1,1,0,62.5,62.5,62.5,0,0,1,62.5,0Z" transform="translate(-22152 -19476)" fill="#0090ff"/>
    <path id="Path_6254" data-name="Path 6254" d="M880.267,351.067a7.3,7.3,0,0,0-3.838-1.576,9.521,9.521,0,0,0-6.154,1.176,14.21,14.21,0,0,0-5.025,5.081,36.305,36.305,0,0,0-3.389,8.465c-.151-.005-.3-.012-.454-.012a13.535,13.535,0,0,0-5.331,25.977l-.5,2.181q-2.815,12.618-7.551,11.952a2.505,2.505,0,0,1-1.652-1.135l-1.2-1.741a2.793,2.793,0,0,0-1.864-1.3,1.574,1.574,0,0,0-1.281.406,2,2,0,0,0-.7,1.289,2.88,2.88,0,0,0,1.137,2.652,6.792,6.792,0,0,0,3.615,1.495,10.157,10.157,0,0,0,7.158-1.637A15.11,15.11,0,0,0,858.6,397.8a49.789,49.789,0,0,0,2.362-6.54c.148.005.295.012.444.012a13.535,13.535,0,0,0,5.436-25.93,74.255,74.255,0,0,1,2.724-9.524q2.035-4.934,5.293-4.475a1.45,1.45,0,0,1,.855.354q.264.272,1.7,2.247a3.166,3.166,0,0,0,2.118,1.4,1.54,1.54,0,0,0,1.955-1.5A3.017,3.017,0,0,0,880.267,351.067Zm-29.388,26.671a10.539,10.539,0,0,1,10.169-10.52c-.127.5-.252,1.01-.377,1.536l-.767,3.3-.622,2.756-.818,3.666-.663,3.286q-.166.946-.4,2.151c-.262,1.3-.48,2.387-.658,3.255A10.539,10.539,0,0,1,850.879,377.739Zm21.056,0a10.539,10.539,0,0,1-10.129,10.518q.692-2.607,1.387-5.7l.7-3.281q.279-1.265.529-2.568.389-2.054.783-3.9l.7-3.281q.131-.6.259-1.176A10.538,10.538,0,0,1,871.935,377.739Z" transform="translate(-22950.908 -19791.238)" fill="#eff6fc"/>
  </g>
</svg>
