<svg version="1.1" xmlns="http://www.w3.org/2000/svg" xmlns:xlink="http://www.w3.org/1999/xlink" viewBox="0 0 190 190">
<style type="text/css">
	.fblue0{fill:#0090FF;}
	.ff0{fill:#EFF6FC;}
</style>
	<path class="fblue0" d="M95,32.5c34.5,0,62.5,28,62.5,62.5s-28,62.5-62.5,62.5s-62.5-28-62.5-62.5S60.5,32.5,95,32.5z"/>
	<path class="ff0" d="M113.9,68.3c-1.1-0.9-2.4-1.4-3.8-1.6c-2.1-0.3-4.3,0.1-6.2,1.2c-2.1,1.2-3.8,3-5,5.1
		c-1.5,2.7-2.6,5.5-3.4,8.5c-0.2,0-0.3,0-0.5,0c-7.5,0-13.5,6.1-13.5,13.5c0,5.4,3.2,10.3,8.2,12.4l-0.5,2.2
		c-1.9,8.4-4.4,12.4-7.6,12c-0.7-0.1-1.3-0.5-1.7-1.1l-1.2-1.7c-0.4-0.7-1.1-1.2-1.9-1.3c-0.5-0.1-0.9,0.1-1.3,0.4
		c-0.4,0.3-0.6,0.8-0.7,1.3c-0.1,1,0.3,2,1.1,2.7c1,0.8,2.3,1.4,3.6,1.5c2.5,0.4,5.1-0.2,7.2-1.6c2.4-1.6,4.2-3.9,5.4-6.5
		c0.9-2.1,1.7-4.3,2.4-6.5c0.1,0,0.3,0,0.4,0c7.5,0,13.5-6.1,13.5-13.5c0-5.4-3.2-10.2-8.1-12.4c0.7-3.2,1.6-6.4,2.7-9.5
		c1.4-3.3,3.1-4.8,5.3-4.5c0.3,0,0.6,0.1,0.9,0.4c0.2,0.2,0.7,0.9,1.7,2.2c0.5,0.7,1.2,1.2,2.1,1.4c0.8,0.2,1.7-0.2,1.9-1.1
		c0-0.1,0.1-0.3,0.1-0.4C115.2,70,114.7,69,113.9,68.3z M84.5,95c0-5.7,4.5-10.3,10.2-10.5c-0.1,0.5-0.3,1-0.4,1.5l-0.8,3.3
		l-0.6,2.8l-0.8,3.7L91.4,99c-0.1,0.6-0.2,1.3-0.4,2.2c-0.3,1.3-0.5,2.4-0.7,3.3C86.8,102.7,84.5,99,84.5,95L84.5,95z M105.5,95
		c0,5.7-4.5,10.3-10.1,10.5c0.5-1.7,0.9-3.6,1.4-5.7l0.7-3.3c0.2-0.8,0.4-1.7,0.5-2.6c0.3-1.4,0.5-2.7,0.8-3.9l0.7-3.3
		c0.1-0.4,0.2-0.8,0.3-1.2C103.3,87.4,105.5,91,105.5,95L105.5,95z"/>
</svg>
