<svg fill="none" xmlns="http://www.w3.org/2000/svg" viewBox="0 0 41 41">
  <path d="M20.3 40.6C9.1 40.6-.1 31.5 0 20.2.1 9.1 9.1-.1 20.4 0c11.1.1 20.2 9.2 20.2 20.5-.1 11-9.1 20.1-20.3 20.1z" fill="#02D2D6"/>
  <path d="M22.8 18.4c1.8.3 3.5.5 5.3.7.1-.5.3-1 .4-1.5-1.8-.3-3.6-.5-5.5-.8.6-2.2 1.2-4.4 1.9-6.5.2-.7.7-1.3 1.2-1.9.7-.7 1.6-.5 2.2.2.2.3.5.7.7.9.4.4.9.5 1.3.2.2-.2.2-.8.3-1.2 0-.2-.2-.3-.3-.5-.6-.7-1.5-1-2.4-1-2-.1-3.5.9-4.6 2.5-1.1 1.5-1.6 3.4-2.2 5.2-.2.5-.3 1.1-.5 1.6-2-.3-3.9-.6-5.8-.8-.1.5-.1 1-.2 1.5l5.7.9c-.3 1.1-.5 2.1-.7 3.1-1.9-.3-3.6-.5-5.4-.8-.1.6-.1 1-.2 1.5 1.8.3 3.5.5 5.3.8v.4c-.6 2.4-1.1 4.7-1.7 7.1-.3 1.1-.8 2.2-1.7 3-.8.6-1.6.5-2.2-.3-.3-.4-.5-.8-.8-1-.3-.2-.8-.3-1-.1-.3.2-.5.7-.4 1.1 0 .3.3.7.6.9.9.7 2.1.8 3.2.6 1.9-.4 3.2-1.6 4.1-3.2.6-1.3 1.1-2.7 1.6-4.1.4-1.3.7-2.6 1.1-3.9 1.9.3 3.7.5 5.5.8.2-.5.3-1 .4-1.5-1.9-.3-3.8-.6-5.7-.8.1-1.1.3-2 .5-3.1z" fill="#fff"/>
</svg>