<?xml version="1.0" standalone="no"?>
<!DOCTYPE svg PUBLIC "-//W3C//DTD SVG 20010904//EN"
 "http://www.w3.org/TR/2001/REC-SVG-20010904/DTD/svg10.dtd">
<svg version="1.0" xmlns="http://www.w3.org/2000/svg"
 width="700.000000pt" height="700.000000pt" viewBox="0 0 700.000000 700.000000"
 preserveAspectRatio="xMidYMid meet">
<metadata>
Created by potrace 1.11, written by Peter Selinger 2001-2013
</metadata>
<g transform="translate(0.000000,700.000000) scale(0.100000,-0.100000)"
fill="#000000" stroke="none">
<path d="M3235 6994 c-22 -2 -89 -9 -149 -14 -342 -33 -733 -141 -1056 -289
-387 -178 -692 -392 -1001 -700 -290 -290 -484 -558 -660 -911 -188 -378 -299
-755 -351 -1195 -16 -143 -16 -587 0 -730 48 -406 150 -764 317 -1111 291
-608 732 -1099 1305 -1455 424 -264 885 -426 1406 -496 165 -22 636 -24 799
-5 678 83 1260 326 1795 751 126 100 417 391 517 516 185 232 303 420 429 680
169 349 267 678 321 1081 22 164 24 606 5 769 -129 1054 -673 1948 -1542 2532
-437 294 -938 482 -1473 553 -145 20 -558 34 -662 24z m1690 -1211 c93 -23
170 -69 237 -142 l60 -66 -7 -67 c-14 -145 -45 -192 -128 -191 -78 2 -127 39
-224 170 -95 129 -192 173 -308 142 -49 -13 -147 -111 -219 -218 -57 -85 -96
-190 -196 -526 -65 -217 -210 -734 -210 -747 0 -3 64 -15 143 -27 148 -22 772
-111 782 -111 11 0 4 -38 -26 -145 -17 -60 -32 -111 -34 -113 -4 -5 -511 57
-710 87 -104 16 -191 28 -192 27 -4 -3 -73 -407 -79 -463 l-6 -62 33 -5 c19
-3 111 -14 204 -26 227 -27 718 -101 727 -109 15 -13 -48 -251 -67 -251 -7 0
-86 11 -176 25 -213 32 -731 105 -745 105 -13 0 -24 -37 -114 -363 -124 -453
-303 -922 -417 -1093 -142 -214 -325 -356 -553 -429 -112 -36 -319 -47 -420
-21 -136 34 -264 120 -301 201 -52 114 12 255 115 255 68 0 124 -36 181 -115
77 -107 155 -182 206 -195 94 -26 184 7 273 98 135 138 208 294 282 600 157
650 254 1074 254 1109 0 49 32 40 -295 88 -481 70 -600 88 -602 90 -3 1 28
249 31 252 2 2 202 -26 447 -62 244 -36 451 -65 460 -65 12 0 22 30 43 133 15
72 42 189 59 259 17 70 29 129 26 131 -2 2 -213 36 -469 76 -256 40 -472 75
-481 77 -13 4 -15 13 -8 57 4 28 10 83 14 120 4 46 12 70 21 74 18 7 202 -16
594 -73 168 -24 324 -47 347 -50 l42 -7 26 89 c62 209 226 687 268 780 164
364 395 602 664 684 136 41 316 46 448 13z"/>
</g>
</svg>
