<svg aria-hidden="true" style="position: absolute; width: 0; height: 0; overflow: hidden;" version="1.1" xmlns="http://www.w3.org/2000/svg" xmlns:xlink="http://www.w3.org/1999/xlink">
<defs>
<symbol id="icon-by" viewBox="0 0 24 24">
<title>by</title>
<path fill="#fff" style="fill: var(--color1, #fff)" d="M22.657 12.116c0 5.857-4.748 10.605-10.605 10.605s-10.605-4.748-10.605-10.605c0-5.857 4.748-10.605 10.605-10.605s10.605 4.748 10.605 10.605z"></path>
<path fill="#000" style="fill: var(--color2, #000)" d="M11.978 0c3.375 0 6.214 1.155 8.531 3.473 2.325 2.325 3.491 5.171 3.491 8.527 0 3.375-1.144 6.18-3.428 8.422-2.43 2.385-5.295 3.578-8.595 3.578-3.244 0-6.056-1.178-8.441-3.536-2.359-2.359-3.536-5.175-3.536-8.464 0-3.285 1.177-6.127 3.536-8.527 2.314-2.314 5.126-3.473 8.441-3.473zM12.023 2.164c-0.054-0.001-0.117-0.002-0.18-0.002-2.648 0-5.039 1.101-6.739 2.871l-0.003 0.003c-1.957 1.999-2.936 4.32-2.936 6.964 0 2.659 0.975 4.957 2.914 6.9 1.942 1.943 4.256 2.914 6.945 2.914 2.67 0 4.999-0.975 6.983-2.936 1.886-1.815 2.831-4.102 2.831-6.878 0.001-0.048 0.001-0.105 0.001-0.161 0-2.667-1.1-5.077-2.872-6.8l-0.002-0.002c-1.721-1.773-4.127-2.874-6.79-2.874-0.053 0-0.107 0-0.16 0.001l0.008-0zM15.236 9.022v4.905h-1.373v5.827h-3.727v-5.827h-1.373v-4.905c0-0.217 0.075-0.397 0.225-0.547 0.136-0.139 0.326-0.225 0.536-0.225 0.004 0 0.008 0 0.012 0h4.927c0.203 0 0.379 0.075 0.536 0.225s0.236 0.334 0.236 0.548zM10.328 5.936c0-1.125 0.559-1.691 1.672-1.691s1.672 0.563 1.672 1.688c0 1.118-0.559 1.676-1.672 1.676s-1.672-0.559-1.672-1.673z"></path>
</symbol>
<symbol id="icon-cc" viewBox="0 0 24 24">
<title>cc</title>
<path fill="#fff" style="fill: var(--color1, #fff)" d="M22.92 12c0 5.972-4.841 10.814-10.813 10.814s-10.814-4.841-10.814-10.814c0-5.972 4.841-10.813 10.814-10.813s10.813 4.841 10.813 10.813z"></path>
<path fill="#000" style="fill: var(--color2, #000)" d="M11.978 0c3.357 0 6.214 1.172 8.571 3.514 1.128 1.128 1.986 2.418 2.571 3.868s0.879 2.989 0.879 4.618c0 1.643-0.29 3.182-0.868 4.617s-1.433 2.704-2.561 3.804c-1.171 1.157-2.5 2.043-3.986 2.657s-3.021 0.921-4.607 0.921-3.104-0.303-4.554-0.911c-1.45-0.607-2.75-1.485-3.9-2.635s-2.025-2.447-2.625-3.889-0.9-2.964-0.9-4.564c0-1.586 0.303-3.111 0.91-4.575s1.49-2.775 2.646-3.932c2.286-2.328 5.093-3.493 8.421-3.493zM12.021 2.165c-2.743 0-5.050 0.957-6.922 2.871-0.943 0.957-1.668 2.032-2.175 3.225-0.481 1.096-0.761 2.373-0.761 3.715 0 0.008 0 0.017 0 0.025v-0.001c0 1.286 0.253 2.525 0.761 3.717 0.507 1.194 1.232 2.258 2.175 3.193s2.007 1.65 3.193 2.143c1.092 0.467 2.363 0.739 3.698 0.739 0.011 0 0.022-0 0.032-0h-0.002c1.285 0 2.531-0.249 3.74-0.75 1.207-0.501 2.295-1.221 3.267-2.164 1.871-1.828 2.806-4.121 2.806-6.879 0-1.329-0.243-2.586-0.729-3.771s-1.193-2.242-2.12-3.172c-1.93-1.929-4.251-2.893-6.965-2.893zM11.871 10.008l-1.608 0.836c-0.172-0.357-0.382-0.607-0.632-0.75s-0.482-0.214-0.697-0.214c-1.071 0-1.607 0.707-1.607 2.121 0 0.643 0.136 1.157 0.407 1.542s0.672 0.579 1.2 0.579c0.7 0 1.193-0.343 1.479-1.029l1.478 0.75c-0.314 0.586-0.75 1.047-1.307 1.382s-1.171 0.504-1.843 0.504c-1.071 0-1.936-0.328-2.593-0.986s-0.986-1.571-0.986-2.742c0-1.143 0.332-2.050 0.996-2.721s1.503-1.007 2.518-1.007c1.486-0.001 2.55 0.578 3.193 1.735zM18.792 10.008l-1.586 0.836c-0.171-0.357-0.383-0.607-0.632-0.75s-0.49-0.214-0.718-0.214c-1.071 0-1.608 0.707-1.608 2.121 0 0.643 0.136 1.157 0.407 1.542s0.671 0.579 1.2 0.579c0.699 0 1.192-0.343 1.478-1.029l1.5 0.75c-0.328 0.586-0.771 1.047-1.328 1.382-0.512 0.316-1.134 0.504-1.798 0.504-0.008 0-0.016-0-0.024-0h0.001c-1.086 0-1.953-0.328-2.603-0.986-0.651-0.657-0.976-1.571-0.976-2.742 0-1.143 0.332-2.050 0.997-2.721 0.664-0.671 1.503-1.007 2.517-1.007 1.486-0.001 2.544 0.578 3.172 1.735z"></path>
</symbol>
<symbol id="icon-wechat" viewBox="0 0 24 24">
<title>wechat</title>
<path d="M23.541 12.748c-0.609-1.38-1.758-2.476-3.092-3.151-2.354-1.192-5.281-1.185-7.629 0.030-1.631 0.837-2.993 2.337-3.379 4.162-0.318 1.344-0.033 2.791 0.68 3.961 1.061 1.762 2.979 2.887 4.971 3.248 1.443 0.293 2.936 0.119 4.338-0.285 0.842 0.326 1.592 0.854 2.408 1.246-0.211-0.707-0.436-1.406-0.676-2.102 0.916-0.65 1.746-1.461 2.244-2.479 0.744-1.415 0.789-3.171 0.135-4.63zM13.617 3.282c-2.495-1.404-5.602-1.615-8.286-0.645-1.764 0.635-3.36 1.815-4.346 3.42-0.895 1.45-1.23 3.258-0.799 4.917 0.433 1.84 1.711 3.383 3.262 4.413-0.3 0.85-0.585 1.699-0.855 2.555 0.975-0.51 1.95-1.043 2.926-1.561 1.17 0.375 2.415 0.559 3.66 0.518-0.33-0.943-0.405-1.965-0.255-2.951 0.225-1.371 0.975-2.625 1.994-3.554 1.726-1.615 4.171-2.296 6.496-2.131-0.436-2.135-1.936-3.939-3.824-4.98zM15.35 13.271c-0.209 0.652-1.156 0.848-1.615 0.352-0.506-0.459-0.309-1.418 0.355-1.623 0.734-0.31 1.582 0.537 1.26 1.271zM20.145 13.363c-0.256 0.586-1.141 0.723-1.576 0.27-0.209-0.191-0.27-0.479-0.344-0.73 0.104-0.458 0.42-0.933 0.93-0.955 0.705-0.098 1.336 0.773 0.975 1.416zM12.99 6.909c0.008 0.961-1.275 1.561-1.995 0.909-0.747-0.535-0.535-1.837 0.342-2.106 0.785-0.315 1.713 0.344 1.651 1.185zM6.931 7.153c-0.172 0.835-1.291 1.238-1.946 0.678-0.759-0.535-0.546-1.861 0.345-2.131 0.873-0.336 1.865 0.55 1.601 1.453z"></path>
</symbol>
<symbol id="icon-matrix" viewBox="0 0 24 24">
<title>matrix</title>
<path d="M0.632 0.55v22.9h1.648v0.55h-2.28v-24h2.28v0.55zM7.675 7.81v1.157h0.033c0.309-0.443 0.683-0.784 1.117-1.024 0.433-0.245 0.936-0.365 1.5-0.365 0.54 0 1.033 0.107 1.481 0.314 0.448 0.208 0.785 0.582 1.020 1.108 0.254-0.374 0.6-0.706 1.034-0.992 0.434-0.287 0.95-0.43 1.546-0.43 0.453 0 0.872 0.056 1.26 0.167 0.388 0.11 0.716 0.286 0.993 0.53 0.276 0.245 0.489 0.559 0.646 0.951 0.152 0.392 0.23 0.863 0.23 1.417v5.728h-2.349v-4.851c0-0.286-0.010-0.559-0.032-0.812-0.018-0.243-0.082-0.468-0.185-0.67l0.005 0.010c-0.102-0.19-0.251-0.342-0.433-0.445l-0.005-0.003c-0.194-0.11-0.457-0.166-0.785-0.166-0.332 0-0.6 0.064-0.803 0.189-0.2 0.125-0.363 0.293-0.476 0.492l-0.004 0.007c-0.115 0.201-0.196 0.436-0.23 0.686l-0.001 0.010c-0.037 0.235-0.058 0.507-0.060 0.783v4.77h-2.35v-4.8c0-0.254-0.004-0.503-0.018-0.752-0.009-0.25-0.061-0.485-0.148-0.702l0.005 0.014c-0.084-0.211-0.228-0.383-0.411-0.5l-0.004-0.003c-0.194-0.125-0.476-0.19-0.854-0.19-0.111 0-0.259 0.024-0.439 0.074-0.18 0.051-0.36 0.143-0.53 0.282-0.171 0.138-0.319 0.337-0.439 0.595-0.12 0.259-0.18 0.6-0.18 1.020v4.966h-2.349v-8.565zM23.368 23.45v-22.9h-1.648v-0.55h2.28v24h-2.28v-0.55z"></path>
</symbol>
<symbol id="icon-youtube" viewBox="0 0 24 24">
<title>youtube</title>
<path d="M23.495 6.205c-0.29-1.015-1.073-1.798-2.067-2.083l-0.021-0.005c-1.87-0.501-9.396-0.501-9.396-0.501s-7.507-0.010-9.396 0.501c-1.015 0.29-1.798 1.073-2.083 2.067l-0.005 0.021c-0.332 1.71-0.522 3.677-0.522 5.689 0 0.041 0 0.082 0 0.122l-0-0.006c-0 0.028-0 0.061-0 0.095 0 2.011 0.19 3.978 0.553 5.884l-0.031-0.195c0.29 1.015 1.073 1.798 2.067 2.083l0.021 0.005c1.868 0.502 9.396 0.502 9.396 0.502s7.506 0 9.396-0.502c1.015-0.29 1.798-1.073 2.083-2.067l0.005-0.021c0.319-1.675 0.501-3.602 0.501-5.571 0-0.074-0-0.149-0.001-0.223l0 0.011c0.001-0.069 0.001-0.151 0.001-0.233 0-1.97-0.182-3.897-0.531-5.766l0.030 0.193zM9.609 15.601v-7.193l6.264 3.602z"></path>
</symbol>
<symbol id="icon-slack" viewBox="0 0 24 24">
<title>slack</title>
<path d="M5.042 15.165c-0.003 1.391-1.129 2.518-2.52 2.523h-0c-1.392-0.003-2.519-1.131-2.522-2.523v-0c0.004-1.391 1.131-2.517 2.522-2.52h2.52zM6.313 15.165c0.004-1.39 1.13-2.517 2.521-2.52h0c1.391 0.003 2.517 1.13 2.521 2.52v6.313c-0.003 1.391-1.13 2.518-2.521 2.522h-0c-1.391-0.004-2.518-1.131-2.521-2.522v-0zM8.834 5.042c-1.39-0.004-2.516-1.13-2.521-2.52v-0c0.003-1.391 1.13-2.518 2.521-2.522h0c1.391 0.004 2.518 1.131 2.521 2.522v2.52zM8.834 6.313c1.391 0.004 2.517 1.13 2.521 2.521v0c-0.004 1.391-1.13 2.517-2.521 2.521h-6.312c-1.391-0.003-2.518-1.13-2.522-2.521v-0c0.004-1.391 1.131-2.518 2.522-2.521h0zM18.956 8.834c0.004-1.391 1.131-2.518 2.522-2.521h0c1.391 0.003 2.518 1.13 2.522 2.521v0c-0.004 1.391-1.131 2.518-2.522 2.521h-2.522zM17.688 8.834c-0.004 1.391-1.131 2.518-2.523 2.521h-0c-1.39-0.004-2.517-1.13-2.52-2.521v-6.312c0.003-1.391 1.129-2.518 2.52-2.522h0c1.392 0.003 2.52 1.13 2.523 2.522v0zM15.165 18.956c1.392 0.003 2.52 1.13 2.523 2.522v0c-0.003 1.392-1.131 2.519-2.523 2.522h-0c-1.391-0.004-2.517-1.131-2.52-2.522v-2.522zM15.165 17.688c-1.391-0.004-2.518-1.132-2.52-2.523v-0c0.003-1.39 1.13-2.517 2.52-2.52h6.313c1.391 0.003 2.518 1.129 2.522 2.52v0c-0.003 1.392-1.13 2.52-2.522 2.523h-0z"></path>
</symbol>
<symbol id="icon-twitter" viewBox="0 0 24 24">
<title>twitter</title>
<path d="M23.954 4.569c-0.885 0.389-1.83 0.654-2.825 0.775 1.014-0.611 1.794-1.574 2.163-2.723-0.951 0.555-2.005 0.959-3.127 1.184-0.896-0.959-2.173-1.559-3.591-1.559-2.717 0-4.92 2.203-4.92 4.917 0 0.39 0.045 0.765 0.127 1.124-4.090-0.193-7.715-2.157-10.141-5.126-0.427 0.722-0.666 1.561-0.666 2.475 0 1.71 0.87 3.213 2.188 4.096-0.807-0.026-1.566-0.248-2.228-0.616v0.061c0 2.385 1.693 4.374 3.946 4.827-0.413 0.111-0.849 0.171-1.296 0.171-0.314 0-0.615-0.030-0.916-0.086 0.631 1.953 2.445 3.377 4.604 3.417-1.68 1.319-3.809 2.105-6.102 2.105-0.39 0-0.779-0.023-1.17-0.067 2.189 1.394 4.768 2.209 7.557 2.209 9.054 0 13.999-7.496 13.999-13.986 0-0.209 0-0.42-0.015-0.63 0.961-0.689 1.8-1.56 2.46-2.548z"></path>
</symbol>
</defs>
</svg>
