<svg width="117" height="75" viewBox="0 0 117 75" fill="none" xmlns="http://www.w3.org/2000/svg">
<g clip-path="url(#clip0_406_5437)">
<path d="M35.4807 33.9634C35.6153 33.9634 35.7132 34.049 35.8111 34.1102C36.1659 34.1469 36.5207 34.1836 36.8632 34.1102C37.6585 33.8043 38.05 33.266 38.0133 32.4218C38.0133 32.1282 38.1112 31.9691 38.3559 31.859C38.6617 31.7244 38.9554 31.5776 39.249 31.4308C40.815 30.6355 42.3811 29.8525 43.9471 29.0573C44.828 28.6046 45.6844 28.1397 46.5653 27.687C46.602 27.4912 46.7488 27.4545 46.8467 27.6014C46.9324 27.7359 46.9935 27.9439 46.7244 28.0051C46.2105 28.6046 45.8068 29.2775 45.3541 29.9137C43.9226 31.9324 42.5156 33.9634 41.0964 35.9943C40.5336 36.8018 39.9586 37.6093 39.408 38.4168C39.3713 38.4657 39.1756 38.5636 39.3836 38.6615C39.5916 38.7716 40.1421 38.6492 40.2767 38.4657C41.7326 36.3858 43.1763 34.2937 44.6322 32.2138C45.4887 30.9781 46.3818 29.7547 47.2137 28.5067C47.4707 28.1274 47.7765 28.3966 48.0457 28.3354C48.2537 28.2987 48.2782 28.4822 48.3271 28.6168C48.4984 29.094 48.6697 29.5711 48.8287 30.0605C49.3793 31.6877 49.9176 33.3027 50.4559 34.9299C50.7373 35.7741 51.0065 36.6305 51.2879 37.487C51.5326 37.8295 51.6182 38.2333 51.6916 38.6248C51.9119 38.9306 52.2177 38.7716 52.4991 38.7716C52.4379 38.4902 52.3034 38.221 52.2055 37.9519C51.6672 36.3858 51.1533 34.8076 50.6395 33.2415C50.3948 33.0825 50.4682 32.8011 50.3948 32.5809C50.199 31.9814 50.0033 31.3941 49.8075 30.7946C49.5873 30.1217 49.367 29.4488 49.1468 28.7759C49.0489 28.6535 48.9633 28.519 49 28.3477C48.9144 28.2498 48.8899 28.1152 49 28.0418C49.1101 27.9684 49.2325 28.0173 49.2569 28.1764C49.2814 28.1764 49.2936 28.1886 49.3181 28.2008C49.5139 28.2743 49.6484 28.4211 49.7341 28.6168C50.3581 29.2408 50.982 29.8648 51.606 30.4887C51.8017 30.5621 51.9363 30.709 52.022 30.9047C52.1076 31.0026 52.1933 31.1127 52.2789 31.1983C53.2821 32.1893 54.2976 33.1681 55.3009 34.1591C55.4232 34.2692 55.5211 34.3549 55.411 34.6118C54.8971 35.8842 55.8392 37.0587 57.0259 37.0098C57.8824 36.9731 58.6164 36.2757 58.6654 35.4193C58.7143 34.5384 58.1026 33.7799 57.2339 33.6453C57.0382 33.6453 56.8547 33.6575 56.6589 33.6697C56.5366 33.7676 56.402 33.841 56.2307 33.8043C56.0472 33.8533 55.9004 33.7921 55.7658 33.6453C55.5333 33.3883 55.2886 33.1437 55.0317 32.899C53.2944 31.1739 51.5571 29.4366 49.8197 27.7115C49.7341 27.6258 49.624 27.5524 49.624 27.4301C49.624 26.9407 49.8809 26.647 50.3703 26.488C51.398 26.1577 52.4257 25.7906 53.4534 25.4603C54.2976 25.1911 55.1418 24.9342 55.9982 24.665C56.0349 24.506 56.145 24.506 56.2674 24.5305C56.3897 24.506 56.4999 24.4815 56.6222 24.4448C57.9313 24.0166 59.2282 23.5762 60.5373 23.1357C61.7118 22.7442 62.8863 22.3527 64.0731 21.9734C64.7827 21.7532 65.4556 21.4596 66.1897 21.3127C66.2142 21.1537 66.3365 21.1537 66.4589 21.1782C67.3153 20.909 68.1717 20.6521 69.0159 20.3462C69.2484 20.2606 69.3462 20.3095 69.4808 20.4685C69.909 20.9579 70.4351 21.1537 71.0836 21.0436C71.9033 20.8968 72.6129 20.1137 72.5028 19.343C72.3682 18.3642 71.8788 17.7769 70.8756 17.7035C69.8968 17.6301 69.1872 18.303 69.0648 19.2818C69.0526 19.4164 69.1015 19.5999 68.8813 19.6366C68.759 19.7345 68.6366 19.8201 68.4653 19.7834C68.2329 19.8446 68.0004 19.9058 67.7802 19.9792C66.2753 20.4808 64.7582 20.9946 63.2534 21.4963C63.1433 21.7165 62.9475 21.6675 62.7518 21.6553C61.8709 21.9489 60.99 22.2548 60.0968 22.5484C58.9345 22.9277 57.7723 23.2825 56.6222 23.6618C55.4844 24.0411 54.3588 24.4693 53.2087 24.8119C52.0954 25.1544 50.9943 25.5337 49.8931 25.9007C49.8809 26.0108 49.8197 26.0598 49.7096 26.0475C49.5873 26.0475 49.5628 25.9741 49.575 25.864C49.4772 25.4481 49.0612 25.3135 48.841 25.0076C48.7676 24.6406 48.9144 24.298 48.9388 23.931C48.9633 23.5394 49.0979 23.1479 49.0734 22.7442C49.0734 22.6096 49.1101 22.475 49.2202 22.3894C49.2202 22.3404 49.2202 22.2915 49.2325 22.2426C49.2325 21.8755 49.1346 21.4963 49.3915 21.1782V21.0313C49.416 20.7255 49.2325 20.3829 49.5383 20.1137C49.5383 20.0403 49.5383 19.9669 49.5506 19.8813C49.575 19.5999 49.3793 19.2818 49.6974 19.0493C49.6974 18.5844 49.9054 18.144 49.8809 17.679C49.8809 17.4466 49.8075 17.2019 50.0155 17.0061C50.0155 16.8716 50.0277 16.7492 50.04 16.6146C50.0277 16.3455 50.0155 16.0885 50.1868 15.8561C50.1868 15.7582 50.1868 15.6481 50.199 15.5502C50.199 15.4401 50.199 15.33 50.199 15.2199C50.2479 14.6693 50.2235 14.1065 50.4192 13.5804C50.4926 13.2379 50.3091 12.8464 50.6027 12.5405C50.6272 12.1857 50.4559 11.7942 50.7496 11.4761C50.7496 11.3782 50.7496 11.2681 50.7618 11.1702C50.774 10.8888 50.6272 10.5829 50.9086 10.3383C50.9086 10.2648 50.9208 10.1792 50.9331 10.1058C50.9331 9.87333 50.8597 9.62864 51.0677 9.43289C51.0677 9.29831 51.0799 9.17596 51.0921 9.04138C51.0921 8.88233 51.0921 8.72328 51.0921 8.56423C51.0921 7.75674 51.3368 6.98596 51.3491 6.17847C51.3491 6.10506 51.4469 6.01942 51.4959 5.94601C51.4959 5.89707 51.4959 5.84813 51.4959 5.79919C51.5326 5.49333 51.3368 5.15076 51.6549 4.88159C51.6672 4.85713 51.6672 4.84489 51.6549 4.82042C51.6549 4.56349 51.6549 4.30657 51.6549 4.06187C51.6549 3.95176 51.6672 3.84165 51.814 3.82941C51.7773 3.48684 51.9975 3.37673 52.2789 3.30332C52.8417 3.14427 53.2087 2.765 53.38 2.21444V1.12555C52.9396 0.195721 52.3401 -0.12238 51.3368 0.0489049C50.6517 0.171251 50.1378 0.819688 50.04 1.68835C50.2112 1.85963 50.199 2.05539 50.1745 2.27561C50.3336 2.72829 50.6639 3.03416 51.0799 3.24215C51.2634 3.24215 51.2389 3.3645 51.2389 3.48684C51.2389 3.62142 51.3124 3.78048 51.0921 3.81718C51.0921 3.97623 51.0799 4.12305 51.0677 4.2821C51.0677 4.49009 51.2022 4.72254 50.9331 4.88159C50.9331 4.99171 50.9086 5.08958 50.9086 5.1997C50.9086 5.30981 50.9086 5.41992 50.9086 5.53003C50.9576 5.79919 50.8597 6.03165 50.774 6.27635C50.8107 6.61892 50.7006 6.93702 50.6272 7.26735C50.5783 7.9892 50.3703 8.69881 50.3581 9.43289C50.3214 9.76322 50.5171 10.1425 50.2112 10.4239C50.2112 10.4973 50.2112 10.5707 50.199 10.6564C50.1623 10.9377 50.3703 11.2559 50.0522 11.4883C50.0522 11.6229 50.04 11.7452 50.0277 11.8798C50.0032 12.1123 50.1868 12.3814 49.8931 12.5527C49.8931 12.6261 49.8809 12.7118 49.8687 12.7852C49.8687 13.0176 49.9421 13.2623 49.7341 13.4581C49.783 13.9597 49.5873 14.4246 49.5506 14.9018C49.5873 15.2443 49.5016 15.5747 49.4038 15.8928C49.4038 15.9173 49.4038 15.9417 49.4038 15.954C49.4527 16.2354 49.3426 16.4923 49.3181 16.7737C49.2936 17.1897 49.416 17.6179 49.1468 17.9971C49.1468 18.0706 49.1468 18.144 49.1468 18.2296C49.1101 18.511 49.3181 18.8291 49 19.0616C49 19.1961 48.9878 19.3185 48.9755 19.4531C48.9511 19.6855 49.1346 19.9547 48.841 20.126C48.7798 20.5909 48.7186 21.0436 48.6574 21.5085C48.6819 21.7777 48.6819 22.0346 48.5229 22.2548C48.5229 22.3527 48.5229 22.4628 48.5106 22.5607C48.5718 22.8665 48.4372 23.1479 48.425 23.4416C48.425 23.8086 48.5229 24.1879 48.2659 24.506C48.2415 24.6528 48.2292 24.7874 48.1925 24.9709C47.9723 24.8486 47.9234 24.7017 47.9478 24.506C47.9356 24.4815 47.9234 24.457 47.9234 24.4326C47.801 24.2858 47.7398 24.1267 47.7765 23.931C47.6053 23.2825 47.4462 22.6341 47.2749 21.9856C47.018 21.8144 47.1281 21.5574 47.1159 21.3372C47.0302 20.9946 46.9446 20.6398 46.8589 20.2973C46.7366 20.1504 46.6754 19.9792 46.7121 19.7956C46.602 19.343 46.4919 18.878 46.3696 18.4254C46.1371 18.3397 46.235 18.1562 46.235 17.9971C45.819 16.4189 45.4153 14.8528 44.9993 13.2746C44.7546 13.1278 44.8402 12.8953 44.8525 12.6873C44.8525 12.6628 44.8525 12.6384 44.8525 12.6261C44.5955 12.4916 44.7056 12.2469 44.6934 12.0511C44.5711 11.7452 44.6567 11.5372 44.9259 11.3415C45.2807 11.0846 45.4642 10.7053 45.5131 10.2648C45.5131 10.1058 45.5131 9.93451 45.5131 9.77546C45.3418 9.02914 44.8647 8.57646 44.1184 8.38071C43.9226 8.38071 43.7391 8.38071 43.5434 8.38071C42.5523 8.5887 42.0752 9.29831 42.1608 10.4239C42.4055 10.4851 42.2954 10.6808 42.3199 10.8276C42.4667 11.1702 42.7114 11.4149 43.054 11.5617C43.2375 11.5617 43.4332 11.5005 43.5434 11.7208C43.6902 11.7575 43.8859 11.6841 43.9471 11.9043C44.0694 12.4059 44.1796 12.9075 44.2897 13.4214C44.5221 13.507 44.4242 13.6905 44.4242 13.8496C44.4854 14.0698 44.5344 14.2778 44.5955 14.498C44.828 14.8773 44.9259 15.2933 44.9136 15.7337C44.9136 15.8683 45.0727 15.9784 44.9993 16.1252C45.2195 16.945 45.4397 17.7525 45.6477 18.5722C45.8679 18.6945 45.819 18.8903 45.7945 19.0738V19.2206C46.0392 19.5632 46.1126 19.9547 46.1371 20.3584C46.1371 20.5053 46.2839 20.6154 46.2227 20.7622C46.394 21.4351 46.5531 22.1202 46.7244 22.7931C46.9813 23.2458 47.0302 23.7597 47.1281 24.2613C47.2138 24.4448 47.3116 24.6161 47.2872 24.8363C47.3361 25.0198 47.3116 25.1667 47.1159 25.2768C46.9935 25.3379 46.8712 25.4603 46.7978 25.5704C46.6754 25.7906 46.4797 25.7662 46.3084 25.705C45.819 25.5459 45.3418 25.3502 44.8525 25.1789C44.0083 24.8975 43.1763 24.6161 42.3321 24.3347C41.8427 24.1879 41.3533 24.0411 40.864 23.8943C40.8273 23.8943 40.815 23.8086 40.7906 23.7719C40.2278 23.5639 39.6772 23.3437 39.1022 23.1724C38.8819 23.099 38.8085 23.0256 38.7963 22.8054C38.7229 21.6308 37.5117 20.8356 36.4473 21.3127C35.7743 21.6186 35.4073 22.1325 35.3828 22.8298C35.3584 23.4538 35.6275 24.0166 36.227 24.3469C36.8143 24.665 37.4138 24.5916 38.0011 24.3469C38.1356 24.1512 38.3192 24.0044 38.5027 23.8698C38.6984 23.6496 38.833 23.8698 38.9921 23.9432C40.032 24.298 41.072 24.6406 42.0997 25.0076C43.4332 25.4725 44.7668 25.9374 46.1126 26.4024C46.2717 26.4513 46.4552 26.488 46.4307 26.7449C46.4185 26.9284 46.3573 27.0386 46.186 27.1242C43.4577 28.4945 40.7416 29.8648 38.0255 31.2595C37.7686 31.3941 37.634 31.3696 37.426 31.1983C36.8755 30.7579 36.2637 30.709 35.6275 30.9781C34.4652 31.4797 34.2572 33.2048 35.4807 33.9756V33.9634Z" fill="#5F7C95"/>
<path d="M44.7662 47.5561C44.7662 45.5251 44.7662 43.4819 44.7662 41.451C44.7662 41.1574 44.7295 40.9494 44.3502 40.9738C43.9465 40.9983 43.5305 40.9983 43.1267 40.9738C42.7719 40.9616 42.6251 41.0717 42.6251 41.4632C42.6496 42.7234 42.6251 43.9836 42.6251 45.2437C42.6251 45.415 42.6496 45.5863 42.515 45.7576C42.4538 45.6842 42.4049 45.6352 42.3682 45.5863C41.2548 44.1549 40.1415 42.7356 39.0281 41.3042C38.8446 41.0717 38.6488 40.9494 38.343 40.9738C37.8903 40.9983 37.4498 40.9861 36.9972 40.9738C36.728 40.9738 36.6301 41.0717 36.6301 41.3286C36.6301 43.8368 36.6301 46.3449 36.6301 48.853C36.6301 49.0854 36.728 49.1588 36.9482 49.1588C37.4498 49.1588 37.9515 49.1466 38.4531 49.1588C38.7467 49.1588 38.8201 49.0487 38.8079 48.7796C38.7957 47.9965 38.8079 47.2013 38.8079 46.4183V44.4363C38.8446 44.4363 38.8813 44.4118 38.9058 44.3995C39.1138 44.6442 39.3218 44.8889 39.5175 45.1459C40.4963 46.406 41.4751 47.6662 42.4538 48.9264C42.5517 49.061 42.674 49.1466 42.8576 49.1466C43.3837 49.1466 43.922 49.1344 44.4481 49.1466C44.705 49.1466 44.7662 49.0365 44.7662 48.804C44.7662 48.388 44.7662 47.9598 44.7662 47.5439V47.5561Z" fill="#5F7C95"/>
<path d="M117 45.7699C117 45.256 117 44.7422 117 44.2283C117 44.1794 116.988 44.1182 116.976 44.0693C116.804 43.9714 116.804 43.8123 116.841 43.641C116.621 42.7846 116.107 42.1606 115.361 41.6957C115.226 41.7202 115.165 41.6468 115.116 41.5367C114.675 41.2675 114.174 41.1452 113.66 41.0718C112.571 40.9127 111.47 41.0351 110.369 40.9861C110.002 40.9739 109.892 41.1207 109.904 41.4633C109.916 42.3075 109.904 43.1394 109.904 43.9836C109.904 45.5741 109.904 47.1524 109.904 48.7429C109.904 48.9509 109.88 49.1711 110.198 49.1589C111.898 49.0855 113.66 49.4647 115.263 48.5349C115.287 48.3881 115.397 48.3758 115.52 48.3758C116.278 47.7519 116.841 47.0178 117 46.0268V45.7821V45.7699ZM114.003 46.9199C113.807 47.0667 113.599 47.1891 113.342 47.1769C113.256 47.3971 113.073 47.3114 112.914 47.3114C112.359 47.3441 112.082 47.0871 112.082 46.5406C112.082 45.4518 112.094 44.3751 112.082 43.2985C112.082 42.9314 112.216 42.8213 112.559 42.8336C113.452 42.858 114.223 43.0415 114.639 43.9714C115.091 44.9868 114.859 46.3327 114.027 46.9199H114.003Z" fill="#5F7C95"/>
<path d="M7.03481 43.9714C6.54542 42.1729 5.33419 41.243 3.51123 41.035C2.50799 40.9249 1.50475 41.035 0.501505 40.9739C0.122231 40.9494 -0.0123501 41.0595 -0.0123501 41.4633C0.0121192 43.1761 -0.0123501 44.889 -0.0123501 46.5896C-0.0123501 47.3359 -0.0123501 48.0822 -0.0123501 48.8285C-0.0123501 48.9998 -0.0245847 49.1711 0.220108 49.1589C1.50475 49.1099 2.80162 49.2812 4.07402 49.012C4.22084 48.9019 4.37989 48.8285 4.56341 48.853C5.84805 48.3391 6.70447 47.4582 7.01034 46.088C7.12045 45.3783 7.08375 44.681 7.01034 43.9714H7.03481ZM4.7714 45.9289C4.37989 47.0912 3.33994 47.3848 2.31223 47.3114C2.16542 47.3114 2.14095 47.2135 2.14095 47.0912C2.14095 45.7454 2.14095 44.3996 2.14095 43.066C2.14095 42.8825 2.22659 42.8213 2.39788 42.8335C3.51123 42.8458 4.29425 42.9192 4.75916 44.1426C4.86928 44.1916 4.91822 44.2772 4.93045 44.3996C4.93045 44.84 4.93045 45.2927 4.93045 45.7331C4.93045 45.8433 4.89375 45.9167 4.7714 45.9289V45.9289Z" fill="#5F7C95"/>
<path d="M60.6715 48.8652C60.8183 49.061 61.0019 49.1344 61.2588 49.1344C61.8828 49.1099 62.4945 49.1344 63.1185 49.1344C63.253 49.1344 63.4366 49.2078 63.4488 48.9631C62.6046 47.9843 61.8705 46.9199 61.063 45.8922C61.3934 45.6965 61.7604 45.623 62.0296 45.3661C62.678 44.7544 62.8003 44.0081 62.7147 43.1639C62.6046 42.1117 61.7971 41.243 60.7449 41.0718C60.0109 40.9494 59.289 41.0106 58.5549 41.0106C57.9799 41.0106 57.3926 40.9494 56.8176 41.0473C56.6953 41.6223 56.7687 42.1973 56.7687 42.7846C56.7687 44.7911 56.7687 46.7976 56.7687 48.8041C56.7687 49.1099 56.8421 49.2078 57.1479 49.1956C57.6129 49.1711 58.0655 49.1711 58.5305 49.1956C58.8119 49.2078 58.9097 49.1222 58.8975 48.8285C58.873 48.1189 58.8975 47.4215 58.8975 46.7119C58.8975 46.5773 58.8363 46.4183 58.9954 46.247C59.5582 47.1401 60.121 48.0088 60.6715 48.8897V48.8652ZM58.873 44.1794C58.8975 43.7878 58.8853 43.3963 58.873 43.0048C58.873 42.7846 58.9464 42.6745 59.1789 42.6867C59.6193 42.6867 60.072 42.699 60.3779 43.1149C60.8183 43.7144 60.4391 44.4852 59.656 44.6198C59.5459 44.632 59.4358 44.632 59.2523 44.6443C58.9709 44.7177 58.8608 44.5464 58.8853 44.1916L58.873 44.1794Z" fill="#5F7C95"/>
<path d="M74.1299 49.1587C74.3623 49.1587 74.3868 49.0609 74.3134 48.8529C73.9463 47.8863 73.5793 46.9198 73.2245 45.941C73.1266 45.8187 73.0777 45.6841 73.0777 45.5251C72.5516 44.1181 72.0255 42.6989 71.4872 41.2919C71.426 41.1328 71.3281 40.9615 71.0712 40.9738C70.5084 40.9982 69.9334 40.9738 69.3583 40.9738C69.1259 40.9738 68.9668 41.0472 68.8812 41.3163C68.612 42.0994 68.3062 42.8701 68.0003 43.6409C67.5598 44.791 67.0949 45.9288 66.6667 47.0666C66.4465 47.6539 66.2385 48.2534 66.0305 48.8406C66.0305 49.0609 66.1406 49.0976 66.3364 49.0976C66.9481 49.0976 67.5476 49.0976 68.1593 49.0976C68.3184 48.7428 68.4897 48.4002 68.612 48.0332C68.6854 47.8252 68.8078 47.7762 69.0035 47.7762C69.5174 47.7762 70.0312 47.7762 70.5451 47.7762C71.2873 47.7762 71.7726 48.1351 72.001 48.8529C72.1723 48.8651 72.1601 48.9875 72.1478 49.1098C72.8085 49.2077 73.4692 49.1343 74.1299 49.1465V49.1587ZM70.7042 46.1246C70.3371 46.1123 69.9701 46.1246 69.603 46.1246C69.4929 46.1246 69.3461 46.1246 69.395 45.9655C69.603 45.2437 69.8477 44.534 70.1414 43.8367C70.1781 43.8367 70.2148 43.8367 70.2515 43.8489C70.4717 44.4973 70.6919 45.158 70.9366 45.8065C71.0345 46.0756 70.9611 46.1368 70.7042 46.1246V46.1246Z" fill="#5F7C95"/>
<path d="M97.6083 49.1711C97.9142 49.1711 98.0121 49.0733 97.9999 48.7796C97.9754 48.4003 97.9754 48.0211 97.9999 47.6418C98.0121 47.3849 97.9264 47.3115 97.6818 47.3237C96.9844 47.3359 96.2992 47.3237 95.6019 47.3237H94.6231C95.0635 46.6018 95.455 45.9656 95.8343 45.3294C96.6173 44.0203 97.4126 42.7112 98.1834 41.4021C98.3914 41.0596 98.3424 40.9861 97.9387 40.9861C95.9934 40.9861 94.0603 40.9861 92.115 40.9861C91.7602 40.9861 91.6256 41.1207 91.6501 41.4633C91.6623 41.708 91.6501 41.9527 91.6501 42.1974C91.6501 42.6215 91.8703 42.8336 92.3107 42.8336C93.0081 42.8336 93.6933 42.8336 94.3906 42.8336C94.7332 42.8336 94.7699 42.9559 94.6109 43.2129C93.889 44.3874 93.1794 45.5619 92.4576 46.7364C91.9804 47.5195 91.5032 48.3025 91.0383 49.0855C91.1974 49.2078 91.3564 49.1711 91.5033 49.1711C92.3352 49.1711 93.1549 49.1711 93.9869 49.1711C95.1981 49.1711 96.3971 49.1711 97.6083 49.1711V49.1711Z" fill="#5F7C95"/>
<path d="M15.0854 47.3114C14.6938 47.3114 14.3023 47.3114 13.8986 47.3114C12.8342 47.3114 12.8464 47.3114 12.8831 46.2469C12.8831 45.99 12.981 45.9288 13.2257 45.9288C13.8007 45.9288 14.3635 45.9288 14.9385 45.9288C15.1588 45.9288 15.2566 45.8677 15.2444 45.6352C15.2322 45.2192 15.2444 44.791 15.2444 44.375C15.2444 44.1793 15.171 44.1181 14.9875 44.1181C14.5837 44.1181 14.1678 44.1181 13.764 44.1181C12.8709 44.1181 12.8831 44.1181 12.8831 43.2372C12.8831 42.9191 12.9932 42.7968 13.3113 42.809C13.8986 42.8212 14.4736 42.809 15.0609 42.809C15.2811 42.809 15.379 42.7356 15.379 42.5031C15.3668 42.0994 15.3668 41.6834 15.379 41.2797C15.379 41.035 15.2933 40.9493 15.0487 40.9493C14.4002 40.9616 13.7395 40.9493 13.0911 40.9493C12.4427 40.9493 11.782 40.9493 11.1336 40.9493C10.8399 40.9493 10.6931 41.035 10.6931 41.3653C10.6931 43.8245 10.6931 46.2836 10.6931 48.7306C10.6931 48.9997 10.7665 49.1221 11.0602 49.1221C12.406 49.1221 13.7518 49.1221 15.0976 49.1221C15.3056 49.1221 15.3912 49.0487 15.379 48.8407C15.379 48.4125 15.3668 47.972 15.379 47.5438C15.379 47.3114 15.2811 47.2747 15.0854 47.2747V47.3114Z" fill="#5F7C95"/>
<path d="M105.891 49.171C106.185 49.171 106.356 49.1099 106.32 48.7673C106.295 48.388 106.307 48.0087 106.32 47.6295C106.32 47.397 106.246 47.3114 106.014 47.3236C105.61 47.3358 105.194 47.3236 104.79 47.3236C103.738 47.3236 103.75 47.3236 103.775 46.2714C103.775 46.0145 103.873 45.9411 104.105 45.9533C104.705 45.9533 105.304 45.9533 105.891 45.9533C106.112 45.9533 106.209 45.8922 106.197 45.6597C106.185 45.256 106.185 44.84 106.197 44.4362C106.197 44.2038 106.112 44.1304 105.891 44.1426C105.439 44.1548 104.998 44.1426 104.546 44.1426C104.032 44.1426 103.775 43.8897 103.775 43.384C103.775 42.858 103.775 42.8457 104.325 42.8457C104.839 42.8457 105.353 42.8457 105.867 42.8457C106.148 42.8457 106.332 42.7601 106.295 42.4297C106.271 42.1116 106.271 41.7813 106.295 41.451C106.32 41.1084 106.185 40.9983 105.855 40.9983C104.607 40.9983 103.359 40.9983 102.111 40.9983C101.768 40.9983 101.634 41.0962 101.634 41.4632C101.658 42.6744 101.634 43.8734 101.634 45.0847C101.634 46.2959 101.634 47.0055 101.634 47.972C101.634 48.3513 101.475 48.8285 101.707 49.0732C101.964 49.3423 102.453 49.1588 102.845 49.171C103.848 49.1833 104.851 49.171 105.855 49.171H105.891Z" fill="#5F7C95"/>
<path d="M23.5883 49.2689C23.9675 49.0609 24.3958 48.9997 24.7995 48.8651V46.3937C23.9064 47.2991 22.9031 47.4826 21.8632 46.9565C21.0924 46.5773 20.7865 45.8432 20.8355 44.999C20.8844 44.0936 21.3493 43.433 22.2058 43.0782C22.5606 42.7968 22.9643 42.9313 23.3558 42.9313C23.3558 42.9313 23.3558 42.9436 23.3803 42.9558C23.3803 42.9558 23.368 42.9436 23.3558 42.9313C23.5149 42.9069 23.6494 42.9803 23.7596 43.0904C24.1633 43.2127 24.4569 43.5064 24.7995 43.8367V41.3041C24.4447 41.2307 24.0654 41.1818 23.7596 40.9616C23.0867 40.7658 22.426 40.8514 21.7653 41.0227C19.7466 41.5366 18.3396 43.5798 18.6332 45.6841C18.8168 47.0055 19.4897 48.0454 20.6642 48.755C21.594 49.3178 22.5728 49.3668 23.6005 49.2811L23.5883 49.2689Z" fill="#5F7C95"/>
<path d="M30.9169 42.7723C31.5042 42.7723 32.0792 42.7601 32.6665 42.7723C32.9356 42.7723 33.058 42.7111 33.0457 42.4175C33.0213 42.0627 33.0335 41.7079 33.0457 41.3653C33.0457 41.1084 32.9601 41.035 32.7154 41.035C31.4185 41.035 30.1094 41.035 28.8125 41.035C28.5311 41.035 28.47 41.1451 28.47 41.3898C28.47 43.8612 28.47 46.3326 28.47 48.7917C28.47 49.0364 28.5311 49.1221 28.7881 49.1221C30.1094 49.1221 31.4185 49.1221 32.7399 49.1221C32.9601 49.1221 33.058 49.0609 33.0457 48.8162C33.0335 48.3146 33.0457 47.813 33.0335 47.3114C32.5563 47.3114 32.0914 47.3114 31.6143 47.3114C30.5499 47.3114 30.5621 47.3114 30.5866 46.2347C30.5866 45.9655 30.6967 45.9166 30.9291 45.9288C31.4675 45.9411 32.018 45.9288 32.5563 45.9288C32.8133 45.9288 32.9234 45.8799 32.9112 45.5985C32.8867 45.2192 32.8867 44.84 32.9112 44.4607C32.9112 44.2037 32.8622 44.0936 32.5808 44.1059C32.2872 44.1303 31.9813 44.1059 31.6877 44.1059C30.9047 44.1059 30.5539 43.7021 30.6355 42.8946C30.6477 42.6622 30.8313 42.7478 30.9414 42.7478L30.9169 42.7723Z" fill="#5F7C95"/>
<path d="M52.2911 42.8336C52.6214 42.8458 52.9395 42.8336 53.2698 42.8336C53.4901 42.8336 53.5879 42.7479 53.5757 42.5155C53.5757 42.1117 53.5757 41.6958 53.5757 41.292C53.5757 41.0596 53.4901 40.9861 53.2576 40.9861C51.6182 40.9861 49.9665 40.9861 48.327 40.9861C48.0823 40.9861 47.9478 41.0596 47.96 41.3409C47.9722 41.7202 47.9722 42.0995 47.96 42.4788C47.9478 42.7357 48.0823 42.8213 48.2903 42.8213C48.5717 42.8213 48.8654 42.8213 49.1468 42.8213C49.6729 42.8213 49.6729 42.8213 49.6729 43.3352C49.6729 45.1215 49.6729 46.92 49.6729 48.7062C49.6729 49.0488 49.783 49.1589 50.1133 49.1467C50.5782 49.1222 51.0309 49.1344 51.4958 49.1467C51.7772 49.1467 51.8751 49.0488 51.8629 48.7674C51.8506 47.8498 51.8629 46.92 51.8629 46.0024C51.8629 45.0848 51.8751 44.1549 51.8629 43.2373C51.8629 42.907 51.9852 42.8091 52.2911 42.8213V42.8336Z" fill="#5F7C95"/>
<path d="M82.2782 48.8041C82.2659 48.4248 82.2537 48.0455 82.2782 47.6662C82.3027 47.3604 82.1681 47.2992 81.8989 47.3114C81.3239 47.3237 80.7611 47.2992 80.1861 47.3237C79.819 47.3481 79.7089 47.2503 79.7089 46.8587C79.7334 45.048 79.7089 43.225 79.7211 41.4021C79.7211 41.0595 79.611 40.9494 79.2807 40.9616C78.8525 40.9861 78.412 40.9861 77.9838 40.9616C77.678 40.9494 77.5801 41.0473 77.5923 41.3531C77.6045 42.5888 77.5923 43.8245 77.5923 45.0602C77.5923 46.3082 77.5923 47.5561 77.5923 48.8041C77.5923 48.9876 77.5678 49.1589 77.8492 49.1589C79.2195 49.1589 80.5898 49.1589 81.9601 49.1589C82.2048 49.1589 82.2904 49.0365 82.2782 48.8041Z" fill="#5F7C95"/>
<path d="M87.7961 41.4387C87.7961 41.0962 87.6493 40.9738 87.3434 40.9861C86.9886 40.9861 86.6338 40.9861 86.2913 40.9861C85.859 40.9861 85.6428 41.1981 85.6428 41.6223C85.6428 42.7723 85.6428 43.9224 85.6428 45.0847C85.6428 46.3204 85.6428 47.5561 85.6428 48.7795C85.6428 49.0854 85.7407 49.1833 86.0343 49.171C86.4992 49.1466 86.9519 49.171 87.4168 49.171C87.6982 49.171 87.8084 49.0732 87.8084 48.7673C87.7961 46.3326 87.7961 43.8857 87.8084 41.451L87.7961 41.4387Z" fill="#5F7C95"/>
<path d="M64.3422 71.3403C64.1464 71.377 63.9873 71.3281 63.8405 71.1935C63.5469 71.2547 63.4246 71.0956 63.3389 70.8387C62.9719 69.7498 62.5926 68.6732 62.2378 67.5843C61.7362 66.0917 61.2468 64.6113 60.7452 63.1186C60.6473 62.9718 60.5616 62.8128 60.5861 62.6292C60.476 62.2867 60.3904 61.9441 60.2435 61.6138C60.06 61.2223 60.06 60.7696 59.7664 60.427C59.5217 60.4759 59.1057 60.3047 59.1914 60.8307C59.5951 62.0542 60.0111 63.2777 60.4148 64.4889C60.635 64.599 60.5861 64.7948 60.5739 64.9783C60.843 65.3086 60.9042 65.7246 60.9776 66.1284C61.2835 67.046 61.5771 67.9635 61.883 68.8811C61.9931 69.028 62.0665 69.187 62.042 69.3828C62.25 69.97 62.458 70.5573 62.6538 71.1446C62.7027 71.2914 62.7272 71.4504 62.5681 71.585C61.5894 72.4292 61.8707 74.1543 63.2533 74.5336C63.5224 74.5336 63.8038 74.5336 64.073 74.5336C64.4033 74.4602 64.6847 74.2766 64.9172 74.0442C65.7369 73.2 65.3821 71.6339 64.3177 71.3403H64.3422Z" fill="#5F7C95"/>
<path d="M30.8925 51.5079C30.5744 51.4834 30.2808 51.4467 30.0483 51.8015C28.2988 54.3463 26.5125 56.8789 24.7507 59.4237C24.555 59.7051 24.3592 59.8152 23.9922 59.754C22.94 59.5705 22.0713 60.329 22.0591 61.3812C22.0591 62.4089 22.7809 63.0696 23.6741 63.1063C24.9587 63.1552 25.9008 61.8461 25.2279 60.5615C25.1055 60.3413 25.0933 60.1822 25.2279 59.9742C26.696 57.8699 28.1642 55.7778 29.6323 53.6734C30.0605 53.0494 30.501 52.4255 30.9292 51.8015C31.0026 51.6914 31.1372 51.5446 30.8803 51.5201L30.8925 51.5079Z" fill="#5F7C95"/>
<path d="M81.6907 53.1963C81.03 53.6245 80.6997 54.2729 80.3938 54.958C80.5284 55.3863 80.406 55.8389 80.455 56.2794C80.455 56.4384 80.5651 56.5485 80.6018 56.6831C81.0912 58.1635 82.9141 58.8242 84.3456 58.3103C85.618 57.8577 86.4255 56.365 86.1196 54.9458C85.6792 52.9149 83.2445 52.1685 81.6784 53.1963H81.6907ZM85.5324 55.8756C85.2877 57.2704 84.1621 58.1146 82.7306 57.7965C82.1189 57.6619 81.605 57.2582 81.3603 56.622C81.1768 56.4384 81.1156 56.206 81.1279 55.949C81.0055 54.8846 81.4093 54.1016 82.3513 53.5755C82.4615 53.4654 82.596 53.392 82.7673 53.4165C83.8684 53.233 84.7371 53.5755 85.3121 54.5665C85.3488 54.6277 85.3611 54.7133 85.3855 54.799C85.618 54.8846 85.5324 55.0682 85.5201 55.2272C85.5201 55.2761 85.5324 55.3251 85.5446 55.374C85.7893 55.5331 85.7771 55.7044 85.5446 55.8634L85.5324 55.8756Z" fill="#5F7C95"/>
<path d="M100.667 58.5061C100.704 58.4694 100.716 58.4082 100.716 58.3593C100.716 56.5975 100.728 54.848 100.716 53.0862C100.716 52.6457 100.349 52.8782 100.128 52.8537V56.9646C100.092 56.9646 100.043 56.9768 100.006 56.989C99.9327 56.9034 99.8471 56.8055 99.7737 56.7199C98.5135 55.3985 97.2411 54.0894 95.9809 52.7681C95.8708 52.8659 95.8953 52.9883 95.8953 53.1106C95.8953 54.7011 95.8953 56.2794 95.8953 57.8699C95.8953 57.9923 95.8341 58.1635 96.0176 58.2125C96.2746 58.2859 96.299 58.1146 96.299 57.9066C96.299 56.7566 96.299 55.6065 96.299 54.4442C96.299 54.3463 96.2623 54.2118 96.3969 54.1628C96.5193 54.1261 96.6171 54.1506 96.6171 54.3096C96.6294 54.383 96.6661 54.4197 96.715 54.4687C97.9874 55.79 99.2598 57.1236 100.532 58.4572C100.581 58.4572 100.618 58.5551 100.667 58.4939V58.5061Z" fill="#5F7C95"/>
<path d="M43.7024 52.8047C43.3965 52.8047 43.3965 53.0005 43.3965 53.2207C43.3965 54.3341 43.3843 55.4474 43.3965 56.5608C43.3965 57.1236 43.0295 57.6864 42.4055 57.8454C42.1853 58.0779 41.9651 58.0779 41.7571 57.8454C41.2065 57.7231 40.7416 57.2582 40.7538 56.5853C40.7783 55.4719 40.7538 54.3586 40.7538 53.2452C40.7538 53.0127 40.7538 52.817 40.4235 52.817C40.0809 52.817 40.0565 53.0127 40.0565 53.2697C40.0565 54.3953 40.0442 55.5208 40.0565 56.6464C40.0809 57.7475 40.9618 58.6162 42.0507 58.5306C43.1641 58.4327 43.9471 58.0412 44.045 56.5975C44.1184 55.4719 44.0572 54.3463 44.0572 53.2207C44.0572 52.9638 43.9593 52.817 43.6657 52.8292L43.7024 52.8047Z" fill="#5F7C95"/>
<path d="M59.0203 58.1146C59.0203 58.3226 59.0814 58.396 59.3017 58.396C59.5831 58.396 59.6932 58.3226 59.6809 58.029C59.6687 57.3805 59.6809 56.7199 59.6809 56.0714C59.9379 56.0347 59.9868 56.2305 60.0602 56.3284C60.4517 56.8667 60.831 57.4172 61.1858 57.98C61.4427 58.3838 61.7608 58.4694 62.238 58.3348C61.7608 57.6375 61.2959 56.9646 60.831 56.2916C60.6719 56.2427 60.5985 56.1204 60.6108 55.9735C60.6108 55.8267 60.7453 55.839 60.8432 55.8634C61.614 55.6432 61.9321 54.9214 61.9199 54.3463C61.9076 53.6612 61.5039 53.1106 60.8555 52.9271C60.256 52.8659 59.6687 52.8415 59.0692 52.8659C59.0692 54.6155 59.0692 56.3651 59.0447 58.1146H59.0203ZM59.6809 53.649C59.6809 53.5266 59.7421 53.4654 59.8767 53.441C60.3416 53.3553 60.8922 53.5878 61.1613 54.0038C61.3693 54.2485 61.4183 54.4932 61.1613 54.7501C60.9166 55.2517 60.3538 55.5209 59.8278 55.3985C59.7054 55.374 59.6687 55.3129 59.6687 55.2028C59.6687 54.6889 59.6687 54.1751 59.6687 53.6612L59.6809 53.649Z" fill="#5F7C95"/>
<path d="M67.2296 57.8087C66.728 57.8087 66.2264 57.7965 65.7248 57.8087C65.4678 57.8087 65.3944 57.7231 65.3944 57.4784C65.3944 56.9768 65.4067 56.4751 65.3944 55.9735C65.3944 55.7411 65.4801 55.6676 65.7003 55.6799C66.2019 55.6799 66.7035 55.6799 67.2052 55.6799C67.4621 55.6799 67.5722 55.6187 67.5844 55.3495C67.5967 55.0314 67.4131 55.0437 67.1929 55.0437C66.7035 55.0437 66.2141 55.0437 65.7248 55.0437C65.4801 55.0437 65.37 54.9825 65.3822 54.7256C65.3944 54.3952 65.3944 54.0771 65.3822 53.7468C65.37 53.4776 65.4801 53.4042 65.7492 53.4165C66.2386 53.4409 66.728 53.4165 67.2174 53.4165C67.4131 53.4165 67.6456 53.4776 67.6456 53.1473C67.6456 52.8292 67.4621 52.7803 67.1929 52.7925C66.5322 52.7925 65.8593 52.817 65.1987 52.7925C64.8194 52.7803 64.6848 52.9271 64.697 53.2819C64.697 54.0527 64.697 54.8235 64.697 55.6065C64.697 56.3895 64.697 57.1847 64.697 57.9678C64.697 58.2736 64.8072 58.4082 65.1375 58.396C65.8471 58.3837 66.5445 58.396 67.2541 58.396C67.4866 58.396 67.6456 58.3593 67.6578 58.0779C67.6701 57.7353 67.4254 57.8087 67.2419 57.8087H67.2296Z" fill="#5F7C95"/>
<path d="M56.0715 53.1596C56.0715 52.9149 55.9858 52.7803 55.7044 52.7925C55.423 52.8048 55.3741 52.9638 55.3863 53.1963C55.3863 54.2607 55.3741 55.3373 55.3863 56.4017C55.3986 57.0991 55.1416 57.5885 54.4687 57.821C54.224 58.0534 53.9793 58.1024 53.7346 57.821C53.2942 57.6986 52.9883 57.4417 52.8415 57.0012C52.7192 56.8177 52.7559 56.6097 52.7559 56.414C52.7559 55.3618 52.7559 54.2974 52.7559 53.2452C52.7559 53.025 52.7436 52.8415 52.4378 52.8415C52.1319 52.8415 52.1686 53.0494 52.1686 53.233C52.1686 54.5421 52.1686 55.8634 52.1686 57.1725C52.2543 57.5273 52.4378 57.8332 52.7436 58.0534C53.3187 58.4694 53.9426 58.5673 54.6522 58.4205C55.3007 58.2736 55.9369 57.6741 56.0103 57.0135C56.1449 55.7288 56.047 54.4442 56.0715 53.1596Z" fill="#5F7C95"/>
<path d="M92.8364 53.1596C92.8364 52.9149 92.763 52.7926 92.4816 52.7926C92.2002 52.7926 92.1757 52.9272 92.1757 53.1474C92.1757 54.2608 92.2002 55.3619 92.1757 56.4752C92.1513 57.2705 91.8576 57.6253 91.148 57.8333C90.9278 58.078 90.7076 58.078 90.4873 57.8333C89.5942 57.5397 89.5453 57.1481 89.4841 56.2795C89.4107 55.2273 89.4596 54.1629 89.4719 53.1107C89.4719 52.8905 89.3862 52.8048 89.1538 52.8048C88.9213 52.8048 88.8479 52.8905 88.8479 53.1107C88.8601 54.3342 88.8601 55.5576 88.8724 56.7689C89.1538 56.9034 88.9947 57.1481 89.0192 57.3561C89.0192 57.4051 89.0192 57.4662 89.0559 57.5152C89.3618 58.1024 89.8756 58.3471 90.5118 58.4572C91.356 58.6163 92.2247 58.2493 92.6162 57.5029C92.6162 57.3194 92.5672 57.1237 92.7752 57.0136C92.8853 55.7289 92.8119 54.4443 92.8364 53.1596Z" fill="#5F7C95"/>
<path d="M76.7233 57.8331C76.4909 58.0534 76.1361 58.0534 75.9036 57.8331C75.6956 57.7475 75.4754 57.6863 75.2919 57.5762C74.5211 57.148 74.154 56.4629 74.1785 55.5942C74.203 54.7011 74.57 53.9915 75.4142 53.5877C75.5121 53.5021 75.61 53.4164 75.7568 53.4409C76.1116 53.392 76.4542 53.3797 76.809 53.4409C77.0047 53.392 77.1638 53.4898 77.2984 53.6C77.5797 53.6367 77.7388 53.9303 78.0447 54.0037C77.9957 53.6611 78.1915 53.3308 77.7755 53.0861C76.3441 52.2664 74.154 52.8903 73.628 54.7255C73.628 54.7745 73.628 54.8357 73.628 54.8846C73.4934 55.3984 73.5545 55.9245 73.628 56.4384C73.8359 57.2948 74.3743 57.8821 75.1818 58.2246C75.3408 58.2124 75.5121 58.1879 75.5977 58.3837C76.1116 58.5183 76.6254 58.5305 77.1393 58.3837C77.2249 58.2002 77.3962 58.2124 77.5553 58.2246C78.1303 57.9433 78.1425 57.8943 77.9957 57.1969C77.6042 57.4783 77.2372 57.772 76.7356 57.8209L76.7233 57.8331Z" fill="#5F7C95"/>
<path d="M107.702 57.3438C107.384 57.5885 107.041 57.772 106.638 57.8332C106.405 58.0534 106.124 58.0534 105.891 57.8332C105.084 57.6497 104.509 57.2092 104.178 56.4385C104.093 56.4262 104.032 56.3773 104.019 56.2794C104.019 55.8634 104.019 55.4474 104.019 55.0437C104.019 54.9458 104.081 54.8969 104.166 54.8847C104.215 54.6644 104.337 54.4809 104.46 54.2974C105.035 53.4654 105.855 53.2942 106.784 53.4287C107.005 53.4287 107.213 53.4777 107.359 53.6734C107.482 53.7591 107.604 53.8447 107.726 53.9181C107.824 53.9915 107.959 54.016 107.971 53.8569C107.996 53.5511 108.032 53.2697 107.665 53.0739C107.054 52.7436 106.417 52.6947 105.757 52.7803C104.851 52.8904 103.873 53.6 103.603 54.5543C103.616 54.6889 103.665 54.848 103.469 54.8969C103.469 54.9458 103.457 54.9948 103.444 55.0559C103.444 55.0804 103.444 55.1171 103.444 55.1416C103.444 55.4719 103.444 55.79 103.444 56.1204C103.408 56.414 103.628 56.6342 103.64 56.9156C103.799 56.9401 103.799 57.0624 103.799 57.1725C103.836 57.2092 103.885 57.2459 103.909 57.2949C104.643 58.5061 106.638 58.9099 107.873 58.0045C107.8 57.7965 108.045 57.5029 107.702 57.3561V57.3438Z" fill="#5F7C95"/>
<path d="M35.9698 55.0682C35.6272 55.0927 35.5416 54.9459 35.5661 54.64C35.5661 54.591 35.5661 54.5421 35.5661 54.4932C35.5661 54.4687 35.5661 54.4442 35.5661 54.432C35.5661 54.224 35.5661 54.0038 35.5661 53.7958C35.5538 53.5144 35.6395 53.4043 35.9331 53.4165C36.4347 53.441 36.9363 53.4165 37.438 53.4165C37.4543 53.0332 37.2707 52.8415 36.8874 52.8415C36.3613 52.8415 35.823 52.8415 35.2969 52.8415C35.0767 52.8415 34.9666 52.9027 34.9666 53.1351C34.9788 54.8847 34.991 56.6342 35.0033 58.3838C35.3866 58.3838 35.5783 58.1962 35.5783 57.821C35.5783 57.246 35.6028 56.6832 35.5783 56.1081C35.5538 55.7289 35.6884 55.6432 36.0432 55.6677C36.398 55.6922 36.7528 55.6555 37.0954 55.6799C37.389 55.7044 37.4869 55.5821 37.4502 55.3129C37.4502 55.2273 37.4502 55.1538 37.4502 55.0682C36.9608 55.0682 36.4714 55.0315 35.982 55.0682H35.9698Z" fill="#5F7C95"/>
<path d="M49.428 52.8048C48.5471 52.8171 47.6662 52.8048 46.7853 52.8048C46.5528 52.8048 46.4182 52.8293 46.406 53.1229C46.406 53.4288 46.5528 53.4533 46.773 53.441C46.9566 53.441 47.1523 53.4533 47.3481 53.441C47.6906 53.4043 47.7885 53.5389 47.7885 53.8815C47.7763 55.2762 47.7885 56.671 47.7885 58.0657C47.7885 58.286 47.813 58.4205 48.0944 58.4083C48.3513 58.4083 48.4125 58.3104 48.4125 58.078C48.4125 57.3684 48.4125 56.671 48.4125 55.9614C48.4125 55.2273 48.4125 54.4932 48.4125 53.7591C48.4125 53.5144 48.4859 53.4166 48.7428 53.4288C48.9875 53.4533 49.2322 53.4166 49.4769 53.4288C49.7338 53.4533 49.795 53.3554 49.795 53.1107C49.795 52.8538 49.6971 52.7926 49.4524 52.7926L49.428 52.8048Z" fill="#5F7C95"/>
<path d="M116.07 57.8088C115.825 57.8088 115.581 57.7843 115.336 57.8088C114.92 57.87 114.847 57.6864 114.859 57.3072C114.883 55.9246 114.859 54.5421 114.871 53.1596C114.871 52.8782 114.798 52.7803 114.504 52.7926C114.21 52.8048 114.223 52.9883 114.223 53.1841C114.223 54.0038 114.223 54.8113 114.223 55.631C114.223 56.4263 114.223 57.2338 114.223 58.029C114.223 58.3104 114.308 58.4083 114.602 58.396C115.091 58.3716 115.581 58.3838 116.07 58.396C116.315 58.396 116.401 58.3226 116.413 58.0779C116.413 57.8088 116.278 57.7965 116.082 57.8088H116.07Z" fill="#5F7C95"/>
<path d="M111.226 55.5821C111.226 54.7746 111.226 53.9549 111.226 53.1474C111.226 52.9272 111.201 52.7926 110.92 52.7926C110.638 52.7926 110.614 52.9149 110.614 53.1352C110.614 54.7746 110.614 56.4141 110.614 58.0535C110.614 58.2737 110.638 58.3961 110.92 58.3961C111.189 58.3961 111.226 58.2737 111.226 58.0535C111.226 57.2338 111.226 56.4018 111.226 55.5821V55.5821Z" fill="#5F7C95"/>
<path d="M54.4811 57.8332C54.2365 57.8332 53.9918 57.8332 53.7471 57.8332C53.9918 58.1024 54.2365 58.0534 54.4811 57.8332Z" fill="#5F7C95"/>
</g>
<defs>
<clipPath id="clip0_406_5437">
<rect width="117" height="74.7048" fill="white"/>
</clipPath>
</defs>
</svg>
