<svg width="83" height="44" viewBox="0 0 83 44" fill="none" xmlns="http://www.w3.org/2000/svg">
<path d="M41.6722 21.5227C43.239 21.5227 44.42 21.0932 45.2395 20.2341C46.0591 19.375 46.4929 18.1561 46.4929 16.5889V13.7563H43.3956V16.8211C43.3956 18.04 42.8533 18.6553 41.7566 18.6553C40.6599 18.6553 40.1176 18.04 40.1176 16.8211V5.61841C40.1176 4.37625 40.6719 3.74936 41.7566 3.74936C42.8413 3.74936 43.3956 4.37625 43.3956 5.61841V7.9402H46.4929V5.81576C46.4929 4.24855 46.0711 3.04122 45.2395 2.18215C44.408 1.32309 43.239 0.893555 41.6722 0.893555C40.1055 0.893555 38.9003 1.32309 38.0688 2.18215C37.2372 3.04122 36.8516 4.24855 36.8516 5.81576V16.5889C36.8516 18.1561 37.2613 19.375 38.0688 20.2341C38.8762 21.0932 40.1055 21.5227 41.6722 21.5227Z" fill="#5F7C95"/>
<path d="M35.1761 18.3765H29.5238V12.2121H34.0191V9.34471H29.5238V4.05101H35.1761V1.18359H26.2578V21.2323H35.1761V18.3765Z" fill="#5F7C95"/>
<path d="M53.229 21.5227C54.8439 21.5227 56.0732 21.0816 56.9168 20.1993C57.7725 19.317 58.2063 18.0748 58.2063 16.4728V5.93185C58.2063 4.32981 57.7725 3.08765 56.9168 2.20537C56.0611 1.32309 54.8439 0.893555 53.229 0.893555C51.614 0.893555 50.3968 1.32309 49.5412 2.20537C48.6855 3.08765 48.2637 4.32981 48.2637 5.93185V16.4728C48.2637 18.0748 48.6855 19.317 49.5412 20.1993C50.3968 21.0816 51.6261 21.5227 53.229 21.5227ZM51.5417 5.7345C51.5417 4.41108 52.1082 3.74936 53.229 3.74936C54.3498 3.74936 54.9283 4.41108 54.9283 5.7345V16.6818C54.9283 17.9936 54.3618 18.6553 53.229 18.6553C52.0961 18.6553 51.5417 17.9936 51.5417 16.6818V5.7345Z" fill="#5F7C95"/>
<path d="M0.0820312 21.2323H3.36009V12.5023H7.57818V9.63493H3.36009V4.05101H8.73515V1.18359H0.0820312V21.2323Z" fill="#5F7C95"/>
<path d="M69.0552 12.038V6.59339H69.1154L70.5014 11.7826C70.8537 11.7459 71.2076 11.7265 71.5619 11.7246C72.0664 11.7277 72.5699 11.7665 73.0684 11.8406L70.2483 1.172H66.1387V13.2686C67.0341 12.7068 68.0194 12.2911 69.0552 12.038Z" fill="#5F7C95"/>
<path d="M76.4048 12.9203V1.172H73.4883V11.9103C74.5099 12.096 75.4943 12.4369 76.4048 12.9203Z" fill="#5F7C95"/>
<path d="M63.6921 15.4046V1.172H60.4141V21.2323H61.5349C61.5666 19.1137 62.3251 17.0646 63.6921 15.4046Z" fill="#5F7C95"/>
<path d="M73.4873 30.8915V35.001H73.4271L72.3665 31.0308C72.1014 31.054 71.8362 31.0656 71.559 31.0656C70.9612 31.0625 70.3646 31.012 69.7754 30.9147L73.0414 43.0577H76.4038V29.8699C75.4915 30.3519 74.508 30.6965 73.4873 30.8915Z" fill="#5F7C95"/>
<path d="M58.6062 34.026H63.1015V31.1702H58.6062V25.8649H62.6676C62.179 24.966 61.8413 23.9982 61.6673 22.9974H55.3281V43.0577H64.2584V40.1903H58.6062V34.026Z" fill="#5F7C95"/>
<path d="M13.5769 1.18359H10.2988V21.2416H13.5769V1.18359Z" fill="#5F7C95"/>
<path d="M66.1387 29.5327V43.0572H69.0552V30.7633C68.023 30.5002 67.0392 30.0852 66.1387 29.5327Z" fill="#5F7C95"/>
<path d="M44.5273 43.0574H53.4456V40.2016H47.7934V34.0372H52.2886V31.1698H47.7934V25.8761H53.4456V23.0087H44.5273V43.0574Z" fill="#5F7C95"/>
<path d="M24.6906 18.3765H19.3035V1.18359H16.0254V21.2323H24.6906V18.3765Z" fill="#5F7C95"/>
<path d="M42.2531 40.6199V37.1023C42.2531 35.9182 42.0843 34.9663 41.7469 34.2581C41.6005 33.9166 41.3742 33.6122 41.0858 33.3685C40.7973 33.1249 40.4544 32.9487 40.0838 32.8535V32.7954C41.5179 32.2498 42.229 30.9264 42.229 28.8484V27.6178C42.229 26.0506 41.8433 24.8897 41.072 24.1467C40.3007 23.4038 39.0594 22.9974 37.3721 22.9974H32.5273V43.0577H35.8054V34.4671H36.9262C37.6855 34.4671 38.2157 34.6412 38.505 35.0011C38.7942 35.361 38.9871 36.0111 38.9871 36.9282V40.5966C38.9726 41.112 38.9927 41.6278 39.0473 42.1406C39.0933 42.4526 39.17 42.7597 39.2763 43.0577H42.6146C42.459 42.7305 42.3573 42.3819 42.3133 42.0245C42.2772 41.6647 42.2531 41.2003 42.2531 40.6199ZM38.9509 29.4752C38.9509 30.2414 38.7822 30.7871 38.4447 31.1121C38.1314 31.4372 37.6493 31.5997 36.9865 31.5997H35.8054V25.8649H37.2878C37.8662 25.8649 38.276 26.0274 38.5411 26.3524C38.8063 26.6775 38.9509 27.1999 38.9509 27.9313V29.4752Z" fill="#5F7C95"/>
<path d="M25.5489 22.7186C23.9581 22.7186 22.7529 23.1482 21.9213 24.0304C21.0898 24.9127 20.668 26.1317 20.668 27.7569V38.2979C20.668 39.9231 21.0898 41.1769 21.9213 42.0592C22.7529 42.9415 23.9581 43.3478 25.5489 43.3478C27.1397 43.3478 28.3449 42.9182 29.1765 42.0592C30.008 41.2001 30.4298 39.9231 30.4298 38.2979V31.7388H25.6935V34.6062H27.3326V38.5301C27.3326 39.8303 26.7661 40.4804 25.6333 40.4804C24.5125 40.4804 23.946 39.8303 23.946 38.5301V27.5596C23.946 26.2361 24.5125 25.5744 25.6333 25.5744C26.7541 25.5744 27.3326 26.2361 27.3326 27.5596V29.4751H30.4298V27.7569C30.4298 26.1317 30.008 24.8895 29.1765 24.0304C28.3449 23.1714 27.1397 22.7186 25.5489 22.7186Z" fill="#5F7C95"/>
<path fill-rule="evenodd" clip-rule="evenodd" d="M71.5716 30.2851C66.626 30.2851 62.5801 26.3232 62.5801 21.4379C62.6247 16.5962 66.626 12.6354 71.6162 12.6791C76.5618 12.7238 80.5631 16.641 80.5631 21.5699C80.5185 26.3679 76.5172 30.2851 71.5716 30.2851Z" fill="#5F7C95" stroke="#5F7C95" stroke-width="3.69041"/>
<path d="M74.5345 15.5181C74.3297 15.5181 73.7042 15.5181 72.9492 16.1993C72.246 16.8339 71.813 18.0363 71.7525 18.2911C71.7291 18.3892 71.5527 19.1383 71.343 20.0299L68.7979 19.7027L68.6338 20.412L71.1764 20.7392C71.0925 21.1003 71.0074 21.4625 70.9284 21.7967L68.397 21.4707L68.2329 22.1812L70.7619 22.506C70.712 22.7202 70.6694 22.9027 70.6375 23.0391C70.5985 23.2063 70.5756 23.3041 70.5756 23.3053C70.5756 23.3074 70.5515 23.3999 70.5127 23.549L70.4967 23.6103H70.5028C70.3536 24.2425 70.2438 24.7064 70.2216 24.7929C70.1559 25.0475 70.1005 25.2326 70.0425 25.4262C70.0308 25.4654 70.0189 25.5049 70.0069 25.5455L69.9736 25.6612C69.8736 25.9795 69.7439 26.2888 69.5862 26.5855C69.3876 26.9618 68.8633 27.137 68.8633 27.137C68.8633 27.137 68.5857 27.2492 68.3242 27.1908C68.0931 27.1392 68.0527 27.0812 68.0354 27.0563C68.0331 27.053 68.0312 27.0503 68.0293 27.0482C68.2761 27.0938 68.6671 26.9045 68.9065 26.5761C69.115 26.291 69.1877 25.8879 69.2173 25.5852C69.1847 25.5969 69.1526 25.6086 69.1207 25.6202C68.916 25.6949 68.7133 25.7689 68.3538 25.8376C67.9602 25.9159 67.6222 25.993 67.4507 26.1052C67.2792 26.2174 67.2139 26.3763 67.1707 26.499C66.9844 27.1242 68.1292 27.5846 68.6116 27.5869C68.8152 27.5869 69.4419 27.5869 70.1956 26.9068C70.9001 26.2711 71.3319 25.0699 71.3935 24.814C71.4039 24.7679 71.4487 24.5771 71.5151 24.2947C71.5515 24.1399 71.5943 23.9575 71.6415 23.7564H71.644C71.6941 23.5444 71.7575 23.2736 71.8295 22.9662C71.8531 22.8652 71.8777 22.7602 71.9031 22.6521L74.3988 22.9723L74.5628 22.263L72.0696 21.9428C72.1083 21.7758 72.1482 21.6058 72.1882 21.435C72.2311 21.2521 72.2742 21.0683 72.3163 20.8864L74.8096 21.2066L74.9737 20.4961L72.4829 20.1759C72.7086 19.213 72.8937 18.4289 72.9233 18.3121C72.9875 18.0641 73.0419 17.8817 73.0985 17.6922C73.1115 17.6487 73.1246 17.6047 73.138 17.5595L73.1725 17.445C73.2724 17.1268 73.4016 16.8175 73.5586 16.5207C73.7585 16.1444 74.2828 15.968 74.2828 15.968C74.2828 15.968 74.5591 15.8558 74.8207 15.9154C75.053 15.9683 75.0935 16.0249 75.111 16.0492C75.1131 16.0523 75.115 16.0548 75.1168 16.0568C74.8688 16.0124 74.479 16.2017 74.2396 16.5289C74.0299 16.8152 73.9571 17.2183 73.9275 17.5198C73.9658 17.5064 74.0032 17.4929 74.0406 17.4793C74.2407 17.4071 74.4421 17.3343 74.7923 17.2674C75.1846 17.1891 75.5226 17.1131 75.6954 17.001C75.8681 16.8888 75.931 16.7287 75.9742 16.606C76.1605 15.9808 75.0168 15.5216 74.5345 15.5181Z" fill="#F0F7FD"/>
<path d="M74.5345 15.5181C74.3297 15.5181 73.7042 15.5181 72.9492 16.1993C72.246 16.8339 71.813 18.0363 71.7525 18.2911C71.7291 18.3892 71.5527 19.1383 71.343 20.0299L68.7979 19.7027L68.6338 20.412L71.1764 20.7392C71.0925 21.1003 71.0074 21.4625 70.9284 21.7967L68.397 21.4707L68.2329 22.1812L70.7619 22.506C70.712 22.7202 70.6694 22.9027 70.6375 23.0391C70.5985 23.2063 70.5756 23.3041 70.5756 23.3053C70.5756 23.3074 70.5515 23.3999 70.5127 23.549L70.4967 23.6103H70.5028C70.3536 24.2425 70.2438 24.7064 70.2216 24.7929C70.1559 25.0475 70.1005 25.2326 70.0425 25.4262C70.0308 25.4654 70.0189 25.5049 70.0069 25.5455L69.9736 25.6612C69.8736 25.9795 69.7439 26.2888 69.5862 26.5855C69.3876 26.9618 68.8633 27.137 68.8633 27.137C68.8633 27.137 68.5857 27.2492 68.3242 27.1908C68.0931 27.1392 68.0527 27.0812 68.0354 27.0563C68.0331 27.053 68.0312 27.0503 68.0293 27.0482C68.2761 27.0938 68.6671 26.9045 68.9065 26.5761C69.115 26.291 69.1877 25.8879 69.2173 25.5852C69.1847 25.5969 69.1526 25.6086 69.1207 25.6202C68.916 25.6949 68.7133 25.7689 68.3538 25.8376C67.9602 25.9159 67.6222 25.993 67.4507 26.1052C67.2792 26.2174 67.2139 26.3763 67.1707 26.499C66.9844 27.1242 68.1292 27.5846 68.6116 27.5869C68.8152 27.5869 69.4419 27.5869 70.1956 26.9068C70.9001 26.2711 71.3319 25.0699 71.3935 24.814C71.4039 24.7679 71.4487 24.5771 71.5151 24.2947C71.5515 24.1399 71.5943 23.9575 71.6415 23.7564H71.644C71.6941 23.5444 71.7575 23.2736 71.8295 22.9662C71.8531 22.8652 71.8777 22.7602 71.9031 22.6521L74.3988 22.9723L74.5628 22.263L72.0696 21.9428C72.1083 21.7758 72.1482 21.6058 72.1882 21.435C72.2311 21.2521 72.2742 21.0683 72.3163 20.8864L74.8096 21.2066L74.9737 20.4961L72.4829 20.1759C72.7086 19.213 72.8937 18.4289 72.9233 18.3121C72.9875 18.0641 73.0419 17.8817 73.0985 17.6922C73.1115 17.6487 73.1246 17.6047 73.138 17.5595L73.1725 17.445C73.2724 17.1268 73.4016 16.8175 73.5586 16.5207C73.7585 16.1444 74.2828 15.968 74.2828 15.968C74.2828 15.968 74.5591 15.8558 74.8207 15.9154C75.053 15.9683 75.0935 16.0249 75.111 16.0492C75.1131 16.0523 75.115 16.0548 75.1168 16.0568C74.8688 16.0124 74.479 16.2017 74.2396 16.5289C74.0299 16.8152 73.9571 17.2183 73.9275 17.5198C73.9658 17.5064 74.0032 17.4929 74.0406 17.4793C74.2407 17.4071 74.4421 17.3343 74.7923 17.2674C75.1846 17.1891 75.5226 17.1131 75.6954 17.001C75.8681 16.8888 75.931 16.7287 75.9742 16.606C76.1605 15.9808 75.0168 15.5216 74.5345 15.5181Z" stroke="#5F7C95"/>
</svg>
