<svg width="275" height="309" viewBox="0 0 275 309" fill="none" xmlns="http://www.w3.org/2000/svg">
<g clip-path="url(#clip0_683_9176)">
<g clip-path="url(#clip1_683_9176)">
<path fill-rule="evenodd" clip-rule="evenodd" d="M223.721 301.045C234.27 301.045 242.853 292.462 242.853 281.913V232.644C242.853 228.043 242.853 228.043 256.927 221.01C263.441 217.743 267.487 211.188 267.487 203.904C267.487 188.658 256.465 172.455 236.039 172.455C235.573 172.455 235.107 172.459 234.641 172.468V150.528C234.641 137.883 226.148 127.181 214.289 124.084C211.891 120.095 208.559 116.843 204.641 114.563C208.04 111.061 210.006 106.338 210.006 101.259C210.006 86.0136 198.984 69.8105 178.558 69.8105C178.092 69.8105 177.626 69.8149 177.16 69.8236V47.884C177.16 35.2386 168.667 24.5368 156.808 21.4394C151.911 13.2931 143.122 8.22385 133.394 8.22385C123.664 8.22385 114.874 13.2954 109.977 21.4446C103.11 23.251 97.2301 27.6605 93.5596 33.7561C81.6993 36.8527 73.2053 47.555 73.2053 60.2013V136.064C71.4059 135.693 69.563 135.503 67.7018 135.503C57.9717 135.503 49.1811 140.574 44.2847 148.724C37.4175 150.53 31.5377 154.94 27.8671 161.035C16.0068 164.132 7.51283 174.834 7.51283 187.48V281.913C7.51283 292.462 16.0951 301.045 26.644 301.045H223.721M67.7019 143.016C72.6786 143.016 77.2326 144.858 80.7181 147.897V60.2014C80.7181 49.9311 88.5657 41.4594 98.5796 40.4683C101.287 33.7781 107.544 28.8892 115.003 28.151C117.945 20.88 125.081 15.7367 133.394 15.7367C141.708 15.7367 148.843 20.88 151.786 28.151C161.8 29.1421 169.648 37.6138 169.648 47.8841V77.9153C172.58 77.5215 175.557 77.3233 178.558 77.3233C194.105 77.3233 202.494 89.6556 202.494 101.259C202.494 105.684 200.035 109.665 196.078 111.65C186.424 116.474 181.824 118.877 179.672 121.857C182.862 119.665 186.722 118.381 190.875 118.381C199.189 118.381 206.324 123.524 209.267 130.795C219.281 131.787 227.128 140.258 227.128 150.529V180.56C230.061 180.166 233.038 179.968 236.039 179.968C251.586 179.968 259.975 192.3 259.975 203.904C259.975 208.328 257.516 212.31 253.559 214.294C237.142 222.498 235.34 223.699 235.34 232.644V281.913C235.34 288.32 230.128 293.532 223.721 293.532H26.6441C20.2377 293.532 15.0257 288.32 15.0257 281.913V187.481C15.0257 177.21 22.8732 168.738 32.8871 167.747C35.5948 161.057 41.8517 156.168 49.3103 155.43C52.253 148.159 59.3884 143.016 67.7019 143.016M223.722 286.019C225.988 286.019 227.827 284.18 227.827 281.913V232.644C227.827 218.758 233.916 215.712 250.192 207.578C251.583 206.88 252.462 205.459 252.462 203.903C252.462 197.301 248.089 187.48 236.039 187.48C229.211 187.48 223.541 188.659 219.616 189.812V150.528C219.616 143.737 214.089 138.211 207.298 138.211C205.857 138.211 204.478 138.457 203.193 138.913V138.211C203.193 131.42 197.666 125.894 190.875 125.894C184.084 125.894 178.558 131.42 178.558 138.211V138.913C177.273 138.457 175.893 138.211 174.452 138.211C173.003 138.211 171.636 138.507 170.346 138.966V129.999C170.346 116.114 176.435 113.067 192.711 104.934C194.102 104.236 194.981 102.815 194.981 101.259C194.981 94.6568 190.608 84.8358 178.558 84.8358C171.73 84.8358 166.06 86.0142 162.135 87.1679V47.8838C162.135 41.0929 156.609 35.5665 149.818 35.5665C148.376 35.5665 146.997 35.8128 145.712 36.2686V35.5665C145.712 28.7755 140.185 23.2491 133.395 23.2491C126.604 23.2491 121.077 28.7755 121.077 35.5665V36.2686C119.792 35.8128 118.412 35.5665 116.971 35.5665C110.18 35.5665 104.654 41.0929 104.654 47.8838V48.5859C103.369 48.1343 101.989 47.8838 100.548 47.8838C93.7573 47.8838 88.2309 53.4102 88.2309 60.2011V163.601C86.9376 163.141 85.5704 162.846 84.1252 162.846C82.684 162.846 81.3045 163.096 80.0193 163.548V162.846C80.0193 156.055 74.493 150.528 67.702 150.528C60.911 150.528 55.3847 156.055 55.3847 162.846V163.548C54.0996 163.096 52.7201 162.846 51.2789 162.846C44.488 162.846 38.9616 168.372 38.9616 175.163V175.865C37.6765 175.413 36.2969 175.163 34.8558 175.163C28.0648 175.163 22.5385 180.689 22.5385 187.48V281.913C22.5385 284.18 24.3779 286.019 26.6442 286.019H223.722M158.029 158.74C160.291 158.74 162.134 160.583 162.134 162.846V179.269C162.134 181.535 163.974 183.375 166.24 183.375C168.507 183.375 170.346 181.535 170.346 179.269V150.528C170.346 148.266 172.189 146.423 174.452 146.423C176.714 146.423 178.557 148.266 178.557 150.528V179.269C178.557 181.535 180.397 183.375 182.663 183.375C184.93 183.375 186.769 181.535 186.769 179.269V138.211C186.769 135.949 188.613 134.105 190.875 134.105C193.137 134.105 194.981 135.949 194.981 138.211V179.269C194.981 181.535 196.82 183.375 199.086 183.375C201.353 183.375 203.192 181.535 203.192 179.269V150.528C203.192 148.266 205.036 146.423 207.298 146.423C209.56 146.423 211.404 148.266 211.404 150.528V195.692C211.404 197.117 212.143 198.435 213.35 199.186C214.561 199.937 216.072 200.003 217.345 199.367C217.419 199.326 224.821 195.692 236.038 195.692C241.45 195.692 243.31 198.981 243.942 201.522C228.71 209.188 219.615 214.677 219.615 232.644V277.808H153.923V162.846C153.923 160.583 155.766 158.74 158.029 158.74M112.865 212.115C106.037 212.115 100.367 213.293 96.4418 214.447V60.2011C96.4418 57.9389 98.2854 56.0954 100.548 56.0954C102.81 56.0954 104.653 57.9389 104.653 60.2011V76.6243C104.653 78.8907 106.493 80.73 108.759 80.73C111.026 80.73 112.865 78.8907 112.865 76.6243V47.8839C112.865 45.6215 114.708 43.778 116.971 43.778C119.233 43.778 121.077 45.6215 121.077 47.8839V76.6243C121.077 78.8907 122.916 80.73 125.182 80.73C127.449 80.73 129.288 78.8907 129.288 76.6243V35.5665C129.288 33.3042 131.132 31.4607 133.394 31.4607C135.656 31.4607 137.5 33.3042 137.5 35.5665V76.6243C137.5 78.8907 139.339 80.73 141.605 80.73C143.872 80.73 145.711 78.8907 145.711 76.6243V47.8839C145.711 45.6215 147.555 43.778 149.817 43.778C152.079 43.778 153.923 45.6215 153.923 47.8839V93.0474C153.923 94.4721 154.662 95.7941 155.869 96.5413C157.08 97.2886 158.591 97.3584 159.864 96.7221C159.938 96.681 167.34 93.0474 178.557 93.0474C183.969 93.0474 185.829 96.3361 186.461 98.8776C171.229 106.543 162.134 112.032 162.134 129.999V151.23C160.849 150.775 159.47 150.528 158.028 150.528C151.237 150.528 145.711 156.055 145.711 162.846V277.807H104.653V257.279C104.653 243.393 110.742 240.346 127.018 232.213C128.409 231.515 129.288 230.094 129.288 228.538C129.288 221.936 124.915 212.115 112.865 212.115M34.8558 183.375C37.1181 183.375 38.9616 185.218 38.9616 187.48V203.904C38.9616 206.17 40.8009 208.009 43.0673 208.009C45.3338 208.009 47.1731 206.17 47.1731 203.904V175.163C47.1731 172.901 49.0166 171.057 51.2789 171.057C53.5411 171.057 55.3847 172.901 55.3847 175.163V203.904C55.3847 206.17 57.2241 208.009 59.4904 208.009C61.7568 208.009 63.5962 206.17 63.5962 203.904V162.846C63.5962 160.584 65.4398 158.74 67.702 158.74C69.9643 158.74 71.8078 160.584 71.8078 162.846V203.904C71.8078 206.17 73.6471 208.009 75.9136 208.009C78.18 208.009 80.0193 206.17 80.0193 203.904V175.163C80.0193 172.901 81.8628 171.057 84.1251 171.057C86.3874 171.057 88.2309 172.901 88.2309 175.163V220.327C88.2309 221.751 88.9699 223.069 90.177 223.821C91.3882 224.568 92.9032 224.634 94.1719 224.001C94.2458 223.96 101.649 220.327 112.866 220.327C118.277 220.327 120.137 223.615 120.769 226.157C105.537 233.822 96.4424 239.312 96.4424 257.279L96.4383 277.808H30.75V187.48C30.75 185.218 32.5935 183.375 34.8558 183.375M212.103 270.295V232.644C212.103 218.979 216.99 210.798 223.832 204.958C221.819 205.565 220.681 206.098 220.655 206.11C219.099 206.889 217.302 207.313 215.507 207.313C213.344 207.313 211.228 206.711 209.39 205.57C205.943 203.424 203.891 199.734 203.891 195.692V189.847C202.426 190.515 200.799 190.887 199.086 190.887C195.883 190.887 192.979 189.584 190.875 187.481C188.771 189.584 185.867 190.887 182.663 190.887C179.46 190.887 176.556 189.584 174.452 187.481C172.348 189.584 169.443 190.887 166.24 190.887C164.528 190.887 162.901 190.515 161.436 189.847V270.295H212.103M174.452 196.556C176.986 197.763 179.776 198.4 182.663 198.4C185.551 198.4 188.341 197.763 190.875 196.556C192.656 197.405 194.565 197.972 196.545 198.234C197.288 203.872 200.49 208.879 205.429 211.954C206.34 212.52 207.293 213.005 208.277 213.407C205.807 219.02 204.59 225.404 204.59 232.644V262.782H168.948V198.211C170.869 197.94 172.72 197.381 174.452 196.556M138.199 270.295V162.846C138.199 153.073 145.305 144.928 154.622 143.309V130C154.622 116.335 159.509 108.153 166.351 102.314C164.339 102.92 163.2 103.453 163.174 103.466C161.62 104.244 159.824 104.668 158.03 104.668C155.873 104.668 153.761 104.069 151.924 102.935C148.468 100.796 146.41 97.1016 146.41 93.0475V87.2025C144.945 87.8704 143.318 88.2429 141.605 88.2429C138.402 88.2429 135.498 86.9401 133.394 84.8363C131.29 86.9401 128.386 88.2429 125.182 88.2429C121.979 88.2429 119.075 86.9401 116.971 84.8363C114.867 86.9401 111.963 88.2429 108.759 88.2429C107.047 88.2429 105.42 87.8704 103.955 87.2025V205.194C106.887 204.801 109.864 204.602 112.865 204.602C128.412 204.602 136.801 216.935 136.801 228.538C136.801 232.963 134.343 236.944 130.385 238.928C113.968 247.133 112.166 248.333 112.166 257.279V270.295H138.199ZM130.686 247.179V262.782H119.679V257.279C119.679 253.04 119.679 252.706 130.686 247.179M112.865 197.09C112.4 197.09 111.933 197.094 111.467 197.103V95.5662C113.388 95.2951 115.239 94.7364 116.971 93.9112C119.505 95.1187 122.295 95.7556 125.182 95.7556C128.07 95.7556 130.86 95.1187 133.394 93.9112C135.176 94.7602 137.084 95.3271 139.063 95.5889C139.808 101.244 143.021 106.259 147.98 109.329C148.882 109.886 149.824 110.364 150.796 110.761C148.326 116.374 147.109 122.759 147.109 129.999V137.765C137.305 142.015 130.686 151.736 130.686 162.846V202.24C125.927 199.046 119.964 197.09 112.865 197.09M88.9272 270.295L88.9298 257.277C88.9298 243.613 93.8173 235.432 100.659 229.593C98.6464 230.199 97.5084 230.732 97.4824 230.745C95.9217 231.523 94.1286 231.945 92.3375 231.945C90.179 231.945 88.068 231.347 86.2328 230.215C82.7701 228.059 80.7182 224.369 80.7182 220.327V214.482C79.2533 215.149 77.6259 215.522 75.9137 215.522C72.7104 215.522 69.8059 214.219 67.7021 212.115C65.5983 214.219 62.6937 215.522 59.4905 215.522C56.2873 215.522 53.3828 214.219 51.279 212.115C49.1751 214.219 46.2707 215.522 43.0674 215.522C41.3551 215.522 39.7278 215.149 38.2629 214.482V270.295H88.9272ZM51.2783 221.19C53.8121 222.398 56.6027 223.035 59.4898 223.035C62.3771 223.035 65.1676 222.398 67.7014 221.19C69.483 222.039 71.3917 222.606 73.3714 222.868C74.1166 228.507 77.3254 233.52 82.2879 236.609C83.1894 237.165 84.1313 237.643 85.1036 238.039C82.6336 243.652 81.4164 250.036 81.4164 257.276L81.4153 262.782H45.7749V222.845C47.6951 222.574 49.5468 222.015 51.2783 221.19M223.721 308.557H26.6439C11.9525 308.557 0 296.605 0 281.913V187.48C0 172.637 9.3539 159.542 23.0892 154.653C27.2087 148.966 32.8937 144.702 39.4986 142.347C45.6382 133.841 55.1478 128.634 65.6924 128.046V60.2012C65.6924 45.3582 75.0464 32.2629 88.7817 27.3735C92.9011 21.6866 98.5862 17.4233 105.191 15.0676C111.718 6.02529 122.055 0.710938 133.394 0.710938C144.73 0.710938 155.063 6.02117 161.591 15.0588C175.322 19.9505 184.673 33.0442 184.673 47.8839V62.7079C206.056 65.6536 217.519 83.9542 217.519 101.259C217.519 105.36 216.601 109.324 214.864 112.906C216.405 114.371 217.812 115.976 219.065 117.701C232.799 122.591 242.154 135.687 242.154 150.528V165.352C263.537 168.298 275 186.599 275 203.903C275 214.049 269.365 223.177 260.294 227.725C255.853 229.945 252.161 231.79 250.365 232.872V281.913C250.365 296.605 238.413 308.557 223.721 308.557V308.557ZM176.461 255.269H197.077V232.644C197.077 226.948 197.77 221.616 199.142 216.716C195.139 213.602 192.14 209.463 190.445 204.763C187.942 205.527 185.338 205.913 182.663 205.913C180.547 205.913 178.474 205.671 176.461 205.191V255.269ZM53.2878 255.269H73.9328C74.0771 250.324 74.7591 245.667 75.9694 241.346C71.965 238.223 68.9682 234.087 67.2734 229.396C64.7703 230.161 62.1653 230.547 59.4899 230.547C57.3733 230.547 55.3007 230.306 53.2878 229.826L53.2878 255.269ZM118.98 189.994C120.408 190.194 121.806 190.465 123.173 190.809V162.846C123.173 150.665 129.48 139.526 139.596 133.241V130C139.596 124.305 140.289 118.973 141.661 114.073C137.656 110.961 134.657 106.822 132.962 102.119C130.46 102.883 127.856 103.268 125.183 103.268C123.066 103.268 120.993 103.027 118.98 102.547V189.994Z" fill="#73B4ED"/>
</g>
<g clip-path="url(#clip2_683_9176)">
<path fill-rule="evenodd" clip-rule="evenodd" d="M223.72 293.531C230.127 293.531 235.339 288.319 235.339 281.912V232.643C235.339 223.697 237.141 222.497 253.558 214.293C257.515 212.308 259.973 208.327 259.973 203.902C259.973 192.299 251.585 179.967 236.038 179.967C233.037 179.967 230.06 180.165 227.127 180.559V150.527C227.127 140.257 219.28 131.785 209.266 130.794C206.323 123.523 199.188 118.38 190.874 118.38C186.72 118.38 182.86 119.664 179.671 121.856C181.823 118.876 186.423 116.473 196.077 111.648C200.034 109.664 202.493 105.683 202.493 101.258C202.493 89.6545 194.104 77.3222 178.557 77.3222C175.556 77.3222 172.579 77.5204 169.646 77.9141V47.883C169.646 37.6126 161.799 29.1409 151.785 28.1498C148.842 20.8788 141.707 15.7355 133.393 15.7355C125.08 15.7355 117.944 20.8788 115.002 28.1498C107.543 28.888 101.286 33.7769 98.5785 40.4672C88.5645 41.4583 80.7169 49.93 80.7169 60.2003V147.896C77.2314 144.857 72.6774 143.015 67.7008 143.015C59.3872 143.015 52.2518 148.158 49.3091 155.429C41.8505 156.167 35.5937 161.056 32.886 167.746C22.872 168.737 15.0245 177.209 15.0245 187.479V281.912C15.0245 288.319 20.2365 293.531 26.6429 293.531H223.72M34.8546 175.162C36.2958 175.162 37.6753 175.413 38.9604 175.864V175.162C38.9604 168.371 44.4868 162.845 51.2777 162.845C52.7189 162.845 54.0984 163.095 55.3835 163.547V162.845C55.3835 156.054 60.9099 150.527 67.7008 150.527C74.4918 150.527 80.0182 156.054 80.0182 162.845V163.547C81.3033 163.095 82.6829 162.845 84.124 162.845C85.5692 162.845 86.9364 163.14 88.2297 163.6V60.2004C88.2297 53.4094 93.7561 47.8831 100.547 47.8831C101.988 47.8831 103.368 48.1335 104.653 48.5852V47.8831C104.653 41.0921 110.179 35.5657 116.97 35.5657C118.411 35.5657 119.791 35.812 121.076 36.2678V35.5657C121.076 28.7747 126.602 23.2484 133.393 23.2484C140.184 23.2484 145.711 28.7747 145.711 35.5657V36.2678C146.996 35.812 148.375 35.5657 149.816 35.5657C156.607 35.5657 162.134 41.0921 162.134 47.8831V87.1671C166.059 86.0134 171.729 84.835 178.557 84.835C190.607 84.835 194.98 94.656 194.98 101.258C194.98 102.814 194.101 104.235 192.71 104.933C176.434 113.066 170.345 116.113 170.345 129.999V138.966C171.635 138.506 173.002 138.21 174.451 138.21C175.892 138.21 177.272 138.456 178.557 138.912V138.21C178.557 131.419 184.083 125.893 190.874 125.893C197.665 125.893 203.192 131.419 203.192 138.21V138.912C204.477 138.456 205.856 138.21 207.297 138.21C214.088 138.21 219.615 143.737 219.615 150.527V189.812C223.54 188.658 229.21 187.479 236.038 187.479C248.088 187.479 252.461 197.301 252.461 203.903C252.461 205.459 251.582 206.879 250.19 207.577C233.915 215.711 227.826 218.757 227.826 232.643V281.912C227.826 284.179 225.987 286.018 223.72 286.018H26.643C24.3767 286.018 22.5373 284.179 22.5373 281.912V187.479C22.5373 180.688 28.0637 175.162 34.8546 175.162M219.615 277.806V232.643C219.615 214.676 228.709 209.186 243.942 201.521C243.309 198.98 241.449 195.691 236.038 195.691C224.821 195.691 217.418 199.324 217.344 199.366C216.071 200.002 214.561 199.936 213.349 199.185C212.142 198.433 211.403 197.116 211.403 195.691V150.527C211.403 148.265 209.56 146.422 207.298 146.422C205.035 146.422 203.192 148.265 203.192 150.527V179.268C203.192 181.534 201.352 183.373 199.086 183.373C196.82 183.373 194.98 181.534 194.98 179.268V138.21C194.98 135.948 193.137 134.104 190.874 134.104C188.612 134.104 186.769 135.948 186.769 138.21V179.268C186.769 181.534 184.929 183.373 182.663 183.373C180.396 183.373 178.557 181.534 178.557 179.268V150.527C178.557 148.265 176.714 146.422 174.451 146.422C172.189 146.422 170.345 148.265 170.345 150.527V179.268C170.345 181.534 168.506 183.373 166.24 183.373C163.973 183.373 162.134 181.534 162.134 179.268V162.845C162.134 160.582 160.29 158.739 158.028 158.739C155.766 158.739 153.922 160.582 153.922 162.845V277.806H219.615M161.434 189.846C162.899 190.514 164.527 190.886 166.239 190.886C169.442 190.886 172.347 189.584 174.451 187.48C176.554 189.584 179.459 190.886 182.662 190.886C185.865 190.886 188.77 189.584 190.874 187.48C192.978 189.584 195.882 190.886 199.085 190.886C200.798 190.886 202.425 190.514 203.89 189.846V195.691C203.89 199.733 205.942 203.424 209.388 205.569C211.227 206.71 213.343 207.313 215.506 207.313C217.301 207.313 219.098 206.888 220.654 206.109C220.68 206.097 221.818 205.564 223.831 204.957C216.989 210.797 212.101 218.978 212.101 232.643V270.294H161.434V189.846M145.711 277.807V162.845C145.711 156.054 151.237 150.528 158.028 150.528C159.469 150.528 160.849 150.774 162.134 151.23V129.999C162.134 112.032 171.228 106.542 186.461 98.8768C185.828 96.3353 183.968 93.0466 178.557 93.0466C167.34 93.0466 159.937 96.6802 159.863 96.7213C158.59 97.3577 157.08 97.2879 155.868 96.5406C154.661 95.7934 153.922 94.4713 153.922 93.0466V47.8831C153.922 45.6208 152.079 43.7772 149.817 43.7772C147.554 43.7772 145.711 45.6208 145.711 47.8831V76.6235C145.711 78.8899 143.871 80.7293 141.605 80.7293C139.339 80.7293 137.499 78.8899 137.499 76.6235V35.5657C137.499 33.3034 135.656 31.4599 133.393 31.4599C131.131 31.4599 129.288 33.3034 129.288 35.5657V76.6235C129.288 78.8899 127.448 80.7293 125.182 80.7293C122.915 80.7293 121.076 78.8899 121.076 76.6235V47.8831C121.076 45.6208 119.233 43.7772 116.97 43.7772C114.708 43.7772 112.865 45.6208 112.865 47.8831V76.6235C112.865 78.8899 111.025 80.7293 108.759 80.7293C106.492 80.7293 104.653 78.8899 104.653 76.6235V60.2004C104.653 57.9381 102.809 56.0946 100.547 56.0946C98.2849 56.0946 96.4414 57.9381 96.4414 60.2004V214.446C100.367 213.292 106.037 212.114 112.865 212.114C124.915 212.114 129.288 221.935 129.288 228.537C129.288 230.093 128.409 231.514 127.017 232.212C110.742 240.345 104.653 243.392 104.653 257.278V277.807H145.711M112.864 204.601C109.863 204.601 106.886 204.799 103.953 205.193V87.2013C105.418 87.8693 107.046 88.2418 108.758 88.2418C111.961 88.2418 114.866 86.9389 116.97 84.8351C119.073 86.9389 121.978 88.2418 125.181 88.2418C128.384 88.2418 131.289 86.9389 133.393 84.8351C135.497 86.9389 138.401 88.2418 141.604 88.2418C143.317 88.2418 144.944 87.8693 146.409 87.2013V93.0464C146.409 97.1005 148.467 100.795 151.923 102.934C153.76 104.068 155.871 104.667 158.029 104.667C159.823 104.667 161.618 104.243 163.173 103.465C163.199 103.452 164.337 102.919 166.35 102.313C159.508 108.152 154.62 116.334 154.62 129.998V143.307C145.303 144.927 138.197 153.072 138.197 162.845V270.294H112.165V257.277C112.165 248.332 113.967 247.132 130.384 238.927C134.341 236.943 136.8 232.962 136.8 228.537C136.8 216.934 128.411 204.601 112.864 204.601M96.4371 277.807L96.4412 257.278C96.4412 239.311 105.536 233.821 120.768 226.156C120.136 223.614 118.276 220.326 112.864 220.326C101.647 220.326 94.2446 223.959 94.1707 224C92.902 224.633 91.387 224.567 90.1758 223.82C88.9687 223.068 88.2297 221.75 88.2297 220.326V175.162C88.2297 172.9 86.3862 171.056 84.1239 171.056C81.8616 171.056 80.0181 172.9 80.0181 175.162V203.902C80.0181 206.169 78.1788 208.008 75.9124 208.008C73.646 208.008 71.8066 206.169 71.8066 203.902V162.845C71.8066 160.582 69.9631 158.739 67.7008 158.739C65.4386 158.739 63.595 160.582 63.595 162.845V203.902C63.595 206.169 61.7556 208.008 59.4892 208.008C57.2229 208.008 55.3835 206.169 55.3835 203.902V175.162C55.3835 172.9 53.54 171.056 51.2777 171.056C49.0154 171.056 47.1719 172.9 47.1719 175.162V203.902C47.1719 206.169 45.3325 208.008 43.0661 208.008C40.7997 208.008 38.9604 206.169 38.9604 203.902V187.479C38.9604 185.217 37.1169 183.374 34.8546 183.374C32.5923 183.374 30.7488 185.217 30.7488 187.479V277.807H96.4372M38.2617 214.48C39.7266 215.148 41.354 215.521 43.0662 215.521C46.2695 215.521 49.174 214.218 51.2778 212.114C53.3816 214.218 56.2861 215.521 59.4893 215.521C62.6926 215.521 65.5971 214.218 67.7009 212.114C69.8048 214.218 72.7093 215.521 75.9125 215.521C77.6247 215.521 79.2522 215.148 80.7171 214.48V220.325C80.7171 224.368 82.7689 228.058 86.2316 230.214C88.0668 231.346 90.1778 231.944 92.3363 231.944C94.1274 231.944 95.9205 231.522 97.4812 230.744C97.5072 230.731 98.6452 230.198 100.658 229.592C93.8161 235.431 88.9286 243.612 88.9286 257.276L88.926 270.294H38.2617V214.48M223.72 301.043H26.643C16.094 301.043 7.51172 292.461 7.51172 281.912V187.479C7.51172 174.833 16.0057 164.131 27.866 161.034C31.5365 154.938 37.4163 150.529 44.2836 148.723C49.18 140.573 57.9706 135.502 67.7007 135.502C69.5619 135.502 71.4048 135.692 73.2041 136.062V60.2001C73.2041 47.5538 81.6981 36.8515 93.5584 33.7549C97.229 27.6593 103.109 23.2498 109.976 21.4434C114.872 13.2941 123.663 8.22266 133.393 8.22266C143.121 8.22266 151.91 13.2919 156.807 21.4382C168.666 24.5356 177.159 35.2374 177.159 47.8828V69.8224C177.625 69.8137 178.091 69.8093 178.557 69.8093C198.983 69.8093 210.005 86.0124 210.005 101.258C210.005 106.336 208.039 111.06 204.64 114.562C208.558 116.842 211.89 120.093 214.288 124.083C226.147 127.18 234.64 137.882 234.64 150.527V172.467C235.106 172.458 235.572 172.454 236.038 172.454C256.464 172.454 267.486 188.657 267.486 203.902C267.486 211.187 263.44 217.742 256.925 221.008C242.852 228.042 242.852 228.042 242.852 232.643V281.912C242.852 292.461 234.269 301.043 223.72 301.043L223.72 301.043ZM168.947 262.781H204.589V232.643C204.589 225.403 205.806 219.018 208.275 213.406C207.292 213.004 206.339 212.518 205.428 211.953C200.488 208.878 197.287 203.871 196.543 198.232C194.564 197.971 192.655 197.404 190.874 196.555C188.34 197.762 185.549 198.399 182.662 198.399C179.775 198.399 176.984 197.762 174.451 196.555C172.719 197.38 170.867 197.939 168.947 198.21V262.781ZM119.678 262.781H130.685V247.178C119.678 252.705 119.678 253.038 119.678 257.277V262.781ZM45.7745 262.781H81.4149L81.416 257.275C81.416 250.036 82.6332 243.651 85.1031 238.039C84.1309 237.642 83.189 237.164 82.2875 236.608C77.325 233.519 74.1161 228.506 73.371 222.867C71.3912 222.605 69.4826 222.038 67.701 221.189C65.1672 222.397 62.3767 223.034 59.4894 223.034C56.6022 223.034 53.8117 222.397 51.2779 221.189C49.5464 222.015 47.6947 222.573 45.7745 222.844L45.7745 262.781ZM112.864 197.088C119.963 197.088 125.925 199.045 130.685 202.239V162.845C130.685 151.735 137.304 142.014 147.108 137.764V129.998C147.108 122.758 148.325 116.373 150.795 110.76C149.823 110.363 148.881 109.885 147.979 109.328C143.02 106.258 139.807 101.243 139.062 95.5877C137.082 95.3259 135.174 94.7591 133.393 93.9101C130.859 95.1176 128.069 95.7545 125.181 95.7545C122.294 95.7545 119.504 95.1176 116.97 93.9101C115.238 94.7352 113.386 95.294 111.466 95.565V197.101C111.932 197.093 112.398 197.088 112.864 197.088L112.864 197.088Z" fill="#0090FF"/>
</g>
<g clip-path="url(#clip3_683_9176)">
<path fill-rule="evenodd" clip-rule="evenodd" d="M223.723 286.017C225.99 286.017 227.829 284.178 227.829 281.911V232.642C227.829 218.756 233.918 215.71 250.193 207.576C251.585 206.878 252.464 205.458 252.464 203.901C252.464 197.299 248.091 187.478 236.041 187.478C229.213 187.478 223.543 188.657 219.618 189.81V150.526C219.618 143.735 214.091 138.209 207.3 138.209C205.859 138.209 204.48 138.455 203.194 138.911V138.209C203.194 131.418 197.668 125.892 190.877 125.892C184.086 125.892 178.56 131.418 178.56 138.209V138.911C177.275 138.455 175.895 138.209 174.454 138.209C173.005 138.209 171.637 138.505 170.348 138.965V129.997C170.348 116.112 176.437 113.065 192.712 104.932C194.104 104.234 194.983 102.813 194.983 101.257C194.983 94.655 190.61 84.8339 178.56 84.8339C171.732 84.8339 166.062 86.0123 162.137 87.166V47.8819C162.137 41.091 156.61 35.5646 149.819 35.5646C148.378 35.5646 146.999 35.8109 145.714 36.2667V35.5646C145.714 28.7736 140.187 23.2473 133.396 23.2473C126.605 23.2473 121.079 28.7736 121.079 35.5646V36.2667C119.794 35.8109 118.414 35.5646 116.973 35.5646C110.182 35.5646 104.656 41.091 104.656 47.8819V48.584C103.371 48.1324 101.991 47.8819 100.55 47.8819C93.759 47.8819 88.2327 53.4083 88.2327 60.1992V163.599C86.9394 163.139 85.5721 162.844 84.1269 162.844C82.6858 162.844 81.3062 163.094 80.0211 163.546V162.844C80.0211 156.053 74.4947 150.526 67.7038 150.526C60.9128 150.526 55.3865 156.053 55.3865 162.844V163.546C54.1013 163.094 52.7218 162.844 51.2806 162.844C44.4897 162.844 38.9633 168.37 38.9633 175.161V175.863C37.6782 175.411 36.2987 175.161 34.8576 175.161C28.0666 175.161 22.5402 180.687 22.5402 187.478V281.911C22.5402 284.178 24.3796 286.017 26.646 286.017H223.723M223.723 293.53H26.6459C20.2394 293.53 15.0273 288.318 15.0273 281.911V187.478C15.0273 177.208 22.8749 168.736 32.8889 167.745C35.5965 161.055 41.8534 156.166 49.312 155.428C52.2547 148.157 59.3901 143.014 67.7037 143.014C72.6803 143.014 77.2343 144.856 80.7198 147.895V60.1991C80.7198 49.9288 88.5674 41.4571 98.5813 40.466C101.289 33.7757 107.546 28.8868 115.004 28.1486C117.947 20.8776 125.083 15.7344 133.396 15.7344C141.71 15.7344 148.845 20.8776 151.788 28.1486C161.802 29.1397 169.649 37.6114 169.649 47.8818V77.9129C172.582 77.5192 175.559 77.321 178.56 77.321C194.107 77.321 202.495 89.6534 202.495 101.257C202.495 105.681 200.037 109.663 196.08 111.647C186.425 116.472 181.825 118.874 179.674 121.854C182.863 119.663 186.723 118.379 190.877 118.379C199.191 118.379 206.326 123.522 209.269 130.793C219.283 131.784 227.13 140.256 227.13 150.526V180.557C230.063 180.164 233.039 179.965 236.041 179.965C251.587 179.965 259.976 192.298 259.976 203.901C259.976 208.326 257.518 212.307 253.561 214.292C237.144 222.496 235.342 223.696 235.342 232.642V281.911C235.342 288.318 230.13 293.53 223.723 293.53H223.723Z" fill="#1248DD"/>
</g>
<path d="M236.036 187.481C229.208 187.481 223.538 188.66 219.613 189.813V150.529C219.613 143.738 214.086 138.212 207.295 138.212C205.854 138.212 204.474 138.458 203.189 138.914V138.212C203.189 131.421 197.663 125.894 190.872 125.894C184.081 125.894 178.555 131.421 178.555 138.212V138.914C177.27 138.458 175.89 138.212 174.449 138.212C173 138.212 171.632 138.507 170.343 138.967V130C170.343 116.115 176.432 113.068 192.707 104.934C194.099 104.236 194.978 102.816 194.978 101.26C194.978 94.6577 190.605 84.8367 178.555 84.8367C171.727 84.8367 166.057 86.015 162.132 87.1688V47.8847C162.132 41.0937 156.605 35.5673 149.814 35.5673C148.373 35.5673 146.994 35.8137 145.708 36.2694V35.5673C145.708 28.7764 140.182 23.25 133.391 23.25C126.6 23.25 121.074 28.7764 121.074 35.5673V36.2694C119.789 35.8137 118.409 35.5673 116.968 35.5673C110.177 35.5673 104.651 41.0937 104.651 47.8847V48.5868C103.366 48.1351 101.986 47.8847 100.545 47.8847C93.754 47.8847 88.2276 53.4111 88.2276 60.202V163.602C86.9343 163.142 85.5671 162.846 84.1218 162.846C82.6807 162.846 81.3012 163.097 80.0161 163.549V162.846C80.0161 156.056 74.4897 150.529 67.6987 150.529C60.9078 150.529 55.3814 156.056 55.3814 162.846V163.549C54.0963 163.097 52.7167 162.846 51.2756 162.846C44.4846 162.846 38.9583 168.373 38.9583 175.164V175.866C37.6732 175.414 36.2936 175.164 34.8525 175.164C28.0615 175.164 22.5352 180.69 22.5352 187.481V281.914C22.5352 284.18 24.3745 286.02 26.6409 286.02H223.718C225.985 286.02 227.824 284.18 227.824 281.914V232.645C227.824 218.759 233.913 215.712 250.188 207.579C251.58 206.881 252.459 205.46 252.459 203.904C252.459 197.302 248.086 187.481 236.036 187.481Z" fill="#08072E"/>
<g clip-path="url(#clip4_683_9176)">
<path fill-rule="evenodd" clip-rule="evenodd" d="M236.04 187.481C229.212 187.481 223.542 188.66 219.616 189.813V150.529C219.616 143.738 214.09 138.212 207.299 138.212C205.858 138.212 204.478 138.458 203.193 138.914V138.212C203.193 131.421 197.667 125.894 190.876 125.894C184.085 125.894 178.559 131.421 178.559 138.212V138.914C177.274 138.458 175.894 138.212 174.453 138.212C173.003 138.212 171.636 138.507 170.347 138.967V130C170.347 116.115 176.436 113.068 192.711 104.934C194.103 104.236 194.982 102.816 194.982 101.26C194.982 94.6577 190.609 84.8367 178.559 84.8367C171.731 84.8367 166.061 86.015 162.136 87.1688V47.8847C162.136 41.0937 156.609 35.5673 149.818 35.5673C148.377 35.5673 146.998 35.8137 145.712 36.2694V35.5673C145.712 28.7764 140.186 23.25 133.395 23.25C126.604 23.25 121.078 28.7764 121.078 35.5673V36.2694C119.793 35.8137 118.413 35.5673 116.972 35.5673C110.181 35.5673 104.655 41.0937 104.655 47.8847V48.5868C103.37 48.1351 101.99 47.8847 100.549 47.8847C93.7579 47.8847 88.2315 53.4111 88.2315 60.202V163.602C86.9382 163.142 85.571 162.846 84.1258 162.846C82.6846 162.846 81.3051 163.097 80.02 163.549V162.846C80.02 156.056 74.4936 150.529 67.7026 150.529C60.9117 150.529 55.3853 156.056 55.3853 162.846V163.549C54.1002 163.097 52.7206 162.846 51.2795 162.846C44.4886 162.846 38.9622 168.373 38.9622 175.164V175.866C37.6771 175.414 36.2975 175.164 34.8564 175.164C28.0654 175.164 22.5391 180.69 22.5391 187.481V281.914C22.5391 284.18 24.3785 286.02 26.6448 286.02H223.722C225.989 286.02 227.828 284.18 227.828 281.914V232.645C227.828 218.759 233.917 215.712 250.192 207.579C251.584 206.881 252.463 205.46 252.463 203.904C252.463 197.302 248.09 187.481 236.04 187.481ZM96.4431 60.202C96.4431 57.9397 98.2866 56.0962 100.549 56.0962C102.811 56.0962 104.655 57.9397 104.655 60.202V76.6251C104.655 78.8915 106.494 80.7309 108.76 80.7309C111.027 80.7309 112.866 78.8915 112.866 76.6251V47.8847C112.866 45.6224 114.71 43.7789 116.972 43.7789C119.234 43.7789 121.078 45.6224 121.078 47.8847V76.6251C121.078 78.8915 122.917 80.7309 125.184 80.7309C127.45 80.7309 129.289 78.8915 129.289 76.6251V35.5673C129.289 33.3051 131.133 31.4616 133.395 31.4616C135.657 31.4616 137.501 33.3051 137.501 35.5673V76.6251C137.501 78.8915 139.34 80.7309 141.607 80.7309C143.873 80.7309 145.712 78.8915 145.712 76.6251V47.8847C145.712 45.6224 147.556 43.7789 149.818 43.7789C152.081 43.7789 153.924 45.6224 153.924 47.8847V93.0482C153.924 94.4729 154.663 95.795 155.87 96.5423C157.081 97.2895 158.592 97.3593 159.865 96.7229C159.939 96.6818 167.342 93.0482 178.559 93.0482C183.97 93.0482 185.83 96.337 186.462 98.8784C171.23 106.544 162.136 112.033 162.136 130V150.529V151.231C160.85 150.775 159.471 150.529 158.03 150.529C151.239 150.529 145.712 156.055 145.712 162.846V277.808H104.655V257.279C104.655 243.394 110.744 240.347 127.019 232.214C128.411 231.516 129.289 230.095 129.289 228.539C129.289 221.937 124.917 212.116 112.866 212.116C106.038 212.116 100.368 213.294 96.4431 214.448L96.4431 60.202ZM96.4389 277.808H30.7505V187.481C30.7505 185.219 32.594 183.375 34.8563 183.375C37.1186 183.375 38.9621 185.219 38.9621 187.481V203.904C38.9621 206.17 40.8015 208.01 43.0679 208.01C45.3343 208.01 47.1737 206.17 47.1737 203.904V175.164C47.1737 172.901 49.0172 171.058 51.2794 171.058C53.5417 171.058 55.3852 172.901 55.3852 175.164V203.904C55.3852 206.17 57.2246 208.01 59.491 208.01C61.7574 208.01 63.5968 206.17 63.5968 203.904V162.846C63.5968 160.584 65.4403 158.741 67.7025 158.741C69.9648 158.741 71.8083 160.584 71.8083 162.846V203.904C71.8083 206.17 73.6477 208.01 75.9141 208.01C78.1805 208.01 80.0199 206.17 80.0199 203.904V175.164C80.0199 172.901 81.8634 171.058 84.1257 171.058C86.388 171.058 88.2314 172.901 88.2314 175.164V220.327C88.2314 221.752 88.9705 223.07 90.1776 223.821C91.3888 224.568 92.9038 224.634 94.1725 224.002C94.2464 223.961 101.649 220.327 112.866 220.327C118.278 220.327 120.137 223.616 120.77 226.157C105.537 233.823 96.443 239.312 96.443 257.279L96.4389 277.808ZM219.617 232.645V277.808H153.924V162.847C153.924 160.584 155.768 158.741 158.03 158.741C160.292 158.741 162.136 160.584 162.136 162.847V179.27C162.136 181.536 163.975 183.376 166.241 183.376C168.508 183.376 170.347 181.536 170.347 179.27V150.529C170.347 148.267 172.191 146.423 174.453 146.423C176.715 146.423 178.559 148.267 178.559 150.529V179.27C178.559 181.536 180.398 183.376 182.665 183.376C184.931 183.376 186.77 181.536 186.77 179.27V138.212C186.77 135.95 188.614 134.106 190.876 134.106C193.138 134.106 194.982 135.95 194.982 138.212V179.27C194.982 181.536 196.821 183.376 199.088 183.376C201.354 183.376 203.193 181.536 203.193 179.27V150.529C203.193 148.267 205.037 146.423 207.299 146.423C209.561 146.423 211.405 148.267 211.405 150.529V195.693C211.405 197.118 212.144 198.436 213.351 199.187C214.562 199.938 216.073 200.004 217.346 199.368C217.42 199.326 224.823 195.693 236.04 195.693C241.451 195.693 243.311 198.982 243.943 201.523C228.711 209.189 219.617 214.678 219.617 232.645V232.645Z" fill="#0621A4"/>
</g>
</g>
<defs>
<clipPath id="clip0_683_9176">
<rect width="275" height="307.846" fill="white" transform="translate(0 0.710938)"/>
</clipPath>
<clipPath id="clip1_683_9176">
<rect width="275" height="307.846" fill="white" transform="translate(0 0.710938)"/>
</clipPath>
<clipPath id="clip2_683_9176">
<rect width="259.975" height="292.821" fill="white" transform="translate(7.51172 8.22266)"/>
</clipPath>
<clipPath id="clip3_683_9176">
<rect width="244.949" height="277.795" fill="white" transform="translate(15.0273 15.7344)"/>
</clipPath>
<clipPath id="clip4_683_9176">
<rect width="229.924" height="262.77" fill="white" transform="translate(22.5391 23.25)"/>
</clipPath>
</defs>
</svg>
