<svg width="94" height="70" viewBox="0 0 94 70" fill="none" xmlns="http://www.w3.org/2000/svg">
<g clip-path="url(#clip0_406_5334)">
<path d="M43.9006 18.3191C44.0513 18.2893 44.1116 18.2596 44.1718 18.2298C44.5937 18.1404 45.2266 18.2298 45.3773 17.9617C45.7389 17.3957 45.9499 16.6808 46.1005 16.0255C46.1307 15.8766 45.8293 15.6085 45.6786 15.4C44.9855 14.5659 45.2567 13.5234 46.2512 13.1064C46.8841 12.8383 47.4265 13.0468 47.8183 13.4936C48.3005 14.0298 48.2101 14.6255 47.9087 15.1915C47.758 15.4893 47.4868 15.6978 47.2758 15.9361C47.4567 16.4425 47.6676 16.8893 47.758 17.3659C47.8786 17.9319 48.1197 18.2596 48.7525 18.1702C49.4155 18.0808 49.6867 18.3489 49.5963 19.0042C49.5059 19.5702 49.4456 20.1659 49.295 20.7021C49.084 21.417 49.295 22.0425 49.8675 22.4893C50.8922 23.2042 51.7963 24.0383 52.5497 25.0808C53.1222 25.8851 54.0565 26.4213 54.8701 27.0468C57.2509 28.7744 58.9988 30.9787 59.8426 33.8085C60.2645 35.2383 60.5357 36.7276 60.8672 38.1872C60.807 38.217 60.7165 38.2766 60.6563 38.3064C60.5056 38.2468 60.2946 38.217 60.1741 38.0979C58.2152 36.3106 55.8044 35.3574 53.3031 34.6425C52.4894 34.4042 51.6456 34.3149 50.8018 34.2851C48.8731 34.1659 46.9443 33.9276 45.0458 34.017C41.1582 34.2255 37.5419 35.2681 34.3475 37.5915C34.1064 37.7702 33.8653 37.9787 33.5941 38.1574C33.5338 38.1872 33.4434 38.1574 33.2324 38.1574C33.2626 37.4127 33.2324 36.6681 33.3831 35.9532C33.8653 34.017 34.5283 32.1106 35.6734 30.4127C36.7282 28.8936 37.9939 27.583 39.5309 26.5702C40.2541 26.0936 40.7363 25.5276 41.1582 24.783C41.7308 23.7404 42.6349 23.0255 43.6595 22.4298C44.2924 22.0723 44.5335 21.3872 44.1417 20.7915C43.5691 19.9574 43.9006 19.1234 43.8403 18.2595L43.9006 18.3191Z" fill="#5F7C95"/>
<path d="M66.8335 53.9745C65.7486 53.0809 64.8143 52.2468 63.8199 51.5319C61.9815 50.2213 59.9323 49.417 57.7324 48.8511C55.0804 48.1958 52.4284 47.7489 49.7162 47.6596C48.3902 47.6 47.0642 47.3915 45.7382 47.4809C43.2972 47.6596 40.8863 47.8979 38.4754 48.2851C36.6974 48.5532 34.8591 48.9404 33.1714 49.566C30.7304 50.4894 28.3798 51.6809 26.7524 53.8553C26.7223 53.9149 26.662 53.9447 26.4511 54.1234C26.3305 53.7958 26.1497 53.5277 26.1196 53.2596C25.8484 51.0553 26.9935 49.5362 28.6812 48.3447C30.6099 46.9745 32.8098 46.1702 35.1001 45.5447C37.4508 44.8894 39.8315 44.4723 42.2725 44.3532C44.6834 44.234 47.1245 44.0851 49.5353 44.1745C51.4942 44.2638 53.4229 44.6809 55.3817 44.9489C57.5515 45.2468 59.6008 45.9021 61.5898 46.766C63.1267 47.4213 64.6034 48.1958 65.7184 49.4468C66.6225 50.4894 67.2252 51.6511 67.0746 53.1106C67.0444 53.4085 66.8937 53.6766 66.8033 53.9745H66.8335Z" fill="#5F7C95"/>
<path d="M63.4878 45.0085C61.77 42.0894 58.9975 40.6894 55.9839 39.6766C53.8141 38.9319 51.5539 38.6936 49.2937 38.3958C47.154 38.1277 45.0445 38.2766 42.935 38.5447C39.6501 38.9617 36.4858 39.8851 33.6832 41.7319C32.538 42.4766 31.6339 43.4894 30.9408 44.6809C30.8202 44.8596 30.6696 45.0383 30.4285 45.3362C30.1572 43.9064 30.4887 42.8043 31.1819 41.7915C32.4175 39.9447 34.1955 38.783 36.2146 37.9192C38.6255 36.9064 41.1569 36.2511 43.8089 36.1021C45.6773 35.983 47.5759 35.8043 49.4142 35.9532C51.2827 36.1021 53.121 36.6085 54.9593 37.0255C57.5811 37.6213 59.9317 38.7234 61.8604 40.6298C62.9152 41.6426 63.6385 42.8341 63.548 44.3532C63.548 44.5915 63.4878 44.8298 63.4878 45.0681V45.0085Z" fill="#5F7C95"/>
<path d="M52.9105 65.6808V62.2851C53.6037 62.2851 54.2968 62.2851 54.9296 62.2851C55.0502 62.2851 55.2611 62.5234 55.2611 62.6425C55.2611 64.8766 55.2611 67.1106 55.2611 69.3447C55.2611 69.4936 54.9598 69.7319 54.8091 69.7319C54.3269 69.7915 53.7845 69.8213 53.3023 69.7319C53.0311 69.7021 52.7598 69.4638 52.6092 69.2255C51.8558 68.183 51.1024 67.1106 50.2284 66.0681V69.7617C49.5051 69.7617 48.9024 69.7915 48.2696 69.7617C48.1189 69.7617 47.8477 69.4638 47.8477 69.2851C47.8477 67.1106 47.8477 64.9362 47.8477 62.7319C47.8477 62.583 48.149 62.3149 48.36 62.2851C48.8723 62.2255 49.4147 62.2255 49.927 62.2851C50.138 62.2851 50.3791 62.4638 50.4996 62.6425C51.253 63.6553 51.9763 64.6979 52.6996 65.7404C52.7598 65.7106 52.8201 65.6808 52.8804 65.6511L52.9105 65.6808Z" fill="#5F7C95"/>
<path d="M44.4715 53.9447C44.4715 52.7532 44.4715 51.5617 44.4715 50.3702C44.4715 49.4468 44.8934 48.7915 45.6469 48.3447C46.4907 47.8681 47.3345 48.017 48.0879 48.583C48.6906 49.0298 48.9618 49.7149 48.9618 50.4298C48.992 52.8724 48.9618 55.2851 48.9618 57.7277C48.9618 58.2341 48.781 58.4426 48.2687 58.4426C47.1838 58.4426 46.0989 58.4426 45.0441 58.4426C44.562 58.4426 44.4414 58.2341 44.4414 57.817C44.4414 56.5362 44.4414 55.2256 44.4414 53.9447H44.4715Z" fill="#5F7C95"/>
<path d="M61.4997 67.4383C61.2586 67.3788 61.1381 67.349 61.0477 67.349C60.0833 67.2894 59.6915 66.783 60.023 65.8596C60.1134 65.6511 60.4148 65.383 60.6257 65.383C61.4394 65.3234 62.2832 65.383 63.0969 65.383C63.5489 65.383 63.79 65.5915 63.79 66.0681C63.79 66.366 63.7298 66.6639 63.79 66.9617C64.1215 68.5107 63.1873 69.2851 61.9517 69.7617C60.2641 70.3873 57.8834 70 56.7683 68.3617C55.9547 67.1405 55.7437 65.8596 56.3464 64.549C56.9491 63.2085 58.034 62.4043 59.571 62.3149C60.9572 62.2554 62.2832 62.3149 63.2476 63.5362C63.5791 63.9532 63.4585 64.132 63.127 64.3405C62.7654 64.5788 62.3736 64.7873 61.9517 64.9362C61.8011 64.9958 61.5298 64.9362 61.3791 64.8171C60.6559 64.132 59.7217 64.1022 58.9984 64.7277C58.2149 65.4426 58.1244 66.5745 58.7874 67.3788C59.4203 68.1234 60.5052 68.2128 61.4394 67.4979L61.4997 67.4383Z" fill="#5F7C95"/>
<path d="M24.9753 69.7319C23.3681 69.9305 22.5645 69.305 22.5645 67.8553C22.5645 66.3362 22.5645 64.817 22.5645 63.3277C22.5645 62.3745 22.6247 62.3149 23.5891 62.3149C23.9507 62.3149 24.3425 62.3149 24.7041 62.3149C24.7343 62.3149 24.7945 62.3447 24.9452 62.4043C24.9452 63.0298 24.9452 63.6851 24.9452 64.3405C24.9452 64.8468 25.126 64.9958 25.6082 64.9958C26.2411 64.9958 26.9041 64.9958 27.6876 64.9958C27.6876 64.2809 27.6876 63.6256 27.6876 62.9702C27.6876 62.4936 27.8383 62.2851 28.3204 62.3149C28.8629 62.3149 29.4053 62.3149 30.0081 62.3149V69.8213C29.3752 69.8213 28.7122 69.8213 28.0492 69.8213C27.9287 69.8213 27.7177 69.4936 27.7177 69.2851C27.6876 68.6 27.7177 67.9149 27.7177 67.1404H25.0356V69.7617L24.9753 69.7319Z" fill="#5F7C95"/>
<path d="M71.5055 69.7915C70.6617 69.7915 69.9686 69.8213 69.3056 69.7915C68.4618 69.7319 68.6124 68.8979 68.3111 68.4213C68.0399 68.0042 68.07 67.2596 67.1358 67.4681V69.7319H64.7852V62.2851C65.7796 62.2851 66.8043 62.2553 67.8289 62.2851C68.5522 62.3149 69.3056 62.3744 69.9987 62.5532C71.6261 63 72.289 65.234 70.8425 66.7234C70.4507 67.1404 70.3001 67.4383 70.6617 67.9744C71.0233 68.4808 71.2041 69.0766 71.5356 69.7915H71.5055ZM67.859 65.5319C68.4919 65.5319 69.1549 65.5319 69.1549 64.817C69.1549 64.2213 68.522 64.1319 67.9796 64.1021C67.4371 64.1021 67.1056 64.1617 67.1056 64.8468C67.1056 65.5319 67.4673 65.5617 67.8892 65.5021L67.859 65.5319Z" fill="#5F7C95"/>
<path d="M38.7476 66.0085C38.6572 64.1915 40.3448 62.166 42.9064 62.1958C45.709 62.2255 47.1857 64.1021 47.1254 66.0085C47.035 68.5404 45.4378 69.9107 42.9365 69.9404C40.6763 69.9404 38.7175 68.6 38.7476 65.9787V66.0085ZM41.1585 66.0085C41.1585 67.1404 41.8516 67.8553 42.9064 67.9149C43.7803 67.9745 44.805 66.9021 44.7748 66.0383C44.7447 65.0851 43.9009 64.2213 42.9667 64.1617C41.942 64.1021 41.1585 64.9362 41.1585 66.0383V66.0085Z" fill="#5F7C95"/>
<path d="M54.1763 54.183C54.1763 55.3744 54.1763 56.5659 54.1763 57.7574C54.1763 58.2936 53.9955 58.4425 53.4832 58.4425C52.549 58.4127 51.6148 58.4425 50.7107 58.4425C50.1682 58.4425 49.9573 58.234 49.9573 57.6978C49.9573 55.5234 49.9573 53.3191 49.9874 51.1447C50.0175 49.8042 50.8915 48.6723 52.549 48.9106C53.3627 49.0298 54.1462 49.7447 54.1462 50.5489C54.1462 51.7702 54.1462 52.9915 54.1462 54.183H54.1763Z" fill="#5F7C95"/>
<path d="M43.3273 54.183C43.3273 55.3745 43.3273 56.566 43.3273 57.7575C43.3273 58.2936 43.1465 58.4426 42.6342 58.4426C41.7 58.4128 40.7657 58.4426 39.8617 58.4426C39.3493 58.4426 39.1384 58.2341 39.1384 57.7277C39.1384 55.5532 39.1083 53.3489 39.1384 51.1745C39.1384 50.2809 39.5 49.3872 40.4041 49.0298C41.0671 48.7617 41.8808 48.7021 42.4534 49.2383C42.8451 49.6255 43.2068 50.1915 43.267 50.6979C43.3876 51.8596 43.2972 53.0213 43.2972 54.183H43.3273Z" fill="#5F7C95"/>
<path d="M81.2696 64.6681C81.6312 64.7873 81.9627 64.8766 82.3244 64.9958C82.9271 65.1745 83.5901 65.2639 84.1627 65.5022C85.2777 65.9788 85.5791 66.5745 85.4886 67.766C85.4284 68.5702 84.6147 69.4936 83.7709 69.7617C82.1737 70.2383 80.6669 70 79.2203 69.1958C78.7382 68.9277 78.6779 68.6596 79.0697 68.2128C79.371 67.8851 79.582 67.4681 79.7628 67.2596C80.6367 67.5277 81.3901 67.7958 82.1737 67.9447C82.4449 68.0043 82.7764 67.7064 83.0778 67.5873C82.7764 67.4085 82.5052 67.2 82.2038 67.0809C81.6011 66.8724 80.9381 66.8128 80.3655 66.5745C79.371 66.1575 78.7984 65.2639 78.8888 64.4596C78.9792 63.566 79.8833 62.4639 80.7874 62.3149C82.1737 62.1362 83.5599 62.0468 84.8257 62.8213C85.2174 63.0596 85.3681 63.2383 84.9763 63.5958C84.8558 63.7149 84.7955 63.8936 84.7051 64.0128C84.3736 64.5192 84.0421 64.8766 83.349 64.4C82.9873 64.1617 82.4449 64.1022 81.9929 64.0724C81.7518 64.0724 81.4805 64.2511 81.2395 64.3405C81.2395 64.4298 81.2395 64.5192 81.2395 64.6085L81.2696 64.6681Z" fill="#5F7C95"/>
<path d="M88.2913 64.6978C88.683 64.817 89.0748 64.9064 89.4666 64.9957C90.0392 65.1447 90.6419 65.234 91.1542 65.4723C92.0583 65.8893 92.5405 66.5447 92.4802 67.617C92.4199 68.6893 91.787 69.3744 90.883 69.7021C89.2858 70.2681 87.7488 70.0596 86.2721 69.2255C85.7297 68.9276 85.6694 68.6 86.0913 68.1532C86.3626 67.8553 86.5735 67.4978 86.7242 67.3191C87.6283 67.5574 88.4419 67.8255 89.2556 68.0042C89.4666 68.034 89.7679 67.7957 90.009 67.6468C89.7378 67.4681 89.5268 67.2298 89.2255 67.1404C88.4721 66.8723 87.6885 66.6936 86.9351 66.4255C86.1817 66.1276 85.8804 65.4127 85.8804 64.7276C85.8804 63.8638 86.3023 63.0595 87.1461 62.6723C88.7433 62.017 90.3104 62.1064 91.8172 62.9702C91.9076 63.0298 92.0884 63.1787 92.0583 63.2085C91.8172 63.6851 91.5761 64.1617 91.2446 64.5787C91.1542 64.6979 90.7624 64.6383 90.5213 64.5787C89.9789 64.4596 89.4666 64.2808 88.9543 64.1915C88.7433 64.1915 88.4721 64.3702 88.231 64.4893C88.231 64.5787 88.231 64.6383 88.231 64.7276L88.2913 64.6978Z" fill="#5F7C95"/>
<path d="M78.2242 62.3447V64.132C77.4406 64.132 76.6872 64.132 75.9338 64.132C75.7229 64.132 75.4517 64.0724 75.2708 64.132C75.0599 64.2213 74.9393 64.4298 74.7585 64.6086C74.9393 64.7277 75.1202 64.9362 75.301 64.966C76.0242 64.9958 76.7475 64.9958 77.4708 64.966C78.4351 64.966 78.1639 65.6511 78.2242 66.1575C78.2844 66.7235 78.1036 67.0511 77.4406 67.0213C76.7475 66.9915 76.0242 66.9915 75.3311 67.0213C75.1202 67.0213 74.9092 67.2596 74.7284 67.3788C74.9393 67.5575 75.1503 67.8554 75.3613 67.8554C76.2955 67.9149 77.1996 67.8554 78.194 67.8554V69.6426H72.5586V62.2852H78.2242V62.3447Z" fill="#5F7C95"/>
<path d="M8.03711 69.7915V62.3447H13.763C13.763 62.8213 13.8232 63.2979 13.763 63.7447C13.763 63.8937 13.4013 64.132 13.2205 64.132C12.4973 64.1915 11.774 64.132 11.0507 64.1617C10.7795 64.1617 10.5083 64.4596 10.2672 64.6383C10.5384 64.7575 10.7795 64.966 11.0507 64.966C11.7137 65.0256 12.4068 64.966 13.0698 64.966C13.5822 64.966 13.7931 65.2043 13.7931 65.6809C13.7931 65.8894 13.7931 66.1277 13.7931 66.3362C13.7931 66.8128 13.6123 67.0213 13.1301 66.9915C12.3767 66.9915 11.6233 66.9617 10.8699 66.9915C10.6589 66.9915 10.4781 67.2298 10.2672 67.349C10.4781 67.5277 10.6589 67.8256 10.8699 67.8554C11.5932 67.9149 12.3164 67.9149 13.0397 67.8554C13.6123 67.8554 13.9136 67.9745 13.7931 68.6C13.763 68.7788 13.7931 68.9873 13.7931 69.1958C13.8232 69.583 13.6424 69.732 13.2808 69.732C11.563 69.732 9.87541 69.732 8.06725 69.732L8.03711 69.7915Z" fill="#5F7C95"/>
<path d="M21.9609 64.3404C21.3884 64.6085 20.8459 64.9064 20.3035 65.1149C20.1829 65.1745 19.9117 64.966 19.761 64.817C19.1884 64.1915 18.3446 64.0128 17.5611 64.4298C16.8981 64.7574 16.5666 65.8894 16.8077 66.783C16.9885 67.4085 17.8323 68.034 18.4953 67.9149C18.8871 67.8553 19.2788 67.6468 19.5802 67.3787C20.0021 66.9915 20.3336 66.9617 20.8158 67.2298C22.1418 67.9149 22.1719 68.0043 21.0267 69.0468C20.0021 70 18.1337 70.3277 16.8077 69.7021C15.3611 69.0468 14.4269 68.0043 14.3365 66.3064C14.2461 64.4 15.1502 63.1191 16.8679 62.3745C18.646 61.5702 20.9363 62.434 21.9609 64.3404Z" fill="#5F7C95"/>
<path d="M38.416 67.7659C37.8133 69.5829 35.6435 70.2084 34.4682 69.9702C32.1477 69.5233 31.0326 68.3319 30.882 66.5148C30.671 63.9233 31.9669 62.7319 33.5641 62.3744C35.6133 61.9276 37.2105 61.9276 38.4763 64.3404C37.8434 64.6382 37.2105 64.9361 36.6078 65.2042C35.4626 63.9233 34.4079 63.834 33.5641 64.9063C32.9011 65.7702 32.9915 66.6936 33.8052 67.4382C34.5887 68.1233 35.3421 68.1233 36.1256 67.3489C36.5174 66.9616 36.8489 66.9319 37.3009 67.1999C37.6626 67.4085 38.0543 67.5574 38.416 67.7361V67.7659Z" fill="#5F7C95"/>
<path d="M55.3208 54.7191C55.3208 53.7659 55.3208 52.8425 55.3208 51.8893C55.3208 50.817 56.1947 50.0127 57.2796 50.0723C58.0933 50.1021 58.9371 50.8468 58.9371 51.7106C58.9672 53.7659 58.9672 55.8213 58.9371 57.8766C58.9371 58.0553 58.6056 58.383 58.4248 58.383C57.581 58.4425 56.707 58.383 55.8632 58.4127C55.4112 58.4127 55.2906 58.234 55.3208 57.8468C55.3208 56.8042 55.3208 55.7617 55.3208 54.7191Z" fill="#5F7C95"/>
<path d="M34.5282 54.8085C34.5282 53.8553 34.5282 52.8723 34.5282 51.9191C34.5885 50.6085 35.4624 49.9234 36.7281 50.1021C37.3911 50.1915 38.1144 51.1149 38.1445 52.0681C38.1747 54.0042 38.1445 55.9404 38.1445 57.8766C38.1445 58.2936 37.9637 58.4723 37.5418 58.4425C36.7281 58.4425 35.8843 58.4425 35.0706 58.4425C34.6186 58.4425 34.498 58.2638 34.498 57.8766C34.498 56.8638 34.498 55.851 34.498 54.8383L34.5282 54.8085Z" fill="#5F7C95"/>
<path d="M7.1037 62.3447C7.1037 62.583 7.1037 62.7319 7.1037 62.8808C7.1037 64.5191 7.25438 64.4 5.71744 64.3702C5.20512 64.3702 5.02431 64.5191 5.02431 65.0553C5.02431 66.6042 5.02431 68.1532 5.02431 69.7617H2.7641V64.3702C2.16138 64.3702 1.73947 64.3702 1.3477 64.3702C0.89566 64.4 0.714844 64.1915 0.714844 63.7745C0.714844 63.2979 0.714844 62.851 0.714844 62.3447H7.1037Z" fill="#5F7C95"/>
<path d="M30.3086 55.7319C30.3086 55.0766 30.3086 54.3915 30.3086 53.7362C30.3086 52.9915 31.0318 52.2766 31.725 52.217C32.4784 52.1873 33.292 52.8426 33.3222 53.6468C33.3824 55.0766 33.3523 56.5362 33.3222 57.966C33.3222 58.1149 33.0208 58.383 32.84 58.4128C32.177 58.4724 31.5441 58.4128 30.8811 58.4426C30.4291 58.4426 30.2483 58.2936 30.2483 57.8468C30.2483 57.1617 30.2483 56.4468 30.2483 55.7617L30.3086 55.7319Z" fill="#5F7C95"/>
<path d="M60.1432 55.6724C60.1432 55.0468 60.1432 54.4213 60.1432 53.8255C60.1432 52.9319 60.8062 52.2468 61.6198 52.217C62.4034 52.217 63.1568 52.8724 63.1869 53.766C63.2171 55.1362 63.1869 56.4766 63.1869 57.8468C63.1869 58.3234 62.976 58.4426 62.5541 58.4426C61.9513 58.4426 61.3486 58.4426 60.7459 58.4426C60.2939 58.4426 60.113 58.2936 60.113 57.8468C60.113 57.1319 60.113 56.417 60.113 55.7021L60.1432 55.6724Z" fill="#5F7C95"/>
<path d="M5.1449 42.0596C3.91936 41.5234 2.78423 41.7518 1.73952 42.7447C1.73952 42.2681 1.67924 41.9107 1.73952 41.583C1.92033 40.8681 1.73952 40.4213 0.955978 40.2128C0.654617 40.1234 0.383392 39.8553 0.0820312 39.4979C1.73952 39.5873 2.55319 38.9617 2.28197 37.2639C2.37237 37.2639 2.46278 37.2639 2.55319 37.2639C2.76414 37.5617 3.06551 37.8298 3.12578 38.1575C3.27646 38.783 3.57782 38.9319 4.18054 38.8128C4.57231 38.7234 5.02435 38.8128 5.44626 38.8128C5.50653 38.8724 5.53666 38.9319 5.59694 38.9915C5.29558 39.2298 4.99422 39.4383 4.72299 39.6766C4.33122 40.0341 4.1504 40.4213 4.57231 40.9277C4.78326 41.166 4.87367 41.5532 5.08462 42.0596H5.1449Z" fill="#5F7C95"/>
<path d="M77.0488 17.9915C78.857 17.783 78.9474 16.7107 78.4652 15.3107C78.5556 15.3107 78.6159 15.3107 78.7063 15.3107C79.1885 15.7575 79.7008 16.2341 80.1529 16.6511C80.7857 16.4128 81.4186 16.2043 82.172 15.9362C81.7802 16.6809 81.2679 17.2171 81.298 17.783C81.298 18.3192 81.8706 18.8256 82.2624 19.4511C81.9007 19.4511 81.6898 19.4511 81.4788 19.3915C80.6149 19.1929 79.9419 19.4511 79.4597 20.166C79.3392 20.3149 79.2186 20.4639 79.0981 20.6128C79.0077 20.6128 78.9474 20.5532 78.857 20.5532C78.857 20.1362 78.857 19.6894 78.857 19.2724C78.857 18.8256 78.7063 18.5873 78.2241 18.5575C77.8625 18.5575 77.5009 18.3788 77.1392 18.2894C77.1091 18.2 77.079 18.1107 77.0488 17.9915Z" fill="#5F7C95"/>
<path d="M3.72824 26.868C4.39124 26.8978 4.84328 26.8382 5.20491 26.9872C5.80763 27.2553 6.01858 26.8978 6.22954 26.5106C6.44049 26.1233 6.65144 25.7361 7.01308 25.3191C6.92267 26.9276 7.43498 27.851 9.42396 27.434C9.15274 27.7914 9.09247 27.9702 8.94179 28.0595C7.76648 28.7148 7.76648 28.7148 8.00757 29.9659C8.00757 30.0553 8.00757 30.1744 8.00757 30.2638C8.00757 30.3531 8.00757 30.4425 7.91716 30.7702C6.89253 29.4595 5.83777 29.251 4.6926 30.5319C4.66246 30.4723 4.63232 30.3829 4.57205 30.3233C4.75287 29.7276 4.96382 29.1616 5.17477 28.4765C4.783 28.0595 4.30083 27.5829 3.66797 26.9276L3.72824 26.868Z" fill="#5F7C95"/>
<path d="M14.7885 15.2213C13.9146 16.8596 14.7584 17.5744 16.3255 18.051C15.5419 18.2893 14.7885 18.3191 14.4269 18.6766C14.0652 19.034 14.0954 19.7489 13.9447 20.3745C13.794 20.2255 13.6433 20.1064 13.5529 19.9574C12.7091 18.8851 12.5283 18.8553 11.2626 19.3617C11.1722 19.3915 11.0818 19.3617 10.8105 19.3617C11.142 18.8851 11.4133 18.4979 11.6845 18.1404C11.9256 17.8425 12.1064 17.6042 11.7749 17.1872C11.4735 16.8596 11.353 16.383 11.0516 15.7872C11.5941 15.9659 12.016 15.9957 12.3475 16.2042C12.9201 16.5617 13.2516 16.383 13.6132 15.9362C13.8543 15.6383 14.1858 15.4 14.457 15.1319C14.5776 15.1319 14.6981 15.1617 14.8186 15.1915L14.7885 15.2213Z" fill="#5F7C95"/>
<path d="M67.7969 10.8425C68.0078 10.6042 68.2188 10.3361 68.4599 10.1574C69.1229 9.68082 69.2133 9.14465 68.8215 8.45954C68.6708 8.22125 68.6407 7.89359 68.49 7.50635C69.2133 7.8638 69.7557 8.37018 70.3283 8.34039C70.8406 8.34039 71.3228 7.74465 71.805 7.44678C71.8652 7.47656 71.9255 7.50635 71.9858 7.53614C71.8954 7.92337 71.8652 8.31061 71.7447 8.69784C71.6242 9.08508 71.5639 9.41273 72.0159 9.62125C72.2872 9.77018 72.5282 9.97869 72.7693 10.1574C72.8899 10.2766 72.9803 10.4255 73.1008 10.5744C72.92 10.634 72.7693 10.7234 72.5885 10.7532C72.1063 10.7532 71.6543 10.7532 71.1721 10.7532C70.9612 11.4085 70.8105 11.9446 70.5694 12.7489C70.2379 12.0042 69.9667 11.4085 69.6954 10.7532C69.153 10.8127 68.5503 10.8723 67.9777 10.9617C67.9174 10.9319 67.8873 10.8723 67.827 10.8425H67.7969Z" fill="#5F7C95"/>
<path d="M25.4876 10.7532H23.4986C23.2274 11.3787 22.9863 11.9447 22.715 12.6298C22.4137 11.8851 22.3534 11.1404 21.9315 10.783C21.5096 10.4553 20.7562 10.5149 19.9727 10.366C20.4548 10.0383 20.8165 9.77021 21.2082 9.50213C21.5397 9.26383 21.6904 9.02553 21.4795 8.57872C21.2986 8.19149 21.2986 7.71489 21.148 7.02979C21.6301 7.38723 21.9616 7.59574 22.2027 7.83404C22.6849 8.37021 23.1369 8.31064 23.6794 7.95319C23.9205 7.77447 24.2218 7.62553 24.6438 7.53617C24.5232 7.95319 24.4629 8.4 24.252 8.72766C23.9205 9.20425 24.1013 9.47234 24.4629 9.77021C24.7643 10.0383 25.0657 10.3064 25.4876 10.7234V10.7532Z" fill="#5F7C95"/>
<path d="M62.0423 4.6468C61.5601 4.79573 61.2888 4.88509 61.0478 4.97446C60.7765 5.06382 60.5354 5.12339 60.2341 5.21275C60.1135 5.83828 59.993 6.46382 59.8423 7.29786C59.6012 6.9702 59.4204 6.76169 59.2697 6.52339C58.7273 5.74892 58.6067 5.71914 57.7629 6.13616C57.5218 6.25531 57.2205 6.28509 56.7986 6.37445C57.1903 5.68935 57.4616 5.15318 57.7931 4.61701C57.4314 4.14041 57.0397 3.66382 56.5273 3.0085C57.0095 3.03829 57.3712 2.97871 57.6424 3.12765C58.3958 3.57446 58.8478 3.2468 59.2095 2.65105C59.3601 2.41275 59.5108 2.17446 59.8423 1.93616C59.8725 2.20424 59.9327 2.47233 59.9327 2.74041C59.993 3.90211 60.1437 3.81275 61.1984 4.22977C61.4395 4.31914 61.6505 4.43828 62.0423 4.6468Z" fill="#5F7C95"/>
<path d="M46.8839 2.07685e-06C46.8839 1.69787 47.8482 2.1149 49.3852 1.78724C49.3852 1.8766 49.3852 1.96596 49.3852 2.05532C49.0838 2.26383 48.7824 2.53192 48.4509 2.71064C47.9989 2.97873 47.6373 3.21702 48.029 3.84256C48.2099 4.17021 48.1194 4.61702 48.0893 5.15319C47.0948 3.84256 46.1305 4.02128 45.1962 5.18298C45.1661 5.12341 45.1058 5.06383 45.0757 5.03404C45.136 4.61702 45.0757 4.14043 45.2867 3.78298C45.588 3.21702 45.2867 3.00851 44.8949 2.74043C44.5634 2.53192 44.2319 2.29362 43.9004 2.05532C43.9004 1.99575 43.9305 1.93617 43.9607 1.84681C44.2018 1.84681 44.473 1.81702 44.7141 1.78724C46.0099 1.75745 45.9798 1.75745 46.3414 0.536172C46.4017 0.327662 46.5524 0.148938 46.6729 -0.0297852C46.7633 -0.0297852 46.8236 -0.0297852 46.914 -0.0297852L46.8839 2.07685e-06Z" fill="#5F7C95"/>
<path d="M87.5965 53.8554C89.0431 52.9618 88.802 51.949 87.8075 50.9064C87.8678 50.9064 87.9582 50.8469 88.0184 50.8171C88.3801 50.966 88.7719 51.0852 89.1335 51.2341C89.8266 51.532 90.2485 51.3235 90.8211 50.4596C90.9115 50.3107 91.0622 50.1915 91.2129 50.0426C91.2731 50.0724 91.3334 50.132 91.3937 50.1617C91.3636 50.3107 91.3033 50.4596 91.2732 50.6086C91.0622 51.949 91.1526 52.1277 92.4183 52.7235C92.5991 52.8128 92.7197 52.9915 92.8704 53.1405C92.1772 53.349 91.4238 53.349 91.0321 53.7064C90.6704 54.0639 90.7006 54.7788 90.4896 55.5532C90.2485 55.166 90.0677 54.9277 89.9472 54.6596C89.7061 54.0639 89.3746 53.766 88.6814 53.9149C88.4102 53.9745 88.0787 53.9149 87.8075 53.9149C87.7171 53.8852 87.6568 53.8554 87.5664 53.7958L87.5965 53.8554Z" fill="#5F7C95"/>
<path d="M5.17419 50.6383C4.90297 51.0851 4.75229 51.3829 4.54133 51.6212C4.11943 52.217 4.11943 52.6936 4.78242 53.1106C4.99338 53.2595 5.14406 53.4978 5.32487 53.7063L5.23446 53.8553C4.87283 53.7957 4.48106 53.7361 4.11943 53.6765C3.63725 53.5872 3.33589 53.7659 3.18521 54.2425C3.03453 54.6297 2.79344 54.9574 2.52222 55.434C2.31126 54.6595 2.31126 53.9446 1.94963 53.5574C1.588 53.1702 0.834594 53.1404 0.111328 52.9021C0.56337 52.6042 0.864731 52.3063 1.2565 52.1872C1.79895 52.0383 1.79895 51.7106 1.76881 51.2936C1.76881 50.7872 1.76881 50.2808 1.76881 49.6255C2.28113 50.251 2.61262 50.9957 3.12494 51.1148C3.63725 51.2638 4.33038 50.817 5.20433 50.5787L5.17419 50.6383Z" fill="#5F7C95"/>
<path d="M93.0813 39.7659C92.7197 40.0042 92.5389 40.1531 92.2978 40.2723C91.2129 40.8085 91.1827 40.8383 91.2732 42.0595C91.2732 42.2383 91.2129 42.4468 91.1827 42.6553C91.0019 42.5361 90.8211 42.4766 90.6704 42.3276C89.7663 41.4042 89.7663 41.4042 88.6212 41.9106C88.4404 42 88.2294 42.0297 88.0184 42.0893C87.9883 41.9702 87.9582 41.8808 87.9582 41.8808C88.8623 40.9276 88.9225 40.0042 87.5664 39.2297L87.7472 39.0808C88.3198 39.0808 89.0129 39.2595 89.465 39.0212C89.8869 38.7829 90.0677 38.0978 90.4896 37.4127C90.6403 37.9787 90.8211 38.3957 90.8814 38.8425C90.9416 39.2297 91.0622 39.4085 91.454 39.468C91.9361 39.5276 92.3882 39.6765 93.0512 39.8255L93.0813 39.7659Z" fill="#5F7C95"/>
<path d="M33.3824 7.26808C33.3221 6.91064 33.292 6.70213 33.292 6.5234C33.2317 5.27234 33.1112 5.15319 31.8756 4.82553C31.6948 4.76596 31.5441 4.58723 31.3633 4.34894C33.081 4.28936 33.5934 3.36596 33.292 1.75745C33.3824 1.75745 33.4427 1.81702 33.5331 1.84681C33.7742 2.17447 34.0454 2.47234 34.2563 2.8C34.5577 3.30638 34.8892 3.45532 35.4618 3.18723C35.7933 3.0383 36.2152 3.06808 36.7576 2.97872C36.2453 3.63404 35.8837 4.11064 35.4919 4.61702C35.8234 5.15319 36.1248 5.65957 36.4261 6.16596C36.396 6.22553 36.3659 6.28511 36.3357 6.34468C35.9138 6.22553 35.4618 6.16596 35.1002 5.95745C34.6783 5.71915 34.4974 5.86808 34.2563 6.16596C34.0153 6.49362 33.7742 6.82128 33.4125 7.26808H33.3824Z" fill="#5F7C95"/>
<path d="M85.1262 30.6213C85.1865 30.234 85.2467 29.817 85.3673 29.4596C85.4878 29.0723 85.5782 28.7745 85.0358 28.6255C84.644 28.5064 84.3125 28.2085 83.8303 27.9106C84.192 27.7617 84.433 27.583 84.6741 27.583C85.9399 27.583 86.0001 26.7191 86.0905 25.8255C86.0905 25.7659 86.1508 25.6766 86.2111 25.4979C86.4823 25.9149 86.7837 26.2425 86.9042 26.6298C87.085 27.1362 87.3864 27.2553 87.8686 27.1957C88.2905 27.166 88.6822 27.1957 89.2548 27.1957C89.0439 27.4638 88.9233 27.6128 88.8028 27.7617C88.1599 28.3972 88.0393 29.122 88.4412 29.9362C88.5014 30.0851 88.5014 30.2638 88.5316 30.5915C87.9891 30.2936 87.5371 30.1447 87.1754 29.8468C86.7837 29.5191 86.5727 29.6681 86.3015 29.9362C86.0001 30.2042 85.6686 30.4723 85.3673 30.7404C85.307 30.7404 85.2166 30.7106 85.1563 30.6808L85.1262 30.6213Z" fill="#5F7C95"/>
<path d="M66.5013 56.8341V56.8936C66.5013 58.4426 66.2301 58.6809 64.6931 58.3532C64.4822 58.3234 64.2109 57.966 64.2109 57.7277C64.2109 56.9532 64.2411 56.1489 64.3918 55.4043C64.4822 54.8681 64.9342 54.4809 65.5369 54.5702C66.0794 54.6596 66.441 55.0468 66.5013 55.6128C66.5314 56 66.5013 56.417 66.5013 56.8043V56.8341Z" fill="#5F7C95"/>
<path d="M26.9637 56.5958C27.0843 56.0596 26.6925 55.3149 27.4459 54.8085C28.1089 54.3617 29.0431 54.7192 29.0733 55.5234C29.1335 56.2979 29.1335 57.1022 29.0733 57.9064C29.0733 58.0851 28.7719 58.2341 28.5911 58.4128H28.5308C27.466 58.4922 26.9336 57.8865 26.9336 56.5958H26.9637Z" fill="#5F7C95"/>
<path d="M42.6044 43.251C42.1825 43.1915 41.5195 43.5787 41.5195 42.5659C41.5497 41.2851 41.8812 40.6 42.6647 40.5702C43.3277 40.5702 43.84 41.1659 43.8701 42.0298C43.8701 43.1915 43.8701 43.1915 42.6044 43.2213V43.251Z" fill="#5F7C95"/>
<path d="M47.7881 42.9532H45.6484C45.6484 42.3872 45.6484 41.8511 45.6484 41.3149C45.6484 40.7192 45.769 40.2426 46.5224 40.2128C47.3059 40.2128 47.7278 40.5106 47.7881 41.2553C47.8182 41.7915 47.7881 42.3277 47.7881 42.9532Z" fill="#5F7C95"/>
<path d="M51.7956 42.2383C51.6751 42.566 51.6148 43.1319 51.4641 43.1617C50.9217 43.2511 50.3491 43.1617 49.7765 43.0724C49.6861 43.0724 49.5957 42.8043 49.5957 42.6255C49.5957 42.2681 49.5957 41.9404 49.5957 41.583C49.5957 40.9277 49.8669 40.5702 50.5299 40.5404C51.1025 40.5107 51.6148 40.9277 51.6751 41.5234C51.6751 41.7319 51.6751 41.9702 51.6751 42.1787C51.7052 42.1787 51.7354 42.1787 51.7956 42.1787V42.2383Z" fill="#5F7C95"/>
<path d="M37.4805 43.6681C37.6311 43.1022 37.6914 42.4766 37.9024 41.9405C38.0832 41.4937 38.5654 41.3149 39.0174 41.4937C39.6503 41.7022 39.8311 42.2979 39.9215 42.8937C39.9818 43.3405 39.7407 43.5788 39.2886 43.6383C38.7763 43.6979 38.2339 43.8171 37.7216 43.9362L37.4805 43.6979V43.6681Z" fill="#5F7C95"/>
<path d="M33.6844 44.1149C33.6543 43.3106 33.7748 42.7149 34.5584 42.5064C35.1611 42.3574 35.6131 42.5957 35.7337 43.0723C35.8241 43.5191 36.2159 44.2042 35.3419 44.4723C34.9501 44.5915 34.5584 44.8596 34.1666 44.8596C33.5036 44.8893 33.7146 44.3234 33.6543 44.0851L33.6844 44.1149Z" fill="#5F7C95"/>
<path d="M55.5627 43.8468C54.8997 43.7276 54.297 43.6085 53.6039 43.4893C53.3025 42.9532 53.3025 42.3276 53.7847 41.8808C54.0559 41.6425 54.6285 41.5234 54.96 41.6127C55.623 41.8212 55.7737 42.5659 55.5627 43.8766V43.8468Z" fill="#5F7C95"/>
<path d="M59.5713 44.7999C58.8781 44.6212 58.2754 44.5021 57.733 44.3233C57.3713 44.2042 57.1905 43.2808 57.522 43.0425C57.8836 42.8042 58.4261 42.6553 58.848 42.6851C59.1192 42.6851 59.4206 43.1616 59.511 43.4893C59.6315 43.8468 59.511 44.2638 59.511 44.7999H59.5713Z" fill="#5F7C95"/>
</g>
<defs>
<clipPath id="clip0_406_5334">
<rect width="93" height="70" fill="white" transform="translate(0.0820312)"/>
</clipPath>
</defs>
</svg>
