<svg width="165" height="28" viewBox="0 0 165 28" fill="none" xmlns="http://www.w3.org/2000/svg">
<path d="M42.6783 25.603L36.5595 12.8536H36.5072L35.8273 23.6255C35.775 24.8224 36.664 25.0826 37.7623 25.1346V25.603H32.7417V25.1346C34.5198 25.1346 34.729 24.7704 34.8336 22.5848L35.4089 13.2699C35.5135 11.7087 35.4612 11.2404 33.9446 11.1883V10.772H37.6054L43.4105 22.7929L49.1633 10.772H52.6672V11.1883C51.5167 11.2924 51.046 11.2924 51.0983 12.125L51.8827 22.949C52.0396 25.1346 52.1965 25.1346 53.9747 25.1346V25.603H47.8035V25.1346C48.9541 25.1346 50.0523 24.8224 49.9477 23.5735L49.2678 12.8536H49.2156L43.2013 25.603H42.6783Z" fill="#5F7C95"/>
<path d="M63.5982 17.9533H59.4667L61.5063 12.4372L63.5982 17.9533ZM64.0166 18.9941L65.6378 23.3133C65.7424 23.5734 65.8993 23.8857 65.8993 24.302C65.8993 24.9785 65.3763 25.1346 64.0166 25.1346H63.389V25.6029H69.9786V25.1346C68.7757 25.1346 68.2527 24.8744 67.7821 23.6255L62.8137 10.4077H60.7218L60.931 10.9281L56.538 22.7929C55.7535 24.8744 55.492 25.1346 53.9231 25.1346V25.6029H59.4667V25.1346H59.1006C57.7931 25.1346 57.1656 24.8744 57.1656 24.2499C57.1656 23.9377 57.4794 23.2092 57.6362 22.7408L59.0483 18.9941H64.0166Z" fill="#5F7C95"/>
<path d="M74.319 11.0321C74.7373 10.98 75.0511 10.98 75.5218 10.98C79.235 10.98 80.2286 12.6973 80.2286 14.935C80.2286 17.7971 78.4505 18.9419 75.7833 18.9419C75.208 18.9419 74.8419 18.9419 74.2667 18.8899V11.0321H74.319ZM74.319 19.3582C74.685 19.3582 74.9988 19.4103 75.5741 19.4103C76.2017 19.4103 76.6201 19.4103 77.1953 19.3582C77.7706 19.7225 78.6074 20.451 79.7056 21.4918L81.2746 23.053C83.4188 25.1865 84.4648 26.0712 88.7009 25.863V25.4467C86.8705 25.3426 85.4061 24.458 83.9941 23.053L82.1113 21.1796C81.0131 20.0868 80.2809 19.4103 79.3919 18.6817C81.3792 18.1093 82.582 16.6002 82.582 14.8309C82.582 12.3851 80.5947 10.5637 76.1494 10.5637C74.5804 10.5637 74.1098 10.5637 73.1161 10.6158C72.1224 10.6678 70.6581 10.7719 70.0828 10.7719V11.2402H70.6058C72.0178 11.2402 72.3839 11.6565 72.3839 13.1656V23.2091C72.3839 24.8223 71.8609 25.1865 70.4489 25.1865H70.0305V25.6549H76.8292V25.1865H76.254C74.8942 25.1865 74.319 24.8223 74.319 23.4172V19.3582Z" fill="#5F7C95"/>
<path d="M96.8603 12.9576C97.6448 11.6567 97.1741 11.2404 95.6575 11.2404V10.772H101.044V11.2404C99.4229 11.3444 98.7431 12.0209 98.0632 13.1137L94.0885 19.7747V23.3653C94.0885 24.6142 94.5592 25.1346 96.0236 25.1346H96.3373V25.603H89.7478V25.1346H90.2185C91.7351 25.1346 92.1535 24.5622 92.1535 23.4174V20.0349L87.8651 13.426C86.7145 11.6046 86.1393 11.2404 84.5703 11.1883V10.72H90.9507V11.1883C89.0679 11.1883 88.9633 11.6567 89.6432 12.7495L93.5133 18.6298L96.8603 12.9576Z" fill="#5F7C95"/>
<path d="M111.555 25.603H100.834V25.1346H101.618C102.716 25.1346 103.135 24.7704 103.135 23.5735V13.0097C103.135 11.7608 102.769 11.2404 101.252 11.2404H100.938V10.772H107.999V11.2404H107.109C105.541 11.2404 105.122 11.3965 105.122 12.9056V23.8857C105.122 24.5102 105.384 24.7704 106.064 24.7704H109.567C110.98 24.7704 111.398 24.198 112.915 22.1164H113.333L111.555 25.603Z" fill="#5F7C95"/>
<path d="M122.537 17.9533H118.405L120.445 12.4372L122.537 17.9533ZM122.955 18.9941L124.577 23.3133C124.681 23.5734 124.838 23.8857 124.838 24.302C124.838 24.9785 124.315 25.1346 122.955 25.1346H122.328V25.6029H128.917V25.1346C127.714 25.1346 127.192 24.8744 126.721 23.6255L121.7 10.4077H119.608L119.817 10.9281L115.424 22.7929C114.64 24.8744 114.379 25.1346 112.81 25.1346V25.6029H118.353V25.1346H117.987C116.68 25.1346 116.052 24.8744 116.052 24.2499C116.052 23.9377 116.366 23.2092 116.523 22.7408L117.935 18.9941H122.955Z" fill="#5F7C95"/>
<path d="M144.449 25.7591L132.055 12.8015V23.0011C132.055 24.7183 132.421 25.0826 134.461 25.0826V25.551H128.917V25.0826H129.022C130.486 25.0826 131.009 24.5622 131.009 23.4694V11.8128C130.434 11.4485 129.858 11.2404 128.969 11.2404V10.772H132.735L144.031 22.4807V13.0097C144.031 11.5526 143.613 11.2924 141.678 11.2404V10.772H147.274V11.2404C145.495 11.2404 145.077 11.5526 145.077 12.4893V25.8111H144.449V25.7591Z" fill="#5F7C95"/>
<path d="M151.771 11.0841C152.084 11.0841 152.712 10.98 153.706 10.98C157.053 10.98 158.779 11.8126 159.877 12.9055C161.289 14.3105 161.812 16.288 161.812 18.0052C161.812 20.451 160.714 22.2724 159.824 23.157C158.36 24.6141 157 25.0825 153.758 25.0825C151.875 25.0825 151.771 24.7702 151.771 23.7815V11.0841ZM149.783 23.4172C149.783 24.8223 149.208 25.1345 147.901 25.1345H147.482V25.6028H155.17C161.237 25.6028 164.061 21.2836 164.061 17.693C164.061 13.7381 161.289 10.5637 154.908 10.5637C153.653 10.5637 152.189 10.5637 150.882 10.6158C149.574 10.6678 148.371 10.7198 147.482 10.7719V11.1882H147.953C149.365 11.1882 149.783 11.5525 149.783 13.1136V23.4172Z" fill="#5F7C95"/>
<path d="M39.7482 1.1969H39.9051C40.7418 1.24894 40.8987 1.35301 40.8987 2.44582V5.20386C40.8987 7.18132 39.4867 7.59763 38.3361 7.59763C36.7149 7.59763 35.7735 6.76501 35.7735 5.20386V1.92544C35.7735 1.35301 35.9304 1.1969 36.558 1.1969H36.8195V0.676514H33.4724V1.1969H33.6293C34.4138 1.1969 34.5184 1.30098 34.5184 1.92544V5.35998C34.5184 7.2854 35.9304 8.48228 38.1269 8.48228C40.8464 8.48228 41.7878 6.76501 41.7878 5.30794V2.18563C41.7878 1.50913 41.997 1.24894 42.7291 1.24894H42.886V0.728552H39.7482V1.1969Z" fill="#5F7C95"/>
<path d="M52.7715 1.24894H52.9284C53.8697 1.24894 53.922 1.40505 53.922 1.97748V6.29667L48.5353 0.676514H46.4434V1.1969H46.6003C46.9664 1.1969 47.2279 1.30098 47.4371 1.40505V7.18132C47.4371 7.59763 47.3325 7.80578 46.6003 7.80578H46.3911V8.32617H49.4767V7.80578H49.3198C48.3784 7.80578 48.2738 7.64967 48.2738 6.92113V2.23767L54.1312 8.37821L54.1835 8.43024H54.7065V1.66524C54.7065 1.35301 54.7065 1.1969 55.6479 1.1969H55.8047V0.676514H52.7192V1.24894H52.7715Z" fill="#5F7C95"/>
<path d="M59.5679 1.19692H59.7248C60.3523 1.24896 60.4569 1.35304 60.4569 1.87342V6.92115C60.4569 7.64969 60.3523 7.75377 59.7248 7.80581H59.5679V8.32619H62.758V7.80581H62.6011C61.869 7.80581 61.7644 7.64969 61.7644 7.02523V2.02954C61.7644 1.301 61.9213 1.24896 62.6011 1.24896H62.758V0.728577H59.5679V1.19692Z" fill="#5F7C95"/>
<path d="M71.964 1.24894H72.1209C73.0622 1.24894 73.0622 1.45709 73.0622 1.61321C73.0622 1.76932 73.0099 1.97748 72.853 2.28971L71.1272 6.76501L69.1399 1.82136C69.0353 1.56117 69.0876 1.50913 69.0876 1.45709C69.1922 1.30098 69.506 1.24894 70.1336 1.1969H70.2904V0.676514H66.6819V1.1969H66.8388C67.4664 1.1969 67.571 1.30098 67.8847 2.02951L70.4996 8.53432H71.2841L73.7944 2.13359C74.0559 1.45709 74.3174 1.1969 74.8927 1.1969H75.0496V0.676514H71.964V1.24894Z" fill="#5F7C95"/>
<path d="M84.8809 6.40074C84.5671 7.44151 84.3579 7.64967 83.678 7.64967H81.8476C81.4815 7.64967 81.3769 7.59763 81.3769 7.12928V4.78755H83.2596C83.6257 4.78755 83.8349 4.78755 83.9395 5.56813V5.72424H84.4625V3.12232H83.9395V3.27844C83.8872 3.95494 83.678 4.00697 83.4165 4.00697H81.4292V1.40505H83.7826C84.0964 1.40505 84.3579 1.50913 84.5148 2.49786V2.65398H85.0378L84.9332 0.676514H78.9189V1.1969H79.3373C80.0172 1.1969 80.1218 1.40505 80.1218 1.97748V6.97317C80.1218 7.59763 80.0172 7.80578 79.1804 7.80578H78.7097V8.32617H85.3516L85.5608 6.24463H85.0378L84.8809 6.40074Z" fill="#5F7C95"/>
<path d="M97.066 6.81727L96.1246 5.88058C95.6539 5.46427 95.3402 5.1 94.9741 4.83981C95.8631 4.47554 96.3861 3.747 96.3861 2.86235C96.3861 1.45731 95.131 0.624695 93.039 0.624695C92.2546 0.624695 92.0454 0.624695 91.5224 0.676733H91.2086C90.7379 0.728772 90.2673 0.728772 90.0058 0.728772H89.8489V1.24916H90.2673C90.8948 1.24916 90.9994 1.40527 90.9994 2.02973V7.02543C90.9994 7.75396 90.7902 7.85804 90.215 7.85804H89.8489V8.37843H93.5097V7.85804H93.0913C92.4638 7.85804 92.3069 7.70193 92.3069 7.1295V5.30816C92.4115 5.30816 92.5684 5.30816 92.7776 5.30816C93.039 5.30816 93.1959 5.30816 93.4051 5.30816H93.562C93.8758 5.51631 94.2942 5.88058 94.7126 6.29689L95.4971 7.07746C96.4907 8.0662 97.066 8.53454 98.7918 8.53454C98.9487 8.53454 99.1056 8.53454 99.3148 8.53454H99.4717V8.01416H99.3148C98.478 7.91008 97.7982 7.59785 97.066 6.81727ZM92.3069 1.14508C92.4638 1.14508 92.5684 1.14508 92.7253 1.14508C94.2419 1.14508 94.9218 1.7175 94.9218 2.96643C94.9218 4.21535 94.2419 4.78777 92.8822 4.78777H92.5684C92.4638 4.78777 92.3592 4.78777 92.3069 4.78777V1.14508Z" fill="#5F7C95"/>
<path d="M104.756 3.79893C103.919 3.27855 103.134 2.75816 103.134 2.08166C103.134 1.50924 103.605 1.14497 104.285 1.14497C105.069 1.14497 105.749 1.66535 106.063 2.44593L106.115 2.55001H106.586L106.325 0.728662H105.906L105.854 0.7807C105.802 0.832739 105.802 0.832739 105.749 0.832739C105.592 0.832739 105.488 0.7807 105.331 0.728662C105.069 0.624585 104.756 0.520508 104.128 0.520508C102.821 0.520508 101.879 1.30108 101.879 2.39389C101.879 3.53874 102.978 4.26728 103.971 4.89174C104.86 5.46416 105.645 5.93251 105.645 6.66105C105.645 7.49366 104.913 7.90997 104.18 7.90997C103.291 7.90997 102.559 7.28551 102.35 6.34881L102.298 6.24474H101.775L102.088 8.37831H102.507L102.559 8.27424C102.559 8.2222 102.611 8.2222 102.664 8.2222C102.716 8.2222 102.873 8.27424 102.978 8.32628C103.344 8.43035 103.867 8.58647 104.285 8.58647C105.749 8.58647 106.848 7.64978 106.848 6.40085C106.952 5.15193 105.802 4.42339 104.756 3.79893Z" fill="#5F7C95"/>
<path d="M111.605 1.19692H111.762C112.389 1.24896 112.494 1.35304 112.494 1.87342V6.92115C112.494 7.64969 112.389 7.75377 111.762 7.80581H111.605V8.32619H114.795V7.80581H114.638C113.906 7.80581 113.801 7.64969 113.801 7.02523V2.02954C113.801 1.301 113.958 1.24896 114.638 1.24896H114.795V0.728577H111.605V1.19692Z" fill="#5F7C95"/>
<path d="M126.198 0.520508V0.624585C126.198 0.624585 126.146 0.676623 125.989 0.676623H120.237C120.184 0.676623 120.08 0.676623 120.027 0.624585V0.520508H119.504L119.295 2.75816H119.818V2.65408C120.027 1.56128 120.237 1.4572 120.55 1.4572H122.485V7.18143C122.485 7.70182 122.381 7.90997 121.701 7.90997H121.126V8.43035H125.205V7.90997H124.63C123.95 7.90997 123.845 7.70182 123.845 7.18143V1.4572H125.78C126.094 1.4572 126.303 1.56128 126.512 2.65408V2.75816H127.035L126.721 0.520508H126.198Z" fill="#5F7C95"/>
<path d="M136.08 1.24892H136.237C136.707 1.24892 136.812 1.353 136.864 1.40504C136.864 1.45708 136.916 1.56116 136.707 1.87339L135.138 4.52735L133.36 1.82135C133.151 1.50912 133.151 1.45708 133.203 1.40504C133.203 1.353 133.308 1.30096 133.883 1.30096H134.04V0.780579H130.588V1.30096H130.745C131.425 1.30096 131.687 1.40504 132.262 2.34173L134.354 5.62016V7.23335C134.354 7.70169 134.249 7.90985 133.569 7.90985H133.203V8.43023H136.812V7.90985H136.498C135.818 7.90985 135.714 7.70169 135.714 7.18131V5.46404L137.701 2.18562C138.015 1.66523 138.328 1.353 139.061 1.30096H139.218V0.780579H136.237V1.24892H136.08Z" fill="#5F7C95"/>
<path d="M150.045 0.520508C147.43 0.520508 145.547 2.28982 145.547 4.68358C145.547 6.8692 147.482 8.53443 149.992 8.53443C152.503 8.53443 154.385 6.71308 154.385 4.31932C154.385 2.18574 152.503 0.520508 150.045 0.520508ZM149.731 1.09293C151.613 1.09293 152.973 2.55001 152.973 4.68358C152.973 6.24474 152.136 7.90997 150.254 7.90997C148.371 7.90997 146.959 6.34882 146.959 4.26728C146.959 3.01835 147.691 1.09293 149.731 1.09293Z" fill="#5F7C95"/>
<path d="M161.289 1.40505C161.916 1.40505 162.125 1.61321 162.125 2.23767V2.39378H162.648V0.676514H157V1.1969H157.157C157.837 1.1969 157.889 1.40505 157.889 2.13359V6.76501C157.889 7.70171 157.785 7.75374 157.157 7.75374H157V8.27413H160.19V7.75374H160.034C159.197 7.75374 159.144 7.54559 159.144 6.97317V4.63144H161.184C161.655 4.63144 161.864 4.73551 161.864 5.35998V5.51609H162.387V3.12232H161.864V3.27844C161.812 3.79882 161.602 3.9029 161.341 3.9029H159.144V1.40505H161.289Z" fill="#5F7C95"/>
<path d="M14.122 26.3835C6.80029 26.3835 0.890625 20.5032 0.890625 13.2178C0.890625 5.98445 6.80029 0.052063 14.122 0.052063C21.3914 0.052063 27.3534 5.93241 27.3534 13.2178C27.3534 20.5032 21.3914 26.3835 14.122 26.3835Z" fill="url(#paint0_radial_406_5379)"/>
<path d="M14.122 26.3835C6.80029 26.3835 0.890625 20.5032 0.890625 13.2178C0.890625 5.98445 6.80029 0.052063 14.122 0.052063C21.3914 0.052063 27.3534 5.93241 27.3534 13.2178C27.3534 20.5032 21.3914 26.3835 14.122 26.3835ZM14.122 0.260217C6.90489 0.260217 1.04752 6.08852 1.04752 13.2698C1.04752 20.4511 6.90489 26.2794 14.122 26.2794C21.3391 26.2794 27.1965 20.4511 27.1965 13.2698C27.1442 6.08852 21.2868 0.260217 14.122 0.260217Z" fill="#CCCCCC"/>
<path d="M27.2473 12.9575C27.2473 13.0096 27.0381 13.2177 26.7766 13.3738C26.4628 13.582 25.9399 13.7381 25.3646 13.8942C24.737 14.0503 24.0048 14.2064 23.1681 14.3105C22.3313 14.4146 21.3899 14.5187 20.3963 14.6228C19.1411 14.7268 18.3044 14.7789 17.3107 14.8309C16.2124 14.8829 15.1142 14.8829 13.9636 14.8829C13.9636 15.0391 13.9636 15.1952 13.9636 15.2993C13.9636 16.34 13.9636 17.2767 13.9636 18.2134C14.0159 23.2091 14.0159 23.2091 14.1728 26.2794C21.4422 26.2794 27.2996 20.4511 27.2996 13.2177C27.2473 13.2177 27.2473 13.0616 27.2473 12.9575Z" fill="white"/>
<path d="M13.9109 15.3515C13.9109 16.3922 13.9109 17.3289 13.9109 18.2656C16.0028 20.2431 16.0028 20.2431 16.8919 21.1277C17.1011 19.4625 17.258 17.485 17.258 15.2994C17.258 15.1433 17.258 14.9872 17.258 14.8831C15.9505 14.9352 15.0614 14.9352 13.9109 14.9352C13.9109 15.0392 13.9109 15.1953 13.9109 15.3515Z" fill="#5F7C95"/>
<path d="M18.7208 23.3132C18.2502 22.5847 17.8318 22.0643 16.8904 21.0756C16.4197 24.2499 15.6353 26.2274 14.6416 26.2794C14.7462 26.2794 14.8508 26.2794 14.9554 26.2794C15.06 26.2794 15.1646 26.2794 15.2692 26.2274C16.6812 26.1233 17.8318 25.0825 18.7208 23.3132Z" fill="#5F7C95"/>
<path d="M20.1853 18.0054C20.1853 18.0054 19.4531 21.9083 18.7209 23.3654C19.1393 24.146 19.1393 24.4582 18.9824 24.9786C20.2376 23.9899 21.2835 22.5848 22.0157 20.7635C21.5973 19.7747 21.2835 19.3064 20.1853 18.0054Z" fill="#5F7C95"/>
<path d="M16.4744 26.1235C16.7359 26.0715 16.7359 26.0194 17.2588 25.9154L17.5726 25.8113C18.5663 25.4991 18.7232 25.3429 19.037 24.9266C18.1479 25.5511 17.2588 25.9674 16.2129 26.1235H16.4744Z" fill="#5F7C95"/>
<path d="M22.2791 22.8971C24.1618 20.7635 25.3123 17.7453 25.3123 14.3107C25.3123 14.1546 25.3123 13.9985 25.3123 13.8944C24.6848 14.0505 23.9526 14.2066 23.1158 14.3107C23.1158 14.4668 23.1158 14.6229 23.1158 14.727C23.1158 16.9647 22.7497 18.9942 22.0176 20.7114C22.4883 21.7002 22.4883 22.1685 22.2791 22.8971Z" fill="#5F7C95"/>
<path d="M20.3951 14.6229C19.14 14.7269 18.3032 14.779 17.3096 14.831C19.0877 16.7044 19.5061 17.1207 20.2383 18.0054C20.3429 17.0687 20.3951 16.0799 20.3951 15.0912C20.3951 14.9351 20.3951 14.779 20.3951 14.6229Z" fill="#5F7C95"/>
<path d="M11.2454 0.832811C11.9775 0.52058 12.6574 0.208349 14.1217 0.156311C13.1281 0.260388 12.1344 0.52058 11.2454 0.832811Z" fill="#5F7C95"/>
<path d="M22.9071 14.3109C22.2272 14.2068 21.6519 13.062 21.9657 11.9171C21.0243 12.5936 19.9261 11.2406 20.083 9.93965C20.1876 9.26315 20.6059 8.69073 21.3904 8.95092C21.0766 7.91015 20.7105 6.86938 20.2399 5.93269C19.56 6.03677 18.8278 6.0888 18.0434 6.14084C18.7232 7.18161 18.0434 8.17034 17.102 8.01423C16.3698 7.91015 15.7422 7.18161 15.8991 6.29696C15.3239 6.71327 14.121 6.55715 14.0164 5.30823C13.9641 7.96219 13.9641 11.3447 13.9641 14.8833C17.4681 14.9353 21.5473 14.5711 23.1685 14.3109C23.064 14.3109 22.9594 14.3109 22.9071 14.3109Z" fill="#354E64"/>
<path d="M5.64996 16.9125C6.64362 16.5482 7.84648 18.2135 7.42809 19.3583C7.2189 19.8787 6.69592 20.0348 6.17294 19.7226C6.48673 20.7113 6.85281 21.596 7.2712 22.3765C7.95107 22.4806 8.73554 22.5327 9.57231 22.6367C8.89243 21.8041 9.41541 21.1276 10.3568 21.1797C11.1412 21.2317 12.1872 21.8562 11.9257 22.7408C12.6056 22.4286 13.8084 22.6888 13.9653 23.5734C13.913 21.596 13.913 18.7339 13.913 15.3514C13.913 15.1952 13.913 15.0912 13.913 14.935C12.8148 14.935 11.6642 14.883 10.566 14.831C8.21256 14.7269 6.59133 14.6228 4.604 14.2585C5.59766 14.5708 5.91145 16.0799 5.64996 16.9125Z" fill="#354E64"/>
<path d="M20.3447 4.89176C20.5016 4.89176 20.6062 4.83972 20.7108 4.83972C21.443 4.6836 23.1688 4.31933 23.1688 3.79895C23.1688 3.79895 23.8487 4.47545 24.3194 5.41214C24.3717 5.51622 24.424 5.6203 24.4763 5.77641C24.5286 5.93253 24.5809 6.14068 24.5809 6.24476C24.5809 6.50495 24.3717 6.55699 24.2148 6.45291H24.1625C23.4826 6.14068 23.2734 5.51622 23.1165 5.25603C22.7504 5.3601 22.2275 5.6203 21.7568 5.72437C21.7045 5.72437 21.5999 5.77641 21.5476 5.77641C22.1229 6.7131 22.6458 7.75387 23.0119 8.84668C23.6918 8.17018 24.6855 9.4191 24.7378 10.616C24.7901 11.3445 24.424 11.969 23.7964 11.7088C24.3194 12.6975 24.1625 14.1026 23.1688 14.4148C22.9596 11.1364 22.4366 8.3263 20.3447 4.89176Z" fill="#354E64"/>
<path d="M20.344 4.89159C18.6705 2.34171 17.363 1.40501 15.6372 0.780553C15.3234 0.624438 14.1729 0.20813 14.0683 0.20813C14.3821 0.624438 14.9573 0.88463 15.1142 0.936668C15.0619 1.09278 15.1142 1.40501 15.6372 1.82132C15.7418 1.87336 15.7941 1.9254 15.8987 1.97744C16.7355 2.44578 16.9447 2.08151 16.997 1.9254C17.2584 2.08151 17.7814 2.44578 18.3567 3.12228C18.6705 3.48655 18.9843 3.85082 19.1935 4.16305C18.6705 4.21509 17.9906 4.26713 17.2584 4.31917C17.2061 3.48655 16.6309 3.07025 16.2125 2.91413C15.3757 2.6019 15.1142 3.59063 15.4803 4.26713C14.8004 3.90286 14.0683 4.21509 13.9114 5.25586C16.5786 5.25586 18.3567 5.15178 20.344 4.89159Z" fill="#354E64"/>
<path d="M20.5017 2.49804C20.5017 2.49804 20.5017 2.446 20.5017 2.39397C20.5017 2.34193 20.554 2.34193 20.554 2.34193C20.554 2.34193 20.554 2.28989 20.6063 2.28989C20.7632 2.23785 21.1293 2.18581 22.2275 2.91435C19.9264 1.14504 17.5207 0.416503 15.4288 0.208349C15.115 0.156311 14.592 0.156311 14.592 0.156311C15.2719 0.20835 15.6903 0.364465 15.7949 0.416503C15.8995 0.468542 15.9518 0.468542 16.0041 0.52058C16.161 0.52058 16.2656 0.572619 16.4748 0.624657C16.684 0.676696 16.9977 0.832811 17.3115 0.936888C17.6253 1.093 18.0437 1.40523 18.0437 1.56135C17.9914 1.61339 17.9391 1.61339 17.7299 1.56135C18.5144 2.13377 19.6126 3.17454 20.2925 3.90308C20.7632 3.799 21.4431 3.74697 21.7569 3.64289C21.7046 3.69493 20.7109 2.96639 20.5017 2.49804Z" fill="#354E64"/>
<path d="M7.11265 23.1051C5.9621 22.8969 5.33452 22.7408 4.91614 22.5327C4.86384 22.4806 4.81154 22.4806 4.81154 22.4806C4.81154 22.4806 4.18397 21.8562 3.60869 21.1276C3.1903 20.6072 2.87652 20.0348 2.82422 19.9828C2.82422 19.9828 2.92881 19.9828 2.98111 19.9828C3.55639 20.1909 4.49775 21.8041 4.49775 21.8041C4.86384 21.9602 5.33452 22.0643 5.9098 22.1684C5.38682 21.3358 4.91614 20.4511 4.55005 19.4624C3.71328 19.8787 2.66732 17.7451 3.03341 16.8084C3.13801 16.6003 3.3472 16.236 3.87018 16.6523C3.45179 15.7156 3.55639 14.2585 4.55005 14.2585C4.60235 17.4329 5.07303 20.1389 7.11265 23.1051Z" fill="#354E64"/>
<path d="M13.9628 23.7297C13.8583 24.198 13.2307 24.6143 12.2893 24.25C12.7077 24.8225 12.3416 25.2908 11.6094 25.1347C11.0342 25.0306 10.3543 24.5623 10.302 24.0939C9.56982 24.0419 8.94224 23.9899 8.36697 23.8858C8.94224 24.5102 9.51752 25.0306 10.1974 25.4469C10.302 25.3949 10.4066 25.4469 10.7727 25.551C11.2957 25.7071 11.7663 25.9673 12.237 26.1234H12.1324C11.7663 26.0714 11.6617 26.0194 11.4525 26.0194C10.4589 25.8112 8.78535 25.2908 7.11182 23.0532C9.15144 23.3654 11.1388 23.5215 13.9628 23.5215C13.9628 23.6256 13.9628 23.6776 13.9628 23.7297Z" fill="#354E64"/>
<path d="M14.0697 0.156311C7.00943 0.156311 1.09976 5.88054 0.942871 12.9578C0.942871 12.9578 0.995169 13.1139 1.30896 13.27C1.57045 13.4261 1.98883 13.6343 2.51181 13.7904C3.19168 13.9465 3.87156 14.1026 4.55143 14.2067C6.53875 14.5189 8.15999 14.675 10.5134 14.7791C11.6116 14.8312 12.7622 14.8832 13.8605 14.8832C13.8605 14.2067 13.8605 10.4079 13.8605 6.7652C13.8605 6.29685 13.8605 5.77646 13.8605 5.30812C14.0174 2.91435 14.0174 0.468542 14.0697 0.156311Z" fill="white"/>
<path d="M20.398 24.7181C19.6658 25.1344 19.5089 25.1344 18.5152 25.5508C18.2537 25.6548 17.9923 25.7069 17.6785 25.8109C19.4566 25.3426 21.8623 23.3651 22.2807 22.8968C22.0715 23.3651 21.9146 23.6774 21.3916 24.0937C21.2347 24.1978 20.6072 24.6141 20.398 24.7181Z" fill="#5F7C95"/>
<path d="M2.56198 13.7902C2.039 13.6341 1.62062 13.478 1.35913 13.2698C1.46373 8.58635 4.13092 4.37124 7.94867 2.08154C7.05961 2.86212 6.64122 3.3825 6.17054 4.47531C4.02633 6.92112 2.66658 10.2516 2.56198 13.7902Z" fill="#5F7C95"/>
<path d="M8.00269 2.08173C8.94405 1.40523 9.51933 0.884849 11.036 0.52058C12.0819 0.260388 13.0233 0.156311 14.1215 0.156311C11.8727 0.260388 9.78082 0.988926 8.00269 2.08173Z" fill="#5F7C95"/>
<path d="M7.27095 14.5707C6.32959 14.4666 5.38823 14.3626 4.60376 14.2065C4.65606 11.8127 5.17904 9.57503 6.0158 7.54553C6.32959 8.84649 6.64338 9.57503 7.58474 11.1362C7.37555 12.281 7.27095 13.4259 7.27095 14.5707Z" fill="#5F7C95"/>
<path d="M13.9641 5.3079C13.9641 6.76498 13.9641 8.22205 13.9118 9.3669C13.9118 10.5117 13.9118 11.3444 13.9118 11.5005C12.6044 10.1475 11.9245 9.41894 10.9832 8.22205C11.6107 4.16305 12.7613 0.936668 14.0687 0.20813C14.0164 0.520361 14.0164 2.86209 13.9641 5.3079Z" fill="#5F7C95"/>
<path d="M9.3626 5.15186C8.52584 6.86912 7.89826 8.95066 7.58447 11.1883C8.36894 12.3852 8.89192 13.0617 10.4609 14.831C10.4609 12.4893 10.6701 10.2516 10.9838 8.17009C10.0425 6.86912 9.72869 6.24466 9.3626 5.15186Z" fill="#5F7C95"/>
<path d="M26.7246 13.3738C26.7246 13.5299 26.7246 13.6861 26.7246 13.7901C26.7246 18.4216 24.4757 22.2724 20.9195 24.406L20.8672 24.458C22.5407 23.4173 24.6326 21.7 25.9924 18.8899C27.4044 16.0798 27.2475 12.9575 27.2475 12.9575C27.1952 13.0616 26.986 13.2177 26.7246 13.3738Z" fill="#5F7C95"/>
<path d="M11.2452 0.832642C9.31013 1.56118 7.5843 2.86214 6.22455 4.47533C5.85847 5.67222 5.85847 6.34872 6.01536 7.59764C6.85213 5.62018 8.05498 3.90291 9.46702 2.60195C9.88541 1.87341 10.1469 1.40506 11.2452 0.832642Z" fill="#5F7C95"/>
<path d="M9.36217 5.152C9.10069 4.0592 9.10069 3.53881 9.46677 2.60212C10.8265 1.3532 12.3955 0.416503 14.1213 0.156311C12.2386 0.624657 10.565 2.55008 9.36217 5.152Z" fill="#5F7C95"/>
<defs>
<radialGradient id="paint0_radial_406_5379" cx="0" cy="0" r="1" gradientUnits="userSpaceOnUse" gradientTransform="translate(14.1153 13.2331) scale(13.2244 13.1588)">
<stop stop-color="white"/>
<stop offset="0.5149" stop-color="#FDFDFD"/>
<stop offset="0.7003" stop-color="#F6F6F6"/>
<stop offset="0.8325" stop-color="#EBEBEB"/>
<stop offset="0.9387" stop-color="#DADADA"/>
<stop offset="1" stop-color="#CCCCCC"/>
</radialGradient>
</defs>
</svg>
