<svg width="168" height="84" viewBox="0 0 168 84" fill="none" xmlns="http://www.w3.org/2000/svg">
<path d="M60.4933 38.9588C60.6279 38.9588 60.7258 39.0444 60.8236 39.1056C61.1784 39.1423 61.5332 39.179 61.8758 39.1056C62.6711 38.7997 63.0626 38.2614 63.0259 37.4172C63.0259 37.1236 63.1237 36.9645 63.3684 36.8544C63.6743 36.7199 63.9679 36.573 64.2616 36.4262C65.8276 35.631 67.3936 34.848 68.9597 34.0527C69.8406 33.6 70.697 33.1351 71.5779 32.6824C71.6146 32.4867 71.7614 32.45 71.8593 32.5968C71.9449 32.7314 72.0061 32.9393 71.7369 33.0005C71.2231 33.6 70.8193 34.2729 70.3667 34.9091C68.9352 36.9278 67.5282 38.9588 66.109 40.9897C65.5462 41.7972 64.9712 42.6047 64.4206 43.4122C64.3839 43.4611 64.1882 43.559 64.3961 43.6569C64.6041 43.767 65.1547 43.6447 65.2893 43.4611C66.7452 41.3813 68.1889 39.2891 69.6448 37.2092C70.5012 35.9735 71.3944 34.7501 72.2263 33.5021C72.4832 33.1229 72.7891 33.392 73.0583 33.3309C73.2663 33.2942 73.2907 33.4777 73.3397 33.6122C73.511 34.0894 73.6823 34.5666 73.8413 35.0559C74.3919 36.6831 74.9302 38.2981 75.4685 39.9253C75.7499 40.7695 76.0191 41.626 76.3005 42.4824C76.5452 42.8249 76.6308 43.2287 76.7042 43.6202C76.9244 43.9261 77.2303 43.767 77.5117 43.767C77.4505 43.4856 77.3159 43.2165 77.2181 42.9473C76.6797 41.3813 76.1659 39.803 75.652 38.237C75.4073 38.0779 75.4807 37.7965 75.4073 37.5763C75.2116 36.9768 75.0158 36.3895 74.8201 35.79C74.5998 35.1171 74.3796 34.4442 74.1594 33.7713C74.0615 33.649 73.9759 33.5144 74.0126 33.3431C73.9269 33.2452 73.9025 33.1106 74.0126 33.0372C74.1227 32.9638 74.245 33.0128 74.2695 33.1718C74.294 33.1718 74.3062 33.184 74.3307 33.1963C74.5264 33.2697 74.661 33.4165 74.7467 33.6122C75.3706 34.2362 75.9946 34.8602 76.6186 35.4842C76.8143 35.5576 76.9489 35.7044 77.0345 35.9001C77.1202 35.998 77.2058 36.1081 77.2915 36.1938C78.2947 37.1848 79.3102 38.1635 80.3134 39.1546C80.4358 39.2647 80.5337 39.3503 80.4235 39.6072C79.9097 40.8796 80.8518 42.0542 82.0385 42.0052C82.8949 41.9685 83.629 41.2711 83.678 40.4147C83.7269 39.5338 83.1152 38.7753 82.2465 38.6407C82.0508 38.6407 81.8672 38.6529 81.6715 38.6652C81.5491 38.763 81.4146 38.8364 81.2433 38.7997C81.0597 38.8487 80.9129 38.7875 80.7783 38.6407C80.5459 38.3838 80.3012 38.1391 80.0443 37.8944C78.3069 36.1693 76.5696 34.432 74.8323 32.7069C74.7467 32.6212 74.6366 32.5478 74.6366 32.4255C74.6366 31.9361 74.8935 31.6425 75.3829 31.4834C76.4106 31.1531 77.4383 30.786 78.466 30.4557C79.3102 30.1865 80.1544 29.9296 81.0108 29.6605C81.0475 29.5014 81.1576 29.5014 81.28 29.5259C81.4023 29.5014 81.5124 29.4769 81.6348 29.4402C82.9439 29.012 84.2408 28.5716 85.5499 28.1311C86.7244 27.7396 87.8989 27.3481 89.0857 26.9688C89.7953 26.7486 90.4682 26.455 91.2023 26.3082C91.2267 26.1491 91.3491 26.1491 91.4714 26.1736C92.3279 25.9044 93.1843 25.6475 94.0285 25.3416C94.2609 25.256 94.3588 25.3049 94.4934 25.464C94.9216 25.9534 95.4477 26.1491 96.0961 26.039C96.9159 25.8922 97.6255 25.1092 97.5154 24.3384C97.3808 23.3596 96.8914 22.7723 95.8881 22.6989C94.9094 22.6255 94.1998 23.2984 94.0774 24.2772C94.0652 24.4118 94.1141 24.5953 93.8939 24.632C93.7716 24.7299 93.6492 24.8155 93.4779 24.7788C93.2455 24.84 93.013 24.9012 92.7928 24.9746C91.2879 25.4762 89.7708 25.9901 88.266 26.4917C88.1558 26.7119 87.9601 26.663 87.7643 26.6507C86.8834 26.9444 86.0025 27.2502 85.1094 27.5439C83.9471 27.9231 82.7848 28.2779 81.6348 28.6572C80.497 29.0365 79.3714 29.4647 78.2213 29.8073C77.108 30.1498 76.0068 30.5291 74.9057 30.8962C74.8935 31.0063 74.8323 31.0552 74.7222 31.043C74.5998 31.043 74.5754 30.9696 74.5876 30.8595C74.4897 30.4435 74.0738 30.3089 73.8535 30.003C73.7801 29.636 73.9269 29.2934 73.9514 28.9264C73.9759 28.5349 74.1105 28.1434 74.086 27.7396C74.086 27.605 74.1227 27.4705 74.2328 27.3848C74.2328 27.3359 74.2328 27.2869 74.245 27.238C74.245 26.871 74.1472 26.4917 74.4041 26.1736V26.0268C74.4286 25.7209 74.245 25.3783 74.5509 25.1092C74.5509 25.0358 74.5509 24.9623 74.5631 24.8767C74.5876 24.5953 74.3919 24.2772 74.71 24.0447C74.71 23.5798 74.918 23.1394 74.8935 22.6745C74.8935 22.442 74.8201 22.1973 75.0281 22.0016C75.0281 21.867 75.0403 21.7446 75.0525 21.6101C75.0403 21.3409 75.0281 21.084 75.1993 20.8515C75.1993 20.7536 75.1993 20.6435 75.2116 20.5456C75.2116 20.4355 75.2116 20.3254 75.2116 20.2153C75.2605 19.6647 75.2361 19.1019 75.4318 18.5759C75.5052 18.2333 75.3217 17.8418 75.6153 17.5359C75.6398 17.1811 75.4685 16.7896 75.7621 16.4715C75.7621 16.3736 75.7621 16.2635 75.7744 16.1656C75.7866 15.8842 75.6398 15.5784 75.9212 15.3337C75.9212 15.2603 75.9334 15.1746 75.9457 15.1012C75.9457 14.8688 75.8722 14.6241 76.0802 14.4283C76.0802 14.2937 76.0925 14.1714 76.1047 14.0368C76.1047 13.8777 76.1047 13.7187 76.1047 13.5596C76.1047 12.7522 76.3494 11.9814 76.3616 11.1739C76.3616 11.1005 76.4595 11.0148 76.5085 10.9414C76.5085 10.8925 76.5085 10.8436 76.5085 10.7946C76.5452 10.4887 76.3494 10.1462 76.6675 9.87702C76.6797 9.85255 76.6797 9.84031 76.6675 9.81584C76.6675 9.55892 76.6675 9.30199 76.6675 9.05729C76.6675 8.94718 76.6797 8.83707 76.8266 8.82484C76.7898 8.48227 77.0101 8.37215 77.2915 8.29875C77.8543 8.1397 78.2213 7.76042 78.3926 7.20986V6.12098C77.9521 5.19114 77.3526 4.87304 76.3494 5.04433C75.6643 5.16667 75.1504 5.81511 75.0525 6.68377C75.2238 6.85506 75.2116 7.05081 75.1871 7.27103C75.3462 7.72372 75.6765 8.02958 76.0925 8.23757C76.276 8.23757 76.2515 8.35992 76.2515 8.48227C76.2515 8.61685 76.3249 8.7759 76.1047 8.8126C76.1047 8.97165 76.0925 9.11847 76.0802 9.27752C76.0802 9.48551 76.2148 9.71797 75.9457 9.87702C75.9457 9.98713 75.9212 10.085 75.9212 10.1951C75.9212 10.3052 75.9212 10.4153 75.9212 10.5255C75.9701 10.7946 75.8723 11.0271 75.7866 11.2718C75.8233 11.6143 75.7132 11.9324 75.6398 12.2628C75.5909 12.9846 75.3829 13.6942 75.3706 14.4283C75.3339 14.7586 75.5297 15.1379 75.2238 15.4193C75.2238 15.4927 75.2238 15.5661 75.2116 15.6518C75.1749 15.9332 75.3829 16.2513 75.0648 16.4837C75.0648 16.6183 75.0525 16.7407 75.0403 16.8752C75.0158 17.1077 75.1993 17.3769 74.9057 17.5481C74.9057 17.6216 74.8935 17.7072 74.8812 17.7806C74.8812 18.0131 74.9547 18.2578 74.7467 18.4535C74.7956 18.9551 74.5998 19.42 74.5631 19.8972C74.5998 20.2398 74.5142 20.5701 74.4163 20.8882C74.4163 20.9127 74.4163 20.9371 74.4163 20.9494C74.4653 21.2308 74.3552 21.4877 74.3307 21.7691C74.3062 22.1851 74.4286 22.6133 74.1594 22.9926C74.1594 23.066 74.1594 23.1394 74.1594 23.225C74.1227 23.5064 74.3307 23.8245 74.0126 24.057C74.0126 24.1916 74.0003 24.3139 73.9881 24.4485C73.9636 24.681 74.1472 24.9501 73.8535 25.1214C73.7924 25.5863 73.7312 26.039 73.67 26.5039C73.6945 26.7731 73.6945 27.03 73.5354 27.2502C73.5354 27.3481 73.5354 27.4582 73.5232 27.5561C73.5844 27.862 73.4498 28.1434 73.4376 28.437C73.4376 28.804 73.5354 29.1833 73.2785 29.5014C73.254 29.6482 73.2418 29.7828 73.2051 29.9663C72.9849 29.844 72.9359 29.6972 72.9604 29.5014C72.9482 29.4769 72.9359 29.4525 72.9359 29.428C72.8136 29.2812 72.7524 29.1221 72.7891 28.9264C72.6178 28.2779 72.4588 27.6295 72.2875 26.9811C72.0306 26.8098 72.1407 26.5529 72.1284 26.3326C72.0428 25.9901 71.9572 25.6353 71.8715 25.2927C71.7492 25.1459 71.688 24.9746 71.7247 24.7911C71.6146 24.3384 71.5045 23.8735 71.3821 23.4208C71.1497 23.3351 71.2476 23.1516 71.2476 22.9926C70.8316 21.4143 70.4278 19.8483 70.0118 18.27C69.7672 18.1232 69.8528 17.8907 69.865 17.6827C69.865 17.6583 69.865 17.6338 69.865 17.6216C69.6081 17.487 69.7182 17.2423 69.706 17.0465C69.5836 16.7407 69.6693 16.5327 69.9384 16.3369C70.2933 16.08 70.4768 15.7007 70.5257 15.2603C70.5257 15.1012 70.5257 14.9299 70.5257 14.7709C70.3544 14.0246 69.8773 13.5719 69.131 13.3761C68.9352 13.3761 68.7517 13.3761 68.5559 13.3761C67.5649 13.5841 67.0878 14.2937 67.1734 15.4193C67.4181 15.4805 67.308 15.6762 67.3325 15.8231C67.4793 16.1656 67.724 16.4103 68.0665 16.5571C68.2501 16.5571 68.4458 16.496 68.5559 16.7162C68.7027 16.7529 68.8985 16.6795 68.9597 16.8997C69.082 17.4013 69.1921 17.903 69.3022 18.4168C69.5347 18.5024 69.4368 18.686 69.4368 18.845C69.498 19.0652 69.5469 19.2732 69.6081 19.4935C69.8406 19.8727 69.9384 20.2887 69.9262 20.7292C69.9262 20.8637 70.0853 20.9739 70.0118 21.1207C70.2321 21.9404 70.4523 22.7479 70.6603 23.5676C70.8805 23.6899 70.8316 23.8857 70.8071 24.0692V24.216C71.0518 24.5586 71.1252 24.9501 71.1497 25.3539C71.1497 25.5007 71.2965 25.6108 71.2353 25.7576C71.4066 26.4305 71.5657 27.1156 71.7369 27.7886C71.9939 28.2412 72.0428 28.7551 72.1407 29.2567C72.2263 29.4402 72.3242 29.6115 72.2997 29.8317C72.3487 30.0153 72.3242 30.1621 72.1284 30.2722C72.0061 30.3334 71.8838 30.4557 71.8103 30.5658C71.688 30.786 71.4922 30.7616 71.321 30.7004C70.8316 30.5414 70.3544 30.3456 69.865 30.1743C69.0208 29.8929 68.1889 29.6115 67.3447 29.3301C66.8553 29.1833 66.3659 29.0365 65.8765 28.8897C65.8398 28.8897 65.8276 28.804 65.8031 28.7673C65.2403 28.5593 64.6898 28.3391 64.1147 28.1678C63.8945 28.0944 63.8211 28.021 63.8089 27.8008C63.7355 26.6263 62.5242 25.831 61.4598 26.3082C60.7869 26.614 60.4199 27.1279 60.3954 27.8253C60.3709 28.4492 60.6401 29.012 61.2396 29.3424C61.8269 29.6605 62.4264 29.587 63.0136 29.3424C63.1482 29.1466 63.3317 28.9998 63.5153 28.8652C63.711 28.645 63.8456 28.8652 64.0046 28.9386C65.0446 29.2934 66.0845 29.636 67.1122 30.003C68.4458 30.4679 69.7794 30.9329 71.1252 31.3978C71.2843 31.4467 71.4678 31.4834 71.4433 31.7403C71.4311 31.9239 71.3699 32.034 71.1986 32.1196C68.4703 33.4899 65.7542 34.8602 63.0381 36.2549C62.7812 36.3895 62.6466 36.365 62.4386 36.1938C61.888 35.7533 61.2763 35.7044 60.6401 35.9735C59.4778 36.4752 59.2698 38.2002 60.4933 38.971V38.9588Z" fill="#5F7C95"/>
<path d="M69.7788 52.5515C69.7788 50.5206 69.7788 48.4774 69.7788 46.4464C69.7788 46.1528 69.7421 45.9448 69.3628 45.9693C68.959 45.9937 68.5431 45.9937 68.1393 45.9693C67.7845 45.957 67.6377 46.0671 67.6377 46.4587C67.6622 47.7188 67.6377 48.979 67.6377 50.2392C67.6377 50.4104 67.6622 50.5817 67.5276 50.753C67.4664 50.6796 67.4175 50.6307 67.3808 50.5817C66.2674 49.1503 65.1541 47.7311 64.0407 46.2996C63.8572 46.0671 63.6614 45.9448 63.3556 45.9693C62.9029 45.9937 62.4624 45.9815 62.0098 45.9693C61.7406 45.9693 61.6427 46.0671 61.6427 46.3241C61.6427 48.8322 61.6427 51.3403 61.6427 53.8484C61.6427 54.0808 61.7406 54.1543 61.9608 54.1543C62.4624 54.1543 62.9641 54.142 63.4657 54.1543C63.7593 54.1543 63.8327 54.0441 63.8205 53.775C63.8083 52.992 63.8205 52.1967 63.8205 51.4137V49.4317C63.8572 49.4317 63.8939 49.4072 63.9184 49.395C64.1264 49.6397 64.3344 49.8844 64.5301 50.1413C65.5089 51.4015 66.4877 52.6616 67.4664 53.9218C67.5643 54.0564 67.6866 54.142 67.8702 54.142C68.3963 54.142 68.9346 54.1298 69.4607 54.142C69.7176 54.142 69.7788 54.0319 69.7788 53.7994C69.7788 53.3835 69.7788 52.9553 69.7788 52.5393V52.5515Z" fill="#5F7C95"/>
<path d="M142.013 50.7653C142.013 50.2515 142.013 49.7376 142.013 49.2238C142.013 49.1748 142 49.1137 141.988 49.0647C141.817 48.9668 141.817 48.8078 141.854 48.6365C141.633 47.7801 141.119 47.1561 140.373 46.6912C140.239 46.7157 140.177 46.6422 140.128 46.5321C139.688 46.263 139.186 46.1406 138.673 46.0672C137.584 45.9082 136.483 46.0305 135.381 45.9816C135.014 45.9693 134.904 46.1162 134.917 46.4587C134.929 47.3029 134.917 48.1349 134.917 48.9791C134.917 50.5696 134.917 52.1478 134.917 53.7383C134.917 53.9463 134.892 54.1666 135.21 54.1543C136.911 54.0809 138.673 54.4602 140.275 53.5304C140.3 53.3835 140.41 53.3713 140.532 53.3713C141.291 52.7473 141.854 52.0133 142.013 51.0223V50.7653ZM139.015 51.9154C138.819 52.0622 138.611 52.1845 138.354 52.1723C138.269 52.3925 138.085 52.3069 137.926 52.3069C137.372 52.3395 137.094 52.0826 137.094 51.5361C137.094 50.4472 137.107 49.3706 137.094 48.2939C137.094 47.9269 137.229 47.8168 137.571 47.829C138.465 47.8535 139.235 48.037 139.651 48.9668C140.104 49.9823 139.872 51.3281 139.04 51.9154H139.015Z" fill="#5F7C95"/>
<path d="M32.0473 48.9668C31.5579 47.1683 30.3466 46.2385 28.5237 46.0305C27.5204 45.9204 26.5172 46.0305 25.514 45.9693C25.1347 45.9448 25.0001 46.055 25.0001 46.4587C25.0246 48.1715 25.0001 49.8844 25.0001 51.585C25.0001 52.3313 25.0001 53.0776 25.0001 53.824C25.0001 53.9952 24.9879 54.1665 25.2326 54.1543C26.5172 54.1054 27.8141 54.2766 29.0865 54.0075C29.2333 53.8974 29.3923 53.824 29.5759 53.8484C30.8605 53.3346 31.7169 52.4537 32.0228 51.0834C32.1329 50.3738 32.0962 49.6764 32.0228 48.9668H32.0473ZM29.7839 50.9243C29.3923 52.0866 28.3524 52.3803 27.3247 52.3069C27.1779 52.3069 27.1534 52.209 27.1534 52.0866C27.1534 50.7408 27.1534 49.395 27.1534 48.0614C27.1534 47.8779 27.239 47.8167 27.4103 47.829C28.5237 47.8412 29.3067 47.9146 29.7716 49.1381C29.8817 49.187 29.9307 49.2727 29.9429 49.395C29.9429 49.8355 29.9429 50.2881 29.9429 50.7286C29.9429 50.8387 29.9062 50.9121 29.7839 50.9243Z" fill="#5F7C95"/>
<path d="M85.6841 53.8607C85.8309 54.0564 86.0144 54.1298 86.2714 54.1298C86.8953 54.1054 87.5071 54.1298 88.131 54.1298C88.2656 54.1298 88.4491 54.2033 88.4613 53.9586C87.6172 52.9798 86.8831 51.9154 86.0756 50.8877C86.4059 50.6919 86.773 50.6185 87.0421 50.3616C87.6906 49.7498 87.8129 49.0035 87.7273 48.1593C87.6172 47.1071 86.8097 46.2385 85.7575 46.0672C85.0234 45.9449 84.3016 46.006 83.5675 46.006C82.9925 46.006 82.4052 45.9449 81.8302 46.0427C81.7078 46.6178 81.7812 47.1928 81.7812 47.7801C81.7812 49.7865 81.7812 51.793 81.7812 53.7995C81.7812 54.1054 81.8546 54.2033 82.1605 54.191C82.6254 54.1665 83.0781 54.1665 83.543 54.191C83.8244 54.2033 83.9223 54.1176 83.9101 53.824C83.8856 53.1144 83.9101 52.417 83.9101 51.7074C83.9101 51.5728 83.8489 51.4138 84.0079 51.2425C84.5707 52.1356 85.1335 53.0043 85.6841 53.8852V53.8607ZM83.8856 49.1748C83.9101 48.7833 83.8978 48.3918 83.8856 48.0003C83.8856 47.7801 83.959 47.6699 84.1915 47.6822C84.6319 47.6822 85.0846 47.6944 85.3905 48.1104C85.8309 48.7099 85.4516 49.4807 84.6686 49.6153C84.5585 49.6275 84.4484 49.6275 84.2649 49.6397C83.9835 49.7131 83.8734 49.5418 83.8978 49.187L83.8856 49.1748Z" fill="#5F7C95"/>
<path d="M99.1424 54.1542C99.3748 54.1542 99.3993 54.0563 99.3259 53.8484C98.9589 52.8818 98.5918 51.9153 98.237 50.9365C98.1391 50.8142 98.0902 50.6796 98.0902 50.5205C97.5641 49.1135 97.038 47.6943 96.4997 46.2873C96.4385 46.1283 96.3406 45.957 96.0837 45.9692C95.5209 45.9937 94.9459 45.9692 94.3709 45.9692C94.1384 45.9692 93.9794 46.0426 93.8937 46.3118C93.6246 47.0948 93.3187 47.8656 93.0128 48.6364C92.5724 49.7865 92.1075 50.9243 91.6792 52.0621C91.459 52.6494 91.251 53.2489 91.043 53.8361C91.043 54.0563 91.1532 54.093 91.3489 54.093C91.9606 54.093 92.5601 54.093 93.1719 54.093C93.3309 53.7382 93.5022 53.3957 93.6245 53.0286C93.698 52.8206 93.8203 52.7717 94.0161 52.7717C94.5299 52.7717 95.0438 52.7717 95.5576 52.7717C96.2999 52.7717 96.7852 53.1306 97.0135 53.8484C97.1848 53.8606 97.1726 53.9829 97.1604 54.1053C97.821 54.2032 98.4817 54.1298 99.1424 54.142V54.1542ZM95.7167 51.12C95.3496 51.1078 94.9826 51.12 94.6156 51.12C94.5055 51.12 94.3586 51.12 94.4076 50.961C94.6156 50.2391 94.8602 49.5295 95.1539 48.8321C95.1906 48.8321 95.2273 48.8321 95.264 48.8444C95.4842 49.4928 95.7044 50.1535 95.9491 50.8019C96.047 51.0711 95.9736 51.1323 95.7167 51.12Z" fill="#5F7C95"/>
<path d="M122.621 54.1666C122.927 54.1666 123.025 54.0687 123.012 53.7751C122.988 53.3958 122.988 53.0165 123.012 52.6372C123.025 52.3803 122.939 52.3069 122.694 52.3191C121.997 52.3314 121.312 52.3191 120.614 52.3191H119.636C120.076 51.5973 120.468 50.9611 120.847 50.3249C121.63 49.0158 122.425 47.7067 123.196 46.3976C123.404 46.055 123.355 45.9816 122.951 45.9816C121.006 45.9816 119.073 45.9816 117.128 45.9816C116.773 45.9816 116.638 46.1162 116.663 46.4587C116.675 46.7034 116.663 46.9481 116.663 47.1928C116.663 47.6169 116.883 47.829 117.323 47.829C118.021 47.829 118.706 47.829 119.403 47.829C119.746 47.829 119.782 47.9514 119.623 48.2083C118.902 49.3828 118.192 50.5573 117.47 51.7319C116.993 52.5149 116.516 53.2979 116.051 54.0809C116.21 54.2033 116.369 54.1666 116.516 54.1666C117.348 54.1666 118.168 54.1666 118.999 54.1666C120.211 54.1666 121.41 54.1666 122.621 54.1666Z" fill="#5F7C95"/>
<path d="M40.098 52.3068C39.7065 52.3068 39.315 52.3068 38.9113 52.3068C37.8469 52.3068 37.8591 52.3068 37.8958 51.2424C37.8958 50.9855 37.9937 50.9243 38.2384 50.9243C38.8134 50.9243 39.3762 50.9243 39.9512 50.9243C40.1714 50.9243 40.2693 50.8631 40.2571 50.6307C40.2449 50.2147 40.2571 49.7865 40.2571 49.3705C40.2571 49.1748 40.1837 49.1136 40.0002 49.1136C39.5964 49.1136 39.1804 49.1136 38.7767 49.1136C37.8836 49.1136 37.8958 49.1136 37.8958 48.2327C37.8958 47.9146 38.0059 47.7922 38.324 47.8045C38.9113 47.8167 39.4863 47.8045 40.0736 47.8045C40.2938 47.8045 40.3917 47.7311 40.3917 47.4986C40.3794 47.0949 40.3794 46.6789 40.3917 46.2751C40.3917 46.0305 40.306 45.9448 40.0613 45.9448C39.4129 45.957 38.7522 45.9448 38.1038 45.9448C37.4553 45.9448 36.7947 45.9448 36.1462 45.9448C35.8526 45.9448 35.7058 46.0305 35.7058 46.3608C35.7058 48.82 35.7058 51.2791 35.7058 53.7261C35.7058 53.9952 35.7792 54.1176 36.0728 54.1176C37.4186 54.1176 38.7645 54.1176 40.1103 54.1176C40.3183 54.1176 40.4039 54.0442 40.3917 53.8362C40.3917 53.408 40.3794 52.9675 40.3917 52.5393C40.3917 52.3068 40.2938 52.2701 40.098 52.2701V52.3068Z" fill="#5F7C95"/>
<path d="M130.904 54.1665C131.197 54.1665 131.369 54.1053 131.332 53.7627C131.308 53.3835 131.32 53.0042 131.332 52.6249C131.332 52.3925 131.259 52.3068 131.026 52.319C130.622 52.3313 130.206 52.319 129.803 52.319C128.75 52.319 128.763 52.3191 128.787 51.2669C128.787 51.0099 128.885 50.9365 129.118 50.9488C129.717 50.9488 130.317 50.9488 130.904 50.9488C131.124 50.9488 131.222 50.8876 131.21 50.6551C131.197 50.2514 131.197 49.8354 131.21 49.4317C131.21 49.1992 131.124 49.1258 130.904 49.138C130.451 49.1503 130.011 49.138 129.558 49.138C129.044 49.138 128.787 48.8852 128.787 48.3795C128.787 47.8534 128.787 47.8412 129.338 47.8412C129.852 47.8412 130.365 47.8412 130.879 47.8412C131.161 47.8412 131.344 47.7555 131.308 47.4252C131.283 47.1071 131.283 46.7768 131.308 46.4464C131.332 46.1038 131.197 45.9937 130.867 45.9937C129.619 45.9937 128.371 45.9937 127.123 45.9937C126.781 45.9937 126.646 46.0916 126.646 46.4587C126.671 47.6699 126.646 48.8689 126.646 50.0801C126.646 51.2913 126.646 52.001 126.646 52.9675C126.646 53.3468 126.487 53.8239 126.72 54.0686C126.976 54.3378 127.466 54.1543 127.857 54.1665C128.861 54.1787 129.864 54.1665 130.867 54.1665H130.904Z" fill="#5F7C95"/>
<path d="M48.6008 54.2643C48.9801 54.0564 49.4083 53.9952 49.812 53.8606V51.3892C48.9189 52.2946 47.9157 52.4781 46.8757 51.952C46.1049 51.5727 45.7991 50.8386 45.848 49.9944C45.8969 49.0891 46.3619 48.4284 47.2183 48.0736C47.5731 47.7922 47.9768 47.9268 48.3683 47.9268C48.3683 47.9268 48.3683 47.939 48.3928 47.9513C48.3928 47.9513 48.3806 47.939 48.3683 47.9268C48.5274 47.9023 48.662 47.9757 48.7721 48.0858C49.1758 48.2082 49.4695 48.5018 49.812 48.8322V46.2996C49.4572 46.2262 49.0779 46.1772 48.7721 45.957C48.0992 45.7613 47.4385 45.8469 46.7778 46.0182C44.7591 46.532 43.3521 48.5752 43.6458 50.6796C43.8293 52.0009 44.5022 53.0409 45.6767 53.7505C46.6065 54.3133 47.5853 54.3622 48.613 54.2766L48.6008 54.2643Z" fill="#5F7C95"/>
<path d="M55.9295 47.7677C56.5168 47.7677 57.0918 47.7555 57.6791 47.7677C57.9483 47.7677 58.0706 47.7066 58.0584 47.4129C58.0339 47.0581 58.0461 46.7033 58.0584 46.3607C58.0584 46.1038 57.9727 46.0304 57.728 46.0304C56.4312 46.0304 55.1221 46.0304 53.8252 46.0304C53.5438 46.0304 53.4826 46.1405 53.4826 46.3852C53.4826 48.8566 53.4826 51.328 53.4826 53.7872C53.4826 54.0319 53.5438 54.1175 53.8007 54.1175C55.1221 54.1175 56.4312 54.1175 57.7525 54.1175C57.9727 54.1175 58.0706 54.0563 58.0584 53.8116C58.0461 53.31 58.0584 52.8084 58.0461 52.3068C57.569 52.3068 57.1041 52.3068 56.6269 52.3068C55.5625 52.3068 55.5747 52.3068 55.5992 51.2301C55.5992 50.961 55.7093 50.912 55.9418 50.9243C56.4801 50.9365 57.0307 50.9243 57.569 50.9243C57.8259 50.9243 57.936 50.8753 57.9238 50.5939C57.8993 50.2147 57.8993 49.8354 57.9238 49.4561C57.9238 49.1992 57.8748 49.0891 57.5935 49.1013C57.2998 49.1258 56.994 49.1013 56.7003 49.1013C55.9173 49.1013 55.5666 48.6976 55.6481 47.8901C55.6604 47.6576 55.8439 47.7433 55.954 47.7433L55.9295 47.7677Z" fill="#5F7C95"/>
<path d="M77.3035 47.829C77.6338 47.8413 77.9519 47.829 78.2823 47.829C78.5025 47.829 78.6004 47.7434 78.5881 47.5109C78.5881 47.1072 78.5881 46.6912 78.5881 46.2874C78.5881 46.055 78.5025 45.9816 78.27 45.9816C76.6306 45.9816 74.9789 45.9816 73.3395 45.9816C73.0948 45.9816 72.9602 46.055 72.9724 46.3364C72.9847 46.7157 72.9847 47.0949 72.9724 47.4742C72.9602 47.7311 73.0948 47.8168 73.3028 47.8168C73.5842 47.8168 73.8778 47.8168 74.1592 47.8168C74.6853 47.8168 74.6853 47.8168 74.6853 48.3306C74.6853 50.1169 74.6853 51.9154 74.6853 53.7017C74.6853 54.0442 74.7954 54.1543 75.1257 54.1421C75.5907 54.1176 76.0433 54.1299 76.5083 54.1421C76.7897 54.1421 76.8875 54.0442 76.8753 53.7628C76.8631 52.8452 76.8753 51.9154 76.8753 50.9978C76.8753 50.0802 76.8875 49.1504 76.8753 48.2328C76.8753 47.9024 76.9976 47.8045 77.3035 47.8168V47.829Z" fill="#5F7C95"/>
<path d="M107.291 53.7995C107.278 53.4202 107.266 53.0409 107.291 52.6617C107.315 52.3558 107.181 52.2946 106.911 52.3069C106.336 52.3191 105.774 52.2946 105.199 52.3191C104.831 52.3436 104.721 52.2457 104.721 51.8542C104.746 50.0434 104.721 48.2205 104.734 46.3975C104.734 46.0549 104.623 45.9448 104.293 45.9571C103.865 45.9815 103.424 45.9815 102.996 45.9571C102.69 45.9448 102.593 46.0427 102.605 46.3486C102.617 47.5843 102.605 48.82 102.605 50.0557C102.605 51.3036 102.605 52.5515 102.605 53.7995C102.605 53.983 102.58 54.1543 102.862 54.1543C104.232 54.1543 105.602 54.1543 106.973 54.1543C107.217 54.1543 107.303 54.0319 107.291 53.7995Z" fill="#5F7C95"/>
<path d="M112.809 46.4342C112.809 46.0916 112.662 45.9693 112.356 45.9815C112.001 45.9815 111.646 45.9815 111.304 45.9815C110.871 45.9815 110.655 46.1936 110.655 46.6177C110.655 47.7678 110.655 48.9178 110.655 50.0801C110.655 51.3158 110.655 52.5515 110.655 53.775C110.655 54.0808 110.753 54.1787 111.047 54.1665C111.512 54.142 111.964 54.1665 112.429 54.1665C112.711 54.1665 112.821 54.0686 112.821 53.7627C112.809 51.328 112.809 48.8811 112.821 46.4464L112.809 46.4342Z" fill="#5F7C95"/>
<path d="M89.3547 76.3357C89.1589 76.3724 88.9998 76.3235 88.853 76.1889C88.5594 76.2501 88.4371 76.091 88.3514 75.8341C87.9844 74.7452 87.6051 73.6686 87.2503 72.5797C86.7487 71.0871 86.2593 69.6067 85.7577 68.1141C85.6598 67.9672 85.5741 67.8082 85.5986 67.6247C85.4885 67.2821 85.4029 66.9395 85.256 66.6092C85.0725 66.2177 85.0725 65.765 84.7789 65.4224C84.5342 65.4714 84.1182 65.3001 84.2039 65.8262C84.6076 67.0496 85.0236 68.2731 85.4273 69.4843C85.6476 69.5944 85.5986 69.7902 85.5864 69.9737C85.8555 70.3041 85.9167 70.72 85.9901 71.1238C86.296 72.0414 86.5896 72.959 86.8955 73.8766C87.0056 74.0234 87.079 74.1824 87.0545 74.3782C87.2625 74.9655 87.4705 75.5527 87.6663 76.14C87.7152 76.2868 87.7397 76.4458 87.5806 76.5804C86.6019 77.4246 86.8832 79.1497 88.2658 79.529C88.5349 79.529 88.8163 79.529 89.0855 79.529C89.4158 79.4556 89.6972 79.2721 89.9297 79.0396C90.7494 78.1954 90.3946 76.6294 89.3302 76.3357H89.3547Z" fill="#5F7C95"/>
<path d="M55.905 56.5033C55.5869 56.4788 55.2933 56.4421 55.0608 56.7969C53.3113 59.3418 51.525 61.8743 49.7632 64.4191C49.5675 64.7005 49.3717 64.8106 49.0047 64.7495C47.9525 64.5659 47.0838 65.3245 47.0716 66.3767C47.0716 67.4044 47.7935 68.0651 48.6866 68.1018C49.9712 68.1507 50.9133 66.8416 50.2404 65.557C50.118 65.3367 50.1058 65.1777 50.2404 64.9697C51.7085 62.8653 53.1767 60.7732 54.6449 58.6688C55.0731 58.0449 55.5135 57.4209 55.9417 56.7969C56.0151 56.6868 56.1497 56.54 55.8928 56.5155L55.905 56.5033Z" fill="#5F7C95"/>
<path d="M106.703 58.1917C106.043 58.6199 105.712 59.2684 105.406 59.9535C105.541 60.3817 105.419 60.8344 105.467 61.2748C105.467 61.4339 105.578 61.544 105.614 61.6786C106.104 63.159 107.927 63.8196 109.358 63.3058C110.631 62.8531 111.438 61.3605 111.132 59.9413C110.692 57.9103 108.257 57.164 106.691 58.1917H106.703ZM110.545 60.8711C110.3 62.2658 109.175 63.11 107.743 62.7919C107.131 62.6574 106.618 62.2536 106.373 61.6174C106.189 61.4339 106.128 61.2014 106.14 60.9445C106.018 59.8801 106.422 59.0971 107.364 58.571C107.474 58.4609 107.609 58.3875 107.78 58.4119C108.881 58.2284 109.75 58.571 110.325 59.562C110.361 59.6232 110.374 59.7088 110.398 59.7944C110.631 59.8801 110.545 60.0636 110.533 60.2227C110.533 60.2716 110.545 60.3205 110.557 60.3695C110.802 60.5285 110.79 60.6998 110.557 60.8589L110.545 60.8711Z" fill="#5F7C95"/>
<path d="M125.679 63.5016C125.716 63.4649 125.728 63.4037 125.728 63.3547C125.728 61.593 125.74 59.8434 125.728 58.0816C125.728 57.6412 125.361 57.8736 125.141 57.8492V61.96C125.104 61.96 125.055 61.9722 125.019 61.9845C124.945 61.8988 124.86 61.8009 124.786 61.7153C123.526 60.394 122.254 59.0849 120.993 57.7635C120.883 57.8614 120.908 57.9837 120.908 58.1061C120.908 59.6966 120.908 61.2749 120.908 62.8654C120.908 62.9877 120.847 63.159 121.03 63.2079C121.287 63.2813 121.311 63.1101 121.311 62.9021C121.311 61.752 121.311 60.602 121.311 59.4397C121.311 59.3418 121.275 59.2072 121.409 59.1583C121.532 59.1216 121.63 59.146 121.63 59.3051C121.642 59.3785 121.679 59.4152 121.727 59.4641C123 60.7855 124.272 62.119 125.545 63.4526C125.594 63.4526 125.63 63.5505 125.679 63.4893V63.5016Z" fill="#5F7C95"/>
<path d="M68.7149 57.8002C68.4091 57.8002 68.4091 57.9959 68.4091 58.2162C68.4091 59.3295 68.3968 60.4429 68.4091 61.5562C68.4091 62.119 68.042 62.6818 67.4181 62.8409C67.1978 63.0733 66.9776 63.0733 66.7696 62.8409C66.2191 62.7185 65.7541 62.2536 65.7664 61.5807C65.7909 60.4673 65.7664 59.354 65.7664 58.2406C65.7664 58.0082 65.7664 57.8124 65.436 57.8124C65.0935 57.8124 65.069 58.0082 65.069 58.2651C65.069 59.3907 65.0568 60.5163 65.069 61.6419C65.0935 62.743 65.9744 63.6116 67.0633 63.526C68.1766 63.4281 68.9596 63.0366 69.0575 61.5929C69.1309 60.4673 69.0697 59.3417 69.0697 58.2162C69.0697 57.9592 68.9719 57.8124 68.6782 57.8246L68.7149 57.8002Z" fill="#5F7C95"/>
<path d="M84.0328 63.1101C84.0328 63.3181 84.094 63.3915 84.3142 63.3915C84.5956 63.3915 84.7057 63.3181 84.6935 63.0244C84.6812 62.376 84.6935 61.7153 84.6935 61.0669C84.9504 61.0302 84.9993 61.2259 85.0727 61.3238C85.4643 61.8621 85.8435 62.4127 86.1983 62.9755C86.4553 63.3792 86.7734 63.4649 87.2505 63.3303C86.7734 62.6329 86.3084 61.96 85.8435 61.2871C85.6845 61.2382 85.6111 61.1158 85.6233 60.969C85.6233 60.8222 85.7579 60.8344 85.8558 60.8589C86.6265 60.6387 86.9446 59.9168 86.9324 59.3418C86.9202 58.6567 86.5164 58.1061 85.868 57.9226C85.2685 57.8614 84.6812 57.8369 84.0817 57.8614C84.0817 59.611 84.0817 61.3605 84.0573 63.1101H84.0328ZM84.6935 58.6444C84.6935 58.5221 84.7546 58.4609 84.8892 58.4364C85.3541 58.3508 85.9047 58.5833 86.1739 58.9992C86.3819 59.2439 86.4308 59.4886 86.1739 59.7455C85.9292 60.2472 85.3664 60.5163 84.8403 60.394C84.7179 60.3695 84.6812 60.3083 84.6812 60.1982C84.6812 59.6844 84.6812 59.1705 84.6812 58.6567L84.6935 58.6444Z" fill="#5F7C95"/>
<path d="M92.2421 62.8042C91.7405 62.8042 91.2389 62.7919 90.7373 62.8042C90.4804 62.8042 90.407 62.7185 90.407 62.4738C90.407 61.9722 90.4192 61.4706 90.407 60.969C90.407 60.7365 90.4926 60.6631 90.7128 60.6753C91.2144 60.6753 91.7161 60.6753 92.2177 60.6753C92.4746 60.6753 92.5847 60.6142 92.597 60.345C92.6092 60.0269 92.4257 60.0391 92.2055 60.0391C91.7161 60.0391 91.2267 60.0391 90.7373 60.0391C90.4926 60.0391 90.3825 59.978 90.3947 59.721C90.407 59.3907 90.407 59.0726 90.3947 58.7423C90.3825 58.4731 90.4926 58.3997 90.7618 58.4119C91.2512 58.4364 91.7405 58.4119 92.2299 58.4119C92.4257 58.4119 92.6581 58.4731 92.6581 58.1428C92.6581 57.8247 92.4746 57.7757 92.2055 57.788C91.5448 57.788 90.8719 57.8124 90.2112 57.788C89.8319 57.7757 89.6973 57.9225 89.7096 58.2774C89.7096 59.0481 89.7096 59.8189 89.7096 60.6019C89.7096 61.385 89.7096 62.1802 89.7096 62.9632C89.7096 63.2691 89.8197 63.4037 90.15 63.3914C90.8596 63.3792 91.557 63.3914 92.2666 63.3914C92.4991 63.3914 92.6581 63.3547 92.6704 63.0733C92.6826 62.7308 92.4379 62.8042 92.2544 62.8042H92.2421Z" fill="#5F7C95"/>
<path d="M81.084 58.155C81.084 57.9103 80.9983 57.7757 80.7169 57.788C80.4355 57.8002 80.3866 57.9593 80.3988 58.1917C80.3988 59.2561 80.3866 60.3328 80.3988 61.3972C80.4111 62.0946 80.1542 62.584 79.4813 62.8164C79.2366 63.0489 78.9919 63.0978 78.7472 62.8164C78.3067 62.6941 78.0009 62.4371 77.854 61.9967C77.7317 61.8132 77.7684 61.6052 77.7684 61.4094C77.7684 60.3573 77.7684 59.2928 77.7684 58.2407C77.7684 58.0204 77.7562 57.8369 77.4503 57.8369C77.1444 57.8369 77.1811 58.0449 77.1811 58.2284C77.1811 59.5375 77.1811 60.8589 77.1811 62.168C77.2668 62.5228 77.4503 62.8287 77.7562 63.0489C78.3312 63.4649 78.9552 63.5627 79.6648 63.4159C80.3132 63.2691 80.9494 62.6696 81.0228 62.0089C81.1574 60.7243 81.0595 59.4397 81.084 58.155Z" fill="#5F7C95"/>
<path d="M117.849 58.1551C117.849 57.9104 117.776 57.788 117.494 57.788C117.213 57.788 117.188 57.9226 117.188 58.1428C117.188 59.2562 117.213 60.3573 117.188 61.4707C117.164 62.2659 116.87 62.6207 116.161 62.8287C115.94 63.0734 115.72 63.0734 115.5 62.8287C114.607 62.5351 114.558 62.1436 114.497 61.2749C114.423 60.2227 114.472 59.1583 114.485 58.1061C114.485 57.8859 114.399 57.8003 114.166 57.8003C113.934 57.8003 113.861 57.8859 113.861 58.1061C113.873 59.3296 113.873 60.5531 113.885 61.7643C114.166 61.8989 114.007 62.1436 114.032 62.3515C114.032 62.4005 114.032 62.4617 114.069 62.5106C114.374 63.0979 114.888 63.3426 115.524 63.4527C116.369 63.6117 117.237 63.2447 117.629 62.4984C117.629 62.3148 117.58 62.1191 117.788 62.009C117.898 60.7243 117.825 59.4397 117.849 58.1551Z" fill="#5F7C95"/>
<path d="M101.736 62.8286C101.503 63.0488 101.149 63.0488 100.916 62.8286C100.708 62.7429 100.488 62.6818 100.304 62.5716C99.5337 62.1434 99.1667 61.4583 99.1911 60.5896C99.2156 59.6965 99.5827 58.9869 100.427 58.5831C100.525 58.4975 100.623 58.4119 100.769 58.4363C101.124 58.3874 101.467 58.3752 101.822 58.4363C102.017 58.3874 102.176 58.4853 102.311 58.5954C102.592 58.6321 102.751 58.9257 103.057 58.9991C103.008 58.6566 103.204 58.3262 102.788 58.0815C101.357 57.2618 99.1667 57.8858 98.6406 59.721C98.6406 59.7699 98.6406 59.8311 98.6406 59.88C98.506 60.3939 98.5672 60.92 98.6406 61.4338C98.8486 62.2902 99.3869 62.8775 100.194 63.2201C100.353 63.2078 100.525 63.1834 100.61 63.3791C101.124 63.5137 101.638 63.526 102.152 63.3791C102.238 63.1956 102.409 63.2078 102.568 63.2201C103.143 62.9387 103.155 62.8897 103.008 62.1924C102.617 62.4738 102.25 62.7674 101.748 62.8163L101.736 62.8286Z" fill="#5F7C95"/>
<path d="M132.715 62.3393C132.396 62.584 132.054 62.7675 131.65 62.8287C131.418 63.0489 131.136 63.0489 130.904 62.8287C130.096 62.6452 129.521 62.2047 129.191 61.4339C129.105 61.4217 129.044 61.3727 129.032 61.2749C129.032 60.8589 129.032 60.4429 129.032 60.0392C129.032 59.9413 129.093 59.8924 129.179 59.8801C129.228 59.6599 129.35 59.4764 129.472 59.2929C130.047 58.4609 130.867 58.2896 131.797 58.4242C132.017 58.4242 132.225 58.4731 132.372 58.6689C132.494 58.7545 132.617 58.8402 132.739 58.9136C132.837 58.987 132.971 59.0115 132.984 58.8524C133.008 58.5465 133.045 58.2651 132.678 58.0694C132.066 57.7391 131.43 57.6901 130.769 57.7758C129.864 57.8859 128.885 58.5955 128.616 59.5498C128.628 59.6844 128.677 59.8434 128.481 59.8924C128.481 59.9413 128.469 59.9902 128.457 60.0514C128.457 60.0759 128.457 60.1126 128.457 60.1371C128.457 60.4674 128.457 60.7855 128.457 61.1158C128.42 61.4095 128.64 61.6297 128.653 61.9111C128.812 61.9355 128.812 62.0579 128.812 62.168C128.848 62.2047 128.897 62.2414 128.922 62.2903C129.656 63.5016 131.65 63.9053 132.886 63C132.812 62.792 133.057 62.4983 132.715 62.3515V62.3393Z" fill="#5F7C95"/>
<path d="M60.9823 60.0637C60.6398 60.0881 60.5541 59.9413 60.5786 59.6354C60.5786 59.5865 60.5788 59.5375 60.5788 59.4886C60.5788 59.4641 60.5788 59.4397 60.5788 59.4274C60.5788 59.2194 60.5786 58.9992 60.5786 58.7913C60.5664 58.5099 60.652 58.3997 60.9456 58.412C61.4473 58.4364 61.9489 58.412 62.4505 58.412C62.4668 58.0286 62.2833 57.8369 61.8999 57.8369C61.3739 57.8369 60.8355 57.8369 60.3094 57.8369C60.0892 57.8369 59.9791 57.8981 59.9791 58.1306C59.9913 59.8801 60.0036 61.6297 60.0158 63.3792C60.3992 63.3792 60.5908 63.1916 60.5908 62.8165C60.5908 62.2414 60.6153 61.6786 60.5908 61.1036C60.5664 60.7243 60.7009 60.6387 61.0557 60.6632C61.4106 60.6876 61.7654 60.6509 62.1079 60.6754C62.4016 60.6999 62.4994 60.5775 62.4627 60.3083C62.4627 60.2227 62.4627 60.1493 62.4627 60.0637C61.9733 60.0637 61.484 60.0269 60.9946 60.0637H60.9823Z" fill="#5F7C95"/>
<path d="M74.4406 57.8003C73.5597 57.8125 72.6788 57.8003 71.7979 57.8003C71.5655 57.8003 71.4309 57.8247 71.4187 58.1184C71.4187 58.4242 71.5655 58.4487 71.7857 58.4365C71.9692 58.4365 72.165 58.4487 72.3607 58.4365C72.7033 58.3998 72.8012 58.5343 72.8012 58.8769C72.7889 60.2717 72.8012 61.6664 72.8012 63.0612C72.8012 63.2814 72.8256 63.416 73.107 63.4037C73.364 63.4037 73.4251 63.3059 73.4251 63.0734C73.4251 62.3638 73.4251 61.6664 73.4251 60.9568C73.4251 60.2227 73.4251 59.4886 73.4251 58.7546C73.4251 58.5099 73.4985 58.412 73.7555 58.4242C74.0002 58.4487 74.2449 58.412 74.4896 58.4242C74.7465 58.4487 74.8077 58.3508 74.8077 58.1061C74.8077 57.8492 74.7098 57.788 74.4651 57.788L74.4406 57.8003Z" fill="#5F7C95"/>
<path d="M141.083 62.8042C140.838 62.8042 140.593 62.7798 140.349 62.8042C139.933 62.8654 139.859 62.6819 139.871 62.3026C139.896 60.9201 139.871 59.5376 139.884 58.1551C139.884 57.8737 139.81 57.7758 139.517 57.788C139.223 57.8002 139.235 57.9838 139.235 58.1795C139.235 58.9992 139.235 59.8067 139.235 60.6265C139.235 61.4217 139.235 62.2292 139.235 63.0244C139.235 63.3058 139.321 63.4037 139.614 63.3915C140.104 63.367 140.593 63.3792 141.083 63.3915C141.327 63.3915 141.413 63.3181 141.425 63.0734C141.425 62.8042 141.291 62.792 141.095 62.8042H141.083Z" fill="#5F7C95"/>
<path d="M136.238 60.5775C136.238 59.77 136.238 58.9503 136.238 58.1428C136.238 57.9226 136.214 57.788 135.932 57.788C135.651 57.788 135.626 57.9104 135.626 58.1306C135.626 59.77 135.626 61.4095 135.626 63.0489C135.626 63.2691 135.651 63.3915 135.932 63.3915C136.201 63.3915 136.238 63.2691 136.238 63.0489C136.238 62.2292 136.238 61.3972 136.238 60.5775Z" fill="#5F7C95"/>
<path d="M79.4936 62.8286C79.2489 62.8286 79.0042 62.8286 78.7595 62.8286C79.0042 63.0978 79.2489 63.0489 79.4936 62.8286Z" fill="#5F7C95"/>
</svg>
