<svg width="168" height="84" viewBox="0 0 168 84" fill="none" xmlns="http://www.w3.org/2000/svg">
<path d="M101.975 44.1439C101.847 44.2083 101.573 44.3855 101.492 44.466C102.265 44.7881 102.217 45.7545 102.217 46.2377H102.861C102.861 44.7881 102.324 44.305 101.975 44.1439Z" fill="#5F7C95"/>
<path d="M101.329 40.6812C101.135 40.6168 100.98 40.4397 100.926 40.3591C99.3798 41.9697 100.282 43.446 100.926 43.9829C101.055 43.8541 101.329 43.7145 101.409 43.6608C100.185 42.5012 100.524 41.4865 101.329 40.6812Z" fill="#5F7C95"/>
<path d="M100.686 38.0238H99.9609C99.9609 39.4411 100.927 40.3323 101.41 40.6007C101.679 40.7618 102.216 41.3094 102.216 42.2113C102.216 43.1132 101.813 43.5534 101.572 43.6608C100.122 44.3855 99.9878 45.6471 99.9609 46.2377H100.605C100.525 44.8687 101.33 44.5466 102.135 43.9024C102.94 43.2581 103.343 41.2449 101.894 40.1981C100.734 39.3606 100.605 38.3996 100.686 38.0238Z" fill="#5F7C95"/>
<path d="M97.2244 43.1776H93.7617L92.7148 44.7076H97.3855L97.2244 43.1776Z" fill="#5F7C95"/>
<path d="M94.405 38.1848L90.7812 46.3182H92.4723L95.2103 39.7954L97.9483 46.3182H99.7199L96.0156 38.1848H94.405Z" fill="#5F7C95"/>
<path d="M84.7461 42.4529H86.9204V43.9829H84.7461V42.4529Z" fill="#5F7C95"/>
<path d="M83.377 38.0238V46.3182H84.9875L84.907 39.4733H87.1618C87.5913 39.5002 88.4502 39.8276 88.4502 40.9228C88.4502 42.018 87.4302 42.3992 86.9202 42.4529V43.9829L88.2892 46.3182H89.9803L88.2086 43.5802C89.5615 43.0649 89.9534 41.6476 89.9803 41.0033C90.1091 38.9418 88.7455 38.1043 88.0476 38.0238H83.377Z" fill="#5F7C95"/>
<path fill-rule="evenodd" clip-rule="evenodd" d="M84.4997 73.2951C102.757 73.2951 117.516 59.212 117.516 41.8892C117.516 24.5663 102.757 10.4832 84.4997 10.4832C66.2425 10.4832 51.4832 24.5663 51.4832 41.8892C51.4832 59.212 66.2425 73.2951 84.4997 73.2951ZM84.4997 73.7783C103.001 73.7783 117.999 59.501 117.999 41.8892C117.999 24.2773 103.001 10 84.4997 10C65.9983 10 51 24.2773 51 41.8892C51 59.501 65.9983 73.7783 84.4997 73.7783Z" fill="#5F7C95"/>
<path d="M66.3012 39.1512L65.4959 40.1981C61.5017 38.1365 59.9844 40.8196 60.1005 42.3723C60.3421 45.6045 63.6437 45.1908 65.0127 44.4661V42.3723H66.3012V45.3519C64.7711 46.2377 61.2121 47.4456 59.5371 44.8687C57.8621 42.2918 58.9194 40.1712 59.6173 39.4733C62.2587 37.0897 65.1738 38.2654 66.3012 39.1512Z" fill="#5F7C95"/>
<path d="M69.1958 43.7412H72.6585L73.2221 42.5333H69.0347C68.5838 43.1776 68.9542 43.607 69.1958 43.7412Z" fill="#5F7C95"/>
<path d="M72.6599 44.466C70.5339 46.0122 69.4656 44.6271 69.1972 43.7413C69.036 41.0033 70.0023 41.1644 71.4518 41.1644C72.6599 41.1644 72.6599 42.8555 72.6599 43.7413H73.9482L73.9479 42.2112C74.0284 40.6812 71.8541 39.0706 69.4383 40.037C67.5056 40.8101 67.3446 42.3723 67.5867 43.8218C68.3915 47.365 72.4178 46.8819 73.6263 45.4324L72.6599 44.466Z" fill="#5F7C95"/>
<path d="M75.2383 39.8759V46.0766V46.3182H76.8488V44.1439C76.8488 42.2918 76.7981 41.5772 78.0568 41.3254C79.2647 41.0839 79.9089 41.6476 79.9894 42.3723V46.3182H81.6V42.8555C81.6644 41.6959 81.2511 41.0302 81.0363 40.8423C79.1681 38.974 77.4662 40.1712 76.8488 41.0033V39.8759H75.2383Z" fill="#5F7C95"/>
<path d="M106.161 39.4733V46.1571H107.691L107.771 39.4733H110.429V37.9432H103.584V39.4733H106.161Z" fill="#5F7C95"/>
<path d="M102.7 36.4132C102.7 37.0358 102.195 37.5406 101.573 37.5406C100.95 37.5406 100.445 37.0358 100.445 36.4132C100.445 35.7905 100.95 35.2858 101.573 35.2858C102.195 35.2858 102.7 35.7905 102.7 36.4132Z" fill="#5F7C95"/>
<path d="M102.991 38.0238H102.296C102.377 39.3928 101.491 39.7149 101.572 39.7954C101.636 39.8598 101.921 40.0907 102.055 40.1981C102.957 39.3606 103.055 38.3996 102.991 38.0238Z" fill="#5F7C95"/>
<path d="M102.055 38.8291C102.055 39.007 101.803 39.1512 101.491 39.1512C101.18 39.1512 100.928 39.007 100.928 38.8291C100.928 38.6512 101.18 38.507 101.491 38.507C101.803 38.507 102.055 38.6512 102.055 38.8291Z" fill="#5F7C95"/>
<path d="M102.055 45.5935C102.055 45.7714 101.803 45.9156 101.491 45.9156C101.18 45.9156 100.928 45.7714 100.928 45.5935C100.928 45.4156 101.18 45.2714 101.491 45.2714C101.803 45.2714 102.055 45.4156 102.055 45.5935Z" fill="#5F7C95"/>
<path d="M101.894 41.4866C101.894 41.62 101.678 41.7282 101.411 41.7282C101.144 41.7282 100.928 41.62 100.928 41.4866C100.928 41.3532 101.144 41.245 101.411 41.245C101.678 41.245 101.894 41.3532 101.894 41.4866Z" fill="#5F7C95"/>
<path d="M101.894 42.775C101.894 42.9085 101.678 43.0166 101.411 43.0166C101.144 43.0166 100.928 42.9085 100.928 42.775C100.928 42.6416 101.144 42.5334 101.411 42.5334C101.678 42.5334 101.894 42.6416 101.894 42.775Z" fill="#5F7C95"/>
<path d="M102.056 42.1307C102.056 42.2642 101.768 42.3723 101.412 42.3723C101.056 42.3723 100.768 42.2642 100.768 42.1307C100.768 41.9973 101.056 41.8892 101.412 41.8892C101.768 41.8892 102.056 41.9973 102.056 42.1307Z" fill="#5F7C95"/>
</svg>
