<svg width="168" height="84" viewBox="0 0 168 84" fill="none" xmlns="http://www.w3.org/2000/svg">
<path d="M57.8676 43.7943H59.8251V48.221C58.6203 49.1296 56.8133 49.7518 55.1904 49.7518C51.6935 49.7518 49 47.1435 49 43.7605C49 40.3775 51.7438 37.8024 55.3242 37.8024C57.0142 37.8024 58.7373 38.4589 59.9085 39.4852L58.6371 41.1348C57.7515 40.31 56.5122 39.805 55.3242 39.805C53.0656 39.805 51.2922 41.5399 51.2922 43.7605C51.2922 45.9994 53.0824 47.7329 55.341 47.7329C56.144 47.7329 57.0655 47.4463 57.8676 46.992V43.7943Z" fill="#5F7C95"/>
<path d="M70.3488 45.915H63.7402C64.0246 47.1941 64.995 47.9682 66.3 47.9682C66.7485 47.9722 67.1931 47.8848 67.6071 47.7113C68.0211 47.5379 68.3961 47.2818 68.7091 46.9587L69.8804 48.1871C68.9948 49.1634 67.6899 49.7345 66.1159 49.7345C63.3385 49.7345 61.5152 47.8829 61.5152 45.1732C61.5152 42.4293 63.3888 40.5782 66.066 40.5782C69.2111 40.5796 70.5665 42.6497 70.3488 45.915ZM68.3744 44.4507C68.3246 43.1209 67.4377 42.2793 66.0828 42.2793C64.7941 42.2793 63.8922 43.1233 63.6899 44.4507H68.3744Z" fill="#5F7C95"/>
<path d="M80.9409 44.0316V49.6515H78.7503V44.6692C78.7503 43.407 77.9972 42.6329 76.7593 42.6329C75.2869 42.6498 74.4172 43.7437 74.4172 45.2249V49.6515H72.2411V40.6491H74.4163V42.3323C75.052 41.1348 76.1739 40.5797 77.6285 40.5618C79.6863 40.5618 80.9409 41.8925 80.9409 44.0316Z" fill="#5F7C95"/>
<path d="M90.3659 49.6515L88.3418 46.1673C88.2024 46.1817 88.0623 46.1873 87.9223 46.1842H85.7084V49.6515H83.4666V37.8695H87.9232C90.9528 37.8695 92.6749 39.3338 92.6749 41.9258C92.6749 43.7774 91.855 45.1072 90.3492 45.7467L92.9256 49.6515H90.3659ZM85.7084 44.198H87.9232C89.5964 44.198 90.5333 43.4745 90.5333 41.9943C90.5333 40.5468 89.5964 39.8398 87.9232 39.8398H85.7084V44.198Z" fill="#5F7C95"/>
<path d="M102.763 47.1604H97.0416L96.0042 49.6515H93.6784L98.8151 37.8695H101.14L106.21 49.6515H103.801L102.763 47.1604ZM101.96 45.2248L99.9192 40.2763L97.8452 45.2248H101.96Z" fill="#5F7C95"/>
<path d="M120.999 37.8695V39.8726H117.351V49.6515H115.093V39.8726H111.445V37.8695H120.999Z" fill="#5F7C95"/>
<path d="M109.332 44.1666C109.349 44.0322 109.357 43.8969 109.358 43.7615C109.357 43.6273 109.349 43.4932 109.332 43.3601C109.332 43.3493 109.332 43.3409 109.328 43.3301H107.743C107.707 43.6163 107.707 43.9061 107.743 44.1924H109.328C109.33 44.1839 109.33 44.1755 109.332 44.1666Z" fill="#5F7C95"/>
<path d="M109.249 42.9807C109.176 42.7164 109.068 42.4633 108.927 42.2282C108.906 42.1916 108.881 42.155 108.861 42.1184H108.175C108.013 42.3866 107.891 42.6771 107.813 42.9807H109.249Z" fill="#5F7C95"/>
<path d="M108.927 45.2942C109.069 45.0597 109.176 44.8064 109.247 44.5416H107.813C107.892 44.8452 108.014 45.1358 108.175 45.4044H108.859C108.883 45.3697 108.904 45.3331 108.927 45.2942Z" fill="#5F7C95"/>
<path d="M108.029 38.6492C108.099 38.9143 108.205 39.1683 108.344 39.4037C108.364 39.4407 108.387 39.4749 108.411 39.5115H109.347C109.504 39.2423 109.622 38.9519 109.697 38.6492H108.029Z" fill="#5F7C95"/>
<path d="M108.413 48.0091C108.392 48.0456 108.366 48.0798 108.344 48.1187C108.205 48.3536 108.099 48.6068 108.029 48.8713H109.697C109.622 48.568 109.504 48.2776 109.345 48.0091H108.413Z" fill="#5F7C95"/>
<path d="M108.399 45.9713C108.431 45.9389 108.465 45.9047 108.504 45.8634C108.383 45.7191 108.274 45.5657 108.177 45.4044C108.016 45.1358 107.894 44.8453 107.815 44.5417C107.785 44.4296 107.764 44.3133 107.744 44.1924C107.708 43.9061 107.708 43.6163 107.744 43.3301C107.761 43.2123 107.785 43.0957 107.815 42.9808C107.894 42.6771 108.016 42.3866 108.177 42.1185C108.275 41.9569 108.384 41.8027 108.504 41.6571C108.467 41.6159 108.433 41.5816 108.401 41.5493L108.152 41.3617C108.109 41.3294 107.996 41.2408 107.847 41.1029C107.385 41.6548 106.862 42.5494 106.862 43.7615C106.862 44.9735 107.385 45.8658 107.847 46.4177C107.972 46.3014 108.081 46.2151 108.154 46.157L108.399 45.9713Z" fill="#5F7C95"/>
<path d="M109.352 46.8401C109.218 46.9786 109.075 47.1069 108.923 47.2241L108.814 47.308C109.019 47.5186 109.198 47.7541 109.345 48.0091C109.504 48.2776 109.622 48.568 109.697 48.8713C109.757 49.1167 109.787 49.3687 109.787 49.6215H110.644C110.644 48.2261 109.954 47.2518 109.455 46.7341C109.418 46.7712 109.384 46.8078 109.352 46.8401Z" fill="#5F7C95"/>
<path d="M108.927 40.3007C109.078 40.416 109.22 40.5414 109.354 40.6758C109.386 40.7105 109.421 40.7447 109.459 40.786C109.954 40.2702 110.646 39.2959 110.646 37.8986H109.789C109.789 38.1515 109.759 38.4034 109.699 38.6488C109.624 38.9515 109.506 39.2419 109.35 39.5111C109.201 39.7673 109.021 40.0036 108.814 40.2144L108.927 40.3007Z" fill="#5F7C95"/>
<path d="M110.428 43.7615C110.428 45.0983 109.791 46.0492 109.3 46.5813C109.266 46.6184 109.232 46.6549 109.197 46.6892C109.071 46.8191 108.935 46.9402 108.793 47.0516L108.642 47.166L108.535 47.2457C108.305 47.4721 108.106 47.7288 107.944 48.0091C107.785 48.2775 107.665 48.5681 107.59 48.8714C107.53 49.1168 107.5 49.3687 107.5 49.6215H106.642C106.642 48.1877 107.376 47.1979 107.873 46.691C107.912 46.6526 107.948 46.6156 107.984 46.5832C108.078 46.494 108.176 46.4098 108.278 46.331L108.535 46.1373C108.569 46.1049 108.606 46.0679 108.642 46.0271C108.821 45.8379 108.978 45.6297 109.112 45.4063C109.272 45.1377 109.394 44.8471 109.472 44.5436C109.501 44.4285 109.525 44.3119 109.542 44.1943V44.1816C109.544 44.1773 109.544 44.1728 109.542 44.1685C109.551 44.0995 109.557 44.0306 109.561 43.9617C109.566 43.8928 109.568 43.83 109.568 43.7634C109.568 43.6968 109.566 43.6297 109.561 43.565C109.557 43.5003 109.551 43.429 109.542 43.362C109.544 43.352 109.544 43.342 109.542 43.332C109.526 43.2142 109.502 43.0976 109.472 42.9827C109.394 42.6792 109.273 42.3887 109.112 42.1204C108.977 41.8968 108.82 41.688 108.642 41.4973C108.604 41.456 108.569 41.4194 108.535 41.3871L108.278 41.193C108.22 41.1461 108.115 41.0659 107.982 40.9407C107.948 40.9065 107.912 40.8718 107.873 40.8333C107.376 40.3284 106.642 39.339 106.642 37.9028H107.5C107.5 38.1556 107.53 38.4076 107.59 38.653C107.665 38.9561 107.783 39.2466 107.941 39.5153C108.104 39.7967 108.303 40.0543 108.535 40.281L108.642 40.3626L108.793 40.4751C108.936 40.5854 109.071 40.7057 109.197 40.8352C109.232 40.8694 109.266 40.906 109.302 40.9426C109.792 41.4715 110.428 42.4224 110.428 43.7615Z" fill="#5F7C95"/>
<path d="M109.215 37.0295C110.035 36.8348 110.543 36.008 110.35 35.1828C110.156 34.3577 109.334 33.8466 108.514 34.0414C107.694 34.2362 107.186 35.0629 107.379 35.8881C107.573 36.7132 108.395 37.2243 109.215 37.0295Z" fill="#5F7C95"/>
</svg>
