<svg width="168" height="84" viewBox="0 0 168 84" fill="none" xmlns="http://www.w3.org/2000/svg">
<path d="M84.5086 77.9975C64.9745 78.0974 48.6821 61.9705 49.0047 41.8637C49.3273 22.7711 65.1205 6.66717 85.1922 7.00523C104.25 7.32792 120.35 23.1168 119.997 43.1929C119.667 62.2932 103.981 78.0513 84.5086 77.9975ZM118.538 42.5398C118.568 23.7852 103.436 8.69552 84.9694 8.46503C65.8733 8.23453 50.6793 23.5778 50.4642 42.0788C50.2491 61.1638 65.589 76.361 84.0938 76.5608C103.19 76.7682 118.553 61.3174 118.53 42.5475L118.538 42.5398Z" fill="#5F7C95"/>
<path d="M109.558 42.5322C109.604 56.3312 98.2278 67.8021 84.0554 67.5716C70.5514 67.3488 59.1981 56.1775 59.4516 42.0098C59.6897 28.5258 70.8586 17.1932 85.0156 17.4544C98.4813 17.708 109.596 28.764 109.55 42.5322H109.558ZM84.524 18.1997C71.1889 18.1382 60.3734 29.0175 60.189 42.1404C59.997 55.7549 71.0199 66.665 84.1707 66.8263C97.7515 66.9877 108.652 55.9931 108.813 42.8319C108.982 29.2096 97.8744 18.1382 84.5163 18.192L84.524 18.1997Z" fill="#5F7C95"/>
<path d="M61.5026 28.8408C61.4949 29.1097 61.2107 29.2865 60.9495 29.1482C60.4425 28.8793 59.9509 28.5873 59.467 28.2876C59.2749 28.1724 59.2442 27.9726 59.3518 27.7882C59.467 27.5885 59.6513 27.5577 59.8434 27.6653C60.335 27.9342 60.8112 28.2185 61.2952 28.4951C61.4258 28.5719 61.5026 28.6795 61.5026 28.8408Z" fill="#5F7C95"/>
<path d="M109.712 57.0534C109.712 57.3223 109.458 57.499 109.205 57.3684C108.69 57.0995 108.183 56.8075 107.684 56.5002C107.499 56.3849 107.453 56.1929 107.568 56.0008C107.684 55.8087 107.876 55.7626 108.068 55.8702C108.567 56.1468 109.059 56.4387 109.55 56.7307C109.673 56.7998 109.719 56.9151 109.712 57.0534Z" fill="#5F7C95"/>
<path d="M63.0542 62.0321C62.8699 62.0321 62.7623 61.9552 62.6855 61.8246C62.6087 61.6863 62.6164 61.5403 62.7239 61.4328C63.1695 61.0179 63.6227 60.6107 64.0836 60.2111C64.2295 60.0805 64.3985 60.142 64.5291 60.2649C64.675 60.3955 64.7058 60.5876 64.5752 60.7106C64.122 61.1485 63.638 61.5711 63.1695 61.9936C63.1387 62.0244 63.0773 62.0244 63.0542 62.0321Z" fill="#5F7C95"/>
<path d="M96.4303 68.7471C96.4457 69.0391 96.3535 69.162 96.1768 69.2235C95.9925 69.2849 95.8311 69.2158 95.7543 69.0545C95.5008 68.5166 95.2627 67.9634 95.0323 67.4179C94.9555 67.2412 95.04 67.0876 95.209 67.0031C95.3703 66.9185 95.57 66.9185 95.6545 67.0799C95.9464 67.6561 96.1999 68.2477 96.4303 68.7471Z" fill="#5F7C95"/>
<path d="M72.5332 16.179C72.5716 15.9869 72.6561 15.8717 72.8174 15.8102C73.0018 15.7411 73.1708 15.7948 73.2476 15.9562C73.5087 16.5094 73.7546 17.0626 73.985 17.6311C74.0541 17.8078 73.962 17.9538 73.793 18.0383C73.6393 18.1152 73.4473 18.1152 73.3782 17.9692C73.0786 17.3853 72.8174 16.7783 72.5409 16.1867L72.5332 16.179Z" fill="#5F7C95"/>
<path d="M106.37 23.3551C106.362 23.4934 106.293 23.5932 106.201 23.6854C105.817 24.0312 105.425 24.3846 105.041 24.7304C104.857 24.8994 104.649 24.9378 104.473 24.738C104.288 24.5383 104.358 24.3462 104.542 24.1772C104.941 23.8237 105.333 23.4626 105.733 23.1015C105.855 22.9863 105.994 22.9479 106.155 23.017C106.293 23.0785 106.362 23.2014 106.378 23.3474L106.37 23.3551Z" fill="#5F7C95"/>
<path d="M90.7076 70.6679C90.7076 70.883 90.6001 71.0213 90.4003 71.0598C90.1853 71.1059 90.024 70.9983 89.9779 70.7755C89.855 70.2223 89.7244 69.6614 89.6168 69.1006C89.5707 68.8777 89.7013 68.7241 89.9087 68.6703C90.1084 68.6165 90.2774 68.7241 90.3235 68.9162C90.4618 69.4924 90.577 70.0763 90.7076 70.6602V70.6679Z" fill="#5F7C95"/>
<path d="M78.3097 14.3811C78.2943 14.1507 78.4019 13.997 78.6169 13.9586C78.8167 13.9202 78.9703 14.02 79.0241 14.2198C79.1546 14.7884 79.2852 15.3569 79.3928 15.9331C79.4312 16.156 79.3006 16.3019 79.0932 16.348C78.8858 16.3941 78.7322 16.2789 78.6861 16.0868C78.5478 15.5183 78.4403 14.9497 78.3174 14.3811H78.3097Z" fill="#5F7C95"/>
<path d="M73.7085 67.3181C73.478 67.8251 73.2322 68.3937 72.9557 68.9546C72.8635 69.139 72.6561 69.1543 72.4871 69.0698C72.3104 68.9776 72.2336 68.8086 72.3104 68.6165C72.5332 68.0941 72.7713 67.5716 73.0094 67.0492C73.0939 66.8724 73.2399 66.7649 73.4473 66.834C73.6316 66.8955 73.7315 67.0338 73.7085 67.3104V67.3181Z" fill="#5F7C95"/>
<path d="M96.7376 16.2789C96.7145 16.348 96.6992 16.4249 96.6684 16.494C96.461 16.9627 96.2613 17.4237 96.0462 17.8847C95.9464 18.1075 95.7927 18.2919 95.5162 18.1613C95.255 18.0383 95.255 17.8155 95.3626 17.5773C95.5777 17.101 95.7851 16.6246 96.0001 16.1483C96.0846 15.9639 96.2383 15.887 96.438 15.9178C96.6377 15.9485 96.6915 16.1099 96.7376 16.2789Z" fill="#5F7C95"/>
<path d="M104.181 60.7951C104.173 60.6184 104.212 60.5031 104.342 60.434C104.481 60.3571 104.626 60.3494 104.742 60.4493C105.195 60.8488 105.633 61.2484 106.071 61.6633C106.209 61.7939 106.201 61.9706 106.086 62.1166C105.971 62.2625 105.802 62.3317 105.648 62.2164C105.141 61.8323 104.665 61.402 104.227 60.941C104.189 60.9026 104.196 60.8181 104.189 60.8027L104.181 60.7951Z" fill="#5F7C95"/>
<path d="M64.8363 24.2924C64.821 24.5997 64.506 24.7611 64.2526 24.5536C63.7993 24.1772 63.3769 23.77 62.9467 23.3704C62.7931 23.2245 62.8084 23.0401 62.9467 22.8864C63.0696 22.7558 63.2463 22.6943 63.3922 22.8172C63.8608 23.2168 64.3063 23.6317 64.7595 24.0389C64.8287 24.1003 64.8287 24.2002 64.8287 24.2924H64.8363Z" fill="#5F7C95"/>
<path d="M100.601 21.0578C100.286 21.0732 100.064 20.7658 100.225 20.5277C100.548 20.0283 100.916 19.5442 101.277 19.0679C101.4 18.9065 101.592 18.8988 101.761 19.0218C101.93 19.1447 101.976 19.3291 101.861 19.4981C101.531 19.9822 101.177 20.4508 100.832 20.9272C100.77 21.0117 100.67 21.0501 100.609 21.0578H100.601Z" fill="#5F7C95"/>
<path d="M68.823 64.3447C68.823 64.5291 67.7553 65.9966 67.5786 66.058C67.425 66.1118 67.3021 66.0657 67.1946 65.9581C67.0793 65.8352 67.0486 65.6739 67.1485 65.5356C67.4941 65.0438 67.8475 64.5598 68.2085 64.0835C68.3084 63.9528 68.4697 63.9298 68.631 64.0066C68.7693 64.0758 68.8307 64.1987 68.8307 64.3524L68.823 64.3447Z" fill="#5F7C95"/>
<path d="M90.9841 14.5732C90.8843 15.0188 90.7767 15.5797 90.6385 16.1329C90.5847 16.3404 90.4311 16.4556 90.2083 16.3941C89.9932 16.3403 89.8857 16.1867 89.9241 15.9639C90.0316 15.4184 90.1622 14.8729 90.2774 14.3274C90.3312 14.0892 90.4772 13.9663 90.7153 14.02C90.9457 14.0661 91.0072 14.2429 90.9765 14.5655L90.9841 14.5732Z" fill="#5F7C95"/>
<path d="M108.045 29.4785C107.891 29.4555 107.753 29.394 107.691 29.2327C107.63 29.0636 107.661 28.91 107.807 28.8255C108.321 28.5181 108.836 28.2108 109.366 27.9265C109.52 27.842 109.696 27.8881 109.804 28.0495C109.904 28.2031 109.919 28.4106 109.773 28.5028C109.235 28.8408 108.675 29.1482 108.129 29.4709C108.106 29.4862 108.083 29.4785 108.052 29.4862L108.045 29.4785Z" fill="#5F7C95"/>
<path d="M59.5208 57.1302C59.3671 57.1379 59.2442 57.0764 59.1828 56.9304C59.1136 56.7768 59.1136 56.6001 59.2519 56.5079C59.7819 56.1775 60.3196 55.8625 60.8727 55.5705C61.034 55.4783 61.1953 55.5782 61.2952 55.7395C61.3874 55.8855 61.3874 56.0622 61.2491 56.1621C60.7267 56.5232 60.166 56.8306 59.5976 57.1225C59.5745 57.1302 59.5438 57.1225 59.5208 57.1302Z" fill="#5F7C95"/>
<path d="M78.0101 70.545C78.133 69.9841 78.2482 69.4309 78.3788 68.8777C78.4249 68.6857 78.5785 68.5781 78.7782 68.6165C78.9933 68.6549 79.1316 68.8009 79.0855 69.0237C78.978 69.6 78.8474 70.1685 78.7168 70.7371C78.663 70.9522 78.5017 71.0521 78.2789 70.9983C78.0562 70.9445 77.9871 70.7678 78.0024 70.5527L78.0101 70.545Z" fill="#5F7C95"/>
<path d="M113.099 46.0511C112.508 45.9819 111.939 45.9205 111.371 45.8513C111.125 45.8206 111.048 45.6516 111.064 45.4441C111.079 45.2367 111.225 45.1291 111.44 45.1445C112.024 45.1983 112.608 45.2444 113.191 45.3135C113.414 45.3442 113.506 45.521 113.468 45.7438C113.437 45.9589 113.276 46.0204 113.099 46.0434V46.0511Z" fill="#5F7C95"/>
<path d="M69.0919 20.5123C69.0612 20.6736 68.992 20.7812 68.8461 20.8504C68.6925 20.9118 68.5465 20.8888 68.462 20.7735C68.101 20.2972 67.7476 19.8131 67.402 19.3137C67.2867 19.1524 67.3251 18.9603 67.4941 18.8374C67.6478 18.7221 67.8321 18.7221 67.9473 18.8604C68.3391 19.3445 68.7155 19.8439 69.0458 20.3817C69.0688 20.4201 69.0765 20.4816 69.0842 20.5123H69.0919Z" fill="#5F7C95"/>
<path d="M100.294 64.1372C100.432 64.1449 100.532 64.2141 100.617 64.3216C100.932 64.7519 101.254 65.1821 101.562 65.6201C101.7 65.8198 101.723 66.035 101.5 66.1886C101.293 66.3269 101.108 66.2424 100.97 66.058C100.655 65.6278 100.333 65.1975 100.033 64.7519C99.8409 64.4676 99.9945 64.1372 100.302 64.1296L100.294 64.1372Z" fill="#5F7C95"/>
<path d="M57.3469 39.8815C56.8553 39.8277 56.356 39.774 55.8644 39.7125C55.6109 39.6818 55.511 39.5204 55.5494 39.2746C55.5878 39.0441 55.7568 38.9596 55.9719 38.9826C56.4942 39.0364 57.0089 39.1132 57.5312 39.1516C57.8078 39.1747 57.9845 39.2899 57.9537 39.5742C57.9307 39.8585 57.7002 39.8892 57.4621 39.8738C57.4237 39.8738 57.3853 39.8738 57.3469 39.8738C57.3469 39.8738 57.3469 39.8738 57.3469 39.8815Z" fill="#5F7C95"/>
<path d="M58.7603 34.3727C58.1688 34.1806 57.5773 33.9962 56.9935 33.7811C56.8246 33.7196 56.7708 33.5429 56.8322 33.3585C56.8937 33.1818 57.032 33.0743 57.2163 33.1127C57.8231 33.251 58.4146 33.4507 58.9907 33.6889C59.1597 33.7581 59.1981 33.9501 59.1367 34.1192C59.0752 34.2805 58.9523 34.3573 58.768 34.365L58.7603 34.3727Z" fill="#5F7C95"/>
<path d="M57.1241 51.6444C56.9167 51.6291 56.7938 51.5445 56.7324 51.3602C56.6709 51.1527 56.7554 50.9914 56.9398 50.9222C57.4928 50.7301 58.0536 50.5457 58.6143 50.3844C58.7987 50.3306 58.9754 50.4074 59.0445 50.6072C59.106 50.7839 59.0599 50.9683 58.8909 51.0375C58.3071 51.2526 57.7156 51.4447 57.1241 51.6444Z" fill="#5F7C95"/>
<path d="M110.426 34.6416C110.134 34.657 110.004 34.5725 109.95 34.3881C109.896 34.2037 109.965 34.0346 110.134 33.9732C110.71 33.7581 111.279 33.5506 111.878 33.4123C112.062 33.3739 112.2 33.4661 112.262 33.6505C112.331 33.8426 112.262 34.0116 112.101 34.0731C111.517 34.2882 110.918 34.4726 110.418 34.6416H110.426Z" fill="#5F7C95"/>
<path d="M110.357 50.684C110.848 50.8454 111.44 51.0298 112.024 51.2449C112.185 51.3064 112.239 51.4831 112.17 51.6675C112.101 51.8442 111.955 51.9518 111.786 51.898C111.202 51.7289 110.618 51.5445 110.05 51.3371C109.881 51.2756 109.827 51.0989 109.873 50.9145C109.927 50.7301 110.065 50.6533 110.365 50.6764L110.357 50.684Z" fill="#5F7C95"/>
<path d="M111.724 40.1812C111.601 40.1812 111.524 40.1812 111.448 40.1812C111.24 40.1812 111.11 40.0736 111.087 39.8662C111.064 39.6587 111.171 39.5051 111.378 39.482C111.962 39.4052 112.538 39.336 113.122 39.2899C113.337 39.2746 113.491 39.4129 113.506 39.6357C113.522 39.8585 113.383 39.9891 113.161 40.0198C112.669 40.0813 112.177 40.1351 111.724 40.1889V40.1812Z" fill="#5F7C95"/>
<path d="M55.872 45.7438C55.68 45.7284 55.5264 45.6285 55.5033 45.4057C55.4726 45.1829 55.6032 45.0369 55.826 45.0062C56.379 44.9447 56.9398 44.8909 57.5005 44.8372C57.7386 44.8141 57.9076 44.914 57.923 45.1675C57.9384 45.398 57.8001 45.521 57.5773 45.544C57.0243 45.6055 56.4635 45.6669 55.8797 45.7361L55.872 45.7438Z" fill="#5F7C95"/>
<path d="M84.7084 70.4758C84.7084 70.7447 84.7084 71.0137 84.7084 71.2749C84.7084 71.5054 84.5854 71.636 84.355 71.6437C84.1322 71.6437 84.0017 71.5207 84.0017 71.2826C84.0017 70.7217 84.0017 70.1608 84.0017 69.6C84.0017 69.3695 84.1169 69.2388 84.3473 69.2388C84.5778 69.2388 84.7007 69.3695 84.7007 69.5923C84.7007 69.8842 84.7007 70.1762 84.7007 70.4682L84.7084 70.4758Z" fill="#5F7C95"/>
<path d="M85.0156 14.604C85.0156 14.8575 85.0156 15.111 85.0156 15.3646C85.0156 15.6028 84.9311 15.7641 84.6699 15.7718C84.4165 15.7718 84.3012 15.6335 84.3012 15.3876C84.3012 14.8421 84.3012 14.2966 84.3012 13.7434C84.3012 13.5206 84.4165 13.3747 84.6469 13.367C84.8927 13.367 85.0156 13.5053 85.0156 13.7511C85.0156 14.0277 85.0156 14.312 85.0156 14.5886V14.604Z" fill="#5F7C95"/>
<path d="M115.626 43.047C115.626 42.8395 115.619 42.6398 115.626 42.4323C115.642 42.2095 115.765 42.0866 115.995 42.0789C116.218 42.0789 116.348 42.2095 116.356 42.4016C116.379 42.8242 116.371 43.2391 116.341 43.6616C116.325 43.8691 116.179 44.0151 115.949 43.9997C115.719 43.9843 115.611 43.846 115.611 43.6232C115.611 43.4311 115.611 43.2391 115.611 43.047C115.611 43.047 115.611 43.047 115.619 43.047H115.626Z" fill="#5F7C95"/>
<path d="M97.9589 13.6282C98.3276 13.7895 98.7501 13.9432 99.1265 14.2198C99.2725 14.3274 99.3032 14.4964 99.1956 14.6654C99.0958 14.8268 98.9345 14.9036 98.7732 14.8345C98.3891 14.6654 98.0127 14.481 97.6517 14.2813C97.4904 14.1891 97.4673 14.0047 97.5364 13.8356C97.5979 13.682 97.7285 13.6051 97.9666 13.6359L97.9589 13.6282Z" fill="#5F7C95"/>
<path d="M115.388 50.4382C115.288 50.7839 115.173 51.1988 115.027 51.606C114.966 51.775 114.804 51.8442 114.62 51.7904C114.42 51.7289 114.313 51.583 114.351 51.3909C114.443 50.999 114.559 50.6072 114.682 50.2154C114.743 50.0079 114.92 49.9618 115.112 50.0079C115.296 50.0463 115.381 50.1846 115.388 50.4459V50.4382Z" fill="#5F7C95"/>
<path d="M53.3832 41.9867C53.3832 42.1788 53.3909 42.3709 53.3832 42.5553C53.3756 42.7627 53.245 42.8933 53.0529 42.9087C52.8302 42.9241 52.6689 42.7858 52.6612 42.5783C52.6381 42.1711 52.6612 41.7639 52.6842 41.3567C52.6996 41.1646 52.8302 41.0263 53.0453 41.034C53.268 41.0494 53.3909 41.18 53.3986 41.4028C53.3986 41.5949 53.3986 41.787 53.3986 41.9713C53.3986 41.9713 53.3986 41.9713 53.3909 41.9713L53.3832 41.9867Z" fill="#5F7C95"/>
<path d="M112.577 28.6488C112.446 28.6257 112.323 28.5642 112.254 28.4259C112.093 28.1109 111.924 27.7959 111.763 27.4809C111.647 27.2658 111.693 27.0814 111.909 26.9585C112.116 26.8432 112.285 26.9277 112.392 27.1121C112.584 27.4425 112.769 27.7729 112.93 28.1186C113.053 28.3875 112.861 28.6641 112.577 28.6488Z" fill="#5F7C95"/>
<path d="M70.175 70.1685C70.5514 70.3299 71.0046 70.4989 71.3887 70.7908C71.5192 70.8907 71.5269 71.0598 71.4271 71.2057C71.3272 71.3594 71.1736 71.4362 71.0046 71.3594C70.6359 71.1981 70.2672 71.0213 69.9138 70.8293C69.7525 70.7447 69.6987 70.5757 69.7602 70.399C69.8139 70.2377 69.9369 70.1531 70.1827 70.1608L70.175 70.1685Z" fill="#5F7C95"/>
<path d="M115.642 35.6481C115.642 35.8786 115.534 36.0323 115.319 36.0707C115.089 36.1168 114.95 35.9862 114.897 35.7787C114.797 35.4099 114.705 35.0411 114.635 34.6724C114.597 34.4726 114.689 34.3189 114.897 34.2651C115.089 34.219 115.265 34.2651 115.327 34.4726C115.442 34.8567 115.534 35.2563 115.642 35.6481Z" fill="#5F7C95"/>
<path d="M89.4171 74.0101C89.1329 74.0178 88.9639 73.9102 88.9409 73.6797C88.9178 73.4569 89.0561 73.3186 89.2635 73.2802C89.6091 73.211 89.9625 73.1573 90.3158 73.1035C90.5463 73.0727 90.723 73.1573 90.7767 73.3954C90.8305 73.649 90.6769 73.7873 90.4618 73.8334C90.1008 73.9102 89.7397 73.964 89.4248 74.0178L89.4171 74.0101Z" fill="#5F7C95"/>
<path d="M101.738 69.1159C101.738 69.4079 100.571 70.1531 100.294 70.0379C100.033 69.9303 99.9484 69.5846 100.187 69.4232C100.532 69.1697 100.909 68.9546 101.293 68.7625C101.523 68.6472 101.746 68.8547 101.738 69.1159Z" fill="#5F7C95"/>
<path d="M54.8504 30.8846C54.9733 30.5004 55.1269 30.0548 55.3804 29.6553C55.4649 29.5246 55.6339 29.4862 55.7952 29.5631C55.9719 29.6476 56.0641 29.8012 56.0026 29.9703C55.8567 30.3775 55.6877 30.777 55.5033 31.1611C55.4342 31.3071 55.2729 31.3532 55.1039 31.2918C54.9426 31.238 54.8504 31.1304 54.8581 30.8846H54.8504Z" fill="#5F7C95"/>
<path d="M78.663 11.9379C78.3711 11.9379 78.2329 11.8457 78.1945 11.6459C78.1637 11.4462 78.2559 11.2848 78.4479 11.2387C78.8397 11.1542 79.2391 11.0774 79.6463 11.0236C79.846 11.0006 79.9842 11.1158 80.0226 11.3233C80.0534 11.523 79.9766 11.692 79.7768 11.7305C79.3851 11.815 78.978 11.8764 78.663 11.9379Z" fill="#5F7C95"/>
<path d="M96.9296 71.8588C96.7145 71.8281 96.5993 71.7512 96.5455 71.5899C96.4918 71.4285 96.5378 71.2672 96.6838 71.1904C97.0679 70.9983 97.4596 70.8216 97.8591 70.6602C98.0127 70.5988 98.1663 70.6833 98.2431 70.8369C98.3123 70.9829 98.3353 71.1596 98.1971 71.2595C97.8053 71.5438 97.3367 71.6898 96.9373 71.8588H96.9296Z" fill="#5F7C95"/>
<path d="M116.218 39.3821C116.249 39.7509 116.172 39.9584 115.88 39.9814C115.603 40.0045 115.503 39.8047 115.48 39.5665C115.442 39.2285 115.411 38.8827 115.381 38.5447C115.357 38.3218 115.457 38.1605 115.68 38.1298C115.918 38.0914 116.072 38.2373 116.11 38.4678C116.164 38.8059 116.187 39.1439 116.218 39.3821Z" fill="#5F7C95"/>
<path d="M53.775 37.5919C53.7212 37.93 53.6751 38.2681 53.6291 38.6061C53.5983 38.852 53.4601 38.9672 53.2143 38.9442C52.9531 38.9211 52.8763 38.7367 52.8916 38.5139C52.9224 38.1759 52.9761 37.8378 53.0299 37.4997C53.0683 37.2616 53.1989 37.0849 53.4601 37.1156C53.7366 37.1463 53.798 37.3461 53.775 37.5919Z" fill="#5F7C95"/>
<path d="M82.2733 74.3097C81.9968 74.2867 81.7203 74.2559 81.436 74.2329C81.1979 74.2098 81.0443 74.0715 81.0597 73.841C81.075 73.5875 81.2517 73.4646 81.5129 73.4876C81.8124 73.5107 82.1197 73.5414 82.4193 73.5568C82.6881 73.5721 82.9263 73.6566 82.9109 73.964C82.8955 74.2713 82.6574 74.3404 82.3809 74.3097C82.3425 74.3097 82.3041 74.3097 82.2656 74.3097H82.2733Z" fill="#5F7C95"/>
<path d="M114.536 31.8757C114.528 32.0831 114.451 32.2214 114.259 32.2675C114.082 32.3059 113.913 32.2675 113.844 32.0908C113.691 31.7143 113.545 31.3379 113.414 30.9537C113.353 30.777 113.429 30.6233 113.598 30.5388C113.76 30.4697 113.952 30.462 114.044 30.631C114.267 31.0305 114.397 31.4685 114.536 31.8834V31.8757Z" fill="#5F7C95"/>
<path d="M54.474 53.1503C54.474 52.9198 54.5431 52.7815 54.7275 52.7278C54.9119 52.6663 55.0732 52.7278 55.15 52.8968C55.319 53.2809 55.4649 53.6728 55.5955 54.0723C55.657 54.2567 55.5341 54.3873 55.3804 54.4718C55.2038 54.564 55.0348 54.5102 54.9503 54.3566C54.7352 53.9724 54.6046 53.5422 54.4817 53.158L54.474 53.1503Z" fill="#5F7C95"/>
<path d="M86.7209 10.7086C86.9821 10.7317 87.2586 10.7547 87.5351 10.7854C87.781 10.8162 87.9423 10.9314 87.9192 11.208C87.8885 11.4615 87.7118 11.5461 87.4814 11.5307C87.1664 11.5153 86.8515 11.4846 86.5366 11.4539C86.2907 11.4308 86.068 11.3694 86.0833 11.062C86.0987 10.7317 86.3292 10.6856 86.598 10.7009C86.6364 10.7009 86.6748 10.7009 86.7286 10.7009L86.7209 10.7086Z" fill="#5F7C95"/>
<path d="M56.9014 58.0599C56.7554 58.0752 56.6479 57.9907 56.5787 57.8601C56.4098 57.5451 56.2408 57.2301 56.0718 56.9151C55.9565 56.6999 56.0026 56.5002 56.2254 56.4003C56.4328 56.3004 56.6248 56.3619 56.7401 56.5847C56.909 56.8997 57.078 57.2147 57.2317 57.5374C57.3623 57.8217 57.2086 58.0675 56.9014 58.0675V58.0599Z" fill="#5F7C95"/>
<path d="M111.54 59.0356C111.263 59.0356 111.087 58.759 111.225 58.4901C111.394 58.1521 111.594 57.8217 111.793 57.499C111.893 57.33 112.054 57.2608 112.254 57.3453C112.446 57.4298 112.531 57.6066 112.454 57.7833C112.277 58.1905 112.062 58.5823 111.786 58.9281C111.732 58.9972 111.64 59.0356 111.547 59.0279L111.54 59.0356Z" fill="#5F7C95"/>
<path d="M104.949 66.7802C104.949 66.8724 104.918 66.9646 104.849 67.0184C104.527 67.2873 104.204 67.5562 103.874 67.8021C103.705 67.925 103.52 67.8559 103.405 67.6945C103.29 67.5332 103.298 67.3411 103.451 67.2105C103.751 66.957 104.05 66.7034 104.381 66.4806C104.642 66.3039 104.957 66.4806 104.949 66.7726V66.7802Z" fill="#5F7C95"/>
<path d="M108.552 21.7339C108.552 21.8876 108.483 22.0028 108.344 22.0797C108.221 22.1488 108.091 22.1488 107.991 22.0566C107.668 21.7493 107.361 21.4266 107.108 21.0655C107.008 20.9272 107.061 20.7658 107.184 20.6506C107.307 20.5277 107.461 20.4816 107.599 20.5968C107.96 20.8965 108.275 21.2422 108.536 21.634C108.559 21.6648 108.552 21.7032 108.559 21.7416L108.552 21.7339Z" fill="#5F7C95"/>
<path d="M64.8133 66.7726C64.8056 67.0876 64.4984 67.272 64.2679 67.1029C63.9299 66.8571 63.615 66.5728 63.3077 66.2885C63.1695 66.1656 63.1771 65.9889 63.3 65.8352C63.3999 65.7046 63.5535 65.6201 63.6995 65.7123C64.0912 65.9658 64.4446 66.2732 64.7672 66.6189C64.8056 66.6573 64.8056 66.7341 64.8133 66.7649V66.7726Z" fill="#5F7C95"/>
<path d="M115.235 47.4417C115.281 47.1191 115.327 46.7503 115.388 46.3892C115.427 46.1817 115.58 46.0818 115.78 46.0972C116.003 46.1202 116.133 46.2662 116.118 46.489C116.087 46.8578 116.026 47.2266 115.964 47.5877C115.926 47.8182 115.795 47.9642 115.542 47.9258C115.281 47.8951 115.212 47.7183 115.235 47.4417Z" fill="#5F7C95"/>
<path d="M52.7841 45.5363C52.761 45.2751 52.7841 45.0216 53.1221 45.0062C53.4447 44.9908 53.5138 45.229 53.5369 45.4902C53.5599 45.7976 53.5983 46.0972 53.6214 46.4045C53.6444 46.6427 53.5522 46.8117 53.2987 46.8348C53.0529 46.8578 52.9147 46.7118 52.8839 46.4814C52.8379 46.1663 52.8148 45.8437 52.7841 45.5286V45.5363Z" fill="#5F7C95"/>
<path d="M82.6267 11.4462C82.3501 11.4846 82.1197 11.3924 82.1043 11.0928C82.0967 10.7854 82.3348 10.7086 82.6036 10.7086C82.8955 10.7086 83.1874 10.6702 83.4793 10.6625C83.7405 10.6548 83.9556 10.747 83.9633 11.0313C83.9709 11.3233 83.7635 11.4078 83.4947 11.4078C83.2028 11.4078 82.9109 11.4385 82.619 11.4539L82.6267 11.4462Z" fill="#5F7C95"/>
<path d="M74.7224 72.8499C74.3383 72.7116 73.9389 72.5887 73.5472 72.435C73.3705 72.3582 73.3013 72.1738 73.3858 71.9817C73.4627 71.7973 73.624 71.7051 73.816 71.7666C74.1924 71.8819 74.5688 72.0048 74.9298 72.1508C75.1065 72.2199 75.2064 72.3736 75.1449 72.581C75.0834 72.7808 74.9375 72.8576 74.7224 72.8499Z" fill="#5F7C95"/>
<path d="M56.5403 27.2735C56.7324 26.8893 56.9167 26.4283 57.2701 26.0749C57.3853 25.9597 57.562 25.9904 57.6849 26.098C57.8078 26.2055 57.8692 26.3592 57.7847 26.5052C57.585 26.874 57.3776 27.2351 57.1625 27.5885C57.078 27.7268 56.9167 27.7652 56.7554 27.696C56.6018 27.6269 56.525 27.504 56.5403 27.2658V27.2735Z" fill="#5F7C95"/>
<path d="M91.4143 12.153C91.0149 12.0685 90.6154 11.9994 90.2237 11.8995C90.0239 11.8457 89.9548 11.669 90.0086 11.4692C90.0623 11.2772 90.2083 11.1542 90.408 11.185C90.7921 11.2464 91.1762 11.3309 91.5602 11.4308C91.7523 11.4769 91.8598 11.6306 91.8291 11.838C91.7907 12.0608 91.6371 12.153 91.422 12.153H91.4143Z" fill="#5F7C95"/>
<path d="M62.6778 20.205C62.6625 20.2434 62.6548 20.3279 62.6087 20.3817C62.3245 20.689 62.0326 20.9887 61.733 21.2806C61.5948 21.4112 61.4258 21.3805 61.2875 21.2499C61.1492 21.1193 61.0955 20.9579 61.2107 20.8043C61.4795 20.4508 61.7791 20.1205 62.1401 19.8516C62.3629 19.6902 62.6778 19.89 62.6855 20.1973L62.6778 20.205Z" fill="#5F7C95"/>
<path d="M106.324 64.8671C106.316 64.7442 106.378 64.652 106.462 64.5598C106.693 64.3216 106.931 64.0834 107.161 63.853C107.33 63.6839 107.53 63.6532 107.707 63.7992C107.899 63.9605 107.876 64.168 107.707 64.3447C107.453 64.6213 107.192 64.8825 106.931 65.1437C106.816 65.259 106.662 65.2897 106.508 65.2129C106.362 65.1437 106.309 65.0208 106.316 64.8671H106.324Z" fill="#5F7C95"/>
<path d="M105.771 18.9142C105.763 19.0756 105.702 19.1831 105.587 19.2523C105.456 19.3291 105.31 19.3368 105.187 19.2446C104.88 18.991 104.58 18.7375 104.288 18.4686C104.15 18.3457 104.135 18.1689 104.235 18.0153C104.335 17.8539 104.511 17.7771 104.665 17.877C105.057 18.1152 105.402 18.4148 105.71 18.7682C105.748 18.8143 105.756 18.8835 105.771 18.9219V18.9142Z" fill="#5F7C95"/>
<path d="M59.0368 24.3769C58.7219 24.3616 58.5529 24.1234 58.6758 23.8929C58.8909 23.501 59.1597 23.1399 59.4823 22.8326C59.6052 22.7097 59.7666 22.7327 59.9048 22.8326C60.0354 22.9325 60.1276 23.0938 60.0354 23.2321C59.7896 23.6009 59.5131 23.9544 59.2365 24.3001C59.1904 24.3539 59.0752 24.3616 59.0368 24.3769Z" fill="#5F7C95"/>
<path d="M72.4333 13.5667C72.4487 13.7511 72.3412 13.8587 72.1722 13.9278C71.8726 14.0585 71.573 14.2044 71.2657 14.335C71.0353 14.4349 70.8279 14.4042 70.7204 14.1583C70.6205 13.9278 70.7357 13.7665 70.9508 13.6666C71.2734 13.5206 71.5961 13.3593 71.9264 13.2287C72.2106 13.1211 72.4257 13.2671 72.4333 13.5591V13.5667Z" fill="#5F7C95"/>
<path d="M75.7671 11.8688C75.9822 11.8688 76.1128 11.9686 76.1589 12.1454C76.2049 12.3221 76.1512 12.4988 75.9745 12.5602C75.5827 12.6985 75.1833 12.8215 74.7762 12.929C74.5995 12.9751 74.4536 12.8752 74.3844 12.6985C74.3076 12.5141 74.3691 12.3528 74.5304 12.276C74.9298 12.0839 75.3677 11.984 75.7671 11.8764V11.8688Z" fill="#5F7C95"/>
<path d="M59.3825 60.9334C59.3978 61.1792 59.3441 61.3021 59.2058 61.3713C59.0522 61.4481 58.8909 61.4328 58.791 61.3022C58.5375 60.9641 58.2994 60.6184 58.069 60.2649C57.9691 60.1113 58.0382 59.973 58.1611 59.85C58.2764 59.7425 58.43 59.681 58.5452 59.7809C58.937 60.1189 59.1828 60.5569 59.3978 60.9257L59.3825 60.9334Z" fill="#5F7C95"/>
<path d="M78.5708 73.8334C78.2021 73.7489 77.8027 73.672 77.4109 73.5721C77.1959 73.5184 77.1498 73.3417 77.1805 73.1496C77.2189 72.9344 77.3725 72.8346 77.5723 72.8653C77.964 72.9268 78.3481 73.0113 78.7322 73.1035C78.9319 73.1496 79.0241 73.3109 78.9933 73.5107C78.9626 73.7181 78.8013 73.8026 78.5785 73.8257L78.5708 73.8334Z" fill="#5F7C95"/>
<path d="M85.5303 74.3712C85.2614 74.3866 85.0233 74.3251 85.0156 74.0101C85.0003 73.6874 85.2307 73.6259 85.5072 73.6259C85.8068 73.6259 86.1141 73.5875 86.4136 73.5798C86.6518 73.5798 86.8438 73.6567 86.8515 73.9333C86.8515 74.2098 86.6902 74.3097 86.4444 74.3174C86.1448 74.3328 85.8375 74.3481 85.538 74.3712H85.5303Z" fill="#5F7C95"/>
<path d="M68.5695 14.9958C68.7309 14.9958 68.8461 15.0573 68.8922 15.2109C68.9383 15.3646 68.9383 15.5259 68.7846 15.6258C68.439 15.8486 68.0933 16.0638 67.7399 16.2635C67.5863 16.348 67.4404 16.3019 67.3251 16.179C67.2253 16.0714 67.1869 15.9408 67.256 15.7948C67.3405 15.6105 68.3545 14.9881 68.5695 14.9958Z" fill="#5F7C95"/>
<path d="M110.948 24.7841C110.948 25.0146 110.91 25.1376 110.764 25.2067C110.603 25.2835 110.441 25.2605 110.349 25.1299C110.096 24.7918 109.858 24.4461 109.627 24.0926C109.535 23.9467 109.589 23.793 109.712 23.6778C109.827 23.5625 110.003 23.5395 110.103 23.624C110.495 23.9544 110.749 24.4 110.956 24.7841H110.948Z" fill="#5F7C95"/>
<path d="M113.007 55.025C113.145 54.7023 113.307 54.2874 113.506 53.8879C113.583 53.7266 113.775 53.7035 113.952 53.7803C114.128 53.8572 114.213 54.0185 114.144 54.1876C113.998 54.5794 113.837 54.9712 113.652 55.3477C113.575 55.5167 113.399 55.5552 113.222 55.486C113.068 55.4245 112.992 55.2939 113.007 55.025Z" fill="#5F7C95"/>
<path d="M53.7366 48.9169C53.9517 48.9169 54.0592 49.0398 54.1053 49.2166C54.1975 49.5777 54.2897 49.9311 54.3665 50.2922C54.4126 50.515 54.2897 50.6687 54.0899 50.7301C53.8902 50.7916 53.7212 50.6917 53.6675 50.4996C53.5599 50.1078 53.4601 49.7083 53.3986 49.3088C53.3602 49.0629 53.5061 48.9323 53.7366 48.9169Z" fill="#5F7C95"/>
<path d="M110.326 61.0409C110.334 61.1639 110.272 61.2561 110.203 61.3559C110.004 61.6172 109.811 61.8861 109.604 62.1473C109.466 62.324 109.266 62.3394 109.089 62.2164C108.905 62.0858 108.882 61.8938 109.013 61.7094C109.235 61.3944 109.466 61.0947 109.696 60.7951C109.804 60.6568 109.95 60.626 110.111 60.6798C110.272 60.7413 110.349 60.8642 110.334 61.0409H110.326Z" fill="#5F7C95"/>
<path d="M101.431 15.5336C101.815 15.7487 102.268 15.9716 102.606 16.3557C102.714 16.4786 102.652 16.6477 102.529 16.7706C102.407 16.8859 102.261 16.9243 102.115 16.8321C101.769 16.6169 101.431 16.3941 101.101 16.156C100.962 16.0561 100.932 15.9024 100.993 15.7487C101.062 15.5874 101.185 15.5183 101.431 15.5336Z" fill="#5F7C95"/>
<path d="M66.3573 68.4859C66.3573 68.2247 66.5954 68.0326 66.8182 68.1478C67.1946 68.3553 67.5556 68.5935 67.9013 68.847C68.0395 68.9469 68.0779 69.1313 67.9704 69.2926C67.8629 69.4617 67.6862 69.5462 67.5095 69.4463C67.1485 69.2389 66.8105 68.993 66.4648 68.7548C66.3726 68.6933 66.3573 68.5858 66.3573 68.4859Z" fill="#5F7C95"/>
<path d="M93.2732 73.1649C93.0197 73.1649 92.8738 73.0958 92.8277 72.9114C92.7816 72.7193 92.82 72.5426 93.0274 72.4734C93.4115 72.3428 93.8032 72.2199 94.195 72.12C94.3717 72.0739 94.533 72.1661 94.5791 72.3505C94.6328 72.5349 94.6098 72.727 94.4024 72.8038C94.0106 72.9421 93.6035 73.0651 93.2732 73.1726V73.1649Z" fill="#5F7C95"/>
<path d="M54.6353 33.7427C54.5431 34.0577 54.4433 34.4649 54.3127 34.8644C54.2589 35.0411 54.0976 35.1257 53.9133 35.0719C53.7366 35.0258 53.606 34.9028 53.6291 34.7108C53.6828 34.2651 53.8134 33.8426 53.9824 33.4277C54.0515 33.2663 54.2128 33.2356 54.3742 33.274C54.5585 33.3201 54.6353 33.4584 54.6276 33.7427H54.6353Z" fill="#5F7C95"/>
<path d="M61.5256 64.4369C61.4334 64.4369 61.3489 64.4062 61.2875 64.337C61.0417 64.0681 60.7805 63.7992 60.5501 63.5149C60.4041 63.3382 60.3888 63.1307 60.5731 62.9694C60.7652 62.8081 60.9495 62.8695 61.1108 63.0385C61.3489 63.2998 61.5871 63.5687 61.8252 63.8299C61.9404 63.9605 61.9481 64.1065 61.879 64.2602C61.8098 64.4061 61.6793 64.4446 61.5256 64.4369Z" fill="#5F7C95"/>
<path d="M65.6583 17.5466C65.6583 17.8232 64.5982 18.6683 64.3217 18.6069C64.0528 18.5531 63.9376 18.215 64.1527 18.0153C64.4446 17.7387 64.7672 17.4775 65.1052 17.2546C65.3433 17.0933 65.6583 17.2777 65.6583 17.5466Z" fill="#5F7C95"/>
<path d="M95.1168 13.244C94.8095 13.1365 94.3947 13.0059 93.9953 12.8445C93.8186 12.7754 93.7879 12.591 93.834 12.4143C93.8877 12.2299 94.0414 12.1223 94.218 12.1761C94.6328 12.299 95.04 12.4373 95.4394 12.5987C95.6161 12.6678 95.6314 12.8599 95.5854 13.0366C95.5393 13.221 95.3933 13.2594 95.1168 13.244Z" fill="#5F7C95"/>
<path d="M89.8473 42.7858C89.8473 40.2964 89.8473 37.7994 89.8473 35.3101C89.8473 35.0027 89.9318 34.9336 90.2313 34.9336C93.7187 34.9413 97.2061 34.9413 100.701 34.9336C100.97 34.9336 101.078 34.972 101.07 35.2793C101.047 36.1091 101.047 36.9389 101.07 37.7687C101.078 38.076 100.97 38.1144 100.701 38.1144C98.5658 38.1067 96.4303 38.1144 94.2948 38.099C93.9722 38.099 93.8493 38.1528 93.8647 38.5139C93.8954 39.2515 93.8877 39.9968 93.8647 40.7344C93.857 41.0186 93.9261 41.0955 94.218 41.0955C96.2229 41.0801 98.2278 41.0955 100.24 41.0801C100.571 41.0801 100.64 41.1723 100.632 41.4796C100.609 42.2864 100.609 43.0931 100.632 43.8921C100.64 44.1841 100.548 44.2532 100.271 44.2456C98.2662 44.2302 96.2613 44.2456 94.2488 44.2302C93.9415 44.2302 93.857 44.3147 93.8647 44.6143C93.8877 45.4441 93.8877 46.2739 93.8647 47.1037C93.8647 47.4033 93.9338 47.4878 94.2411 47.4878C96.3765 47.4725 98.512 47.4878 100.647 47.4725C100.985 47.4725 101.078 47.5493 101.07 47.8951C101.039 48.7095 101.055 49.5316 101.07 50.346C101.07 50.5765 101.039 50.6764 100.763 50.6764C97.2369 50.6687 93.7111 50.6687 90.1776 50.6764C89.8934 50.6764 89.8473 50.5765 89.8549 50.3306C89.8626 47.8105 89.8549 45.2905 89.8549 42.7781L89.8473 42.7858Z" fill="#5F7C95"/>
<path d="M76.0667 42.8165C76.0667 40.3271 76.0667 37.8301 76.0667 35.3408C76.0667 35.0411 76.1128 34.9336 76.4508 34.9336C79.8613 34.9489 83.2796 34.9489 86.6902 34.9336C86.9667 34.9336 87.0666 34.9797 87.0589 35.2793C87.0358 36.1245 87.0358 36.9696 87.0589 37.8071C87.0589 38.099 86.9744 38.1682 86.6902 38.1605C84.6315 38.1451 82.5729 38.1605 80.5143 38.1451C80.2147 38.1451 80.1225 38.2143 80.1379 38.5216C80.1609 39.2515 80.1532 39.9814 80.1379 40.7036C80.1379 40.9572 80.2147 41.0186 80.4605 41.0186C82.3809 41.011 84.2936 41.0186 86.2139 41.0033C86.5212 41.0033 86.6287 41.0647 86.621 41.3951C86.598 42.2403 86.6057 43.0854 86.621 43.9229C86.621 44.1918 86.5442 44.2686 86.2831 44.2609C84.378 44.2532 82.473 44.2609 80.568 44.2456C80.2377 44.2456 80.1379 44.307 80.1379 44.6604C80.1609 46.5275 80.1379 48.3945 80.1532 50.2615C80.1532 50.5611 80.1071 50.6764 79.7692 50.6687C78.6553 50.6456 77.5415 50.6456 76.4354 50.6687C76.1512 50.6687 76.0744 50.6072 76.0744 50.3152C76.0897 47.8105 76.0744 45.3058 76.0744 42.8011L76.0667 42.8165Z" fill="#5F7C95"/>
<path d="M68.2162 42.8242C68.2162 40.3195 68.2162 37.8148 68.2162 35.3101C68.2162 35.0027 68.3007 34.9259 68.6003 34.9336C69.7525 34.9489 70.897 34.9489 72.0493 34.9336C72.3028 34.9336 72.3642 35.0027 72.3642 35.2486C72.3642 40.2964 72.3642 45.3442 72.3642 50.3921C72.3642 50.6303 72.3104 50.6917 72.0723 50.684C70.9124 50.6687 69.7448 50.6687 68.5849 50.684C68.3007 50.684 68.2239 50.6226 68.2239 50.3306C68.2392 47.8259 68.2239 45.3212 68.2239 42.8165L68.2162 42.8242Z" fill="#5F7C95"/>
</svg>
