<svg width="168" height="84" viewBox="0 0 168 84" fill="none" xmlns="http://www.w3.org/2000/svg">
<path d="M80.8186 25.3191C80.9692 25.2893 81.0295 25.2596 81.0898 25.2298C81.5117 25.1404 82.1446 25.2298 82.2952 24.9617C82.6569 24.3957 82.8678 23.6808 83.0185 23.0255C83.0486 22.8766 82.7473 22.6085 82.5966 22.4C81.9035 21.5659 82.1747 20.5234 83.1692 20.1064C83.802 19.8383 84.3445 20.0468 84.7363 20.4936C85.2184 21.0298 85.128 21.6255 84.8267 22.1915C84.676 22.4893 84.4048 22.6978 84.1938 22.9361C84.3746 23.4425 84.5856 23.8893 84.676 24.3659C84.7965 24.9319 85.0376 25.2596 85.6705 25.1702C86.3335 25.0808 86.6047 25.3489 86.5143 26.0042C86.4239 26.5702 86.3636 27.1659 86.2129 27.7021C86.002 28.417 86.2129 29.0425 86.7855 29.4893C87.8101 30.2042 88.7142 31.0383 89.4676 32.0808C90.0402 32.8851 90.9744 33.4213 91.7881 34.0468C94.1689 35.7744 95.9168 37.9787 96.7606 40.8085C97.1825 42.2383 97.4537 43.7276 97.7852 45.1872C97.7249 45.217 97.6345 45.2766 97.5742 45.3064C97.4236 45.2468 97.2126 45.217 97.0921 45.0979C95.1332 43.3106 92.7223 42.3574 90.221 41.6425C89.4074 41.4042 88.5635 41.3149 87.7197 41.2851C85.791 41.1659 83.8623 40.9276 81.9637 41.017C78.0762 41.2255 74.4599 42.2681 71.2654 44.5915C71.0243 44.7702 70.7832 44.9787 70.512 45.1574C70.4518 45.1872 70.3613 45.1574 70.1504 45.1574C70.1805 44.4127 70.1504 43.6681 70.3011 42.9532C70.7832 41.017 71.4462 39.1106 72.5914 37.4127C73.6462 35.8936 74.9119 34.583 76.4488 33.5702C77.1721 33.0936 77.6543 32.5276 78.0762 31.783C78.6488 30.7404 79.5529 30.0255 80.5775 29.4298C81.2103 29.0723 81.4514 28.3872 81.0597 27.7915C80.4871 26.9574 80.8186 26.1234 80.7583 25.2596L80.8186 25.3191Z" fill="#5F7C95"/>
<path d="M103.751 60.9745C102.667 60.0809 101.732 59.2468 100.738 58.5319C98.8995 57.2213 96.8503 56.417 94.6504 55.8511C91.9984 55.1957 89.3464 54.7489 86.6342 54.6596C85.3082 54.6 83.9822 54.3915 82.6562 54.4809C80.2152 54.6596 77.8043 54.8979 75.3934 55.2851C73.6154 55.5532 71.7771 55.9404 70.0894 56.566C67.6484 57.4894 65.2978 58.6809 63.6704 60.8553C63.6403 60.9149 63.58 60.9447 63.3691 61.1234C63.2485 60.7957 63.0677 60.5277 63.0376 60.2596C62.7664 58.0553 63.9115 56.5362 65.5992 55.3447C67.5279 53.9745 69.7278 53.1702 72.0181 52.5447C74.3688 51.8894 76.7495 51.4723 79.1905 51.3532C81.6014 51.234 84.0425 51.0851 86.4533 51.1745C88.4122 51.2638 90.3409 51.6809 92.2997 51.9489C94.4695 52.2468 96.5188 52.9021 98.5078 53.766C100.045 54.4213 101.521 55.1957 102.636 56.4468C103.541 57.4894 104.143 58.6511 103.993 60.1106C103.962 60.4085 103.812 60.6766 103.721 60.9745H103.751Z" fill="#5F7C95"/>
<path d="M100.406 52.0085C98.688 49.0894 95.9155 47.6894 92.9019 46.6766C90.7321 45.9319 88.4718 45.6936 86.2116 45.3958C84.072 45.1277 81.9624 45.2766 79.8529 45.5447C76.5681 45.9617 73.4038 46.8851 70.6011 48.7319C69.456 49.4766 68.5519 50.4894 67.8588 51.6809C67.7382 51.8596 67.5875 52.0383 67.3464 52.3362C67.0752 50.9064 67.4067 49.8043 68.0998 48.7915C69.3354 46.9447 71.1135 45.783 73.1326 44.9192C75.5435 43.9064 78.0749 43.2511 80.7269 43.1021C82.5953 42.983 84.4939 42.8043 86.3322 42.9532C88.2006 43.1021 90.0389 43.6085 91.8772 44.0256C94.4991 44.6213 96.8497 45.7234 98.7784 47.6298C99.8332 48.6426 100.556 49.8341 100.466 51.3532C100.466 51.5915 100.406 51.8298 100.406 52.0681V52.0085Z" fill="#5F7C95"/>
<path d="M89.8286 72.6809V69.2851C90.5217 69.2851 91.2148 69.2851 91.8477 69.2851C91.9682 69.2851 92.1792 69.5234 92.1792 69.6426C92.1792 71.8766 92.1792 74.1106 92.1792 76.3447C92.1792 76.4936 91.8778 76.7319 91.7272 76.7319C91.245 76.7915 90.7025 76.8213 90.2203 76.7319C89.9491 76.7021 89.6779 76.4638 89.5272 76.2255C88.7738 75.183 88.0204 74.1106 87.1465 73.0681V76.7617C86.4232 76.7617 85.8205 76.7915 85.1876 76.7617C85.0369 76.7617 84.7657 76.4638 84.7657 76.2851C84.7657 74.1106 84.7657 71.9362 84.7657 69.7319C84.7657 69.583 85.0671 69.3149 85.278 69.2851C85.7903 69.2255 86.3328 69.2255 86.8451 69.2851C87.0561 69.2851 87.2971 69.4638 87.4177 69.6426C88.1711 70.6553 88.8944 71.6979 89.6176 72.7404C89.6779 72.7106 89.7382 72.6809 89.7984 72.6511L89.8286 72.6809Z" fill="#5F7C95"/>
<path d="M81.3895 60.9447C81.3895 59.7532 81.3895 58.5617 81.3895 57.3702C81.3895 56.4468 81.8114 55.7915 82.5648 55.3447C83.4086 54.8681 84.2524 55.017 85.0058 55.583C85.6086 56.0298 85.8798 56.7149 85.8798 57.4298C85.9099 59.8724 85.8798 62.2851 85.8798 64.7277C85.8798 65.2341 85.699 65.4426 85.1867 65.4426C84.1018 65.4426 83.0169 65.4426 81.9621 65.4426C81.4799 65.4426 81.3594 65.2341 81.3594 64.817C81.3594 63.5362 81.3594 62.2256 81.3594 60.9447H81.3895Z" fill="#5F7C95"/>
<path d="M98.4177 74.4383C98.1766 74.3788 98.056 74.349 97.9656 74.349C97.0013 74.2894 96.6095 73.783 96.941 72.8596C97.0314 72.6511 97.3328 72.383 97.5437 72.383C98.3574 72.3234 99.2012 72.383 100.015 72.383C100.467 72.383 100.708 72.5915 100.708 73.0681C100.708 73.366 100.648 73.6639 100.708 73.9617C101.039 75.5107 100.105 76.2851 98.8697 76.7617C97.1821 77.3873 94.8013 77 93.6863 75.3617C92.8726 74.1405 92.6617 72.8596 93.2644 71.549C93.8671 70.2085 94.952 69.4043 96.4889 69.3149C97.8752 69.2554 99.2012 69.3149 100.166 70.5362C100.497 70.9532 100.377 71.132 100.045 71.3405C99.6834 71.5788 99.2916 71.7873 98.8697 71.9362C98.719 71.9958 98.4478 71.9362 98.2971 71.8171C97.5738 71.132 96.6396 71.1022 95.9164 71.7277C95.1328 72.4426 95.0424 73.5745 95.7054 74.3788C96.3383 75.1234 97.4232 75.2128 98.3574 74.4979L98.4177 74.4383Z" fill="#5F7C95"/>
<path d="M61.8933 76.7319C60.2861 76.9305 59.4824 76.305 59.4824 74.8553C59.4824 73.3362 59.4824 71.817 59.4824 70.3277C59.4824 69.3745 59.5427 69.3149 60.507 69.3149C60.8687 69.3149 61.2605 69.3149 61.6221 69.3149C61.6522 69.3149 61.7125 69.3447 61.8632 69.4043C61.8632 70.0298 61.8632 70.6851 61.8632 71.3405C61.8632 71.8468 62.044 71.9958 62.5262 71.9958C63.159 71.9958 63.822 71.9958 64.6056 71.9958C64.6056 71.2809 64.6056 70.6256 64.6056 69.9702C64.6056 69.4936 64.7562 69.2851 65.2384 69.3149C65.7809 69.3149 66.3233 69.3149 66.926 69.3149V76.8213C66.2932 76.8213 65.6302 76.8213 64.9672 76.8213C64.8466 76.8213 64.6357 76.4936 64.6357 76.2851C64.6056 75.6 64.6357 74.9149 64.6357 74.1404H61.9536V76.7617L61.8933 76.7319Z" fill="#5F7C95"/>
<path d="M108.423 76.7915C107.58 76.7915 106.887 76.8213 106.224 76.7915C105.38 76.7319 105.53 75.8979 105.229 75.4213C104.958 75.0042 104.988 74.2596 104.054 74.4681V76.7319H101.703V69.2851C102.698 69.2851 103.722 69.2553 104.747 69.2851C105.47 69.3149 106.224 69.3744 106.917 69.5532C108.544 70 109.207 72.234 107.76 73.7234C107.369 74.1404 107.218 74.4383 107.58 74.9744C107.941 75.4808 108.122 76.0766 108.454 76.7915H108.423ZM104.777 72.5319C105.41 72.5319 106.073 72.5319 106.073 71.817C106.073 71.2213 105.44 71.1319 104.898 71.1021C104.355 71.1021 104.024 71.1617 104.024 71.8468C104.024 72.5319 104.385 72.5617 104.807 72.5021L104.777 72.5319Z" fill="#5F7C95"/>
<path d="M75.6656 73.0085C75.5752 71.1915 77.2628 69.166 79.8244 69.1958C82.627 69.2255 84.1037 71.1021 84.0434 73.0085C83.953 75.5404 82.3558 76.9107 79.8545 76.9404C77.5943 76.9404 75.6354 75.6 75.6656 72.9787V73.0085ZM78.0765 73.0085C78.0765 74.1404 78.7696 74.8553 79.8244 74.9149C80.6983 74.9745 81.7229 73.9021 81.6928 73.0383C81.6627 72.0851 80.8188 71.2213 79.8846 71.1617C78.86 71.1021 78.0765 71.9362 78.0765 73.0383V73.0085Z" fill="#5F7C95"/>
<path d="M91.0943 61.183C91.0943 62.3745 91.0943 63.566 91.0943 64.7574C91.0943 65.2936 90.9135 65.4426 90.4012 65.4426C89.4669 65.4128 88.5327 65.4426 87.6286 65.4426C87.0862 65.4426 86.8752 65.234 86.8752 64.6979C86.8752 62.5234 86.8752 60.3191 86.9054 58.1447C86.9355 56.8043 87.8095 55.6723 89.4669 55.9106C90.2806 56.0298 91.0642 56.7447 91.0642 57.5489C91.0642 58.7702 91.0642 59.9915 91.0642 61.183H91.0943Z" fill="#5F7C95"/>
<path d="M80.2453 61.183C80.2453 62.3745 80.2453 63.566 80.2453 64.7574C80.2453 65.2936 80.0645 65.4426 79.5522 65.4426C78.618 65.4128 77.6837 65.4426 76.7797 65.4426C76.2673 65.4426 76.0564 65.234 76.0564 64.7277C76.0564 62.5532 76.0262 60.3489 76.0564 58.1745C76.0564 57.2809 76.418 56.3872 77.3221 56.0298C77.9851 55.7617 78.7988 55.7021 79.3714 56.2383C79.7631 56.6255 80.1248 57.1915 80.185 57.6979C80.3056 58.8596 80.2152 60.0213 80.2152 61.183H80.2453Z" fill="#5F7C95"/>
<path d="M118.188 71.6681C118.549 71.7873 118.881 71.8766 119.242 71.9958C119.845 72.1745 120.508 72.2639 121.081 72.5022C122.196 72.9787 122.497 73.5745 122.407 74.766C122.346 75.5702 121.533 76.4936 120.689 76.7617C119.092 77.2383 117.585 77 116.138 76.1958C115.656 75.9277 115.596 75.6596 115.988 75.2128C116.289 74.8851 116.5 74.4681 116.681 74.2596C117.555 74.5277 118.308 74.7958 119.092 74.9447C119.363 75.0043 119.694 74.7064 119.996 74.5873C119.694 74.4085 119.423 74.2 119.122 74.0809C118.519 73.8724 117.856 73.8128 117.283 73.5745C116.289 73.1575 115.716 72.2639 115.807 71.4596C115.897 70.566 116.801 69.4639 117.705 69.3149C119.092 69.1362 120.478 69.0468 121.744 69.8213C122.135 70.0596 122.286 70.2383 121.894 70.5958C121.774 70.7149 121.713 70.8936 121.623 71.0128C121.292 71.5192 120.96 71.8766 120.267 71.4C119.905 71.1617 119.363 71.1022 118.911 71.0724C118.67 71.0724 118.399 71.2511 118.157 71.3405C118.157 71.4298 118.157 71.5192 118.157 71.6085L118.188 71.6681Z" fill="#5F7C95"/>
<path d="M125.209 71.6978C125.601 71.817 125.993 71.9064 126.385 71.9957C126.957 72.1447 127.56 72.234 128.072 72.4723C128.976 72.8893 129.458 73.5447 129.398 74.617C129.338 75.6893 128.705 76.3744 127.801 76.7021C126.204 77.2681 124.667 77.0596 123.19 76.2255C122.648 75.9276 122.587 75.6 123.009 75.1532C123.281 74.8553 123.491 74.4979 123.642 74.3191C124.546 74.5574 125.36 74.8255 126.174 75.0042C126.385 75.034 126.686 74.7957 126.927 74.6468C126.656 74.4681 126.445 74.2298 126.143 74.1404C125.39 73.8723 124.607 73.6936 123.853 73.4255C123.1 73.1276 122.798 72.4127 122.798 71.7276C122.798 70.8638 123.22 70.0596 124.064 69.6723C125.661 69.017 127.228 69.1064 128.735 69.9702C128.826 70.0298 129.006 70.1787 128.976 70.2085C128.735 70.6851 128.494 71.1617 128.163 71.5787C128.072 71.6979 127.68 71.6383 127.439 71.5787C126.897 71.4596 126.385 71.2808 125.872 71.1915C125.661 71.1915 125.39 71.3702 125.149 71.4893C125.149 71.5787 125.149 71.6383 125.149 71.7276L125.209 71.6978Z" fill="#5F7C95"/>
<path d="M115.142 71.132C114.359 71.132 113.605 71.132 112.852 71.132C112.641 71.132 112.37 71.0724 112.189 71.132C111.978 71.2213 111.857 71.4298 111.676 71.6086C111.857 71.7277 112.038 71.9362 112.219 71.966C112.942 71.9958 113.665 71.9958 114.389 71.966C115.353 71.966 115.082 72.6511 115.142 73.1575C115.202 73.7235 115.022 74.0511 114.359 74.0213C113.665 73.9915 112.942 73.9915 112.249 74.0213C112.038 74.0213 111.827 74.2596 111.646 74.3788C111.857 74.5575 112.068 74.8554 112.279 74.8554C113.213 74.9149 114.118 74.8554 115.112 74.8554V76.6426H109.477V69.2852H115.142V71.132Z" fill="#5F7C95"/>
<path d="M44.9551 76.7915V69.3447H50.6809C50.6809 69.8213 50.7412 70.2979 50.6809 70.7447C50.6809 70.8937 50.3193 71.132 50.1385 71.132C49.4152 71.1915 48.692 71.132 47.9687 71.1617C47.6975 71.1617 47.4262 71.4596 47.1851 71.6383C47.4564 71.7575 47.6975 71.966 47.9687 71.966C48.6317 72.0256 49.3248 71.966 49.9878 71.966C50.5001 71.966 50.7111 72.2043 50.7111 72.6809C50.7111 72.8894 50.7111 73.1277 50.7111 73.3362C50.7111 73.8128 50.5303 74.0213 50.0481 73.9915C49.2947 73.9915 48.5413 73.9617 47.7879 73.9915C47.5769 73.9915 47.3961 74.2298 47.1851 74.349C47.3961 74.5277 47.5769 74.8256 47.7879 74.8554C48.5111 74.9149 49.2344 74.9149 49.9577 74.8554C50.5303 74.8554 50.8316 74.9745 50.7111 75.6C50.6809 75.7788 50.7111 75.9873 50.7111 76.1958C50.7412 76.583 50.5604 76.732 50.1988 76.732C48.481 76.732 46.7934 76.732 44.9852 76.732L44.9551 76.7915Z" fill="#5F7C95"/>
<path d="M58.8788 71.3404C58.3062 71.6085 57.7638 71.9064 57.2213 72.1149C57.1008 72.1745 56.8296 71.966 56.6789 71.817C56.1063 71.1915 55.2625 71.0128 54.4789 71.4298C53.8159 71.7574 53.4844 72.8894 53.7255 73.783C53.9064 74.4085 54.7502 75.034 55.4132 74.9149C55.8049 74.8553 56.1967 74.6468 56.4981 74.3787C56.92 73.9915 57.2515 73.9617 57.7336 74.2298C59.0596 74.9149 59.0898 75.0043 57.9446 76.0468C56.92 77 55.0515 77.3277 53.7255 76.7021C52.279 76.0468 51.3448 75.0043 51.2544 73.3064C51.164 71.4 52.0681 70.1192 53.7858 69.3745C55.5638 68.5702 57.8542 69.434 58.8788 71.3404Z" fill="#5F7C95"/>
<path d="M75.334 74.7659C74.7312 76.5829 72.5614 77.2085 71.3861 76.9702C69.0656 76.5233 67.9506 75.3319 67.7999 73.5148C67.589 70.9233 68.8848 69.7319 70.482 69.3744C72.5313 68.9276 74.1285 68.9276 75.3942 71.3404C74.7614 71.6382 74.1285 71.9361 73.5258 72.2042C72.3806 70.9233 71.3259 70.834 70.482 71.9063C69.819 72.7701 69.9095 73.6936 70.7231 74.4382C71.5067 75.1233 72.2601 75.1233 73.0436 74.3489C73.4354 73.9616 73.7669 73.9319 74.2189 74.1999C74.5806 74.4085 74.9723 74.5574 75.334 74.7361V74.7659Z" fill="#5F7C95"/>
<path d="M92.2387 61.7191C92.2387 60.7659 92.2387 59.8425 92.2387 58.8893C92.2387 57.817 93.1127 57.0127 94.1976 57.0723C95.0112 57.1021 95.8551 57.8468 95.8551 58.7106C95.8852 60.7659 95.8852 62.8213 95.8551 64.8766C95.8551 65.0553 95.5236 65.383 95.3427 65.383C94.4989 65.4425 93.625 65.383 92.7812 65.4127C92.3291 65.4127 92.2086 65.234 92.2387 64.8468C92.2387 63.8042 92.2387 62.7617 92.2387 61.7191Z" fill="#5F7C95"/>
<path d="M71.4462 61.8085C71.4462 60.8553 71.4462 59.8723 71.4462 58.9191C71.5064 57.6085 72.3804 56.9234 73.6461 57.1021C74.3091 57.1915 75.0323 58.1149 75.0625 59.0681C75.0926 61.0042 75.0625 62.9404 75.0625 64.8766C75.0625 65.2936 74.8817 65.4723 74.4598 65.4425C73.6461 65.4425 72.8023 65.4425 71.9886 65.4425C71.5366 65.4425 71.416 65.2638 71.416 64.8766C71.416 63.8638 71.416 62.851 71.416 61.8383L71.4462 61.8085Z" fill="#5F7C95"/>
<path d="M44.0217 69.3447C44.0217 69.583 44.0217 69.7319 44.0217 69.8809C44.0217 71.5192 44.1724 71.4 42.6355 71.3702C42.1231 71.3702 41.9423 71.5192 41.9423 72.0553C41.9423 73.6043 41.9423 75.1532 41.9423 76.7617H39.6821V71.3702C39.0794 71.3702 38.6575 71.3702 38.2657 71.3702C37.8137 71.4 37.6329 71.1915 37.6329 70.7745C37.6329 70.2979 37.6329 69.8511 37.6329 69.3447H44.0217Z" fill="#5F7C95"/>
<path d="M67.2265 62.7319C67.2265 62.0766 67.2265 61.3915 67.2265 60.7362C67.2265 59.9915 67.9498 59.2766 68.6429 59.217C69.3963 59.1872 70.21 59.8426 70.2401 60.6468C70.3004 62.0766 70.2703 63.5362 70.2401 64.966C70.2401 65.1149 69.9388 65.383 69.7579 65.4128C69.0949 65.4723 68.4621 65.4128 67.7991 65.4426C67.3471 65.4426 67.1662 65.2936 67.1662 64.8468C67.1662 64.1617 67.1662 63.4468 67.1662 62.7617L67.2265 62.7319Z" fill="#5F7C95"/>
<path d="M97.0612 62.6723C97.0612 62.0468 97.0612 61.4213 97.0612 60.8255C97.0612 59.9319 97.7242 59.2468 98.5379 59.217C99.3214 59.217 100.075 59.8723 100.105 60.766C100.135 62.1362 100.105 63.4766 100.105 64.8468C100.105 65.3234 99.894 65.4426 99.4721 65.4426C98.8694 65.4426 98.2667 65.4426 97.664 65.4426C97.2119 65.4426 97.0311 65.2936 97.0311 64.8468C97.0311 64.1319 97.0311 63.417 97.0311 62.7021L97.0612 62.6723Z" fill="#5F7C95"/>
<path d="M42.0629 49.0596C40.8373 48.5234 39.7022 48.7518 38.6575 49.7447C38.6575 49.2681 38.5972 48.9106 38.6575 48.583C38.8383 47.8681 38.6575 47.4213 37.8739 47.2128C37.5726 47.1234 37.3014 46.8553 37 46.4979C38.6575 46.5872 39.4712 45.9617 39.1999 44.2638C39.2903 44.2638 39.3808 44.2638 39.4712 44.2638C39.6821 44.5617 39.9835 44.8298 40.0437 45.1575C40.1944 45.783 40.4958 45.9319 41.0985 45.8128C41.4903 45.7234 41.9423 45.8128 42.3642 45.8128C42.4245 45.8723 42.4546 45.9319 42.5149 45.9915C42.2135 46.2298 41.9122 46.4383 41.641 46.6766C41.2492 47.034 41.0684 47.4213 41.4903 47.9277C41.7012 48.166 41.7916 48.5532 42.0026 49.0596H42.0629Z" fill="#5F7C95"/>
<path d="M113.967 24.9915C115.775 24.783 115.865 23.7107 115.383 22.3107C115.474 22.3107 115.534 22.3107 115.624 22.3107C116.106 22.7575 116.619 23.2341 117.071 23.6511C117.704 23.4128 118.337 23.2043 119.09 22.9362C118.698 23.6809 118.186 24.2171 118.216 24.783C118.216 25.3192 118.789 25.8256 119.18 26.4511C118.819 26.4511 118.608 26.4511 118.397 26.3915C117.533 26.1929 116.86 26.4511 116.378 27.166C116.257 27.3149 116.137 27.4639 116.016 27.6128C115.926 27.6128 115.865 27.5532 115.775 27.5532C115.775 27.1362 115.775 26.6894 115.775 26.2724C115.775 25.8256 115.624 25.5873 115.142 25.5575C114.78 25.5575 114.419 25.3788 114.057 25.2894C114.027 25.2 113.997 25.1107 113.967 24.9915Z" fill="#5F7C95"/>
<path d="M40.6462 33.868C41.3092 33.8978 41.7612 33.8382 42.1229 33.9872C42.7256 34.2553 42.9366 33.8978 43.1475 33.5106C43.3585 33.1233 43.5694 32.7361 43.931 32.3191C43.8406 33.9276 44.3529 34.851 46.3419 34.434C46.0707 34.7914 46.0104 34.9702 45.8598 35.0595C44.6844 35.7148 44.6844 35.7148 44.9255 36.9659C44.9255 37.0553 44.9255 37.1744 44.9255 37.2638C44.9255 37.3531 44.9255 37.4425 44.8351 37.7702C43.8105 36.4595 42.7557 36.251 41.6106 37.5319C41.5804 37.4723 41.5503 37.3829 41.49 37.3233C41.6708 36.7276 41.8818 36.1616 42.0927 35.4765C41.701 35.0595 41.2188 34.5829 40.5859 33.9276L40.6462 33.868Z" fill="#5F7C95"/>
<path d="M51.7064 22.2213C50.8325 23.8596 51.6763 24.5745 53.2434 25.0511C52.4598 25.2894 51.7064 25.3191 51.3448 25.6766C50.9831 26.034 51.0133 26.7489 50.8626 27.3745C50.7119 27.2255 50.5612 27.1064 50.4708 26.9574C49.627 25.8851 49.4462 25.8553 48.1805 26.3617C48.0901 26.3915 47.9997 26.3617 47.7285 26.3617C48.0599 25.8851 48.3312 25.4979 48.6024 25.1404C48.8435 24.8426 49.0243 24.6043 48.6928 24.1872C48.3914 23.8596 48.2709 23.383 47.9695 22.7872C48.512 22.966 48.9339 22.9957 49.2654 23.2043C49.838 23.5617 50.1695 23.383 50.5311 22.9362C50.7722 22.6383 51.1037 22.4 51.3749 22.1319C51.4955 22.1319 51.616 22.1617 51.7366 22.1915L51.7064 22.2213Z" fill="#5F7C95"/>
<path d="M104.715 17.8425C104.926 17.6042 105.137 17.3361 105.378 17.1574C106.041 16.6808 106.131 16.1446 105.739 15.4595C105.589 15.2212 105.559 14.8936 105.408 14.5064C106.131 14.8638 106.674 15.3702 107.246 15.3404C107.759 15.3404 108.241 14.7446 108.723 14.4468C108.783 14.4766 108.843 14.5064 108.904 14.5361C108.813 14.9234 108.783 15.3106 108.663 15.6978C108.542 16.0851 108.482 16.4127 108.934 16.6212C109.205 16.7702 109.446 16.9787 109.687 17.1574C109.808 17.2766 109.898 17.4255 110.019 17.5744C109.838 17.634 109.687 17.7234 109.506 17.7532C109.024 17.7532 108.572 17.7532 108.09 17.7532C107.879 18.4085 107.728 18.9446 107.487 19.7489C107.156 19.0042 106.885 18.4085 106.613 17.7532C106.071 17.8127 105.468 17.8723 104.896 17.9617C104.835 17.9319 104.805 17.8723 104.745 17.8425H104.715Z" fill="#5F7C95"/>
<path d="M62.4055 17.7532H60.4165C60.1453 18.3787 59.9042 18.9447 59.633 19.6298C59.3316 18.8851 59.2714 18.1404 58.8495 17.783C58.4276 17.4553 57.6742 17.5149 56.8906 17.366C57.3728 17.0383 57.7344 16.7702 58.1262 16.5021C58.4577 16.2638 58.6084 16.0255 58.3974 15.5787C58.2166 15.1915 58.2166 14.7149 58.0659 14.0298C58.5481 14.3872 58.8796 14.5957 59.1207 14.834C59.6029 15.3702 60.0549 15.3106 60.5974 14.9532C60.8385 14.7745 61.1398 14.6255 61.5617 14.5362C61.4412 14.9532 61.3809 15.4 61.17 15.7277C60.8385 16.2043 61.0193 16.4723 61.3809 16.7702C61.6823 17.0383 61.9836 17.3064 62.4055 17.7234V17.7532Z" fill="#5F7C95"/>
<path d="M98.9602 11.6468C98.478 11.7957 98.2068 11.8851 97.9657 11.9745C97.6945 12.0638 97.4534 12.1234 97.1521 12.2128C97.0315 12.8383 96.911 13.4638 96.7603 14.2979C96.5192 13.9702 96.3384 13.7617 96.1877 13.5234C95.6452 12.7489 95.5247 12.7191 94.6809 13.1362C94.4398 13.2553 94.1384 13.2851 93.7165 13.3745C94.1083 12.6893 94.3795 12.1532 94.711 11.617C94.3494 11.1404 93.9576 10.6638 93.4453 10.0085C93.9275 10.0383 94.2891 9.97871 94.5603 10.1276C95.3138 10.5745 95.7658 10.2468 96.1274 9.65105C96.2781 9.41275 96.4288 9.17446 96.7603 8.93616C96.7904 9.20424 96.8507 9.47233 96.8507 9.74041C96.911 10.9021 97.0616 10.8128 98.1164 11.2298C98.3575 11.3191 98.5685 11.4383 98.9602 11.6468Z" fill="#5F7C95"/>
<path d="M83.8018 7C83.8018 8.69787 84.7662 9.1149 86.3031 8.78724C86.3031 8.8766 86.3031 8.96596 86.3031 9.05532C86.0018 9.26383 85.7004 9.53192 85.3689 9.71064C84.9169 9.97873 84.5552 10.217 84.947 10.8426C85.1278 11.1702 85.0374 11.617 85.0073 12.1532C84.0128 10.8426 83.0484 11.0213 82.1142 12.183C82.0841 12.1234 82.0238 12.0638 81.9937 12.034C82.0539 11.617 81.9937 11.1404 82.2046 10.783C82.506 10.217 82.2046 10.0085 81.8129 9.74043C81.4814 9.53192 81.1499 9.29362 80.8184 9.05532C80.8184 8.99575 80.8485 8.93617 80.8786 8.84681C81.1197 8.84681 81.3909 8.81702 81.632 8.78724C82.9279 8.75745 82.8978 8.75745 83.2594 7.53617C83.3197 7.32766 83.4703 7.14894 83.5909 6.97021C83.6813 6.97021 83.7416 6.97021 83.832 6.97021L83.8018 7Z" fill="#5F7C95"/>
<path d="M124.515 60.8554C125.961 59.9618 125.72 58.949 124.725 57.9064C124.786 57.9064 124.876 57.8469 124.936 57.8171C125.298 57.966 125.69 58.0852 126.051 58.2341C126.745 58.532 127.166 58.3235 127.739 57.4596C127.829 57.3107 127.98 57.1915 128.131 57.0426C128.191 57.0724 128.251 57.132 128.312 57.1618C128.282 57.3107 128.221 57.4596 128.191 57.6086C127.98 58.949 128.071 59.1277 129.336 59.7235C129.517 59.8128 129.638 59.9915 129.788 60.1405C129.095 60.349 128.342 60.349 127.95 60.7064C127.588 61.0639 127.619 61.7788 127.408 62.5532C127.166 62.166 126.986 61.9277 126.865 61.6596C126.624 61.0639 126.293 60.766 125.599 60.9149C125.328 60.9745 124.997 60.9149 124.725 60.9149C124.635 60.8852 124.575 60.8554 124.484 60.7958L124.515 60.8554Z" fill="#5F7C95"/>
<path d="M42.0922 57.6383C41.8209 58.0851 41.6703 58.3829 41.4593 58.6212C41.0374 59.217 41.0374 59.6936 41.7004 60.1106C41.9113 60.2595 42.062 60.4978 42.2428 60.7063L42.1524 60.8553C41.7908 60.7957 41.399 60.7361 41.0374 60.6765C40.5552 60.5872 40.2539 60.7659 40.1032 61.2425C39.9525 61.6297 39.7114 61.9574 39.4402 62.434C39.2292 61.6595 39.2292 60.9446 38.8676 60.5574C38.506 60.1702 37.7526 60.1404 37.0293 59.9021C37.4813 59.6042 37.7827 59.3063 38.1745 59.1872C38.7169 59.0383 38.7169 58.7106 38.6868 58.2936C38.6868 57.7872 38.6868 57.2808 38.6868 56.6255C39.1991 57.251 39.5306 57.9957 40.0429 58.1148C40.5552 58.2638 41.2484 57.817 42.1223 57.5787L42.0922 57.6383Z" fill="#5F7C95"/>
<path d="M129.999 46.7659C129.638 47.0042 129.457 47.1531 129.216 47.2723C128.131 47.8085 128.101 47.8383 128.191 49.0595C128.191 49.2383 128.131 49.4468 128.101 49.6553C127.92 49.5361 127.739 49.4765 127.588 49.3276C126.684 48.4042 126.684 48.4042 125.539 48.9106C125.358 49 125.147 49.0297 124.936 49.0893C124.906 48.9702 124.876 48.8808 124.876 48.8808C125.78 47.9276 125.84 47.0042 124.484 46.2297L124.665 46.0808C125.238 46.0808 125.931 46.2595 126.383 46.0212C126.805 45.7829 126.986 45.0978 127.408 44.4127C127.558 44.9787 127.739 45.3957 127.799 45.8425C127.86 46.2297 127.98 46.4085 128.372 46.468C128.854 46.5276 129.306 46.6765 129.969 46.8255L129.999 46.7659Z" fill="#5F7C95"/>
<path d="M70.3004 14.2681C70.2401 13.9106 70.21 13.7021 70.21 13.5234C70.1497 12.2723 70.0292 12.1532 68.7936 11.8255C68.6128 11.766 68.4621 11.5872 68.2813 11.3489C69.999 11.2894 70.5113 10.366 70.21 8.75745C70.3004 8.75745 70.3607 8.81702 70.4511 8.84681C70.6922 9.17447 70.9634 9.47234 71.1743 9.8C71.4757 10.3064 71.8072 10.4553 72.3798 10.1872C72.7113 10.0383 73.1332 10.0681 73.6756 9.97872C73.1633 10.634 72.8017 11.1106 72.4099 11.617C72.7414 12.1532 73.0428 12.6596 73.3441 13.166C73.314 13.2255 73.2839 13.2851 73.2537 13.3447C72.8318 13.2255 72.3798 13.166 72.0181 12.9574C71.5962 12.7191 71.4154 12.8681 71.1743 13.166C70.9332 13.4936 70.6922 13.8213 70.3305 14.2681H70.3004Z" fill="#5F7C95"/>
<path d="M122.044 37.6213C122.104 37.234 122.165 36.817 122.285 36.4596C122.406 36.0723 122.496 35.7745 121.954 35.6255C121.562 35.5064 121.23 35.2085 120.748 34.9106C121.11 34.7617 121.351 34.583 121.592 34.583C122.858 34.583 122.918 33.7191 123.008 32.8255C123.008 32.766 123.069 32.6766 123.129 32.4979C123.4 32.9149 123.702 33.2426 123.822 33.6298C124.003 34.1362 124.304 34.2553 124.786 34.1957C125.208 34.166 125.6 34.1957 126.173 34.1957C125.962 34.4638 125.841 34.6128 125.721 34.7617C125.078 35.3972 124.957 36.122 125.359 36.9362C125.419 37.0851 125.419 37.2638 125.449 37.5915C124.907 37.2936 124.455 37.1447 124.093 36.8468C123.702 36.5191 123.491 36.6681 123.219 36.9362C122.918 37.2043 122.587 37.4723 122.285 37.7404C122.225 37.7404 122.134 37.7106 122.074 37.6809L122.044 37.6213Z" fill="#5F7C95"/>
<path d="M103.419 63.8936C103.419 65.4426 103.148 65.6809 101.611 65.3532C101.4 65.3234 101.129 64.966 101.129 64.7277C101.129 63.9532 101.159 63.1489 101.31 62.4043C101.4 61.8681 101.852 61.4809 102.455 61.5702C102.997 61.6596 103.359 62.0468 103.419 62.6128C103.449 63 103.419 63.417 103.419 63.8043V63.8936Z" fill="#5F7C95"/>
<path d="M63.8817 63.5958C64.0022 63.0596 63.6105 62.3149 64.3639 61.8085C65.0269 61.3617 65.9611 61.7192 65.9912 62.5234C66.0515 63.2979 66.0515 64.1022 65.9912 64.9064C65.9912 65.0851 65.6899 65.2341 65.509 65.4128H65.4488C64.384 65.4922 63.8516 64.8865 63.8516 63.5958H63.8817Z" fill="#5F7C95"/>
<path d="M79.5224 50.251C79.1005 50.1915 78.4375 50.5787 78.4375 49.5659C78.4676 48.2851 78.7991 47.6 79.5827 47.5702C80.2457 47.5702 80.758 48.1659 80.7881 49.0298C80.7881 50.1915 80.7881 50.1915 79.5224 50.2213V50.251Z" fill="#5F7C95"/>
<path d="M84.7061 49.9532H82.5664C82.5664 49.3872 82.5664 48.8511 82.5664 48.3149C82.5664 47.7192 82.687 47.2426 83.4404 47.2128C84.2239 47.2128 84.6458 47.5106 84.7061 48.2553C84.7362 48.7915 84.7061 49.3277 84.7061 49.9532Z" fill="#5F7C95"/>
<path d="M88.7135 49.2383C88.593 49.566 88.5327 50.1319 88.382 50.1617C87.8396 50.2511 87.267 50.1617 86.6944 50.0723C86.604 50.0723 86.5136 49.8043 86.5136 49.6255C86.5136 49.2681 86.5136 48.9404 86.5136 48.583C86.5136 47.9277 86.7848 47.5702 87.4478 47.5404C88.0204 47.5106 88.5327 47.9277 88.593 48.5234C88.593 48.7319 88.593 48.9702 88.593 49.1787C88.6231 49.1787 88.6533 49.1787 88.7135 49.1787V49.2383Z" fill="#5F7C95"/>
<path d="M74.3984 50.6681C74.5491 50.1022 74.6094 49.4766 74.8203 48.9405C75.0012 48.4937 75.4833 48.3149 75.9354 48.4937C76.5682 48.7022 76.7491 49.2979 76.8395 49.8937C76.8997 50.3405 76.6586 50.5788 76.2066 50.6383C75.6943 50.6979 75.1518 50.8171 74.6395 50.9362L74.3984 50.6979V50.6681Z" fill="#5F7C95"/>
<path d="M70.6024 51.1149C70.5723 50.3106 70.6928 49.7149 71.4763 49.5064C72.0791 49.3574 72.5311 49.5957 72.6517 50.0723C72.7421 50.5191 73.1338 51.2042 72.2599 51.4723C71.8681 51.5915 71.4763 51.8596 71.0846 51.8596C70.4216 51.8893 70.6325 51.3234 70.5723 51.0851L70.6024 51.1149Z" fill="#5F7C95"/>
<path d="M92.4806 50.8468C91.8176 50.7277 91.2148 50.6085 90.5217 50.4894C90.2204 49.9532 90.2203 49.3277 90.7025 48.8808C90.9738 48.6426 91.5463 48.5234 91.8778 48.6128C92.5408 48.8213 92.6915 49.566 92.4806 50.8766V50.8468Z" fill="#5F7C95"/>
<path d="M96.4892 51.7999C95.7961 51.6212 95.1934 51.5021 94.6509 51.3233C94.2893 51.2042 94.1085 50.2808 94.44 50.0425C94.8016 49.8042 95.3441 49.6553 95.766 49.6851C96.0372 49.6851 96.3386 50.1616 96.429 50.4893C96.5495 50.8468 96.429 51.2638 96.429 51.7999H96.4892Z" fill="#5F7C95"/>
</svg>
