<svg width="172" height="83" viewBox="0 0 172 83" fill="none" xmlns="http://www.w3.org/2000/svg">
<path d="M170 42.7306C169.462 43.1956 169.26 43.9262 168.856 44.5904C168.654 44.8561 168.52 44.9889 168.183 44.9889C166.03 44.9889 163.945 44.9889 161.792 44.9889C161.657 44.9889 161.388 45.1218 161.388 44.7897C161.388 44.5904 161.657 44.6568 161.792 44.6568C162.599 44.6568 162.936 44.2583 162.936 43.5277C162.936 41.2694 162.936 38.9446 162.936 36.6863C162.936 35.5572 162.263 35.4244 161.455 35.1587H166.367C165.896 35.4908 165.492 35.3579 165.089 35.4244C164.55 35.4244 164.348 35.7565 164.348 36.2878C164.348 38.8118 164.348 41.2694 164.348 43.7934C164.348 44.2583 164.618 44.4576 165.021 44.4576C165.829 44.4576 166.636 44.4576 167.443 44.4576C168.318 44.4576 168.722 43.7934 169.193 43.1956C169.394 42.9299 169.596 42.6642 170 42.7306Z" fill="#5F7C95"/>
<path d="M137.705 24.0664C137.907 24.3985 138.311 24.1993 138.58 24.2657C140.396 24.797 141.473 26.3247 141.204 27.9852C140.867 29.9114 139.118 31.2399 137.167 31.107C135.687 30.9742 134.341 30.4428 133.736 28.9815C133.197 27.7196 133.399 26.524 134.274 25.4613C134.879 24.7306 135.687 24.3321 136.629 24.1328C136.763 24.1328 137.032 24.1993 137.1 24H137.773L137.705 24.0664ZM140.127 27.8524C140.127 25.9262 139.051 24.5978 137.302 24.5314C135.754 24.4649 134.678 25.4613 134.543 27.2546C134.341 29.1144 135.687 30.7749 137.503 30.8413C139.118 30.8413 140.195 29.7122 140.195 27.8524H140.127Z" fill="#5F7C95"/>
<path d="M70.2227 24.0664C70.5591 24.1993 70.7609 24.4649 70.8955 24.797C71.501 26.4576 72.1738 28.0517 72.7793 29.7122C72.9812 30.2435 73.183 30.7749 73.8558 30.9077H70.8955C70.8955 30.8413 70.8955 30.7749 70.9628 30.7749C71.7253 30.6421 71.972 30.2214 71.7029 29.5129C71.7029 29.5129 71.7029 29.5129 71.7029 29.4465C71.1646 27.9188 70.8955 27.786 69.2807 28.0517C69.0116 28.0517 68.9443 28.2509 68.8771 28.4502C68.6752 28.9151 68.5407 29.3801 68.3388 29.845C68.0697 30.4428 68.2715 30.7085 68.8771 30.7749C69.0116 30.7749 69.0789 30.7749 69.1462 30.9077C68.5407 31.107 67.5314 31.107 66.6568 30.9077C67.5987 30.7749 67.7333 29.9779 67.9351 29.3137C68.4061 27.9852 68.9443 26.7232 69.4153 25.3948C69.5499 24.9963 69.6844 24.5314 69.7517 24.1328C69.8863 24.1328 70.0881 24.1328 70.2227 24.1328V24.0664ZM70.8282 27.4539C70.6264 26.5904 70.3572 25.7934 69.9536 25.3284C69.8863 25.5941 69.7517 25.8598 69.6844 26.059C69.2807 27.0775 69.662 27.5424 70.8282 27.4539Z" fill="#5F7C95"/>
<path d="M89.9359 24.0664C90.0705 24.6642 90.1378 25.262 90.0705 25.9262C89.8014 25.9262 89.8014 25.7269 89.8014 25.5941C89.7341 24.8635 89.2631 24.7306 88.5903 24.7306C87.2447 24.7306 87.2447 24.7306 87.2447 25.9926C87.2447 27.1218 87.2447 28.2509 87.2447 29.4465C87.2447 30.2435 87.626 30.7085 88.3885 30.8413C87.9848 31.107 85.8991 31.107 84.9572 30.8413C85.3608 30.6421 85.8991 30.8413 86.1009 30.4428C86.3028 30.0443 86.1682 29.5793 86.1682 29.1808C86.1682 27.8524 86.1682 26.5904 86.1682 25.262C86.1682 24.8635 86.0336 24.6642 85.63 24.7306C83.8134 24.797 84.1498 24.3985 83.4097 25.9926C83.2751 25.3948 83.477 24.9299 83.4097 24.4649C83.4097 24.1993 83.5443 24.1993 83.8134 24.1993C85.4954 24.4649 87.1774 24.1993 88.8594 24.3321C89.1286 24.3321 89.3977 24.3321 89.5322 24.0664H89.9359Z" fill="#5F7C95"/>
<path d="M120.952 24.2657C120.952 24.1993 120.952 24.1328 120.952 24.0664C121.087 24.0664 121.289 24.0664 121.423 24.0664C121.423 24.0664 121.423 24.1993 121.423 24.2657C121.289 24.2657 121.154 24.2657 120.952 24.2657Z" fill="#5F7C95"/>
<path d="M128.757 34.9594C130.103 34.9594 131.381 34.9594 132.659 34.9594C132.726 34.9594 132.861 35.0258 132.928 35.0923C132.928 35.2251 132.861 35.2915 132.659 35.3579C131.852 35.3579 131.717 35.9557 131.717 36.6199C131.717 38.5461 131.717 40.4723 131.717 42.4649C131.717 43.6162 132.278 44.4354 133.399 44.9225H128.555C128.69 44.524 129.026 44.6568 129.228 44.6568C129.968 44.6568 130.372 44.2583 130.372 43.5277C130.372 42.5978 130.372 41.7343 130.372 40.8044C130.372 40.4059 130.304 40.2731 129.833 40.2731C128.084 40.2731 126.335 40.2731 124.586 40.2731C124.249 40.2731 124.047 40.3395 124.047 40.738C124.047 41.6679 124.047 42.5314 124.047 43.4613C124.047 44.3911 124.586 44.7232 125.46 44.7232C125.46 44.7897 125.393 44.8561 125.326 44.9225H121.289C121.289 44.8561 121.289 44.7897 121.289 44.7897C122.702 44.6568 122.702 43.6605 122.702 42.5978C122.702 40.6716 122.702 38.7454 122.702 36.8856C122.702 36.2214 122.702 35.4908 121.76 35.4244C121.625 35.4244 121.558 35.3579 121.558 35.2251C121.558 35.0922 121.692 35.0258 121.76 35.0258C122.971 35.0258 124.182 35.0258 125.393 35.0258C125.326 35.2251 125.326 35.2915 125.258 35.2915C123.913 35.4244 123.98 36.3542 124.047 37.2841C124.047 38.0148 123.711 39.0775 124.182 39.476C124.586 39.8745 125.595 39.6089 126.335 39.6089C127.411 39.6089 128.555 39.6089 129.632 39.6089C130.17 39.6089 130.304 39.4096 130.304 38.9446C130.304 38.214 130.304 37.4834 130.304 36.6863C130.304 35.6236 130.237 35.5572 129.161 35.3579C129.026 35.3579 128.891 35.3579 128.69 35.0258L128.757 34.9594Z" fill="#5F7C95"/>
<path d="M88.4557 56.679C88.4557 54.4207 88.4557 52.2952 88.4557 50.1697C88.4557 49.7048 88.1866 49.4391 87.6484 49.3063C87.3793 49.3063 87.0429 49.3063 86.7737 48.9742H90.7433C90.7433 49.107 90.7433 49.1734 90.676 49.1734C89.7789 49.4834 89.3304 50.1255 89.3304 51.0996C89.3304 53.4908 89.3304 55.8155 89.3304 58.2066C89.3304 58.4723 89.5322 58.8044 89.1958 59.0037C88.8594 59.1365 88.6576 58.8044 88.4557 58.6052C85.9664 56.0812 83.5443 53.4908 81.0549 50.9668C80.9203 50.8339 80.7857 50.7011 80.5166 50.5018C80.5166 51.8967 80.5166 53.0922 80.5166 54.3542C80.5166 55.3506 80.5166 56.3469 80.5166 57.4096C80.5166 58.1402 80.853 58.6052 81.6604 58.6052C81.795 58.6052 82.1314 58.5387 82.1314 58.8044C82.1314 59.1365 81.795 59.0037 81.6604 59.0037C80.7185 59.0037 79.7092 59.0037 78.7673 59.0037C78.6328 59.0037 78.4309 59.0037 78.4309 58.8044C78.4309 58.6052 78.6328 58.6052 78.7673 58.6052C79.642 58.6052 79.8438 58.0738 79.8438 57.3432C79.8438 55.0849 79.8438 52.893 79.8438 50.6347C79.8438 49.8376 79.642 49.4391 78.8346 49.3727C78.7 49.3727 78.5655 49.3727 78.4982 49.2399C79.3728 48.7749 81.0549 49.0406 81.7277 49.7048C83.9479 52.0295 86.2355 54.3542 88.5903 56.8118L88.4557 56.679Z" fill="#5F7C95"/>
<path d="M65.984 40.2066C66.1858 37.3506 67.666 35.6236 70.0881 34.9594C72.6448 34.2288 75.4033 35.0923 76.8162 37.0184C78.9692 40.0074 76.8162 44.524 72.9812 45.0554C70.8282 45.3875 68.877 44.9225 67.3296 43.3284C66.3877 42.3321 65.984 41.203 66.0513 40.2066H65.984ZM76.0761 40.2066C76.0761 38.9446 75.6724 37.6827 74.9323 36.8192C73.1157 34.4945 69.5499 34.6273 68.2042 37.1513C67.1278 39.1439 67.2623 41.0701 68.6079 42.9299C69.5499 44.2583 70.9628 44.8561 72.5775 44.7232C74.1249 44.5904 75.0669 43.6605 75.6724 42.2657C75.9415 41.6015 76.0088 40.9373 76.0761 40.2731V40.2066Z" fill="#5F7C95"/>
<path d="M64.3692 42.5314C64.5038 43.262 64.2347 43.9926 64.2347 44.7232C64.2347 44.9225 64.0328 44.9225 63.8983 44.9225C61.207 44.9225 58.4485 44.9225 55.7573 44.9225C55.7573 44.9225 55.6227 44.8561 55.5555 44.7897C55.8919 44.4576 56.3628 44.6568 56.6992 44.524C57.2375 44.3911 57.5066 44.1255 57.5066 43.5941C57.5739 41.1365 57.5739 38.679 57.5066 36.2214C57.5066 35.69 57.1702 35.4244 56.632 35.3579C56.3628 35.3579 56.0937 35.3579 55.8919 35.1587C55.9591 34.8266 56.2283 34.9594 56.4301 34.9594C58.6504 34.9594 60.8706 34.9594 63.0236 34.9594C63.4946 34.9594 63.7637 35.0923 63.6964 35.5572C63.6964 36.0886 63.831 36.6199 63.6964 37.1513C63.4273 37.1513 63.4273 37.0849 63.36 36.952C62.9563 35.6236 62.8891 35.5572 61.5435 35.5572C60.6688 35.5572 59.525 35.1587 58.9868 35.69C58.5831 36.155 58.8522 37.2841 58.8522 38.1476C58.8522 39.4096 58.8522 39.4096 60.1306 39.4096C60.467 39.4096 60.8034 39.4096 61.0725 39.4096C61.8799 39.4096 62.5527 39.2768 62.6199 38.3469C62.6199 38.3469 62.7545 38.2804 62.9563 38.0812C62.9563 39.1439 62.9563 40.1402 62.9563 41.0701C62.9563 41.1365 62.8891 41.2694 62.7545 41.2694C62.6199 41.2694 62.5527 41.1365 62.5527 41.0037C62.5527 40.0074 61.8126 39.941 61.0725 40.0074C60.3324 40.0074 59.3905 39.7417 58.9868 40.1402C58.5158 40.5387 58.8522 41.5351 58.8522 42.2657C58.8522 44.3911 58.7177 44.1919 60.8706 44.1919C61.0725 44.1919 61.2743 44.1919 61.5435 44.1919C62.8218 44.3247 63.6964 43.9262 63.9656 42.5978C63.9656 42.4649 64.0328 42.3985 64.302 42.3985L64.3692 42.5314Z" fill="#5F7C95"/>
<path d="M77.1526 56.4797C77.0853 57.2103 77.018 57.8745 76.9507 58.6052C76.9507 58.8709 76.6816 58.8709 76.4798 58.8709C73.9231 58.8709 71.3664 58.8709 68.8098 58.8709C68.6752 58.8709 68.3388 58.9373 68.3388 58.6716C68.3388 58.4059 68.6079 58.4723 68.7425 58.4723C70.0881 58.3395 70.2227 58.2731 70.2227 56.8782C70.2227 54.8856 70.2227 52.8266 70.2227 50.834C70.2227 49.4391 70.2227 49.3727 68.8098 49.1734C68.8098 49.1734 68.6752 49.107 68.6079 49.0406C68.6079 48.7085 68.8771 48.8413 69.0789 48.8413C71.3664 48.8413 73.5867 48.8413 75.8743 48.8413C76.2779 48.8413 76.4798 48.8413 76.4798 49.3063C76.4798 49.8376 76.4798 50.3026 76.6143 50.834C76.6143 50.9668 76.6143 51.0332 76.4798 51.0996C76.3452 51.0996 76.2779 51.0996 76.2779 50.9004C76.1434 49.3063 74.9996 49.3727 73.8558 49.4391C73.183 49.4391 72.3084 49.2399 71.9047 49.572C71.501 49.9041 71.7701 50.8339 71.7701 51.4982C71.7701 53.3579 71.7701 53.3579 73.5867 53.3579C73.9231 53.3579 74.2595 53.3579 74.5286 53.3579C75.1342 53.3579 75.336 52.9594 75.4033 52.4945C75.4033 52.3616 75.4033 52.1624 75.6724 52.2288C75.807 52.2288 75.807 52.428 75.807 52.5609C75.807 53.3579 75.807 54.155 75.807 54.952C75.807 55.0849 75.807 55.2177 75.6724 55.2841C75.4706 55.2841 75.4706 55.1513 75.4706 55.0185C75.4033 54.0886 74.7978 53.9557 73.9904 54.0221C73.2503 54.0221 72.3084 53.8229 71.9047 54.155C71.4337 54.5535 71.7701 55.4834 71.7701 56.214C71.7701 58.4723 71.4337 58.2066 73.8558 58.2731C74.125 58.2731 74.3268 58.2731 74.5959 58.2731C76.1434 58.2731 76.2107 58.2731 76.8162 56.8118C76.8162 56.679 76.8835 56.4797 77.2199 56.5461L77.1526 56.4797Z" fill="#5F7C95"/>
<path d="M102.248 49.0406C102.383 48.7749 102.585 48.9077 102.787 48.9077C105.007 48.9077 107.227 48.9077 109.38 48.9077C109.851 48.9077 110.053 49.0406 110.053 49.5055C110.053 50.0369 110.053 50.5683 110.12 51.2325C109.649 51.0332 109.716 50.7011 109.582 50.4354C109.38 49.9041 109.044 49.572 108.438 49.572C107.563 49.572 106.689 49.572 105.747 49.572C105.41 49.572 105.209 49.572 105.209 50.0369C105.209 51.0332 105.209 52.0295 105.209 52.9594C105.209 53.3579 105.343 53.4244 105.747 53.4244C106.352 53.4244 106.958 53.4244 107.496 53.4244C108.236 53.4244 108.842 53.4244 108.909 52.4945C108.909 52.3616 108.909 52.2952 109.111 52.2952C109.245 52.2952 109.245 52.428 109.245 52.4945C109.245 53.4244 109.245 54.3542 109.245 55.3506C109.111 55.3506 108.976 55.3506 108.976 55.3506C108.505 54.0886 108.505 54.0886 107.093 54.0886C106.487 54.0886 105.68 53.8893 105.276 54.2214C104.872 54.5535 105.141 55.417 105.141 56.0148C105.141 56.5461 105.141 57.0111 105.141 57.5424C105.141 58.0738 105.41 58.3395 105.949 58.3395C106.756 58.3395 107.563 58.3395 108.371 58.3395C109.313 58.3395 109.851 58.0074 110.12 57.1439C110.187 56.8782 110.187 56.6125 110.658 56.4133C110.591 57.2103 110.524 57.941 110.457 58.6716C110.457 58.9373 110.187 58.9373 109.986 58.9373C107.429 58.9373 104.805 58.9373 102.248 58.9373C102.114 58.9373 101.845 59.0037 101.845 58.738C101.845 58.5387 102.114 58.6052 102.248 58.6052C103.728 58.4723 103.796 58.4059 103.796 56.9446C103.796 54.952 103.796 52.893 103.796 50.9004C103.796 49.6384 103.728 49.572 102.383 49.3727C102.248 49.3727 102.181 49.3727 102.181 49.1734L102.248 49.0406Z" fill="#5F7C95"/>
<path d="M85.4954 40.6716H90.0032C90.0032 41.0037 89.7341 40.9373 89.5995 41.0037C89.1286 41.1365 88.8594 41.4686 88.9267 41.9336C88.9267 42.2657 88.9267 42.5978 88.9267 42.9963C88.9267 44.3247 88.9267 44.3247 87.6484 44.7232C86.1682 45.1882 84.688 45.3875 83.2078 45.0553C80.9203 44.524 79.3728 42.5314 79.3728 40.2066C79.3728 37.6827 81.0549 35.4908 83.477 34.9594C84.688 34.6937 85.8991 34.7601 87.0429 34.9594C87.312 34.9594 87.5811 35.2251 87.7829 35.1587C88.994 34.9594 88.9267 35.69 88.7922 36.4871C88.7922 36.8856 88.994 37.6162 88.6576 37.6827C88.1866 37.8155 88.2539 37.0849 88.0521 36.7528C87.1774 35.2915 85.0917 34.7601 83.2751 35.6236C81.5931 36.4207 80.5839 38.679 80.853 40.8708C81.1894 42.9963 82.4678 44.4576 84.4862 44.7897C85.3608 44.9225 86.2355 44.7232 87.0429 44.3911C87.1774 44.3911 87.3793 44.2583 87.3793 44.1919C87.3793 43.3284 87.5811 42.3985 87.2447 41.5351C87.1101 41.2029 86.7065 41.1365 86.37 41.0701C86.1009 41.0701 85.7645 41.203 85.4281 40.8044L85.4954 40.6716Z" fill="#5F7C95"/>
<path d="M55.2191 40.6716C55.2191 41.0037 55.0172 40.9373 54.8827 40.9373C54.3444 41.0701 54.0753 41.4022 54.0753 41.9336C54.0753 42.2657 54.0753 42.5978 54.0753 42.9963C54.0753 44.1919 54.0753 44.1919 52.8642 44.5904C51.3841 45.0553 49.9039 45.321 48.3564 44.9889C46.0689 44.4576 44.5214 42.4649 44.5214 40.1402C44.5214 37.6162 46.2034 35.4244 48.6256 34.893C49.8366 34.6273 51.0477 34.6937 52.1914 34.9594C52.3933 34.9594 52.5951 34.9594 52.7297 35.0922C53.1334 35.2915 53.7389 34.9594 53.9407 35.2915C54.1426 35.69 54.008 36.2214 53.9407 36.6863C53.9407 37.0184 54.2099 37.5498 53.7389 37.6827C53.4025 37.7491 53.4025 37.1513 53.2679 36.8856C52.3933 35.0922 49.8366 34.5609 47.9527 35.8229C46.0689 37.1513 45.7325 39.0775 46.0689 41.1365C46.338 42.9963 47.7509 44.3247 49.6348 44.6568C50.5094 44.7897 51.3841 44.5904 52.1914 44.2583C52.326 44.2583 52.4606 44.1255 52.4606 44.059C52.4606 43.1956 52.6624 42.3321 52.3933 41.4686C52.2587 41.0701 51.855 41.0037 51.4513 40.9373C51.1822 40.9373 50.8458 41.0037 50.5094 40.6716H55.2191Z" fill="#5F7C95"/>
<path d="M153.987 44.8561H150.287C151.901 44.524 151.901 43.1292 152.372 42C153.247 39.8745 153.987 37.6827 154.795 35.5572C154.996 35.0923 154.929 34.5609 155.736 34.6937C156.14 34.7601 156.409 34.8266 156.544 35.2915C157.486 37.7491 158.36 40.2066 159.302 42.6642C159.639 43.5941 159.773 44.7232 161.119 44.6568C161.119 44.9889 160.85 44.9225 160.715 44.9225C159.504 44.9225 158.36 44.9225 157.149 44.9225C156.948 44.9225 156.678 45.0554 156.678 44.7232C156.678 44.4576 156.948 44.5904 157.149 44.5904C157.351 44.5904 157.553 44.5904 157.688 44.5904C158.293 44.5904 158.428 44.1919 158.226 43.7269C157.889 42.797 157.486 41.9336 157.217 41.0037C157.082 40.6716 156.948 40.5387 156.611 40.6052H156.477C155.602 40.6052 154.324 40.2066 153.853 40.8044C153.113 41.6015 152.978 42.8635 152.574 43.9262C152.44 44.3247 152.642 44.524 153.045 44.6568C153.382 44.7897 153.785 44.6568 154.122 45.0554L153.987 44.8561ZM153.987 39.8081C154.862 39.8081 155.535 39.8081 156.275 39.8081C156.544 39.8081 156.678 39.8081 156.611 39.476C156.207 38.4133 155.804 37.417 155.333 36.2214C154.862 37.5498 154.458 38.6125 153.987 39.8745V39.8081Z" fill="#5F7C95"/>
<path d="M101.239 56.2804C101.037 57.0775 100.768 57.6753 100.432 58.3395C100.364 58.4723 100.297 58.6052 100.095 58.6716C98.4806 58.8044 96.9331 59.4022 95.2511 59.0037C92.5599 58.4059 90.8778 56.4797 90.9451 53.7565C90.9451 51.2325 92.9636 49.107 95.5875 48.7749C96.8658 48.5756 98.1442 48.7085 99.4225 49.107C99.4898 49.107 99.5571 49.107 99.6244 49.1734C99.9608 49.4391 100.566 48.9742 100.701 49.3727C100.903 49.9705 100.768 50.6347 100.835 51.2989C100.835 51.4317 100.835 51.4982 100.701 51.4982C100.432 51.4982 100.432 51.2325 100.364 51.0996C99.5571 49.6384 98.2115 48.9742 96.5294 49.107C94.5783 49.2399 93.1654 50.4354 92.6944 52.2952C92.0889 54.5535 92.9636 56.8782 94.8474 58.0074C96.7313 59.1365 99.2207 58.738 100.566 56.9446C100.768 56.679 100.835 56.3469 101.306 56.2804H101.239Z" fill="#5F7C95"/>
<path d="M149.143 35.1587C149.143 35.8893 149.278 36.4871 149.345 37.0849C149.345 37.2841 149.479 37.4834 149.21 37.5498C148.874 37.6827 148.874 37.3506 148.807 37.2177C147.461 34.893 144.164 34.428 142.28 36.3542C140.867 37.8155 140.666 39.5424 141.271 41.4022C141.809 43.1956 143.02 44.3911 144.972 44.6568C146.788 44.9225 148.134 44.2583 149.21 42.797C149.345 42.5978 149.412 42.2657 149.681 42.4649C149.883 42.5978 149.681 42.8635 149.614 43.0627C149.278 44.1255 148.874 44.8561 147.461 44.9889C145.981 45.1218 144.501 45.3875 143.02 44.9889C140.666 44.2583 139.32 42.2657 139.455 39.8081C139.589 37.417 141.271 35.5572 143.626 35.0258C145.039 34.6937 146.452 34.8266 147.865 35.2251C148.268 35.3579 148.672 35.69 149.21 35.2251L149.143 35.1587Z" fill="#5F7C95"/>
<path d="M57.6412 59.1365C54.5463 59.1365 52.2587 57.2768 51.9896 54.6863C51.6532 51.2989 54.008 48.7749 57.5739 48.7085C58.5158 48.7085 59.3905 48.7749 60.2651 49.107C60.467 49.107 60.6688 49.1734 60.8034 49.3063C61.0725 49.5055 61.6107 49.107 61.7453 49.4391C61.8799 50.1033 61.8799 50.7675 61.8799 51.4317C61.8799 51.631 61.678 51.6974 61.5435 51.5646C61.5435 51.5646 61.4762 51.4317 61.4089 51.3653C60.0633 49.4391 58.4485 48.7749 56.4301 49.4391C54.5463 50.0369 53.4025 51.8303 53.537 54.0221C53.6043 55.2177 54.008 56.3469 54.8154 57.2768C56.8338 59.4686 59.9287 59.2694 61.678 56.8782C61.8126 56.679 61.8799 56.3469 62.149 56.4797C62.4181 56.6125 62.149 56.8782 62.149 57.0775C61.8126 58.1402 61.4089 59.0037 59.996 58.9373C59.2559 58.9373 58.4485 59.2694 57.7085 59.203L57.6412 59.1365Z" fill="#5F7C95"/>
<path d="M50.173 50.9668C49.8366 50.9668 49.8366 50.5683 49.702 50.369C48.962 49.3063 47.8182 48.8413 46.7417 49.1734C45.6652 49.5055 45.3288 50.5683 46.0016 51.4317C46.4053 51.9631 47.0108 52.3616 47.5491 52.6937C48.2219 53.1587 48.8947 53.5572 49.5675 54.0221C50.5767 54.8192 51.1822 55.7491 50.7785 57.0775C50.4421 58.1402 49.3656 58.9373 48.02 59.0701C47.6163 59.0701 47.1454 59.0701 46.7417 59.0037C46.4053 58.9373 46.0689 58.738 45.7325 58.8044C44.5214 59.0701 44.5887 58.1402 44.5214 57.476C44.5214 57.1439 44.185 56.6125 44.5214 56.4797C44.9251 56.3469 44.8578 56.9446 44.9924 57.2103C45.6652 58.4059 47.0781 58.9373 48.2891 58.4723C49.6348 57.941 49.9712 56.6125 48.962 55.5498C48.3564 54.952 47.6163 54.4871 46.8762 54.0221C46.2707 53.6236 45.6652 53.2251 45.1269 52.7601C44.4541 52.0959 44.1177 51.2989 44.4541 50.369C44.7233 49.4391 45.4634 48.9742 46.4053 48.7749C47.1454 48.5756 47.8855 48.6421 48.6256 48.8413C48.7601 48.8413 48.8947 48.9742 49.0292 48.9742C50.4421 48.7749 50.1057 49.8376 50.2403 50.5683C50.2403 50.7011 50.3748 50.9004 50.173 51.0332V50.9668Z" fill="#5F7C95"/>
<path d="M118.127 51.0332C117.656 50.9004 117.656 50.5683 117.454 50.369C116.714 49.3727 115.57 48.9077 114.493 49.2399C113.417 49.6384 113.08 50.7011 113.821 51.5646C114.224 52.0295 114.695 52.3616 115.233 52.6937C115.906 53.1587 116.646 53.5572 117.319 54.0886C118.463 55.0184 118.867 56.0148 118.53 57.1439C118.194 58.2731 117.05 59.0037 115.704 59.1365C115.099 59.1365 114.493 59.0701 113.888 58.8708C113.753 58.8708 113.551 58.8708 113.417 58.738C113.081 58.5387 112.61 59.1365 112.475 58.6716C112.273 58.0074 112.273 57.2768 112.139 56.5461C112.139 56.5461 112.206 56.4133 112.273 56.4133C112.408 56.4133 112.475 56.4133 112.475 56.6125C112.542 56.9446 112.744 57.2768 112.946 57.6089C113.888 58.8044 115.704 59.0037 116.714 58.0738C117.386 57.4096 117.454 56.5461 116.916 55.8155C116.445 55.2177 115.772 54.8192 115.099 54.3542C114.359 53.8893 113.551 53.4244 112.879 52.7601C112.273 52.0959 111.937 51.3653 112.206 50.4354C112.475 49.5055 113.215 48.9742 114.224 48.7749C114.964 48.6421 115.637 48.6421 116.377 48.8413C116.579 48.8413 116.781 49.0406 116.916 48.9742C118.127 48.7085 117.925 49.572 117.992 50.2362C117.992 50.4354 117.992 50.7011 118.059 50.9668L118.127 51.0332Z" fill="#5F7C95"/>
<path d="M101.172 30.9742H98.4133C99.4225 30.8413 99.3552 30.1107 99.2879 29.3801C99.1534 28.1845 99.0861 26.9225 98.8843 25.6605C98.5479 26.3911 98.1442 27.1882 97.8078 27.9188C97.4041 28.7823 97.0004 29.5793 96.5967 30.4428C96.5294 30.6421 96.4622 30.9077 96.2603 30.9077C95.9239 30.9077 95.9239 30.5756 95.8566 30.3764C95.0493 28.7823 94.3092 27.1218 93.4345 25.3284C93.3 27.0554 93.2327 28.5166 93.1654 29.9779C93.1654 30.5756 93.6364 30.5756 94.0401 30.8413H91.6852C92.0216 30.5756 92.4926 30.6421 92.5599 30.31C92.6272 29.9779 92.6944 29.7122 92.6944 29.3801C92.7617 28.1181 92.8963 26.8561 92.9636 25.5941C92.9636 25.0627 93.0981 24.5314 92.2235 24.4649C93.7709 24.0664 93.9055 24.1328 94.511 25.3284C95.1838 26.7232 95.8566 28.0517 96.5967 29.5793C97.3368 28.1181 97.9423 26.7232 98.6151 25.3948C99.0188 24.5535 99.7813 24.2214 100.903 24.3985C100.163 24.5314 100.028 24.9299 100.095 25.4613C100.23 26.9225 100.364 28.4502 100.432 29.9114C100.432 30.5092 100.768 30.7749 101.306 30.9077L101.172 30.9742Z" fill="#5F7C95"/>
<path d="M138.378 34.9594C138.311 35.1587 138.311 35.1587 138.311 35.1587C136.831 35.2915 136.965 36.3542 136.965 37.3506C136.965 39.0775 136.965 40.738 136.965 42.4649C136.965 44.1919 136.965 44.1255 138.378 44.7232C137.974 45.0554 137.571 44.8561 137.167 44.8561C136.36 44.8561 135.552 44.8561 134.745 44.8561C134.61 44.8561 134.476 44.9225 134.408 44.7232C134.408 44.524 134.543 44.4576 134.678 44.4576C135.35 44.3911 135.552 43.9262 135.552 43.3284C135.552 41.0037 135.552 38.679 135.552 36.3542C135.552 35.7565 135.35 35.2915 134.678 35.2915C134.543 35.2915 134.408 35.2915 134.408 35.0923C134.408 34.9594 134.476 34.893 134.61 34.893C135.821 34.893 137.1 34.893 138.378 34.893V34.9594Z" fill="#5F7C95"/>
<path d="M63.4946 48.9742H67.5314C67.5314 49.0406 67.5314 49.107 67.5314 49.107C66.6792 49.417 66.2531 50.0369 66.2531 50.9668C66.2531 53.0258 66.2531 55.0849 66.2531 57.0775C66.2531 57.8081 66.3877 58.4059 67.3296 58.4723C67.4642 58.4723 67.5987 58.4723 67.5987 58.6716C67.5987 58.8708 67.4642 58.8708 67.3296 58.8708C66.2531 58.8708 65.1093 58.8708 64.0328 58.8708C63.8983 58.8708 63.7637 58.8708 63.7637 58.6716C63.7637 58.4723 63.8983 58.4723 64.0328 58.4723C64.7729 58.4723 64.9075 57.941 64.9075 57.2768C64.9075 55.2841 64.9075 53.2251 64.9075 51.2325C64.9075 50.214 64.4814 49.4613 63.6292 48.9742H63.4946Z" fill="#5F7C95"/>
<path d="M75.5378 24.4649C76.9507 24.1993 78.2964 24.0664 79.5747 24.3321C80.3821 24.5314 80.9876 24.9299 81.1894 25.7934C81.324 26.6568 80.9203 27.1882 80.2475 27.6531C80.0457 27.786 79.7765 27.786 80.0457 28.1181C80.7857 29.1144 81.1894 30.2435 82.4005 30.9742C81.6604 31.1734 81.1221 30.9077 80.6512 30.4428C80.0457 29.9114 79.7093 29.2472 79.3056 28.583C79.0364 28.1845 78.0945 27.9852 77.7581 28.1845C77.6235 28.1845 77.6236 28.3173 77.6236 28.4502C77.6236 28.9815 77.6236 29.5793 77.6236 30.1107C77.6236 30.7085 78.2291 30.7085 78.6328 30.9077H75.6051C76.6143 30.8413 76.6143 30.0443 76.6143 29.3137C76.6143 28.1845 76.6143 27.0554 76.6143 25.9262C76.6143 25.1956 76.6143 24.5314 75.5378 24.4649ZM78.2291 24.4649C77.96 24.5314 77.489 24.2657 77.489 24.8635C77.489 25.7269 77.489 26.5904 77.489 27.4539C77.489 27.5867 77.489 27.786 77.6908 27.8524C78.2291 28.1181 79.5747 27.6531 79.8438 27.0554C80.5166 25.7269 79.7093 24.4649 78.1618 24.3985L78.2291 24.4649Z" fill="#5F7C95"/>
<path d="M43.7813 30.9742C44.4093 30.6642 44.7233 30.1328 44.7233 29.3801C44.7233 28.1181 44.7233 26.9225 44.7233 25.6605C44.7233 24.7306 44.7233 24.7306 43.7813 24.5314C43.7813 24.3985 43.7813 24.3321 43.8486 24.3321C45.2615 24.2657 46.7417 24.0664 48.1546 24.3321C50.0384 24.6642 51.1149 25.6605 51.1149 27.321C51.1149 28.9815 50.1057 30.4428 48.3564 30.8413C46.809 31.1734 45.2615 30.9742 43.7141 30.9742H43.7813ZM45.6652 27.5867C45.6652 28.3838 45.6652 29.2472 45.6652 30.0443C45.6652 30.3764 45.6652 30.6421 46.0689 30.7085C47.2799 31.107 49.0965 30.3764 49.702 29.2472C50.3748 27.9852 50.3748 26.7232 49.4329 25.5941C48.5583 24.4649 47.2799 24.4649 46.0016 24.5314C45.5979 24.5314 45.6652 24.797 45.6652 24.9963C45.6652 25.8598 45.6652 26.7232 45.6652 27.5203V27.5867Z" fill="#5F7C95"/>
<path d="M103.19 24.3321C104.805 24.3321 106.42 24.3321 108.034 24.3321C108.236 24.3321 108.371 24.3321 108.371 24.6642C108.371 25.0627 108.371 25.4613 108.371 25.8598C108.034 25.4613 108.034 24.7306 107.227 24.797C106.689 24.797 106.083 24.797 105.545 24.797C105.276 24.797 105.209 24.9299 105.209 25.1956C105.209 25.3948 105.209 25.5941 105.209 25.8598C105.209 27.4539 105.545 27.6531 107.16 27.3875C107.631 27.321 107.563 26.8561 107.833 26.5904C108.034 27.1882 108.034 27.8524 107.833 28.7823C107.429 27.3875 106.352 27.9852 105.545 27.8524C105.276 27.8524 105.141 27.9852 105.209 28.2509C105.209 28.3838 105.209 28.583 105.209 28.7159C105.276 29.3137 104.872 30.1771 105.478 30.5092C106.151 30.9077 107.025 30.7085 107.765 30.5756C108.371 30.5092 108.438 29.845 108.775 29.2472C108.909 29.9114 108.775 30.3764 108.775 30.8413C108.775 31.0406 108.64 31.107 108.438 31.107C106.622 31.107 104.872 31.107 103.056 31.107C103.056 30.7749 103.258 30.8413 103.325 30.8413C104.065 30.8413 104.334 30.5092 104.267 29.7786C104.267 28.5166 104.267 27.2546 104.267 25.9262C104.267 25.1734 103.93 24.6642 103.258 24.3985L103.19 24.3321Z" fill="#5F7C95"/>
<path d="M112.206 25.3948C112.206 27.0554 112.206 28.5166 112.206 30.0443C112.206 30.7749 112.811 30.7749 113.282 30.9742H110.726C110.995 30.6421 111.533 30.8413 111.6 30.3764C111.6 30.0443 111.668 29.7122 111.668 29.3801C111.668 28.2509 111.668 27.1218 111.668 25.9926C111.668 25.262 111.668 24.6642 110.726 24.5978C111.735 24.4649 112.542 24.3985 113.35 25.262C114.695 26.6568 116.243 27.8524 117.521 28.9815C117.521 28.0517 117.521 26.5904 117.521 25.1292C117.521 24.6642 116.983 24.7306 116.445 24.5314H119.001C118.059 24.5978 118.059 25.262 118.127 25.9926C118.127 27.4539 118.127 28.9815 118.127 30.4428C118.127 30.6421 118.261 30.9742 117.992 31.107C117.656 31.2399 117.521 30.9077 117.386 30.7085C115.704 28.9815 114.09 27.321 112.273 25.4613L112.206 25.3948Z" fill="#5F7C95"/>
<path d="M57.6412 26.5904V28.5166C57.1029 27.2546 56.0264 27.8524 55.1518 27.7196C54.9499 27.7196 54.8827 27.8524 54.8827 27.9852C54.8827 28.1181 54.8827 28.3173 54.8827 28.4502C54.8827 30.7749 54.6135 30.4428 56.9011 30.5092C57.5739 30.5092 57.9776 30.31 58.1794 29.6458C58.1794 29.5129 58.1794 29.3137 58.5158 29.3137C58.5158 29.7786 58.4485 30.2435 58.3813 30.7085C58.3813 30.9077 58.1794 30.9742 58.0449 30.9742C56.2956 30.9742 54.479 30.9742 52.7297 30.9742C52.7297 30.9742 52.6624 30.9077 52.5951 30.8413C52.797 30.6421 52.9988 30.7085 53.2006 30.7085C53.6716 30.7085 53.8734 30.4428 53.8734 29.9779C53.8734 28.3838 53.8734 26.8561 53.8734 25.262C53.8734 24.5314 53.2679 24.5978 52.8642 24.3321C54.479 24.3321 56.0937 24.3321 57.7085 24.3321C57.9776 24.3321 58.0449 24.3985 58.0449 24.6642C58.0449 25.0627 58.0449 25.3948 58.0449 25.9926C57.5066 24.8635 56.2283 24.3985 55.0845 24.7306C54.8827 24.7306 54.8827 24.9299 54.8827 25.0627C54.8827 25.262 54.8827 25.4613 54.8827 25.7269C54.8827 27.3875 54.8827 27.3875 56.5647 27.3875C57.1702 27.3875 57.3048 26.9889 57.6412 26.6568V26.5904Z" fill="#5F7C95"/>
<path d="M28.9123 32.7675C29.0469 32.9004 29.1814 33.0332 29.316 33.1661C29.316 33.2989 29.3833 33.4317 29.5178 33.4317C29.5178 33.4982 29.5178 33.5646 29.6524 33.631C29.6524 33.631 29.7197 33.7638 29.7869 33.8303C29.7869 33.9631 29.7869 34.0959 29.9888 34.1624C29.9888 34.5609 30.3925 34.9594 30.1233 35.4244C29.6524 35.4244 29.2487 35.1587 29.1141 34.8266C28.7777 34.2288 28.4413 34.2952 27.9704 34.5609C27.634 34.5609 27.2303 34.5609 27.5667 35.1587C27.9031 35.7565 28.1722 36.4207 28.5086 37.0849C28.5086 37.2177 28.5759 37.417 28.7777 37.417C29.9215 37.3506 30.0561 38.214 30.3252 38.9446C30.3252 39.0111 30.3252 39.1439 30.3252 39.2103C30.3252 39.3432 30.3252 39.476 30.3252 39.5424C30.3252 39.5424 30.3252 39.6089 30.3252 39.6753V40.0074C30.1906 40.4059 29.4505 40.2066 29.5851 40.8044C29.7869 41.5351 29.5851 42.1993 29.2487 42.797C29.0469 42.797 28.9123 42.8635 28.7105 42.9299H28.5759C28.7105 40.3395 28.0376 37.8819 26.8266 35.5572C26.692 34.9594 26.2211 34.4945 26.0192 33.9631C26.0192 33.9631 26.0192 33.9631 26.0192 33.8967C26.7593 33.7638 27.5667 33.631 28.2395 33.2325C28.5759 33.2325 28.6432 33.0332 28.845 32.8339L28.9123 32.7675Z" fill="#5F7C95"/>
<path d="M143.222 30.9077C143.962 30.6421 143.962 30.1107 143.962 29.5129C143.962 28.3173 143.962 27.0554 143.962 25.8598C143.962 25.262 143.962 24.6642 143.222 24.3321C144.702 24.3321 146.183 24.3321 147.73 24.3321C147.999 24.3321 148.066 24.4649 148.066 24.7306C148.066 24.9963 148.066 25.262 148.066 25.7934C147.461 24.2657 146.25 24.8635 145.308 24.7306C145.039 24.7306 144.904 24.8635 144.904 25.1292C144.904 25.262 144.904 25.3284 144.904 25.4613C144.904 27.321 144.904 27.321 146.788 27.2546C147.259 27.2546 147.528 26.9889 147.797 26.5904C147.932 27.2546 147.932 27.8524 147.865 28.5166C147.394 27.8524 145.913 27.4539 145.173 27.7196C144.904 27.786 144.972 27.9852 144.972 28.1845C144.972 28.6494 144.972 29.1144 144.972 29.5129C144.972 30.1771 145.33 30.6642 146.048 30.9742H143.29L143.222 30.9077Z" fill="#5F7C95"/>
<path d="M31.1998 48.0443C30.7962 48.31 30.527 48.6421 30.527 49.107C30.2579 49.107 30.2579 49.2399 30.1906 49.4391C30.0561 49.4391 29.9888 49.6384 29.9888 49.7712C29.7197 49.7712 29.7197 49.9705 29.6524 50.1697C29.1141 50.7011 28.6432 51.166 28.1049 51.6974C27.634 51.631 27.2303 51.6974 26.8939 52.0295C26.5575 52.3616 26.1538 52.5609 25.8174 52.8266C25.6155 52.9594 25.4137 53.2251 25.1446 52.8266C26.4229 51.8967 27.0284 50.5683 27.7685 49.2399C28.1049 49.8376 28.0376 50.4354 28.1049 51.0996C29.4505 49.5055 30.2579 47.7786 30.5943 45.8524C30.7962 44.7897 31.1326 43.6605 30.7962 42.5978C30.7962 42.5978 30.7962 42.5978 30.7962 42.5314H31.1326C31.5362 42.3985 31.8726 42.2657 32.2763 42.1993C32.4109 43.9926 32.0072 45.7196 31.3344 47.3137C31.1998 47.5793 30.998 47.845 31.1326 48.1771L31.1998 48.0443Z" fill="white"/>
<path d="M17.4073 29.6458C20.3004 28.9815 22.9916 29.3137 25.6828 30.5756C26.1538 30.7749 26.692 30.9077 26.9612 31.4391C26.7593 31.4391 26.5575 31.4391 26.4229 31.572C26.2883 31.8376 26.5575 31.9041 26.692 32.1033C26.8939 32.4354 27.3648 32.5018 27.4321 32.9004C26.5575 33.1661 25.8174 33.0996 25.2791 32.3026C25.2119 32.2362 25.1446 32.1697 25.01 32.1033C25.01 32.1033 24.8755 32.0369 24.8082 31.9705C24.8082 31.8376 24.6736 31.7712 24.539 31.9041C24.4718 32.0369 24.539 32.0369 24.6736 32.1033C24.6736 32.1033 24.7409 32.1697 24.8082 32.2362C24.8755 32.3026 24.9427 32.4354 25.0773 32.5018C25.0773 32.5018 25.0773 32.5683 25.0773 32.6347C24.9427 32.6347 24.7409 32.7675 24.6063 32.8339C24.2026 32.4354 23.8662 32.0369 23.3953 31.6384C23.2607 31.5055 23.1262 31.1734 22.7897 31.3063C22.1169 31.572 21.7133 31.1734 21.175 30.9077C21.1077 30.2435 20.5695 29.9779 20.0312 29.7786C19.6948 29.3801 19.6276 29.9114 19.4257 29.9114C19.3584 29.845 19.2911 29.7786 19.2239 29.9114C19.022 29.9114 18.8875 29.9114 18.7529 30.0443C18.5511 29.7786 18.3492 29.845 18.2147 30.0443C18.0801 30.0443 17.9455 30.1107 17.811 30.1771C17.6764 29.9779 17.34 29.9779 17.2727 29.7122L17.4073 29.6458ZM21.8478 29.7786C21.5787 29.6458 21.3096 29.3801 20.8386 29.5793C21.175 29.7122 21.4441 29.7786 21.7133 29.9114C22.2515 30.1771 22.7225 30.4428 23.2607 30.7085C23.4626 30.7749 23.5971 31.0406 23.799 30.7085C23.9335 30.4428 23.6644 30.3764 23.4626 30.2435C22.9243 29.9779 22.4533 29.7122 21.8478 29.7122V29.7786Z" fill="#5F7C95"/>
<path d="M11.2847 50.8339C10.4774 50.1033 9.73728 49.2399 9.26632 48.31C10.0064 48.3764 10.2755 49.0406 10.6119 49.5055C10.9483 50.0369 11.4193 50.1697 12.0248 50.2362C11.6884 49.5055 11.4193 48.8413 11.0829 48.2435C11.0829 48.1107 10.9483 47.9114 10.8138 47.845C9.53544 47.4465 9.46816 46.3838 9.3336 45.321C9.93913 44.9889 10.141 44.524 10.0064 43.8598C10.0064 43.4613 10.2083 43.1292 10.5447 42.8635C10.6792 42.8635 10.8138 42.8635 10.8811 42.8635C10.8811 45.0554 11.0829 47.1144 12.0921 49.107C12.294 49.9705 12.9668 50.5683 13.2359 51.3653C12.6304 51.2325 12.0248 51.1661 11.4193 51.0332C11.4193 50.8339 11.2175 50.9004 11.0829 50.9004L11.2847 50.8339Z" fill="#5F7C95"/>
<path d="M9.40088 45.321C9.46816 46.3838 9.53544 47.4465 10.8811 47.845C11.0156 47.845 11.0829 48.0443 11.1502 48.2435C11.4866 48.9077 11.7557 49.5055 12.0921 50.2362C11.4866 50.2362 11.0156 50.0369 10.6792 49.5055C10.3428 48.9742 10.0737 48.3764 9.3336 48.31C8.39167 47.1808 8.05527 45.7196 7.65158 44.3247C7.44974 43.4613 7.44974 42.5978 7.51702 41.7343C7.65158 41.7343 7.78614 41.8672 7.9207 41.9336C8.12255 42.1993 8.52623 42.1993 8.79535 42.3985C8.79535 43.3948 8.86264 44.4576 9.46816 45.321H9.40088Z" fill="white"/>
<path d="M120.952 24.2657C121.087 24.2657 121.221 24.2657 121.423 24.2657C122.231 24.5314 123.105 24.3985 123.98 24.3985C124.989 24.3985 125.931 24.5314 126.94 24.3321C127.277 24.2657 127.344 24.4649 127.411 24.7306C127.411 25.1292 127.411 25.5277 127.479 25.9926C127.209 25.9926 127.277 25.8598 127.209 25.7269C127.075 24.9963 126.671 24.797 125.998 24.797C124.72 24.797 124.72 24.797 124.72 26.059C124.72 27.321 124.72 28.3173 124.72 29.3801C124.72 30.2214 125.101 30.7528 125.864 30.9742H122.5C122.836 30.7085 123.374 30.9077 123.644 30.5092C123.845 30.1107 123.711 29.7122 123.711 29.2472C123.711 27.9188 123.711 26.6568 123.711 25.3284C123.711 24.8635 123.576 24.6642 123.105 24.7306C122.971 24.7306 122.836 24.7306 122.702 24.7306C121.849 24.7306 121.266 25.1956 120.952 26.1255C120.75 25.3948 120.952 24.8635 120.952 24.3321L120.952 24.2657Z" fill="#5F7C95"/>
<path d="M7.85342 41.8672C7.71886 41.8672 7.5843 41.7343 7.44974 41.6679C7.65158 36.4871 10.2083 32.7675 14.8506 30.4428C14.9852 30.3764 15.187 30.2435 15.3889 30.31C15.9944 30.7085 16.3308 30.1107 16.7345 29.9779C16.869 29.6458 17.1382 29.6458 17.4073 29.6458C17.4746 29.9114 17.811 29.9114 17.9455 30.1107C17.34 30.31 17.0036 30.9742 16.2635 30.9742C16.2635 30.7085 16.2635 30.5092 15.9271 30.7749C15.658 30.9077 15.3889 31.0406 15.187 31.1734C14.4469 31.7048 13.7741 32.2362 13.1013 32.7011H12.9668C12.9668 32.5018 13.3704 32.369 13.1686 31.9705C9.87185 34.5609 8.12255 37.8155 7.9207 41.9336L7.85342 41.8672Z" fill="white"/>
<path d="M62.3508 28.2509C62.3508 28.6494 62.3508 28.9816 62.3508 29.3801C62.3508 30.2214 62.7545 30.7306 63.5619 30.9077H60.5342C61.3416 30.8413 61.3416 30.2435 61.3416 29.6458C61.3416 28.3173 61.3416 26.9889 61.3416 25.6605C61.3416 24.9299 61.3416 24.3985 60.3324 24.4649C61.0725 24.3321 61.7453 24.0664 62.4181 24.4649C62.4181 24.4649 62.4181 24.5314 62.4181 24.5978C62.149 25.6605 62.3508 26.7897 62.3508 27.8524C62.3508 27.8524 62.4854 27.9188 62.6199 27.9852C62.5527 28.1181 62.3508 28.1181 62.2835 28.3173L62.3508 28.2509Z" fill="#5F7C95"/>
<path d="M17.6091 54.155C17.34 54.2214 17.1382 53.9557 16.869 54.0221C16.8018 53.8893 16.6672 53.8893 16.4654 53.8893C16.4654 53.8893 16.4654 53.8893 16.3981 53.8893C16.3308 53.7565 16.1962 53.7565 16.0617 53.7565C15.1197 53.0922 14.1778 52.3616 13.4377 51.3653C13.976 51.3653 14.5142 51.4317 15.0525 51.4982C16.4654 51.6974 17.8783 51.7638 19.2911 51.6974C19.5603 51.6974 19.964 51.8967 19.8967 51.3653H20.0312C20.0312 51.631 20.0312 51.8967 20.0312 52.2288C19.8294 52.428 19.6276 52.6937 19.3584 52.6273C18.7529 52.4945 18.6183 52.9594 18.4838 53.3579C17.8783 53.5572 17.2727 53.3579 16.869 52.893C16.3308 52.1624 15.658 52.3616 14.8506 52.3616C15.5907 53.0258 16.129 53.5572 17.0036 53.69C17.2727 53.69 17.6091 53.7565 17.6091 54.2214V54.155Z" fill="#5F7C95"/>
<path d="M21.7133 54.2878C21.4441 54.2878 21.2423 54.2878 20.9732 54.2878C21.3769 53.9557 21.7805 53.5572 21.9151 53.0258C22.3861 51.9631 22.5879 50.9004 22.7897 49.7712C22.7897 49.5055 22.7897 49.2399 22.5879 49.0406C22.7225 49.0406 22.7897 49.0406 22.9243 49.0406C22.9243 49.1734 22.9243 49.3063 23.0589 49.5055C23.6644 50.1033 24.2026 50.7675 24.7409 51.4317C24.7409 51.4982 24.7409 51.5646 24.7409 51.631C24.4718 51.631 24.4045 51.9631 24.3372 52.1624C23.7317 53.1587 22.9243 53.9557 21.7805 54.2878H21.7133Z" fill="#5F7C95"/>
<path d="M31.1326 51.9631C31.1326 52.8266 31.8054 53.2915 32.2763 53.8229C32.5455 54.155 32.8146 54.4871 33.2183 54.952C31.8054 54.952 30.527 54.6199 29.0469 54.6199C29.7869 55.3506 30.1233 56.214 30.998 56.6125C30.7962 56.8118 30.6616 57.0111 30.3252 57.0775C30.3252 56.3469 28.7777 54.6863 28.1049 54.6199C28.5759 53.7565 29.3833 54.155 29.9888 54.2214C30.6616 54.2214 31.3344 54.3542 32.2763 54.4871C31.6035 53.7565 31.3344 52.893 30.3252 52.6937C30.527 52.428 30.9307 52.3616 31.0653 52.0295L31.1326 51.9631Z" fill="#5F7C95"/>
<path d="M62.4854 24.5314C62.4854 24.5314 62.4854 24.4649 62.4854 24.3985C63.0909 24.3985 63.6964 24.1328 64.3692 24.3985C65.3112 24.7306 65.8494 25.262 65.9167 26.059C65.9167 26.9889 65.4457 27.7196 64.5038 28.0517C63.831 28.3173 63.0909 28.1181 62.3508 28.2509C62.3508 28.0517 62.5527 28.0517 62.6872 27.9188C62.8218 27.9188 62.8891 27.9188 63.0236 27.9188C64.1674 27.9188 64.9075 27.1218 64.8402 26.059C64.8402 24.9963 64.2347 24.5314 63.0236 24.4649C62.8891 24.4649 62.6872 24.4649 62.5527 24.4649L62.4854 24.5314Z" fill="#5F7C95"/>
<path d="M17.6091 54.155C17.6091 53.7565 17.2727 53.69 17.0036 53.6236C16.129 53.4908 15.5234 52.893 14.8506 52.2952C15.658 52.2952 16.3308 52.0959 16.869 52.8266C17.2054 53.2915 17.811 53.4908 18.4838 53.2915C18.8875 53.8229 19.5603 53.69 20.0985 53.7565C20.1658 54.2214 20.3676 54.4871 20.9059 54.4871C19.8294 54.6863 18.6856 54.6863 17.6091 54.2214V54.155Z" fill="white"/>
<path d="M9.46816 31.3727C8.39167 31.7048 7.38246 31.4391 6.30597 31.7048C6.84421 32.1697 7.2479 32.7011 7.98799 32.8339C7.9207 33.0996 7.71886 33.2989 7.51702 33.4317C7.04606 32.5683 6.37325 32.1033 5.43132 31.6384C6.23869 30.7749 7.44974 31.3063 8.45895 30.9742C7.92071 30.5756 7.65158 29.9114 6.77693 30.1107C6.97877 29.9114 7.04606 29.7122 7.18062 29.5793C7.2479 29.5129 7.38246 29.4465 7.51702 29.4465C7.51702 29.4465 7.51702 29.4465 7.51702 29.3801C7.51702 29.5129 7.51702 29.7122 7.65158 29.7786C8.25711 30.31 8.79535 30.7749 9.53544 31.3727H9.46816Z" fill="#5F7C95"/>
<path d="M30.1906 35.3579C30.4598 34.893 30.0561 34.4945 30.0561 34.0959C30.2579 34.0959 30.3925 34.0959 30.4597 34.2952C32.0072 36.4871 33.0164 38.8782 32.9491 41.6015C32.8146 41.6015 32.68 41.7343 32.4782 41.7343C32.4782 40.5387 32.2763 39.3432 31.8726 38.214C31.469 37.1513 31.2671 35.9557 30.1906 35.2915V35.3579Z" fill="white"/>
<path d="M29.0469 57.8745C28.4413 58.2066 28.0376 58.6052 27.634 57.8081C27.4321 57.4096 27.0957 57.0775 26.4902 57.3432C25.8174 57.6753 26.0192 58.1402 26.1538 58.5387C26.4229 59.1365 26.1538 59.203 25.481 59.2694C25.9519 58.8708 25.8174 58.4723 25.8174 58.0738C25.8174 57.3432 25.8174 56.6125 25.7501 55.8819C25.7501 55.6827 25.6828 55.4834 25.9519 55.417C26.1538 55.3506 26.2883 55.417 26.4229 55.6162C27.0284 56.214 27.634 56.8118 28.1722 57.476C28.374 57.7417 28.5759 57.8745 29.1141 57.8745H29.0469ZM26.0192 56.0812C26.0192 56.4133 26.0192 56.679 26.0192 56.8782C26.0192 56.9446 26.0192 57.0111 26.0192 57.0775C26.5575 56.9447 26.5575 56.5904 26.0192 56.0148V56.0812Z" fill="#5F7C95"/>
<path d="M7.18062 52.2288C6.50781 52.3616 5.90228 52.4945 5.16219 52.6273C5.70044 51.631 6.10413 50.8339 6.57509 49.9705C5.835 50.4354 4.96035 50.5683 4.48939 51.3653C4.35483 51.2325 4.22026 51.0332 4.15298 50.8339C5.16219 50.3026 6.17141 49.7712 6.97877 49.0406C7.51702 49.6384 7.51702 49.3727 6.91149 50.4354C6.64237 50.9668 6.37325 51.4317 6.10413 51.9631C6.44053 52.1624 6.84421 51.8303 7.2479 52.1624L7.18062 52.2288Z" fill="#5F7C95"/>
<path d="M16.1962 24.5978C16.869 24.3321 17.4073 24.3321 18.0128 24.3321C18.5511 24.3321 18.9547 24.7306 18.6856 25.1956C18.2147 26.1255 19.0893 26.2583 19.493 26.5904C19.6276 26.7232 19.8294 26.5904 19.964 26.8561C19.2239 26.9889 19.2239 26.9889 18.2819 26.3911C18.0128 26.1919 17.7437 25.8598 17.4746 26.1919C17.2727 26.524 17.4073 26.9225 18.0801 27.1218C17.7437 27.1218 17.6091 27.1218 17.5419 27.1882C17.0709 27.321 16.7345 27.5203 16.9363 26.6568C17.0709 26.1255 16.869 25.5277 16.8018 24.9299C16.8018 24.6642 16.5326 24.7306 16.2635 24.5978H16.1962ZM17.2727 24.9963C17.2727 25.6605 17.34 25.7934 17.6091 25.7934C17.9455 25.7934 18.2147 25.5277 18.2147 25.1956C18.2147 24.797 18.0128 24.5978 17.5419 24.5314C17.1382 24.5314 17.2054 24.797 17.2054 24.9963H17.2727Z" fill="#5F7C95"/>
<path d="M10.4774 54.155C10.4774 53.9557 10.7465 53.9557 10.8811 53.8229C11.0156 53.69 11.1502 53.5572 11.352 53.7565C11.5539 53.8893 11.4866 54.0886 11.4193 54.2878C11.2175 55.0185 11.0156 55.7491 10.8138 56.4797C10.7465 56.8118 10.6792 57.1439 10.5447 57.5424C10.2755 57.3432 10.0064 57.2103 9.67 57.0111C10.4101 56.8782 10.4101 56.214 10.4101 55.7491C10.4101 55.417 9.87185 55.0849 9.60272 55.1513C9.19904 55.2841 8.59351 55.417 8.66079 56.214C8.39167 56.0148 8.12255 55.8155 7.71886 55.5498C8.79535 55.6827 9.19904 54.6199 10.141 54.5535C9.87185 55.0185 10.2083 55.1513 10.6119 55.2841C10.7465 54.8856 11.0829 54.4871 10.4774 54.2214V54.155Z" fill="#5F7C95"/>
<path d="M3.21105 35.6236C3.4129 35.2251 3.54746 34.893 3.7493 34.5609C4.01842 35.0258 5.22948 35.7565 5.63316 35.6236C6.10413 35.5572 6.23869 35.1587 6.37325 34.7601C6.44053 34.428 6.30597 34.1624 5.96956 33.9631C5.43132 33.6974 4.96035 33.3653 4.28755 33.4317C4.48939 33.0996 4.62395 32.9004 4.75851 32.5683C4.89307 33.2989 5.4986 33.2989 5.90228 33.5646C6.84421 34.0959 7.04606 35.0258 6.23869 35.7565C5.76772 36.2214 5.22948 36.155 4.69123 35.8893C4.22026 35.69 3.81658 35.2251 3.14377 35.5572L3.21105 35.6236Z" fill="#5F7C95"/>
<path d="M17.0036 56.4797C17.4746 56.4797 17.8783 56.5461 18.2819 56.6125C17.9455 57.0111 18.0128 57.1439 18.8202 58.4059C18.9547 57.8081 19.8294 57.6089 19.493 56.8782C19.4257 56.679 19.6276 56.7454 19.6948 56.7454C19.8967 56.7454 20.0985 56.7454 20.3004 56.9446C20.4349 57.1439 20.2331 57.0775 20.1658 57.1439C19.8294 57.6089 19.4257 58.0738 19.0893 58.5387C18.7529 59.0701 18.6183 59.6015 19.2239 60.0664C18.7529 60.0664 18.3492 60.0664 17.9455 59.8672C18.7529 59.3358 18.3492 57.941 17.0036 56.4797Z" fill="#5F7C95"/>
<path d="M15.3889 25.7934C15.4561 25.9926 15.5234 26.2583 15.5907 26.5904C15.187 26.524 14.7161 26.3247 14.5815 26.8561C14.5815 27.0554 14.6488 27.5203 14.9179 27.5203C15.3889 27.5203 15.8598 27.4539 15.9271 26.7232C16.2635 27.1882 16.3981 27.4539 15.7253 27.6531C15.1197 27.786 14.5815 28.0517 13.976 28.2509C14.3797 27.5203 13.9087 25.9262 13.034 25.6605C13.7068 25.3948 14.3124 25.1956 14.9179 24.9963C15.4561 24.8635 15.3216 25.3284 15.3889 25.5941C15.1197 25.4613 14.9179 25.1956 14.5815 25.3948C14.3797 25.5277 13.976 25.3948 14.1778 25.8598C14.2451 26.059 14.1778 26.3911 14.6488 26.3911C14.9852 26.3911 15.1197 26.059 15.3889 25.9262V25.7934Z" fill="#5F7C95"/>
<path d="M31.3344 28.0517C29.9888 28.0517 28.9796 28.9151 29.1814 29.7786C28.7777 29.5793 28.4413 29.3801 28.1722 29.1144C29.0469 28.8487 29.316 27.5867 28.7777 26.3911C29.1814 26.3911 29.3833 26.7232 29.6524 26.8561C29.7869 26.9225 29.8542 26.9889 29.6524 27.1218C29.316 27.3875 29.3833 27.8524 29.5851 28.1181C29.7869 28.3838 30.1233 28.0517 30.3252 27.8524C30.7962 27.5203 30.7962 27.4539 31.3344 28.0517Z" fill="#5F7C95"/>
<path d="M32.4782 41.8007C32.6127 41.8007 32.7473 41.6679 32.9491 41.6679C32.9491 43.9262 32.5455 46.1181 31.1998 48.1107C31.0653 47.7786 31.2671 47.5129 31.4017 47.2472C32.0745 45.5867 32.4109 43.8598 32.3436 42.1328C32.3436 42.0664 32.4782 42 32.5455 41.9336L32.4782 41.8007Z" fill="#5F7C95"/>
<path d="M13.4377 51.2989C14.1105 52.2952 15.0525 52.9594 16.0617 53.69C14.7161 53.5572 13.7068 52.7601 12.6976 52.0295C12.294 51.7638 11.7557 51.5646 11.6884 50.9668C12.294 51.0996 12.8995 51.166 13.505 51.2989H13.4377Z" fill="white"/>
<path d="M12.4285 25.8598C12.0921 26.7897 12.4285 27.5203 12.4958 28.2509C12.4958 28.5166 12.7649 28.9151 12.4958 29.048C12.1594 29.2472 11.9575 28.8487 11.6884 28.6494C11.0829 28.2509 10.5447 27.6531 9.67 27.3875C10.141 27.1218 10.4101 26.5904 10.8811 27.3875C11.0829 27.786 11.6211 27.9852 12.0248 28.1845C11.9575 27.5203 12.2267 26.7897 11.4193 26.3247C11.6884 26.1919 11.9575 26.059 12.3612 25.7934L12.4285 25.8598Z" fill="#5F7C95"/>
<path d="M33.5547 34.6273C34.2275 34.6937 35.6404 34.0295 35.9768 33.4982C36.2459 33.631 36.3132 33.8967 36.3805 34.1624C36.3805 34.3616 36.515 34.7601 36.0441 34.3616C35.9768 34.3616 35.5731 34.4945 35.4385 34.6273C35.304 34.8266 35.5731 35.0258 35.6404 35.1587C35.6404 35.3579 36.0441 35.2915 36.0441 35.5572C35.8422 35.6236 35.5731 35.7565 35.2367 35.8893C35.5731 35.3579 35.3712 34.8266 35.0348 34.8266C34.6312 34.8266 34.1602 35.0258 34.0929 35.6236C33.8911 35.2251 33.6892 34.9594 33.6219 34.5609L33.5547 34.6273Z" fill="#5F7C95"/>
<path d="M21.7133 54.2878C22.857 53.8893 23.6644 53.1587 24.2699 52.1624C24.4045 51.9631 24.4045 51.6974 24.6736 51.631C24.7409 52.0295 24.8754 52.3616 24.9427 52.7601C24.7409 52.9594 24.8755 53.1587 24.8082 53.3579C23.9335 53.6236 23.1934 54.155 22.2515 54.2878C22.0497 54.2878 21.8478 54.2878 21.646 54.2878L21.7133 54.2878Z" fill="white"/>
<path d="M14.0433 57.3432C14.9852 57.3432 15.187 56.9446 14.9852 55.8155C15.3889 55.9483 15.5907 56.214 15.658 56.6125C15.658 57.0111 15.5234 57.4096 15.1197 57.476C14.5815 57.6089 14.7833 57.8081 14.9179 58.0738C15.187 58.5387 15.3889 59.0037 15.7926 59.7343C14.5815 59.2694 14.5815 58.2066 14.0433 57.5424V57.3432Z" fill="#5F7C95"/>
<path d="M7.51702 51.9631C8.25711 51.5646 8.79535 51.5646 9.19904 52.0959C8.18983 52.6937 7.38246 53.4244 6.50781 54.2878C6.37325 54.0886 6.17141 53.8893 5.96956 53.6236C6.84421 53.4908 7.31518 52.8266 7.92071 52.3616C8.12255 52.2288 8.05527 52.0959 7.51702 52.0295V51.9631Z" fill="#5F7C95"/>
<path d="M22.3861 56.5461C22.3861 57.7417 22.5206 58.8044 22.9916 59.8672C22.6552 59.8672 22.2515 60 21.9151 60.0664C22.1169 59.8672 22.2515 59.7343 22.1842 59.4686C22.0497 58.738 22.0497 57.8745 21.7133 57.2103C21.3096 56.4133 21.8478 56.6125 22.1842 56.5461C22.2515 56.5461 22.3188 56.5461 22.2515 56.5461H22.3861Z" fill="#5F7C95"/>
<path d="M27.7685 26.5904C27.7685 26.1919 27.5667 25.9262 27.163 25.8598C26.7593 25.8598 26.8266 26.2583 26.692 26.4576C26.5575 26.7232 26.4229 27.0554 26.3556 27.321C26.1314 27.8967 25.7501 28.0074 25.2119 27.6531C26.1538 27.3875 25.9519 26.4576 26.3556 25.8598C26.5575 25.5277 26.2211 25.4613 26.0192 25.3284C26.7593 25.1292 27.2976 25.5941 27.9031 25.7934C28.1722 25.9262 27.9031 26.2583 27.7685 26.524V26.5904Z" fill="#5F7C95"/>
<path d="M32.3436 50.9004C33.0164 51.2989 33.6892 51.7638 34.362 52.1624C34.6312 52.2952 34.833 52.5609 35.2367 52.3616C35.0348 52.6937 34.833 52.9594 34.6312 53.2915C34.4293 52.6273 32.4782 51.4317 31.7381 51.4317C31.7381 51.1661 31.9399 51.0996 32.0072 50.9004C32.1418 50.9004 32.2091 50.9004 32.3436 50.9004Z" fill="#5F7C95"/>
<path d="M27.4321 32.8339C27.4321 32.4354 26.8939 32.369 26.692 32.0369C26.5575 31.9041 26.2883 31.7712 26.4229 31.5055C26.4902 31.3063 26.7593 31.4391 26.9612 31.3727C27.7685 31.6384 28.4413 32.1033 28.9123 32.7675C28.7105 32.9004 28.6432 33.1661 28.3068 33.1661C27.9704 33.0332 27.7685 32.7675 27.3648 32.8339H27.4321Z" fill="white"/>
<path d="M14.1778 55.4834C13.8414 56.3469 13.505 57.1439 13.3032 58.0074C13.1013 58.8044 12.7649 58.8044 12.1594 58.4059C12.5631 58.4059 12.6976 58.1402 12.7649 57.8081C12.8995 57.0111 13.6396 56.3469 13.3704 55.417C13.3704 55.2177 13.9087 55.417 14.1778 55.417V55.4834Z" fill="#5F7C95"/>
<path d="M35.4385 51.631C35.7077 50.0369 34.6312 49.2399 32.8146 49.7712C33.2855 49.107 33.8911 48.8413 34.6312 49.107C35.3712 49.3727 35.8422 50.1033 35.8422 50.9004C35.8422 51.1661 35.7749 51.3653 35.7076 51.5646C35.6404 51.5646 35.5731 51.5646 35.4385 51.5646V51.631Z" fill="#5F7C95"/>
<path d="M24.0008 27.3875C23.6644 27.321 23.328 27.2546 22.9916 27.1882C23.4626 26.3247 23.6644 25.5277 23.5971 24.5314C23.8662 24.4649 24.2026 24.6642 24.539 24.7306C24.0008 25.1956 23.6644 26.7897 24.0008 27.3875Z" fill="#5F7C95"/>
<path d="M21.8478 24.2657C21.5787 24.4649 21.175 24.2657 21.1077 24.6642C21.1077 24.9963 21.3769 25.1292 21.5114 25.262C21.646 25.3948 21.7805 25.4613 21.9824 25.5941C22.2515 25.8598 22.3861 26.1255 22.2515 26.524C22.1169 26.9225 21.7805 26.9225 21.3096 26.8561C22.0497 26.524 21.9151 26.1919 21.4441 25.8598C21.3096 25.7934 21.2423 25.7269 21.1077 25.5941C20.7713 25.3284 20.5022 25.0627 20.6368 24.5978C20.8386 24.0664 21.3096 24.1993 21.8478 24.2657Z" fill="#5F7C95"/>
<path d="M8.32439 28.5166C8.52623 28.3838 8.72807 28.1181 9.06448 27.9852C9.13176 28.7159 10.141 29.845 10.8138 29.9779C10.6119 30.31 10.2755 30.5092 10.0064 30.7085C9.73728 29.7122 8.9972 29.1808 8.32439 28.5166Z" fill="#5F7C95"/>
<path d="M34.0929 30.9077C32.5455 30.9077 32.0072 31.572 32.4782 32.9668C31.8726 32.7011 31.8054 32.1697 31.8726 31.6384C31.8726 31.107 32.2763 30.6421 32.8819 30.5092C33.3528 30.3764 33.8238 30.31 34.0929 30.8413V30.9077Z" fill="#5F7C95"/>
<path d="M20.9059 54.4207C20.3676 54.4207 20.1658 54.155 20.0985 53.69C20.0985 53.4908 20.0985 53.2915 20.0985 53.0923C20.704 53.0923 21.3096 53.0923 21.9151 53.0923C21.7805 53.6236 21.3769 54.0221 20.9732 54.3542C20.9732 54.3542 20.9732 54.4207 20.9059 54.4207Z" fill="white"/>
<path d="M32.6127 33.1661C33.9584 33.2989 34.4966 32.8339 34.4293 31.5055C34.4293 31.3063 34.6312 31.3727 34.6984 31.3727C35.0348 32.0369 35.0348 32.7011 34.4293 33.2325C33.8911 33.6974 33.2183 33.7638 32.6127 33.2325C32.6127 33.2325 32.6127 33.1661 32.6127 33.0996V33.1661Z" fill="#5F7C95"/>
<path d="M24.8755 53.3579C24.8755 53.1587 24.8755 52.893 25.01 52.7601C25.01 52.7601 25.1446 52.7601 25.2119 52.7601C25.4137 53.1587 25.6828 52.893 25.8847 52.7601C26.2883 52.4945 26.692 52.2952 26.9612 51.9631C27.2976 51.631 27.7012 51.4982 28.1722 51.631C27.163 52.3616 26.1538 53.1587 24.8755 53.3579Z" fill="#5F7C95"/>
<path d="M36.1113 43.6605C36.3132 42.5314 36.1113 42.3321 35.2367 42.5314C35.2367 41.69 35.5955 41.3358 36.3132 41.4686C36.2459 41.6679 36.0441 41.5351 35.9095 41.6015C35.7076 41.6015 35.4385 41.6015 35.4385 41.8672C35.4385 42.2657 35.6404 42.1328 35.8422 42.1328C36.2459 42.1328 36.515 42.3321 36.5823 42.7306C36.6496 43.1292 36.6496 43.4613 36.1786 43.7269L36.1113 43.6605Z" fill="#5F7C95"/>
<path d="M4.69123 42.0664C5.36404 42.6642 5.36404 42.797 4.82579 43.3948C4.75851 42.797 4.82579 42 3.88386 42.6642C3.7493 42.7306 3.68202 42.5314 3.68202 42.5314C4.01842 42.1328 3.27833 41.6015 3.88386 41.1365C4.01842 41.4686 3.88386 41.8672 4.42211 41.9336L4.75851 42.0664H4.69123Z" fill="#5F7C95"/>
<path d="M2 43.4613C2.67281 42.6642 1.86544 41.6679 2.3364 40.9373C2.40368 40.9373 2.53825 40.9373 2.60553 40.9373C2.60553 41.6679 2.60553 42.4649 2.60553 43.1956C2.60553 43.6605 2.26912 43.3948 2 43.4613Z" fill="#5F7C95"/>
<path d="M37.3224 42.5314C37.1878 42.9299 37.3224 43.262 37.4569 43.6605C36.5823 42.9963 36.7841 41.9336 37.8606 41.3358C37.8606 41.8007 37.1878 41.8672 37.3224 42.3985V42.5314Z" fill="#5F7C95"/>
<path d="M16.7345 29.9779C16.3308 30.1771 15.9944 30.7085 15.3889 30.31C15.7926 30.1107 16.1962 29.7786 16.7345 29.9779Z" fill="#5F7C95"/>
<path d="M38.1298 43.5941C38.3316 43.1956 38.2643 42.797 38.0625 42.3321C38.8026 42.6642 38.8026 43.0627 38.1298 43.5941Z" fill="#5F7C95"/>
<path d="M31.1998 48.0443C30.7962 48.31 30.527 48.6421 30.527 49.107C30.8634 48.7749 31.0653 48.4428 31.1998 48.0443Z" fill="#5F7C95"/>
<path d="M29.7197 50.1033C29.7197 49.9041 29.7869 49.7712 30.0561 49.7048C30.0561 49.9041 29.9215 49.9705 29.7197 50.1033Z" fill="#5F7C95"/>
<path d="M30.1906 49.4391C30.1906 49.2399 30.2579 49.107 30.527 49.107C30.4598 49.2399 30.4598 49.4391 30.1906 49.4391Z" fill="#5F7C95"/>
<path d="M14.0433 57.3432V57.476Z" fill="white"/>
<path d="M37.3224 42.5314V42.3985C37.3224 42.3985 37.457 42.3985 37.5242 42.4649C37.5242 42.4649 37.3897 42.4649 37.3224 42.5314Z" fill="white"/>
<path d="M15.9944 53.69C16.129 53.69 16.2635 53.69 16.3308 53.8229C16.1962 53.8229 16.0617 53.8229 15.9944 53.69Z" fill="white"/>
<path d="M16.4654 53.8893C16.5999 53.8893 16.7345 53.8893 16.869 54.0221C16.7345 54.0221 16.5999 54.0221 16.4654 53.8893Z" fill="white"/>
<path d="M30.0561 34.0959C29.9215 34.0959 29.8542 33.8967 29.8542 33.7638C30.0561 33.7638 30.0561 33.8967 30.0561 34.0959Z" fill="white"/>
<path d="M30.0561 49.7048C30.0561 49.572 30.0561 49.4391 30.2579 49.3727C30.3252 49.572 30.2579 49.6384 30.0561 49.7048Z" fill="#5F7C95"/>
<path d="M29.5851 33.4317C29.4505 33.4317 29.3833 33.2989 29.3833 33.1661C29.5178 33.1661 29.5851 33.2989 29.5851 33.4317Z" fill="white"/>
<path d="M11.2847 50.8339C11.4193 50.8339 11.5539 50.8339 11.6211 50.9668C11.4866 50.9668 11.352 50.9668 11.2847 50.8339Z" fill="white"/>
<path d="M31.1326 51.9631C31.1326 51.9631 31.2671 51.9631 31.2671 52.0295C31.2671 52.0295 31.1998 51.8967 31.1326 51.8967L31.1326 51.9631Z" fill="#5F7C95"/>
<path d="M29.8542 33.8303C29.8542 33.8303 29.7869 33.6974 29.7197 33.631C29.7197 33.631 29.7869 33.7638 29.8542 33.8303Z" fill="white"/>
<path d="M29.7197 33.631C29.6524 33.631 29.5851 33.5646 29.5851 33.4317C29.5851 33.4317 29.6524 33.5646 29.7197 33.631Z" fill="white"/>
<path d="M32.6127 33.1661C32.6127 33.1661 32.6127 33.2325 32.6127 33.2989C32.6127 33.2989 32.4782 33.2325 32.4782 33.1661C32.4782 33.1661 32.5455 33.1661 32.6127 33.1661Z" fill="#5F7C95"/>
<path d="M99.5571 43.9926C98.817 42.9963 98.1442 41.9336 97.4041 40.9373C97.0677 40.5387 97.0677 40.3395 97.6059 40.0074C99.4225 39.0775 99.6244 36.8856 98.0769 35.69C97.4714 35.2251 96.7986 34.9594 96.0585 34.9594C94.3765 34.8266 92.7617 34.893 91.0797 34.9594C90.9451 34.9594 90.676 34.9594 90.6087 35.2251C90.676 35.2251 90.7433 35.2915 90.8106 35.3579C92.1562 35.5572 92.1562 35.6236 92.1562 36.8856C92.1562 38.8782 92.1562 40.8708 92.1562 42.8635C92.1562 44.1919 92.0216 44.5904 90.7433 44.5904C90.7433 44.5904 90.676 44.6568 90.6087 44.7232C90.7433 44.9889 91.0124 44.8561 91.147 44.9225C92.358 44.9225 93.5018 44.9225 94.7129 44.9225C94.9147 44.9225 95.2511 45.0553 95.2511 44.7897C95.2511 44.4576 94.9147 44.5904 94.7801 44.5904C93.9728 44.5904 93.5691 44.1255 93.5691 43.3284C93.5691 42.6642 93.5691 41.9336 93.5691 41.2694C93.5691 41.0701 93.5691 40.8708 93.8382 40.8044C94.9147 40.5387 95.7221 40.8044 96.3276 41.7343C96.5967 42.1993 96.8658 42.6642 97.2022 43.0627C97.6732 43.7269 98.1442 44.3247 98.817 44.7232C99.4898 45.0553 100.163 45.3875 100.903 44.9225V44.7232C100.163 44.9889 99.8262 44.3911 99.4898 43.9926H99.5571ZM95.1838 40.4059C94.1522 40.4945 93.6364 40.0517 93.6364 39.0775V37.8819C93.6364 37.3506 93.6364 36.8856 93.6364 36.3542C93.6364 35.5572 94.0401 35.1808 94.8474 35.2251C96.9331 35.3579 97.9423 36.6863 97.4041 38.679C97.135 39.7417 96.4622 40.2731 95.1838 40.4059Z" fill="#5F7C95"/>
<path d="M117.656 34.9594C115.839 34.6273 114.022 34.9594 112.206 34.9594C112.206 34.9594 112.071 35.0258 112.071 35.0923C112.071 35.2915 112.273 35.2915 112.408 35.2915C113.215 35.3801 113.619 35.8229 113.619 36.6199C113.619 38.6125 113.619 40.5387 113.619 42.5314C113.619 43.5277 114.022 44.7232 112.34 44.8561H116.848C116.781 44.4576 116.512 44.5904 116.31 44.5904C115.233 44.524 115.032 44.2583 115.032 43.1956C115.032 42.5314 115.032 41.8007 115.032 41.1365C115.032 40.738 115.166 40.6052 115.57 40.6716C116.243 40.8044 116.983 40.738 117.656 40.6716C119.27 40.3395 120.347 39.2103 120.347 37.7491C120.347 36.2878 119.472 35.2915 117.723 35.0258L117.656 34.9594ZM118.127 39.2768C117.454 40.1402 116.512 40.4059 115.435 40.3395C115.099 40.3395 114.964 40.2066 114.964 39.8745C114.964 38.4797 114.964 37.0849 114.964 35.69C114.964 34.7601 115.772 35.5572 115.974 35.2251C117.05 35.2251 117.992 35.4244 118.463 36.4207C118.934 37.417 118.867 38.4797 118.194 39.3432L118.127 39.2768Z" fill="#5F7C95"/>
<path d="M109.784 42.4649C108.842 40.0738 107.967 37.7491 107.093 35.3579C106.958 34.9594 106.823 34.8266 106.352 34.7601C105.545 34.6273 105.545 35.1587 105.343 35.6236C104.469 38.1476 103.459 40.6052 102.585 43.0627C102.248 43.9262 101.845 44.5904 100.903 44.7232V44.9225C102.046 44.9225 103.19 44.9225 104.334 44.9225C104.469 44.9225 104.603 44.9225 104.67 44.7897C104.67 44.524 104.469 44.5904 104.334 44.5904C104.065 44.5904 103.796 44.5904 103.527 44.4576C103.19 44.3911 102.988 44.1919 103.123 43.7934C103.527 42.7306 103.93 41.6015 104.401 40.5387C105.343 40.5387 106.218 40.5387 107.16 40.5387C107.16 40.5387 107.16 40.5387 107.227 40.5387C107.563 40.5387 107.698 40.6052 107.833 40.9373C108.169 41.8672 108.505 42.797 108.842 43.6605C109.044 44.1255 108.842 44.524 108.304 44.524C108.102 44.524 107.9 44.524 107.631 44.524C107.496 44.524 107.294 44.524 107.294 44.7232C107.294 44.9889 107.496 44.9225 107.631 44.9225C108.909 44.9225 110.187 44.9225 111.533 44.9225C111.668 44.9225 111.735 44.9225 111.735 44.6568C110.322 44.6568 110.187 43.3948 109.851 42.4649H109.784ZM106.756 39.8745C106.083 39.8745 105.343 39.8745 104.603 39.8745C105.007 38.679 105.41 37.6162 105.881 36.4871C105.881 36.4871 106.016 36.4871 106.083 36.4871C106.487 37.4834 106.823 38.4133 107.227 39.4096C107.429 39.8081 107.227 39.8745 106.823 39.8745H106.756Z" fill="#5F7C95"/>
<path d="M25.2119 52.7601C25.2119 52.7601 25.0773 52.7601 25.01 52.7601C24.9427 52.3616 24.8082 52.0295 24.7409 51.631C24.7409 51.5646 24.7409 51.4982 24.7409 51.4317C25.3464 49.8376 25.6828 48.1771 26.0865 46.5166C26.8266 47.1808 27.2976 48.0443 27.8358 48.9077C28.5759 46.9151 28.9123 44.9225 28.845 42.8635C29.0469 42.8635 29.1814 42.797 29.3833 42.7306C29.8542 42.5978 30.3925 42.5314 30.8634 42.3985C31.1998 43.5277 30.8634 44.5904 30.6616 45.6531C30.3252 47.5793 29.5178 49.2399 28.1722 50.9004C28.1722 50.2362 28.1722 49.6384 27.8358 49.0406C27.0957 50.369 26.4902 51.7638 25.2119 52.6273L25.2119 52.7601Z" fill="#5F7C95"/>
<path d="M28.845 42.8635C28.845 44.9225 28.5759 46.9151 27.8358 48.9077C27.2303 48.0443 26.8266 47.1808 26.0865 46.5166C26.0865 45.3875 26.0865 44.3247 26.1538 43.1956C26.9612 43.1291 27.7012 43.1956 28.4413 42.8635C28.5086 42.8635 28.5759 42.8635 28.6432 42.8635H28.845Z" fill="white"/>
<path d="M32.4782 41.8007C32.4782 41.8672 32.3436 41.9336 32.2763 42C31.8726 42.1328 31.5362 42.1993 31.1326 42.3321C31.1326 41.2694 31.1326 40.2731 30.7962 39.2768C30.2579 37.417 29.5178 35.69 27.9704 34.4945C28.4413 34.2288 28.7777 34.1624 29.1141 34.7601C29.316 35.1587 29.6524 35.3579 30.1233 35.3579C31.1998 36.0221 31.469 37.2177 31.8054 38.2804C32.2091 39.4096 32.3436 40.6052 32.4109 41.8007H32.4782Z" fill="#5F7C95"/>
<path d="M28.7105 42.8635C28.6432 42.8635 28.5759 42.8635 28.5086 42.8635C27.9031 42.4649 27.634 41.8007 27.7012 41.1365C27.7012 40.6716 27.634 40.6716 27.2303 40.6716C26.4229 40.6716 26.1538 40.0738 26.0192 39.4096C25.8847 38.8118 25.8847 38.0148 26.4902 37.8819C27.4321 37.6827 27.0284 37.2177 26.8939 36.8192C26.7593 36.4207 26.6248 36.0886 26.4902 35.69C26.6248 35.4908 26.8266 35.5572 26.9612 35.5572C28.1049 37.8819 28.845 40.2731 28.7105 42.9299V42.8635Z" fill="white"/>
<path d="M24.6736 32.7011C24.8082 32.7011 25.01 32.5683 25.1446 32.5018C25.481 32.9668 25.8174 33.3653 26.1538 33.8303C26.1538 33.8303 26.1538 33.8303 26.1538 33.8967C25.7501 33.8967 25.4137 34.0295 25.01 34.0959C24.7409 34.0959 24.4718 34.0959 24.2026 34.0959C24.1354 34.0959 24.0681 34.0959 23.9335 34.1624L20.0312 34.2952C20.0312 34.0295 20.0312 33.7638 20.0312 33.4317C20.4349 33.4317 20.704 33.0332 21.1077 33.0996C21.3096 33.0996 21.3096 32.9668 21.3096 32.8339C21.3096 32.4354 21.3096 31.9705 21.8478 31.9041C22.3188 31.9041 22.857 32.1033 22.9243 32.5683C23.1934 33.5646 23.8662 33.2325 24.4718 33.1661C25.01 33.1661 24.7409 32.8339 24.6063 32.6347L24.6736 32.7011Z" fill="#465E73"/>
<path d="M28.0376 34.4945C29.5851 35.7565 30.3252 37.4834 30.8634 39.2768C31.1326 40.2731 31.2671 41.2694 31.1998 42.3321C31.0653 42.3321 30.998 42.3321 30.8634 42.3321C30.527 41.5351 30.6616 40.738 30.3925 39.941C30.3925 39.8081 30.3925 39.7417 30.3925 39.6089C30.3925 39.6089 30.3925 39.5424 30.3925 39.476C30.3925 39.3432 30.3925 39.2103 30.3925 39.1439C30.4598 39.0111 30.4598 38.9446 30.3925 38.8782C30.1233 38.1476 29.9215 37.2841 28.845 37.3506C28.6432 37.3506 28.6432 37.1513 28.5759 37.0184C28.3068 36.3542 27.9704 35.69 27.634 35.0923C27.2976 34.5609 27.634 34.5609 28.0376 34.4945Z" fill="white"/>
<path d="M30.3925 40.0074C30.6616 40.8044 30.5943 41.6679 30.8634 42.3985C30.8634 42.3985 30.8634 42.3985 30.8634 42.4649C30.3925 42.5314 29.8542 42.6642 29.3833 42.7306C29.7197 42.0664 29.8542 41.4022 29.7197 40.738C29.5851 40.1402 30.3252 40.3395 30.3925 39.941L30.3925 40.0074Z" fill="#5F7C95"/>
<path d="M26.1538 33.8303C25.8174 33.3653 25.481 32.9668 25.1446 32.5018C25.1446 32.5018 25.1446 32.4354 25.1446 32.369C25.1446 32.369 25.2119 32.2362 25.2791 32.2362C25.8174 33.0332 26.5575 33.0996 27.4321 32.8339C27.8358 32.8339 28.0376 33.0996 28.3741 33.1661C27.7012 33.5646 26.9612 33.6974 26.1538 33.8303Z" fill="#5F7C95"/>
<path d="M25.0773 34.0959C25.481 34.0959 25.8174 33.9631 26.2211 33.8967C26.4229 34.428 26.8939 34.893 27.0284 35.4908C26.8266 35.4908 26.692 35.4908 26.5575 35.6236C26.3556 35.1587 26.0865 34.6937 25.4137 34.8266C25.2791 34.5609 25.2119 34.2952 25.0773 34.0295V34.0959Z" fill="white"/>
<path d="M30.3925 38.8782C30.527 38.9446 30.527 39.0775 30.3925 39.1439C30.3925 39.0775 30.3925 38.9446 30.3925 38.8782Z" fill="#5F7C95"/>
<path d="M30.4598 39.5424C30.4598 39.5424 30.4598 39.6089 30.4598 39.6753C30.4598 39.6753 30.4598 39.6089 30.4598 39.5424Z" fill="#5F7C95"/>
<path d="M20.0312 33.4982C20.0312 33.7638 20.0312 34.0295 20.0312 34.3616C20.0312 34.3616 20.0312 34.4945 20.0312 34.5609C19.8967 36.4207 20.0985 38.2804 19.8967 40.1402C18.9547 39.1439 18.0801 38.214 17.1382 37.1513C16.8018 39.2103 16.6672 41.203 16.5999 43.1956C16.5999 43.1956 16.5326 43.1956 16.4654 43.1956C15.5907 42.1993 14.7161 41.203 13.8414 40.1402C13.7068 41.1365 13.505 42.1328 13.5723 43.1292C12.8322 43.1292 12.0921 42.8635 11.4193 42.9963C11.4193 42.8635 11.2847 42.8635 11.1502 42.8635C11.1502 42.8635 11.1502 42.8635 11.0829 42.8635C11.0829 40.6716 11.5539 38.6125 12.4285 36.4871C12.7649 37.7491 13.1686 38.8118 13.9087 39.8081C14.2451 38.0812 14.5815 36.5535 15.2543 35.0258C15.4561 34.4945 15.658 33.9631 15.5907 33.3653V32.4354C15.5907 32.1033 15.5907 31.9041 15.187 32.2362C14.2451 33.2325 13.505 34.2952 12.8995 35.4908C12.7649 35.7565 12.7649 36.0221 12.4285 36.155C12.294 35.3579 12.3612 34.5609 12.5631 33.5646C10.4101 36.2878 9.26632 39.1439 9.19904 42.3985C9.06448 42.3985 8.9972 42.3985 8.86263 42.3985C8.59351 42.1993 8.18983 42.1993 7.98799 41.9336C8.18983 37.8155 9.93913 34.5609 13.2359 31.9705C13.4377 32.369 13.1013 32.5018 13.034 32.7011C12.9668 32.7011 12.8322 32.8339 13.034 32.9004C13.034 32.9004 13.1686 32.7675 13.2359 32.7011C13.9087 32.1697 14.6488 31.6384 15.3216 31.1734C15.5234 30.9742 15.8598 30.9077 16.0617 30.7749C16.129 30.7749 16.1962 30.9077 16.2635 30.9742C16.2635 31.0406 16.2635 31.1734 16.2635 31.2399H16.3981C16.4654 31.2399 16.5999 31.107 16.4654 30.9742C17.1382 30.9742 17.5419 30.31 18.1474 30.1107C18.2819 30.1107 18.4165 30.0443 18.5511 29.9779C18.5511 29.9779 18.6856 30.1107 18.7529 30.1771C18.4165 30.5756 17.8783 30.8413 17.6091 31.3063C16.8018 32.0369 16.3981 32.9668 15.8598 33.8967C15.7926 34.0959 15.7253 34.2288 15.8598 34.428C16.1962 35.2915 16.5999 36.155 17.34 36.952C17.7437 35.0258 18.0128 33.2325 18.7529 31.5055C19.022 30.9742 19.4257 30.5092 19.5603 29.9114C19.6276 29.9114 19.6948 29.9114 19.7621 29.9114C19.964 29.9114 20.0312 29.3801 20.3676 29.7786C20.3676 29.9779 20.3676 30.1771 20.3676 30.3764C20.3004 30.7749 20.3004 31.2399 20.3676 31.6384C20.2331 32.3026 20.3676 32.9668 20.3676 33.631L20.0312 33.4982ZM15.8598 31.5055C15.8598 31.5055 15.7926 31.5055 15.7253 31.5055C15.7253 31.5055 15.7253 31.572 15.7253 31.6384C15.7253 31.6384 15.7926 31.6384 15.8598 31.6384C15.8598 31.6384 15.8598 31.572 15.9271 31.5055H15.8598Z" fill="#5F7C95"/>
<path d="M20.0312 33.4982C20.0312 32.8339 19.964 32.1697 20.0312 31.5055C20.2331 31.2399 20.0312 30.9077 20.1658 30.6421C20.5022 30.6421 20.9059 30.7085 21.2423 30.7749C21.7133 31.0406 22.1842 31.4391 22.857 31.1734C23.1262 31.0406 23.2607 31.3727 23.4626 31.5055C23.8662 31.9041 24.2699 32.3026 24.6736 32.7011C24.7409 32.9004 25.0773 33.1661 24.539 33.2325C23.9335 33.2325 23.2607 33.631 22.9916 32.6347C22.857 32.2362 22.3861 31.9705 21.9151 31.9705C21.4441 31.9705 21.3769 32.4354 21.3769 32.9004C21.3769 33.0332 21.3769 33.2325 21.175 33.1661C20.704 33.0996 20.4349 33.4982 20.0985 33.4982H20.0312Z" fill="white"/>
<path d="M19.4257 29.7786C19.2911 30.3764 18.8875 30.8413 18.6183 31.3727C18.2819 30.9077 17.811 31.6384 17.4746 31.2399C17.7437 30.7749 18.2147 30.4428 18.6183 30.1107C18.7529 30.1107 18.8875 29.9779 19.022 29.9114C19.1566 29.845 19.2912 29.7122 19.493 29.7786H19.4257Z" fill="white"/>
<path d="M21.8478 29.7786C22.4533 29.7786 22.9916 30.0443 23.4626 30.31C23.5971 30.3764 23.9335 30.5092 23.799 30.7749C23.6644 31.0406 23.4626 30.7749 23.2607 30.7749C22.7225 30.5092 22.2515 30.2435 21.7133 29.9779C21.7133 29.9779 21.7805 29.9114 21.8478 29.845V29.7786Z" fill="white"/>
<path d="M21.3096 30.7749C20.9732 30.7749 20.5695 30.7085 20.2331 30.6421C20.2331 30.5092 20.2331 30.3764 20.1658 30.1771C20.1658 29.9779 20.1658 29.7786 20.1658 29.5793C20.704 29.7786 21.2423 30.0443 21.3096 30.7085V30.7749Z" fill="white"/>
<path d="M21.7133 29.9114C21.4441 29.845 21.175 29.7122 20.8386 29.5793C21.3096 29.3801 21.5787 29.5793 21.8478 29.7786C21.8478 29.7786 21.7805 29.845 21.7133 29.9114Z" fill="white"/>
<path d="M18.9547 29.9114C18.8202 29.9114 18.6856 30.0443 18.5511 30.1107C18.5511 30.1107 18.4165 29.9779 18.3492 29.9114C18.5511 29.7122 18.7529 29.6458 18.8875 29.9114H18.9547Z" fill="#5F7C95"/>
<path d="M25.0773 31.9705C25.1446 32.0369 25.2119 32.1033 25.3464 32.1697C25.3464 32.1697 25.2791 32.3026 25.2119 32.3026C25.1446 32.2362 25.0773 32.1033 24.9427 32.0369C24.9427 32.0369 25.01 31.9705 25.0773 31.9041V31.9705Z" fill="#5F7C95"/>
<path d="M24.8082 31.9705C24.8082 31.9705 24.6063 31.8376 24.6736 31.7712C24.7409 31.7048 24.8754 31.7712 24.9427 31.8376C24.9427 31.8376 24.8755 31.9041 24.8082 31.9705Z" fill="#5F7C95"/>
<path d="M24.9427 32.1033C24.9427 32.1033 24.8755 32.0369 24.8082 31.9705C24.8082 31.9705 24.8082 31.9041 24.9427 31.8376C24.9427 31.8376 25.0773 31.9041 25.1446 31.9705C25.1446 31.9705 25.0773 32.0369 25.01 32.1033H24.9427Z" fill="#5F7C95"/>
<path d="M19.5603 29.7786C19.5603 29.845 19.4257 29.845 19.3584 29.7786C19.3584 29.6458 19.493 29.6458 19.5603 29.7786Z" fill="white"/>
<path d="M15.5234 33.3653C15.658 33.9631 15.4561 34.4945 15.187 35.0258C14.5142 36.4871 14.1778 38.0812 13.8414 39.8081C13.1013 38.8118 12.6976 37.7491 12.3612 36.4871C11.4193 38.6125 11.0156 40.6716 11.0156 42.8635C10.8811 42.8635 10.7465 42.8635 10.6792 42.8635C10.141 42.7306 9.60272 42.5978 9.06448 42.3985C9.19904 39.1439 10.2755 36.2878 12.4285 33.5646C12.2267 34.5609 12.1594 35.3579 12.294 36.155C12.6304 36.0221 12.6976 35.7565 12.7649 35.4908C13.3704 34.2952 14.1105 33.2325 15.0525 32.2362C15.3889 31.8376 15.4561 32.0369 15.4561 32.4354C15.3216 32.7675 15.2543 33.0332 15.4561 33.3653H15.5234Z" fill="white"/>
<path d="M11.0829 42.8635C11.0829 42.8635 11.0829 42.8635 11.1502 42.8635C11.2175 42.8635 11.352 42.9299 11.4193 42.9963C11.823 43.5941 12.1594 44.2583 12.0248 45.0554C12.0248 45.2546 12.0248 45.321 12.294 45.3875C13.505 45.7196 14.0433 46.7159 13.5723 47.9114C13.2359 48.1771 12.8995 48.0443 12.4958 48.0443C12.4958 48.2435 12.5631 48.4428 12.6304 48.6421L12.7649 48.8413V48.9742C12.6304 48.9742 12.4285 48.9742 12.294 48.9742C11.2847 47.048 11.0829 44.9225 11.0829 42.7306V42.8635Z" fill="white"/>
<path d="M9.06448 42.3985C9.60272 42.5314 10.141 42.6642 10.6792 42.8635C10.2755 43.0627 10.0737 43.4613 10.141 43.8598C10.2755 44.524 10.0737 45.0553 9.46816 45.321C8.86264 44.4576 8.79535 43.4613 8.79535 42.3985C8.92992 42.3985 8.9972 42.3985 9.13176 42.3985H9.06448Z" fill="#5F7C95"/>
<path d="M12.294 49.107C12.4285 49.107 12.6304 49.107 12.7649 49.107C13.1013 50.1697 13.7068 50.9668 15.0525 50.9004C15.0525 51.0996 15.0525 51.2989 15.0525 51.4982C14.5142 51.4982 13.976 51.4317 13.4377 51.3653C13.1686 50.5683 12.4958 49.9705 12.294 49.107Z" fill="#5F7C95"/>
<path d="M13.1013 32.7011C13.034 32.7011 12.8995 32.9004 12.8995 32.9004C12.7649 32.7675 12.8995 32.7675 12.8995 32.7011H13.034H13.1013Z" fill="#5F7C95"/>
<path d="M16.1962 30.9077C16.129 30.9077 16.0617 30.7749 15.9944 30.7085C16.2635 30.4428 16.3308 30.6421 16.3308 30.9077H16.1962Z" fill="#5F7C95"/>
<path d="M13.5723 47.9114C14.0433 46.7159 13.5723 45.7196 12.294 45.3875C12.0248 45.321 11.9575 45.2546 12.0248 45.0554C12.1594 44.2583 11.823 43.6605 11.4193 42.9963C12.1594 42.9299 12.8995 43.1292 13.5723 43.1292C14.5142 43.1292 15.5234 43.5277 16.4654 43.1292C16.4654 43.1292 16.5326 43.1292 16.5999 43.1292C17.5419 43.3948 18.4838 43.262 19.493 43.262C19.964 43.262 19.8967 42.9299 19.8967 42.6642C19.8967 41.8007 19.8967 40.9373 19.8967 40.0738C20.0985 38.214 19.8967 36.3542 20.0312 34.4945C20.2331 34.893 20.5022 35.4244 20.9732 35.2915C21.7133 35.1587 21.7805 35.5572 21.9824 36.0221C22.2515 36.6199 22.7897 36.952 23.4626 36.7528C24.1354 36.5535 24.2026 35.9557 24.0008 35.4908C23.7317 34.8266 24.3372 35.1587 24.539 34.9594C24.7409 34.9594 24.9427 34.9594 25.2119 34.893H25.2791H25.3464C26.0192 34.7601 26.2211 35.2251 26.4902 35.69C26.6248 36.0886 26.7593 36.4207 26.8939 36.8192C27.0284 37.2841 27.4321 37.6827 26.4902 37.8819C25.8847 38.0148 25.8847 38.8118 26.0192 39.4096C26.1538 40.0738 26.4229 40.6716 27.2303 40.6716C27.634 40.6716 27.7685 40.6716 27.7012 41.1365C27.7012 41.8007 27.9031 42.3985 28.5086 42.8635C27.7685 43.1292 26.9612 43.1292 26.2211 43.1956C24.2026 43.262 22.1842 43.3948 20.1658 43.4613C19.8294 44.5904 19.964 45.6531 20.1658 46.7823C19.964 47.048 20.0985 47.3801 20.0985 47.6458C20.0985 48.8413 20.0985 50.1033 20.0985 51.2989H19.964C19.5603 50.9668 19.0893 50.7675 18.6183 50.8339C18.3492 50.8339 18.2819 50.8339 18.2147 50.5683C17.7437 49.5055 16.869 49.2399 15.7926 49.7048C14.9179 49.7048 13.8414 48.7749 13.7068 47.9114H13.5723Z" fill="#465E73"/>
<path d="M20.0312 51.2989C20.0312 50.1033 20.0312 48.8413 20.0312 47.6458C20.0312 47.3801 19.964 47.048 20.0985 46.7823C20.9059 47.5129 21.7133 48.31 22.5879 49.0406C22.7897 49.2399 22.857 49.4391 22.7897 49.7712C22.5879 50.9004 22.3861 51.9631 21.9151 53.0258C21.3096 53.0258 20.704 53.0258 20.0985 53.0258C20.0985 52.6937 20.0985 52.428 20.0312 52.0959C20.0312 51.8303 20.0312 51.5646 20.0312 51.2325V51.2989Z" fill="white"/>
<path d="M15.658 49.7048C16.7345 49.1734 17.6091 49.5055 18.0801 50.5683C18.2147 50.8339 18.2147 50.9004 18.4838 50.8339C19.022 50.7675 19.493 50.9668 19.8294 51.2989C19.8294 51.8303 19.493 51.631 19.2239 51.631C17.811 51.631 16.3981 51.631 14.9852 51.4317C14.9852 51.2325 14.9852 51.0332 14.9852 50.8339C15.2543 50.8339 15.4561 50.8339 15.7253 50.8339C15.5907 50.4354 15.4561 50.1033 15.658 49.7712V49.7048Z" fill="white"/>
<path d="M20.0312 52.1624C20.0312 52.4945 20.0312 52.7601 20.0985 53.0923C20.0985 53.2915 20.0985 53.4908 20.0985 53.69C19.493 53.69 18.8875 53.7565 18.4838 53.2251C18.6856 52.8266 18.7529 52.3616 19.3584 52.4945C19.6276 52.4945 19.8294 52.2952 20.0312 52.0959L20.0312 52.1624Z" fill="#5F7C95"/>
<path d="M26.0865 46.5166C25.6155 48.1771 25.3464 49.8376 24.7409 51.4317C24.2026 50.7675 23.5971 50.1697 23.0589 49.5055C22.9243 49.3727 22.9916 49.2399 22.9243 49.0406C23.0589 48.1771 23.1934 47.3801 23.1262 46.5166C23.328 45.5203 23.1262 44.5904 23.2607 43.4613C24.2699 44.524 25.2791 45.4539 26.0865 46.5166Z" fill="white"/>
<path d="M23.1262 46.5166C23.1262 47.3801 22.9916 48.1771 22.9243 49.0406C22.7897 49.0406 22.7225 49.0406 22.5879 49.0406C21.7805 48.31 20.9732 47.5129 20.0985 46.7823C19.8967 45.6531 19.8294 44.5904 20.0985 43.4613C20.9059 43.4613 21.646 43.4613 22.4533 43.4613C22.9243 43.4613 23.0589 43.5941 23.0589 44.059C23.0589 44.8561 23.0589 45.7196 23.0589 46.5166H23.1262Z" fill="#5F7C95"/>
<path d="M23.1262 46.5166C23.1262 45.7196 23.1262 44.8561 23.1262 44.059C23.1262 43.5941 22.9916 43.4613 22.5206 43.4613C21.7133 43.4613 20.9732 43.4613 20.1658 43.4613C22.1842 43.3948 24.2026 43.262 26.2211 43.1956C26.2211 44.3247 26.2211 45.3875 26.1538 46.5166C25.3464 45.4539 24.4045 44.524 23.328 43.4613C23.1934 44.5904 23.328 45.5867 23.1934 46.5166L23.1262 46.5166Z" fill="#5F7C95"/>
<path d="M24.6063 34.9594C24.4045 35.1587 23.799 34.7601 24.0681 35.4908C24.2699 36.0221 24.2026 36.5535 23.5298 36.7528C22.857 36.952 22.3188 36.6863 22.0497 36.0221C21.8478 35.5572 21.8478 35.0923 21.0404 35.2915C20.5695 35.3579 20.3004 34.893 20.0985 34.4945C20.0985 34.4945 20.0985 34.3616 20.0985 34.2952C21.3769 34.2952 22.7225 34.2288 24.0008 34.1624C24.0681 34.1624 24.1354 34.1624 24.2699 34.0959C24.539 34.0959 24.8082 34.0959 25.0773 34.0959C25.2119 34.3616 25.2791 34.6273 25.4137 34.893L25.3464 34.893H25.2791C25.0773 34.893 24.8082 34.893 24.6063 34.9594Z" fill="white"/>
<path d="M24.2026 34.1624C24.1354 34.1624 24.0681 34.1624 23.9335 34.2288C24.0008 34.2288 24.0681 34.2288 24.2026 34.1624Z" fill="white"/>
<path d="M19.964 40.1402C19.964 41.0037 19.964 41.8672 19.964 42.7306C19.964 42.9963 19.964 43.3948 19.5603 43.3284C18.6183 43.3284 17.6091 43.4613 16.6672 43.1956C16.7345 41.203 16.869 39.2103 17.2054 37.1513C18.1474 38.1476 19.0893 39.1439 19.964 40.1402Z" fill="white"/>
<path d="M17.4746 31.3063C17.811 31.7048 18.2819 30.9742 18.6183 31.4391C17.8783 33.1661 17.6091 34.9594 17.2054 36.8856C16.4654 36.0886 16.0617 35.2915 15.7253 34.3616C15.658 34.1624 15.7253 34.0295 15.7253 33.8303C16.2635 32.9668 16.6672 31.9705 17.4746 31.2399V31.3063Z" fill="white"/>
<path d="M16.5326 43.1956C15.5907 43.5277 14.5815 43.0627 13.6396 43.1956C13.6396 42.1993 13.7741 41.203 13.9087 40.2066C14.7833 41.2694 15.5907 42.3321 16.5326 43.262V43.1956Z" fill="white"/>
<path d="M20.0985 30.1771C20.0985 30.31 20.0985 30.4428 20.1658 30.6421C20.0985 30.9077 20.1658 31.2399 20.0312 31.5055C19.964 31.107 19.964 30.6421 20.0312 30.2435L20.0985 30.1771Z" fill="#5F7C95"/>
<path d="M15.5234 33.3653C15.3216 33.0332 15.3889 32.7675 15.5234 32.4354C15.5234 32.7675 15.5234 33.0332 15.5234 33.3653Z" fill="#5F7C95"/>
<path d="M15.9271 31.5055C15.9271 31.5055 15.9271 31.572 15.8598 31.6384C15.8598 31.6384 15.7926 31.6384 15.7253 31.6384C15.7253 31.6384 15.7253 31.572 15.7253 31.5055C15.7253 31.5055 15.7926 31.5055 15.8598 31.5055H15.9271Z" fill="#5F7C95"/>
<path d="M16.1962 30.9077H16.3308C16.4654 31.0406 16.3308 31.107 16.2635 31.1734C16.2635 31.1734 16.1962 31.1734 16.129 31.1734C16.129 31.107 16.129 30.9742 16.129 30.9077L16.1962 30.9077Z" fill="white"/>
<path d="M11.4193 42.9963C11.352 42.9963 11.2175 42.9299 11.1502 42.8635C11.2847 42.8635 11.352 42.8635 11.4193 42.9963Z" fill="#465E73"/>
<path d="M15.658 49.7048C15.4561 50.1033 15.658 50.4354 15.7253 50.7675C15.4561 50.7675 15.2543 50.7675 14.9852 50.7675C13.7068 50.8339 13.1013 50.1033 12.6976 48.9742V48.8413C12.6976 48.8413 12.6304 48.7085 12.5631 48.6421C12.5631 48.4428 12.4958 48.2435 12.4285 48.0443C12.7649 48.0443 13.1686 48.1771 13.505 47.9114C13.6396 48.7085 14.7161 49.6384 15.5907 49.7048L15.658 49.7048Z" fill="#5F7C95"/>
<path d="M12.6304 48.7085C12.6304 48.7085 12.6976 48.8413 12.7649 48.9077C12.7649 48.9077 12.6976 48.7749 12.6304 48.7085Z" fill="#5F7C95"/>
<path d="M24.6063 34.9594C24.8082 34.8266 25.01 34.893 25.2791 34.893C25.0773 34.9594 24.8754 35.0258 24.6063 34.9594Z" fill="white"/>
</svg>
