<svg fill="none" xmlns="http://www.w3.org/2000/svg" viewBox="0 0 1440 901"><path d="M1069 195l-2 1-2-2 3-1 1 2zM1272 86l-3 1-1-3 2-1 2 3zM846 367l-3 2-1-3 3-1 1 2zM1083 238c0 1-1 2-2 1-1 0-2-1-1-2 0-1 1-2 2-1 1 0 2 1 1 2zM873 404l-2 1c-1 0-2-1-1-2 0-1 1-2 2-1 1 0 2 1 1 2zM1256 188l-3 1-1-3 2-1 2 3zM1106 236l-2 1c-1 0-2-1-1-2 0-1 1-2 2-1 1 0 2 1 1 2zM1042 205l-3 1-1-3 2-1 2 3zM1008 175l-2 1-2-2 3-2 1 3zM1116 228l-3 2-1-3 3-1 1 2zM1256 170l-3 2-1-3 2-1 2 2zM1245 195l-2 1c-1 0-2-1-1-3l2-1c1 1 2 2 1 3zM1035 56c-1 1-2 2-3 1l-1-2c0-1 2-2 3-1l1 2zM1235 146l-2 1c-1 0-2-2-1-3l2-1c1 1 2 2 1 3zM1195 111l-2 1c-1 0-2-1-1-2l2-2c1 1 2 2 1 3zM1243 89l-2 1c-1 0-2-1-1-2l2-2c1 1 2 2 1 3zM1093 259l-2 1-2-2 3-2 1 3zM1064 163l-3 2-1-3 2-1 2 2zM954 246l-3 2-1-3 2-1 2 2zM863 313c0 1-1 2-2 1-1 0-2-1-1-2 0-1 1-2 2-1 1 0 2 1 1 2zM923 192c0 1-1 2-3 2l-1-3c1-1 2-2 3-1l1 2zM860 265l-2 1-2-2c1-2 2-2 3-2l1 3zM1081 185c0 1-1 2-2 1l-2-2 3-2 1 3zM1279 216l-3 1-1-3 3-1 1 3zM1083 211l-2 1c-1 0-2-1-1-2l2-2c1 1 2 2 1 3zM1020 168l-2 2c-2-1-2-2-2-3 1-1 2-2 3-1l1 2zM1096 211l-3 1-1-2 3-2 1 3zM1043 134l-3 1-1-3 2-1 2 3zM1197 223l-3 1-1-3 2-1 2 3zM1257 166c-1 1-2 2-3 1l-1-2c0-1 1-2 3-1l1 2zM960 261c0 1-1 2-2 1-1 0-2-1-1-2l2-2c1 1 2 2 1 3zM1162 240c-1 1-2 2-3 1l-1-2c0-1 2-2 3-1l1 2zM1008 214c0 1-1 2-2 1l-2-2c1-1 2-2 3-1 1 0 2 1 1 2zM1383 236c-1 2-2 2-3 2-1-1-2-2-1-3l2-1 2 2zM1049 303c-1 1-2 2-3 1-1 0-2-1-1-2l2-2 2 3zM1308 237l-3 1c-1 0-2-1-1-3l2-1 2 3zM859 417l-3 2c-1-1-2-2-1-3 0-1 1-2 2-1l2 2zM1106 203c-1 2-2 2-3 2-1-1-2-2-1-3l2-1 2 2zM1292 177c-1 1-2 2-3 1l-1-2 2-2c2 1 2 2 2 3zM827 424l-2 2-2-3c1-1 2-2 3-1 1 0 2 1 1 2zM973 335l-2 2c-1-1-2-2-1-3 0-1 1-2 2-1 1 0 2 1 1 2zM1239 126c0 1-1 2-2 1-2 0-2-1-2-2l3-2 1 3zM1388 38l-2 2-2-3c1-1 2-2 3-1 1 0 2 1 1 2zM1190 148c0 1-1 2-2 1l-2-2c1-1 2-2 3-1 1 0 2 1 1 2zM1253 216c0 1-1 2-2 1l-2-2c1-1 2-2 3-1l1 2zM1245 92c0 1-1 2-2 1l-2-2c1-1 2-2 3-1 1 0 2 1 1 2zM1396 121l-3 1-1-3 3-1 1 3zM1023 380l-3 1-1-3 3-1 1 3zM1121 135c0 1-1 2-2 1-1 0-2-1-1-2 0-1 1-2 2-1 1 0 2 1 1 2zM1228 232l-3 2c-1-1-2-2-1-3 0-1 1-2 2-1l2 2zM1346 69c-1 1-2 2-3 1-1 0-2-1-1-2l2-2 2 3zM892 476c0 1-1 2-3 1l-1-2 3-2 1 3zM1087 264l-2 1c-1 0-2-1-2-3l3-1c1 1 2 2 1 3zM1067 151a2 2 0 11-4-1c0-1 1-2 2-1l2 2zM934 132a2 2 0 11-4-1 2 2 0 014 1zM1189 346c0 1-2 2-3 1a2 2 0 112-4l1 3zM1401 136a2 2 0 11-4-1 2 2 0 114 1zM964 179a2 2 0 11-4-1 2 2 0 014 1zM1070 257c0 1-1 2-2 1a2 2 0 111-4c1 1 2 2 1 3zM1257 144c0 2-1 2-2 2-2-1-2-2-2-3 1-1 2-2 3-1 1 0 2 1 1 2zM1215 94c-1 1-2 2-3 1-1 0-2-1-1-2l2-2c2 1 2 2 2 3zM1248 6c-1 1-2 2-3 1l-2-2 3-2 2 3zM878 236a2 2 0 104-3 2 2 0 00-4 3zM1212 120c-1 1-2 2-3 1-1 0-2-1-1-3l2-1c2 0 2 2 2 3zM1043 271l-2 2c-2-1-2-2-2-3l3-2c1 1 2 2 1 3zM906 248l-3 1a2 2 0 012-4c1 0 2 1 1 3zM1193 320a2 2 0 01-4-1c0-2 1-2 3-2l1 3zM930 318l-2 1a2 2 0 111-4c1 0 2 1 1 3zM1122 97l-3 2c-1-1-2-2-1-3 0-1 1-2 3-2l1 3zM1184 18l-3 2c-1-1-2-2-1-3 0-1 1-2 3-2l1 3zM1051 213c0 1-1 2-2 1-2 0-2-1-2-3l3-1c1 0 2 2 1 3zM1004 254l-2 2a2 2 0 111-5c1 1 2 2 1 3zM1371 139c0 1-1 2-2 1-2 0-2-2-2-3l3-1c1 0 2 2 1 3zM1041 113c-1 1-2 2-3 1l-2-2c1-2 2-2 3-2l2 3zM933 82l-3 1-1-3c0-1 2-2 3-1 1 0 2 1 1 3zM961 8c0 2-2 2-3 2-1-1-2-2-1-3 0-1 1-2 3-1l1 2zM886 252c0 1-1 2-3 2l-1-3 3-2c1 1 2 2 1 3zM1303 26l-3 1c-1 0-2-2-1-3 0-1 1-2 3-1l1 3zM1017 259c0 1-2 2-3 1-1 0-2-1-1-2 0-2 1-2 3-2 1 1 2 2 1 3zM1230 26c0 1-2 2-3 1-1 0-2-1-1-3l2-1c2 0 2 2 2 3zM934 513c-1 1-2 2-3 1l-2-2c1-2 2-2 3-2l2 3zM1046 32l-3 1-1-3c0-1 2-2 3-1 1 0 2 1 1 3zM914 96l-3 1c-1 0-2-2-1-3 0-1 1-2 2-1 2 0 2 1 2 3zM811 435l-2 2c-2-1-2-2-2-3l3-2c1 1 2 2 1 3z" fill="#02D2D6" fill-opacity=".5"/><path d="M1041 114c0 2-1 2-3 2l-1-3c0-1 2-2 3-1 1 0 2 1 1 2zM910 131c0 1-1 2-3 1l-1-3c0-1 2-2 3-1 1 0 2 2 1 3zM1060 279l-3 2c-1-1-2-2-1-3 0-2 1-2 3-2l1 3zM999 43c-1 2-2 2-3 2l-2-3 3-2c2 1 2 2 2 3zM1239 47l-3 1a2 2 0 113-1zM1222 122l-3 2c-2-1-2-2-2-3 1-2 2-2 3-2l2 3zM1236 58c-1 2-2 2-3 2s-2-2-1-3c0-1 1-2 2-1 2 0 2 1 2 2zM1031 178c0 1-1 2-3 2-1-1-2-2-1-3l3-2c1 1 2 2 1 3zM937 54c-1 2-2 2-3 2-2 0-2-2-2-3 1-1 2-2 3-1l2 2zM1188 55c0 1-2 2-3 1-1 0-2-1-1-2 0-2 1-2 3-2l1 3zM1273 200l-3 2-2-3c1-2 2-2 3-2 2 1 2 2 2 3zM1112 78l-3 2a2 2 0 113-2zM1019 180c0 1-2 2-3 1-1 0-2-1-1-3 0-1 1-2 2-1 2 0 2 2 2 3zM1158 151c0 1-2 2-3 1-1 0-2-1-1-3l3-1c1 0 2 2 1 3zM1060 82l-3 2c-2-1-2-2-2-3 1-2 2-2 3-2l2 3zM1270 88c0 1-2 2-3 1l-2-3c1-1 2-2 3-1 2 0 2 1 2 3zM1247 107c-1 1-2 2-3 1l-2-3c1-1 2-2 3-1 2 0 2 1 2 3zM1319 148c0 1-1 2-3 1-1 0-2-1-1-3 0-1 2-2 3-1 1 0 2 2 1 3zM1192 262a2 2 0 01-4-2 2 2 0 014 2zM1128 192c0 1-2 2-3 1l-2-3c1-1 2-2 3-1 2 0 2 1 2 3zM978 494c-1 1-2 2-3 1-2 0-2-2-2-3s2-2 3-1c1 0 2 1 2 3zM1101 140c-1 2-2 2-3 2-2-1-2-2-2-3l3-2 2 3zM972 249l-3 2-2-3c1-2 2-2 3-2 2 1 2 2 2 3zM1167 157c0 2-1 2-3 2a2 2 0 113-2z" fill="#02D2D6" fill-opacity=".5"/><path d="M1159 147c0 1-1 2-3 2-1-1-2-2-1-3 0-2 2-2 3-2 1 1 2 2 1 3zM1231 17l-3 2a2 2 0 112-5l1 3zM1043 226l-3 2c-2-1-2-2-2-3 0-2 2-2 3-2l2 3zM1145 87l-4 2c-1-1-2-2-1-3 0-2 2-2 3-2l2 3zM1160 157c-1 2-2 2-3 2-2-1-2-2-2-3 0-2 2-2 3-2l2 3zM870 359c0 2-2 2-3 2l-2-3c1-2 2-2 3-2 2 1 2 2 2 3zM1425 46c-1 2-2 2-3 2-2 0-2-2-2-3l3-2c2 1 2 2 2 3zM902 140a2 2 0 105-2 2 2 0 00-5 2zM1317 59c0 2-2 2-3 2-1-1-2-2-1-3 0-2 1-2 3-2 1 1 2 2 1 3zM1388 58c0 1-1 2-3 1-1 0-2-2-1-3l3-2c1 1 2 2 1 4zM1185 91l-4 2c-1-1-2-2-1-4 0-1 2-2 3-1l2 3zM1202 85c-1 2-2 2-4 2-1-1-2-2-1-3 0-2 2-2 3-2l2 3zM970 55l-3 2-2-4c1-1 2-2 4-1 1 0 2 2 1 3zM1218 140c-1 2-2 2-3 2-2-1-2-2-2-3 0-2 2-2 3-2l2 3zM907 626l-3 2c-2-1-2-2-2-4 1-1 2-2 3-1 2 0 2 2 2 3zM1439 88l-3 2-2-4c1-1 2-2 3-1 2 0 3 2 2 3zM1170 168a3 3 0 01-5-2 3 3 0 015 2zM1311 128l-3 2-2-4c1-1 2-2 4-1 1 0 2 2 1 3zM1236 154c0 2-2 3-3 2-2 0-2-2-2-3 1-2 2-2 3-2 2 1 3 2 2 3zM893 245a3 3 0 11-1-3c1 0 2 2 1 3zM1265 189l-3 2-2-4c1-1 2-2 4-1 1 0 2 2 1 3zM1076 317c0 1-2 2-3 1-2 0-3-2-2-3 0-2 2-2 3-2 2 1 3 2 2 4zM1152 91l-4 2-2-4 4-2 2 4zM953 48c0 1-2 2-3 1-2 0-2-2-2-3l3-2c2 1 3 2 2 4zM997 134c-1 2-3 2-4 2l-2-3c1-2 2-3 4-2l2 3zM1177 64c0 2-2 2-3 2-2 0-2-2-2-3a3 3 0 015 1zM884 217c-1 1-2 2-4 1l-2-3a3 3 0 016 2zM1113 462a3 3 0 11-2-3c2 0 2 2 2 3zM1217 113c0 2-2 3-4 2-1 0-2-2-1-4 0-1 2-2 3-1 2 0 2 2 2 3zM1353 49c-1 1-2 2-4 1l-2-3c1-2 2-2 4-2l2 4zM974 132l-4 2c-1-1-2-2-1-4l3-2c2 1 3 2 2 4zM1031 218l-3 2c-2-1-3-2-2-4l3-2c2 1 3 2 2 4zM1341 37c-1 2-3 3-4 2l-2-4c1-1 2-2 4-1l2 3zM1098 276c-1 2-2 2-4 2l-2-4 4-2 2 4zM1155 233l-4 2-2-4c1-2 3-3 4-2 2 1 2 2 2 4zM1125 4l-4 2-2-4 4-2c2 1 2 2 2 4zM1287 45c0 2-2 2-3 2-2-1-3-2-2-4l3-2c2 1 3 3 2 4zM1354 30l-4 2c-2-1-2-3-2-4 1-2 2-3 4-2l2 4zM1295 210l-4 2c-2-1-2-3-2-4 1-2 2-3 4-2l2 4zM1008 113l-4 2a3 3 0 112-6l2 4zM1102 16c-1 2-3 3-4 2-2 0-3-2-2-4l4-2 2 4z" fill="#02D2D6" fill-opacity=".5"/><path d="M1142 89c-1 2-3 2-4 2-2-1-3-2-2-4 0-2 2-2 4-2l2 4zM1105 35l-4 2-2-4c1-2 3-3 4-2 2 0 3 2 2 4zM1165 31c-1 2-3 3-4 2-2-1-3-2-2-4 0-2 2-2 4-2l2 4zM1102 3l-4 2-2-4c1-2 2-3 4-2 2 0 3 2 2 4zM1227 10c-1 2-2 3-4 2-2 0-2-2-2-4l4-2c2 1 2 3 2 4zM1013 62a3 3 0 01-6-2 3 3 0 016 2zM1256 197c-1 2-2 3-4 2-2 0-3-2-2-4l4-2c2 1 2 3 2 4zM1132 21c0 2-2 3-4 2l-2-4 4-2c2 1 3 3 2 4zM1257 44c-1 2-2 3-4 2-2 0-3-2-2-4l4-2c2 1 2 3 2 4zM1234 44c-1 2-3 3-4 2l-3-4c1-2 3-3 5-3 2 1 3 3 2 5zM1147 212a4 4 0 107-3 4 4 0 00-7 3zM1333-3a4 4 0 107 1 4 4 0 00-7-1z" fill="#02D2D6" fill-opacity=".5"/><path d="M1106 32c-1 2-3 3-5 3-2-1-3-3-2-5 0-2 2-3 4-3 3 1 4 3 3 5zM1013 107c0 2-3 3-5 2-2 0-3-3-2-5 0-2 3-3 5-3 2 1 3 3 2 6zM1063 106c-1 3-3 4-6 3-2-1-4-3-3-6 1-2 4-4 6-3 3 1 4 4 3 6z" fill="#02D2D6" fill-opacity=".5"/><path d="M1066 195l15 43h1v-1l-14-43h-1l-1 1z" fill="#02D2D6" fill-opacity=".4"/><path d="M1105 235l-37-41h-2v1l38 41h1v-1z" fill="#02D2D6" fill-opacity=".1"/><path d="M1067 194l-27 9-1 1 1 1 27-9 1-2h-1z" fill="#02D2D6" fill-opacity=".3"/><path d="M1006 175l61 21 1-1-1-1-61-21-1 1 1 1z" fill="#02D2D6" fill-opacity=".1"/><path d="M1067 195l46 34 2-1-1-1-46-33h-2l1 1z" fill="#02D2D6" fill-opacity=".1"/><path d="M872 403l-27-37h-2v1l28 37h1v-1z" fill="#02D2D6" fill-opacity=".5"/><path d="M1242 89l28-3 1-1-1-1-29 3v1l1 1z" fill="#02D2D6" fill-opacity=".1"/><path d="M1104 234l-23 3v1h1l23-2v-1l-1-1z" fill="#02D2D6" fill-opacity=".5"/><path d="M1082 237l-42-34h-1v2l42 33h1v-1z" fill="#02D2D6" fill-opacity=".4"/><path d="M1082 238l32-9 1-1-1-1-33 10v1h1z" fill="#02D2D6" fill-opacity=".5"/><path d="M1105 234l-65-31-1 1v1l65 31h1v-2z" fill="#02D2D6" fill-opacity=".2"/><path d="M1255 187v-17l-1-1-1 1v17l1 1 1-1z" fill="#02D2D6" fill-opacity=".5"/><path d="M1244 195l10-7 1-2h-2l-10 7v2h1zM1005 175l34 30 2-1-1-1-33-29h-2v1zM1105 236l10-7v-2h-2l-9 8v1h1z" fill="#02D2D6" fill-opacity=".5"/><path d="M1092 258l-10-21h-1v1l9 21h2v-1zM1233 145l20 42 1 1 1-1-21-42-1-1v1z" fill="#02D2D6" fill-opacity=".4"/><path d="M1082 237l-19-75h-1l-1 1 20 75h1v-1z" fill="none"/><path d="M1244 194l11-24-1-1h-1l-10 25v1l1-1z" fill="#02D2D6" fill-opacity=".5"/><path d="M1082 237l-2-53-1-1-1 1 3 54h1v-1z" fill="#02D2D6" fill-opacity=".1"/><path d="M1082 238l1-28-1-1-1 1v28h1z" fill="#02D2D6" fill-opacity=".2"/><path d="M1104 235l-14 23 1 1h1l13-23v-1h-1z" fill="#02D2D6" fill-opacity=".5"/><path d="M1082 238l13-27-1-2-1 1-12 27v1h1z" fill="#02D2D6" fill-opacity=".2"/><path d="M1092 258l-51-55h-2v2l52 54h1v-1z" fill="#02D2D6" fill-opacity=".1"/><path d="M1233 146l20 25h1l1-2-21-25h-1v2z" fill="#02D2D6" fill-opacity=".5"/><path d="M1232 145l11 49 1 1v-1l-10-49-1-1-1 1z" fill="#02D2D6" fill-opacity=".5"/><path d="M1193 111l60 60 2-1v-1l-61-59h-1v1z" fill="#02D2D6" fill-opacity=".1"/><path d="M1092 259l23-31-1-1h-1l-22 31v1h1z" fill="#02D2D6" fill-opacity=".5"/><path d="M1241 88l12 82 1 1 1-1-13-82-1-1v1z" fill="#02D2D6" fill-opacity=".1"/><path d="M1278 214l-23-28h-2v2l23 28h2v-2z" fill="#02D2D6" fill-opacity=".3"/><path d="M1041 204l22-41-1-1h-1l-22 42v1l2-1z" fill="#02D2D6" fill-opacity=".4"/><path d="M1006 175l56-11 1-1-1-1-56 11-1 1 1 1zM1105 235l-25-51h-1l-1 1 26 51h1v-1z" fill="#02D2D6" fill-opacity=".3"/><path d="M1193 111l40 35h1v-2l-40-34h-1v1z" fill="#02D2D6" fill-opacity=".4"/><path d="M1241 88l-9 57 1 1 1-1 8-57v-1l-1 1z" fill="#02D2D6" fill-opacity=".4"/><path d="M1040 205l40-20v-1h-1l-40 19v1l1 1zM1254 165l-1 22 1 1 1-1 1-22-1-1-1 1z" fill="#02D2D6" fill-opacity=".3"/><path d="M921 193l85-18 1-1-1-1-85 18-1 1 1 1z" fill="none"/><path d="M1105 235l-23-25h-1v1l23 25h1v-1z" fill="#02D2D6" fill-opacity=".4"/><path d="M1194 111l48-22v-1l-1-1-48 22v2h1z" fill="#02D2D6" fill-opacity=".5"/><path d="M1040 205l41 6 2-1-1-1-42-6-1 1 1 1z" fill="#02D2D6" fill-opacity=".3"/><path d="M1105 235l-10-25-1-1-1 2 11 25h1v-1z" fill="#02D2D6" fill-opacity=".4"/><path d="M1017 168l22 36 1 1 1-2-22-36h-1l-1 1z" fill="#02D2D6" fill-opacity=".3"/><path d="M1006 175l73 10 1-1-1-1-73-10-1 1 1 1z" fill="#02D2D6" fill-opacity=".1"/><path d="M1040 205l54 6 1-1-1-1-54-6-1 1 1 1z" fill="#02D2D6" fill-opacity=".2"/><path d="M1115 227l-35-43h-1l-1 1 35 43 2 1v-2z" fill="#02D2D6" fill-opacity=".3"/><path d="M1007 175l12-7v-1h-1l-12 6-1 2h2z" fill="#02D2D6" fill-opacity=".5"/><path d="M1114 227l-32-18-1 1v1l32 18 2-1-1-1z" fill="#02D2D6" fill-opacity=".4"/><path d="M1242 88l17-92-1-1h-1l-16 93v1l1-1z" fill="none"/><path d="M1115 227l-20-18-2 1v1l20 18 2-1v-1z" fill="#02D2D6" fill-opacity=".5"/><path d="M1278 215l-23-46h-2v1l23 45 1 1 1-1z" fill="#02D2D6" fill-opacity=".3"/><path d="M1277 214l-33-21-1 1v1l33 21h2l-1-2z" fill="#02D2D6" fill-opacity=".4"/><path d="M1007 175l35-41-1-2h-1l-35 42v1h2z" fill="#02D2D6" fill-opacity=".3"/><path d="M1195 223l49-28v-1l-1-1-49 28v2h1z" fill="#02D2D6" fill-opacity=".2"/><path d="M1254 165l-1 5 1 1 1-1 1-4-1-2-1 1z" fill="#02D2D6" fill-opacity=".5"/><path d="M1254 165l-11 29v1l1-1 12-28-1-2-1 1z" fill="#02D2D6" fill-opacity=".5"/><path d="M1278 215l-44-70a1 1 0 00-1 1l43 70h1l1-1z" fill="#02D2D6" fill-opacity=".1"/><path d="M1092 258l-12-74-1-1-1 2 12 73 1 1 1-1z" fill="#02D2D6" fill-opacity=".2"/><path d="M1256 165l-22-21h-1v2l21 20h2v-1z" fill="#02D2D6" fill-opacity=".5"/><path d="M1005 174v39l1 1 1-1v-39l-1-1-1 1z" fill="#02D2D6" fill-opacity=".1"/><path d="M1114 229l46 12 1-1-1-1-46-12-1 1 1 1z" fill="#02D2D6" fill-opacity=".2"/><path d="M1092 258l-10-48-1-1v1l9 48 1 1 1-1z" fill="#02D2D6" fill-opacity=".5"/><path d="M1092 258l3-48-1-1-1 1-3 48 1 1 1-1z" fill="#02D2D6" fill-opacity=".5"/><path d="M1105 235v-32l-1-1-1 1 1 32 1 1v-1z" fill="#02D2D6" fill-opacity=".1"/><path d="M920 192l31 54 1 1 1-2-31-54h-1l-1 1z" fill="#02D2D6" fill-opacity=".4"/><path d="M858 265l94-18 1-1-1-1-94 18-1 1 1 1z" fill="none"/><path d="M863 312l-4-48-1-1-1 1 4 48 1 1 1-1zM1080 184l-17-22h-2v1l17 22h2v-1z" fill="#02D2D6" fill-opacity=".5"/><path d="M859 265l63-73v-1h-2l-62 72v2h1z" fill="none"/><path d="M1115 227l-10-25h-2v1l10 25 1 1 1-2z" fill="#02D2D6" fill-opacity=".2"/><path d="M1082 210l-19-48h-2v1l20 48h1v-1z" fill="#02D2D6" fill-opacity=".5"/><path d="M1018 169l44-5 1-1-1-1-44 5-1 1 1 1z" fill="#02D2D6" fill-opacity=".5"/><path d="M1095 210l-32-48h-2v1l32 48h2v-1z" fill="#02D2D6" fill-opacity=".4"/><path d="M1290 175l-36-6-1 1 1 1 36 6 1-1-1-1z" fill="#02D2D6" fill-opacity=".2"/><path d="M1289 175l-46 18v1l1 1 46-18 1-1-2-1z" fill="#02D2D6" fill-opacity=".1"/><path d="M1040 134l21 29h1l1-1-21-30h-2v2zM1078 184l3 26 1 1 1-1-3-26-1-1-1 1z" fill="#02D2D6" fill-opacity=".5"/><path d="M1018 169l61 16h1l-1-2-61-16h-1l1 2z" fill="#02D2D6" fill-opacity=".4"/><path d="M1078 185l15 26h2v-1l-15-26-1-1-1 2z" fill="#02D2D6" fill-opacity=".5"/><path d="M1018 168l63 43h1v-2l-63-42h-2l1 1z" fill="#02D2D6" fill-opacity=".2"/><path d="M959 260l-6-15h-2v1l7 15h1v-1zM1094 209h-12l-1 1 1 1h12l1-1-1-1z" fill="#02D2D6" fill-opacity=".5"/><path d="M1092 259l68-19 1-1h-1l-69 18-1 1 2 1z" fill="#02D2D6" fill-opacity=".2"/><path d="M1080 184l-38-52h-2v2l38 51h2v-1z" fill="#02D2D6" fill-opacity=".4"/><path d="M1018 168l76 43h1v-2l-76-42h-2l1 1z" fill="#02D2D6" fill-opacity=".1"/><path d="M920 192l38 69h1v-1l-37-69h-1l-1 1z" fill="#02D2D6" fill-opacity=".2"/><path d="M1195 223l82-7 1-1-1-1-82 7-1 1 1 1z" fill="#02D2D6" fill-opacity=".1"/><path d="M1254 166l22 49 1 1 1-1-22-50-1-1-1 2z" fill="#02D2D6" fill-opacity=".4"/><path d="M1290 175l-56-31-1 1v1l56 31h2l-1-2z" fill="#02D2D6" fill-opacity=".1"/><path d="M1019 168l23-34-1-2-1 1-23 34 1 1h1z" fill="#02D2D6" fill-opacity=".5"/><path d="M1092 258l13-55-1-1-1 1-13 55 1 1 1-1z" fill="#02D2D6" fill-opacity=".2"/><path d="M1007 214l55-51 1-1h-2l-55 51v1h1z" fill="#02D2D6" fill-opacity=".1"/><path d="M952 247l55-33v-1h-1l-55 32v1l1 1z" fill="#02D2D6" fill-opacity=".3"/><path d="M1236 125l-4 20 1 1 1-1 4-20-1-1-1 1z" fill="#02D2D6" fill-opacity=".2"/><path d="M921 193l85 21h1v-2l-86-21h-1l1 2zM1186-42l71 38h1v-1l-71-39-2 1 1 1z" fill="none"/><path d="M1237 124l-43-15-1 1v1l44 15 1-1-1-1z" fill="#02D2D6" fill-opacity=".1"/><path d="M1238 125l4-37v-1l-1 1-5 37 1 1 1-1zM1189 148l5-38v-1l-2 1-5 37 1 2 1-1zM1160 239l-78-30-1 1v1l79 30 1-1-1-1z" fill="#02D2D6" fill-opacity=".1"/><path d="M1094 211l66 29h1l-1-1-66-30-1 1 1 1zM1104 202l-42-40h-1v1l42 40h1v-1z" fill="#02D2D6" fill-opacity=".2"/><path d="M1017 167l-12 46 1 1h1l12-46-1-1h-1z" fill="#02D2D6" fill-opacity=".4"/><path d="M1160 240l35-17 1-1-2-1-34 18-1 1h1zM1276 216l29 21h1v-2l-28-21-2 1v1zM1079 185l24 19 2-1-1-1-24-19-2 1 1 1z" fill="#02D2D6" fill-opacity=".5"/><path d="M1289 176l-13 39 1 1 1-1 13-38-1-2-1 1zM1103 202l-22 7v2h1l22-7 1-2h-2z" fill="#02D2D6" fill-opacity=".5"/><path d="M959 261l48-47v-1h-1l-48 47v1h1z" fill="#02D2D6" fill-opacity=".3"/><path d="M1243 91l-50 18v2h1l50-19v-1h-1z" fill="none"/><path d="M1244 91l-2-3-1-1v2l1 3h2v-1z" fill="#02D2D6" fill-opacity=".1"/><path d="M1095 211l9-7 1-2h-2l-10 7v2h2zM1290 175l-35-11-1 1 1 1 35 11h1l-1-2z" fill="#02D2D6" fill-opacity=".5"/><path d="M1256 165l-18-40-1-1-1 2 18 40h1l1-1z" fill="#02D2D6" fill-opacity=".4"/><path d="M1187 148l7 74 1 1 1-1-7-74-1-1-1 1z" fill="#02D2D6" fill-opacity=".2"/><path d="M1251 217l26-1 1-1-1-1h-26l-1 1 1 2z" fill="#02D2D6" fill-opacity=".3"/><path d="M1188 149l67 17h1l-1-2-66-17h-2l1 2z" fill="#02D2D6" fill-opacity=".2"/><path d="M957 260l13 75 2 1v-2l-13-74-1-1-1 1z" fill="#02D2D6" fill-opacity=".1"/><path d="M1160 239l-56-37h-1v2l56 36h2l-1-1z" fill="#02D2D6" fill-opacity=".3"/><path d="M1048 302l-41-89h-1l-1 1 41 89h1l1-1z" fill="none"/><path d="M1251 215l-56 6-1 1 1 1 56-6 1-2h-1z" fill="#02D2D6" fill-opacity=".3"/><path d="M1252 216l4-51-1-1-1 1-4 50 1 2 1-1zM1306 237h75l1-1-1-1h-75l-1 1 1 1z" fill="#02D2D6" fill-opacity=".2"/><path d="M1289 177l16 59 1 1 1-1-16-60-1-1-1 2z" fill="#02D2D6" fill-opacity=".4"/><path d="M826 425l31-7 1-1-2-1-31 7-1 1 2 1z" fill="#02D2D6" fill-opacity=".5"/><path d="M1119 134l-41 50 1 1h1l40-50v-1h-1z" fill="none"/><path d="M972 336l75-33 1-1-2-1-75 33v1l1 1z" fill="#02D2D6" fill-opacity=".2"/><path d="M1291 176l-53-52h-2v2l53 51h2v-1z" fill="#02D2D6" fill-opacity=".3"/><path d="M1226 231l-31-10-1 1v1l31 10 2-1-1-1z" fill="#02D2D6" fill-opacity=".2"/><path d="M1064 151l14 34h2v-1l-14-34h-2v1z" fill="none"/><path d="M1251 217l54 20 2-1-1-1-54-20h-2l1 2z" fill="#02D2D6" fill-opacity=".4"/><path d="M1289 176l-39 39v1h2l39-39-1-1h-1z" fill="#02D2D6" fill-opacity=".4"/><path d="M1189 149l49-23v-1l-1-1-49 23-1 1 2 1z" fill="#02D2D6" fill-opacity=".5"/><path d="M1065 150l-24-18h-1v2l24 18 1-1v-1z" fill="#02D2D6" fill-opacity=".1"/><path d="M1160 241l66-8 1-1-1-1-66 8-1 1 1 1z" fill="#02D2D6" fill-opacity=".2"/><path d="M1252 215l-14-90-1-1-1 1 14 91 1 1 1-2z" fill="#02D2D6" fill-opacity=".1"/><path d="M1188 148l63 68h1v-1l-63-68h-1v1zM1046 302l-26 77 1 1 1-1 26-76-1-2-1 1z" fill="#02D2D6" fill-opacity=".1"/><path d="M1238 125l6-33-1-1h-1l-6 34 1 1 1-1z" fill="#02D2D6" fill-opacity=".5"/><path d="M1189 148l55-56v-1h-1l-55 56v1h1zM1118 134l-15 69 1 1 1-1 16-68-1-2-2 1z" fill="#02D2D6" fill-opacity=".2"/><path d="M1226 233l80 4 1-1-1-1-80-4-1 1 1 1z" fill="none"/><path d="M891 475l-33-59h-2v1l33 59h2v-1z" fill="#02D2D6" fill-opacity=".2"/><path d="M1395 120l-8-82-1-1-1 1 8 82 1 1 1-1z" fill="#02D2D6" fill-opacity=".1"/><path d="M891 474l-65-51h-1v1l64 52h2v-2z" fill="none"/><path d="M971 335l49 45h2v-2l-50-44h-1v1z" fill="#02D2D6" fill-opacity=".3"/><path d="M1047 303l39-39v-2h-1l-39 40v1h1z" fill="#02D2D6" fill-opacity=".2"/><path d="M1086 263l19-60-1-1-1 1-19 60 1 1 1-1z" fill="#02D2D6" fill-opacity=".1"/><path d="M1064 151l39 52 1 1 1-2-40-52h-1v1zM1119 135l69 14 1-1v-1l-69-14-1 1v1z" fill="#02D2D6" fill-opacity=".2"/><path d="M1344 69l43-30v-2h-1l-43 31v1h1z" fill="#02D2D6" fill-opacity=".3"/><path d="M962 180l44 34h1v-1l-44-35h-2l1 2z" fill="none"/><path d="M1251 215l-26 16v1l1 1 26-17v-1h-1z" fill="#02D2D6" fill-opacity=".5"/><path d="M1067 256l-21 46v1h2l21-46v-2l-2 1z" fill="#02D2D6" fill-opacity=".1"/><path d="M1343 67l-100 24-1 1 2 1 100-24 1-1-2-1z" fill="none"/><path d="M1254 145l35 32h2v-1l-35-33h-2v2z" fill="#02D2D6" fill-opacity=".1"/><path d="M1343 69l50 52h2v-2l-51-51h-1v1z" fill="#02D2D6" fill-opacity=".3"/><path d="M1256 143l-18-18-2-1v2l18 18h2v-1z" fill="#02D2D6" fill-opacity=".2"/><path d="M1255 143l-67 4-1 1 1 1 67-4 1-1-1-1z" fill="#02D2D6" fill-opacity=".1"/><path d="M1119 134l-55 16v1l1 1 55-16v-2h-1z" fill="#02D2D6" fill-opacity=".4"/><path d="M1400 135l-5-15-1-1-1 1 5 16 1 1 1-2z" fill="#02D2D6" fill-opacity=".5"/><path d="M1254 144l-4 72 1 1 1-1 4-72-1-1-1 1zM1238 125l-24-32-2-1v2l24 32h2v-1z" fill="#02D2D6" fill-opacity=".1"/><path d="M1189 148l25-54-1-2-1 1-25 54 1 2 1-1z" fill="#02D2D6" fill-opacity=".1"/><path d="M1256 144l-12-53h-1l-1 1 12 52 1 1 1-1z" fill="#02D2D6" fill-opacity=".2"/><path d="M1343 69l55 67h2v-1l-56-67h-1v1z" fill="#02D2D6" fill-opacity=".1"/><path d="M1243 91l-30 1-1 1 1 1 30-1 1-2h-1z" fill="#02D2D6" fill-opacity=".2"/><path d="M1254 143l-29 88v2l2-1 29-88v-1h-2z" fill="#02D2D6" fill-opacity=".1"/><path d="M1068 257l17 7 1-1v-1l-17-7-2 1 1 1z" fill="#02D2D6" fill-opacity=".5"/><path d="M963 178l-30-47h-1l-1 1 30 47 2 1v-2zM1256 143l-42-50h-2v1l42 50 2 1v-2z" fill="#02D2D6" fill-opacity=".4"/><path d="M1085 262l-44 7-1 2 1 1 44-8 1-1-1-1z" fill="#02D2D6" fill-opacity=".1"/><path d="M1120 134l1-37-1-2-1 2-1 37 1 2 1-2z" fill="none"/><path d="M1188 346l4-27-1-1-1 1-4 26 1 1h1z" fill="#02D2D6" fill-opacity=".3"/><path d="M1256 143l-46-25-1 1v1l46 25 1-1v-1z" fill="#02D2D6" fill-opacity=".4"/><path d="M1244 5l-32 88v1h2l32-88V4l-2 1z" fill="#02D2D6" fill-opacity=".1"/><path d="M1068 255l-27 14-1 2h2l27-14v-1l-1-1z" fill="#02D2D6" fill-opacity=".4"/><path d="M905 248l58-69v-1h-2l-58 68v2h2z" fill="none"/><path d="M1246 6l73-34v-1l-1-1-73 34v2h1z" fill="#02D2D6" fill-opacity=".2"/><path d="M1211 119l3-25-1-2-1 1-3 26 1 1 1-1z" fill="#02D2D6" fill-opacity=".5"/><path d="M1069 256l-19-44-1-1-1 2 19 44h2v-1z" fill="#02D2D6" fill-opacity=".2"/><path d="M1002 255l66 2 1-1-1-1-66-3-1 1 1 2z" fill="none"/><path d="M1214 93l-31-76h-2v1l31 76h1l1-1z" fill="#02D2D6" fill-opacity=".2"/><path d="M905 246l-24-12h-2l1 2 24 12 1-1v-1z" fill="#02D2D6" fill-opacity=".5"/><path d="M1245 4l-63 13-1 1 1 1 64-13 1-1-2-1z" fill="#02D2D6" fill-opacity=".3"/><path d="M929 316l-48-82h-2v1l48 82 2 1v-2zM1210 118l-90-23-1 1 1 2 90 22 1-1-1-1z" fill="#02D2D6" fill-opacity=".1"/><path d="M1211 119l-28-102-1-1-1 2 28 101 1 1 1-1z" fill="none"/><path d="M929 316l-24-69-1-1-1 1 24 70 2 1v-2z" fill="#02D2D6" fill-opacity=".3"/><path d="M1214 94l15-69a1 1 0 00-2 0l-15 68 1 1h1z" fill="#02D2D6" fill-opacity=".1"/><path d="M1048 212l-8 58 1 2 1-1 8-59v-1l-2 1z" fill="#02D2D6" fill-opacity=".4"/><path d="M1301 24l-55-20-2 1 1 1 55 20 2-1-1-1z" fill="#02D2D6" fill-opacity=".2"/><path d="M1002 255l39 16h1v-2l-39-17-2 1 1 2z" fill="#02D2D6" fill-opacity=".5"/><path d="M1245 5l-18 19v2h2l17-20V5h-1z" fill="#02D2D6" fill-opacity=".2"/><path d="M1002 252l-98-6-1 1 1 1 98 7 1-1c1-1 0-2-1-2z" fill="none"/><path d="M1181 17l-62 79v1h2l62-79-1-1h-1z" fill="#02D2D6" fill-opacity=".1"/><path d="M885 251l-4-17a1 1 0 00-2 1l4 17 1 1 1-2z" fill="#02D2D6" fill-opacity=".4"/><path d="M1002 253l-75 63v1l2 1 74-64v-1h-1zM1211 119l18-94-1-1-1 1-18 94 1 1 1-1z" fill="#02D2D6" fill-opacity=".1"/><path d="M904 246l-20 4-1 2 1 1 20-5 1-1-1-1z" fill="#02D2D6" fill-opacity=".5"/><path d="M1039 113l81-15 1-2-1-1-82 16-1 1c0 1 1 2 2 1z" fill="#02D2D6" fill-opacity=".2"/><path d="M1014 259l27 12h1v-2l-27-12-1 1v1z" fill="#02D2D6" fill-opacity=".5"/><path d="M1003 254l47-41v-2h-1l-47 42v1h1z" fill="#02D2D6" fill-opacity=".4"/><path d="M929 316l-44-65h-2v1l44 65 2 1v-2z" fill="#02D2D6" fill-opacity=".3"/><path d="M1037 112l11 100 1 1 1-1-10-100-2-1-1 1zM1211 119l27-73-1-1h-1l-27 74v1l2-1z" fill="#02D2D6" fill-opacity=".1"/><path d="M1210 120l9 3 2-1-1-2-10-2-1 1 1 1z" fill="#02D2D6" fill-opacity=".2"/><path d="M1058 277l-16-8-2 1 1 1 16 8h2l-1-2z" fill="#02D2D6" fill-opacity=".3"/><path d="M1211 119l24-61-1-1h-1l-24 62v1l2-1z" fill="#02D2D6" fill-opacity=".1"/><path d="M1228 24l-46-8-1 1 1 2 46 7 1-1-1-1z" fill="#02D2D6" fill-opacity=".5"/><path d="M1043 32l76 65h2v-1l-76-66h-2v2z" fill="#02D2D6" fill-opacity=".1"/><path d="M1016 259l34-46v-2h-2l-34 47v1h2z" fill="#02D2D6" fill-opacity=".4"/><path d="M1039 115l81-17 1-2-1-1-81 18-1 1 1 1z" fill="#02D2D6" fill-opacity=".1"/><path d="M958 7l-28 73 1 2 1-1 28-73-1-1h-1z" fill="#02D2D6" fill-opacity=".3"/><path d="M1015 257l-12-5-2 1 1 2 13 4h1l-1-2z" fill="#02D2D6" fill-opacity=".5"/><path d="M1050 212l-10-98-1-1-1 1 10 98 1 1c1 0 2 0 1-1z" fill="#02D2D6" fill-opacity=".1"/><path d="M1043 31l-6 81a1 1 0 003 0l5-81-1-1-1 1zM1059 278l-9-66-1-1-1 1 9 67 1 1 1-2z" fill="#02D2D6" fill-opacity=".3"/><path d="M1238 45l-56-28h-1v2l56 28 1-1v-1z" fill="#02D2D6" fill-opacity=".2"/><path d="M930 80l-19 14v1l1 1 20-14v-2h-2zM1037 113l1 1 2 1v-2l-1-1-1-1-1 2z" fill="#02D2D6" fill-opacity=".5"/><path d="M1234 57l-51-40h-2v1l52 41 2-1-1-1z" fill="#02D2D6" fill-opacity=".2"/><path d="M1002 254l55 25h2l-1-2-55-25-2 1 1 1z" fill="#02D2D6" fill-opacity=".3"/><path d="M959 9l85 23 1-1-1-1-85-23h-1l1 2z" fill="#02D2D6" fill-opacity=".2"/><path d="M930 80l-23 50 1 1h1l23-50-1-1h-1z" fill="#02D2D6" fill-opacity=".4"/><path d="M958 7l-47 87v2l2-1 47-87-1-1h-1z" fill="#02D2D6" fill-opacity=".1"/><path d="M1050 212l-20-35h-1l-1 1 20 35h2v-1z" fill="#02D2D6" fill-opacity=".4"/><path d="M1301 24h-73l-1 1 1 1h73l1-1-1-1zM1039 112l-41-70h-2v1l41 70h2v-1z" fill="#02D2D6" fill-opacity=".3"/><path d="M1181 18l4 36 1 1 1-1-4-37h-1l-1 1z" fill="#02D2D6" fill-opacity=".2"/><path d="M932 82l65-38 1-2h-2l-66 38v1l2 1z" fill="#02D2D6" fill-opacity=".3"/><path d="M1003 254l27-76a1 1 0 00-2-1l-27 76 1 2 1-1z" fill="#02D2D6" fill-opacity=".2"/><path d="M1037 112l-9 65 1 2 1-1 10-66-1-1-2 1z" fill="#02D2D6" fill-opacity=".3"/><path d="M958 9l38 35 1-1v-1L960 7h-2v2z" fill="#02D2D6" fill-opacity=".4"/><path d="M1109 78l10 19h1l1-1-10-19-1-1-1 2z" fill="#02D2D6" fill-opacity=".2"/><path d="M932 81l4-27-1-1-2 1-3 27 1 1 1-1z" fill="#02D2D6" fill-opacity=".5"/><path d="M1043 31l-5 83 1 1 1-1 5-83-1-1-1 1z" fill="#02D2D6" fill-opacity=".3"/><path d="M1014 259l43 20h2l-1-2-43-20-1 1v1zM909 130l4-35-1-1-1 1-4 35 1 1 1-1z" fill="#02D2D6" fill-opacity=".5"/><path d="M958 7l-25 46 1 2 1-1 25-46-1-1h-1z" fill="#02D2D6" fill-opacity=".4"/><path d="M1300 24l-63 21-1 1 1 1 64-21 1-2h-2z" fill="#02D2D6" fill-opacity=".3"/><path d="M1300 24l-67 33v1l1 1 67-33 1-2h-2z" fill="#02D2D6" fill-opacity=".2"/><path d="M1238 45l-9-20-2-1v2l9 20 2 1v-2z" fill="#02D2D6" fill-opacity=".5"/><path d="M1227 25l-9 96 1 2 2-1 8-97-1-1-1 1z" fill="#02D2D6" fill-opacity=".1"/><path d="M1044 30l-48 12v1l1 1 47-12 1-2h-1z" fill="#02D2D6" fill-opacity=".5"/><path d="M1016 180l33 33h1v-2l-32-33h-2v2z" fill="#02D2D6" fill-opacity=".2"/><path d="M1016 259l14-81-1-2-1 1-14 81 1 1h1z" fill="#02D2D6" fill-opacity=".3"/><path d="M996 42l-85 52v1l1 1 85-52 1-2h-2z" fill="#02D2D6" fill-opacity=".1"/><path d="M1235 58l-6-33-1-1-1 1 6 33 1 1 1-1z" fill="#02D2D6" fill-opacity=".5"/><path d="M996 43l42 71 2 1v-2l-42-71h-2v1z" fill="#02D2D6" fill-opacity=".3"/><path d="M1016 179l-15 74 1 2 1-1 15-75-1-1-1 1z" fill="#02D2D6" fill-opacity=".1"/><path d="M1030 178l10-64-1-1-1 1-10 63 1 2 1-1z" fill="#02D2D6" fill-opacity=".4"/><path d="M913 95l22-41v-1h-2l-22 41v2l2-1z" fill="#02D2D6" fill-opacity=".5"/><path d="M1227 24l-42 29v2h2l41-29 1-1-2-1z" fill="#02D2D6" fill-opacity=".4"/><path d="M909 130l27-76-1-1h-2l-26 77 1 1 1-1z" fill="#02D2D6" fill-opacity=".3"/><path d="M1059 278l-29-101-1-1-1 2 29 101 1 1 1-2z" fill="#02D2D6" fill-opacity=".1"/><path d="M1236 46l-18 75 1 2 1-1 18-76-1-1-1 1z" fill="#02D2D6" fill-opacity=".3"/><path d="M1235 58l3-12-1-1h-1l-3 12v2l2-1z" fill="#02D2D6" fill-opacity=".5"/><path d="M1233 57l-15 64 1 2 2-1 14-64-1-1h-1zM996 42l-62 11-1 1 2 1 62-11 1-2h-2z" fill="#02D2D6" fill-opacity=".4"/><path d="M1056 81l-19 31 1 1h1l19-31v-2l-2 1zM1016 258l2-79-1-1-1 1-2 79 1 1 1-1zM1044 32l65 46h2v-2l-66-46h-2l1 2z" fill="#02D2D6" fill-opacity=".2"/><path d="M1109 76l-70 37-1 1 2 1 71-37v-1l-2-1z" fill="#02D2D6" fill-opacity=".2"/><path d="M1237 45l-51 8-1 1 1 1 51-8 1-1-1-1z" fill="#02D2D6" fill-opacity=".5"/><path d="M1185 55l33 67h2v-1l-33-67-2-1v2z" fill="#02D2D6" fill-opacity=".4"/><path d="M1234 57l-48-4-1 1 1 1 48 4 1-1-1-1z" fill="#02D2D6" fill-opacity=".5"/><path d="M1018 179l22-65v-1h-2l-22 66v1l2-1zM1272 199l-52-78-1-1-1 2 52 78h1l1-1zM1043 31l13 51h2l1-1-14-50-1-1-1 1z" fill="#02D2D6" fill-opacity=".2"/><path d="M1056 81l-18 32 1 2 1-1 18-32v-2l-2 1z" fill="#02D2D6" fill-opacity=".4"/><path d="M1017 180l12-1 1-2-1-1-12 2-1 1 1 1z" fill="#02D2D6" fill-opacity=".5"/><path d="M1110 78l76-23 1-1-2-1-75 23-1 2h1zM1156 151l64-29v-1l-1-1-63 29-1 2h1z" fill="#02D2D6" fill-opacity=".3"/><path d="M975 492l-44 19-1 2h2l44-19v-2h-1zM1302 25l37-45v-2h-2l-37 46v2l2-1zM1015 257l-45-10-1 1v2l46 9h1l-1-2z" fill="#02D2D6" fill-opacity=".1"/><path d="M1058 80l-61-38h-1v2l61 38h1v-2z" fill="#02D2D6" fill-opacity=".2"/><path d="M1056 81l-28 96 1 2 1-1 29-96-1-2-2 1zM1228 16l-1 9 1 1 1-1 1-9-1-1-1 1z" fill="#02D2D6" fill-opacity=".1"/><path d="M1236 46l31 42h1l1-2-31-41h-2v1z" fill="#02D2D6" fill-opacity=".3"/><path d="M1267 86l-48 35-1 1h2l48-34 1-2h-2z" fill="#02D2D6" fill-opacity=".4"/><path d="M1246 106l-8-60-1-1-1 1 7 60 2 1 1-1z" fill="#02D2D6" fill-opacity=".2"/><path d="M1244 105l-25 15-1 2h2l25-15 1-2h-2z" fill="#02D2D6" fill-opacity=".5"/><path d="M1233 59l34 29h2l-1-2-34-29h-1v2z" fill="#02D2D6" fill-opacity=".4"/><path d="M1317 146l-97-26-2 1 1 2 98 25 1-1-1-1z" fill="none"/><path d="M1246 106l-11-48-2-1v1l10 48 2 1 1-1z" fill="#02D2D6" fill-opacity=".3"/><path d="M1058 277l-88-30-1 1v2l88 29h2l-1-2z" fill="none"/><path d="M1268 86l-82-33-1 1v1l82 33 2-1-1-1z" fill="#02D2D6" fill-opacity=".2"/><path d="M1245 105l-58-52h-2v2l59 52h1v-2zM1109 78l46 73h2v-1l-46-73-2-1v2z" fill="#02D2D6" fill-opacity=".2"/><path d="M971 249l59-71v-1h-2l-59 71v1h2zM1272 199l-3-112-1-1-1 1 2 112 2 2 1-2z" fill="none"/><path d="M1272 199l-26-93-2-1v1l26 94 1 1 1-2z" fill="#02D2D6" fill-opacity=".2"/><path d="M1228 17l8 29 1 1 1-1-8-30-2-1v2z" fill="#02D2D6" fill-opacity=".3"/><path d="M1110 76l-53 4-1 1 1 2 53-4 1-2-1-1z" fill="#02D2D6" fill-opacity=".5"/><path d="M1316 146l-46 53v1h1l47-52v-2h-2z" fill="#02D2D6" fill-opacity=".4"/><path d="M1228 16l5 42 1 1 1-1-5-42-1-1-1 1z" fill="#02D2D6" fill-opacity=".3"/><path d="M1191 262l80-62 1-1-2-1-81 62v2h2z" fill="none"/><path d="M1018 180l41-98-1-2-2 1-40 98v1h2zM1059 278l-18-53-1-1-1 2 18 53 1 1 1-2z" fill="#02D2D6" fill-opacity=".1"/><path d="M1228 15l-43 38v2h2l43-38v-1l-2-1z" fill="#02D2D6" fill-opacity=".3"/><path d="M1028 178l11 48a1 1 0 103-1l-12-48-1-1-1 2z" fill="#02D2D6" fill-opacity=".1"/><path d="M1100 140l11-62-1-2-1 1-12 62 1 2 2-1z" fill="#02D2D6" fill-opacity=".3"/><path d="M1244 105l-89 44v2h1l89-44 1-2h-2zM1017 180l82-39v-2h-1l-82 39v2h1z" fill="#02D2D6" fill-opacity=".2"/><path d="M1016 178l-47 70v1h2l47-69-1-2h-1z" fill="#02D2D6" fill-opacity=".2"/><path d="M1109 78l47 69h2v-1l-47-69a1 1 0 00-2 1z" fill="#02D2D6" fill-opacity=".1"/><path d="M1127 192l30-41v-2h-2l-30 41v2h2z" fill="#02D2D6" fill-opacity=".5"/><path d="M1098 141l58 10 1-1-1-1-57-11-2 1 1 2zM1245 107l23-19 1-2h-2l-23 19v2h1z" fill="#02D2D6" fill-opacity=".5"/><path d="M1318 146l-49-60h-2v2l49 60h2v-2z" fill="#02D2D6" fill-opacity=".3"/><path d="M1318 146l-73-41h-1v2l73 41h1v-2z" fill="#02D2D6" fill-opacity=".3"/><path d="M1099 139l-41-58-1-1-1 2 41 58 2 1v-2z" fill="#02D2D6" fill-opacity=".4"/><path d="M1166 156l-9-7a1 1 0 10-2 2l9 7 2-1v-1z" fill="#02D2D6" fill-opacity=".5"/><path d="M1157 150l1-3-1-2-1 1-1 4 1 1 1-1z" fill="#02D2D6" fill-opacity=".5"/><path d="M1016 180l23 46 2 1v-2l-23-46-2-1v2z" fill="#02D2D6" fill-opacity=".3"/><path d="M1191 260l-64-70h-2v2l64 70h2v-2z" fill="#02D2D6" fill-opacity=".2"/><path d="M1110 78l32 10 1-1v-2l-33-9-1 1 1 1zM1228 17l39 70 1 1 1-2-39-70-2-1v2z" fill="#02D2D6" fill-opacity=".3"/><path d="M1097 140l28 51 1 1 1-2-28-51h-1l-1 1z" fill="#02D2D6" fill-opacity=".5"/><path d="M1246 106l-16-90-1-1-1 2 16 89 1 1 1-1z" fill="#02D2D6" fill-opacity=".3"/><path d="M1191 261l-25-105-1-1-1 2 25 104 1 1 1-1z" fill="#02D2D6" fill-opacity=".1"/><path d="M1191 261l-33-115-1-1-1 2 33 114 2 1v-1z" fill="none"/><path d="M1164 156l-39 34v2h1l40-34v-2h-2z" fill="#02D2D6" fill-opacity=".5"/><path d="M1127 192l31-45v-2l-2 1-31 44v2h2z" fill="#02D2D6" fill-opacity=".5"/><path d="M1165 155l-66-17-2 1 1 2 67 17 1-1-1-2z" fill="#02D2D6" fill-opacity=".4"/><path d="M1098 141l59 7 1-1-1-2-59-7-1 2 1 1z" fill="#02D2D6" fill-opacity=".5"/><path d="M1141 87l14 63 1 1 1-1-14-64-1-1-1 2z" fill="#02D2D6" fill-opacity=".3"/><path d="M1337-22l-109 37v2h1l109-37 1-1-2-1z" fill="none"/><path d="M1166 156l-8-10h-2v1l8 10 2 1v-2z" fill="#02D2D6" fill-opacity=".5"/><path d="M1142 85l-85-5-1 1 1 2 85 5 1-2-1-1z" fill="#02D2D6" fill-opacity=".2"/><path d="M1155 150l1 7 2 1 1-2-2-6-1-1-1 1z" fill="#02D2D6" fill-opacity=".4"/><path d="M1125 190l-85 34-1 2 2 1 85-35 1-2h-2z" fill="#02D2D6" fill-opacity=".2"/><path d="M970 250l71-23v-2l-1-1-71 23v2l1 1zM1099 140l44-53v-2l-2 1-44 53 1 2 1-1z" fill="#02D2D6" fill-opacity=".4"/><path d="M1191 261l-33-105-1-1-1 2 33 104 1 1 1-1z" fill="none"/><path d="M1268 88l48-28v-2l-2-1-47 29v1l1 1z" fill="#02D2D6" fill-opacity=".4"/><path d="M1245 107l71-48v-1l-2-1-70 48v2h1z" fill="#02D2D6" fill-opacity=".2"/><path d="M1127 192l31-35v-1h-2l-31 34v2h2z" fill="#02D2D6" fill-opacity=".5"/><path d="M1318 147l-2-89-1-1-1 2 2 88 1 1 1-1z" fill="#02D2D6" fill-opacity=".2"/><path d="M1166 156l-23-70-1-1-1 2 23 70 1 1 1-2z" fill="#02D2D6" fill-opacity=".4"/><path d="M1141 87l15 60 1 1 1-2-15-60-1-1-1 2z" fill="#02D2D6" fill-opacity=".5"/><path d="M1098 141l59 17 1-1v-2l-59-17-2 1 1 2z" fill="#02D2D6" fill-opacity=".4"/><path d="M1318 148l69-90v-2h-2l-69 90 1 2h1zM1423 45l-84-67h-2v2l85 67 1-1v-1z" fill="none"/><path d="M1230 17l35-81-1-2-1 1-35 81v1h2z" fill="#02D2D6" fill-opacity=".3"/><path d="M1165 155h-8l-1 1 1 2h8l1-2-1-1z" fill="#02D2D6" fill-opacity=".5"/><path d="M1159 156l-1-10-1-1-1 1v11l1 1 2-2z" fill="#02D2D6" fill-opacity=".5"/><path d="M1423 47l90-49 1-1-2-1-90 49-1 1 2 1z" fill="none"/><path d="M1337-21l-23 79 1 2 1-1 23-80-1-1-1 1z" fill="#02D2D6" fill-opacity=".1"/><path d="M1387 56l-48-78h-2v2l48 77 2 1v-2zM1228 17l86 43 2-1v-2l-87-42-1 1v1z" fill="#02D2D6" fill-opacity=".1"/><path d="M1141 87l15 70 2 1 1-2-16-70-1-1-1 2z" fill="#02D2D6" fill-opacity=".4"/><path d="M1166 157l17-66v-2l-2 1-17 66 1 2 1-1z" fill="#02D2D6" fill-opacity=".3"/><path d="M1158 147l25-56v-2l-2 1-25 56 1 1h1z" fill="#02D2D6" fill-opacity=".3"/><path d="M1166 157l34-72v-2l-2 1-34 72 1 2 1-1z" fill="#02D2D6" fill-opacity=".2"/><path d="M1198 84l-42 62v1h2l42-62v-1h-2z" fill="#02D2D6" fill-opacity=".2"/><path d="M1422 44l-107 13-1 2 1 1 108-13 1-1-2-2z" fill="#02D2D6" fill-opacity=".1"/><path d="M1387 58l36-11 1-2h-2l-36 11-1 1 2 1z" fill="#02D2D6" fill-opacity=".5"/><path d="M1165 158l51-17v-2l-1-1-50 17-1 2 1 1z" fill="#02D2D6" fill-opacity=".2"/><path d="M1157 148l58-7 2-2-2-1-58 7-1 2 1 1z" fill="#02D2D6" fill-opacity=".2"/><path d="M1316-40l-88 55v2h1l88-55 1-1-2-1z" fill="none"/><path d="M1386 56l-71 1-1 1 1 2 71-2 1-1-1-1z" fill="#02D2D6" fill-opacity=".4"/><path d="M1142 88l40 4 2-2-2-1-40-4-1 1 1 2z" fill="#02D2D6" fill-opacity=".5"/><path d="M1142 88l57-2 2-1-2-2-57 2-1 1 1 2zM1158 157l25-66a1 1 0 10-2-1l-25 66 1 2 1-1z" fill="#02D2D6" fill-opacity=".4"/><path d="M1198 84l-42 72 1 2 1-1 42-72v-2l-2 1z" fill="#02D2D6" fill-opacity=".3"/><path d="M967 54l-63 84v2h2l63-85-1-2-1 1z" fill="#02D2D6" fill-opacity=".1"/><path d="M1158 158l58-17 1-2-2-1-58 17-1 2 2 1zM1421 46l14 42h2l1-1-14-42h-2l-1 1z" fill="#02D2D6" fill-opacity=".4"/><path d="M1315-39l-1 97 1 2 1-1 2-98-2-1-1 1z" fill="#02D2D6" fill-opacity=".2"/><path d="M1387 56l-70-95-1-1-1 2 70 96h2v-2z" fill="none"/><path d="M1386 58l50 30h2l-1-2-50-30h-2l1 2zM1156 157l10 11h2v-2l-10-10h-2v1z" fill="#02D2D6" fill-opacity=".4"/><path d="M1199 83l-17 6-1 2h2l17-5v-2l-1-1z" fill="#02D2D6" fill-opacity=".5"/><path d="M1181 91l33 49h2v-1l-33-50h-1l-1 2z" fill="#02D2D6" fill-opacity=".5"/><path d="M1198 85l16 55 2 1 1-2-17-55-1-1-1 2z" fill="#02D2D6" fill-opacity=".5"/><path d="M1310 127l6-68-1-2-1 1-7 69 2 1 1-1z" fill="#02D2D6" fill-opacity=".1"/><path d="M1181 90l-15 77 1 1 2-1 14-77v-1l-2 1z" fill="#02D2D6" fill-opacity=".3"/><path d="M1198 84l-32 82 1 2 2-1 31-82v-2l-2 1zM1436 88l45 89 1 1 1-2-45-89-2-1v2z" fill="#02D2D6" fill-opacity=".2"/><path d="M1215 138l-48 28-1 2h2l48-27v-2l-1-1z" fill="#02D2D6" fill-opacity=".5"/><path d="M1235 153l-52-64h-1l-1 2 52 63 1 1 1-2z" fill="#02D2D6" fill-opacity=".2"/><path d="M1235 153l-35-69-1-1-1 2 34 69 2 1 1-2z" fill="#02D2D6" fill-opacity=".2"/><path d="M1216 141l93-13 1-1-1-1-94 12-1 2 2 1z" fill="#02D2D6" fill-opacity=".2"/><path d="M1234 152l-18-14-2 1 1 1 18 15 2-1-1-2z" fill="#02D2D6" fill-opacity=".5"/><path d="M1233 152l-66 14-1 1 2 1 66-13 1-2-2-1z" fill="#02D2D6" fill-opacity=".5"/><path d="M1149 91h33l2-1-2-1h-33l-1 1 1 1z" fill="#02D2D6" fill-opacity=".1"/><path d="M1234 155l75-27 1-1-2-1-75 26-1 2 2 1z" fill="#02D2D6" fill-opacity=".4"/><path d="M1264 187l-48-49h-2v2l48 49h2v-2zM968 53l-17-7h-2l1 2 17 7h2l-1-2z" fill="#02D2D6" fill-opacity=".1"/><path d="M1148 91l67 49h1v-2l-66-49h-2v2z" fill="none"/><path d="M1263 187l-95-21a1 1 0 00-1 2l96 21 1-1-1-1z" fill="#02D2D6" fill-opacity=".1"/><path d="M1148 90l18 77 2 1 1-1-19-77-1-1-1 1zM1264 189l46-61a1 1 0 00-2-2l-46 61v2h2z" fill="#02D2D6" fill-opacity=".2"/><path d="M1173 63l-7 104 1 1 2-1 7-104-1-1-2 1z" fill="none"/><path d="M1264 187l-29-34h-2v1l29 35h2v-2z" fill="#02D2D6" fill-opacity=".5"/><path d="M1234 152l-84-63a1 1 0 10-2 2l85 64 2-1-1-2z" fill="#02D2D6" fill-opacity=".1"/><path d="M1235 153l-59-90-2-1v2l59 90 1 1 1-2z" fill="#02D2D6" fill-opacity=".1"/><path d="M892 244l-10-29-1-1c-1 1-2 1-1 2l10 29 1 1 1-2z" fill="#02D2D6" fill-opacity=".5"/><path d="M1213 113l19 41a1 1 0 103-1l-19-41-2-1-1 2z" fill="#02D2D6" fill-opacity=".1"/><path d="M1150 91l26-27v-2h-2l-26 27v2h2z" fill="#02D2D6" fill-opacity=".5"/><path d="M995 133l-43-87h-2l-1 2 44 86 1 1 1-2z" fill="#02D2D6" fill-opacity=".3"/><path d="M1264 187l-48-75-2-1-1 2 49 76h2v-2z" fill="#02D2D6" fill-opacity=".2"/><path d="M1215 111l-66-22-1 1 1 1 65 23 2-1-1-2z" fill="#02D2D6" fill-opacity=".3"/><path d="M973 131l-21-84c0-1-1-2-2-1l-1 1 21 84c0 1 1 2 2 1l1-1z" fill="#02D2D6" fill-opacity=".2"/><path d="M1075 315l-45-99h-2l-1 1 45 99 2 1 1-2z" fill="#02D2D6" fill-opacity=".1"/><path d="M1215 111l-39-48-2-1v2l39 49h2v-2z" fill="#02D2D6" fill-opacity=".4"/><path d="M971 132l23 3 1-1-1-2-22-2-2 1 1 1z" fill="#02D2D6" fill-opacity=".5"/><path d="M1030 216l-35-83-2-1v2l34 84h2l1-2z" fill="#02D2D6" fill-opacity=".2"/><path d="M970 130l-90 85v2h2l90-85v-2h-2z" fill="#02D2D6" fill-opacity=".1"/><path d="M1075 316l21-40v-2h-2l-22 41 1 2 2-1zM1363-50l-14 98 1 1 1-1 14-98-1-1-1 1zM970 132l57 86h2l1-2-57-86h-2l-1 2z" fill="#02D2D6" fill-opacity=".3"/><path d="M1363-50l-26 86c-1 1 0 1 1 2l1-1 26-86c1-1 0-2-1-2l-1 1z" fill="#02D2D6" fill-opacity=".2"/><path d="M1380-88l-31 135c-1 1 0 2 1 2l1-1 31-135c1-1 0-2-1-2l-1 1z" fill="#02D2D6" fill-opacity=".1"/><path d="M1351 47l-12-12h-2v2l12 12h2v-2z" fill="#02D2D6" fill-opacity=".5"/><path d="M1028 218l66 58h2v-2l-67-58h-2l1 2z" fill="#02D2D6" fill-opacity=".4"/><path d="M1380-88l-43 124v2l2-1 43-124v-2l-2 1z" fill="#02D2D6" fill-opacity=".1"/><path d="M1363-51l-84 43-1 2 2 1 85-44v-1l-2-1z" fill="none"/><path d="M1028 218l124 15 2-1-2-2-123-14c-1-1-2 0-2 1l1 1z" fill="#02D2D6" fill-opacity=".1"/><path d="M1216 113l65-119-1-2-2 1-65 119 1 2 2-1z" fill="none"/><path d="M1215 113l71-68v-2h-3l-70 68v2h2zM1279-5l70 54h2v-2l-71-55-2 1 1 2z" fill="#02D2D6" fill-opacity=".2"/><path d="M1284 46l66 3 1-1c1-1 0-2-1-2l-65-3c-1-1-2 0-2 1l1 2z" fill="#02D2D6" fill-opacity=".3"/><path d="M1096 276l57-43v-2h-2l-57 43v2h2z" fill="#02D2D6" fill-opacity=".5"/><path d="M1351 48l1-19-1-2-2 2v19l1 1 1-1z" fill="#02D2D6" fill-opacity=".3"/><path d="M1279-5l58 42h2v-2l-58-43-2 1v2z" fill="#02D2D6" fill-opacity=".4"/><path d="M1285 46l53-8 1-2-1-1-54 8-1 1 2 2z" fill="#02D2D6" fill-opacity=".5"/><path d="M1004 111l-33 19-1 2h2l34-19v-2h-2z" fill="#02D2D6" fill-opacity=".2"/><path d="M1003 112l24 105c0 1 1 2 2 1l1-1-24-105-1-2-2 2z" fill="#02D2D6" fill-opacity=".1"/><path d="M1339 38l13-8v-2l-2-1-13 8v2l2 1zM1286 44l-5-50-2-2-1 2 5 50 2 2 1-2z" fill="#02D2D6" fill-opacity=".5"/><path d="M1292 207l-140 23-1 2 1 1 140-23 1-2-1-1z" fill="none"/><path d="M1279-5l71 35 2-1v-2l-72-35-2 1 1 2z" fill="#02D2D6" fill-opacity=".4"/><path d="M1285 45l66-15c1 0 2-1 1-2l-1-1-67 16-1 1c0 1 1 2 2 1zM1099 17l24-13V2h-2l-23 12-1 2 2 1zM1246-9l33 4 2-1-1-2-34-4c-1-1-2 0-2 1l2 2z" fill="#02D2D6" fill-opacity=".5"/><path d="M1286 43l-39-55h-2v2l38 55h2l1-2z" fill="#02D2D6" fill-opacity=".5"/><path d="M1140 88l-16-85c-1-1-1-2-2-1l-1 1 16 85 2 2 1-2z" fill="#02D2D6" fill-opacity=".2"/><path d="M1104 35l19-31V2h-2l-20 31v2h3z" fill="#02D2D6" fill-opacity=".4"/><path d="M1006 113l94-97v-2h-2l-94 97v2h2z" fill="#02D2D6" fill-opacity=".1"/><path d="M1245-10l105 40a2 2 0 001-3l-105-39h-2l1 2z" fill="#02D2D6" fill-opacity=".2"/><path d="M1121 4l40 27h2l-1-2-39-27h-2v2zM1280-5l79-4 1-2-1-1-80 4-1 2 2 1z" fill="#02D2D6" fill-opacity=".3"/><path d="M1285 45l75-55v-2h-2l-74 55-1 2h2zM1122 2l-23-2-1 2 1 1 23 1c1 1 2 0 2-1l-2-1z" fill="#02D2D6" fill-opacity=".3"/><path d="M1005 113l134-23 1-2c0-1-1-2-2-1l-133 23-2 2 2 1z" fill="#02D2D6" fill-opacity=".1"/><path d="M1223 11l61 34h2l-1-2-60-35h-2v3z" fill="#02D2D6" fill-opacity=".2"/><path d="M1140 87l-40-72-2-1-1 2 40 73h2l1-2z" fill="#02D2D6" fill-opacity=".4"/><path d="M1006 113l97-78v-2h-2l-97 78v2h2z" fill="#02D2D6" fill-opacity=".2"/><path d="M1357-11l-8 39 2 2 1-1 8-40-1-1-2 1zM1104 34l-4-19-2-1-1 2 4 18 2 1 1-1z" fill="#02D2D6" fill-opacity=".5"/><path d="M1098 17l63 15 2-2-1-1-63-15-2 1 1 2z" fill="#02D2D6" fill-opacity=".5"/><path d="M1254 45l31 1 1-2-1-1-31-1-2 1 2 2z" fill="#02D2D6" fill-opacity=".1"/><path d="M1006 113l94-110V1h-2l-94 110v2h2z" fill="none"/><path d="M1245-12l-84 41-1 2h2l84-41 1-2h-2z" fill="#02D2D6" fill-opacity=".3"/><path d="M1140 87l-36-54h-3v2l37 54h2v-2zM1006 112l5-51-1-1-2 1-5 51 2 1 1-1z" fill="#02D2D6" fill-opacity=".5"/><path d="M1276-9l7 53 2 2 1-2-7-54-2-1-1 2z" fill="#02D2D6" fill-opacity=".1"/><path d="M1100 15l1-13-2-2-2 2v13l2 2 1-2z" fill="#02D2D6" fill-opacity=".5"/><path d="M1246-9h113l1-2-1-1h-113l-2 1 2 2z" fill="#02D2D6" fill-opacity=".3"/><path d="M1140 89l23-58-1-2h-2l-23 59 1 1h2z" fill="#02D2D6" fill-opacity=".5"/><path d="M1252 198l39 12 2-1c1-1 0-1-1-2l-39-12-2 1 1 2z" fill="#02D2D6" fill-opacity=".4"/><path d="M1225 10l22-20v-2h-2l-22 20v2h2z" fill="#02D2D6" fill-opacity=".5"/><path d="M1140 87l-39-86-3-1v2l39 87h2l1-2z" fill="#02D2D6" fill-opacity=".4"/><path d="M1140 89l85-79V8h-2l-85 79v2h2z" fill="#02D2D6" fill-opacity=".3"/><path d="M1130 19l-31-5-2 1 1 2 31 5 2-1-1-2zM1102 35l60-3a2 2 0 00-1-3l-59 3-1 2 1 1z" fill="#02D2D6" fill-opacity=".5"/><path d="M1368-101l-19 129 2 2 1-1 20-130-2-2-2 2z" fill="#02D2D6" fill-opacity=".1"/><path d="M1104 34l-3-32-2-2-1 2 3 32 1 1 2-1z" fill="#02D2D6" fill-opacity=".5"/><path d="M1224 8l-122 24-1 2 2 1 121-24 2-2-2-1z" fill="#02D2D6" fill-opacity=".2"/><path d="M1140 88l-9-68-2-1-1 2 9 67 2 2 1-2z" fill="#02D2D6" fill-opacity=".5"/><path d="M1102 32l-93 28-1 2 2 1 93-28 1-2-2-1z" fill="#02D2D6" fill-opacity=".4"/><path d="M1098 3l63 28h2l-1-2-62-29-2 1v2z" fill="#02D2D6" fill-opacity=".5"/><path d="M1255 43l-8-54-1-2-2 2 8 55 2 1c1 0 2-1 1-2z" fill="#02D2D6" fill-opacity=".3"/><path d="M1223 8l-62 21-1 2 2 1 63-21 1-2c-1-1-2-2-3-1z" fill="#02D2D6" fill-opacity=".5"/><path d="M1278-11l-32-2-2 2 2 1 32 2a2 2 0 000-3z" fill="#02D2D6" fill-opacity=".4"/><path d="M1139 90l115-45c1 0 2-1 1-2l-2-1-115 45-1 2 2 1z" fill="#02D2D6" fill-opacity=".1"/><path d="M1129 19l-28 13v3h2l27-13 1-2-2-1z" fill="#02D2D6" fill-opacity=".5"/><path d="M1129 22l32 10 2-2-1-1-32-10-2 1 1 2z" fill="#02D2D6" fill-opacity=".5"/><path d="M1254 42l-92-13c-1-1-2 0-2 1l1 2 93 13 1-1c1-1 0-2-1-2z" fill="#02D2D6" fill-opacity=".3"/><path d="M1130 19l-30-19-2 1v2l31 19 2-1-1-2z" fill="#02D2D6" fill-opacity=".5"/><path d="M1224 8l-95 11-1 2 2 1 94-11 2-2-2-1z" fill="#02D2D6" fill-opacity=".4"/><path d="M1255 45l104-54c1-1 2-2 1-3h-2l-105 54v2l2 1z" fill="#02D2D6" fill-opacity=".1"/><path d="M1129 19l-120 41-1 2 2 1 120-41 1-2-2-1zM1277-11l-116 40-1 2 2 1 116-40 1-2-2-1z" fill="#02D2D6" fill-opacity=".2"/><path d="M1278-8l81-1 1-2-1-1-81 1-2 2 2 1z" fill="#02D2D6" fill-opacity=".4"/><path d="M1255 42l-30-34a2 2 0 10-2 2l30 34h2v-2z" fill="#02D2D6" fill-opacity=".5"/><path d="M1224 11l54-19 1-2-2-1-54 19v2l1 1z" fill="#02D2D6" fill-opacity=".5"/><path d="M1254 196l1-153-1-1-2 1-1 153 2 2 1-2z" fill="#02D2D6" fill-opacity=".1"/><path d="M1254 42l-124-23-2 1 1 2 125 23 1-1c1-1 0-2-1-2z" fill="#02D2D6" fill-opacity=".2"/><path d="M1255 44l24-53-1-2-2 1-24 53 1 2 2-1z" fill="#02D2D6" fill-opacity=".5"/><path d="M1232 42l-6-33-2-1-2 2 7 33c0 1 1 2 2 1 1 0 2-1 1-2z" fill="#02D2D6" fill-opacity=".1"/><path d="M1231 41l-101-22-2 1 1 2 101 22c1 1 2 0 2-1 1-1 0-2-1-2z" fill="none"/><path d="M1231 44l23 1 1-2-1-1-23-1-2 2 2 1z" fill="#02D2D6" fill-opacity=".3"/><path d="M1232 44l47-52v-3l-2 1-47 52v2h2z" fill="#02D2D6" fill-opacity=".2"/><path d="M1106-36l124 80h2v-3l-124-80h-3l1 3z" fill="#02D2D6" fill-opacity=".1"/><path d="M1099-26l1 57 2 2 2-2-2-57-2-2-1 2z" fill="#02D2D6" fill-opacity=".4"/><path d="M1100-24l59 1 2-2-2-2-59-1-1 2 1 2z" fill="#02D2D6" fill-opacity=".4"/><path d="M1337-4l-177-23c-2 0-2 1-3 2l2 2 177 23 2-2-1-2z" fill="#02D2D6" fill-opacity=".1"/><path d="M1104 32l57-55v-3h-3l-57 55v3h3z" fill="#02D2D6" fill-opacity=".5"/><path d="M1104 32l46-110a2 2 0 10-4-1l-46 109a2 2 0 004 2z" fill="#02D2D6" fill-opacity=".4"/><path d="M1101 29l-93 75v3h3l92-75 1-2-3-1z" fill="#02D2D6" fill-opacity=".2"/><path d="M495 226c1-1 2-2 3-1l1 2c-1 1-2 2-3 1l-1-2zM507 418c0-1 1-2 2-1 1 0 2 1 1 2 0 1-1 2-2 1-1 0-2-1-1-2zM725 107c1-1 2-2 3-1l1 2c-1 1-2 2-3 1l-1-2zM759 137l2-2c1 1 2 2 1 3l-2 1-1-2zM732 255l2-1c1 0 2 1 2 3l-3 1-1-3zM623 331a2 2 0 103-3 2 2 0 00-3 3zM322 524l2-2 2 3-3 1-1-2zM507 315l3-1 1 2-2 2-2-3zM703 148l3-1 1 2-3 2-1-3zM813 65l3-1 1 2-3 2-1-3zM903-1l3-2 1 3-2 1-2-2zM844 119l2-1 2 2-3 2-1-3zM907 47c0-1 1-2 2-1 1 0 2 1 1 2 0 1-1 2-2 1-1 0-2-1-1-2zM311 508c0-1 1-2 2-1 1 0 2 1 1 2 0 1-1 2-2 1-1 0-2-1-1-2zM747 143l2-1 2 2-3 2c-1-1-2-2-1-3zM724 178c1-1 2-2 3-1l1 2c0 1-2 2-3 1l-1-2zM806 51l3-2c1 1 2 2 1 3l-2 1-2-2zM413 389l3-1 1 2-3 2-1-3zM300 407l3-1 1 3-2 1-2-3zM759 97l2-1c1 1 2 2 1 3l-2 1c-1 0-2-1-1-3zM718 9l3-2 1 3c0 1-1 2-3 1l-1-2zM579 354l2-2 2 3c-1 1-2 2-3 1-1 0-2-1-1-2zM645 176l3-1c1 0 2 2 1 3l-2 1-2-3zM422 245h1l2-1v-2l-3 3zM700 160a2 2 0 114 1 2 2 0 01-4-1zM833 179a2 2 0 114 2 2 2 0 01-4-2zM337 502a2 2 0 111 3c-1 0-2-1-1-3zM371 428a2 2 0 114 2 2 2 0 01-4-2zM803 132a2 2 0 111 3c-1-1-2-2-1-3zM318 500a2 2 0 111 3l-1-3zM447 340l2-2 2 3-3 2c-1-1-2-2-1-3zM266 491l2-2 2 3c-1 1-2 2-3 1-1 0-2-1-1-2zM519 305l3-1c1 1 2 2 1 3 0 1-1 2-2 1-1 0-2-1-2-3zM199 501c0-1 1-2 3-2l1 3c0 1-2 2-3 1-1 0-2-1-1-2zM885 76l3-1 1 3-3 1c-1 0-2-2-1-3zM861 64c0-1 1-2 2-1a2 2 0 01-1 4c-1-1-2-2-1-3zM172 518l2-1a2 2 0 11-2 1zM645 214l3-1a2 2 0 01-2 4l-1-3zM583 293c0-1 2-2 3-1l1 3-3 1-1-3zM762 57l3-1 2 3-3 1-2-3zM726 199c1-2 2-2 3-2s2 2 1 3c0 1-1 2-2 1l-2-2zM834 230c0-1 1-2 2-1 2 0 2 1 2 2 0 2-2 2-3 2-1-1-2-2-1-3zM806 303c0-1 1-2 3-1l1 2c0 2-2 2-3 2-1-1-2-2-1-3zM431 466c1-1 2-2 3-1 1 0 2 1 1 3l-2 1c-2 0-2-2-2-3zM881 59c0-1 1-2 2-1 2 0 2 2 2 3-1 1-2 2-3 1-1 0-2-2-1-3zM300 454c0-1 1-2 3-1l1 3c0 1-2 2-3 1-1 0-2-2-1-3zM150 527c0-1 2-2 3-1 1 0 2 1 1 3l-3 1-1-3zM537 286c0-2 2-2 3-2 1 1 2 2 1 3 0 1-1 2-3 2l-1-3zM720 280c1-1 2-2 3-1 2 0 2 1 2 2-1 2-2 2-3 2l-2-3zM853 216c0-1 2-2 3-1 1 0 2 1 1 2 0 2-1 2-3 2l-1-3z" fill="#02D2D6" fill-opacity=".5"/><path d="M725 197c1-1 2-2 3-1 2 0 2 1 2 3l-3 1-2-3zM277 455l3-1 1 3c0 1-2 2-3 1-1 0-2-1-1-3zM857 181c0-2 1-2 2-2 2 1 2 2 2 3l-3 2c-1-1-2-2-1-3zM768 268c0-1 2-2 3-1 1 0 2 1 1 3l-3 1-1-3zM736 133c0-1 1-2 2-1 2 0 2 2 2 3s-2 2-3 1c-1 0-2-2-1-3zM830 257c1-1 2-2 3-1l2 2c-1 2-2 2-3 2-2 0-2-2-2-3zM579 257c0-2 2-2 3-2s2 2 1 3c0 1-1 2-3 1-1 0-2-1-1-2zM350 499c0-2 1-2 3-2l1 3-3 2c-1-1-2-2-1-3zM182 598c1-1 2-2 3-1l2 3c-1 1-2 2-3 1-2 0-2-1-2-3zM655 233l3-1 1 3c0 1-2 2-3 1-1 0-2-1-1-3zM261 505l3-2c1 1 2 2 1 3 0 2-1 2-3 2-1-1-2-2-1-3zM489 449c0-1 1-2 3-1 1 0 2 1 1 3 0 1-2 2-3 1-1 0-2-2-1-3zM748 132c0-2 2-2 3-2 1 1 2 2 1 3 0 1-1 2-3 2-1-1-2-2-1-3zM707 229c1-1 2-2 3-1l2 3c-1 1-2 2-3 1-2 0-2-1-2-3zM497 224l3-2c1 1 2 2 1 3 0 2-1 2-3 2l-1-3zM79 615c1-1 2-2 3-1 2 0 2 1 2 3-1 1-2 2-3 1l-2-3zM411 388a2 2 0 112 3l-2-3zM666 171c1-1 2-2 3-1 1 0 2 1 2 3-1 1-2 2-3 1-2 0-2-2-2-3zM795 62c0-1 2-2 3-1 1 0 2 2 1 3 0 1-1 2-3 1-1 0-2-1-1-3zM427 332l3-2c1 1 2 2 1 3 0 2-1 2-3 2-1-1-2-2-1-3zM536 294c0-1 2-2 3-1 1 0 2 2 1 3 0 1-1 2-3 1-1 0-2-1-1-3zM340 498c0-1 2-2 3-1 1 0 2 1 2 3-1 1-2 2-4 1l-1-3zM122 717l3-1c2 0 2 2 2 3l-3 2c-2-1-2-2-2-4zM622 224c1-1 2-2 3-1 2 0 2 2 2 3-1 1-2 2-3 1-1 0-2-1-2-3zM501 376c0-2 2-2 3-2s2 2 1 3c0 1-1 2-3 2-1-1-2-2-1-3zM347 537c0-2 2-2 3-2 1 1 2 2 1 3 0 2-2 2-3 2-1-1-2-2-1-3zM860 172c0-2 2-2 3-2l2 3a2 2 0 01-5-1zM450 252c0-1 1-2 3-1 1 0 2 2 1 3 0 1-2 2-3 1-1 0-2-1-1-3zM173 591c1-2 2-2 4-2 1 0 2 2 1 3 0 2-2 2-3 2l-2-3zM797 256c0-1 2-2 3-1l2 3-4 2c-1-1-2-2-1-4zM274 468c1-1 2-2 4-1 1 0 2 2 1 3l-3 2-2-4zM448 349c0-1 2-2 3-1l2 3-3 2c-2-1-3-2-2-4zM141 663a3 3 0 115 2 3 3 0 01-5-2zM376 598c0-2 2-2 3-2l2 3c-1 2-2 2-4 2-1-1-2-2-1-3zM224 691c1-1 2-2 4-1 1 0 2 2 1 3l-3 2-2-4zM873 66a3 3 0 116 2 3 3 0 01-6-2zM233 509a3 3 0 115 2 3 3 0 01-5-2zM114 571a3 3 0 115 2 3 3 0 11-5-2zM615 221c1-2 2-3 4-2 1 0 2 2 1 3 0 2-2 3-3 2l-2-3zM814 264c0-2 2-2 3-2 2 1 2 2 2 3-1 2-2 3-4 2-1 0-2-2-1-3zM-2 773c1-2 2-2 4-2l2 4c-1 1-2 2-4 1l-2-3zM122 661c1-1 2-2 4-1l2 3c-1 2-2 2-4 2l-2-4zM770 177c1-1 2-2 4-1l2 3-4 2-2-4zM589 247l4-2 2 4-4 2-2-4zM334 519c0-2 2-2 3-2 2 1 2 2 2 4a3 3 0 01-5-2zM883 95l4-2c1 1 2 2 1 4 0 1-2 2-3 1l-2-3zM163 718a3 3 0 115 2c0 2-2 2-3 2-2-1-2-2-2-4zM400 360c1-1 2-2 4-1a3 3 0 11-4 1zM414 263c1-2 2-2 4-2 1 1 2 2 1 4 0 1-2 2-3 1-2 0-2-2-2-3zM793 180c0-2 2-3 3-2 2 0 3 2 2 3 0 2-2 3-3 2-2 0-3-2-2-3zM736 94c0-2 2-3 3-2 2 0 2 2 2 3 0 2-2 3-4 2-1 0-2-2-1-3zM438 481c1-2 3-2 4-2l2 4c-1 1-2 2-4 1l-2-3zM258 673l3-2c2 1 2 3 2 4-1 2-2 2-4 2-1-1-2-2-1-4zM383 400a3 3 0 105-2 3 3 0 00-5 2z" fill="#02D2D6" fill-opacity=".5"/><path d="M176 586c0-1 2-2 3-1 2 0 2 2 2 3-1 2-2 3-4 2-1 0-2-2-1-4zM426 274l4-2 2 4c-1 2-3 2-4 2-2-1-2-2-2-4zM396 581l3-2a3 3 0 11-1 6c-2-1-3-2-2-4zM-2 762c1-1 3-2 4-1 2 0 2 2 2 3-1 2-2 3-4 2l-2-4zM463 470c0-1 2-2 4-1 1 0 2 2 1 3 0 2-2 3-3 2-2 0-3-2-2-4zM471 406c1-2 2-3 4-2l2 4c-1 1-3 2-4 1-2 0-2-2-2-3zM378 429l3-2c2 1 3 3 2 4 0 2-2 2-4 2-1-1-2-2-1-4zM642 308c0-2 2-3 4-2l2 3c-1 2-3 3-4 2-2 0-3-2-2-3zM399 404c1-2 3-2 4-2 2 1 2 2 2 4l-4 2-2-4zM413 282c1-2 2-3 4-2l2 4-4 2c-2-1-2-3-2-4zM759 199c1-2 2-3 4-2a3 3 0 11-2 5c-2 0-2-2-2-3zM51 754c1-2 3-3 4-2 2 0 3 2 2 4-1 1-2 2-4 1l-2-3zM665 295l4-2c2 1 3 3 2 4 0 2-2 3-4 2l-2-4zM44 824l3-2c2 1 3 3 2 4 0 2-2 3-4 2-1-1-2-2-1-4zM518 322c1-2 2-3 4-2 2 0 2 2 2 4-1 1-2 2-4 1l-2-3zM625 222c1-1 2-2 4-1 2 0 2 2 2 3-1 2-2 3-4 2l-2-4zM662 277c0-2 2-3 4-2l2 4-4 2c-2-1-3-3-2-4zM602 280l4-2c2 1 3 3 2 4 0 2-2 3-4 2l-2-4zM342 494c0-2 2-3 4-2l2 4-4 2c-2-1-3-3-2-4zM405 321l4-2c2 1 3 3 2 4 0 2-2 3-4 2l-2-4zM665 309c0-2 2-3 4-2l2 4-4 2c-2-1-3-3-2-4zM540 301l4-2 2 4c-1 2-3 3-4 2-2 0-3-2-2-4zM754 249a3 3 0 016 2c0 2-2 3-4 2-2 0-2-2-2-4zM634 290c1-2 3-2 4-2 2 1 3 2 2 4 0 2-2 3-4 2l-2-4zM394 412c0-2 2-3 4-2l2 4-4 2c-2-1-3-3-2-4zM353 440c0-2 2-2 4-2l2 4c-1 2-3 3-4 2-2 0-3-2-2-4zM101 841c1-2 3-3 5-3 2 1 3 3 2 5s-3 2-4 2l-3-4zM657 348c0-2 2-3 4-2 2 0 3 2 2 4 0 2-2 3-4 2-2 0-3-2-2-4zM466 506c1-2 3-3 5-2s3 3 2 5l-4 2c-2-1-3-3-3-5zM44 797c1-2 3-3 5-2 2 0 3 2 2 4 0 2-2 3-4 3-2-1-3-3-3-5zM663 336c1-2 3-3 5-2 1 1 3 3 2 5s-3 3-5 2-3-3-2-5zM427 313c0-2 3-3 5-3 2 1 3 3 2 5s-3 3-5 3c-2-1-3-3-2-5z" fill="#02D2D6" fill-opacity=".5"/><path d="M661 279c1-2 3-3 5-2s3 3 2 5c0 2-3 3-5 2-2 0-3-3-2-5zM604 335c0-2 3-3 5-2a4 4 0 11-3 7c-2-1-3-3-2-5zM615 389c1-2 3-3 5-3 2 1 3 3 2 5 0 3-3 4-5 3s-3-3-2-5zM753 205c1-2 3-3 6-3 2 1 3 3 2 5 0 3-3 4-5 3s-3-3-3-5zM704 205c0-2 3-4 6-3 2 1 4 4 3 6-1 3-4 4-6 4-3-1-4-4-3-7zM416 558c1-3 4-5 7-4a6 6 0 11-4 11c-2-1-4-4-3-7zM262 493c1-3 4-4 7-3s5 4 4 7-4 5-7 4-5-5-4-8z" fill="#02D2D6" fill-opacity=".5"/><path d="M700 118l27-10 1-1h-1l-28 9v1l1 1z" fill="#02D2D6" fill-opacity=".3"/><path d="M761 136l-61-20-1 1v1l61 20 2-1-1-1z" fill="#02D2D6" fill-opacity=".1"/><path d="M761 137l-33-30h-2v1l34 30h1v-1z" fill="#02D2D6" fill-opacity=".5"/><path d="M726 107l-22 41 1 2 1-1 22-41-1-1h-1z" fill="#02D2D6" fill-opacity=".4"/><path d="M761 136l-56 12-1 1 1 1 56-12 1-1-1-1z" fill="#02D2D6" fill-opacity=".3"/><path d="M845 119l-85 17v1l1 1 85-17 1-1-2-1z" fill="none"/><path d="M750 143l-22-36h-2v1l22 36 1 1 1-2z" fill="#02D2D6" fill-opacity=".3"/><path d="M760 136l-12 7v1l1 1 12-7 1-1-2-1z" fill="#02D2D6" fill-opacity=".5"/><path d="M760 137l-35 41v1h2l34-41v-1h-1z" fill="#02D2D6" fill-opacity=".3"/><path d="M312 509l11 16h1l1-1-12-16h-1v1z" fill="#02D2D6" fill-opacity=".5"/><path d="M762 137V98l-1-1-2 1 1 39 1 1 1-1z" fill="#02D2D6" fill-opacity=".1"/><path d="M847 119l-31-54h-1l-1 1 31 54 1 1 1-2z" fill="#02D2D6" fill-opacity=".4"/><path d="M908 46l-93 19-1 1 1 1 94-19 1-1-2-1z" fill="none"/><path d="M904-1l4 49h1v-1l-3-48-1-1-1 1z" fill="#02D2D6" fill-opacity=".5"/><path d="M908 47l-63 72v2l1-1 63-72v-1h-1z" fill="none"/><path d="M749 143l-44 5-1 1 1 1 44-5 1-1-1-1z" fill="#02D2D6" fill-opacity=".5"/><path d="M727 178l-21-30h-2v1l21 30h2v-1zM807 52l7 14 1 1 1-2-7-14-1-1-1 2z" fill="#02D2D6" fill-opacity=".5"/><path d="M847 119l-38-68-1-1-1 2 38 68 1 1 1-2z" fill="#02D2D6" fill-opacity=".2"/><path d="M624 329l-44 24v2h1l44-24v-2h-1z" fill="#02D2D6" fill-opacity=".1"/><path d="M748 143l-23 35v1h2l22-35v-1h-1z" fill="#02D2D6" fill-opacity=".5"/><path d="M760 97l-56 51v1l2 1 55-51v-2h-1z" fill="#02D2D6" fill-opacity=".1"/><path d="M815 65l-55 32v2h1l55-32v-2h-1z" fill="#02D2D6" fill-opacity=".3"/><path d="M846 119l-85-22-1 1v1l85 22 2-1-1-1zM581 353l-71-38h-2l1 2 71 38h2l-1-2z" fill="none"/><path d="M750 144l11-46v-1l-1 1-12 46v1l2-1z" fill="#02D2D6" fill-opacity=".4"/><path d="M808 51l-48 46v2h1l48-47v-2l-1 1z" fill="#02D2D6" fill-opacity=".3"/><path d="M809 51l-13-74-1-1-1 1 13 74 2 1v-1z" fill="#02D2D6" fill-opacity=".1"/><path d="M795-24L720 8l-1 2h1l76-32v-2h-1z" fill="#02D2D6" fill-opacity=".2"/><path d="M702 162l23 17h2v-1l-24-18h-2l1 2zM721 10l26-77-1-1h-1L719 9l1 1h1zM374 430l42-39v-2h-2l-42 39v2h2z" fill="#02D2D6" fill-opacity=".1"/><path d="M420 247l4-3v-1l-4 4z" fill="#02D2D6" fill-opacity=".3"/><path d="M805 132l-44-35h-1v2l44 35 1-1v-1z" fill="none"/><path d="M423 244h1v-1l-1 1z" fill="#02D2D6" fill-opacity=".3"/><path d="M648 178l54-16 1-2h-1l-55 16-1 1 2 1z" fill="#02D2D6" fill-opacity=".4"/><path d="M423 244h1v-1l-1 1z" fill="#02D2D6" fill-opacity=".1"/><path d="M372 429l-34 74v1h1l35-75-1-1-1 1z" fill="#02D2D6" fill-opacity=".2"/><path d="M804 133l30 48h1v-2l-29-47h-2v1z" fill="#02D2D6" fill-opacity=".4"/><path d="M320 502l18 2 2-1-1-1-19-2-1 1 1 1z" fill="#02D2D6" fill-opacity=".5"/><path d="M372 428l-53 72v2h2l53-72v-2h-2z" fill="#02D2D6" fill-opacity=".2"/><path d="M339 502l-71-12-1 1 1 1 70 12 2-1-1-1z" fill="#02D2D6" fill-opacity=".3"/><path d="M320 500l-52-10-1 1v1l53 10 1-1-1-1z" fill="#02D2D6" fill-opacity=".5"/><path d="M646 177v38l1 1 1-1v-38l-1-1-1 1zM862 64l-58 68v2l1-1 59-68-1-1h-1z" fill="none"/><path d="M267 490l-66 10-1 2h1l67-10 1-1-2-1z" fill="#02D2D6" fill-opacity=".4"/><path d="M203 464l-2 2 66 26h2l-1-2-65-26z" fill="none"/><path d="M186 481l14 21h2v-1l-15-22-1 2z" fill="#02D2D6" fill-opacity=".4"/><path d="M174 520l94-28 1-1-2-1-94 28v1l1 1z" fill="#02D2D6" fill-opacity=".2"/><path d="M174 520l28-18v-1l-2-1-27 18v2h1z" fill="#02D2D6" fill-opacity=".5"/><path d="M170 496l3 23 1 1 1-1-3-25-2 2z" fill="#02D2D6" fill-opacity=".4"/><path d="M862 66l24 12 2-1-1-1-24-12h-1v2z" fill="#02D2D6" fill-opacity=".5"/><path d="M522 307l63-12 1-1-1-1-64 12-1 1 2 1z" fill="#02D2D6" fill-opacity=".3"/><path d="M838-5l48 83h1l1-2-48-82h-2v1z" fill="#02D2D6" fill-opacity=".1"/><path d="M838-5l24 70 1 1 1-2-24-70h-2v1zM200 500l-48 27-1 1 2 1 48-27 1-1-2-1z" fill="#02D2D6" fill-opacity=".3"/><path d="M522 307l18-20v-2l-2 1-17 19v2h1z" fill="#02D2D6" fill-opacity=".2"/><path d="M764 59l99 7 1-1-1-2-98-6-2 1 1 1z" fill="none"/><path d="M154 513l-3 15 1 1 1-1 4-18-3 3z" fill="#02D2D6" fill-opacity=".2"/><path d="M586 295l62-79v-2h-2l-62 79v2h2z" fill="#02D2D6" fill-opacity=".1"/><path d="M882 60l4 17 1 1 1-1-4-17-2-1v1z" fill="#02D2D6" fill-opacity=".4"/><path d="M765 59l74-63v-2h-1l-74 63v2h1z" fill="#02D2D6" fill-opacity=".1"/><path d="M863 66l20-5a1 1 0 10-1-2l-19 4-1 2 1 1z" fill="#02D2D6" fill-opacity=".5"/><path d="M728 198l-81 16-1 1 1 1 82-16 1-1-2-1z" fill="#02D2D6" fill-opacity=".2"/><path d="M173 518l-21 9-1 1 2 1 21-9 1-1-2-1z" fill="#02D2D6" fill-opacity=".5"/><path d="M838-5l44 66h1l1-2-44-65h-2v1z" fill="#02D2D6" fill-opacity=".3"/><path d="M539 287l46 8 1-1-1-1-46-8-1 1 1 1z" fill="#02D2D6" fill-opacity=".5"/><path d="M723 280l-75-66h-2v2l76 66 1-1v-1z" fill="#02D2D6" fill-opacity=".1"/><path d="M727 197l-80 17-1 1 1 1 81-17 1-1-2-1z" fill="#02D2D6" fill-opacity=".1"/><path d="M809 304l28-73-1-1h-1l-28 73v2l2-1z" fill="#02D2D6" fill-opacity=".3"/><path d="M751 54l13 5 2-1-1-1-13-5-1 1v1z" fill="#02D2D6" fill-opacity=".5"/><path d="M724 281l6-82-2-1-1 1-5 82 1 1 1-1z" fill="#02D2D6" fill-opacity=".3"/><path d="M836 232l20-14v-2h-2l-19 14v1l1 1zM729 199v-2h-2v3h2v-1z" fill="#02D2D6" fill-opacity=".5"/><path d="M173 519l10 80 1 1c1 0 2 0 1-1l-10-80-2-1v1z" fill="none"/><path d="M808 303l-85-23h-1v2l86 23 1-1-1-1z" fill="#02D2D6" fill-opacity=".2"/><path d="M837 231l23-49-1-2-1 1-23 49v2l2-1z" fill="#02D2D6" fill-opacity=".4"/><path d="M809 304l47-87v-1h-2l-47 87v2l2-1z" fill="#02D2D6" fill-opacity=".1"/><path d="M239 428l-2 2 41 27h2l-1-2-40-27z" fill="none"/><path d="M727 200l42 69 2 1v-2l-42-69-1-1-1 2z" fill="#02D2D6" fill-opacity=".3"/><path d="M586 294l-4-37-1-1-1 1 4 37 1 1 1-1z" fill="#02D2D6" fill-opacity=".2"/><path d="M835 230l-65 38-1 1 2 1 65-38 1-2h-2z" fill="#02D2D6" fill-opacity=".3"/><path d="M145 521l6 8h2v-2l-6-7-2 1zM763 58l-26 76v1l2-1 27-76-1-1-2 1z" fill="#02D2D6" fill-opacity=".2"/><path d="M729 199l10-65-1-1-1 1-10 65 1 1 1-1z" fill="#02D2D6" fill-opacity=".3"/><path d="M809 303l-38-35h-2v2l38 35 2-1v-1z" fill="#02D2D6" fill-opacity=".4"/><path d="M279 457l23-1 1-1-1-1-23 1-1 1 1 1z" fill="#02D2D6" fill-opacity=".5"/><path d="M658 234l-10-19-1-1-1 2 10 19h1l1-1z" fill="#02D2D6" fill-opacity=".2"/><path d="M835 231l-4 27 1 1 2-1 3-27-1-1c-1-1-1 0-1 1z" fill="#02D2D6" fill-opacity=".5"/><path d="M724 281l5-83-1-1-1 1-6 83 2 1 1-1z" fill="#02D2D6" fill-opacity=".3"/><path d="M858 181l-4 36 1 1 1-1 4-35-1-2-1 1z" fill="#02D2D6" fill-opacity=".5"/><path d="M809 304l24-46v-1h-2l-24 46v2l2-1z" fill="#02D2D6" fill-opacity=".4"/><path d="M723 282l48-12v-1l-1-1-48 12v1l1 1z" fill="#02D2D6" fill-opacity=".5"/><path d="M771 270l85-52v-2h-2l-84 52-1 1 2 1z" fill="#02D2D6" fill-opacity=".1"/><path d="M771 268l-42-71h-2v1l42 71 2 1v-2z" fill="#02D2D6" fill-opacity=".3"/><path d="M751 133l15-75-1-1-2 1-14 74 1 2 1-1z" fill="#02D2D6" fill-opacity=".1"/><path d="M352 500l82-32v-2h-1l-82 32v2h1z" fill="#02D2D6" fill-opacity=".2"/><path d="M737 134l-10 64 1 1 1-1 10-64-1-1-1 1z" fill="#02D2D6" fill-opacity=".4"/><path d="M854 216l-23 41 1 2 1-1 23-41v-1h-2z" fill="#02D2D6" fill-opacity=".5"/><path d="M540 287l42-29v-1l-2-1-42 29v2h2z" fill="#02D2D6" fill-opacity=".4"/><path d="M353 499l-50-45h-2v2l50 44h2v-1zM858 181l-27 76 1 2 1-1 27-76-1-2-1 1z" fill="#02D2D6" fill-opacity=".3"/><path d="M434 468l57-17 1-1-1-1-58 17-1 1 2 1z" fill="#02D2D6" fill-opacity=".1"/><path d="M185 599l-32-72h-1l-1 1 32 72h2v-1z" fill="#02D2D6" fill-opacity=".3"/><path d="M770 270l63-11v-1l-1-1-62 11-1 1 1 1zM264 506l39-50v-2h-2l-39 51v2l2-1z" fill="#02D2D6" fill-opacity=".4"/><path d="M278 457l73 43h2v-2l-74-43h-1v2zM710 231l19-31v-2l-2 1-19 30 1 2h1zM723 280l-66-47h-1v2l66 47 1-1v-1z" fill="#02D2D6" fill-opacity=".2"/><path d="M657 235l71-36 1-2h-2l-71 36v2h1z" fill="#02D2D6" fill-opacity=".2"/><path d="M278 456l-16 49 1 2 1-1 16-50-1-1-1 1z" fill="#02D2D6" fill-opacity=".5"/><path d="M749 132l-22 65v2l2-1 22-65-1-2-1 1zM145 521l6 8h2v-2l-6-7-2 1zM724 280l-13-50-2-1-1 1 13 51 2 1 1-2z" fill="#02D2D6" fill-opacity=".2"/><path d="M710 231l19-33-1-1h-1l-19 33 1 1h1z" fill="#02D2D6" fill-opacity=".4"/><path d="M82 617l71-88v-2h-2l-70 88v2h1z" fill="#02D2D6" fill-opacity=".1"/><path d="M750 131l-12 2-1 1 1 1 12-1 1-2-1-1z" fill="#02D2D6" fill-opacity=".5"/><path d="M657 233l-76 23-1 2h1l76-23 1-1-1-1z" fill="#02D2D6" fill-opacity=".3"/><path d="M752 54l45 10 1-1-1-1-45-10-1 1 1 1z" fill="#02D2D6" fill-opacity=".1"/><path d="M709 231l61 39 1-1v-1l-61-39-2 1 1 1z" fill="#02D2D6" fill-opacity=".2"/><path d="M711 230l28-96-1-1-1 1-29 96 1 1 2-1zM539 295l1-9-1-1-1 1-1 9 1 1 1-1z" fill="#02D2D6" fill-opacity=".1"/><path d="M796 62l-59 71v2h2l59-71v-2h-2z" fill="none"/><path d="M657 235l53-4 1-1-2-1-52 4-1 1 1 1z" fill="#02D2D6" fill-opacity=".5"/><path d="M749 132l-41 98 1 1h2l40-98-1-2-1 1z" fill="#02D2D6" fill-opacity=".1"/><path d="M82 617l103-17v-1l-1-1-103 17-1 1 2 1z" fill="#02D2D6" fill-opacity=".2"/><path d="M539 296l43-38v-1l-2-1-43 38v2h2z" fill="#02D2D6" fill-opacity=".3"/><path d="M492 449l-78-62-1 1v1l77 62h2v-2z" fill="#02D2D6" fill-opacity=".1"/><path d="M667 172l-11 62 1 1 1-1 12-62-1-1-2 1z" fill="#02D2D6" fill-opacity=".3"/><path d="M352 498h-10l-1 1 1 1 10 1 1-2-1-1z" fill="#02D2D6" fill-opacity=".4"/><path d="M750 131l-82 40-1 1 2 1 82-40v-1l-1-1z" fill="#02D2D6" fill-opacity=".2"/><path d="M751 133l47-69v-2h-2l-47 70v1h2z" fill="#02D2D6" fill-opacity=".2"/><path d="M126 719l59-119v-2l-2 1-60 119 1 1h2z" fill="none"/><path d="M473 194l25 31h2v-1l-26-32-1 2z" fill="#02D2D6" fill-opacity=".3"/><path d="M667 173l41 58h2v-2l-41-58h-1l-1 2z" fill="#02D2D6" fill-opacity=".4"/><path d="M350 538l3-38-1-2-1 1-3 38 1 2 1-1z" fill="#02D2D6" fill-opacity=".2"/><path d="M657 233l-32-9-2 1 1 1 33 9 1-1-1-1z" fill="#02D2D6" fill-opacity=".3"/><path d="M428 332l-16 56 1 1h2l15-56-1-2-1 1z" fill="#02D2D6" fill-opacity=".5"/><path d="M80 616l43 103h2l1-1-43-103h-2l-1 1z" fill="#02D2D6" fill-opacity=".1"/><path d="M625 226l84 5 2-1-1-1-85-5-2 1 2 1z" fill="#02D2D6" fill-opacity=".2"/><path d="M668 171l-44 53v2h2l43-53v-2h-1z" fill="#02D2D6" fill-opacity=".4"/><path d="M503 375l-90 12a1 1 0 001 2l89-12 1-1-1-1z" fill="#02D2D6" fill-opacity=".1"/><path d="M499 224l-48 28v2h1l48-28v-2h-1z" fill="#02D2D6" fill-opacity=".4"/><path d="M450 217l1 36 1 1 1-1-1-39-2 3zM428 334l74 43h2v-2l-74-43h-2v2z" fill="#02D2D6" fill-opacity=".2"/><path d="M377 290l-2 2 53 41h2v-1l-53-42z" fill="none"/><path d="M537 295l-35 81 1 1h1l35-81v-2l-2 1z" fill="#02D2D6" fill-opacity=".3"/><path d="M430 333l23-80-1-1-1 1-23 79 1 2 1-1z" fill="#02D2D6" fill-opacity=".1"/><path d="M350 537l-7-38-1-1-1 1 7 39 1 1 1-2z" fill="#02D2D6" fill-opacity=".5"/><path d="M392 275l36 58 2 1v-2l-36-59-2 2z" fill="#02D2D6" fill-opacity=".1"/><path d="M428 333l22 18h1v-2l-21-17h-2v1z" fill="#02D2D6" fill-opacity=".2"/><path d="M452 252l-42 5-3 3 45-6 1-1-1-1zM343 498l-66-30-1 1v1l66 30 1-1v-1z" fill="#02D2D6" fill-opacity=".1"/><path d="M414 253l-3 2 41-1 1-1-1-1-38 1z" fill="#02D2D6" fill-opacity=".4"/><path d="M800 258l63-85v-1h-2l-63 85v1h2zM350 537l-72-69h-2v2l72 68h2v-1z" fill="#02D2D6" fill-opacity=".1"/><path d="M450 351l52 26a1 1 0 102-2l-53-26-2 1 1 1z" fill="#02D2D6" fill-opacity=".4"/><path d="M393 274l56 77h2v-1l-56-78-2 2z" fill="none"/><path d="M348 538l29 61 2 1v-2l-29-61-1-1-1 2z" fill="#02D2D6" fill-opacity=".2"/><path d="M454 212l-3 41 1 1 1-1 4-44-3 3z" fill="#02D2D6" fill-opacity=".1"/><path d="M175 591l-33 73 1 1h1l33-73-1-2-1 1z" fill="#02D2D6" fill-opacity=".4"/><path d="M175 592l51 101h1l1-1-51-101-2-1v2z" fill="#02D2D6" fill-opacity=".1"/><path d="M227 691l-84-28-1 1 1 1 83 28h2l-1-2z" fill="#02D2D6" fill-opacity=".3"/><path d="M176 590l-59-19-2 1 1 1 59 20 2-1-1-2z" fill="none"/><path d="M236 511l42-41v-2h-2l-42 41v2h2z" fill="#02D2D6" fill-opacity=".4"/><path d="M799 258l17 8 1-1v-2l-17-7-2 1 1 1z" fill="#02D2D6" fill-opacity=".1"/><path d="M175 591l-51 71v1h2l51-71-1-2-1 1z" fill="none"/><path d="M125 664l18 1c1 1 1 0 1-1l-1-1-18-2-1 1 1 2z" fill="#02D2D6" fill-opacity=".2"/><path d="M125 664l101 29c1 1 2 0 2-1l-1-1-102-30-1 1c-1 1 0 1 1 2z" fill="#02D2D6" fill-opacity=".1"/><path d="M117 573l119-62 1-2h-2l-119 62v2h1z" fill="none"/><path d="M226 691l-61 27-1 2h2l61-27 1-1-2-1z" fill="#02D2D6" fill-opacity=".1"/><path d="M875 68l10 28 1 1 1-2-10-28-1-1-1 2z" fill="#02D2D6" fill-opacity=".5"/><path d="M126 662l-8-90-1-1-2 1 9 91 1 1 1-2z" fill="#02D2D6" fill-opacity=".4"/><path d="M1 772l-50-15-2 1 1 2 51 15 1-1c1-1 0-1-1-2zM617 221l-26 26v2h2l26-27v-1h-2z" fill="#02D2D6" fill-opacity=".5"/><path d="M772 179l43 86 2 1v-2l-43-86-2-1v2z" fill="#02D2D6" fill-opacity=".3"/><path d="M124 663l41 57h2v-2l-41-56-2-1v2z" fill="#02D2D6" fill-opacity=".4"/><path d="M234 509l-57 78v2l2-1 57-77v-2h-2zM794 181l21 84 2 1 1-2-21-84-2-1-1 2z" fill="#02D2D6" fill-opacity=".2"/><path d="M796 179l-23-2-1 1c-1 1 0 1 1 1l22 3 2-1-1-2z" fill="#02D2D6" fill-opacity=".5"/><path d="M116 573l62 16 2-1-1-2-62-15-2 1 1 1z" fill="none"/><path d="M737 95l35 84h1l1-1-34-84-2-1-1 2z" fill="#02D2D6" fill-opacity=".2"/><path d="M796 182l91-85v-2h-2l-91 85v2h2z" fill="#02D2D6" fill-opacity=".1"/><path d="M404 361l14-97-1-2-2 2-14 97 2 2 1-2z" fill="#02D2D6" fill-opacity=".3"/><path d="M2 774l1-11-2-1-1 1v11l1 1 1-1z" fill="none"/><path d="M335 521l63 62h2v-2l-63-62h-2v2zM442 481l-38-120-2-1-1 2 39 120 2 1v-2zM260 673l-95 45-1 2h2l95-45v-1l-1-1z" fill="#02D2D6" fill-opacity=".1"/><path d="M387 400l17-38-1-2-1 1-18 37 1 2h2z" fill="#02D2D6" fill-opacity=".5"/><path d="M797 180l-57-86-2-1-1 2 57 86 2 1 1-2z" fill="#02D2D6" fill-opacity=".3"/><path d="M404 362l26-86c1-1 0-2-1-2l-1 1-27 86 1 2 2-1z" fill="#02D2D6" fill-opacity=".2"/><path d="M387 399l31-135-1-2-2 1-31 136 1 1c1 1 2 0 2-1z" fill="#02D2D6" fill-opacity=".1"/><path d="M416 265l12 11h2v-2l-12-11h-2v2z" fill="#02D2D6" fill-opacity=".5"/><path d="M385 400l55 83h2v-2l-55-83h-2v2z" fill="#02D2D6" fill-opacity=".3"/><path d="M402 362l62 110 2 1 1-2-63-110-2-1v2z" fill="#02D2D6" fill-opacity=".1"/><path d="M261 673l-82-87h-2v2l82 87h2v-2zM402 362l71 46h2v-2l-71-46-2 1v1z" fill="#02D2D6" fill-opacity=".2"/><path d="M387 400l43-124c1-1 0-2-1-2l-1 1-44 124 1 1h2z" fill="#02D2D6" fill-opacity=".1"/><path d="M401 361l-22 69 1 1h2l22-69-1-2-2 1z" fill="#02D2D6" fill-opacity=".4"/><path d="M440 481l-43 101 1 1h2l42-101a1 1 0 00-2-1z" fill="#02D2D6" fill-opacity=".3"/><path d="M442 483l24-10 1-2-2-1-24 10-1 2 2 1z" fill="#02D2D6" fill-opacity=".5"/><path d="M442 482l33-75-1-2-1 1-33 75 1 2 1-1z" fill="#02D2D6" fill-opacity=".2"/><path d="M442 481l-61-52h-2l1 2 60 52h2v-2z" fill="#02D2D6" fill-opacity=".3"/><path d="M385 400l80 72h2v-2l-80-72h-2v2z" fill="#02D2D6" fill-opacity=".2"/><path d="M386 400l88 8 1-1-1-2-88-7-2 1 2 1z" fill="#02D2D6" fill-opacity=".3"/><path d="M384 399l-5 31 1 2 2-2 5-31-1-1-2 1z" fill="#02D2D6" fill-opacity=".5"/><path d="M404 405v-44l-1-1-2 1v44l1 2 2-2z" fill="#02D2D6" fill-opacity=".2"/><path d="M400 583l67-111-1-2-2 1-67 110 1 2h2z" fill="#02D2D6" fill-opacity=".1"/><path d="M165 718L54 753c-1 0-2 1-1 2l2 1 111-35 1-2-2-1z" fill="none"/><path d="M415 264l-1 19 2 1 1-1 1-19-1-2-2 2z" fill="#02D2D6" fill-opacity=".3"/><path d="M763 201l33-19 1-2-2-1-34 19v2l2 1z" fill="#02D2D6" fill-opacity=".2"/><path d="M472 407l-8 64 1 2 2-1 8-65-1-2-2 2z" fill="#02D2D6" fill-opacity=".5"/><path d="M763 199L740 94l-2-1-1 2 23 105 2 1c1 0 2-1 1-2z" fill="#02D2D6" fill-opacity=".1"/><path d="M380 431l85 42 2-1-1-2-85-41h-2l1 2z" fill="#02D2D6" fill-opacity=".3"/><path d="M385 400l17 6 2-1-1-1-17-6c-1-1-1 0-2 1l1 1z" fill="#02D2D6" fill-opacity=".4"/><path d="M474 405l-94 24-1 2 2 1 93-24c1 0 2-1 1-2l-1-1z" fill="#02D2D6" fill-opacity=".3"/><path d="M428 274l-13 8v2h2l13-8v-2h-2z" fill="#02D2D6" fill-opacity=".5"/><path d="M401 406l64 66h2v-2l-64-66h-2v2z" fill="#02D2D6" fill-opacity=".3"/><path d="M402 406l72 2 1-1-1-2-72-2-1 2 1 1z" fill="#02D2D6" fill-opacity=".5"/><path d="M401 404l-22 25v2h3l21-25v-2h-2z" fill="#02D2D6" fill-opacity=".5"/><path d="M1 765l53-9 2-2-2-1-53 9-1 2 1 1z" fill="#02D2D6" fill-opacity=".3"/><path d="M48 824L2 762H0v2l45 62h2l1-2z" fill="#02D2D6" fill-opacity=".3"/><path d="M384 399l-41 95 1 2 2-1 41-95-1-2-2 1z" fill="#02D2D6" fill-opacity=".1"/><path d="M667 295l-23 12-1 2 2 1 24-13v-2h-2z" fill="#02D2D6" fill-opacity=".5"/><path d="M627 224l16 85 2 1 1-2-16-85-2-1c-1 0-2 1-1 2z" fill="#02D2D6" fill-opacity=".2"/><path d="M663 277l-20 31 1 2 2-1 20-31v-2l-3 1zM379 429l-36 65 1 2 2-1 36-64-1-2h-2z" fill="#02D2D6" fill-opacity=".4"/><path d="M761 199l-94 96v2h2l94-96v-2h-2z" fill="#02D2D6" fill-opacity=".1"/><path d="M646 307l-40-27-2 1v2l40 27 2-1v-2z" fill="#02D2D6" fill-opacity=".3"/><path d="M48 825l8-70-2-2-1 1-8 71 1 2 2-2z" fill="#02D2D6" fill-opacity=".5"/><path d="M645 310l23 1a2 2 0 100-3l-23-1-2 1 2 2z" fill="#02D2D6" fill-opacity=".3"/><path d="M762 198l-134 24c-1 0-2 1-1 2l1 1 134-24 2-2-2-1z" fill="#02D2D6" fill-opacity=".1"/><path d="M627 224l40 73h2l1-2-40-72-3-1v2z" fill="#02D2D6" fill-opacity=".4"/><path d="M401 404l-58 90a2 2 0 003 2l57-90v-2h-2z" fill="#02D2D6" fill-opacity=".3"/><path d="M761 198l-97 78-1 3h3l97-78v-2l-2-1zM404 405l6-83-2-1-1 1-6 83c-1 1 0 1 1 1l2-1z" fill="#02D2D6" fill-opacity=".2"/><path d="M410 323l7-40c1-1 0-1-1-2l-1 2-8 39c-1 1 0 2 1 2l2-1zM663 278l4 18 1 2 2-2-4-19-2-1-1 2z" fill="#02D2D6" fill-opacity=".5"/><path d="M668 295l-62-15-2 1 1 2 63 15 2-1-2-2z" fill="#02D2D6" fill-opacity=".5"/><path d="M356 443l25-12 1-1c-1-1-1-2-2-1l-25 11-1 2 2 1zM761 199l-94 110v2h2l94-110v-2h-2z" fill="none"/><path d="M522 324l84-41 1-2-2-1-85 41v2l2 1z" fill="#02D2D6" fill-opacity=".3"/><path d="M627 224l36 55h2l1-2-37-54-2-1v2zM760 200l-4 50c-1 1 0 2 1 2l2-2 5-50a2 2 0 00-4 0zM667 296l-1 14 2 1 1-1 1-14-2-1-1 1z" fill="#02D2D6" fill-opacity=".5"/><path d="M627 223l-23 58 1 2 2-1 23-58-1-2-2 1zM542 301l-22 20v3h2l22-21v-2h-2z" fill="#02D2D6" fill-opacity=".5"/><path d="M627 224l39 86 2 1c1 0 2-1 1-2l-40-86-2-1v2z" fill="#02D2D6" fill-opacity=".4"/><path d="M627 222l-85 79v2h2l85-78v-3h-2z" fill="#02D2D6" fill-opacity=".3"/><path d="M637 293l31 5 2-2-2-1-30-5c-1-1-2 0-2 1l1 2zM665 276l-60 4a2 2 0 100 3l60-4 1-1-1-2z" fill="#02D2D6" fill-opacity=".5"/><path d="M401 404l-6 8 1 2h2l5-8v-2h-2z" fill="#02D2D6" fill-opacity=".3"/><path d="M398 413l19-130c1-1 0-2-1-2l-2 2-19 129 2 2 1-1z" fill="#02D2D6" fill-opacity=".1"/><path d="M401 404l-46 36v2h2l46-36v-2h-2z" fill="#02D2D6" fill-opacity=".3"/><path d="M663 278l3 32 2 1 1-1-3-32-2-2-1 2z" fill="#02D2D6" fill-opacity=".5"/><path d="M543 304l122-25 1-2-2-1-122 25-1 2 2 1z" fill="#02D2D6" fill-opacity=".2"/><path d="M627 224l9 67 2 2 1-2-9-68-2-1c-1 0-2 1-1 2z" fill="#02D2D6" fill-opacity=".5"/><path d="M665 279l93-27 1-2-2-1-93 27-1 2 2 1z" fill="#02D2D6" fill-opacity=".4"/><path d="M668 308l-62-28-2 1 1 2 62 28c1 1 2 0 2-1l-1-2z" fill="#02D2D6" fill-opacity=".5"/><path d="M543 304l63-21 1-2-2-1-63 21-1 2 2 1zM638 293l27-14 1-2-2-1-27 14-1 2 2 1z" fill="#02D2D6" fill-opacity=".5"/><path d="M638 290l-32-10-2 1 1 2 32 10 2-1-1-2z" fill="#02D2D6" fill-opacity=".5"/><path d="M637 292l30 19h2v-3l-31-18h-2l1 2z" fill="#02D2D6" fill-opacity=".5"/><path d="M543 304l95-11 1-2c0-1-1-2-2-1l-94 11-2 1 2 2z" fill="#02D2D6" fill-opacity=".4"/><path d="M638 293l120-41 1-2-2-1-120 41-1 2 2 1zM395 412l-52 82a2 2 0 003 2l52-82v-3l-3 1z" fill="#02D2D6" fill-opacity=".2"/><path d="M407 322l-12 90 2 2 1-1 12-91-2-1-1 1zM354 441l-11 53 1 2 2-1 11-53c1-1 0-2-1-2-1-1-2 0-2 1z" fill="#02D2D6" fill-opacity=".4"/><path d="M357 442l53-119-1-2-2 1-53 119 1 2 2-1z" fill="#02D2D6" fill-opacity=".2"/><path d="M357 442l41-28v-2l-2-1-41 29-1 2h3z" fill="#02D2D6" fill-opacity=".5"/><path d="M106 840l-57-43h-3l1 3 57 43h2v-3z" fill="#02D2D6" fill-opacity=".1"/><path d="M665 337l-6 11v3l3-1 6-11c1-1 0-2-1-3s-2 0-2 1z" fill="#02D2D6" fill-opacity=".4"/><path d="M668 338l-1-57c0-2-1-2-2-2-2 0-2 1-2 2l2 57 1 1 2-1z" fill="#02D2D6" fill-opacity=".4"/><path d="M666 336l-58-2c-2 0-2 1-2 2l1 2 59 1 2-1-2-2z" fill="#02D2D6" fill-opacity=".4"/><path d="M665 336l-48 53a2 2 0 003 3l48-53v-3h-3z" fill="#02D2D6" fill-opacity=".3"/><path d="M663 279l-57 56v3h3l57-56v-3h-3z" fill="#02D2D6" fill-opacity=".5"/><path d="M663 280l-46 109a2 2 0 003 2l46-110c1-1 0-2-1-2-1-1-2 0-2 1z" fill="#02D2D6" fill-opacity=".4"/><path d="M621 390l-12-54a2 2 0 10-3 1l11 54 2 1 2-2z" fill="#02D2D6" fill-opacity=".5"/><path d="M666 282l93-74v-3h-3l-93 74v3h3z" fill="#02D2D6" fill-opacity=".2"/></svg>