<svg width="720" height="762" viewBox="0 0 720 762" fill="none" xmlns="http://www.w3.org/2000/svg">
<path d="M222.229 446.961C223.17 447.007 223.937 446.266 224.004 445.372C224.049 444.43 223.308 443.661 222.415 443.593C221.474 443.547 220.707 444.288 220.64 445.182C220.595 446.124 221.309 446.962 222.229 446.961Z" fill="#02D2D6" fill-opacity="0.5"/>
<path d="M604.692 176.397C605.633 176.444 606.4 175.703 606.467 174.809C606.512 173.867 605.771 173.098 604.878 173.03C603.937 172.983 603.17 173.724 603.103 174.618C603.058 175.561 603.751 176.351 604.692 176.397Z" fill="#02D2D6" fill-opacity="0.5"/>
<path d="M626.908 212.092C627.849 212.139 628.664 211.377 628.71 210.434C628.755 209.492 627.993 208.675 627.052 208.628C626.111 208.582 625.296 209.344 625.25 210.286C625.205 211.228 625.967 212.045 626.908 212.092Z" fill="#02D2D6" fill-opacity="0.5"/>
<path d="M61.8744 373.234C62.8155 373.281 63.6307 372.518 63.6762 371.576C63.7217 370.634 62.9592 369.817 62.0181 369.77C61.077 369.723 60.2618 370.486 60.2163 371.428C60.1921 372.418 60.8851 373.208 61.8744 373.234Z" fill="#02D2D6" fill-opacity="0.5"/>
<path d="M400.329 289.824C401.27 289.87 402.107 289.156 402.131 288.166C402.176 287.224 401.462 286.385 400.473 286.36C399.532 286.313 398.695 287.027 398.671 288.017C398.674 288.938 399.388 289.777 400.329 289.824Z" fill="#02D2D6" fill-opacity="0.5"/>
<path d="M386.161 251.105C387.102 251.152 387.939 250.438 387.963 249.447C388.008 248.505 387.294 247.667 386.305 247.641C385.364 247.594 384.527 248.308 384.503 249.299C384.458 250.241 385.22 251.058 386.161 251.105Z" fill="#02D2D6" fill-opacity="0.5"/>
<path d="M275.776 234.687C276.717 234.734 277.553 234.02 277.626 233.008C277.671 232.066 276.957 231.228 275.946 231.154C275.005 231.107 274.169 231.821 274.096 232.833C274.072 233.823 274.835 234.64 275.776 234.687Z" fill="#02D2D6" fill-opacity="0.5"/>
<path d="M174.857 302.94C174.419 302.084 174.756 301.036 175.611 300.599C176.465 300.161 177.512 300.501 177.95 301.356C178.388 302.212 178.051 303.261 177.196 303.698C176.342 304.135 175.295 303.796 174.857 302.94Z" fill="#02D2D6" fill-opacity="0.5"/>
<path d="M149.872 406.885C150.862 406.911 151.698 406.197 151.722 405.206C151.747 404.216 151.032 403.377 150.043 403.352C149.054 403.326 148.217 404.04 148.193 405.031C148.148 405.973 148.931 406.838 149.872 406.885Z" fill="#02D2D6" fill-opacity="0.5"/>
<path d="M357.82 294.936C358.809 294.961 359.645 294.247 359.67 293.257C359.694 292.266 358.98 291.428 357.99 291.403C357.001 291.377 356.165 292.091 356.14 293.082C356.068 294.093 356.83 294.91 357.82 294.936Z" fill="#02D2D6" fill-opacity="0.5"/>
<path d="M465.27 228.497C466.259 228.523 467.096 227.809 467.12 226.818C467.144 225.828 466.43 224.989 465.441 224.964C464.451 224.938 463.615 225.652 463.591 226.643C463.545 227.585 464.281 228.472 465.27 228.497Z" fill="#02D2D6" fill-opacity="0.5"/>
<path d="M552.311 173.464C553.3 173.489 554.137 172.775 554.209 171.763C554.233 170.773 553.519 169.935 552.508 169.861C551.519 169.835 550.683 170.549 550.61 171.561C550.538 172.573 551.321 173.438 552.311 173.464Z" fill="#02D2D6" fill-opacity="0.5"/>
<path d="M429.339 184.258C430.329 184.284 431.165 183.57 431.237 182.558C431.262 181.567 430.547 180.729 429.537 180.655C428.547 180.63 427.711 181.344 427.639 182.356C427.566 183.367 428.329 184.184 429.339 184.258Z" fill="#02D2D6" fill-opacity="0.5"/>
<path d="M512.137 154.609C513.126 154.634 513.962 153.92 514.035 152.908C514.059 151.918 513.345 151.08 512.334 151.006C511.345 150.98 510.508 151.694 510.436 152.706C510.364 153.718 511.126 154.535 512.137 154.609Z" fill="#02D2D6" fill-opacity="0.5"/>
<path d="M376.521 259.268C377.511 259.293 378.347 258.579 378.419 257.567C378.444 256.577 377.729 255.739 376.719 255.665C375.73 255.639 374.893 256.353 374.821 257.365C374.748 258.377 375.511 259.194 376.521 259.268Z" fill="#02D2D6" fill-opacity="0.5"/>
<path d="M339.421 267.128C340.41 267.154 341.247 266.44 341.319 265.428C341.392 264.416 340.629 263.599 339.619 263.525C338.629 263.5 337.793 264.214 337.72 265.226C337.648 266.237 338.432 267.103 339.421 267.128Z" fill="#02D2D6" fill-opacity="0.5"/>
<path d="M475.561 239.067C476.55 239.093 477.435 238.357 477.459 237.367C477.483 236.376 476.748 235.49 475.758 235.464C474.769 235.439 473.885 236.174 473.86 237.164C473.836 238.155 474.599 238.972 475.561 239.067Z" fill="#02D2D6" fill-opacity="0.5"/>
<path d="M55.3343 462.798C56.3236 462.823 57.2083 462.088 57.2325 461.097C57.2567 460.107 56.5212 459.22 55.5318 459.195C54.5425 459.169 53.6578 459.905 53.6336 460.895C53.5612 461.907 54.3236 462.724 55.3343 462.798Z" fill="#02D2D6" fill-opacity="0.5"/>
<path d="M2.33386 553.334C3.34439 553.408 4.20757 552.625 4.21053 551.586C4.28294 550.574 3.49936 549.709 2.46188 549.704C1.45135 549.631 0.588056 550.414 0.585092 551.453C0.53962 552.395 1.32333 553.26 2.33386 553.334Z" fill="#02D2D6" fill-opacity="0.5"/>
<path d="M419.623 264.385C420.634 264.459 421.497 263.675 421.5 262.636C421.573 261.625 420.789 260.759 419.751 260.755C418.741 260.681 417.878 261.465 417.875 262.503C417.829 263.445 418.565 264.332 419.623 264.385Z" fill="#02D2D6" fill-opacity="0.5"/>
<path d="M482.162 328.552C483.172 328.626 484.036 327.842 484.087 326.782C484.159 325.771 483.375 324.905 482.317 324.853C481.306 324.779 480.443 325.562 480.392 326.622C480.341 327.682 481.172 328.526 482.162 328.552Z" fill="#02D2D6" fill-opacity="0.5"/>
<path d="M643.147 204.021C644.157 204.095 645.021 203.311 645.072 202.252C645.144 201.24 644.36 200.374 643.302 200.322C642.291 200.248 641.428 201.032 641.377 202.091C641.374 203.13 642.157 203.996 643.147 204.021Z" fill="#02D2D6" fill-opacity="0.5"/>
<path d="M659.559 179.62C660.57 179.694 661.433 178.91 661.484 177.85C661.557 176.839 660.773 175.973 659.714 175.921C658.704 175.847 657.84 176.63 657.789 177.69C657.765 178.681 658.549 179.546 659.559 179.62Z" fill="#02D2D6" fill-opacity="0.5"/>
<path d="M140.745 333.094C141.755 333.168 142.619 332.385 142.67 331.325C142.742 330.313 141.959 329.448 140.9 329.395C139.889 329.321 139.026 330.105 138.975 331.165C138.951 332.155 139.734 333.021 140.745 333.094Z" fill="#02D2D6" fill-opacity="0.5"/>
<path d="M534.822 274.879C535.833 274.953 536.696 274.17 536.747 273.11C536.82 272.098 536.036 271.233 534.977 271.18C533.967 271.106 533.104 271.89 533.052 272.95C533.049 273.988 533.833 274.854 534.822 274.879Z" fill="#02D2D6" fill-opacity="0.5"/>
<path d="M556.244 331.903C557.303 331.956 558.166 331.172 558.217 330.112C558.269 329.052 557.485 328.187 556.426 328.134C555.367 328.082 554.504 328.865 554.453 329.925C554.402 330.985 555.255 331.877 556.244 331.903Z" fill="#02D2D6" fill-opacity="0.5"/>
<path d="M314.47 334.999C315.529 335.052 316.392 334.268 316.444 333.208C316.495 332.148 315.711 331.283 314.652 331.23C313.594 331.178 312.73 331.961 312.679 333.021C312.628 334.081 313.46 334.925 314.47 334.999Z" fill="#02D2D6" fill-opacity="0.5"/>
<path d="M181.839 503.416C181.754 503.222 181.717 503.008 181.729 502.773C181.78 501.713 182.691 500.908 183.702 500.982C184.36 501.038 184.931 501.421 185.261 501.909L181.839 503.416Z" fill="#02D2D6" fill-opacity="0.5"/>
<path d="M682.119 252.166C683.178 252.218 684.041 251.435 684.092 250.375C684.144 249.315 683.36 248.45 682.301 248.397C681.242 248.344 680.379 249.128 680.328 250.188C680.277 251.248 681.06 252.113 682.119 252.166Z" fill="#02D2D6" fill-opacity="0.5"/>
<path d="M346.661 293.508C347.72 293.56 348.631 292.756 348.683 291.696C348.734 290.636 347.929 289.722 346.87 289.67C345.811 289.617 344.9 290.422 344.849 291.482C344.819 292.59 345.602 293.455 346.661 293.508Z" fill="#02D2D6" fill-opacity="0.5"/>
<path d="M374.108 173.934C375.167 173.987 376.078 173.182 376.129 172.122C376.18 171.062 375.376 170.148 374.317 170.096C373.258 170.043 372.346 170.848 372.295 171.908C372.265 173.016 373.049 173.881 374.108 173.934Z" fill="#02D2D6" fill-opacity="0.5"/>
<path d="M7.90133 485.87C8.96012 485.922 9.87168 485.118 9.92283 484.058C9.97398 482.998 9.16896 482.084 8.11018 482.031C7.05139 481.979 6.13998 482.783 6.08882 483.843C6.03767 484.903 6.84255 485.817 7.90133 485.87Z" fill="#02D2D6" fill-opacity="0.5"/>
<path d="M404.591 215.211C405.65 215.263 406.561 214.459 406.612 213.399C406.663 212.339 405.858 211.425 404.8 211.372C403.741 211.32 402.829 212.125 402.778 213.185C402.679 214.266 403.532 215.158 404.591 215.211Z" fill="#02D2D6" fill-opacity="0.5"/>
<path d="M108.706 450.598C109.765 450.651 110.724 449.825 110.754 448.717C110.805 447.657 109.979 446.695 108.872 446.663C107.813 446.611 106.854 447.437 106.824 448.545C106.821 449.584 107.626 450.497 108.706 450.598Z" fill="#02D2D6" fill-opacity="0.5"/>
<path d="M162.262 399.874C163.369 399.906 164.281 399.101 164.31 397.993C164.34 396.885 163.535 395.971 162.428 395.94C161.322 395.908 160.41 396.713 160.38 397.821C160.35 398.929 161.155 399.843 162.262 399.874Z" fill="#02D2D6" fill-opacity="0.5"/>
<path d="M479.606 163.57C480.713 163.601 481.624 162.797 481.702 161.667C481.732 160.559 480.927 159.645 479.799 159.566C478.692 159.534 477.78 160.339 477.702 161.468C477.672 162.577 478.499 163.539 479.606 163.57Z" fill="#02D2D6" fill-opacity="0.5"/>
<path d="M482.21 188.302C483.317 188.334 484.276 187.508 484.306 186.399C484.336 185.291 483.51 184.329 482.403 184.298C481.296 184.267 480.336 185.092 480.307 186.201C480.277 187.309 481.151 188.25 482.21 188.302Z" fill="#02D2D6" fill-opacity="0.5"/>
<path d="M533.96 232.147C535.067 232.178 536.026 231.352 536.056 230.244C536.086 229.136 535.26 228.174 534.153 228.143C533.046 228.111 532.086 228.937 532.057 230.045C532.027 231.154 532.901 232.094 533.96 232.147Z" fill="#02D2D6" fill-opacity="0.5"/>
<path d="M281.877 322.778C282.984 322.809 283.944 321.983 283.974 320.875C284.004 319.767 283.178 318.805 282.071 318.773C280.964 318.742 280.004 319.568 279.974 320.676C279.944 321.784 280.818 322.725 281.877 322.778Z" fill="#02D2D6" fill-opacity="0.5"/>
<path d="M193.793 349.567C194.9 349.598 195.86 348.773 195.938 347.643C195.968 346.535 195.142 345.573 194.013 345.493C192.906 345.462 191.947 346.288 191.869 347.417C191.791 348.547 192.686 349.536 193.793 349.567Z" fill="#02D2D6" fill-opacity="0.5"/>
<path d="M455.169 274.557C456.297 274.636 457.235 273.762 457.313 272.633C457.391 271.503 456.517 270.563 455.389 270.483C454.261 270.403 453.322 271.278 453.244 272.407C453.166 273.537 454.04 274.477 455.169 274.557Z" fill="#02D2D6" fill-opacity="0.5"/>
<path d="M322.434 258.468C323.562 258.548 324.548 257.653 324.578 256.544C324.657 255.415 323.761 254.426 322.654 254.395C321.526 254.315 320.539 255.21 320.509 256.319C320.431 257.448 321.327 258.437 322.434 258.468Z" fill="#02D2D6" fill-opacity="0.5"/>
<path d="M331.24 156.149C332.368 156.229 333.355 155.334 333.385 154.225C333.463 153.096 332.567 152.107 331.46 152.076C330.332 151.996 329.345 152.891 329.315 153.999C329.285 155.108 330.063 156.091 331.24 156.149Z" fill="#02D2D6" fill-opacity="0.5"/>
<path d="M259.47 155.699C260.598 155.779 261.585 154.883 261.593 153.727C261.671 152.597 260.776 151.608 259.621 151.598C258.492 151.519 257.506 152.414 257.497 153.571C257.467 154.679 258.342 155.62 259.47 155.699Z" fill="#02D2D6" fill-opacity="0.5"/>
<path d="M492.768 172.819C493.896 172.898 494.883 172.003 494.94 170.825C495.018 169.696 494.122 168.707 492.946 168.648C491.769 168.59 490.831 169.464 490.774 170.642C490.765 171.798 491.661 172.787 492.768 172.819Z" fill="#02D2D6" fill-opacity="0.5"/>
<path d="M185.053 391.397C186.181 391.477 187.168 390.582 187.224 389.404C187.281 388.226 186.407 387.285 185.23 387.227C184.102 387.147 183.116 388.043 183.059 389.22C183.002 390.398 183.898 391.387 185.053 391.397Z" fill="#02D2D6" fill-opacity="0.5"/>
<path d="M250.838 236.328C252.014 236.387 252.953 235.513 253.01 234.335C253.066 233.157 252.192 232.216 251.016 232.158C249.839 232.1 248.901 232.974 248.844 234.151C248.835 235.308 249.71 236.249 250.838 236.328Z" fill="#02D2D6" fill-opacity="0.5"/>
<path d="M349.57 144.333C350.746 144.392 351.685 143.518 351.741 142.34C351.798 141.162 350.924 140.222 349.747 140.163C348.571 140.105 347.633 140.979 347.576 142.157C347.567 143.313 348.442 144.254 349.57 144.333Z" fill="#02D2D6" fill-opacity="0.5"/>
<path d="M674.071 169.716C675.247 169.774 676.186 168.9 676.242 167.722C676.299 166.545 675.425 165.604 674.248 165.546C673.072 165.487 672.134 166.361 672.077 167.539C672.02 168.717 672.894 169.657 674.071 169.716Z" fill="#02D2D6" fill-opacity="0.5"/>
<path d="M323.393 259.602C324.569 259.661 325.507 258.787 325.564 257.609C325.621 256.431 324.747 255.49 323.57 255.432C322.394 255.374 321.455 256.248 321.399 257.425C321.369 258.534 322.264 259.523 323.393 259.602Z" fill="#02D2D6" fill-opacity="0.5"/>
<path d="M380.97 152.93C382.147 152.989 383.085 152.115 383.142 150.937C383.199 149.759 382.324 148.818 381.148 148.76C379.971 148.701 379.033 149.576 378.976 150.753C378.898 151.883 379.794 152.872 380.97 152.93Z" fill="#02D2D6" fill-opacity="0.5"/>
<path d="M276.764 199.555C277.94 199.614 278.927 198.718 278.935 197.562C278.992 196.384 278.097 195.395 276.941 195.385C275.765 195.326 274.778 196.222 274.77 197.378C274.692 198.508 275.587 199.497 276.764 199.555Z" fill="#02D2D6" fill-opacity="0.5"/>
<path d="M381.298 272.208C382.474 272.266 383.461 271.371 383.518 270.193C383.574 269.015 382.679 268.026 381.502 267.968C380.326 267.91 379.339 268.805 379.282 269.983C379.247 271.209 380.142 272.198 381.298 272.208Z" fill="#02D2D6" fill-opacity="0.5"/>
<path d="M306.956 150.126C308.132 150.184 309.119 149.289 309.175 148.111C309.232 146.933 308.336 145.944 307.16 145.886C305.984 145.827 304.997 146.723 304.94 147.9C304.884 149.078 305.779 150.067 306.956 150.126Z" fill="#02D2D6" fill-opacity="0.5"/>
<path d="M223.837 365.274C225.013 365.333 226 364.437 226.057 363.259C226.114 362.082 225.218 361.093 224.041 361.034C222.865 360.976 221.878 361.871 221.822 363.049C221.765 364.227 222.66 365.216 223.837 365.274Z" fill="#02D2D6" fill-opacity="0.5"/>
<path d="M268.763 308.148C269.939 308.206 270.926 307.311 270.982 306.133C271.039 304.955 270.144 303.966 268.967 303.908C267.791 303.849 266.804 304.745 266.747 305.923C266.669 307.052 267.586 308.089 268.763 308.148Z" fill="#02D2D6" fill-opacity="0.5"/>
<path d="M29.1564 378.243C30.3329 378.301 31.3677 377.385 31.4246 376.207C31.4814 375.029 30.5645 373.992 29.3881 373.933C28.2116 373.875 27.1768 374.792 27.1199 375.969C27.0361 377.217 27.98 378.184 29.1564 378.243Z" fill="#02D2D6" fill-opacity="0.5"/>
<path d="M386.755 262.255C387.931 262.314 388.966 261.397 389.023 260.219C389.08 259.042 388.163 258.004 386.986 257.946C385.81 257.887 384.775 258.804 384.718 259.982C384.661 261.16 385.578 262.197 386.755 262.255Z" fill="#02D2D6" fill-opacity="0.5"/>
<path d="M289.713 264.516C290.889 264.575 291.924 263.658 291.981 262.48C292.038 261.303 291.121 260.265 289.944 260.207C288.768 260.148 287.733 261.065 287.676 262.243C287.592 263.49 288.536 264.458 289.713 264.516Z" fill="#02D2D6" fill-opacity="0.5"/>
<path d="M224.53 446.178C225.706 446.236 226.741 445.32 226.777 444.094C226.834 442.916 225.917 441.879 224.692 441.841C223.516 441.783 222.481 442.7 222.445 443.926C222.388 445.103 223.354 446.119 224.53 446.178Z" fill="#02D2D6" fill-opacity="0.5"/>
<path d="M56.1042 464.937C57.3288 464.974 58.3154 464.079 58.3992 462.832C58.4348 461.606 57.539 460.617 56.2932 460.531C55.0686 460.494 54.0821 461.389 53.9984 462.637C54.011 463.841 54.9278 464.879 56.1042 464.937Z" fill="#02D2D6" fill-opacity="0.5"/>
<path d="M325.881 318.967C327.106 319.004 328.14 318.088 328.176 316.862C328.212 315.636 327.295 314.598 326.07 314.561C324.846 314.524 323.811 315.441 323.775 316.667C323.74 317.893 324.657 318.93 325.881 318.967Z" fill="#02D2D6" fill-opacity="0.5"/>
<path d="M461.66 245.129C462.885 245.166 463.92 244.25 463.955 243.024C463.991 241.798 463.074 240.76 461.849 240.723C460.625 240.686 459.59 241.602 459.554 242.829C459.519 244.055 460.484 245.071 461.66 245.129Z" fill="#02D2D6" fill-opacity="0.5"/>
<path d="M108.981 470.304C110.205 470.341 111.24 469.425 111.276 468.199C111.311 466.973 110.394 465.935 109.17 465.898C107.945 465.861 106.91 466.777 106.875 468.003C106.818 469.181 107.735 470.218 108.981 470.304Z" fill="#02D2D6" fill-opacity="0.5"/>
<path d="M177.148 389.517C178.373 389.554 179.407 388.638 179.443 387.411C179.479 386.185 178.562 385.148 177.337 385.111C176.113 385.074 175.078 385.99 175.042 387.216C174.985 388.394 175.902 389.431 177.148 389.517Z" fill="#02D2D6" fill-opacity="0.5"/>
<path d="M265.75 338.811C266.974 338.848 268.057 337.91 268.093 336.684C268.177 335.437 267.191 334.373 265.966 334.336C264.741 334.298 263.658 335.236 263.623 336.462C263.587 337.688 264.504 338.726 265.75 338.811Z" fill="#02D2D6" fill-opacity="0.5"/>
<path d="M96.1328 392.503C97.3786 392.589 98.4404 391.603 98.476 390.377C98.5597 389.129 97.5734 388.065 96.3488 388.028C95.103 387.942 94.0413 388.928 94.0057 390.154C93.9219 391.402 94.8869 392.418 96.1328 392.503Z" fill="#02D2D6" fill-opacity="0.5"/>
<path d="M589.741 194.449C590.986 194.535 592.048 193.549 592.084 192.322C592.168 191.075 591.181 190.011 589.957 189.974C588.711 189.888 587.649 190.874 587.613 192.1C587.53 193.348 588.516 194.412 589.741 194.449Z" fill="#02D2D6" fill-opacity="0.5"/>
<path d="M389.692 153.01C390.938 153.095 392 152.109 392.084 150.862C392.167 149.615 391.181 148.55 389.935 148.465C388.689 148.379 387.628 149.365 387.544 150.613C387.481 151.908 388.468 152.972 389.692 153.01Z" fill="#02D2D6" fill-opacity="0.5"/>
<path d="M184.54 477.27C185.786 477.356 186.848 476.369 186.931 475.122C187.015 473.875 186.029 472.811 184.783 472.725C183.537 472.64 182.475 473.626 182.391 474.873C182.308 476.12 183.294 477.185 184.54 477.27Z" fill="#02D2D6" fill-opacity="0.5"/>
<path d="M296.274 178.92C297.568 178.985 298.629 177.998 298.692 176.703C298.755 175.407 297.768 174.343 296.474 174.279C295.18 174.214 294.118 175.201 294.056 176.496C294.042 177.77 295.028 178.835 296.274 178.92Z" fill="#02D2D6" fill-opacity="0.5"/>
<path d="M100.894 446.314C102.188 446.378 103.25 445.392 103.312 444.097C103.375 442.801 102.388 441.737 101.094 441.673C99.8002 441.608 98.7385 442.595 98.676 443.89C98.5922 445.137 99.5998 446.25 100.894 446.314Z" fill="#02D2D6" fill-opacity="0.5"/>
<path d="M484.383 176.51C485.725 176.553 486.883 175.525 486.924 174.181C486.966 172.837 485.937 171.676 484.595 171.633C483.252 171.59 482.094 172.619 482.053 173.962C482.012 175.306 483.041 176.467 484.383 176.51Z" fill="#02D2D6" fill-opacity="0.5"/>
<path d="M266.58 346.054C267.943 346.145 269.128 345.047 269.17 343.703C269.259 342.338 268.161 341.15 266.819 341.107C265.455 341.016 264.27 342.114 264.229 343.458C264.139 344.823 265.216 345.962 266.58 346.054Z" fill="#02D2D6" fill-opacity="0.5"/>
<path d="M295.674 162.008C297.038 162.1 298.223 161.002 298.264 159.658C298.354 158.293 297.256 157.105 295.913 157.062C294.55 156.97 293.365 158.068 293.323 159.412C293.234 160.777 294.284 161.986 295.674 162.008Z" fill="#02D2D6" fill-opacity="0.5"/>
<path d="M355.209 227.844C356.572 227.936 357.757 226.837 357.847 225.472C357.936 224.107 356.838 222.92 355.474 222.828C354.111 222.737 352.926 223.835 352.836 225.2C352.768 226.613 353.866 227.801 355.209 227.844Z" fill="#02D2D6" fill-opacity="0.5"/>
<path d="M235.304 359.304C236.716 359.374 237.852 358.297 237.942 356.932C238.01 355.519 236.933 354.379 235.57 354.288C234.158 354.218 233.021 355.295 232.932 356.66C232.842 358.025 233.94 359.212 235.304 359.304Z" fill="#02D2D6" fill-opacity="0.5"/>
<path d="M463.121 158.666C464.533 158.736 465.67 157.659 465.759 156.294C465.827 154.881 464.75 153.741 463.387 153.65C461.975 153.58 460.838 154.657 460.749 156.022C460.659 157.387 461.758 158.575 463.121 158.666Z" fill="#02D2D6" fill-opacity="0.5"/>
<path d="M75.6778 483.524C77.0895 483.594 78.2745 482.496 78.3427 481.083C78.4109 479.67 77.3126 478.482 75.901 478.412C74.4893 478.341 73.3043 479.439 73.2361 480.853C73.1679 482.266 74.2662 483.454 75.6778 483.524Z" fill="#02D2D6" fill-opacity="0.5"/>
<path d="M163.718 504.073C165.13 504.143 166.363 503.024 166.431 501.611C166.5 500.197 165.38 498.961 163.968 498.891C162.557 498.821 161.323 499.94 161.255 501.353C161.187 502.767 162.306 504.003 163.718 504.073Z" fill="#02D2D6" fill-opacity="0.5"/>
<path d="M360.63 207.879C362.041 207.949 363.275 206.829 363.343 205.416C363.411 204.003 362.292 202.767 360.88 202.696C359.468 202.626 358.235 203.746 358.167 205.159C358.098 206.572 359.218 207.808 360.63 207.879Z" fill="#02D2D6" fill-opacity="0.5"/>
<path d="M415.194 285.297C416.606 285.367 417.839 284.248 417.907 282.834C417.975 281.421 416.856 280.185 415.444 280.115C414.032 280.045 412.799 281.164 412.731 282.577C412.663 283.99 413.782 285.227 415.194 285.297Z" fill="#02D2D6" fill-opacity="0.5"/>
<path d="M35.8439 484.736C34.8651 483.657 34.9439 481.99 36.0199 481.011C37.0959 480.032 38.7617 480.114 39.7405 481.192C40.7192 482.271 40.6404 483.938 39.5644 484.917C38.4884 485.895 36.8227 485.814 35.8439 484.736Z" fill="#02D2D6" fill-opacity="0.5"/>
<path d="M157.94 489.902C159.4 489.951 160.633 488.832 160.702 487.419C160.749 485.957 159.629 484.721 158.217 484.651C156.757 484.602 155.524 485.721 155.456 487.134C155.361 488.617 156.48 489.853 157.94 489.902Z" fill="#02D2D6" fill-opacity="0.5"/>
<path d="M2.38935 393.369C3.87046 393.467 5.13054 392.278 5.1775 390.816C5.27265 389.334 4.08375 388.07 2.62389 388.021C1.14277 387.924 -0.117422 389.113 -0.164379 390.575C-0.211335 392.036 0.908233 393.272 2.38935 393.369Z" fill="#02D2D6" fill-opacity="0.5"/>
<path d="M60.3959 407.775C61.8771 407.872 63.1373 406.683 63.1843 405.222C63.2795 403.739 62.0905 402.476 60.6306 402.427C59.1494 402.33 57.8893 403.518 57.8423 404.98C57.7471 406.463 58.936 407.726 60.3959 407.775Z" fill="#02D2D6" fill-opacity="0.5"/>
<path d="M9.31889 479.943C10.8 480.04 12.0602 478.851 12.1072 477.39C12.2024 475.907 11.0133 474.644 9.55346 474.595C8.07232 474.498 6.8122 475.686 6.76523 477.148C6.71827 478.61 7.83775 479.846 9.31889 479.943Z" fill="#02D2D6" fill-opacity="0.5"/>
<path d="M201.197 294.377C202.678 294.475 203.938 293.286 204.033 291.803C204.128 290.32 202.939 289.057 201.458 288.96C199.977 288.863 198.717 290.051 198.622 291.534C198.527 293.017 199.667 294.301 201.197 294.377Z" fill="#02D2D6" fill-opacity="0.5"/>
<path d="M38.1093 469.804C39.6386 469.88 40.8988 468.691 40.994 467.209C41.0679 465.678 39.8788 464.414 38.3977 464.317C36.8684 464.241 35.6082 465.43 35.5131 466.913C35.4179 468.395 36.58 469.728 38.1093 469.804Z" fill="#02D2D6" fill-opacity="0.5"/>
<path d="M147.096 498.596C148.625 498.672 149.886 497.483 149.981 496C150.055 494.469 148.866 493.206 147.385 493.109C145.855 493.033 144.595 494.221 144.5 495.704C144.378 497.256 145.567 498.52 147.096 498.596Z" fill="#02D2D6" fill-opacity="0.5"/>
<path d="M333.226 230.317C334.755 230.393 336.015 229.204 336.089 227.673C336.163 226.142 334.974 224.879 333.445 224.803C331.916 224.727 330.655 225.916 330.581 227.447C330.486 228.93 331.697 230.241 333.226 230.317Z" fill="#02D2D6" fill-opacity="0.5"/>
<path d="M219.512 278.476C221.041 278.552 222.35 277.342 222.424 275.811C222.497 274.28 221.287 272.969 219.758 272.893C218.229 272.817 216.92 274.027 216.846 275.558C216.794 277.137 217.956 278.47 219.512 278.476Z" fill="#02D2D6" fill-opacity="0.5"/>
<path d="M148.086 395.51C149.615 395.586 150.923 394.376 150.997 392.845C151.071 391.314 149.861 390.003 148.332 389.927C146.802 389.851 145.494 391.061 145.42 392.592C145.346 394.123 146.556 395.434 148.086 395.51Z" fill="#02D2D6" fill-opacity="0.5"/>
<path d="M268.386 336.959C269.916 337.035 271.224 335.825 271.298 334.294C271.372 332.763 270.162 331.451 268.632 331.375C267.103 331.299 265.795 332.509 265.721 334.04C265.626 335.523 266.788 336.856 268.386 336.959Z" fill="#02D2D6" fill-opacity="0.5"/>
<path d="M234.091 287.677C235.668 287.732 236.977 286.522 237.051 284.991C237.103 283.412 235.893 282.1 234.364 282.024C232.786 281.969 231.478 283.179 231.404 284.71C231.33 286.241 232.513 287.622 234.091 287.677Z" fill="#02D2D6" fill-opacity="0.5"/>
<path d="M211.183 337.185C212.761 337.24 214.069 336.03 214.191 334.478C214.244 332.899 213.034 331.587 211.483 331.463C209.905 331.408 208.597 332.618 208.475 334.17C208.374 335.771 209.606 337.131 211.183 337.185Z" fill="#02D2D6" fill-opacity="0.5"/>
<path d="M110.705 492.254C112.282 492.309 113.591 491.099 113.713 489.546C113.765 487.967 112.555 486.655 111.005 486.531C109.454 486.407 108.119 487.686 107.996 489.239C107.944 490.818 109.175 492.178 110.705 492.254Z" fill="#02D2D6" fill-opacity="0.5"/>
<path d="M207.705 274.395C209.282 274.45 210.639 273.218 210.713 271.687C210.765 270.108 209.534 268.748 208.004 268.672C206.427 268.617 205.07 269.849 204.996 271.38C204.896 272.98 206.127 274.34 207.705 274.395Z" fill="#02D2D6" fill-opacity="0.5"/>
<path d="M172.64 383.721C174.218 383.775 175.574 382.544 175.648 381.013C175.701 379.434 174.469 378.074 172.94 377.998C171.362 377.943 170.006 379.174 169.932 380.705C169.831 382.306 171.063 383.666 172.64 383.721Z" fill="#02D2D6" fill-opacity="0.5"/>
<path d="M288.338 217.745C289.916 217.799 291.272 216.568 291.325 214.989C291.378 213.409 290.146 212.05 288.569 211.995C286.991 211.94 285.635 213.171 285.582 214.751C285.529 216.33 286.74 217.641 288.338 217.745Z" fill="#02D2D6" fill-opacity="0.5"/>
<path d="M213.58 306.563C215.179 306.666 216.584 305.413 216.615 303.786C216.716 302.185 215.463 300.777 213.838 300.743C212.239 300.64 210.834 301.893 210.803 303.52C210.771 305.148 212.003 306.508 213.58 306.563Z" fill="#02D2D6" fill-opacity="0.5"/>
<path d="M29.7019 472.007C31.3489 472.089 32.7055 470.858 32.7851 469.209C32.8647 467.56 31.6331 466.2 29.9862 466.119C28.3392 466.037 26.9826 467.268 26.903 468.917C26.8234 470.566 28.0549 471.925 29.7019 472.007Z" fill="#02D2D6" fill-opacity="0.5"/>
<path d="M171.57 268.113C173.334 268.201 174.814 266.858 174.899 265.091C174.984 263.324 173.641 261.841 171.876 261.753C170.112 261.665 168.632 263.009 168.547 264.775C168.462 266.542 169.826 268.074 171.57 268.113Z" fill="#02D2D6" fill-opacity="0.5"/>
<path d="M183.425 266.813C185.307 266.907 186.91 265.452 186.953 263.588C187.044 261.704 185.589 260.097 183.728 260.052C181.845 259.958 180.242 261.413 180.199 263.276C180.157 265.14 181.591 266.698 183.425 266.813Z" fill="#02D2D6" fill-opacity="0.5"/>
<path d="M125.301 476.664C127.252 476.784 128.931 475.238 129.049 473.285C129.166 471.331 127.62 469.648 125.669 469.528C123.717 469.407 122.039 470.953 121.921 472.907C121.824 474.909 123.322 476.613 125.301 476.664Z" fill="#02D2D6" fill-opacity="0.5"/>
<path d="M231.578 287.458C233.53 287.579 235.208 286.033 235.326 284.079C235.444 282.125 233.898 280.443 231.946 280.322C229.995 280.201 228.316 281.747 228.198 283.701C228.102 285.703 229.6 287.407 231.578 287.458Z" fill="#02D2D6" fill-opacity="0.5"/>
<path d="M164.972 317.818C166.972 317.917 168.651 316.371 168.747 314.369C168.844 312.367 167.298 310.685 165.298 310.585C163.298 310.486 161.62 312.032 161.523 314.034C161.426 316.036 162.994 317.767 164.972 317.818Z" fill="#02D2D6" fill-opacity="0.5"/>
<path d="M122.545 290.445C124.545 290.544 126.271 288.977 126.368 286.975C126.464 284.973 124.897 283.242 122.897 283.143C120.897 283.044 119.171 284.61 119.074 286.613C118.999 288.663 120.545 290.346 122.545 290.445Z" fill="#02D2D6" fill-opacity="0.5"/>
<path d="M326.015 233.146C328.132 233.251 329.886 231.615 330.009 229.543C330.112 227.423 328.475 225.665 326.406 225.539C324.288 225.434 322.535 227.07 322.411 229.142C322.309 231.262 323.897 233.041 326.015 233.146Z" fill="#02D2D6" fill-opacity="0.5"/>
<path d="M309.057 275.654C311.528 275.777 313.673 273.853 313.792 271.379C313.912 268.906 311.987 266.756 309.517 266.634C307.046 266.511 304.901 268.435 304.782 270.908C304.614 273.403 306.539 275.552 309.057 275.654Z" fill="#02D2D6" fill-opacity="0.5"/>
<path d="M382.79 307.746L399.78 287.529C400.08 287.167 400.626 287.099 401.01 287.449C401.373 287.75 401.441 288.297 401.092 288.681L384.081 308.85C383.78 309.212 383.283 309.258 382.92 308.957C382.557 308.656 382.489 308.109 382.79 307.746Z" fill="#02D2D6" fill-opacity="0.2983"/>
<path d="M387.139 249.406L384.318 308.342C384.295 308.813 383.877 309.17 383.455 309.125C382.984 309.102 382.648 308.731 382.671 308.26L385.444 249.346C385.467 248.874 385.864 248.469 386.356 248.541C386.757 248.537 387.162 248.935 387.139 249.406Z" fill="#02D2D6" fill-opacity="0.071386"/>
<path d="M626.238 210.831L604.044 175.184C603.805 174.771 603.972 174.236 604.336 174.018C604.7 173.8 605.214 173.92 605.432 174.285L627.626 209.932C627.865 210.345 627.698 210.88 627.286 211.119C626.969 211.316 626.505 211.175 626.238 210.831Z" fill="#02D2D6" fill-opacity="0.4539"/>
<path d="M387.059 249.095L401.228 287.814C401.371 288.27 401.134 288.777 400.679 288.92C400.224 289.063 399.738 288.873 399.595 288.417L385.427 249.699C385.283 249.243 385.52 248.736 385.975 248.593C386.409 248.402 386.916 248.64 387.059 249.095Z" fill="#02D2D6" fill-opacity="0.5"/>
<path d="M400.534 288.984L358.003 294.048C357.505 294.094 357.073 293.766 357.026 293.268C356.98 292.769 357.307 292.337 357.805 292.291L400.336 287.227C400.834 287.181 401.266 287.509 401.313 288.007C401.338 288.457 401.011 288.889 400.534 288.984Z" fill="#02D2D6" fill-opacity="0.3822"/>
<path d="M386.977 249.823L358.636 293.654C358.356 294.065 357.832 294.181 357.421 293.901C357.01 293.621 356.894 293.095 357.173 292.684L385.536 248.902C385.815 248.49 386.34 248.375 386.751 248.655C387.14 248.887 387.257 249.412 386.977 249.823Z" fill="#02D2D6" fill-opacity="0.2916"/>
<path d="M430.156 182.976L386.999 249.871C386.72 250.283 386.195 250.398 385.784 250.118C385.373 249.838 385.257 249.313 385.536 248.902L428.694 182.007C428.973 181.595 429.497 181.48 429.956 181.739C430.298 181.992 430.414 182.517 430.156 182.976Z" fill="#02D2D6" fill-opacity="0.025802"/>
<path d="M377.32 256.899L401.122 287.573C401.409 287.965 401.36 288.505 400.968 288.793C400.577 289.08 400.037 289.03 399.749 288.638L375.899 257.985C375.612 257.593 375.661 257.053 376.031 256.717C376.422 256.429 377.032 256.507 377.32 256.899Z" fill="#02D2D6" fill-opacity="0.3487"/>
<path d="M386.779 250.026L377.167 258.119C376.775 258.407 376.235 258.356 375.9 257.985C375.612 257.593 375.662 257.053 375.983 256.738L385.665 248.672C386.056 248.384 386.596 248.435 386.884 248.827C387.22 249.198 387.17 249.738 386.779 250.026Z" fill="#02D2D6" fill-opacity="0.4893"/>
<path d="M386.511 250.201L339.772 266.225C339.317 266.367 338.809 266.13 338.597 265.647C338.454 265.191 338.69 264.683 339.172 264.471L385.933 248.496C386.388 248.354 386.896 248.591 387.039 249.047C387.251 249.53 387.015 250.038 386.511 250.201Z" fill="#02D2D6" fill-opacity="0.2568"/>
<path d="M386.591 248.553L420.059 261.715C420.545 261.904 420.779 262.435 420.59 262.922C420.401 263.408 419.871 263.641 419.385 263.452L385.944 250.22C385.528 250.058 385.294 249.527 385.455 249.11C385.623 248.575 386.105 248.363 386.591 248.553Z" fill="#02D2D6" fill-opacity="0.1224"/>
<path d="M430.09 181.911L466.068 226.128C466.356 226.52 466.306 227.061 465.936 227.397C465.545 227.684 465.005 227.634 464.669 227.263L428.691 183.045C428.403 182.653 428.453 182.113 428.823 181.777C429.214 181.489 429.802 181.519 430.09 181.911Z" fill="#02D2D6" fill-opacity="0.3651"/>
<path d="M512.932 153.279L466.086 227.215C465.807 227.627 465.282 227.742 464.871 227.462C464.46 227.182 464.344 226.657 464.623 226.245L511.469 152.309C511.749 151.898 512.273 151.782 512.732 152.041C513.074 152.294 513.211 152.868 512.932 153.279Z" fill="#02D2D6" fill-opacity="0.024337"/>
<path d="M552.004 172.504L511.808 153.601C511.37 153.39 511.185 152.838 511.395 152.4C511.604 151.961 512.108 151.797 512.546 152.008L552.741 170.911C553.179 171.122 553.364 171.674 553.155 172.113C552.993 172.53 552.442 172.715 552.004 172.504Z" fill="#02D2D6" fill-opacity="0.5"/>
<path d="M512.515 153.636L429.717 183.285C429.262 183.428 428.754 183.19 428.563 182.756C428.42 182.3 428.657 181.792 429.091 181.601L511.888 151.952C512.343 151.809 512.851 152.047 513.042 152.481C513.206 152.985 512.97 153.493 512.515 153.636Z" fill="#02D2D6" fill-opacity="0.017"/>
<path d="M377.392 257.847L358.662 293.585C358.452 294.023 357.901 294.208 357.442 293.949C357.004 293.739 356.818 293.186 357.076 292.727L375.757 257.01C375.967 256.572 376.519 256.387 376.978 256.646C377.485 256.884 377.601 257.409 377.392 257.847Z" fill="#02D2D6" fill-opacity="0.5"/>
<path d="M340.261 264.856L358.659 292.664C358.899 293.077 358.801 293.639 358.389 293.878C357.976 294.117 357.463 293.998 357.175 293.605L338.777 265.798C338.49 265.406 338.636 264.822 339.027 264.535C339.461 264.344 339.974 264.464 340.261 264.856Z" fill="#02D2D6" fill-opacity="0.5"/>
<path d="M475.029 237.86L464.759 227.338C464.423 226.968 464.451 226.379 464.773 226.064C465.143 225.728 465.662 225.731 465.998 226.101L476.316 236.602C476.652 236.973 476.672 237.54 476.302 237.876C475.932 238.212 475.365 238.231 475.029 237.86Z" fill="#02D2D6" fill-opacity="0.5"/>
<path d="M430.089 181.911L476.359 236.698C476.695 237.069 476.618 237.679 476.227 237.967C475.857 238.303 475.296 238.204 474.981 237.881L428.711 183.094C428.375 182.723 428.425 182.182 428.795 181.846C429.213 181.489 429.753 181.54 430.089 181.911Z" fill="#02D2D6" fill-opacity="0.1647"/>
<path d="M176.947 302.806L141.39 331.946C141.02 332.282 140.41 332.204 140.074 331.833C139.739 331.463 139.815 330.852 140.185 330.517L175.763 301.425C176.155 301.137 176.695 301.188 176.982 301.58C177.388 301.978 177.317 302.47 176.947 302.806Z" fill="#02D2D6" fill-opacity="0.1496"/>
<path d="M376.802 258.337L339.723 266.246C339.246 266.34 338.766 266.033 338.671 265.556C338.576 265.079 338.882 264.599 339.359 264.504L376.438 256.596C376.914 256.501 377.395 256.808 377.49 257.285C377.584 257.762 377.278 258.243 376.802 258.337Z" fill="#02D2D6" fill-opacity="0.5"/>
<path d="M420.096 263.369L358.314 293.969C357.88 294.16 357.346 293.992 357.106 293.578C356.915 293.144 357.082 292.609 357.495 292.37L419.256 261.722C419.738 261.51 420.272 261.678 420.485 262.161C420.697 262.644 420.509 263.13 420.096 263.369Z" fill="#02D2D6" fill-opacity="0.1426"/>
<path d="M465.935 227.397L420.267 263.236C419.876 263.524 419.288 263.495 418.979 263.054C418.691 262.662 418.741 262.122 419.111 261.786L464.779 225.946C465.17 225.659 465.71 225.709 466.046 226.08C466.376 226.569 466.327 227.109 465.935 227.397Z" fill="#02D2D6" fill-opacity="0.2704"/>
<path d="M430.269 182.581L420.579 262.638C420.508 263.13 420.042 263.508 419.55 263.437C419.058 263.365 418.68 262.898 418.751 262.405L428.489 182.327C428.56 181.835 428.978 181.478 429.47 181.549C430.031 181.648 430.34 182.088 430.269 182.581Z" fill="#02D2D6" fill-opacity="0.022822"/>
<path d="M141.713 331.112L150.813 404.972C150.86 405.47 150.532 405.903 150.035 405.949C149.537 405.995 149.105 405.666 149.058 405.168L139.889 331.281C139.842 330.783 140.218 330.329 140.694 330.235C141.213 330.237 141.666 330.614 141.713 331.112Z" fill="#02D2D6" fill-opacity="0.01"/>
<path d="M376.7 256.538L419.801 261.655C420.293 261.726 420.672 262.194 420.601 262.686C420.53 263.178 420.112 263.535 419.62 263.464L376.518 258.347C376.027 258.275 375.669 257.856 375.74 257.364C375.742 256.844 376.208 256.466 376.7 256.538Z" fill="#02D2D6" fill-opacity="0.442"/>
<path d="M476.035 238.052L420.049 263.39C419.567 263.603 419.059 263.365 418.868 262.93C418.655 262.448 418.892 261.94 419.326 261.749L475.334 236.458C475.767 236.268 476.323 236.484 476.514 236.919C476.705 237.353 476.469 237.861 476.035 238.052Z" fill="#02D2D6" fill-opacity="0.3099"/>
<path d="M476.135 236.451L535.375 272.215C535.834 272.474 535.972 273.048 535.693 273.459C535.435 273.918 534.862 274.055 534.451 273.775L475.19 237.962C474.779 237.682 474.663 237.157 474.872 236.719C475.173 236.356 475.697 236.24 476.135 236.451Z" fill="#02D2D6" fill-opacity="0.1384"/>
<path d="M660.424 178.317L644.011 202.719C643.732 203.13 643.159 203.266 642.748 202.986C642.337 202.706 642.2 202.133 642.479 201.722L658.892 177.32C659.171 176.909 659.744 176.772 660.155 177.052C660.614 177.311 660.682 177.858 660.424 178.317Z" fill="#02D2D6" fill-opacity="0.5"/>
<path d="M535.563 273.688L482.903 327.361C482.533 327.697 481.966 327.716 481.63 327.345C481.294 326.974 481.296 326.455 481.596 326.092L534.257 272.419C534.627 272.083 535.194 272.064 535.578 272.414C535.913 272.785 535.933 273.353 535.563 273.688Z" fill="#02D2D6" fill-opacity="0.1777"/>
<path d="M345.822 291.86L338.624 265.577C338.481 265.122 338.766 264.593 339.242 264.498C339.697 264.356 340.225 264.642 340.32 265.119L347.615 291.359C347.779 291.863 347.446 292.413 346.922 292.529C346.467 292.671 345.986 292.364 345.822 291.86Z" fill="#02D2D6" fill-opacity="0.061653"/>
<path d="M482.319 325.774L556.428 329.055C556.947 329.057 557.374 329.504 557.324 330.044C557.322 330.564 556.877 330.99 556.337 330.94L482.255 327.588C481.736 327.586 481.358 327.119 481.38 326.648C481.403 326.177 481.8 325.771 482.319 325.774Z" fill="#02D2D6" fill-opacity="0.095964"/>
<path d="M7.58786 483.068L55.0158 460.114C55.4977 459.901 56.0321 460.07 56.2446 460.552C56.4572 461.035 56.2899 461.57 55.8079 461.782L8.40124 484.785C7.91931 484.997 7.38493 484.829 7.10294 484.319C6.91165 483.884 7.12718 483.328 7.58786 483.068Z" fill="#02D2D6" fill-opacity="0.1139"/>
<path d="M681.497 250.883L642.546 202.787C642.21 202.416 642.286 201.806 642.677 201.519C643.047 201.183 643.657 201.261 643.945 201.653L682.944 249.727C683.253 250.168 683.155 250.73 682.716 251.038C682.352 251.256 681.812 251.206 681.497 250.883Z" fill="#02D2D6" fill-opacity="0.1539"/>
<path d="M681.301 250.566L658.762 178.069C658.598 177.565 658.904 177.084 659.359 176.942C659.862 176.778 660.343 177.085 660.486 177.541L683.072 250.017C683.237 250.521 682.952 251.05 682.449 251.214C681.994 251.356 681.465 251.07 681.301 250.566Z" fill="#02D2D6" fill-opacity="0.016781"/>
<path d="M535.775 272.731L557.224 329.685C557.388 330.189 557.151 330.696 556.669 330.909C556.166 331.073 555.659 330.835 555.446 330.352L534.046 273.377C533.881 272.873 534.118 272.365 534.621 272.201C535.055 272.01 535.611 272.227 535.775 272.731Z" fill="#02D2D6" fill-opacity="0.275"/>
<path d="M179.381 504.498L183.132 502.039C183.544 501.8 184.105 501.899 184.393 502.291L179.381 504.498Z" fill="#02D2D6" fill-opacity="0.2788"/>
<path d="M405.57 212.993L420.548 262.306C420.691 262.761 420.407 263.29 419.952 263.433C419.497 263.576 418.968 263.29 418.825 262.834L403.75 213.563C403.586 213.059 403.871 212.53 404.374 212.367C404.926 212.181 405.454 212.467 405.57 212.993Z" fill="#02D2D6" fill-opacity="0.025117"/>
<path d="M182.707 503.033C182.633 502.605 182.843 502.167 183.228 501.997C183.662 501.806 184.127 501.947 184.393 502.291L182.707 503.033Z" fill="#02D2D6" fill-opacity="0.293"/>
<path d="M313.836 332.512L345.979 291.042C346.306 290.61 346.922 290.569 347.333 290.849C347.765 291.178 347.806 291.794 347.527 292.205L315.335 333.696C315.008 334.128 314.393 334.169 314.03 333.867C313.598 333.539 313.509 332.944 313.836 332.512Z" fill="#02D2D6" fill-opacity="0.4273"/>
<path d="M182.707 503.033C182.654 502.653 182.816 502.236 183.18 502.018C183.592 501.779 184.105 501.899 184.393 502.291L182.707 503.033Z" fill="#02D2D6" fill-opacity="0.1497"/>
<path d="M8.06429 484.934L-66.7901 489.761C-67.2876 489.807 -67.7624 489.382 -67.8091 488.884C-67.8559 488.386 -67.432 487.911 -66.9345 487.865L7.92008 483.038C8.41758 482.991 8.89226 483.416 8.93897 483.915C8.98568 484.413 8.60999 484.866 8.06429 484.934Z" fill="#02D2D6" fill-opacity="0.2121"/>
<path d="M403.878 213.853L373.416 172.625C373.107 172.184 373.205 171.622 373.623 171.265C374.062 170.957 374.624 171.055 374.981 171.475L405.443 212.703C405.752 213.143 405.675 213.753 405.236 214.062C404.797 214.371 404.235 214.272 403.878 213.853Z" fill="#02D2D6" fill-opacity="0.4063"/>
<path d="M8.27823 484.897L-70.8914 506.321C-71.4159 506.436 -71.9445 506.15 -72.0607 505.625C-72.1768 505.1 -71.8919 504.571 -71.3675 504.456L7.80214 483.031C8.32658 482.916 8.85525 483.202 8.9714 483.727C9.0663 484.204 8.78142 484.733 8.27823 484.897Z" fill="#02D2D6" fill-opacity="0.1934"/>
<path d="M314.26 333.997L281.645 321.727C281.111 321.559 280.835 320.931 281.071 320.424C281.239 319.889 281.865 319.613 282.372 319.851L314.933 332.259C315.419 332.449 315.653 332.98 315.465 333.466C315.255 333.904 314.725 334.138 314.26 333.997Z" fill="#02D2D6" fill-opacity="0.01"/>
<path d="M482.662 187.239L404.996 214.168C404.493 214.332 403.964 214.046 403.8 213.542C403.635 213.038 403.872 212.53 404.375 212.366L481.999 185.34C482.502 185.176 483.079 185.441 483.244 185.945C483.477 186.476 483.166 187.075 482.662 187.239Z" fill="#02D2D6" fill-opacity="0.01"/>
<path d="M481.311 186.392L478.707 161.66C478.639 161.114 479.063 160.639 479.609 160.571C480.155 160.504 480.629 160.929 480.697 161.476L483.349 186.187C483.417 186.733 483.014 187.256 482.447 187.275C481.902 187.343 481.379 186.939 481.311 186.392Z" fill="#02D2D6" fill-opacity="0.5"/>
<path d="M161.51 397.382L193.02 347.026C193.326 346.545 193.968 346.436 194.427 346.694C194.908 347.002 194.997 347.596 194.739 348.056L163.18 398.433C162.874 398.913 162.302 399.05 161.821 398.743C161.362 398.484 161.203 397.862 161.51 397.382Z" fill="#02D2D6" fill-opacity="0.2561"/>
<path d="M533.296 230.768L478.942 162.191C478.633 161.751 478.71 161.14 479.128 160.783C479.567 160.475 480.155 160.504 480.512 160.923L534.915 229.479C535.224 229.919 535.168 230.578 534.729 230.887C534.241 231.216 533.653 231.187 533.296 230.768Z" fill="#02D2D6" fill-opacity="0.079219"/>
<path d="M533.408 230.892L481.657 187.047C481.225 186.719 481.163 186.054 481.56 185.649C481.887 185.217 482.55 185.155 482.956 185.553L534.707 229.398C535.16 229.775 535.201 230.39 534.826 230.844C534.477 231.228 533.862 231.268 533.408 230.892Z" fill="#02D2D6" fill-opacity="0.3097"/>
<path d="M161.976 397.003L184.772 388.408C185.324 388.223 185.901 388.488 186.134 389.019C186.32 389.571 186.056 390.149 185.526 390.382L162.687 398.88C162.184 399.044 161.607 398.779 161.443 398.275C161.257 397.723 161.494 397.215 161.976 397.003Z" fill="#02D2D6" fill-opacity="0.213"/>
<path d="M454.246 272.197L481.355 185.969C481.523 185.435 482.101 185.18 482.635 185.348C483.17 185.517 483.425 186.096 483.284 186.561L456.223 272.768C456.055 273.302 455.498 273.605 454.964 273.437C454.381 273.29 454.126 272.711 454.246 272.197Z" fill="#02D2D6" fill-opacity="0.042059"/>
<path d="M193.561 346.557L281.693 319.746C282.244 319.561 282.794 319.895 282.959 320.399C283.144 320.952 282.811 321.502 282.308 321.666L194.176 348.477C193.624 348.662 193.074 348.327 192.889 347.775C192.746 347.319 193.057 346.721 193.561 346.557Z" fill="#02D2D6" fill-opacity="0.096676"/>
<path d="M492.285 171.59L479.145 162.39C478.712 162.061 478.602 161.418 478.929 160.986C479.257 160.554 479.829 160.417 480.31 160.724L493.499 169.903C493.979 170.211 494.09 170.854 493.735 171.355C493.381 171.857 492.739 171.967 492.285 171.59Z" fill="#02D2D6" fill-opacity="0.4219"/>
<path d="M454.792 271.61L533.604 229.249C534.113 228.967 534.717 229.162 534.951 229.693C535.211 230.155 535.017 230.759 534.556 231.02L455.744 273.381C455.235 273.663 454.632 273.468 454.35 272.958C454.089 272.496 454.283 271.892 454.792 271.61Z" fill="#02D2D6" fill-opacity="0.096827"/>
<path d="M481.484 185.74L492.021 170.208C492.327 169.727 492.969 169.617 493.45 169.925C493.93 170.232 494.041 170.875 493.734 171.355L483.176 186.839C482.848 187.272 482.228 187.43 481.795 187.101C481.315 186.794 481.204 186.151 481.484 185.74Z" fill="#02D2D6" fill-opacity="0.5"/>
<path d="M323.449 256.984L282.893 321.293C282.587 321.774 281.966 321.932 281.485 321.625C281.005 321.317 280.846 320.696 281.152 320.215L321.687 255.858C321.994 255.377 322.614 255.219 323.095 255.526C323.575 255.834 323.755 256.504 323.449 256.984Z" fill="#02D2D6" fill-opacity="0.2248"/>
<path d="M533.274 230.72L492.012 171.364C491.682 170.876 491.807 170.244 492.294 169.914C492.782 169.585 493.413 169.71 493.722 170.151L534.935 229.527C535.244 229.968 535.119 230.599 534.632 230.929C534.192 231.238 533.583 231.16 533.274 230.72Z" fill="#02D2D6" fill-opacity="0.2545"/>
<path d="M184.123 389.155L192.885 347.373C192.983 346.812 193.519 346.46 194.102 346.607C194.663 346.706 195.014 347.243 194.868 347.826L186.176 389.635C186.078 390.197 185.494 390.569 184.96 390.401C184.377 390.254 184.026 389.717 184.123 389.155Z" fill="#02D2D6" fill-opacity="0.4888"/>
<path d="M251.899 233.902L282.911 320.42C283.096 320.973 282.811 321.502 282.26 321.687C281.757 321.851 281.18 321.586 281.016 321.082L249.955 234.584C249.77 234.032 250.033 233.455 250.585 233.27C251.136 233.085 251.713 233.349 251.899 233.902Z" fill="#02D2D6" fill-opacity="0.068864"/>
<path d="M324.387 258.07L282.844 321.315C282.538 321.795 281.896 321.905 281.463 321.576C280.983 321.269 280.872 320.626 281.2 320.194L322.673 256.922C322.979 256.442 323.621 256.332 324.102 256.639C324.534 256.967 324.693 257.589 324.387 258.07Z" fill="#02D2D6" fill-opacity="0.1356"/>
<path d="M259.549 152.61L331.319 153.06C331.886 153.041 332.333 153.536 332.353 154.103C332.373 154.671 331.88 155.119 331.313 155.138L259.543 154.688C258.976 154.707 258.528 154.212 258.509 153.644C258.537 153.056 259.03 152.608 259.549 152.61Z" fill="#02D2D6" fill-opacity="0.308"/>
<path d="M454.15 284.919L454.207 272.502C454.187 271.934 454.68 271.487 455.247 271.468C455.814 271.449 456.262 271.943 456.282 272.511L456.273 284.906C456.245 285.495 455.8 285.922 455.233 285.941C454.644 285.911 454.17 285.486 454.15 284.919Z" fill="#02D2D6" fill-opacity="0.5"/>
<path d="M251.269 233.257L322.886 255.445C323.42 255.613 323.723 256.171 323.556 256.706C323.389 257.241 322.832 257.544 322.297 257.376L250.702 235.235C250.168 235.067 249.843 234.461 250.01 233.926C250.129 233.413 250.735 233.088 251.269 233.257Z" fill="#02D2D6" fill-opacity="0.2833"/>
<path d="M330.767 153.245L349.123 141.36C349.611 141.03 350.263 141.204 350.572 141.645C350.902 142.133 350.729 142.786 350.29 143.094L331.912 154.931C331.425 155.261 330.821 155.066 330.491 154.577C330.182 154.137 330.328 153.554 330.767 153.245Z" fill="#02D2D6" fill-opacity="0.5"/>
<path d="M323.319 255.774L324.257 256.859C324.614 257.278 324.628 257.964 324.162 258.342C323.743 258.699 323.059 258.712 322.68 258.245L321.742 257.159C321.385 256.74 321.392 256.103 321.859 255.725C322.304 255.298 322.94 255.306 323.319 255.774Z" fill="#02D2D6" fill-opacity="0.5"/>
<path d="M260.578 153.771L251.993 234.379C251.944 234.919 251.402 235.388 250.841 235.29C250.301 235.239 249.832 234.696 249.93 234.135L258.562 153.505C258.66 152.944 259.175 152.544 259.715 152.595C260.228 152.715 260.606 153.182 260.578 153.771Z" fill="#02D2D6" fill-opacity="0.1887"/>
<path d="M331.27 153.081L380.979 149.814C381.546 149.795 382.069 150.199 382.088 150.767C382.108 151.334 381.705 151.857 381.139 151.876L331.43 155.144C330.863 155.163 330.388 154.738 330.368 154.17C330.279 153.575 330.703 153.1 331.27 153.081Z" fill="#02D2D6" fill-opacity="0.4317"/>
<path d="M259.432 152.604L349.531 141.238C350.076 141.171 350.599 141.575 350.688 142.17C350.756 142.716 350.354 143.239 349.76 143.328L259.661 154.693C259.115 154.761 258.592 154.357 258.503 153.762C258.483 153.194 258.886 152.671 259.432 152.604Z" fill="#02D2D6" fill-opacity="0.088208"/>
<path d="M321.748 257.041L276.057 198.08C275.726 197.591 275.803 196.981 276.269 196.603C276.709 196.294 277.366 196.35 277.724 196.769L323.366 255.752C323.723 256.171 323.62 256.851 323.202 257.208C322.735 257.586 322.126 257.509 321.748 257.041Z" fill="#02D2D6" fill-opacity="0.2636"/>
<path d="M194.358 346.667L224.455 362.235C224.984 362.521 225.19 363.122 224.906 363.651C224.621 364.18 224.021 364.386 223.492 364.1L193.422 348.463C192.963 348.204 192.735 347.555 193.041 347.074C193.23 346.588 193.85 346.43 194.358 346.667Z" fill="#02D2D6" fill-opacity="0.2261"/>
<path d="M331.96 154.91L277.532 198.295C277.066 198.673 276.435 198.547 276.078 198.128C275.699 197.66 275.824 197.029 276.242 196.672L330.692 153.336C331.11 152.979 331.789 153.083 332.098 153.524C332.455 153.943 332.378 154.553 331.96 154.91Z" fill="#02D2D6" fill-opacity="0.2655"/>
<path d="M455.242 273.545L381.419 271.175C380.83 271.146 380.383 270.651 380.411 270.062C380.439 269.474 380.933 269.026 381.521 269.055L455.365 271.474C455.954 271.503 456.38 271.949 456.352 272.538C456.254 273.1 455.761 273.547 455.242 273.545Z" fill="#02D2D6" fill-opacity="0.2007"/>
<path d="M322.768 255.439L381.659 269.109C382.242 269.256 382.593 269.793 382.447 270.376C382.301 270.959 381.765 271.31 381.183 271.163L322.319 257.424C321.784 257.256 321.433 256.719 321.6 256.184C321.698 255.622 322.255 255.319 322.768 255.439Z" fill="#02D2D6" fill-opacity="0.2502"/>
<path d="M260.531 153.273L277.873 197.107C278.107 197.638 277.816 198.285 277.265 198.47C276.734 198.704 276.088 198.412 275.903 197.859L258.609 154.004C258.424 153.451 258.687 152.874 259.239 152.689C259.721 152.477 260.298 152.742 260.531 153.273Z" fill="#02D2D6" fill-opacity="0.4289"/>
<path d="M269.68 305.265L282.762 320.082C283.119 320.502 283.064 321.16 282.646 321.517C282.227 321.874 281.591 321.866 281.234 321.447L268.077 306.721C267.699 306.253 267.706 305.616 268.151 305.189C268.617 304.811 269.254 304.819 269.68 305.265Z" fill="#02D2D6" fill-opacity="0.2132"/>
<path d="M331.056 155.078L306.75 149.006C306.168 148.859 305.843 148.252 306.01 147.718C306.157 147.135 306.714 146.832 307.275 146.93L331.553 153.072C332.088 153.24 332.439 153.777 332.272 154.312C332.174 154.873 331.638 155.225 331.056 155.078Z" fill="#02D2D6" fill-opacity="0.5"/>
<path d="M251.269 233.257L323.803 256.482C324.337 256.651 324.662 257.257 324.494 257.792C324.327 258.327 323.722 258.651 323.188 258.482L250.654 235.257C250.12 235.088 249.795 234.482 250.011 233.926C250.178 233.391 250.735 233.088 251.269 233.257Z" fill="#02D2D6" fill-opacity="0.262"/>
<path d="M380.765 151.81L349.386 143.262C348.851 143.094 348.5 142.557 348.646 141.974C348.813 141.439 349.349 141.088 349.932 141.235L381.311 149.783C381.893 149.93 382.197 150.488 382.051 151.072C381.905 151.655 381.299 151.979 380.765 151.81Z" fill="#02D2D6" fill-opacity="0.5"/>
<path d="M259.431 152.604L306.874 146.934C307.468 146.846 307.964 147.319 308.032 147.865C308.1 148.412 307.697 148.935 307.103 149.023L259.639 154.645C259.094 154.712 258.571 154.309 258.503 153.762C258.483 153.195 258.885 152.672 259.431 152.604Z" fill="#02D2D6" fill-opacity="0.3696"/>
<path d="M250.119 233.648L276.045 196.875C276.42 196.421 277.062 196.312 277.495 196.64C277.927 196.968 278.037 197.611 277.731 198.092L251.806 234.865C251.478 235.298 250.788 235.429 250.334 235.052C249.902 234.723 249.813 234.129 250.119 233.648Z" fill="#02D2D6" fill-opacity="0.5"/>
<path d="M276.222 196.624L349.028 141.402C349.494 141.024 350.125 141.15 350.503 141.617C350.882 142.085 350.757 142.716 350.29 143.094L277.485 198.316C276.997 198.646 276.366 198.52 276.009 198.101C275.727 197.591 275.804 196.981 276.222 196.624Z" fill="#02D2D6" fill-opacity="0.1215"/>
<path d="M277.696 196.839L324.304 256.838C324.683 257.305 324.558 257.937 324.092 258.315C323.673 258.672 322.994 258.567 322.637 258.148L276.008 198.101C275.678 197.612 275.755 197.002 276.221 196.624C276.709 196.294 277.318 196.372 277.696 196.839Z" fill="#02D2D6" fill-opacity="0.2849"/>
<path d="M387.052 259.012L455.434 271.501C455.996 271.599 456.347 272.136 456.249 272.698C456.151 273.26 455.615 273.611 455.102 273.491L386.715 261.12C386.154 261.021 385.733 260.457 385.879 259.874C385.928 259.334 386.491 258.913 387.052 259.012Z" fill="#02D2D6" fill-opacity="0.096113"/>
<path d="M-60.0393 477.913L-5.12874 419.157C-4.73183 418.752 -4.09544 418.76 -3.69012 419.158C-3.28481 419.556 -3.24378 420.172 -3.6407 420.577L-58.4818 479.36C-58.8787 479.765 -59.542 479.826 -60.0168 479.401C-60.4221 479.003 -60.4363 478.318 -60.0393 477.913Z" fill="#02D2D6" fill-opacity="0.2205"/>
<path d="M381.184 271.163L323.258 258.509C322.696 258.411 322.324 257.825 322.47 257.242C322.568 256.681 323.152 256.308 323.734 256.455L381.639 269.061C382.2 269.16 382.573 269.745 382.427 270.328C382.329 270.89 381.745 271.262 381.184 271.163Z" fill="#02D2D6" fill-opacity="0.3921"/>
<path d="M349.807 143.307L307.172 149.05C306.578 149.139 306.055 148.735 305.966 148.14C305.877 147.546 306.28 147.023 306.873 146.934L349.509 141.19C350.054 141.123 350.577 141.527 350.666 142.122C350.756 142.716 350.38 143.17 349.807 143.307Z" fill="#02D2D6" fill-opacity="0.5"/>
<path d="M184.58 388.493L223.342 362.322C223.83 361.992 224.482 362.166 224.812 362.655C225.142 363.143 225.017 363.775 224.53 364.105L185.767 390.276C185.28 390.605 184.649 390.48 184.319 389.991C184.015 389.433 184.092 388.823 184.58 388.493Z" fill="#02D2D6" fill-opacity="0.4014"/>
<path d="M381.021 151.87L307.007 149.066C306.419 149.037 305.971 148.542 305.999 147.953C306.028 147.364 306.473 146.938 307.061 146.967L381.097 149.82C381.685 149.849 382.133 150.344 382.104 150.933C382.033 151.425 381.54 151.873 381.021 151.87Z" fill="#02D2D6" fill-opacity="0.2977"/>
<path d="M-5.17694 419.179L28.3947 375.466C28.7704 375.012 29.4125 374.903 29.9142 375.258C30.3677 375.635 30.4781 376.278 30.1237 376.78L-3.5173 420.465C-3.84477 420.898 -4.48694 421.007 -4.98864 420.652C-5.44215 420.275 -5.5526 419.632 -5.17694 419.179Z" fill="#02D2D6" fill-opacity="0.1487"/>
<path d="M275.948 196.917L306.119 147.439C306.425 146.959 307.094 146.78 307.596 147.135C308.076 147.442 308.235 148.064 307.928 148.545L277.758 198.022C277.451 198.503 276.831 198.661 276.302 198.375C275.822 198.068 275.642 197.398 275.948 196.917Z" fill="#02D2D6" fill-opacity="0.4451"/>
<path d="M289.631 261.325L322.367 255.443C322.913 255.376 323.463 255.71 323.552 256.305C323.62 256.851 323.265 257.353 322.741 257.469L289.999 263.468C289.405 263.556 288.834 263.174 288.745 262.579C288.704 261.963 289.085 261.392 289.631 261.325Z" fill="#02D2D6" fill-opacity="0.1893"/>
<path d="M251.941 233.998L269.893 305.749C270.03 306.322 269.697 306.872 269.146 307.057C268.573 307.194 268.023 306.86 267.837 306.308L249.955 234.585C249.818 234.011 250.151 233.461 250.724 233.324C251.296 233.187 251.804 233.425 251.941 233.998Z" fill="#02D2D6" fill-opacity="0.1544"/>
<path d="M268.152 305.189L322.803 256.692C323.221 256.335 323.927 256.37 324.284 256.79C324.641 257.209 324.634 257.846 324.189 258.272L269.559 306.818C269.093 307.196 268.456 307.188 268.03 306.742C267.651 306.274 267.685 305.568 268.152 305.189Z" fill="#02D2D6" fill-opacity="0.2426"/>
<path d="M386.785 261.147L323.444 258.542C322.856 258.513 322.408 258.019 322.437 257.43C322.486 256.889 322.932 256.463 323.498 256.444L386.866 258.979C387.454 259.008 387.902 259.503 387.873 260.091C387.866 260.729 387.373 261.176 386.785 261.147Z" fill="#02D2D6" fill-opacity="0.2327"/>
<path d="M251.569 233.413L290.449 261.483C290.951 261.839 291.013 262.503 290.659 263.005C290.304 263.507 289.641 263.568 289.161 263.261L250.307 235.121C249.827 234.814 249.764 234.15 250.071 233.669C250.425 233.167 251.067 233.058 251.569 233.413Z" fill="#02D2D6" fill-opacity="0.1939"/>
<path d="M289.68 261.303L323.333 256.459C323.878 256.392 324.401 256.795 324.49 257.39C324.558 257.937 324.156 258.46 323.631 258.575L289.951 263.489C289.358 263.578 288.835 263.174 288.745 262.579C288.683 261.915 289.086 261.392 289.68 261.303Z" fill="#02D2D6" fill-opacity="0.4045"/>
<path d="M387.802 260.584L382.319 270.606C382.034 271.135 381.413 271.293 380.884 271.007C380.404 270.7 380.197 270.099 380.482 269.57L385.896 259.521C386.181 258.992 386.85 258.813 387.378 259.099C387.88 259.454 388.087 260.055 387.802 260.584Z" fill="#02D2D6" fill-opacity="0.5"/>
<path d="M269.709 306.637L224.756 363.832C224.38 364.286 223.717 364.348 223.284 364.019C222.831 363.642 222.769 362.978 223.096 362.546L268.001 305.371C268.377 304.918 269.04 304.856 269.494 305.233C269.974 305.54 270.036 306.204 269.709 306.637Z" fill="#02D2D6" fill-opacity="0.2958"/>
<path d="M454.205 284.78L460.689 242.79C460.765 242.18 461.349 241.808 461.959 241.885C462.52 241.984 462.941 242.548 462.843 243.11L456.241 285.094C456.143 285.655 455.629 286.055 455.068 285.956C454.506 285.857 454.107 285.342 454.205 284.78Z" fill="#02D2D6" fill-opacity="0.1381"/>
<path d="M288.745 262.579L275.817 197.666C275.728 197.072 276.082 196.57 276.655 196.433C277.201 196.366 277.751 196.7 277.867 197.225L290.843 262.117C290.932 262.711 290.551 263.283 289.957 263.371C289.454 263.535 288.883 263.153 288.745 262.579Z" fill="#02D2D6" fill-opacity="0.1809"/>
<path d="M289.915 261.315L381.494 269.124C382.082 269.154 382.482 269.669 382.454 270.258C382.425 270.847 381.911 271.247 381.322 271.217L289.716 263.477C289.107 263.4 288.707 262.884 288.736 262.295C288.812 261.685 289.306 261.237 289.915 261.315Z" fill="#02D2D6" fill-opacity="0.1081"/>
<path d="M177.543 386.231L185.436 388.347C185.97 388.515 186.321 389.052 186.175 389.635C186.008 390.17 185.472 390.521 184.938 390.353L177.039 388.354C176.457 388.207 176.084 387.622 176.278 387.018C176.472 386.414 176.96 386.084 177.543 386.231Z" fill="#02D2D6" fill-opacity="0.1462"/>
<path d="M462.118 243.948L381.729 271.096C381.177 271.281 380.579 270.968 380.393 270.416C380.208 269.863 380.52 269.265 381.023 269.101L461.37 241.856C461.921 241.671 462.568 241.963 462.774 242.563C463.029 243.143 462.669 243.762 462.118 243.948Z" fill="#02D2D6" fill-opacity="0.013321"/>
<path d="M267.899 305.531L288.849 261.9C289.134 261.371 289.782 261.143 290.289 261.381C290.818 261.667 291.046 262.316 290.809 262.823L269.859 306.455C269.574 306.984 268.974 307.19 268.397 306.926C267.89 306.688 267.662 306.039 267.899 305.531Z" fill="#02D2D6" fill-opacity="0.5"/>
<path d="M386.902 261.153L289.882 263.462C289.267 263.502 288.771 263.029 288.778 262.392C288.737 261.776 289.209 261.28 289.845 261.288L386.887 259.027C387.475 259.056 387.971 259.53 387.943 260.119C387.893 260.659 387.469 261.134 386.902 261.153Z" fill="#02D2D6" fill-opacity="0.1086"/>
<path d="M176.714 386.308L223.418 362.231C223.948 361.998 224.552 362.193 224.834 362.703C225.067 363.234 224.873 363.838 224.412 364.099L177.751 388.272C177.194 388.575 176.521 388.352 176.266 387.773C175.984 387.263 176.205 386.589 176.714 386.308Z" fill="#02D2D6" fill-opacity="0.3496"/>
<path d="M30.266 375.795L57.2881 462.399C57.4737 462.951 57.1349 463.619 56.5623 463.756C56.0109 463.941 55.3916 463.579 55.206 463.027L28.232 376.402C28.0945 375.829 28.4065 375.23 28.9791 375.093C29.5035 374.978 30.0803 375.243 30.266 375.795Z" fill="#02D2D6" fill-opacity="0.094519"/>
<path d="M325.793 317.853L268.675 307.034C268.114 306.935 267.693 306.371 267.839 305.788C267.937 305.226 268.499 304.806 269.082 304.953L326.227 315.702C326.789 315.801 327.209 316.365 327.085 316.996C326.939 317.579 326.376 318 325.793 317.853Z" fill="#02D2D6" fill-opacity="0.3188"/>
<path d="M387.576 260.856L326.703 317.568C326.258 317.994 325.531 317.911 325.174 317.492C324.796 317.024 324.803 316.387 325.248 315.96L386.142 259.297C386.587 258.871 387.245 258.927 387.672 259.373C388.029 259.792 387.995 260.499 387.576 260.856Z" fill="#02D2D6" fill-opacity="0.1927"/>
<path d="M386.604 259.037L461.536 241.841C462.109 241.704 462.728 242.065 462.839 242.708C462.976 243.282 462.595 243.853 462.022 243.99L387.117 261.116C386.544 261.253 385.973 260.871 385.836 260.297C385.65 259.745 386.031 259.174 386.604 259.037Z" fill="#02D2D6" fill-opacity="0.2129"/>
<path d="M241.937 476.959L223.712 444.579C223.43 444.069 223.603 443.417 224.16 443.114C224.669 442.832 225.321 443.006 225.603 443.516L243.913 476.089L241.937 476.959Z" fill="#02D2D6" fill-opacity="0.3416"/>
<path d="M325.084 317.416L288.936 263.014C288.606 262.525 288.758 261.824 289.245 261.494C289.733 261.164 290.433 261.317 290.763 261.806L326.911 316.209C327.241 316.697 327.089 317.398 326.602 317.728C326.093 318.01 325.414 317.905 325.084 317.416Z" fill="#02D2D6" fill-opacity="0.362"/>
<path d="M269.925 306.081L266.987 336.653C266.91 337.263 266.369 337.732 265.759 337.654C265.15 337.577 264.681 337.034 264.757 336.424L267.813 305.858C267.889 305.247 268.404 304.848 268.992 304.877C269.553 304.976 269.974 305.54 269.925 306.081Z" fill="#02D2D6" fill-opacity="0.3046"/>
<path d="M108.963 469.217L56.1555 463.877C55.546 463.8 55.125 463.236 55.2229 462.674C55.2995 462.064 55.8141 461.664 56.4023 461.694L109.21 467.033C109.819 467.111 110.24 467.675 110.212 468.264C110.066 468.847 109.551 469.246 108.963 469.217Z" fill="#02D2D6" fill-opacity="0.4924"/>
<path d="M264.768 336.189L288.795 262.039C289.01 261.483 289.616 261.159 290.15 261.327C290.706 261.543 291.03 262.15 290.863 262.684L266.905 336.862C266.711 337.466 266.106 337.79 265.502 337.595C264.92 337.448 264.622 336.772 264.768 336.189Z" fill="#02D2D6" fill-opacity="0.1658"/>
<path d="M326.361 317.834L266.256 337.608C265.656 337.815 265.037 337.453 264.852 336.901C264.645 336.301 265.005 335.681 265.556 335.496L325.682 315.77C326.233 315.585 326.88 315.876 327.087 316.477C327.203 317.002 326.912 317.649 326.361 317.834Z" fill="#02D2D6" fill-opacity="0.3989"/>
<path d="M97.2286 390.81L57.2211 463.293C56.9361 463.822 56.2672 464.001 55.7385 463.715C55.2099 463.429 55.0299 462.759 55.3149 462.23L95.3011 389.699C95.5861 389.171 96.3033 388.97 96.832 389.256C97.3124 389.563 97.4923 390.233 97.2286 390.81Z" fill="#02D2D6" fill-opacity="0.091881"/>
<path d="M225.3 444.917L185.336 475.94C184.821 476.34 184.142 476.235 183.743 475.719C183.364 475.252 183.447 474.524 183.913 474.146L223.919 443.22C224.386 442.841 225.065 442.946 225.443 443.413C225.869 443.86 225.766 444.539 225.3 444.917Z" fill="#02D2D6" fill-opacity="0.3641"/>
<path d="M214.9 488.861L184.196 476.096C183.619 475.831 183.342 475.204 183.606 474.626C183.87 474.049 184.496 473.773 185.073 474.038L217.716 487.679L214.921 488.909L214.9 488.861Z" fill="#02D2D6" fill-opacity="0.1841"/>
<path d="M107.97 468.271L95.1004 390.422C95.0112 389.827 95.4408 389.234 96.0347 389.146C96.6286 389.057 97.221 389.488 97.3102 390.083L110.131 467.953C110.221 468.548 109.791 469.14 109.197 469.229C108.63 469.248 108.107 468.844 107.97 468.271Z" fill="#02D2D6" fill-opacity="0.2206"/>
<path d="M128.249 527.008L126.177 527.92L108.035 468.415C107.849 467.863 108.188 467.195 108.761 467.058C109.312 466.873 109.98 467.213 110.117 467.787L128.249 527.008Z" fill="#02D2D6" fill-opacity="0.042785"/>
<path d="M177.296 388.414L96.2807 391.401C95.6655 391.441 95.1483 390.919 95.1073 390.304C95.0663 389.688 95.5864 389.17 96.2015 389.13L177.19 386.213C177.805 386.173 178.301 386.646 178.342 387.262C178.383 387.878 177.911 388.374 177.296 388.414Z" fill="#02D2D6" fill-opacity="0.2959"/>
<path d="M109.14 467.006L184.774 473.882C185.383 473.959 185.852 474.502 185.776 475.112C185.699 475.722 185.157 476.191 184.548 476.114L108.989 469.147C108.38 469.07 107.959 468.506 107.987 467.917C108.037 467.376 108.6 466.956 109.14 467.006Z" fill="#02D2D6" fill-opacity="0.1137"/>
<path d="M145.983 519.2L108.204 468.801C107.826 468.334 107.929 467.654 108.444 467.255C108.91 466.877 109.589 466.981 109.988 467.497L148.173 518.294L146.004 519.249L145.983 519.2Z" fill="#02D2D6" fill-opacity="0.086378"/>
<path d="M108.034 468.415L99.9042 444.329C99.6973 443.728 100.036 443.061 100.636 442.854C101.235 442.648 101.903 442.988 102.11 443.589L110.143 467.717C110.329 468.27 110.038 468.916 109.438 469.123C108.839 469.329 108.241 469.016 108.034 468.415Z" fill="#02D2D6" fill-opacity="0.1972"/>
<path d="M185.614 475.529L167.408 509.711L164.035 511.196L183.591 474.46C183.876 473.931 184.593 473.731 185.121 474.017C185.72 474.33 185.899 475 185.614 475.529Z" fill="#02D2D6" fill-opacity="0.1073"/>
<path d="M172.345 507.595L169.357 508.911L183.633 474.557C183.897 473.98 184.523 473.704 185.1 473.969C185.677 474.234 185.953 474.861 185.69 475.439L172.345 507.595Z" fill="#02D2D6" fill-opacity="0.4276"/>
<path d="M296.085 175.487L389.478 149.646C390.098 149.488 390.718 149.849 390.876 150.471C391.014 151.045 390.702 151.643 390.102 151.849L296.71 177.691C296.089 177.849 295.47 177.487 295.311 176.865C295.126 176.313 295.486 175.694 296.085 175.487Z" fill="#02D2D6" fill-opacity="0.1314"/>
<path d="M99.7983 444.088L95.0797 390.373C95.0387 389.757 95.4895 389.213 96.1046 389.173C96.7198 389.133 97.264 389.585 97.305 390.2L102.093 443.942C102.155 444.606 101.656 445.172 101.02 445.164C100.453 445.183 99.8876 444.682 99.7983 444.088Z" fill="#02D2D6" fill-opacity="0.3528"/>
<path d="M147.429 518.564L100.032 444.619C99.6803 444.082 99.832 443.381 100.368 443.03C100.904 442.679 101.604 442.832 101.955 443.369L149.549 517.631L147.429 518.564Z" fill="#02D2D6" fill-opacity="0.029391"/>
<path d="M220.249 486.506L184.313 476.102C183.709 475.907 183.384 475.3 183.579 474.696C183.773 474.092 184.378 473.768 184.961 473.915L223.622 485.021L220.249 486.506Z" fill="#02D2D6" fill-opacity="0.086554"/>
<path d="M295.275 176.651L294.543 159.567C294.529 158.882 295.076 158.295 295.761 158.282C296.446 158.269 297.011 158.769 297.025 159.455L297.57 176.506C297.563 177.143 297.042 177.66 296.427 177.7C295.812 177.74 295.268 177.288 295.275 176.651Z" fill="#02D2D6" fill-opacity="0.1055"/>
<path d="M483.723 175.013L462.441 157.121C461.897 156.669 461.84 155.887 462.291 155.343C462.742 154.798 463.523 154.743 464.067 155.195L485.322 173.157C485.867 173.609 485.902 174.343 485.451 174.887C484.979 175.383 484.246 175.417 483.723 175.013Z" fill="#02D2D6" fill-opacity="0.5"/>
<path d="M267.188 344.691L235.891 357.893C235.264 358.168 234.5 357.871 234.272 357.222C233.996 356.594 234.292 355.83 234.94 355.602L266.237 342.4C266.863 342.125 267.579 342.444 267.855 343.071C268.083 343.72 267.766 344.436 267.188 344.691Z" fill="#02D2D6" fill-opacity="0.5"/>
<path d="M354.417 226.176L294.883 160.34C294.435 159.845 294.475 159.021 294.969 158.573C295.462 158.125 296.285 158.166 296.733 158.661L356.315 224.475C356.763 224.97 356.723 225.794 356.23 226.242C355.709 226.759 354.886 226.718 354.417 226.176Z" fill="#02D2D6" fill-opacity="0.2767"/>
<path d="M359.998 206.312L295.086 160.539C294.514 160.156 294.388 159.347 294.791 158.824C295.172 158.253 295.98 158.127 296.503 158.531L361.491 204.214C362.083 204.645 362.209 205.454 361.828 206.026C361.398 206.618 360.59 206.743 359.998 206.312Z" fill="#02D2D6" fill-opacity="0.1733"/>
<path d="M361.989 205.609L356.562 225.692C356.389 226.345 355.709 226.759 355.057 226.585C354.405 226.411 353.99 225.73 354.163 225.077L359.52 204.967C359.72 204.245 360.422 203.878 361.122 204.031C361.774 204.205 362.211 204.935 361.989 205.609Z" fill="#02D2D6" fill-opacity="0.5"/>
<path d="M414.45 283.607L354.507 226.251C354.011 225.778 354.002 224.975 354.474 224.479C354.946 223.983 355.749 223.975 356.245 224.449L416.284 281.762C416.801 282.284 416.81 283.087 416.338 283.583C415.769 284.121 414.967 284.129 414.45 283.607Z" fill="#02D2D6" fill-opacity="0.169"/>
<path d="M360.175 204.102L462.71 154.986C463.336 154.71 464.079 154.959 464.376 155.635C464.653 156.263 464.404 157.006 463.778 157.282L361.286 206.495C360.612 206.792 359.869 206.542 359.571 205.866C359.274 205.19 359.57 204.426 360.175 204.102Z" fill="#02D2D6" fill-opacity="0.067784"/>
<path d="M76.0742 479.719L164.141 500.199C164.841 500.351 165.256 501.033 165.105 501.734C164.953 502.435 164.272 502.85 163.572 502.697L75.5537 482.196C74.8535 482.043 74.4383 481.361 74.5901 480.66C74.6936 479.981 75.4222 479.545 76.0742 479.719Z" fill="#02D2D6" fill-opacity="0.2749"/>
<path d="M-13.6989 407.138L76.6034 480.005C77.1476 480.457 77.2254 481.287 76.7746 481.831C76.3238 482.376 75.5429 482.431 75.0199 482.027L-15.3306 409.182C-15.8748 408.73 -16.0008 407.921 -15.5018 407.356C-15.0723 406.763 -14.2643 406.638 -13.6989 407.138Z" fill="#02D2D6" fill-opacity="0.1278"/>
<path d="M37.7227 481.732L75.721 479.701C76.4538 479.667 77.0405 480.215 77.0758 480.949C77.0899 481.634 76.5428 482.221 75.8795 482.283L37.9023 484.362C37.1696 484.396 36.5829 483.848 36.4993 483.135C36.4427 482.353 36.9899 481.767 37.7227 481.732Z" fill="#02D2D6" fill-opacity="0.5"/>
<path d="M361.805 204.537L416.417 281.934C416.838 282.498 416.681 283.317 416.118 283.737C415.555 284.158 414.737 283.999 414.317 283.435L359.752 206.017C359.331 205.453 359.489 204.634 360.052 204.214C360.566 203.814 361.384 203.973 361.805 204.537Z" fill="#02D2D6" fill-opacity="0.2585"/>
<path d="M75.8869 479.686L158.154 485.947C158.86 485.982 159.441 486.648 159.359 487.376C159.325 488.083 158.66 488.663 157.933 488.58L75.6923 482.25C74.9652 482.167 74.475 481.575 74.5573 480.848C74.6126 480.189 75.2292 479.63 75.8869 479.686Z" fill="#02D2D6" fill-opacity="0.2323"/>
<path d="M38.0063 481.723L164.023 500.192C164.702 500.297 165.214 500.936 165.132 501.664C165.028 502.344 164.39 502.855 163.663 502.772L37.5978 484.323C36.8707 484.24 36.3861 483.531 36.4896 482.851C36.6201 482.102 37.2792 481.639 38.0063 481.723Z" fill="#02D2D6" fill-opacity="0.0538"/>
<path d="M162.617 501.964L156.817 487.745C156.52 487.069 156.864 486.284 157.56 486.035C158.235 485.738 159.02 486.084 159.27 486.781L165.021 501.021C165.318 501.697 164.953 502.435 164.326 502.711C163.678 502.938 162.914 502.64 162.617 501.964Z" fill="#02D2D6" fill-opacity="0.5"/>
<path d="M36.728 483.784L-15.5759 408.886C-15.9968 408.323 -15.8394 407.504 -15.2284 407.062C-14.6657 406.641 -13.8479 406.8 -13.427 407.364L38.9251 482.24C39.346 482.804 39.2098 483.671 38.5776 484.065C37.9454 484.458 37.1488 484.348 36.728 483.784Z" fill="#02D2D6" fill-opacity="0.287"/>
<path d="M74.7953 481.78L1.46378 391.529C0.973445 390.938 1.08271 390.141 1.6724 389.651C2.26209 389.16 3.05868 389.271 3.54902 389.862L76.8053 480.204C77.2262 480.768 77.1652 481.544 76.5755 482.034C76.0397 482.385 75.2644 482.323 74.7953 481.78Z" fill="#02D2D6" fill-opacity="0.072637"/>
<path d="M74.5613 481.249L59.2154 405.355C59.0624 404.615 59.567 403.932 60.2573 403.801C60.9958 403.649 61.679 404.155 61.8107 404.846L77.0389 480.735C77.1706 481.426 76.7142 482.088 76.024 482.219C75.3819 482.329 74.693 481.94 74.5613 481.249Z" fill="#02D2D6" fill-opacity="0.2212"/>
<path d="M37.8405 481.738L158.106 485.968C158.812 486.003 159.372 486.621 159.359 487.376C159.325 488.082 158.756 488.621 158.002 488.607L37.7366 484.378C37.0307 484.342 36.4228 483.746 36.4569 483.039C36.5179 482.263 37.1347 481.703 37.8405 481.738Z" fill="#02D2D6" fill-opacity="0.068647"/>
<path d="M75.7625 482.277L9.38198 478.647C8.65488 478.564 8.09504 477.946 8.12915 477.239C8.16326 476.533 8.77996 475.973 9.534 475.987L75.8818 479.803C76.5876 479.839 77.1475 480.457 77.1134 481.163C77.0367 481.773 76.4683 482.312 75.7625 482.277Z" fill="#02D2D6" fill-opacity="0.3885"/>
<path d="M-15.4486 407.217L1.54942 389.762C2.06967 389.245 2.94137 389.265 3.45864 389.786C3.97591 390.308 3.98436 391.111 3.46411 391.628L-13.6034 409.055C-14.1237 409.573 -14.9259 409.58 -15.4431 409.058C-15.9392 408.585 -15.9688 407.734 -15.4486 407.217Z" fill="#02D2D6" fill-opacity="0.5"/>
<path d="M-14.5809 406.835L60.4719 403.765C61.2047 403.73 61.8126 404.327 61.8479 405.061C61.8833 405.794 61.2879 406.402 60.5551 406.437L-14.4708 409.438C-15.2035 409.472 -15.8115 408.875 -15.7774 408.168C-15.8128 407.435 -15.2655 406.848 -14.5809 406.835Z" fill="#02D2D6" fill-opacity="0.2381"/>
<path d="M-13.279 407.702L10.745 476.779C10.9944 477.476 10.6498 478.262 9.88443 478.483C9.18848 478.732 8.40328 478.386 8.18085 477.62L-15.7467 408.5C-15.996 407.803 -15.6303 407.066 -14.9131 406.865C-14.2441 406.686 -13.5071 407.053 -13.279 407.702Z" fill="#02D2D6" fill-opacity="0.3122"/>
<path d="M36.6002 483.495L1.24601 391.164C0.996641 390.467 1.34115 389.681 2.03712 389.433C2.73309 389.184 3.44877 389.503 3.74633 390.179L39.0523 482.53C39.3017 483.227 38.9841 483.944 38.3094 484.241C37.6134 484.489 36.8283 484.143 36.6002 483.495Z" fill="#02D2D6" fill-opacity="0.2394"/>
<path d="M36.57 482.643L59.2706 404.696C59.4706 403.974 60.2203 403.587 60.9418 403.788C61.6632 403.989 62.0515 404.74 61.8515 405.462L39.1297 483.36C38.9085 484.034 38.18 484.47 37.5067 484.248C36.7371 484.068 36.3488 483.317 36.57 482.643Z" fill="#02D2D6" fill-opacity="0.296"/>
<path d="M37.5282 484.296L9.17304 478.566C8.42469 478.435 7.98831 477.705 8.11881 476.955C8.2493 476.206 8.97782 475.77 9.72617 475.902L38.0543 481.702C38.7544 481.854 39.2391 482.563 39.0874 483.264C38.9356 483.965 38.2283 484.449 37.5282 484.296Z" fill="#02D2D6" fill-opacity="0.5"/>
<path d="M38.6832 465.748L76.2131 479.773C76.8863 479.995 77.2263 480.768 76.9357 481.414C76.6933 482.04 75.9916 482.406 75.3183 482.184L37.6865 468.319C36.992 468.048 36.5824 467.249 36.8518 466.554C37.1212 465.859 37.9887 465.477 38.6832 465.748Z" fill="#02D2D6" fill-opacity="0.2301"/>
<path d="M-114.748 409.838L2.29888 389.375C3.0586 389.271 3.72047 389.729 3.82526 390.49C3.95698 391.181 3.45232 391.864 2.76205 391.995L-114.285 412.458C-114.975 412.589 -115.707 412.104 -115.811 411.343C-115.943 410.652 -115.487 409.99 -114.748 409.838Z" fill="#02D2D6" fill-opacity="0.071539"/>
<path d="M163.406 502.712L146.741 497.138C146.047 496.867 145.658 496.116 145.907 495.373C146.176 494.678 146.926 494.29 147.599 494.513L164.21 500.226C164.883 500.448 165.223 501.22 165.002 501.894C164.781 502.568 164.079 502.934 163.406 502.712Z" fill="#02D2D6" fill-opacity="0.3037"/>
<path d="M332.446 226.453L359.907 204.277C360.449 203.808 361.293 203.898 361.714 204.462C362.183 205.004 362.095 205.85 361.533 206.271L334.204 228.618C333.615 229.109 332.749 228.971 332.258 228.38C331.789 227.837 331.856 226.943 332.446 226.453Z" fill="#02D2D6" fill-opacity="0.2403"/>
<path d="M60.2014 406.419L2.19484 392.014C1.47343 391.813 1.03697 391.083 1.18872 390.382C1.38866 389.66 2.06898 389.245 2.81733 389.377L60.8239 403.782C61.5454 403.983 61.9818 404.713 61.8301 405.414C61.6301 406.136 60.9016 406.572 60.2014 406.419Z" fill="#02D2D6" fill-opacity="0.5"/>
<path d="M334.099 226.417L416.055 281.633C416.647 282.063 416.822 282.851 416.392 283.444C415.963 284.036 415.176 284.21 414.584 283.779L332.525 228.724C331.885 228.314 331.737 227.457 332.146 226.816C332.602 226.154 333.437 225.959 334.099 226.417Z" fill="#02D2D6" fill-opacity="0.088512"/>
<path d="M8.12288 477.357L1.19329 390.784C1.15795 390.05 1.68386 389.415 2.39539 389.332C3.12817 389.298 3.76314 389.825 3.84667 390.538L10.8244 477.09C10.8597 477.824 10.3338 478.459 9.57405 478.563C8.81433 478.667 8.15822 478.091 8.12288 477.357Z" fill="#02D2D6" fill-opacity="0.3499"/>
<path d="M36.4838 482.969L36.8557 466.956C36.8686 466.201 37.5122 465.572 38.2875 465.634C39.0415 465.648 39.6225 466.314 39.6096 467.069L39.1201 483.077C39.086 483.783 38.4906 484.391 37.7848 484.356C37.0577 484.273 36.471 483.724 36.4838 482.969Z" fill="#02D2D6" fill-opacity="0.4262"/>
<path d="M61.6206 405.852L10.5434 478.021C10.1139 478.613 9.25778 478.759 8.66538 478.329C8.07297 477.898 7.94688 477.089 8.35517 476.448L59.4323 404.28C59.8619 403.687 60.718 403.541 61.3104 403.972C61.9028 404.403 62.0501 405.26 61.6206 405.852Z" fill="#02D2D6" fill-opacity="0.3461"/>
<path d="M158.891 488.273L148.074 496.897C147.463 497.339 146.618 497.25 146.128 496.659C145.686 496.046 145.774 495.201 146.364 494.711L157.271 486.162C157.834 485.742 158.679 485.831 159.121 486.443C159.515 487.077 159.454 487.853 158.891 488.273Z" fill="#02D2D6" fill-opacity="0.5"/>
<path d="M36.9663 467.599L1.28842 391.261C0.990864 390.585 1.26594 389.772 1.94063 389.475C2.61533 389.178 3.42736 389.454 3.72492 390.13L39.4993 466.426C39.7968 467.102 39.5218 467.915 38.8202 468.281C38.0973 468.599 37.3333 468.302 36.9663 467.599Z" fill="#02D2D6" fill-opacity="0.2658"/>
<path d="M36.9208 466.581L59.2497 404.648C59.5191 403.953 60.2689 403.566 60.9634 403.836C61.6579 404.107 62.0462 404.858 61.7768 405.553L39.5172 467.513C39.2478 468.208 38.4285 468.569 37.7341 468.298C37.0396 468.027 36.6996 467.255 36.9208 466.581Z" fill="#02D2D6" fill-opacity="0.4796"/>
<path d="M38.6764 468.345L9.90688 478.532C9.21093 478.781 8.45266 478.365 8.20329 477.668C7.95392 476.971 8.31968 476.234 9.01564 475.985L37.8121 465.728C38.5081 465.479 39.3145 465.874 39.5639 466.571C39.765 467.289 39.4206 468.075 38.6764 468.345Z" fill="#02D2D6" fill-opacity="0.5"/>
<path d="M37.8329 484.335L-57.5915 487.786C-58.3937 487.793 -59.023 487.148 -59.0101 486.393C-58.9973 485.638 -58.4232 484.982 -57.6422 484.926L37.8191 481.69C38.5519 481.655 39.1598 482.252 39.1739 482.938C39.161 483.693 38.5657 484.3 37.8329 484.335Z" fill="#02D2D6" fill-opacity="0.053693"/>
<path d="M220.56 276.805L202.197 292.727C201.607 293.217 200.763 293.128 200.294 292.585C199.825 292.043 199.843 291.17 200.433 290.68L218.726 274.73C219.316 274.24 220.187 274.26 220.678 274.851C221.195 275.372 221.128 276.266 220.56 276.805Z" fill="#02D2D6" fill-opacity="0.5"/>
<path d="M267.733 335.344L200.587 292.859C199.946 292.45 199.799 291.593 200.18 291.021C200.588 290.38 201.375 290.207 202.015 290.617L269.237 333.011C269.878 333.42 270.095 334.305 269.686 334.945C269.257 335.538 268.422 335.733 267.733 335.344Z" fill="#02D2D6" fill-opacity="0.2416"/>
<path d="M234.538 286.212L201.618 292.982C200.879 293.134 200.196 292.628 200.043 291.888C199.912 291.197 200.347 290.487 201.085 290.334L234.012 283.447C234.798 283.274 235.529 283.759 235.704 284.546C235.76 285.328 235.277 286.06 234.538 286.212Z" fill="#02D2D6" fill-opacity="0.3802"/>
<path d="M9.64402 478.59L-57.4255 487.771C-58.1852 487.875 -58.8895 487.32 -59.0155 486.511C-59.1203 485.75 -58.5675 485.046 -57.8078 484.942L9.27721 475.927C10.0369 475.823 10.6719 476.35 10.8248 477.09C10.9778 477.83 10.3555 478.507 9.64402 478.59Z" fill="#02D2D6" fill-opacity="0.3554"/>
<path d="M333.887 228.815L220.194 277.023C219.471 277.341 218.686 276.995 218.367 276.271C218.049 275.547 218.393 274.761 219.116 274.443L332.809 226.235C333.484 225.938 334.317 226.263 334.636 226.987C334.906 227.733 334.562 228.518 333.887 228.815Z" fill="#02D2D6" fill-opacity="0.1122"/>
<path d="M202.639 291.38L212.727 334.027C212.901 334.815 212.418 335.547 211.652 335.768C210.866 335.942 210.134 335.457 209.912 334.69L199.99 292.027C199.837 291.288 200.272 290.577 201.011 290.425C201.707 290.176 202.438 290.661 202.639 291.38Z" fill="#02D2D6" fill-opacity="0.3305"/>
<path d="M200.003 291.272L206.473 271.076C206.721 270.332 207.519 269.923 208.262 270.173C209.004 270.422 209.414 271.222 209.166 271.965L202.536 292.059C202.336 292.781 201.516 293.142 200.843 292.92C200.191 292.746 199.782 291.946 200.003 291.272Z" fill="#02D2D6" fill-opacity="0.3417"/>
<path d="M334.504 228.256L269.692 334.828C269.283 335.469 268.4 335.684 267.76 335.275C267.119 334.865 266.902 333.981 267.311 333.34L332.172 226.747C332.58 226.106 333.415 225.911 334.055 226.321C334.717 226.779 334.913 227.615 334.504 228.256Z" fill="#02D2D6" fill-opacity="0.096227"/>
<path d="M267.419 335.022L218.566 276.587C218.075 275.996 218.142 275.102 218.732 274.612C219.321 274.122 220.214 274.19 220.705 274.781L269.585 333.146C270.075 333.737 270.008 334.631 269.419 335.121C268.823 335.729 267.909 335.613 267.419 335.022Z" fill="#02D2D6" fill-opacity="0.4294"/>
<path d="M38.5095 468.36L-57.3777 487.749C-58.1644 487.923 -58.917 487.39 -59.07 486.65C-59.2442 485.862 -58.7125 485.109 -57.974 484.957L37.9075 465.686C38.6459 465.534 39.3772 466.019 39.5302 466.758C39.7044 467.546 39.248 468.208 38.5095 468.36Z" fill="#02D2D6" fill-opacity="0.3373"/>
<path d="M334.032 228.752L234.945 286.091C234.265 286.505 233.405 286.25 232.989 285.568C232.574 284.887 232.828 284.026 233.508 283.611L332.638 226.368C333.27 225.975 334.131 226.23 334.524 226.863C334.918 227.497 334.665 228.358 334.032 228.752Z" fill="#02D2D6" fill-opacity="0.1654"/>
<path d="M38.6136 465.721L111.262 488.032C112.005 488.281 112.414 489.081 112.166 489.824C111.918 490.567 111.12 490.976 110.398 490.775L37.777 468.395C37.0556 468.194 36.646 467.394 36.846 466.672C37.1423 465.908 37.8921 465.52 38.6136 465.721Z" fill="#02D2D6" fill-opacity="0.2488"/>
<path d="M111.123 487.977L147.461 494.458C148.209 494.59 148.694 495.299 148.563 496.048C148.433 496.797 147.725 497.281 146.977 497.149L110.612 490.738C109.864 490.606 109.358 489.849 109.467 489.052C109.619 488.351 110.326 487.867 111.123 487.977Z" fill="#02D2D6" fill-opacity="0.5"/>
<path d="M233.486 286.042L218.88 276.91C218.239 276.501 218.044 275.664 218.431 274.975C218.839 274.335 219.674 274.14 220.314 274.549L234.948 283.612C235.588 284.021 235.805 284.906 235.348 285.568C235.01 286.235 234.127 286.451 233.486 286.042Z" fill="#02D2D6" fill-opacity="0.5"/>
<path d="M220.979 275.928L212.677 334.568C212.568 335.365 211.812 335.871 211.064 335.739C210.315 335.608 209.782 334.92 209.844 334.144L218.215 275.531C218.346 274.782 219.032 274.249 219.78 274.381C220.576 274.492 221.109 275.179 220.979 275.928Z" fill="#02D2D6" fill-opacity="0.4959"/>
<path d="M-9.19213 493.568L8.50605 476.266C9.02629 475.749 9.898 475.769 10.4153 476.29C10.9325 476.812 10.914 477.685 10.3938 478.202L-7.10177 495.702C-7.7184 496.262 -8.63834 496.263 -9.19812 495.645C-9.78485 495.097 -9.73931 494.154 -9.19213 493.568Z" fill="#02D2D6" fill-opacity="0.029895"/>
<path d="M333.792 228.858L208.318 272.914C207.574 273.184 206.768 272.79 206.497 272.045C206.226 271.299 206.619 270.492 207.363 270.222L332.831 226.283C333.527 226.035 334.334 226.429 334.583 227.126C334.881 227.802 334.488 228.609 333.792 228.858Z" fill="#02D2D6" fill-opacity="0.031229"/>
<path d="M147.278 391.716L210.332 333.294C210.901 332.756 211.794 332.824 212.332 333.394C212.871 333.964 212.804 334.858 212.236 335.396L149.16 393.769C148.591 394.307 147.698 394.239 147.181 393.718C146.669 393.079 146.688 392.206 147.278 391.716Z" fill="#02D2D6" fill-opacity="0.3188"/>
<path d="M267.328 334.946L233.033 285.665C232.569 285.004 232.754 284.116 233.434 283.702C234.045 283.26 234.932 283.445 235.374 284.058L269.622 333.36C270.064 333.973 269.879 334.861 269.269 335.302C268.636 335.696 267.77 335.559 267.328 334.946Z" fill="#02D2D6" fill-opacity="0.5"/>
<path d="M332.942 228.886L288.081 216.244C287.29 216.016 286.881 215.216 287.108 214.425C287.356 213.682 288.133 213.224 288.854 213.426L333.709 226.185C334.43 226.386 334.84 227.186 334.64 227.908C334.44 228.63 333.663 229.087 332.942 228.886Z" fill="#02D2D6" fill-opacity="0.5"/>
<path d="M219.18 277.067L207.399 272.916C206.656 272.666 206.274 271.797 206.522 271.054C206.77 270.311 207.638 269.929 208.38 270.178L220.134 274.399C220.877 274.648 221.238 275.469 220.969 276.164C220.672 276.928 219.901 277.268 219.18 277.067Z" fill="#02D2D6" fill-opacity="0.5"/>
<path d="M268.503 335.524L211.299 335.751C210.497 335.758 209.868 335.113 209.86 334.31C209.851 333.507 210.495 332.877 211.297 332.87L268.473 332.713C269.228 332.727 269.857 333.372 269.844 334.127C269.9 334.909 269.257 335.538 268.503 335.524Z" fill="#02D2D6" fill-opacity="0.5"/>
<path d="M173.399 382.176L148.865 394.014C148.164 394.381 147.33 394.056 147.011 393.332C146.644 392.629 146.968 391.795 147.691 391.477L172.203 379.59C172.926 379.272 173.807 379.576 174.126 380.3C174.402 380.927 174.1 381.81 173.399 382.176Z" fill="#02D2D6" fill-opacity="0.5"/>
<path d="M267.461 335.118L206.827 272.533C206.289 271.963 206.286 271.042 206.855 270.504C207.423 269.966 208.343 269.964 208.881 270.534L269.488 333.188C270.027 333.758 270.008 334.631 269.44 335.169C268.92 335.687 268.048 335.667 267.461 335.118Z" fill="#02D2D6" fill-opacity="0.3815"/>
<path d="M269.075 335.387L173.377 382.128C172.676 382.495 171.794 382.191 171.476 381.467C171.109 380.764 171.41 379.882 172.133 379.563L267.853 332.871C268.554 332.505 269.388 332.829 269.755 333.532C270.122 334.235 269.798 335.069 269.075 335.387Z" fill="#02D2D6" fill-opacity="0.2524"/>
<path d="M212.296 303.382L218.243 275.462C218.421 274.691 219.15 274.255 219.898 274.387C220.647 274.519 221.105 275.297 220.974 276.046L215.145 303.972C214.966 304.742 214.211 305.248 213.393 305.089C212.645 304.957 212.118 304.152 212.296 303.382Z" fill="#02D2D6" fill-opacity="0.4615"/>
<path d="M235.521 285.434L212.612 334.942C212.295 335.659 211.454 335.971 210.739 335.652C210.023 335.333 209.71 334.491 210.027 333.775L232.936 284.267C233.253 283.551 234.115 283.287 234.831 283.606C235.546 283.925 235.838 284.718 235.521 285.434Z" fill="#02D2D6" fill-opacity="0.5"/>
<path d="M38.5791 468.387L30.1979 470.521C29.4112 470.694 28.6105 470.182 28.4363 469.394C28.262 468.606 28.7242 467.827 29.5108 467.653L37.9288 465.734C38.6672 465.582 39.4255 465.997 39.5785 466.737C39.7315 467.476 39.2963 468.187 38.5791 468.387Z" fill="#02D2D6" fill-opacity="0.3004"/>
<path d="M30.1741 467.592L147.53 494.486C148.299 494.665 148.736 495.395 148.557 496.166C148.357 496.888 147.65 497.372 146.928 497.171L29.5401 470.465C28.7705 470.285 28.2433 469.479 28.422 468.709C28.6007 467.939 29.3563 467.433 30.1741 467.592Z" fill="#02D2D6" fill-opacity="0.061148"/>
<path d="M38.9172 468.239L-7.39595 495.947C-8.07634 496.362 -8.98489 496.128 -9.42134 495.398C-9.83655 494.716 -9.60402 493.807 -8.92363 493.392L37.5227 465.855C38.1549 465.462 38.9941 465.669 39.4093 466.35C39.8032 466.984 39.5976 467.824 38.9172 468.239Z" fill="#02D2D6" fill-opacity="0.2823"/>
<path d="M233.577 286.117L207.19 272.835C206.501 272.446 206.188 271.604 206.575 270.915C206.962 270.226 207.755 269.935 208.492 270.302L234.851 283.654C235.519 283.994 235.832 284.836 235.466 285.573C235.154 286.172 234.293 286.436 233.577 286.117Z" fill="#02D2D6" fill-opacity="0.5"/>
<path d="M171.565 380.102L233.037 284.107C233.446 283.466 234.329 283.25 234.991 283.708C235.631 284.118 235.848 285.002 235.44 285.643L173.989 381.686C173.532 382.348 172.697 382.543 171.987 382.106C171.325 381.648 171.157 380.743 171.565 380.102Z" fill="#02D2D6" fill-opacity="0.2045"/>
<path d="M267.803 335.371L213.046 304.954C212.357 304.565 212.119 303.633 212.506 302.944C212.893 302.254 213.776 302.039 214.443 302.379L269.195 332.914C269.884 333.302 270.079 334.139 269.741 334.806C269.354 335.496 268.492 335.76 267.803 335.371Z" fill="#02D2D6" fill-opacity="0.4719"/>
<path d="M233.091 283.968L287.296 213.938C287.773 213.325 288.699 213.205 289.312 213.684C289.926 214.164 290.025 215.042 289.569 215.704L235.295 285.706C234.817 286.32 233.939 286.418 233.278 285.96C232.733 285.508 232.613 284.582 233.091 283.968Z" fill="#02D2D6" fill-opacity="0.3557"/>
<path d="M209.285 271.451L212.716 334.263C212.772 335.045 212.15 335.722 211.348 335.73C210.567 335.785 209.889 335.161 209.854 334.427L206.423 271.616C206.415 270.813 206.989 270.157 207.791 270.149C208.572 270.094 209.229 270.669 209.285 271.451Z" fill="#02D2D6" fill-opacity="0.5"/>
<path d="M171.667 379.942L210.231 333.455C210.73 332.889 211.655 332.77 212.242 333.318C212.808 333.819 212.907 334.697 212.429 335.311L173.886 381.846C173.408 382.46 172.462 382.531 171.848 382.052C171.24 381.455 171.141 380.577 171.667 379.942Z" fill="#02D2D6" fill-opacity="0.5"/>
<path d="M212.757 302.602L233.31 283.813C233.878 283.275 234.771 283.343 235.31 283.913C235.848 284.483 235.782 285.377 235.213 285.915L214.751 304.779C214.135 305.339 213.242 305.271 212.682 304.653C212.122 304.034 212.189 303.141 212.757 302.602Z" fill="#02D2D6" fill-opacity="0.5"/>
<path d="M215.178 303.785L212.683 334.45C212.622 335.226 211.957 335.807 211.134 335.766C210.358 335.704 209.777 335.038 209.817 334.213L212.194 303.542C212.255 302.766 212.968 302.164 213.743 302.226C214.636 302.294 215.239 303.009 215.178 303.785Z" fill="#02D2D6" fill-opacity="0.5"/>
<path d="M212.315 303.949L206.46 271.83C206.334 271.021 206.838 270.338 207.625 270.165C208.385 270.061 209.116 270.546 209.269 271.285L215.194 303.431C215.32 304.24 214.837 304.972 214.029 305.097C213.221 305.222 212.42 304.71 212.315 303.949Z" fill="#02D2D6" fill-opacity="0.5"/>
<path d="M171.49 380.192L212.409 302.986C212.796 302.297 213.658 302.033 214.395 302.4C215.084 302.788 215.349 303.652 214.983 304.389L173.994 381.568C173.607 382.257 172.746 382.521 172.057 382.133C171.368 381.745 171.103 380.881 171.49 380.192Z" fill="#02D2D6" fill-opacity="0.3711"/>
<path d="M212.634 302.714L287.392 213.896C287.918 213.261 288.817 213.211 289.452 213.739C290.065 214.218 290.137 215.166 289.638 215.731L214.902 304.598C214.376 305.233 213.477 305.282 212.842 304.755C212.159 304.249 212.108 303.349 212.634 302.714Z" fill="#02D2D6" fill-opacity="0.1967"/>
<path d="M30.1289 470.494L-57.3773 487.75C-58.164 487.923 -58.9166 487.39 -59.0695 486.65C-59.2438 485.862 -58.7121 485.11 -57.9736 484.957L29.49 467.605C30.2979 467.48 31.0505 468.013 31.2248 468.801C31.399 469.589 30.9156 470.32 30.1289 470.494Z" fill="#02D2D6" fill-opacity="0.1891"/>
<path d="M110.516 490.781L29.492 470.486C28.7224 470.306 28.2434 469.479 28.4221 468.709C28.6008 467.939 29.4258 467.46 30.1954 467.64L111.214 488.053C111.983 488.233 112.441 489.011 112.262 489.781C112.062 490.503 111.285 490.96 110.516 490.781Z" fill="#02D2D6" fill-opacity="0.4263"/>
<path d="M-8.22828 493.143L110.818 487.939C111.62 487.931 112.277 488.507 112.285 489.31C112.342 490.092 111.698 490.721 110.917 490.777L-8.08693 496.078C-8.88917 496.085 -9.61482 495.483 -9.62322 494.68C-9.63162 493.876 -9.05745 493.22 -8.22828 493.143Z" fill="#02D2D6" fill-opacity="0.2193"/>
<path d="M-8.97244 493.413L29.0075 467.817C29.6667 467.354 30.6235 467.567 31.0387 468.248C31.5021 468.909 31.3176 469.797 30.6585 470.26L-7.32152 495.856C-7.98066 496.319 -8.91613 496.155 -9.40078 495.446C-9.86417 494.785 -9.67977 493.897 -8.97244 493.413Z" fill="#02D2D6" fill-opacity="0.5"/>
<path d="M183.815 265.085L171.906 266.524C171.029 266.622 170.255 266.041 170.086 265.135C169.987 264.256 170.567 263.483 171.471 263.315L183.343 261.662C184.269 261.543 185.133 262.199 185.254 263.126C185.417 264.15 184.74 264.966 183.815 265.085Z" fill="#02D2D6" fill-opacity="0.4027"/>
<path d="M184.279 261.826L232.444 282.235C233.368 282.636 233.766 283.671 233.368 284.595C232.969 285.52 231.936 285.917 231.081 285.544L182.949 264.948C182.094 264.575 181.669 263.609 182.019 262.706C182.412 261.899 183.376 261.475 184.279 261.826Z" fill="#02D2D6" fill-opacity="0.431"/>
<path d="M185.187 264.02L166.837 314.864C166.486 315.768 165.447 316.283 164.523 315.883C163.62 315.531 163.126 314.538 163.455 313.587L182.013 262.824C182.315 261.941 183.327 261.496 184.209 261.799C185.042 262.124 185.537 263.117 185.187 264.02Z" fill="#02D2D6" fill-opacity="0.4019"/>
<path d="M184.242 265.012L123.416 288.505C122.479 288.86 121.416 288.406 121.06 287.467C120.705 286.529 121.157 285.465 122.094 285.11L183.027 261.859C183.915 261.525 184.861 261.973 185.195 262.864C185.508 263.706 185.062 264.651 184.242 265.012Z" fill="#02D2D6" fill-opacity="0.3436"/>
<path d="M232.472 285.566L165.866 315.926C164.95 316.329 163.908 315.923 163.456 315.027C163.053 314.11 163.457 313.067 164.351 312.616L230.978 282.304C231.894 281.901 232.936 282.307 233.318 283.176C233.77 284.072 233.366 285.115 232.472 285.566Z" fill="#02D2D6" fill-opacity="0.5"/>
<path d="M231.782 285.697L122.774 288.615C121.758 288.659 120.926 287.815 120.902 286.845C120.857 285.828 121.699 284.996 122.667 284.973L231.647 282.125C232.616 282.103 233.426 282.898 233.45 283.868C233.495 284.885 232.75 285.675 231.782 285.697Z" fill="#02D2D6" fill-opacity="0.4114"/>
<path d="M123.714 285.262L166.115 312.704C166.937 313.264 167.191 314.363 166.632 315.185C166.074 316.007 165.025 316.239 164.155 315.699L121.753 288.257C120.931 287.697 120.657 286.55 121.215 285.728C121.747 284.975 122.892 284.701 123.714 285.262Z" fill="#02D2D6" fill-opacity="0.5"/>
<path d="M230.833 282.368L325.217 227.676C326.138 227.155 327.303 227.449 327.824 228.372C328.346 229.295 328.054 230.461 327.132 230.982L232.642 285.433C231.769 285.933 230.701 285.596 230.222 284.77C229.743 283.943 230.008 282.847 230.833 282.368Z" fill="#02D2D6" fill-opacity="0.1853"/>
</svg>
